<svg id="Component_117_2" data-name="Component 117 – 2" xmlns="http://www.w3.org/2000/svg" xmlns:xlink="http://www.w3.org/1999/xlink" width="296.904" height="193.333" viewBox="0 0 296.904 193.333">
  <defs>
    <style>
      .cls-1 {
        fill: none;
      }

      .cls-2 {
        clip-path: url(#clip-path);
      }

      .cls-3 {
        fill: #fff;
      }

      .cls-4 {
        fill: #ad80f9;
      }

      .cls-5 {
        fill: #0071bc;
      }
    </style>
    <clipPath id="clip-path">
      <rect id="Rectangle_38" data-name="Rectangle 38" class="cls-1" width="276.539" height="151.944"/>
    </clipPath>
  </defs>
  <g id="Group_9382" data-name="Group 9382" transform="translate(0 43.26) rotate(-9)">
    <g id="Group_277" data-name="Group 277" class="cls-2" transform="translate(0 0)">
      <path id="Path_367" data-name="Path 367" class="cls-3" d="M3.405,2.078l1.087.133,1.163-.726L6.891,0,7.8.232l.709,1.079S9.2,2.8,9.221,2.86s-.006,1.759-.006,1.759S8.343,5.885,8.3,5.951,7.027,7.074,6.95,7.156a13.813,13.813,0,0,1-2.228.9c-.216-.012-2.088.11-2.249.091S.488,7.436.442,7.42,0,7.207,0,7.207L2.524,2.091Z" transform="translate(141.089 88.636)"/>
      <path id="Path_366" data-name="Path 366" class="cls-3" d="M2.191,1.572,3.985,0l2.46.2L8.61.993l1.976,2.135-.571,1s-3,.3-3.1.3-2.082.275-2.14.316-1.4,1.173-1.4,1.173L1.354,7.336A13.59,13.59,0,0,1,.008,6.983c-.064-.066.274-2.234.274-2.234Z" transform="translate(135.317 79.681)"/>
      <path id="Path_365" data-name="Path 365" class="cls-3" d="M1.349,1.124l1.494-.094.891.224L5.045.5,5.776,0,7.215,1.431l.678,2.2a17.7,17.7,0,0,1,.076,1.84A13.959,13.959,0,0,1,6.594,6.487c-.075.015-2.486.283-2.486.283s-2.286-.207-2.481-.215S.082,6.022.138,5.9-.06,4.248.013,3.987a19.394,19.394,0,0,1,.611-2.05A6.673,6.673,0,0,1,1.349,1.124Z" transform="translate(94.911 104.736)"/>
      <path id="Path_364" data-name="Path 364" class="cls-3" d="M1.562,21.29c-6.643,25.4,10.051,50,10.051,50L20,79.756,22.7,73.3l5.117-2.416,9.575-6.271,8.31-7.885,6.019-7.935,4.846-3.518L58.3,40.954l-.1-2.581L59.278,36.6l0-3.647-1.839-1.811s-5.3-4.615-5.956-4.7-6.833-5.564-6.833-5.564L37.2,14.4l-3.908-3.556-6.266-2.78-7.85.434L15.338,4.856,14.787,0,11.96,2.66,6.391,8.916,3.358,14.628,1.88,18.7Z" transform="translate(164.181 22.055)"/>
      <path id="Path_363" data-name="Path 363" class="cls-3" d="M156.952,21.339c-6.583,4.408-5.908,42.185-5.908,42.185l-23.467-2.881,7.33,7.175L129.333,71.2l-6.112-5.966s-2.315-4.2-2.443-4.424-7-3.2-7-3.2l-3.443,2.148,1.442,2.906,13.063,8.929,4.9,4.7,1.656,3.347-.628,6.6s-1.908,3.525-2.125,4.019-1.363.632-1.363.632l-.829-.605-1.139-3.5-1.169-3.85L122.749,80.7,120.9,78.61,118.436,76.7l-3.375-1.9-4.587-2.928-8.766-5.54-3.1-4.575.332-2.7-7.951.153,7.3,21.808L94.57,82.567l-1.746,2.346-1.731,3.355-1.7.435-1.581-1.183-1.267,1.123-1.8,1.236-.927-1.571,1.11-2.817,1.063-3.142,3.149-.69,3.671-.414-1.043-3.4L86.769,65.978l-1.314-5.842-3.033-.372-.9,2.633-.907,4.39s-2.022,11.8-2.042,11.974-.631,6.941-.567,7.035,1.753,3.275,1.878,3.485,1.865,3.541,1.915,3.666,1.592,2.56,1.592,2.56l-.124,3.23a27.271,27.271,0,0,0-1.614,3.365c.069.249-2.494,1.434-2.494,1.434l-1.44-.5a18.307,18.307,0,0,1-.5-2.231c.021-.338-1.807-4.41-1.807-4.41s-3.349-4.892-3.729-5.058A10.6,10.6,0,0,1,70.209,89.1s.339-3.09.41-3.342.432-3.515.432-3.515l-.073-2.992.3-6.761-.3-5.818,1.024-5.9-4.759.9L61.36,66.736s-4.624,2.281-4.789,2.314-3.855.659-3.855.659-4.757,2.172-5.053,2.4-9,2.584-9,2.584l-6.033,1.861L29.1,78.717,21.215,84.6s-3.987,4.673-4.028,4.788-4,8.828-4.02,8.858-.91,3-.91,3,2.285,14.041,2.3,14.337,1.811,4.131,1.914,4.384,3,4.265,3.251,4.656a38.449,38.449,0,0,0,4.135,2.677c.163.087,5.313.758,6.318.934a65.755,65.755,0,0,0,6.734.153c.319-.068,6.244-1.728,6.244-1.728s5.787-5.745,5.894-5.852,2.081-7.02,2.112-7.163-.321-4.308-.321-4.308l-1.349-4.671s-1.861-3.5-1.98-3.626-4.142-3.322-4.142-3.322l-5.738-.058-5.542,1.89-3.46,4.13s-1.238,5.565-1.293,5.9.786,4.2.786,4.2,3.609,3.341,3.737,3.282,6.433.082,6.433.082l2.987-1.317,1.644-2.236.232-2.979L41.441,107.3l-2.012-1.487-2.757-.339-2.752,1.186-.575,2.392,1.434,2.316,2.621-.552,1.107.671-.274.924-5.364.521-1.323-1.342-1.635-2.8,2-4.372,3.776-2.35,6.387.064,4.578,3.344,1.871,7.069-1.8,6.342-5.19,3.846s-7.521.981-7.922.9-5.337-1.5-5.337-1.5l-3.615-3.491-2.362-3.657L21.2,109.7l1.016-5.325L24.6,99.651l4.655-4.589,5.116-3.047,7-1.648,6.648,1.416,6.381,4.6,3.808,6.809,1.362,9.234-1.348,7.4-3.284,6.429-3.972,3-7,4.916L33.7,137.176l-10.038-.352-7.9-3.368-4.473-3.3-5.259-5.713L2.55,119.5.426,112.307,0,101.65,2.314,88.8l3.95-11.333,4.116-9.077,6.6-10.075L28.567,46.532,43.616,36.4l20.4-16.015L73.4,11.207l15.281-8.1L102.3.275,110.861,0,122.63,2.771l6.319,5.281,9.076,11.369s-4.39-2.775,1.477-5.948,18.555,6.118,18.555,6.118Z" transform="translate(0.618 14.039)"/>
      <path id="Path_76" data-name="Path 76" class="cls-4" d="M3.868,0C1.6,1.218-.239,1.281.025,4.545c.184,2.27,2.877,8.774,5.605,9.063a11.493,11.493,0,0,0,2.6-.376c-.338-.364-.672-.731-.993-1.11A14.886,14.886,0,0,1,5.281,9.258,18.329,18.329,0,0,1,4.051,6.163a9.944,9.944,0,0,1-.507-3.288C3.59,1.91,3.8.962,3.868,0" transform="translate(17.428 121.034)"/>
      <path id="Path_77" data-name="Path 77" d="M9.049,3.067A5.462,5.462,0,0,0,8.2,1.234,4.374,4.374,0,0,0,7.459.462,1.59,1.59,0,0,0,6.483,0C5.924.014,5.476.575,5.036.846A2.5,2.5,0,0,1,3.1,1a1.461,1.461,0,0,0-1.067.134,2.924,2.924,0,0,0-.7.631c-.018.021-.033.045-.05.066C.758,2.72.515,3.853.045,4.729A2.8,2.8,0,0,0,.47,6.879c.468-.021,2.25.684,2.985.756a9.062,9.062,0,0,0,5.032-.886c1.01-.689.754-1.661.828-2.242a9.94,9.94,0,0,0-.265-1.44M2.314,6.288a3.04,3.04,0,0,1-.073-4.093c.908-1.125,1.086-.407,1.894-.319,1.092.119,1.492-.4,2.213-1.048,1.789.86,2.161,2.859,2.184,4.672-1.093,1.184-5.051,1.819-6.218.788" transform="translate(94.009 104.412)"/>
      <path id="Path_78" data-name="Path 78" class="cls-5" d="M1.159.256A1.381,1.381,0,0,0,.25.017C.162.034.082.06,0,.083.1.092.2.106.307.125a5.17,5.17,0,0,0,.852.131" transform="translate(96.885 104.871)"/>
      <path id="Path_79" data-name="Path 79" d="M.33.527A3.406,3.406,0,0,0,0,0,6.108,6.108,0,0,1,.8,2.363,9.626,9.626,0,0,1,.842,4.341,6.4,6.4,0,0,0,.33.527" transform="translate(132.29 91.335)"/>
      <path id="Path_80" data-name="Path 80" d="M2.238,1.761a11.646,11.646,0,0,1-.621,1.211A11.929,11.929,0,0,1,.557,5.06,2.827,2.827,0,0,0,.091,7.273c.5,1.394,2.213.81,3.163.248A13.815,13.815,0,0,0,4.845,6.205a4.194,4.194,0,0,1,2.191-.978c.919-.1,1.836.11,2.754-.071a2.112,2.112,0,0,0,1.547-.9,1.843,1.843,0,0,0-.516-1.963,10.558,10.558,0,0,0-1.48-1.228c-2.6-1.307-5.356-1.757-7.1.7m8.342,2.254c-.753.43-1.414-.053-2.079,0A10.272,10.272,0,0,0,3.553,5.845c-.754.5-1.126,1.576-2.215,1.37-.1-1.793,1.6-5.86,3.521-6.3,1.5-.345,5.556,1.312,5.722,3.1" transform="translate(134.761 79.255)"/>
      <path id="Path_81" data-name="Path 81" d="M10.139,4.663a9.315,9.315,0,0,0-.107-1.134,5.744,5.744,0,0,0-.648-1.941A3.335,3.335,0,0,0,7.924.091a1.461,1.461,0,0,0-1.75.78,1.854,1.854,0,0,1-1.427.942c-.393.043-.8-.053-1.185.021a1.579,1.579,0,0,0-.863.542,5.439,5.439,0,0,0-.825,1.634A26.894,26.894,0,0,1,0,7.805c3.509,2.483,8.944,1.065,10.133-3.14Zm-1.6,1.228C8.2,6.806,5.943,7.869,4.961,7.967,3.325,8.131,2.384,7.5.887,7.113A22.075,22.075,0,0,1,2.96,3.051c.8-.561,1.65.138,2.335-.067C6.207,2.711,6.582.832,7.59.924c1.567.143,1.335,3.927.948,4.967" transform="translate(140.714 88.305)"/>
      <path id="Path_82" data-name="Path 82" d="M149.136,65.217c.666-.177,1.327-.372,1.985-.566.82-.242,1.677-.446,2.5-.722a61.864,61.864,0,0,1-9.855-.981C137.688,61.84,131.62,60.914,125.458,60a60.176,60.176,0,0,0-6.519-1.041c-.051-.372.5-.2.767-.211,2.269-.091,4.557,0,6.824-.215,3.77-.355,6.107-1.259,10.1-.824.947.1,1.648.561,2.559.611.15-1.761-2.936-2.314-4.28-2.117a149.606,149.606,0,0,1-18.273,1.49c-2.254.057-3.331-.726-5.078,1.05-1.008,1.025-1.507,1.836-.851,3.181,1.506,3.085,9.677,7.443,12.706,9.646a16.49,16.49,0,0,1,1.711,1.342c.424.609-.82,1.813-.9,2.458a2.811,2.811,0,0,0,1.321-1.917c1.353.432-1.48,3.472-1.324,3.62,1.436-.281,1.446-2.018,2.418-2.768,1.2,1.341-.229,2.03-.655,3.409l1.649-2.127c1.794,1.712,3.563,3.1,3.722,5.72.114,1.876-.684,6.771-1.752,8.33a13.344,13.344,0,0,1-1.973,1.495c-1.618-2.552-1.6-5.707-3-8.379-3-5.721-15.232-11.442-20.859-15.6-2.281-1.687-4.6-3.444-3.265-6.534,2.1-4.847,7.971-6.918,12.716-8.788,3.935-1.551,14.441-3.945,16.995-6.289,1.733-1.591,1.749-4.2,1.065-6.3-.171-.526-.973-2.521-1.774-1.688.852,2.333,1.153,4.478-1.207,6.017-1.556-1.04-2.711-2.2-4.794-1.814-.734.135-1.7.982-2.392.907-1.116-.121-3.126-1.524-4.312-1.764-.827-.167-1.991.045-3-.077-1.035-.126-2.185-.611-3.168-.769a84.475,84.475,0,0,0-14.923-.7c-.594.03-4.53.41-4.73.535-.786.495,1.179,2.319,1.693,2.636,1.992,1.227,7.6.939,10.254,1.366a54.439,54.439,0,0,1,11.108,3.1l4.685.687c-.03.336-.346.317-.566.407-4.466,1.828-11.5,4.179-15.065,7.153-.821.686-2.657,3.02-3.178,3.316-1.379.785-4.384.494-5.952.632-3.259.287-6.518.674-9.8.85.929-3.729,1.872-7.467,2.577-11.248.451-2.417,1.2-5.893,1.393-8.241.314-3.869-1.11-7.542-5.788-6.882-5.949.839-15.082,8.86-21.028,11.823-3.1,1.546-9.33,3.27-10.921,6.263-.991,1.864-.72,5.586.965,7.01.339-.938-.393-1.854-.39-2.877.007-3.075,1.78-4.69,4.353-6.073a14.9,14.9,0,0,0-.219,3.52c.039.294.164.667.44.317.351-1.5.224-4.226,1.762-4.9v3.41c.663.1.355-.154.446-.518A24.437,24.437,0,0,1,58.4,48.2c2.224-1.175,4.424-2.433,6.678-3.551,1.258-.623,2.793-.987,4.043-1.627,3.814-1.957,8.856-7.394,13.393-6.864.847.1,2.854,1.023,3.232,1.771,1.377,2.724-.909,9.4-1.523,12.466-1.669,8.323-3.361,16.486-5.246,24.757-.483,2.119-.722,5.683-1.48,7.518-.266.645-1.492,1.288-1.7,1.762-.45,1.012,1.917-.795,1.977-.962.448,1.737-1.986,1.651-1.758,3.2l1.759-.85c.039,2.821,2.58,4.524,3.92,6.753a16.818,16.818,0,0,1,2,4.884c.293,2.975-2.3,5-4.6,6.476A26.547,26.547,0,0,0,76.931,95.9c-1.3-2.607-3.652-4.395-5-6.99.074-.854.445-1.751.533-2.587.781-7.42-.518-14.79.275-22.11.51-4.714,3.871-9.3,4.04-14.2l2.1-7.026c-.7.777-1.612,1.35-2.312,2.128-2.087,2.324-2.6,5.734-4.333,8.592-2.061,3.406-5.448,8.4-8.312,11.133-1.968,1.878-3.941,1.505-6.392.737-.116.529.119.377.41.553a5.242,5.242,0,0,0,3.11.726c-1.026,1.825-3.342,1.467-5.113,1.006-1.346-.35-2.342-1.469-3.691-1.645.476,1.346,2.277,1.375,3.081,2.34a10.486,10.486,0,0,1-3.746-1.166c-.729-.39-3.5-2.8-3.958-2.452a9.992,9.992,0,0,0,3.009,3.157c.474.341,2.314.994,1.949,1.533a21.726,21.726,0,0,1-3.93,2.163,31.573,31.573,0,0,1-4.483,1.4l-7.771-2.5,2.791,2.09,2.93,1.1c-2.053.75-4.194,1.263-6.279,1.914-.548.171-2.907,1.286-3.074,1.286H28.908l1.761.855c-2.938,2.259-6.284,4.124-9.034,6.7a14.966,14.966,0,0,1-11.55-4.782,14.662,14.662,0,0,1-1.761-2.75c-.168-.694,3-6.593,3.6-7.624a94.628,94.628,0,0,1,6.313-9.233c.014,2.85.642,5.959,2.968,7.884-.146-2-1.3-3.912-1.511-5.886a23.141,23.141,0,0,0-.185-3.566c8.943-12.025,22.974-18.972,34.92-27.754,3.786-2.783,7.019-6.124,10.582-9.149A144.542,144.542,0,0,1,83.861,8.271c.413-.128.25.093.36.244.509.7,2.463,4.654,2.114,5.237L63.691,28.918c6.395-2.758,11.577-7.76,17.581-11.215,8.4-4.834,14.73-5.891,24.071-7.6.221-.04,3.323-.644,2.812-1a60.076,60.076,0,0,0-8.585.426c0-2.6-1.077-4.962-2.2-7.244,2.172-.247,4.315-.874,6.5-1.065a41.5,41.5,0,0,1,16.584,2.37c-.03,1.619-.418,7.029-1.617,8.07-.607.527-3.659-.511-4.653-.616-.241-.025-.794-.191-.741.185,6.469,1.916,13.06,3.687,17.72,8.736.26.282,1.188,1.675,1.32,1.707,1.009.244.021-1.321-.147-1.564a23.926,23.926,0,0,0-3.706-3.658,2.891,2.891,0,0,0,1.811-1.654l.611-3.248c7.713,8.705,11.176,19.684,15.583,30.089.94,2.221,2.908,4.817,2.92,7.418.007,1.47-.741,3.5-.9,5.006.26.276,1.582-1.412,1.724-1.632,1.432-2.214,1.2-3.247.364-5.61-1.01-2.849-2.847-6.307-4.118-9.225-2.061-4.735-7.485-16.22-6.99-20.927.181-1.724.983-2.235,2.715-2.43l2.123,2.43-1.514,1.087c-.961,1.659.975,6.327,2.73,7.325.575.046.22-.089.165-.373-.376-1.931-2.033-3.89-.99-5.748,1.064-1.894,5.041,1.08,6.507,1.684a23.041,23.041,0,0,0,4,1.25.588.588,0,0,0,.449-.213l.1-.645a3.649,3.649,0,0,1-1.773-.737c-.192-.246-.821-2.226-.1-2.031,1.548.42,3.151,1.991,4.629,2.975.316-.566.634-1.131.944-1.7a24.11,24.11,0,0,0-5.817-3.594c-3.392-1.551-8.479-3.484-12.238-2.957-1.722.241-5.049,2.035-4.9,3.993-1.475-2.041-2.863-4.154-4.519-6.066-2.973-3.433-6.137-6.733-10.5-8.372-15.126-5.681-29.9-1.09-43.269,6.387-6.543,3.66-9.775,7.487-15.119,12.216C51.338,31.687,37.085,39.485,25.164,49.7,10.7,62.087,1,84.892.073,103.4c-.6,11.943,2.424,20.264,11.546,28.238,12.354,10.8,29.264,8.45,41.281-1.6,6.356-5.317,7.654-12.413,7.534-20.147-.053-.392-.113-.783-.183-1.174-.223-1.251-.549-2.484-.833-3.723a15.789,15.789,0,0,0-1.129-3.489c-.434-.881-.89-1.764-1.368-2.624a6.677,6.677,0,0,0-1.758-2.264.5.5,0,0,1-.216-.335,22.894,22.894,0,0,0-7.341-4.6c-11.044-3.628-23.847,5.074-25.846,15.795-.046,1.18-.343,2.339-.351,3.522a10.471,10.471,0,0,0,.607,3.193,17.353,17.353,0,0,0,1.307,3.078,27.288,27.288,0,0,0,4.443,5.343.206.206,0,0,1,.052.1c3.821,2.695,8.519,2.784,12.973,1.569,5.164-1.408,7.451-4.463,8.527-9.434.178-.822.074-1.594.273-2.19a4.266,4.266,0,0,1-.339-1.442,10.412,10.412,0,0,0-.3-1.745,16.986,16.986,0,0,0-.876-2.184,8.549,8.549,0,0,0-1.083-1.809,8.829,8.829,0,0,0-3.164-2.413,10.036,10.036,0,0,0-3.994-.812,13.408,13.408,0,0,0-3.441.364c-.475.156-.937.323-1.382.511a15.894,15.894,0,0,0-1.691.884,14.23,14.23,0,0,0-1.1,1.429,10.1,10.1,0,0,0-1.348,2.765,5.186,5.186,0,0,0-.175,2.711,4.97,4.97,0,0,0,1.317,2.23,3.5,3.5,0,0,0,1.156.852,3.649,3.649,0,0,0,1.284.258,9.4,9.4,0,0,0,2.329-.25,6.605,6.605,0,0,0,1.763-.622c.385-.213.892-.57.768-1.065a1.381,1.381,0,0,0-.619-.761,1.349,1.349,0,0,0-.967-.216.185.185,0,0,1-.148.139,3.885,3.885,0,0,1-2.085.208,1.827,1.827,0,0,1-.963-2A3.684,3.684,0,0,1,38,106.643a4.392,4.392,0,0,1,3.8,1.909,7.282,7.282,0,0,1,1.408,4.264,2.858,2.858,0,0,1-.353,1.394c.046-.017.093-.033.139-.05-1.394,3.423-6.126,3.98-9.463,3.408.022-.021.049-.04.073-.06a7.591,7.591,0,0,1-2.891-1.464c-1.859-1.632-2.375-4.217-2.217-6.55a6.639,6.639,0,0,1,1.026-3.375,7.978,7.978,0,0,1,.733-.914l-.024,0c2.914-4.838,8.74-7.367,14.308-5.111,0,.008,0,.013-.006.021a6.656,6.656,0,0,1,1.8,1.035,13.922,13.922,0,0,1,4,5.661,11.691,11.691,0,0,1,.833,2.9,5.366,5.366,0,0,1-.111,1.907l.08-.016c-.776,5.783-2.923,13.067-9.027,15.447-4.584,1.787-12.9,1.905-17.313-.279-10.149-5.024-12.467-20.035-9.252-29.7,2.831-8.512,9.356-14.358,17.322-18.394,5.586-2.83,9.46-2.264,14.867-4.148,1.887-.657,5.06-2.623,6.65-2.939,1.229-.245,2.588.169,3.891-.069,3.412-.623,6.257-4.16,8.379-6.593L71.611,62.8a67.506,67.506,0,0,0-.889,7.129c-.192,3.935.5,8.14.225,11.939-.226,3.124-1.706,6.169-.684,9.233a.2.2,0,0,1,.07.1,5.29,5.29,0,0,0,1.925,2.322A9.869,9.869,0,0,1,74.2,95.477,19.153,19.153,0,0,1,75.99,98.6a15.312,15.312,0,0,1,1.221,4.705c.5.524.77,1.993,1.787,2.127,1.073.141,2.724-1.482,3.4-2.247.319-.362.652-1.123,1.049-1.607.223-.538.437-1.079.613-1.633a6.887,6.887,0,0,0,.2-3.8,11.032,11.032,0,0,0-1.4-3.114,32.175,32.175,0,0,1-2.772-4.718c-1.727-2.117-1.083-5.15-.708-7.659.979-6.556,3.212-12.83,4.342-19.348,3.219,4.45,4.566,9.936,6.709,14.917.78,1.813,2.049,3.549,2.532,5.537A6.481,6.481,0,0,0,85.216,84.6c-.407.689-.57,1.44-.945,2.1-.3,1.181-.833,2.377-.268,3.567.336.708,1.2,1.789,2.09,1.176a3.125,3.125,0,0,0,.757-.883c.246-.513.453-1,.757-1.1a4.373,4.373,0,0,1,2.311.654,1.939,1.939,0,0,0,2.027-.511,8.592,8.592,0,0,0,1.365-2.34,13.439,13.439,0,0,1,1.355-2.489,5.86,5.86,0,0,1,2.057-1.693,18.483,18.483,0,0,1,2.469-.964L92.52,60.779l6.166-.321c-1.981,3.787,3.589,7.029,6.314,8.909,2.139,1.475,4.319,2.942,6.472,4.388,1.278.858,2.7,1.559,3.968,2.452a.223.223,0,0,1,.114.047,22.767,22.767,0,0,0,3.7,2.141,11.107,11.107,0,0,1,2.843,2.072,10.212,10.212,0,0,1,1.961,2.853,10.964,10.964,0,0,1,.827,3.492c.038.391.062.782.075,1.174l.141-.041c.331,1.261.984,4.849,2.863,4.387,2.29-.563,3.181-3.868,4.109-5.973.161-.869.354-1.733.494-2.606.352-2.19.28-4.561-1.3-6.309a34.446,34.446,0,0,0-2.6-2.295A8.46,8.46,0,0,1,126.73,72.8c-4.661-4.34-11.243-6.558-15.235-11.6,2.225-1.677,5.251-.9,7.849-.71,1.946,4.97,6.386,7.884,9.946,11.645.524-.129,1.08-.131,1.607-.247a.633.633,0,0,1-.067-.022c-.264-.115-3.76-3.447-4.172-3.91a19.166,19.166,0,0,1-1.555-2.07c-.041-.1-.057-.349.107-.315l1.652,1.275-2.418-3.518c-.185-.587,1.019-.275,1.263-.048.6.557,1.257,2.556,2.147,3.14.308-.605-1.918-2.963-1.651-3.194a3.013,3.013,0,0,1,2.972,1.489l-.331-1.062h.436a46.807,46.807,0,0,0,5.826,6.161,3.736,3.736,0,0,0,.842-.933c.122-.192.231-.391.335-.592l-6.118-6.127c6.284,1.2,12.478,3.215,18.972,3.056m-45.963-22c-2.834-.374-8.43.111-10.537-1.732-.348-.3-.656-.909-.991-1.275l4.048-.408c5.28.356,10.556.572,15.812,1.315a28.649,28.649,0,0,1,6.661,1.436c1.788.688,2.748,1.346,4.734.74.572-.174,1.222-.8,1.823-.711l2.359,1.463-.127.436c-1.327.339-2.677,1.119-4,1.428-7.834,1.835-12.475-1.727-19.786-2.692m49.572-25.6-.349,1.92c-1.868-.277-2.312-1.915-2.856-3.409Zm-4.539-2.225,1.551,2.864c-2.527-.845-5.182-1.951-6.6-4.257ZM129.066,9.736c2.523.452.816,6.824-1.151,6.35-1.724-.746-.3-.774.366-1.677a9.69,9.69,0,0,0,.785-1.583Zm-7.924-5.753,1.41.4.146.335c.234,2.526-.606,4.79-1.334,7.147,2.151-1.7,1.956-4.829,1.761-7.245a8.1,8.1,0,0,1,2.862,1.6,32.169,32.169,0,0,1,2.651,2.548c.735,1.239-.618,6.6-2.063,6.476-.229-.019-3.4-1.7-4.116-1.986a25.651,25.651,0,0,0-3.078-.965,10.979,10.979,0,0,0,.982-1.924,24.856,24.856,0,0,0,.78-2.868ZM93.9,3.288c.6-.191,3-1.08,3.366-.585.342,1.532,2.1,5.684,1.319,7.039-.187.325-.456.117-.524-.139-.151-.563.023-1.36-.091-2.042a8.1,8.1,0,0,0-2.357-4.642,20.822,20.822,0,0,0,.984,1.922c.358.868,1.364,4.482.9,5.123l-9.145,3.183A11.662,11.662,0,0,0,85.267,7.5,42.99,42.99,0,0,1,93.9,3.288M85.455,8.168c.517.514,2.651,4.8,2.228,5.193l-.855-.025c-.217-1.941-1.392-3.369-2.234-4.978-.328-.628.318-.73.861-.19m-52.916,97.9c.612,1.273,1.895,1.621,1.207,3.2-1.872-.415-3.053-1.745-1.207-3.2m2.145,6.04c1.32.941,2.359.622,3.54-.248a.727.727,0,0,1,.708.819c-3.242,2.549-8.541.038-7.826-4.16l.437-.105c.1,1.052,1.539,1.26,1.995,1.8.42.5.419,1.376,1.147,1.895m-.158-4.763c-.334-.506-1.351-1.38-1.19-1.983l2.394-1.425c-.694,1.356.732,2.734-1.2,3.408m3.172-1.626-1.527.56c-.123-1.51-.539-2.934,1.538-2.983ZM3.155,94.345A11.239,11.239,0,0,0,13.5,97.329a37.068,37.068,0,0,0-1.585,8.586c-2.427,3.335-6.728,3.888-10.491,2.464A58.3,58.3,0,0,1,3.155,94.345m-1.544,15.13c2.845.783,5.437,1.084,8.147-.317.937-.484,1.5-1.218,2.416-1.6-.259,3.183,1.029,6.277,1.216,9.368a9.593,9.593,0,0,1-9.748,2.942,25.354,25.354,0,0,1-2.032-10.392m57.447,6.814a8.457,8.457,0,0,0-6.382-1.7l-.008-.716a5.869,5.869,0,0,1,5.406-.567c1.728.724,1.254,1.4.984,2.987m-.525-11.1c.68.522,1.189,7.472.745,7.906a6.494,6.494,0,0,0-5.117-.587c-.537.147-.737.581-1.263.586.169-2.086-.785-4.09-.836-6.135,1.129-.993,5.2-2.746,6.47-1.77m-36.012,6.95v-3.09a16.68,16.68,0,0,0,4.841,1.067l.17,2.211a9.333,9.333,0,0,1-3.8,2.68,13.719,13.719,0,0,1-1.208-2.869m.223-4.368a9.444,9.444,0,0,0,4.621,1.066v.637l-4.484-.627ZM24.091,116l3.933-2.263c.358.376-1.27,2.089-1.648,2.345-.733.5-2.283,1.2-2.285-.082M46.845,118.2l-2.917-2.869.609-1.817a7.72,7.72,0,0,1,3.479,1.534c.273.452-1,3.158-1.171,3.152m1.429-3.833c-.337.018-.272-.413-.542-.643a5.29,5.29,0,0,0-3.181-1.076l-.237-1.261c2.128.219,5.037.122,3.959,2.98m-.9-6.371.9,3.388a7.169,7.169,0,0,0-3.968-.514l-.616-1.338c-.077-.742,3.335-1.834,3.686-1.536m-8.757-2.179-.029-2.53c2.2-.118,4.523.009,6.161,1.6-.848.85-1.911,1.65-2.2,2.876a7.944,7.944,0,0,0-3.931-1.945m4.153,2.474c-.12-.856,2.887-4.618,3.522-1.6-1.239.1-2.055,1.129-2.973,1.707-.29.183-.5.217-.549-.11m.8,7.587c1.212.816,4.042,3.142,1.842,4.244a4.88,4.88,0,0,0-2.422-3.413Zm-4.765,2.753.55,4.475c1.2-1.337.335-3.219-.109-4.685,1.035.211,2.362-1.155,3.023-1.255.982-.148,2.642,2.716,2.658,3.532.025,1.3-6.34,3.139-7.66,3.047a7.647,7.647,0,0,0,0-4.9Zm-2.45.242a5.954,5.954,0,0,1-.181,4.991c-.517.339-5.9-.557-6.609-1.5a5.56,5.56,0,0,0,2.42-4.156,9.688,9.688,0,0,0,4.37.667m-5.034-1.092a4.153,4.153,0,0,1-1.315,3.307c-.168.183-1.113,1.184-1.324.953.194-.966,1.093-1.624,1.625-2.58.3-.532.3-1.742,1.014-1.68m-1.141-.363c-.123.687-1.717,3.882-2.46,3.755a12.082,12.082,0,0,1-3.222-4.244l1.7-.163,2.145-1.969Zm-2.74-9.469-4.476-.834a11.1,11.1,0,0,1,2.633-6.17,8.706,8.706,0,0,0,3.275,3.537Zm-.3-5.831c-.207-.239-.535-.346-.438-.746.27.6,2.84,1.853,2.855,2.024.1,1.136-2.25-1.084-2.417-1.278m5.4-2.021c-.545.433-1.94,2.083-2.322,2.24-.914.375-3.279-1.918-3.718-2.746a16.687,16.687,0,0,1,5.7-4.826c.233,1.323.606,3,1.761,3.835-.428-1.4-1.535-2.689-1.283-4.23l1.063-.458A7.924,7.924,0,0,0,35.5,98.075c-.017.191-2.559,1.711-2.955,2.026m3.726-2.764c-.612-.344-2.226-3.237-1.832-3.822,2.33-.815,4.7-1.762,7.237-1.728a4.823,4.823,0,0,0-1.759,4.26c.634-.4.552-1.387.837-2.065.534-1.272,1.21-2.72,2.9-2.092a9.646,9.646,0,0,0-2.223,5.2c-1.3-.376-4.254.757-5.163.247M45.4,98.725c-2.117-1.491-3.633-.466-2.444-3.887a10.574,10.574,0,0,1,1.731-2.854,24.434,24.434,0,0,1,6.671,2.573c-2.106,1.45-3.789,3.091-3.963,5.75-.266.269-1.67-1.353-2-1.582m2.216,2.222A11.792,11.792,0,0,1,48.6,97.74a6.917,6.917,0,0,1,3.316-2.7l1.644,1.324a17.322,17.322,0,0,0-2.962,1.391,7.534,7.534,0,0,0-2.31,3.311Zm3.194,3.838c-.773-1.681-2.024-1.985-1.264-4,.591-1.565,3.533-4.009,5.237-3.05.585.329,2.993,4.263,2.737,4.485a8.651,8.651,0,0,0-6.71,2.561m.419.419c.35-1.325,5.325-2.79,6.705-2.312l.247,1.037c-2.732-.367-4.624.869-6.821,2.132-.037-.308-.22-.52-.131-.856m1.24,10.456a7.117,7.117,0,0,1,6.269,1.7,24.576,24.576,0,0,1-2.542,7.452l-.451-.13c-.684-1.75-2.794-2.756-4.608-3.066a17.423,17.423,0,0,0,1.332-5.956m-1.76,6.395c1.312.039,5.114,2.729,4.507,4.031-.093.2-.971,1.02-1.214.859a7.971,7.971,0,0,0-3.65-3.828ZM47.4,125.776a24.413,24.413,0,0,1,1.766-1.715c1.184-.517,4.486,2.882,4.146,4.013a26.172,26.172,0,0,1-2.983,2.455c-.338.244-3.448,2.336-3.591,2.169.171-1.915-.885-3.494-1.972-4.983a24.528,24.528,0,0,1,2.635-1.939m-3.349,2.5a15.7,15.7,0,0,1,1.315,2.021,13.333,13.333,0,0,1,.7,2.31c.071.327.393.408-.108.73l-1.824-3.982c-.45-.26-1.129-1.75-.088-1.079m-1.5.69c.884.392,2.623,4.189,2.1,5.016-.275.435-5.985,2.637-6.275,2.342a18.676,18.676,0,0,0-1.54-6.393c1.442.554,4.657-1.435,5.716-.966m-5.96.987a28.026,28.026,0,0,1,1.124,6.266c-.157.742-1.105.515-1.761.743a11.053,11.053,0,0,0-.44-7.03Zm-4.271.423c.62.007,1.737-.562,2.206-.021.8.918,1.149,6.051-.021,6.806-.655.423-4.121.685-5.056.663a19.855,19.855,0,0,1-3.491-.454c-.244-.076-.532-.07-.571-.4,2.18-1.125,3.558-4.646,2.2-6.82,1.569-.222,3.245.212,4.731.229m-7.267,6.6-.388.166-1.479-.39a10.379,10.379,0,0,0,4.071-6.39c1.1,2.309-1.16,4.656-2.2,6.613m1.216-7.038c-.273,1.868-2.439,6.089-4.565,6.351a12.658,12.658,0,0,1-2.85-.774,22.782,22.782,0,0,1-3.368-2.276c2.292-1.615,4.4-3.326,4.621-6.287a13.4,13.4,0,0,0,6.162,2.985m-7.883-.493c-.856,1.343-2.293,2.173-3.34,3.373a.682.682,0,0,1-.61-.166c-.336-.34-.77-1.459-1.375-1.86,2.96-.361,4.542-2.664,5.613-5.113,1.451.829.406,2.677-.288,3.766m-3.86-10.484c-.057,1.038-4.287,3.781-4.986,4.795a9.123,9.123,0,0,0,4.192-2.439c.315-.311.974-1.685,1.308-1.394-.1,1.226,2.625,4.282,2.591,4.969-.113,2.225-3.537,5.71-5.954,5-.536-.157-3.345-3.073-3.891-3.692a32.219,32.219,0,0,1-3.526-4.9,11.605,11.605,0,0,0,7.995-1.634c.7-.5,1.183-1.209,1.907-1.668-.045.328.38.713.366.957M16,91.333c-.982,1.554-1.463,3.358-2.553,4.775C9.791,97.236,5.94,95.7,3.409,93.13,4.491,88.044,5.627,82.873,7.888,78.15c2.156,4.793,7.45,7.321,12.655,7.672-1.448,1.878-3.268,3.5-4.541,5.511M70.667,60.715c-.16.036-.564.394-.372-.147.413-1.164,1.257-2.524,1.6-3.778l1.7-2.725c-.161,2.126-1.147,4.228-1.583,6.351a9.2,9.2,0,0,0-1.342.3M90.651,88.794c-1.392-1.857-3.029-1.439-4.666-.143-.236.187-.305.727-.725.787.259-1.93.132-3.274,1.448-4.883a5.278,5.278,0,0,1,7.57-.765c-2.008,1.176-2.391,3.324-3.628,5m7.375-6.6c-.764.038-2.315.889-2.878.07-.608-.885-1.334-3.942-1.859-5.178-1.011-2.381-2.082-4.82-3.148-7.181-1.032-2.287-2.256-4.516-3.34-6.782,1.111-.521.738.354,1.317.746L87.9,62.8l.849.029c.188.111,1.114,3.354,1.789,3.592L89.222,62.8l1.552-.115,2.411,6.079c.465-.037.174-1.019.116-1.286a24.744,24.744,0,0,0-1.878-4.787l.866-.093Z" transform="translate(-0.008 13.231)"/>
      <path id="Path_83" data-name="Path 83" class="cls-4" d="M3.4,0A6.779,6.779,0,0,1,2.065.513,7.9,7.9,0,0,0,.813,2.05a6.674,6.674,0,0,0-.808,3.3A9.423,9.423,0,0,0,.5,8.787a5.665,5.665,0,0,0,1.89,2.619,8.04,8.04,0,0,0,2.742,1.221,12.506,12.506,0,0,1,2.073-.845c1.964-.709,4.014-1.192,5.99-1.867a2.473,2.473,0,0,0,.307-.382,2.627,2.627,0,0,0,.339-1.653c-.176-2.446-1.811-5.571-4.753-5.373a3.2,3.2,0,0,0-3.04,2.859c-.012.569.206,1.314.881,1.406a3.691,3.691,0,0,0,1.395-.206l0,0c.8-.6,1.987.044,2.392.806a1.25,1.25,0,0,1-.583,1.655,5.956,5.956,0,0,1-1.965.792,9.962,9.962,0,0,1-2.583.309A3.829,3.829,0,0,1,2.856,8.95,5.486,5.486,0,0,1,1.373,6.506C.828,4.378,1.925,2.138,3.108.4,3.2.267,3.3.134,3.4,0" transform="translate(28.9 117.795)"/>
      <path id="Path_84" data-name="Path 84" class="cls-3" d="M11.351,11.3a5.328,5.328,0,0,0,.118-2.292A14.6,14.6,0,0,0,8.908,3.259,8.332,8.332,0,0,0,4.984,0c-.132.038-.28.054-.406.1C3.139.617,1.559.988,0,1.381a14.6,14.6,0,0,1,1.564.049A9.663,9.663,0,0,1,5.775,2.745,8.315,8.315,0,0,1,8.846,5.82a13.042,13.042,0,0,1,1.547,4.262,10.389,10.389,0,0,0,.267,1.645,1.635,1.635,0,0,1,.69-.429" transform="translate(39.205 113.679)"/>
      <path id="Path_85" data-name="Path 85" class="cls-4" d="M33.178,11.2a35,35,0,0,1-2.8-5.726c-.724-1.8-1.347-3.632-1.921-5.479a4.693,4.693,0,0,1-.855.223,24.986,24.986,0,0,1-3.753,1.226c-.509.15-1.018.3-1.53.44l-4.6,1.8a5.09,5.09,0,0,1,1.14,1.143,2.635,2.635,0,0,1,.158.269,1.875,1.875,0,0,1-.038,1.976A2.791,2.791,0,0,1,17.187,8a6.394,6.394,0,0,1-1.393.075,6.38,6.38,0,0,0-1.66.043,5,5,0,0,0-2.3,1.431,5.61,5.61,0,0,1-1.709,1.119,3.077,3.077,0,0,1-1.946.247A1.743,1.743,0,0,1,6.97,9.471c0-.014,0-.027,0-.041A4.373,4.373,0,0,1,7.9,6.664a3.251,3.251,0,0,1-.743.42l-.1.056c-.852.451-1.76.795-2.614,1.243a3.776,3.776,0,0,1-1.348.392c-.282.034-.572.051-.854.1l.1.107L0,9.465a8.615,8.615,0,0,0,1.494,1.679.389.389,0,0,1,.113-.1.389.389,0,0,0-.113.1c.237.214.478.421.715.622a14.041,14.041,0,0,1,2.454,2.339c.09.125.172.253.25.383a3.452,3.452,0,0,1,.329.527,6.4,6.4,0,0,1,.512,3.813c-.01.132-.023.264-.037.4-.1.911-.275,1.814-.45,2.719l7.6-2.762c.471-.784.886-1.6,1.277-2.422.055-.115.106-.231.158-.347.285-.633.542-1.275.825-1.91a2.931,2.931,0,0,1,1.191-1.453,2.077,2.077,0,0,1,1.128-.2,2.006,2.006,0,0,0,1.216-.2,2.475,2.475,0,0,0,.585-.714,2.177,2.177,0,0,1,.837-.738,1.76,1.76,0,0,1,1.834.241,4.522,4.522,0,0,1,1.45,1.942,7.168,7.168,0,0,1,.47,1.826c.032.253.05.507.062.761l10-3.644c-.235-.378-.486-.746-.722-1.117M9.812,18.179c-.481.144-.981.291-1.462.427.482-.137.982-.283,1.462-.427m-1.686.49c-.38.107-.743.205-1.07.289.326-.084.69-.182,1.07-.289m-1.65.43-.251.055.251-.055M6.9,19l-.248.061L6.9,19m3.787-1.084-.434.133.434-.133.7-.218-.7.218m.9-.283.359-.116-.359.116" transform="translate(127.377 76.846)"/>
      <path id="Path_86" data-name="Path 86" class="cls-4" d="M20.212,9.416q-.045-.209-.1-.417c-.009.015-.015.032-.025.047.01-.014.016-.031.025-.047a13.941,13.941,0,0,0-1.084-2.98c-.268-.535-.566-1.055-.886-1.562A11.549,11.549,0,0,0,17.21,3.1a9.976,9.976,0,0,0-1.294-1.2.426.426,0,0,0-.05-.011.426.426,0,0,1,.05.011A8.361,8.361,0,0,1,14.024,0L0,4.322A9.453,9.453,0,0,1,1.506,6.478c.259.475.5.96.746,1.441s.514.951.733,1.444a19.2,19.2,0,0,1,1.1,3.613c.25,1.108.531,2.206.741,3.321l15.652-5.264q-.1-.813-.269-1.617M15.846,1.884a.192.192,0,0,0-.061,0,.192.192,0,0,1,.061,0" transform="translate(56.248 105.346)"/>
      <path id="Path_87" data-name="Path 87" d="M.1,11.279C-.624,9.018,2.83,8.319,4.235,7.352c.821-.565,1.52-1.6,2.331-2.219,1.118-.847,2.7-1.219,3.452-2.412.333-.526,1.289-3.3,2.383-2.613,1.513,2.944,2.873,4.436.1,7.149C10.47,9.246,9.6,8.96,7.1,9.483c-1.5.313-3.558,1.5-5.211,1.774A6.628,6.628,0,0,1,.1,11.279M12.17.866c-.505-.124-.361.1-.5.268-.558.682-.567,1.437-.944,2.059C10.15,4.144,7.635,5.4,6.567,6.2,5.9,6.7,5.352,7.526,4.675,7.991,3.4,8.871,1.574,9.11.727,10.666,2.9,10.4,4.878,9.223,6.9,8.439c1.015-.393,2.348-.554,3.344-1.025A15.809,15.809,0,0,0,13.607,4.7c.447-.937-1.31-2.771-1.437-3.829" transform="translate(64.055 38.941)"/>
      <path id="Path_88" data-name="Path 88" d="M4.053,2.507c.373-.343.858-1.235,1.241-1.566C7.521-.982,9.7.226,10.044,2.909c.188,1.475-.313,5.6-1.973,6.152-2.1.691-2.149-1.955-3.351-1.773C3.825,7.422.2,11.276.011,8.617-.159,6.2,1.666,4.46,3.252,2.9c.186-.183.6-.206.8-.393M8.907,1.346A3.517,3.517,0,0,0,7.751.884C6.446.877,3.721,4.578,2.688,5.555,2.108,6.1.056,6.826,1.019,8.022c.826,1.027,2.337-1.579,3.656-1.629,1.632-.063,2.2,1.623,2.668,1.7,1.127.193,2.73-5.524,1.565-6.75" transform="translate(25.222 63.235)"/>
      <path id="Path_89" data-name="Path 89" d="M4.784.068a5.431,5.431,0,0,1,5.521,2.65c1.363,2.18,1.86,6.026-1.837,5.838-1.8-.092-1.952-1.205-3.083-2.14C4.075,5.334.1,3.632,0,2.025-.1.314,2.108.8,3.139.6,3.687.5,4.246.152,4.784.068M7.34,7.186c1.2.982,2.925.633,3.136-.987.22-1.683-1.345-3.952-2.845-4.728C5.535.387,5.3,1.111,3.394,1.49c-.62.124-3.03-.233-2.408,1.081.289.611,4.131,2.445,5.179,3.3.474.388.84,1.037,1.176,1.312" transform="translate(120.694 36.59)"/>
      <path id="Path_90" data-name="Path 90" d="M7.647.1c1.576-.094,3.3-.432,4.2,1.144a.825.825,0,0,1-.207,1.232A28.227,28.227,0,0,1,6.043,4.3C5.019,4.4.224,4.56,0,3.312,1.846,1.2,4.84.262,7.647.1m3.284.852c-.716-.451-5.339.15-6.37.423A23.481,23.481,0,0,0,1.09,3.122c.25.356.6.3.978.332a18.812,18.812,0,0,0,7.121-.588c.413-.121,2.165-.678,2.241-1.038a2.516,2.516,0,0,0-.5-.881" transform="translate(95.391 33.165)"/>
      <path id="Path_91" data-name="Path 91" d="M9.186.249A4.077,4.077,0,0,1,7.773,4.422,11.42,11.42,0,0,1,4.925,5.3c-.666.066-1.165-.2-1.688-.157-.679.053-2.066.912-2.648.775A.837.837,0,0,1,.039,4.833c.272-1.14,4.019-2.511,5.166-3.11C6.072,1.27,8.219-.683,9.186.249M9.02.623C7.489.523,6.543,1.9,5.4,2.546,3.9,3.393,2.022,3.765.876,5.095c.8.048,1.6-.567,2.338-.63.555-.047.979.188,1.461.156,2.759-.18,3.963-1.4,4.346-4" transform="translate(45.856 51.332)"/>
      <path id="Path_92" data-name="Path 92" d="M0,4.26,5.134,1.242,6.6,0C5.75,2.477,2.555,4.037,0,4.26" transform="translate(141.824 64.947)"/>
      <path id="Path_93" data-name="Path 93" d="M1.756,6.179c-.4-.066-.377-.432-.47-.715C.716,3.736.637,1.735,0,0,1.382,1.621,1.543,4.133,1.756,6.179" transform="translate(149.75 45.981)"/>
      <path id="Path_94" data-name="Path 94" d="M5.28,4.259A8.906,8.906,0,0,1,1.875,2.337,7.525,7.525,0,0,1,0,0,50.054,50.054,0,0,0,5.28,4.259" transform="translate(18.116 85.626)"/>
      <path id="Path_95" data-name="Path 95" d="M0,5.326,3.078,0C3.524.762.334,5.7,0,5.326" transform="translate(94.059 65.164)"/>
      <path id="Path_96" data-name="Path 96" d="M0,4.9.483,3.772,2.858,0A8.726,8.726,0,0,1,0,4.9" transform="translate(96.7 66.443)"/>
      <path id="Path_97" data-name="Path 97" d="M0,4.685,3.3,0A8.243,8.243,0,0,1,.771,4.261c-.247.2-.357.517-.771.424" transform="translate(144.024 61.325)"/>
      <path id="Path_98" data-name="Path 98" d="M0,4.685,2.419,0C2.326,1.615,1.727,4.062,0,4.685" transform="translate(143.584 58.768)"/>
      <path id="Path_99" data-name="Path 99" d="M0,4.9c.157-.877.329-1.78.437-2.665C.523,1.525.112.389.877,0A15.885,15.885,0,0,1,.6,3.67C.5,4.077.48,4.742,0,4.9" transform="translate(141.825 52.587)"/>
      <path id="Path_100" data-name="Path 100" d="M3.571,2.342C2.986,2.459-.46.546.052,0Z" transform="translate(20.706 85.413)"/>
      <path id="Path_101" data-name="Path 101" d="M0,4.474,1.537,0C1.429,1.54,1.218,3.371,0,4.474" transform="translate(143.586 56.424)"/>
      <path id="Path_102" data-name="Path 102" d="M1.757,3.621,0,0A7.26,7.26,0,0,1,1.757,3.621" transform="translate(148.43 47.26)"/>
      <path id="Path_103" data-name="Path 103" d="M.192,4.26,0,3.542.853,0Z" transform="translate(143.17 53.654)"/>
      <path id="Path_104" data-name="Path 104" class="cls-4" d="M48.217,1.34C30.11,5.052,14.074,17.269,6.178,33.422l-.037-.034c-.283.517-.572,1.031-.859,1.546h0a58.868,58.868,0,0,0-2.72,41.541l-.049.025c.3.98.617,1.957.955,2.926a50.236,50.236,0,0,0,2.5,6.007,28.187,28.187,0,0,0,1.535,2.7c.16.246.32.495.474.747l.05-.018c14.609,24.071,44.229,35.379,72,26.817,21.6-6.661,38.335-25.447,41.682-47.237C128.043,27.213,90.44-7.314,48.217,1.34M106.73,91.019C83.692,122.346,35.1,120.948,13.789,88.6-8.939,54.084,15.143,7.833,57.2,5.352,104.422,2.567,134.319,53.5,106.73,91.019m-4.123-73.652q-.7-.659-1.425-1.3.724.638,1.425,1.3m-2.155-1.929q-.735-.626-1.491-1.23.756.6,1.491,1.23M98.2,13.609q-1.917-1.48-3.964-2.811,2.046,1.328,3.964,2.811m-4.788-3.336q-.828-.519-1.676-1.011.848.493,1.676,1.011M88.268,7.4q.885.438,1.753.9-.867-.466-1.753-.9-2.214-1.1-4.54-2.016,2.325.917,4.54,2.016m-9.3-3.661q1.944.581,3.821,1.286-1.877-.7-3.821-1.286A60.776,60.776,0,0,0,61.387,1.211,60.776,60.776,0,0,1,78.972,3.737M22.121,15.3q-.7.586-1.377,1.191.679-.605,1.377-1.191M11.752,26.567q-.517.732-1.011,1.48.494-.747,1.011-1.48M6.779,35.036q-.386.8-.746,1.62.361-.815.746-1.62" transform="translate(154.135 -0.015)"/>
      <path id="Path_105" data-name="Path 105" class="cls-4" d="M43.782,9.411c-.031-.254-.069-.507-.113-.757a8.761,8.761,0,0,0-.856-2.619,10.1,10.1,0,0,0-2.085-2.7,13.392,13.392,0,0,0-3-1.931A24.275,24.275,0,0,1,35.234,0c-4.873,1.513-9.694,3.709-14.628,4.983a7.8,7.8,0,0,1-1.435.374,13.948,13.948,0,0,0-3.682,1.6,5.873,5.873,0,0,0-1.732,2.112c-.5.942-.887,1.967-1.421,2.872a3.17,3.17,0,0,1-1.768,1.637A2.59,2.59,0,0,1,9.3,13.563c-.471-.113-.873-.369-1.331-.507-.867-.261-1.305.685-1.726,1.224a1.583,1.583,0,0,1-1.888.656,3.172,3.172,0,0,1-1.613-2.2c-.018-.087-.03-.174-.039-.261a5.846,5.846,0,0,1,.348-2.26L0,11.436a14.486,14.486,0,0,0,1.023,1.9c.024.038.047.076.071.114.316.5.65,1,.978,1.5a12.175,12.175,0,0,1,2.116,4.685,7.785,7.785,0,0,1-.465,3.853c-.073.206-.151.41-.231.614,1.34-.538,4.383-1.085,5.818-1.5.834-.242,3.031-1.153,4.1-1.451a3.259,3.259,0,0,1-.422-2.094,6.488,6.488,0,0,1,.531-1.94,5.619,5.619,0,0,1,1.111-1.7,2.509,2.509,0,0,1,.867-.608,1.745,1.745,0,0,1,.782-.09c.082-.024.162-.049.25-.066a1.382,1.382,0,0,1,.909.239,1.372,1.372,0,0,0,.3-.028,2.472,2.472,0,0,0,.934-.537,1.73,1.73,0,0,1,1.673-.5,3.868,3.868,0,0,1,1.739,1.514,5.118,5.118,0,0,1,.372.649,6.776,6.776,0,0,1,.483,1.384c.068.286.118.574.161.863,7.19-1.709,13.768-5.094,20.8-7.131-.015-.568-.055-1.136-.123-1.7m-24-.734c.234-.07.47-.135.711-.182-.241.047-.477.112-.711.182" transform="translate(80.607 90.23)"/>
      <path id="Path_106" data-name="Path 106" d="M19.993.007c-1.728,2.93-4.961,4.427-4.133,8.367.326,1.55,3.393,4.017,4.968,4.159,2.35.211,4.672-1.112,7.419-.809,4.309.476,8.637,6.332,11.659,9.169A151.676,151.676,0,0,0,57.424,35.257c.4.277.866.321,1.317.643a4.974,4.974,0,0,1,1.732,4.892c-.287,2.052-1.58,1.449-1.851,2.031a13.441,13.441,0,0,1-.223,5.125c-.654,2.008-2.648,2.951-4.08,4.362-4.75,4.679-8.35,10.113-13.2,14.5a72.516,72.516,0,0,1-12.7,9.226c-1.858,1.058-3.72,1.3-4.96,3.084A26.137,26.137,0,0,0,20.9,84.467l4.367,3.758a32.554,32.554,0,0,1-11.44-8.633c-.476-.533-2.915-3.38-2.426-3.935.538.015.978.6,1.325.952,2.062,2.073,3.823,4.563,6.154,6.4.2.155,1.168.924,1.322.742-.164-1.9,1.2-3.4,1.76-5.113l-1.978.321c2.392-1.6,5.066-2.752,7.551-4.2,1.322-.769,4.857-2.685,5.619-3.724.641-.873.915-2.22,1.689-3.054L34.3,70.326c2.07-.968,2.632-3.2,3.851-4.9.472.9-.839,1.678-.663,2.555,1.575-1.662,3.763-2.457,3.635-5.114.973-.194-.037,1.166.221,1.493,2.363-.842,1.676-3.9,3.3-5.328l-.329,2.556,5.834-6.713c-.139-.277-.6-.018-.815.064-1.68.649-3.474,1.652-5.346,1.644,2.552-2.162,5.848-3.135,8.732-4.76,2.468-1.391,3.711-2.159,4.586-4.938a12.359,12.359,0,0,0,.549-3.835l-4.4.641,1.54,1.487c-1.454-.374-1.793-1.715-3.522-1.061L53.008,45.6c-.737-.076-1.412-1.134-2.115-1.217a13.384,13.384,0,0,0-1.846.369c.3.617,1.236.877,1.1,1.7-1.263-1.823-2.244-1.755-4.176-.746l.874,1.172-1.6-1.016c-2.376.656-4.834,1.1-7.2,1.763-5.868,1.651-12.933,4.995-19.05,4.591C14.31,51.912,4.9,48.633,1.5,45.5.451,44.543-.684,43.561.514,42.2c1.481-1.675,5.063,3.135,6.067,3.919a26.205,26.205,0,0,0,8.3,3.9,41.392,41.392,0,0,0,6.1.922,54.41,54.41,0,0,0,6.94-1.61c7.176-1.861,15.315-5.116,22.445-6.4,2.758-.5,5.61-.425,8.376-.849-.5-1.76.2-3.566-.951-5.153-2.706-1.75-5.755-3.543-8.278-5.516-3.671-2.869-5.293-4.282-9.733-6.345a7.689,7.689,0,0,0-2.832-.989c.914-1.8.042-3.487-1.207-4.9a28.281,28.281,0,0,0-7.877-5.159c-3.126-.936-9.013-.132-11.683,1.784-.47.337-.81,1.128-1.178,1.222-.393.1-.8-.175-1.225-.144-1.963.145-1.722,3.083-3.814,2.32-.946-.751.193-2.762,1.338-2.812.435-.019.933.284,1.281.2.465-.11,1.556-1.552,1.91-1.763.157-.094.475.063.662-.017a29.141,29.141,0,0,1,2.864-1.173c-2.043-2.373-4.079.225-6.163,1.066a6.9,6.9,0,0,1,4.4-2.344l-1.209-1.7-3.632,2.769c-.233-.223.687-1,.876-1.174a13.72,13.72,0,0,1,2.637-1.826c-.625-1.49-1.185-2.828-.654-4.457C9.729,10.1,5.89,14.625,3.7,20.353c-.8,2.1-1.267,4.306-1.919,6.454L1.063,28.56c.009-6.482,3.116-13.044,7.269-18A66.262,66.262,0,0,1,19.006.434a1.406,1.406,0,0,1,.987-.428M11.846,17.054c-.265-.262-2.049.8-1.539,1.49.6.271,1.885-1.146,1.539-1.49M40.021,24.3c.21-1.963-1.84-3.052-3.078-4.261.544,1.171,1.321,2.278.656,3.62Z" transform="translate(164.096 17.206)"/>
      <path id="Path_107" data-name="Path 107" d="M21.47,4.254c4.247-1.524,2.67,2.564,2.865,2.762a1.424,1.424,0,0,1,.984.435,2.657,2.657,0,0,1,.156,2.919c-.154.327-.626.625-.671.84-.1.489.684.913.8,1.294.376,1.207-.909,2.382-1.717,3.151,2.394,1.2.542,4.113-1.764,3.727.471,2.567-2.153,3.451-4.178,2.346-.256,1.9-1.834,3.008-3.684,1.983-.375-.207-.454-.8-.829-.7-1.317,2.029-4.109,1.89-4.516-.639-1.069.358-1.414,1.021-2.7.806-1.386-.233-1.368-1.408-1.733-2.484C1.612,20.956.5,18.9,1.849,16.53c-1.843-.9-2.731-2.881-.636-4.07-1.883-1.288-1.3-3.943,1.1-3.945A2.8,2.8,0,0,1,4.959,4.04C4.2,1.065,7.053-.19,9.139,2.123a2.488,2.488,0,0,1,4.735-.643c1.488-1.83,3.334-1.187,4.4.639A1.948,1.948,0,0,1,21.47,4.254M13.1,2.122C12.94-.318,9.853.272,9.582,2.335Zm4.181,1.066a1.612,1.612,0,1,0-3.078-.957Zm-8.8-.428C6.808.649,5.289,1.953,5.622,4.255ZM20.142,4.68c2.016-3.986-2.833-1.921-2.2-1.068Zm-8.625-1c-5.449.39-7.335,4.428-7.642,9.24-.186,2.923,3.534,6.515,6.321,7.255,6.3,1.674,11.34-2.189,11.711-8.361.316-5.267-5.544-8.482-10.389-8.135m12.12,1.245a2.667,2.667,0,0,0-2.55.135c-.13.077-.43.008-.277.365a11.082,11.082,0,0,0,1.646,1.614,1.764,1.764,0,0,0,1.182-2.114M4.959,4.9C3.146,4.445,1.682,6.884,3.089,8.09Zm18.492,5.962c2.253-.563,1.7-4.774-.641-2.842ZM2.756,9.158c-2.066.016-2.6,2.174-.543,2.761Zm20.033,5.963c1.822-.015,3.226-2.8.775-3.195Zm-21.522.167a6.363,6.363,0,0,0,1.206.443c.961.057.019-2.265-.27-2.739a1.344,1.344,0,0,0-.936,2.3m21.213.7-1.435,2.244c-.131.815,2.7.75,3.023-.279.379-1.193-.552-1.676-1.588-1.965M3.635,16.4c-.493-.364-1.3,1.639-1.3,2.029a1.491,1.491,0,0,0,1.412,1.3l1.422-1.088Zm14.531,4.684c1.675.7,4.447-.291,2.331-1.9ZM8.7,21.093,5.621,19.386c-.243.759-.5,2.321.232,2.867.625.772,3.194-.7,2.847-1.16m8.585.211c-.853.241-1.8.277-2.642.54-.794.249-.35.758.141,1.132,1.438,1.092,2.335-.363,2.5-1.672m-4.4.639-3.3-.426c-.1,2.468,2.729,2.8,3.3.426" transform="translate(174.286 34.692)"/>
      <path id="Path_108" data-name="Path 108" d="M5.056,37.717c-.394.049-.213-.478-.19-.716.2-2.015.833-4.184,1.046-6.235A49.5,49.5,0,0,0,3.674,9.759C2.594,6.442.835,3.346,0,0A8.1,8.1,0,0,1,1.732,2.476C7.4,13.088,9.018,26.308,5.056,37.717" transform="translate(258.49 32.762)"/>
      <path id="Path_109" data-name="Path 109" d="M24.212,0A3.967,3.967,0,0,1,22.53,1.034c-3.141,1.462-7.614,3.571-11,4.054A24.04,24.04,0,0,1,0,4.046c.152-.379,1.3-.24,1.659-.219a69.911,69.911,0,0,0,8.806.445C15.425,3.958,19.372.8,24.212,0" transform="translate(171.76 67.716)"/>
      <path id="Path_110" data-name="Path 110" d="M12.321,2.554,0,.528C.057-.533,5.361.3,6.208.48a43.754,43.754,0,0,1,6.112,2.074" transform="translate(221.073 11.033)"/>
      <path id="Path_111" data-name="Path 111" d="M11.446,0C8.388,2.623,4.24,5.414,0,5.325c.011-.883,1.377-.706,2.027-.912,3.34-1.062,6.248-3,9.419-4.413" transform="translate(229.869 101.169)"/>
      <path id="Path_112" data-name="Path 112" d="M8.805,0C7.678,2.37,4.684,4.289,2.4,5.629A12.276,12.276,0,0,1,0,6.816Z" transform="translate(189.147 81.993)"/>
      <path id="Path_113" data-name="Path 113" d="M10.784,0A69.218,69.218,0,0,1,0,7.031L2.346,4.936C5.157,3.3,7.67,1.092,10.784,0" transform="translate(190.47 77.731)"/>
      <path id="Path_114" data-name="Path 114" d="M12.986,0a7.169,7.169,0,0,1-2.56,1.675A79.161,79.161,0,0,1,0,6.176Z" transform="translate(191.13 75.174)"/>
      <path id="Path_115" data-name="Path 115" d="M10.346,0c.6.553-7.4,6.331-8.075,6.778A10.071,10.071,0,0,1,0,8.094Z" transform="translate(186.505 84.763)"/>
      <path id="Path_116" data-name="Path 116" d="M7.041.585c-.023.3-.994.376-1.237.4A18.667,18.667,0,0,1,0,.265C.292-.185.505.072.826.082a62.331,62.331,0,0,1,6.215.5" transform="translate(171.759 80.77)"/>
      <path id="Path_117" data-name="Path 117" d="M2.779,5.965A6.866,6.866,0,0,1,.694,2.978C.481,2.467-.436.272.251,0Z" transform="translate(171.62 47.472)"/>
      <path id="Path_118" data-name="Path 118" d="M2.37,2.777C1.733,3.382-.851.23.285.006.933-.122,2.954,1.887,2.37,2.777" transform="translate(210.55 52.576)"/>
      <path id="Path_119" data-name="Path 119" d="M.262,6.178c-.391.037-.233-.719-.214-.954C.192,3.434.757,1.894.267,0,1.775,1.746.91,4.234.262,6.178" transform="translate(204.953 48.321)"/>
      <path id="Path_120" data-name="Path 120" d="M.434,0,2.855,5.541C1.133,4.322.583,2,0,.1Z" transform="translate(169.783 47.897)"/>
      <path id="Path_121" data-name="Path 121" d="M2.637,7.245c-.34-.053-.415-.4-.544-.643A28.988,28.988,0,0,1,0,0C.416.066.36.448.464.721,1.275,2.836,1.7,5.159,2.637,7.245" transform="translate(162.736 68.142)"/>
      <path id="Path_122" data-name="Path 122" d="M0,1.657.324.162C2.336-.669,1.613,1.983,0,1.657" transform="translate(170.221 35.798)"/>
      <path id="Path_123" data-name="Path 123" d="M1.756,4.261.714,2.184,0,0A12.716,12.716,0,0,1,1.756,4.261" transform="translate(165.817 70.06)"/>
      <path id="Path_124" data-name="Path 124" d="M1.536,4.686.722,3.027,0,0Z" transform="translate(165.157 70.061)"/>
      <path id="Path_125" data-name="Path 125" d="M2.38.061A3.5,3.5,0,0,1,5.607,5.955a3.071,3.071,0,0,1-2.82.642C-.917,6.1-.8.617,2.38.061" transform="translate(183.85 41.493)"/>
      <path id="Path_126" data-name="Path 126" d="M4.182.027A6.49,6.49,0,0,1,0,5.351,17.679,17.679,0,0,0,3.685.494c.145-.29-.14-.587.5-.467" transform="translate(190.47 47.87)"/>
      <path id="Path_127" data-name="Path 127" d="M3.3,3.194A3.756,3.756,0,0,1,0,0Z" transform="translate(182.328 47.044)"/>
      <path id="Path_128" data-name="Path 128" d="M1.1,2.983C.4,2.3.318.914,0,0A2.416,2.416,0,0,1,1.1,2.983" transform="translate(191.353 42.142)"/>
      <path id="Path_129" data-name="Path 129" d="M.114,2.769c-.383-.324.312-.469.411-.553C1.436,1.447,2.435.681,3.413,0,3.789.408.408,3.018.114,2.769" transform="translate(189.036 47.896)"/>
    </g>
  </g>
</svg>
