<svg xmlns="http://www.w3.org/2000/svg" xmlns:xlink="http://www.w3.org/1999/xlink" id="Component_117_2" width="33.168" height="65.563" data-name="Component 117 – 2" viewBox="0 0 33.168 65.563"><defs><style>.cls-1{fill:none}.cls-2{clip-path:url(#clip-path)}.cls-3{fill:#fff}.cls-4{fill:#3cbeeb}</style><clipPath id="clip-path"><rect id="Rectangle_3936" width="33.168" height="65.563" class="cls-1" data-name="Rectangle 3936" transform="translate(0 0)"/></clipPath></defs><g id="Group_9006" class="cls-2" data-name="Group 9006" transform="translate(0 0)"><path id="Path_6788" d="M21.016,1.914,16.529,4.2,15.29,21.083l-7.4.209L4.4,22.573l-2.91,1.483L.588,25.618l.689,1.352.507.995L4.09,29.15l3.529.995,1.124,28.2-3.717.941L3.767,61.631l1.719,1.156,2.055,1.435,2.823.287,6.018.179,3.839-.539,4.15-1.127,1.09-1.543-.573-1.125-1.114-1.041L20.907,58.5l4.552-28.608,3.19.14,2.32-1.182,2.152-1.1-1.55-3.041S26.357,21.838,26,21.938s-6.6-1.138-6.6-1.138l.012-17.14Z" class="cls-3" data-name="Path 6788"/><g id="Group_9013" data-name="Group 9013"><path id="Path_6783" d="M21.5,57.786c.118-1.165.195-2.331.386-3.49.221-1.342.6-2.652.865-3.986.629-3.2,1.116-6.424,1.716-9.622.152-.812.421-1.641.552-2.453.113-.707.11-1.43.239-2.134.2-1.122.56-2.513.854-3.628a6.252,6.252,0,0,1,.434-1.212c.613-.1,1.208-.012,1.825-.114,1.822-.3,4.579-1.573,4.776-3.658A5.2,5.2,0,0,0,31.2,23.165c-1.533-1.287-3.861-1.674-5.756-2.2a14.932,14.932,0,0,0-3.6-.876c-.194,0-1.206.15-1.287-.043-.064-.5-.172-1.013-.209-1.519-.109-1.506-.122-3.027-.212-4.534-.156-2.617-.2-5.25-.208-7.855,0-.879-.033-1.753-.046-2.631a18.454,18.454,0,0,1,2.592-1.15c.323-.152.613-.361.956-.52A22.3,22.3,0,0,0,26.106.718c.114-.082.27-.2.169-.362A1.664,1.664,0,0,0,25.483,0,18.429,18.429,0,0,0,21.16,1.253a30.757,30.757,0,0,0-7.631,4.282,10.927,10.927,0,0,0-1.5,1.185c-.043.067-.053.156-.093.226-.031.2.607.07.72.032.782-.27,1.935-1.061,2.773-1.445l.543-.248.107.058A8.389,8.389,0,0,0,15.917,6.4c-.053,1.034.091,2.12.053,3.163-.1,2.762-.564,5.637-.74,8.436a6.138,6.138,0,0,1-.154,1.853,1.562,1.562,0,0,0-.553.024A25.918,25.918,0,0,0,5.666,21.24c-1.138.417-4.206,1.651-4.928,2.5A3.422,3.422,0,0,0,.015,26C.279,27.916,2.5,28.961,4,29.759c.732.387,1.6.6,2.365.93.028.443.076.887.12,1.33.226,2.245.244,4.5.308,6.758.047,1.649.036,3.306.161,4.955.039.528.177,1.119.209,1.636.105,1.657.11,3.444.157,5.116.049,1.747.059,3.47,0,5.217-.022.659-.029,1.321-.05,1.98a5.333,5.333,0,0,0-3.506,1.528,2.863,2.863,0,0,0-.428,2.961,9.428,9.428,0,0,0,1.01.994,11.969,11.969,0,0,0,4.736,1.641c3.56.655,7.914,1.148,11.458.328,1.349-.312,2.529-.929,3.871-1.19a5.147,5.147,0,0,0,1.273-.836,4.752,4.752,0,0,0,.657-1.61c.176-1.609-1.59-2.91-2.96-3.353a11.237,11.237,0,0,0-1.883-.358M23.909,62.3c-1.046,1.031-4.744,1.572-6.227,1.706a22.5,22.5,0,0,1-11.128-1.52c-.7-.307-1.884-1.011-1.7-1.932.074-.38,1.221-.695,1.58-.792A19.208,19.208,0,0,1,12.2,59.37c3.157.009,6.409-.544,9.531-.049a7.483,7.483,0,0,1,1.163.261,10.269,10.269,0,0,1,1.477,1.052,1.934,1.934,0,0,1-.466,1.668M19.7,57.774a2.8,2.8,0,0,1-.754.014c-1.384-.062-2.777-.092-4.16-.161-1.247-.062-2.543-.366-3.793-.423a11.966,11.966,0,0,0-1.662.055c-.077-2.463-.069-4.941-.1-7.412-.043-3.051-.076-6.117-.106-9.176-.038-3.939-.249-8.04-.052-11.966.032-.649-.128-.839.27-1.417.763-1.11,2.022-1.193,3.032-1.817.074-.046.29-.209.276-.3-.155-.272-.351-.057-.555-.037a11.756,11.756,0,0,0-4.485,1.1A3.338,3.338,0,0,0,6.4,27.779c-.019.12.038.2.027.285a3.222,3.222,0,0,0-.108.789l-.119.085c-1.43-.465-3.81-.955-4.521-2.441-.828-1.731.5-2.464,1.933-2.99,3.279-1.206,7.7-1.446,11.171-1.315,1.46.055,2.925.1,4.377.208,1.6.122,3.392.426,4.99.7,1.739.3,5.584,1.081,6.682,2.49.469.6,1.069,2.021.343,2.608a8.092,8.092,0,0,1-2.639,1.1,10.832,10.832,0,0,1-1.681.375c-.06-.01-.108-.021-.125-.088.142-1.337-.913-2.25-1.88-2.971a4.675,4.675,0,0,0-1.356-.647,4.71,4.71,0,0,0-1.989-.62,3.473,3.473,0,0,0,.2.563c.372.8,2,1.8,2.7,2.521.081.083.252.262.253.367-.44,2.466-.732,4.965-1.22,7.422-.217,1.093-.551,2.157-.76,3.247-.6,3.153-.885,6.371-1.5,9.519-.064.327-.214.662-.278.988-.479,2.436-.786,4.891-1.086,7.35a1.529,1.529,0,0,1-.112.443m-.883-37.8h-2.74c.052-.5.019-1.006.053-1.5.3-4.321.728-8.945,1.263-13.238.024-.189-.054-.495.069-.644a10.365,10.365,0,0,1,1.377-.644Z" class="cls-4" data-name="Path 6783" transform="translate(0 0.001)"/><path id="Path_6784" d="M4.97.106c-.161-.2-.373-.075-.558.017a21.956,21.956,0,0,0-4.2,3.659c-.131.164-.41.674,0,.635A5.444,5.444,0,0,0,1.134,3.8c1.078-.823,2.5-1.978,3.484-2.9.2-.19.592-.508.352-.8" class="cls-4" data-name="Path 6784" transform="translate(11.248 33.807)"/><path id="Path_6785" d="M.04,3.465a.475.475,0,0,0,.448.024A16.453,16.453,0,0,0,2.816,1.917,13.47,13.47,0,0,0,4.43.578c.229-.309.19-.632-.251-.57-.556.078-2.1,1.538-2.627,1.962A8.139,8.139,0,0,0,.039,3.2a.239.239,0,0,0,0,.263" class="cls-4" data-name="Path 6785" transform="translate(11.672 29.63)"/><path id="Path_6786" d="M.057,2.525a.409.409,0,0,0,.317.056,14.223,14.223,0,0,0,2.3-1.6c.225-.185.808-.551.537-.9-.135-.172-.354-.029-.5.042A18.283,18.283,0,0,0,.681,1.62C.5,1.763-.2,2.274.057,2.525" class="cls-4" data-name="Path 6786" transform="translate(11.867 27.509)"/><path id="Path_6787" d="M.239,1.79C.1,1.932-.1,2.1.058,2.321c.243.269,1-.361,1.214-.527A12.286,12.286,0,0,0,2.669.555c.5-.655-.1-.677-.6-.34A14.712,14.712,0,0,0,.239,1.79" class="cls-4" data-name="Path 6787" transform="translate(12.644 38.988)"/></g></g></svg>