<svg xmlns="http://www.w3.org/2000/svg" xmlns:xlink="http://www.w3.org/1999/xlink" width="430" height="1513.335" viewBox="0 0 430 1513.335"><defs><style>.a,.o{fill:#fff;}.a{stroke:#707070;}.b,.e,.h,.j,.k,.m{fill:none;}.c{fill:#f4f4f4;}.d{clip-path:url(#a);}.e{stroke:#ad80f9;stroke-width:7px;}.f{font-size:28px;}.f,.g,.l{font-family:Poppins-Bold, Poppins;font-weight:700;}.g{font-size:18px;}.h{stroke:#dbdbdb;}.i,.l{font-size:14px;}.i{font-family:Inter;}.j,.m{stroke:#000;}.j{stroke-linecap:square;stroke-linejoin:round;stroke-width:2.5px;}.n{clip-path:url(#b);}.p{fill:#ad80f9;}.q{fill:#0071bc;}.r,.s{stroke:none;}.s{fill:#000;}</style><clipPath id="a"><rect class="a" width="430" height="1399" transform="translate(0 1720)"/></clipPath><clipPath id="b"><rect class="b" width="341.451" height="187.61"/></clipPath></defs><path class="c" d="M0,0H430V1342.88H0Z"/><g transform="translate(0 114.335)"><g class="d" transform="translate(0 -1720)"><path class="e" d="M846.72,5021.546s86.425-6.792,250.2-17.5" transform="matrix(0.998, 0.07, -0.07, 0.998, -456.372, -3289.394)"/><text class="f" transform="translate(38 1776.997)"><tspan x="0" y="0">What We Excel At</tspan></text><text class="g" transform="translate(38 1738.997)"><tspan x="0" y="0">Services</tspan></text><line class="h" x2="353" transform="translate(38 1827)"/><line class="h" x2="353" transform="translate(38 1928)"/><text class="g" transform="translate(50 1997)"><tspan x="0" y="0">B2B Lead Generation</tspan></text><line class="h" x2="353" transform="translate(38 2328)"/><line class="h" x2="353" transform="translate(38 2431)"/><line class="h" x2="353" transform="translate(38 2533)"/><text class="g" transform="translate(50 1885)"><tspan x="0" y="0">eCommerce</tspan></text><text class="g" transform="translate(50 2386)"><tspan x="0" y="0">Software Development</tspan></text><text class="g" transform="translate(50 2489)"><tspan x="0" y="0">Franchise / Booking Systems</tspan></text><text class="i" transform="translate(50 2035)"><tspan x="0" y="14">Lorem ipsum dolor sit amet, consectetur </tspan><tspan x="0" y="39">adipiscing elit, sed do eiusmod tempor incididunt </tspan><tspan x="0" y="64">ut labore et dolore magna aliqua. Ut enim ad </tspan><tspan x="0" y="89">minim veniam, quis nostrud exercitation ullamco </tspan><tspan x="0" y="114">laboris nisi ut aliquip ex ea commodo consequat. </tspan><tspan x="0" y="139">Duis aute irure dolor in reprehenderit in voluptate </tspan><tspan x="0" y="164">velit esse cillum dolore eu. </tspan></text><g transform="translate(363.979 1869)"><g transform="translate(0 0)"><line class="j" y2="16.02" transform="translate(8.01)"/><line class="j" x2="16.02" transform="translate(0 8.01)"/></g></g><g transform="translate(363.979 1988.563)"><g transform="translate(0)"><line class="j" x2="16.02"/></g></g><g transform="translate(363.969 2372)"><g transform="translate(0 0)"><line class="j" y2="16.02" transform="translate(8.01)"/><line class="j" x2="16.02" transform="translate(0 8.01)"/></g></g><g transform="translate(363.812 2474.49)"><g transform="translate(0 0)"><line class="j" y2="16.02" transform="translate(8.01)"/><line class="j" x2="16.02" transform="translate(0 8.01)"/></g></g><g transform="translate(12 1829)"><g class="k" transform="translate(38 403)"><path class="r" d="M0,0H174.219V43.032H0Z"/><path class="s" d="M 0.9999847412109375 1 L 0.9999847412109375 42.0322265625 L 173.2187347412109 42.0322265625 L 173.2187347412109 1 L 0.9999847412109375 1 M -1.52587890625e-05 0 L 174.2187347412109 0 L 174.2187347412109 43.0322265625 L -1.52587890625e-05 43.0322265625 L -1.52587890625e-05 0 Z"/></g><text class="l" transform="translate(38 415)"><tspan x="-49.588" y="15">Find Out More</tspan></text><g transform="translate(40.317 406.366)"><line class="m" y2="42.634" transform="translate(174.683)"/><line class="m" x2="174.683" transform="translate(0 42.634)"/></g></g><line class="h" x2="353" transform="translate(38 2635)"/><text class="g" transform="translate(50 2591)"><tspan x="0" y="0">Digital Marketing</tspan></text><g transform="translate(363.812 2576.49)"><g transform="translate(0 0)"><line class="j" y2="16.02" transform="translate(8.01)"/><line class="j" x2="16.02" transform="translate(0 8.01)"/></g></g><line class="h" x2="353" transform="translate(38 2737)"/><text class="g" transform="translate(50 2693)"><tspan x="0" y="0">Outsourced CMO</tspan></text><g transform="translate(363.812 2678.49)"><g transform="translate(0 0)"><line class="j" y2="16.02" transform="translate(8.01)"/><line class="j" x2="16.02" transform="translate(0 8.01)"/></g></g><g transform="matrix(0.966, -0.259, 0.259, 0.966, -75.709, 2944.077)"><g class="n" transform="translate(0 0)"><path class="o" d="M4.2,2.565l1.342.165,1.436-.9L8.509,0,9.631.287l.875,1.332s.853,1.838.879,1.913S11.378,5.7,11.378,5.7,10.3,7.266,10.244,7.348,8.676,8.734,8.582,8.836A17.056,17.056,0,0,1,5.831,9.952c-.266-.015-2.578.136-2.777.112S.6,9.181.545,9.162,0,8.9,0,8.9L3.117,2.582Z" transform="translate(174.207 109.442)"/><path class="o" d="M2.705,1.941,4.92,0,7.958.247l2.673.979,2.439,2.636L12.365,5.1s-3.7.367-3.832.369-2.57.34-2.642.39S4.163,7.305,4.163,7.305L1.671,9.058A16.78,16.78,0,0,1,.01,8.622C-.069,8.54.349,5.863.349,5.863Z" transform="translate(167.08 98.384)"/><path class="o" d="M1.666,1.387l1.845-.117,1.1.276L6.229.616,7.132,0,8.908,1.767l.837,2.716A21.856,21.856,0,0,1,9.84,6.755a17.236,17.236,0,0,1-1.7,1.255c-.093.019-3.07.349-3.07.349S2.249,8.1,2.008,8.094.1,7.436.171,7.283-.073,5.245.016,4.923A23.947,23.947,0,0,1,.771,2.392,8.24,8.24,0,0,1,1.666,1.387Z" transform="translate(117.189 129.321)"/><path class="o" d="M1.929,26.288c-8.2,31.367,12.41,61.733,12.41,61.733L24.7,98.477l3.328-7.971,6.318-2.983L46.165,79.78l10.26-9.736,7.432-9.8L69.842,55.9l2.143-5.336-.118-3.186,1.326-2.186,0-4.5-2.271-2.237s-6.544-5.7-7.355-5.8-8.437-6.87-8.437-6.87l-9.208-8.006L41.1,13.39,33.365,9.957l-9.692.536L18.939,6l-.68-6L14.767,3.285,7.891,11.009,4.147,18.062,2.322,23.088Z" transform="translate(202.719 27.232)"/><path class="o" d="M193.793,26.348c-8.129,5.443-7.3,52.087-7.3,52.087l-28.975-3.558,9.051,8.86-6.883,4.182-7.546-7.366s-2.858-5.185-3.017-5.462-8.64-3.955-8.64-3.955l-4.251,2.652,1.781,3.588L154.147,88.4l6.047,5.8,2.045,4.133-.776,8.15s-2.356,4.352-2.624,4.963-1.683.78-1.683.78l-1.023-.748-1.407-4.326-1.444-4.754-1.72-2.764-2.279-2.575L146.237,94.7,142.07,92.35l-5.664-3.616-10.824-6.84-3.832-5.649.41-3.338-9.817.189,9.017,26.927-4.59,1.924-2.156,2.9-2.138,4.143-2.1.537-1.953-1.461-1.564,1.386-2.225,1.526-1.145-1.94,1.371-3.478,1.313-3.88,3.888-.852,4.533-.511L113.3,96.119l-6.167-14.654-1.622-7.213-3.745-.46-1.111,3.251-1.12,5.421s-2.5,14.575-2.522,14.785-.779,8.57-.7,8.687,2.164,4.044,2.319,4.3,2.3,4.372,2.364,4.526,1.966,3.16,1.966,3.16l-.154,3.988a33.671,33.671,0,0,0-1.993,4.155c.086.307-3.08,1.771-3.08,1.771l-1.778-.614a22.608,22.608,0,0,1-.613-2.755c.026-.417-2.232-5.445-2.232-5.445s-4.136-6.04-4.6-6.246-1.823-2.77-1.823-2.77.419-3.816.507-4.126.533-4.34.533-4.34l-.09-3.694L88,89.5l-.375-7.183,1.264-7.291-5.876,1.112L75.763,82.4s-5.71,2.816-5.913,2.857-4.76.814-4.76.814-5.873,2.682-6.239,2.967-11.119,3.19-11.119,3.19l-7.449,2.3-4.353,2.666-9.737,7.266s-4.923,5.77-4.974,5.912-4.943,10.9-4.964,10.937-1.123,3.705-1.123,3.705,2.822,17.336,2.843,17.7,2.237,5.1,2.363,5.413,3.71,5.266,4.014,5.749a47.472,47.472,0,0,0,5.106,3.305c.2.107,6.56.936,7.8,1.154a81.2,81.2,0,0,0,8.315.189c.394-.084,7.71-2.133,7.71-2.133s7.146-7.093,7.278-7.225,2.569-8.668,2.608-8.845-.4-5.319-.4-5.319l-1.666-5.767s-2.3-4.327-2.445-4.477-5.114-4.1-5.114-4.1l-7.085-.071-6.842,2.334-4.272,5.1s-1.529,6.871-1.6,7.284.971,5.181.971,5.181,4.457,4.125,4.614,4.053,7.943.1,7.943.1l3.689-1.626L53,140.253l.287-3.678-2.118-4.086-2.484-1.835-3.4-.418-3.4,1.464-.71,2.953,1.77,2.859,3.236-.682,1.367.828-.338,1.14-6.623.643-1.633-1.657-2.019-3.461,2.473-5.4,4.662-2.9,7.886.079,5.652,4.129,2.31,8.729-2.228,7.831-6.408,4.749s-9.286,1.212-9.781,1.117-6.59-1.847-6.59-1.847L30.443,146.5l-2.917-4.516-1.35-6.531,1.254-6.575,2.941-5.837,5.748-5.667,6.317-3.762,8.638-2.035,8.209,1.749,7.879,5.684,4.7,8.407,1.682,11.4-1.664,9.132-4.055,7.938-4.9,3.7-8.648,6.069-12.666,3.713-12.395-.434-9.754-4.159-5.522-4.073-6.493-7.054-4.294-6.108L.526,138.669,0,125.511l2.857-15.868L7.734,95.649l5.082-11.207L20.965,72,35.273,57.454l18.58-12.506L79.043,25.175,90.626,13.837l18.868-10,16.82-3.5L136.883,0l14.532,3.421,7.8,6.521L170.423,23.98s-5.42-3.426,1.824-7.345,22.91,7.554,22.91,7.554Z" transform="translate(0.763 17.334)"/><path class="p" d="M4.776,0C1.973,1.5-.295,1.581.031,5.612.258,8.415,3.584,16.446,6.952,16.8a14.191,14.191,0,0,0,3.208-.464c-.417-.45-.83-.9-1.226-1.371a18.38,18.38,0,0,1-2.414-3.537A22.631,22.631,0,0,1,5,7.61a12.278,12.278,0,0,1-.626-4.06c.058-1.191.313-2.363.4-3.55" transform="translate(21.519 149.445)"/><path d="M11.174,3.786a6.744,6.744,0,0,0-1.052-2.263A5.4,5.4,0,0,0,9.21.57,1.964,1.964,0,0,0,8,0C7.315.017,6.762.71,6.218,1.045a3.082,3.082,0,0,1-2.39.192A1.8,1.8,0,0,0,2.511,1.4a3.611,3.611,0,0,0-.865.779c-.022.026-.041.055-.062.082C.936,3.358.636,4.757.056,5.839A3.462,3.462,0,0,0,.58,8.493c.578-.026,2.778.844,3.686.933,1.759.173,4.74-.088,6.213-1.094,1.247-.851.931-2.051,1.022-2.769a12.273,12.273,0,0,0-.328-1.777M2.857,7.764C1.4,6.479,1.614,4.139,2.767,2.71c1.121-1.388,1.341-.5,2.339-.394,1.349.147,1.843-.493,2.732-1.294,2.209,1.061,2.669,3.53,2.7,5.769C9.185,8.254,4.3,9.038,2.857,7.764" transform="translate(116.076 128.921)"/><path class="q" d="M1.431.316A1.705,1.705,0,0,0,.309.021C.2.042.1.074,0,.1.126.114.253.131.379.154A6.383,6.383,0,0,0,1.431.316" transform="translate(119.627 129.487)"/><path d="M.407.651A4.205,4.205,0,0,0,0,0,7.542,7.542,0,0,1,.989,2.918a11.885,11.885,0,0,1,.051,2.442A7.9,7.9,0,0,0,.407.651" transform="translate(163.343 112.774)"/><path d="M2.764,2.174A14.379,14.379,0,0,1,2,3.67,14.73,14.73,0,0,1,.688,6.248,3.491,3.491,0,0,0,.113,8.98c.621,1.721,2.732,1,3.906.306A17.057,17.057,0,0,0,5.983,7.662,5.178,5.178,0,0,1,8.689,6.454c1.135-.128,2.267.136,3.4-.087A2.608,2.608,0,0,0,14,5.253a2.276,2.276,0,0,0-.637-2.424,13.037,13.037,0,0,0-1.827-1.516C8.329-.3,4.921-.857,2.764,2.174m10.3,2.783c-.93.531-1.746-.065-2.567-.006A12.684,12.684,0,0,0,4.387,7.216C3.456,7.837,3,9.162,1.652,8.908,1.534,6.694,3.631,1.672,6,1.127,7.851.7,12.86,2.747,13.064,4.958" transform="translate(166.394 97.858)"/><path d="M12.519,5.758a11.5,11.5,0,0,0-.132-1.4,7.092,7.092,0,0,0-.8-2.4A4.118,4.118,0,0,0,9.784.112a1.8,1.8,0,0,0-2.161.962A2.289,2.289,0,0,1,5.862,2.238c-.485.053-.983-.065-1.463.026a1.95,1.95,0,0,0-1.065.669A6.716,6.716,0,0,0,2.315,4.95,33.207,33.207,0,0,1,0,9.638C4.333,12.7,11.044,10.953,12.512,5.76ZM10.542,7.275c-.421,1.129-3.2,2.441-4.417,2.562-2.019.2-3.181-.576-5.03-1.055C.923,8.558,3.422,3.931,3.655,3.767c.984-.692,2.037.17,2.883-.083,1.126-.336,1.589-2.656,2.834-2.543,1.935.176,1.649,4.849,1.17,6.134" transform="translate(173.744 109.032)"/><path d="M184.143,80.525c.822-.218,1.638-.459,2.452-.7,1.013-.3,2.07-.551,3.086-.892a76.384,76.384,0,0,1-12.169-1.211c-7.5-1.368-15-2.511-22.6-3.637-2.68-.4-5.345-1.188-8.05-1.286-.063-.459.617-.247.947-.26,2.8-.112,5.627,0,8.426-.266,4.655-.438,7.541-1.554,12.469-1.017,1.17.127,2.035.692,3.159.754.185-2.175-3.626-2.858-5.284-2.614a184.719,184.719,0,0,1-22.562,1.84c-2.784.07-4.113-.9-6.27,1.3-1.244,1.265-1.861,2.267-1.051,3.928,1.859,3.81,11.949,9.19,15.688,11.911a20.364,20.364,0,0,1,2.113,1.657c.524.752-1.012,2.239-1.113,3.034a3.471,3.471,0,0,0,1.631-2.367c1.671.533-1.827,4.287-1.634,4.47,1.773-.347,1.786-2.491,2.986-3.418,1.476,1.655-.283,2.506-.809,4.21l2.036-2.626c2.215,2.114,4.4,3.825,4.6,7.063.141,2.316-.845,8.36-2.163,10.286a16.475,16.475,0,0,1-2.437,1.845c-2-3.151-1.976-7.046-3.705-10.346-3.7-7.063-18.807-14.128-25.755-19.267-2.817-2.083-5.681-4.252-4.032-8.067,2.588-5.985,9.842-8.542,15.7-10.851,4.859-1.916,17.83-4.871,20.984-7.765,2.14-1.964,2.159-5.191,1.315-7.779-.212-.65-1.2-3.113-2.191-2.084,1.052,2.881,1.424,5.529-1.49,7.43-1.922-1.284-3.347-2.714-5.919-2.24-.906.167-2.1,1.212-2.953,1.12-1.378-.15-3.859-1.882-5.324-2.178-1.021-.206-2.459.056-3.707-.1-1.278-.155-2.7-.754-3.912-.949a104.3,104.3,0,0,0-18.425-.865c-.733.037-5.594.506-5.84.661-.97.611,1.455,2.864,2.09,3.255,2.459,1.515,9.385,1.159,12.661,1.687A67.217,67.217,0,0,1,140.8,58.013l5.785.848c-.037.415-.427.392-.7.5-5.514,2.257-14.205,5.16-18.6,8.832-1.014.847-3.281,3.728-3.924,4.095-1.7.969-5.413.61-7.349.78-4.025.354-8.048.832-12.1,1.049,1.147-4.6,2.311-9.22,3.182-13.889.557-2.984,1.485-7.276,1.72-10.176.388-4.777-1.37-9.312-7.146-8.5-7.346,1.036-18.622,10.939-25.964,14.6-3.832,1.909-11.52,4.037-13.484,7.734-1.223,2.3-.889,6.9,1.192,8.656.418-1.158-.485-2.289-.482-3.552.009-3.8,2.2-5.791,5.375-7.5a18.393,18.393,0,0,0-.27,4.346c.048.363.2.824.543.391.433-1.849.276-5.218,2.176-6.053v4.21c.819.123.438-.19.551-.639.2-.806.488-3.929.8-4.233,2.746-1.45,5.462-3,8.246-4.385,1.553-.77,3.449-1.218,4.992-2.009,4.709-2.416,10.935-9.13,16.536-8.475,1.045.122,3.524,1.263,3.99,2.186,1.7,3.364-1.123,11.61-1.881,15.392-2.061,10.277-4.149,20.356-6.478,30.568-.6,2.617-.891,7.017-1.827,9.283-.329.8-1.842,1.59-2.1,2.176-.555,1.25,2.368-.981,2.441-1.188.553,2.145-2.452,2.039-2.171,3.946l2.171-1.05c.048,3.483,3.185,5.586,4.841,8.338a20.766,20.766,0,0,1,2.47,6.03c.362,3.673-2.837,6.171-5.677,8a32.777,32.777,0,0,0-2.672-9.913c-1.6-3.219-4.509-5.426-6.174-8.631.092-1.054.55-2.163.658-3.195.964-9.162-.639-18.261.34-27.3.63-5.82,4.78-11.479,4.988-17.537l2.587-8.676c-.866.959-1.991,1.667-2.854,2.628-2.577,2.87-3.216,7.08-5.35,10.609-2.544,4.206-6.727,10.373-10.263,13.747-2.43,2.319-4.866,1.859-7.893.91-.143.653.147.466.506.683a6.472,6.472,0,0,0,3.841.9c-1.267,2.253-4.127,1.811-6.313,1.243-1.662-.432-2.892-1.814-4.558-2.031.588,1.662,2.811,1.7,3.8,2.889a12.947,12.947,0,0,1-4.625-1.44c-.9-.481-4.317-3.458-4.887-3.027a12.338,12.338,0,0,0,3.716,3.9c.585.421,2.857,1.227,2.406,1.893-.352.519-4.032,2.329-4.852,2.671a38.981,38.981,0,0,1-5.535,1.731l-9.6-3.089,3.446,2.581L52,91.224c-2.535.926-5.179,1.559-7.753,2.363-.677.211-3.589,1.588-3.8,1.588H35.693l2.174,1.055c-3.628,2.789-7.759,5.092-11.154,8.275a18.479,18.479,0,0,1-14.261-5.9,18.1,18.1,0,0,1-2.174-3.4c-.208-.857,3.71-8.141,4.441-9.414a116.84,116.84,0,0,1,7.8-11.4c.017,3.519.793,7.358,3.665,9.734-.18-2.466-1.6-4.831-1.866-7.268-.158-1.461.156-2.954-.228-4.4C35.127,57.606,52.452,49.03,67.2,38.186c4.675-3.437,8.667-7.561,13.066-11.3a178.469,178.469,0,0,1,23.278-16.677c.51-.158.309.115.444.3.629.866,3.041,5.746,2.61,6.467L78.641,35.706c7.9-3.405,14.295-9.582,21.708-13.847,10.374-5.969,18.187-7.274,29.721-9.382.272-.05,4.1-.795,3.472-1.24a74.178,74.178,0,0,0-10.6.526c.006-3.211-1.329-6.126-2.717-8.945,2.682-.305,5.328-1.079,8.021-1.315,6.905-.607,13.94.745,20.477,2.926-.037,2-.516,8.679-2,9.964-.75.65-4.518-.631-5.745-.76-.3-.031-.981-.236-.915.229,7.987,2.365,16.125,4.552,21.879,10.787.321.348,1.467,2.068,1.63,2.108,1.245.3.025-1.631-.182-1.931-1.254-1.816-2.984-3.024-4.575-4.516a3.569,3.569,0,0,0,2.236-2.043l.754-4.011c9.523,10.749,13.8,24.3,19.241,37.152,1.161,2.742,3.591,5.948,3.605,9.159.008,1.815-.915,4.316-1.106,6.181.321.341,1.953-1.743,2.129-2.015,1.768-2.734,1.483-4.01.449-6.927-1.247-3.518-3.515-7.787-5.084-11.391-2.545-5.847-9.242-20.027-8.631-25.839.223-2.128,1.213-2.76,3.352-3l2.621,3-1.869,1.343c-1.187,2.049,1.2,7.812,3.37,9.044.71.057.272-.11.2-.46-.464-2.384-2.51-4.8-1.222-7.1,1.313-2.339,6.225,1.333,8.034,2.079a28.45,28.45,0,0,0,4.94,1.544.726.726,0,0,0,.555-.263l.123-.8a4.5,4.5,0,0,1-2.189-.91c-.237-.3-1.014-2.748-.129-2.508,1.911.519,3.891,2.458,5.716,3.673.39-.7.783-1.4,1.165-2.1a29.769,29.769,0,0,0-7.183-4.438c-4.188-1.915-10.47-4.3-15.111-3.651-2.126.3-6.234,2.512-6.05,4.93-1.821-2.52-3.535-5.128-5.579-7.49-3.671-4.239-7.577-8.313-12.967-10.337-18.676-7.014-36.922-1.346-53.425,7.886C88.689,15.544,84.7,20.269,78.1,26.108,63.389,39.125,45.791,48.754,31.071,61.361,13.209,76.661,1.233,104.819.09,127.676c-.737,14.746,2.992,25.02,14.257,34.866,15.254,13.333,36.134,10.433,50.971-1.98,7.848-6.565,9.45-15.327,9.3-24.876-.066-.484-.14-.967-.226-1.449-.275-1.545-.678-3.067-1.029-4.6a19.5,19.5,0,0,0-1.394-4.308c-.536-1.088-1.1-2.178-1.69-3.24a8.244,8.244,0,0,0-2.17-2.8.613.613,0,0,1-.266-.414c-2.734-2.268-5.538-4.518-9.064-5.676-13.636-4.48-29.445,6.265-31.912,19.5-.056,1.458-.424,2.888-.433,4.349A12.929,12.929,0,0,0,27.187,141a21.426,21.426,0,0,0,1.614,3.8c1.375,2.508,3.522,4.525,5.486,6.6a.254.254,0,0,1,.064.12c4.718,3.327,10.519,3.437,16.018,1.938,6.377-1.739,9.2-5.511,10.528-11.648.219-1.015.091-1.969.337-2.7a5.268,5.268,0,0,1-.419-1.781,12.855,12.855,0,0,0-.373-2.154,20.972,20.972,0,0,0-1.082-2.7,10.555,10.555,0,0,0-1.337-2.233,10.9,10.9,0,0,0-3.906-2.979,12.392,12.392,0,0,0-4.932-1,16.555,16.555,0,0,0-4.249.45c-.586.192-1.157.4-1.706.631a19.618,19.618,0,0,0-2.087,1.092,17.567,17.567,0,0,0-1.358,1.764,12.473,12.473,0,0,0-1.665,3.413,6.4,6.4,0,0,0-.216,3.348,6.136,6.136,0,0,0,1.626,2.753,4.322,4.322,0,0,0,1.427,1.052,4.506,4.506,0,0,0,1.586.318,11.606,11.606,0,0,0,2.875-.309A8.156,8.156,0,0,0,47.6,140c.476-.263,1.1-.7.948-1.315a1.7,1.7,0,0,0-.764-.94,1.665,1.665,0,0,0-1.195-.267.229.229,0,0,1-.182.172,4.8,4.8,0,0,1-2.575.257,2.255,2.255,0,0,1-1.189-2.47,4.549,4.549,0,0,1,4.278-3.764,5.423,5.423,0,0,1,4.69,2.357,8.991,8.991,0,0,1,1.739,5.265,3.529,3.529,0,0,1-.436,1.721c.057-.021.115-.04.172-.062-1.722,4.226-7.564,4.915-11.684,4.208.027-.026.061-.049.09-.074a9.374,9.374,0,0,1-3.57-1.808c-2.3-2.015-2.933-5.206-2.738-8.087a8.2,8.2,0,0,1,1.267-4.167,9.85,9.85,0,0,1,.9-1.128l-.03,0c3.6-5.974,10.791-9.1,17.667-6.311,0,.01-.006.016-.008.025a8.218,8.218,0,0,1,2.228,1.278,17.19,17.19,0,0,1,4.94,6.989,14.435,14.435,0,0,1,1.029,3.577,6.625,6.625,0,0,1-.138,2.355l.1-.019c-.959,7.14-3.61,16.134-11.146,19.072-5.66,2.206-15.929,2.352-21.377-.345-12.531-6.2-15.393-24.738-11.423-36.672,3.5-10.51,11.553-17.728,21.388-22.712,6.9-3.495,11.681-2.795,18.357-5.122,2.33-.812,6.248-3.239,8.211-3.629,1.518-.3,3.195.208,4.8-.086,4.213-.769,7.725-5.137,10.346-8.14l6.123-2.622a83.35,83.35,0,0,0-1.1,8.8c-.237,4.859.616,10.05.278,14.741-.279,3.857-2.107,7.617-.844,11.4a.248.248,0,0,1,.087.124,6.532,6.532,0,0,0,2.377,2.868,12.185,12.185,0,0,1,2.4,2.409,23.649,23.649,0,0,1,2.207,3.853,18.907,18.907,0,0,1,1.507,5.81c.623.647.951,2.461,2.206,2.626,1.325.174,3.364-1.83,4.2-2.774.394-.447.8-1.387,1.295-1.984.275-.664.539-1.332.757-2.016a8.5,8.5,0,0,0,.246-4.688,13.621,13.621,0,0,0-1.726-3.845,39.728,39.728,0,0,1-3.422-5.825c-2.133-2.614-1.337-6.359-.874-9.456,1.209-8.1,3.965-15.841,5.361-23.889,3.975,5.5,5.638,12.269,8.284,18.419.963,2.238,2.53,4.382,3.126,6.837-3.56-1.449-7.722.386-9.565,3.505-.5.85-.7,1.779-1.167,2.591-.376,1.458-1.029,2.935-.331,4.4.414.874,1.476,2.209,2.581,1.452a3.858,3.858,0,0,0,.935-1.09c.3-.633.559-1.232.934-1.353.908-.18,1.9.4,2.853.807a2.4,2.4,0,0,0,2.5-.631,10.61,10.61,0,0,0,1.686-2.89,16.594,16.594,0,0,1,1.674-3.074,7.236,7.236,0,0,1,2.54-2.09,22.819,22.819,0,0,1,3.049-1.191l-8.237-26.352,7.614-.4c-2.446,4.676,4.432,8.679,7.8,11,2.641,1.821,5.332,3.633,7.992,5.417,1.578,1.059,3.337,1.925,4.9,3.028a.276.276,0,0,1,.141.058,28.11,28.11,0,0,0,4.564,2.644,13.714,13.714,0,0,1,3.51,2.559,12.609,12.609,0,0,1,2.421,3.522,13.538,13.538,0,0,1,1.021,4.311c.047.482.076.966.092,1.449l.174-.051c.408,1.556,1.215,5.987,3.534,5.417,2.828-.7,3.928-4.776,5.074-7.375.2-1.073.437-2.14.61-3.217.435-2.7.345-5.632-1.6-7.789a42.526,42.526,0,0,0-3.208-2.834,10.445,10.445,0,0,1-2.394-2.9c-5.755-5.359-13.882-8.1-18.811-14.325,2.747-2.071,6.483-1.108,9.692-.876,2.4,6.137,7.885,9.735,12.28,14.378.647-.16,1.333-.162,1.984-.3a.79.79,0,0,1-.083-.027c-.326-.143-4.643-4.256-5.151-4.828a23.668,23.668,0,0,1-1.92-2.555c-.051-.12-.071-.431.132-.389l2.04,1.575-2.986-4.344c-.228-.725,1.258-.34,1.559-.059.736.688,1.552,3.156,2.651,3.877.38-.748-2.368-3.658-2.039-3.944,1.965-.044,2.523.453,3.669,1.839l-.409-1.312h.538c1.951,2.816,4.713,5.152,7.193,7.607a4.612,4.612,0,0,0,1.04-1.152c.15-.238.285-.483.413-.731l-7.554-7.565c7.758,1.48,15.406,3.97,23.426,3.774M127.39,53.366c-3.5-.462-10.409.137-13.01-2.138-.43-.376-.81-1.123-1.224-1.574l5-.5c6.519.44,13.033.707,19.523,1.624a35.374,35.374,0,0,1,8.224,1.773c2.208.85,3.393,1.662,5.845.914.706-.215,1.508-.988,2.251-.878l2.913,1.806-.157.538c-1.638.418-3.306,1.382-4.933,1.763-9.673,2.266-15.4-2.132-24.431-3.323M188.6,21.752l-.431,2.37c-2.306-.342-2.854-2.365-3.527-4.209Zm-5.6-2.747,1.915,3.537c-3.12-1.044-6.4-2.409-8.153-5.257Zm-23.632-6.984c3.115.558,1.008,8.425-1.421,7.841-2.128-.921-.365-.956.451-2.071a11.961,11.961,0,0,0,.97-1.955Zm-9.784-7.1,1.741.5.18.414c.289,3.119-.748,5.915-1.647,8.825,2.656-2.1,2.415-5.962,2.175-8.946a10,10,0,0,1,3.534,1.97,39.723,39.723,0,0,1,3.273,3.146c.908,1.529-.763,8.148-2.547,8-.283-.024-4.2-2.1-5.083-2.452a31.673,31.673,0,0,0-3.8-1.191,13.558,13.558,0,0,0,1.212-2.376,30.7,30.7,0,0,0,.963-3.541Zm-33.64-.859c.735-.235,3.7-1.333,4.156-.722.422,1.891,2.592,7.018,1.629,8.691-.231.4-.563.144-.647-.171-.186-.7.028-1.679-.113-2.521a10,10,0,0,0-2.91-5.731,25.716,25.716,0,0,0,1.215,2.373c.441,1.072,1.684,5.534,1.107,6.326l-11.292,3.93a14.4,14.4,0,0,0-3.8-6.972,53.081,53.081,0,0,1,10.657-5.2m-10.425,6.026c.639.634,3.273,5.923,2.751,6.412l-1.056-.031c-.268-2.4-1.719-4.16-2.758-6.147-.405-.775.393-.9,1.063-.235M40.177,130.96c.756,1.572,2.34,2,1.491,3.946-2.312-.512-3.769-2.154-1.491-3.946m2.649,7.458c1.629,1.162,2.913.768,4.371-.306a.9.9,0,0,1,.874,1.011c-4,3.148-10.546.047-9.663-5.137l.54-.13c.12,1.3,1.9,1.555,2.463,2.223.519.616.517,1.7,1.416,2.34m-.2-5.881c-.413-.624-1.668-1.7-1.47-2.448l2.956-1.759c-.856,1.674.9,3.376-1.486,4.207m3.916-2.007-1.885.692c-.152-1.865-.666-3.623,1.9-3.683ZM3.9,116.491a13.877,13.877,0,0,0,12.771,3.685,45.769,45.769,0,0,0-1.958,10.6c-3,4.118-8.307,4.8-12.954,3.042A71.987,71.987,0,0,1,3.9,116.491M1.99,135.172c3.512.967,6.713,1.338,10.06-.392,1.156-.6,1.847-1.5,2.983-1.977-.32,3.93,1.271,7.751,1.5,11.567A11.844,11.844,0,0,1,4.5,148c-1.925-3.972-2.382-8.473-2.508-12.831m70.932,8.414a10.442,10.442,0,0,0-7.88-2.105l-.009-.883a7.247,7.247,0,0,1,6.675-.7c2.134.894,1.549,1.733,1.214,3.689m-.648-13.709c.84.644,1.468,9.226.92,9.762a8.019,8.019,0,0,0-6.318-.725c-.663.182-.91.717-1.56.724.208-2.575-.969-5.05-1.032-7.576,1.394-1.226,6.417-3.391,7.989-2.185m-44.466,8.581v-3.815a20.6,20.6,0,0,0,5.977,1.317l.21,2.731A11.523,11.523,0,0,1,29.3,142a16.939,16.939,0,0,1-1.492-3.542m.275-5.394a11.661,11.661,0,0,0,5.706,1.316v.787l-5.536-.774Zm1.662,10.162,4.856-2.794c.442.464-1.568,2.58-2.035,2.9-.905.612-2.818,1.483-2.821-.1m28.1,2.723-3.6-3.542.752-2.243a9.532,9.532,0,0,1,4.3,1.894c.337.558-1.23,3.9-1.446,3.891m1.764-4.732c-.416.022-.336-.51-.669-.794a6.531,6.531,0,0,0-3.927-1.329l-.292-1.557c2.628.27,6.219.151,4.889,3.679M58.5,133.352l1.109,4.184a8.851,8.851,0,0,0-4.9-.634l-.76-1.652c-.1-.916,4.118-2.264,4.551-1.9m-10.812-2.691-.036-3.124c2.722-.146,5.585.011,7.607,1.974-1.047,1.05-2.36,2.038-2.717,3.552a9.809,9.809,0,0,0-4.854-2.4m5.128,3.054c-.148-1.057,3.565-5.7,4.349-1.971-1.53.118-2.538,1.394-3.671,2.107-.358.225-.622.268-.678-.136m.99,9.368c1.5,1.008,4.99,3.879,2.275,5.24-.279-1.554-1.487-3.617-2.991-4.214Zm-5.884,3.4.68,5.525c1.476-1.65.414-3.975-.135-5.785,1.278.26,2.917-1.426,3.732-1.549,1.212-.182,3.262,3.353,3.282,4.361.03,1.611-7.828,3.875-9.458,3.763a9.442,9.442,0,0,0,0-6.049Zm-3.025.3a7.352,7.352,0,0,1-.224,6.163c-.639.419-7.289-.688-8.16-1.855a6.866,6.866,0,0,0,2.988-5.131,11.962,11.962,0,0,0,5.4.824m-6.216-1.348a5.128,5.128,0,0,1-1.624,4.083c-.207.227-1.375,1.462-1.635,1.177.24-1.193,1.35-2,2.007-3.186.365-.656.376-2.151,1.252-2.074m-1.409-.448c-.152.849-2.12,4.793-3.037,4.637a14.917,14.917,0,0,1-3.978-5.24l2.1-.2,2.648-2.431Zm-3.383-11.691-5.527-1.029c.437-2.723,1.248-5.578,3.251-7.618a10.75,10.75,0,0,0,4.044,4.368Zm-.37-7.2c-.256-.3-.66-.427-.54-.921.333.735,3.507,2.287,3.525,2.5.118,1.4-2.778-1.338-2.985-1.578m6.665-2.495c-.673.535-2.4,2.572-2.868,2.766-1.129.463-4.049-2.368-4.59-3.391a20.6,20.6,0,0,1,7.042-5.959c.288,1.634.748,3.7,2.174,4.736-.529-1.724-1.9-3.32-1.584-5.222l1.313-.566c.041,1.921,1.108,3.589,2.163,5.134-.022.236-3.159,2.112-3.649,2.5m4.6-3.412c-.755-.424-2.748-4-2.262-4.719,2.877-1.006,5.808-2.176,8.936-2.134-1.515,1.478-2.458,3.086-2.172,5.26.782-.5.682-1.713,1.033-2.55.659-1.57,1.493-3.359,3.584-2.583-1.68,1.689-2.334,4.152-2.744,6.421-1.611-.464-5.253.934-6.374.3M56.057,121.9c-2.614-1.841-4.486-.575-3.018-4.8a13.057,13.057,0,0,1,2.137-3.524c2.97.482,5.6,1.893,8.237,3.177-2.6,1.79-4.678,3.817-4.893,7.1-.328.332-2.062-1.671-2.463-1.954m2.736,2.744c-.206-.239.925-3.46,1.209-3.96a8.541,8.541,0,0,1,4.095-3.332l2.03,1.635c-1.276.657-2.454.814-3.657,1.717a9.3,9.3,0,0,0-2.852,4.088Zm3.944,4.739c-.954-2.076-2.5-2.451-1.561-4.933.73-1.932,4.362-4.951,6.466-3.766.722.406,3.7,5.263,3.38,5.537-3.342-.253-5.907,1.033-8.285,3.162m.517.517c.432-1.636,6.575-3.445,8.279-2.855l.305,1.28c-3.373-.453-5.71,1.073-8.422,2.632-.046-.38-.272-.642-.162-1.057m1.531,12.91a8.788,8.788,0,0,1,7.74,2.1,30.345,30.345,0,0,1-3.139,9.2l-.556-.161c-.845-2.161-3.45-3.4-5.69-3.786.79-2.375,1.723-4.8,1.644-7.354m-2.173,7.9c1.619.048,6.314,3.369,5.565,4.977-.115.248-1.2,1.26-1.5,1.06-.77-2.137-2.609-3.562-4.507-4.727ZM58.523,155.3a30.137,30.137,0,0,1,2.181-2.118c1.461-.639,5.539,3.558,5.119,4.955a32.31,32.31,0,0,1-3.684,3.032c-.417.3-4.257,2.884-4.434,2.678.212-2.365-1.092-4.314-2.435-6.153a30.28,30.28,0,0,1,3.253-2.394m-4.135,3.086a19.379,19.379,0,0,1,1.624,2.5,16.463,16.463,0,0,1,.869,2.852c.088.4.486.5-.133.9L54.5,159.718c-.556-.321-1.394-2.161-.108-1.332m-1.856.851c1.091.483,3.238,5.173,2.592,6.194-.339.537-7.39,3.256-7.748,2.892a23.06,23.06,0,0,0-1.9-7.893c1.78.683,5.75-1.772,7.058-1.193m-7.359,1.218c.352.294,1.553,6.951,1.388,7.737-.194.917-1.365.636-2.174.918a13.647,13.647,0,0,0-.544-8.68Zm-5.273.522c.765.009,2.145-.694,2.724-.026.982,1.134,1.419,7.471-.026,8.4-.809.522-5.089.846-6.243.819a24.516,24.516,0,0,1-4.31-.561c-.3-.094-.657-.086-.705-.5,2.691-1.389,4.394-5.736,2.718-8.421,1.937-.274,4.007.262,5.842.283m-8.973,8.144-.479.205-1.827-.481a12.815,12.815,0,0,0,5.027-7.889c1.355,2.85-1.432,5.749-2.722,8.165m1.5-8.69c-.337,2.307-3.012,7.518-5.636,7.842a15.629,15.629,0,0,1-3.519-.955,28.132,28.132,0,0,1-4.158-2.81c2.83-1.994,5.428-4.107,5.706-7.762a16.545,16.545,0,0,0,7.608,3.686m-9.733-.609c-1.057,1.659-2.831,2.684-4.124,4.165a.843.843,0,0,1-.753-.206c-.415-.42-.951-1.8-1.7-2.3,3.654-.446,5.608-3.289,6.931-6.313,1.792,1.023.5,3.306-.355,4.65m-4.767-12.945c-.07,1.282-5.293,4.668-6.157,5.92a11.264,11.264,0,0,0,5.176-3.012c.389-.384,1.2-2.08,1.615-1.721-.126,1.513,3.241,5.288,3.2,6.135-.14,2.747-4.368,7.05-7.352,6.178-.662-.193-4.13-3.794-4.8-4.558a39.782,39.782,0,0,1-4.354-6.046c3.368.38,7.065-.023,9.871-2.018.863-.613,1.461-1.492,2.354-2.059-.055.4.469.881.452,1.181m1.829-34.106c-1.212,1.918-1.806,4.146-3.152,5.9-4.517,1.393-9.272-.509-12.4-3.676,1.336-6.28,2.739-12.666,5.53-18.5,2.663,5.917,9.2,9.04,15.626,9.473-1.788,2.319-4.035,4.316-5.607,6.805m67.5-37.8c-.2.044-.7.486-.459-.182.51-1.437,1.551-3.116,1.978-4.665l2.093-3.365c-.2,2.624-1.417,5.22-1.955,7.842a11.355,11.355,0,0,0-1.657.369m24.675,34.67c-1.718-2.293-3.74-1.777-5.762-.177-.291.23-.377.9-.895.971.319-2.383.162-4.043,1.788-6.029a6.517,6.517,0,0,1,9.348-.945c-2.48,1.452-2.953,4.1-4.479,6.179m9.106-8.155c-.944.047-2.858,1.1-3.553.086-.751-1.092-1.647-4.867-2.3-6.393-1.248-2.94-2.571-5.951-3.886-8.866-1.274-2.824-2.785-5.576-4.124-8.373,1.372-.643.911.438,1.626.921l-.268-1.312,1.048.036c.232.137,1.376,4.141,2.209,4.435l-1.626-4.471,1.917-.142,2.977,7.505c.574-.046.214-1.258.144-1.588a30.552,30.552,0,0,0-2.319-5.911l1.069-.115Z" transform="translate(-0.01 16.337)"/><path class="p" d="M4.2,0a8.37,8.37,0,0,1-1.65.633A9.759,9.759,0,0,0,1,2.531a8.241,8.241,0,0,0-1,4.075A11.635,11.635,0,0,0,.62,10.849a7,7,0,0,0,2.334,3.234A9.928,9.928,0,0,0,6.339,15.59,15.442,15.442,0,0,1,8.9,14.547c2.425-.875,4.956-1.471,7.4-2.3a3.053,3.053,0,0,0,.379-.471,3.244,3.244,0,0,0,.418-2.041c-.218-3.02-2.237-6.878-5.869-6.634A3.95,3.95,0,0,0,7.469,6.625c-.015.7.255,1.622,1.088,1.736a4.557,4.557,0,0,0,1.722-.255l0,0c.985-.739,2.453.054,2.954,1a1.543,1.543,0,0,1-.72,2.043,7.354,7.354,0,0,1-2.427.978A12.3,12.3,0,0,1,6.9,12.5a4.728,4.728,0,0,1-3.374-1.449A6.774,6.774,0,0,1,1.7,8.033C1.022,5.405,2.376,2.639,3.837.5c.116-.169.24-.333.362-.5" transform="translate(35.684 145.446)"/><path class="o" d="M14.016,13.95a6.578,6.578,0,0,0,.146-2.83A18.027,18.027,0,0,0,11,4.024,10.288,10.288,0,0,0,6.154,0c-.163.048-.346.067-.5.123C3.875.762,1.925,1.22,0,1.7a18.02,18.02,0,0,1,1.931.061,11.932,11.932,0,0,1,5.2,1.624,10.267,10.267,0,0,1,3.792,3.8,16.1,16.1,0,0,1,1.911,5.263,12.828,12.828,0,0,0,.33,2.031,2.019,2.019,0,0,1,.853-.53" transform="translate(48.407 140.363)"/><path class="p" d="M40.966,13.835a43.213,43.213,0,0,1-3.451-7.07C36.621,4.545,35.852,2.281,35.143,0a5.794,5.794,0,0,1-1.056.275,30.851,30.851,0,0,1-4.634,1.513c-.628.186-1.258.369-1.889.544L21.879,4.55a6.285,6.285,0,0,1,1.408,1.412,3.255,3.255,0,0,1,.195.332,2.315,2.315,0,0,1-.046,2.44,3.446,3.446,0,0,1-2.214,1.142,7.9,7.9,0,0,1-1.72.093,7.878,7.878,0,0,0-2.049.054,6.169,6.169,0,0,0-2.843,1.767A6.927,6.927,0,0,1,12.5,13.17a3.8,3.8,0,0,1-2.4.3,2.152,2.152,0,0,1-1.49-1.781c0-.017,0-.034,0-.05a5.4,5.4,0,0,1,1.15-3.416,4.014,4.014,0,0,1-.917.519c-.042.023-.082.047-.125.069-1.053.557-2.173.981-3.228,1.535a4.662,4.662,0,0,1-1.664.484c-.349.041-.707.063-1.054.125l.122.132L0,11.687A10.637,10.637,0,0,0,1.845,13.76a.481.481,0,0,1,.139-.121.481.481,0,0,0-.139.121c.292.264.59.519.883.768a17.337,17.337,0,0,1,3.03,2.888c.111.154.213.312.309.473a4.263,4.263,0,0,1,.407.651,7.9,7.9,0,0,1,.632,4.708c-.012.163-.028.327-.046.49-.118,1.125-.34,2.24-.556,3.357l9.387-3.41c.581-.968,1.095-1.973,1.577-2.991.068-.142.131-.285.2-.428.352-.782.67-1.574,1.018-2.359a3.619,3.619,0,0,1,1.471-1.794,2.565,2.565,0,0,1,1.393-.251,2.476,2.476,0,0,0,1.5-.246,3.057,3.057,0,0,0,.722-.882,2.689,2.689,0,0,1,1.033-.912,2.173,2.173,0,0,1,2.265.3,5.583,5.583,0,0,1,1.79,2.4,8.85,8.85,0,0,1,.581,2.255c.039.313.062.626.077.94l12.343-4.5c-.29-.466-.6-.922-.892-1.379M12.115,22.446c-.593.178-1.211.359-1.806.528.595-.169,1.212-.35,1.806-.528m-2.081.605c-.469.132-.918.253-1.321.357.4-.1.852-.225,1.321-.357M8,23.583c-.111.025-.214.048-.31.067.1-.02.2-.042.31-.067m.519-.125-.306.075.306-.075m4.675-1.339-.536.164.536-.164c.308-.1.6-.186.861-.269-.263.083-.553.174-.861.269m1.115-.349.444-.143-.444.143" transform="translate(157.276 94.884)"/><path class="p" d="M24.956,11.626q-.056-.259-.118-.515c-.011.019-.019.04-.031.058.012-.018.02-.039.031-.058A17.213,17.213,0,0,0,23.5,7.432c-.331-.66-.7-1.3-1.094-1.929A14.26,14.26,0,0,0,21.25,3.83a12.318,12.318,0,0,0-1.6-1.485.526.526,0,0,0-.062-.013.526.526,0,0,1,.062.013A10.324,10.324,0,0,1,17.316,0L0,5.336A11.672,11.672,0,0,1,1.86,8c.32.587.618,1.185.921,1.78s.635,1.174.905,1.782a23.713,23.713,0,0,1,1.361,4.461c.309,1.368.656,2.724.915,4.1l19.326-6.5q-.118-1-.332-2m-5.39-9.3a.237.237,0,0,0-.076,0,.237.237,0,0,1,.076,0" transform="translate(69.451 130.074)"/><path d="M.121,13.927c-.892-2.792,3.373-3.655,5.108-4.849,1.014-.7,1.877-1.982,2.878-2.74,1.38-1.046,3.332-1.506,4.263-2.978.411-.65,1.592-4.072,2.942-3.226,1.869,3.635,3.548,5.478.125,8.827-2.509,2.455-3.586,2.1-6.674,2.748-1.851.387-4.393,1.855-6.434,2.19a8.184,8.184,0,0,1-2.207.028M15.027,1.069c-.624-.153-.446.121-.618.331-.689.842-.7,1.774-1.165,2.542-.711,1.174-3.817,2.724-5.136,3.712-.823.616-1.5,1.637-2.336,2.212C4.194,10.953,1.944,11.248.9,13.17c2.682-.327,5.125-1.783,7.621-2.75,1.254-.486,2.9-.684,4.129-1.266A19.52,19.52,0,0,0,16.8,5.8c.552-1.157-1.618-3.421-1.774-4.728" transform="translate(79.091 48.081)"/><path d="M5,3.095c.461-.424,1.059-1.525,1.533-1.934C9.287-1.212,11.98.278,12.4,3.592c.232,1.821-.386,6.92-2.437,7.6C7.378,12.04,7.311,8.774,5.827,9,4.723,9.164.245,13.923.014,10.64c-.21-2.984,2.043-5.133,4-7.06.23-.226.738-.255.989-.485M11,1.662A4.342,4.342,0,0,0,9.57,1.091C7.959,1.083,4.594,5.653,3.318,6.859,2.6,7.536.069,8.429,1.258,9.906c1.02,1.268,2.885-1.949,4.514-2.012,2.016-.077,2.713,2,3.294,2.1,1.392.238,3.371-6.821,1.932-8.334" transform="translate(31.143 78.078)"/><path d="M5.907.083a6.706,6.706,0,0,1,6.817,3.272c1.682,2.691,2.3,7.44-2.268,7.209-2.227-.113-2.41-1.488-3.807-2.642C5.032,6.586.129,4.485,0,2.5-.128.388,2.6.985,3.876.747,4.553.62,5.243.187,5.907.083M9.063,8.873c1.481,1.212,3.611.782,3.872-1.219.271-2.078-1.661-4.879-3.513-5.838C6.834.477,6.541,1.371,4.19,1.84c-.765.153-3.741-.288-2.973,1.334.357.754,5.1,3.019,6.394,4.078.585.479,1.037,1.281,1.452,1.62" transform="translate(149.024 45.179)"/><path d="M9.443.118C11.388,0,13.514-.415,14.63,1.531a1.018,1.018,0,0,1-.255,1.521C13.79,3.565,8.421,5.2,7.461,5.3,6.2,5.439.277,5.631,0,4.089,2.279,1.48,5.976.324,9.443.118M13.5,1.17c-.884-.556-6.592.185-7.866.522-1.567.415-2.845,1.514-4.286,2.163.309.439.743.375,1.207.41a23.228,23.228,0,0,0,8.792-.726c.51-.15,2.673-.837,2.767-1.282A3.106,3.106,0,0,0,13.5,1.17" transform="translate(117.783 40.95)"/><path d="M11.342.307C12,1.761,10.981,4.6,9.6,5.46A14.1,14.1,0,0,1,6.081,6.543C5.259,6.625,4.643,6.3,4,6.35c-.838.066-2.55,1.126-3.269.957a1.034,1.034,0,0,1-.68-1.339c.336-1.408,4.963-3.1,6.379-3.84C7.5,1.569,10.148-.843,11.342.307m-.2.462C9.247.646,8.079,2.341,6.662,3.144,4.819,4.189,2.5,4.649,1.081,6.291c.987.06,1.971-.7,2.886-.778.685-.058,1.209.232,1.8.193,3.407-.222,4.893-1.727,5.366-4.936" transform="translate(56.62 63.382)"/><path d="M0,5.26,6.339,1.534,8.15,0C7.1,3.059,3.155,4.985,0,5.26" transform="translate(175.114 80.192)"/><path d="M2.168,7.63c-.488-.082-.465-.533-.58-.883C.884,4.613.787,2.142,0,0,1.706,2,1.9,5.1,2.168,7.63" transform="translate(184.902 56.774)"/><path d="M6.52,5.259a11,11,0,0,1-4.2-2.373A9.292,9.292,0,0,1,0,0,61.8,61.8,0,0,0,6.52,5.259" transform="translate(22.369 105.725)"/><path d="M0,6.577,3.8,0C4.351.941.412,7.033,0,6.577" transform="translate(116.137 80.46)"/><path d="M0,6.05.6,4.657,3.528,0A10.775,10.775,0,0,1,0,6.05" transform="translate(119.399 82.039)"/><path d="M0,5.785,4.075,0A10.178,10.178,0,0,1,.952,5.262C.646,5.509.511,5.9,0,5.785" transform="translate(177.831 75.72)"/><path d="M0,5.785,2.987,0C2.872,1.994,2.132,5.016,0,5.785" transform="translate(177.287 72.563)"/><path d="M0,6.052c.194-1.082.406-2.2.539-3.291C.646,1.883.138.48,1.082,0A19.613,19.613,0,0,1,.737,4.531C.623,5.034.593,5.855,0,6.052" transform="translate(175.116 64.931)"/><path d="M4.41,2.891C3.687,3.036-.568.675.064,0Z" transform="translate(25.566 105.462)"/><path d="M0,5.524,1.9,0C1.765,1.9,1.5,4.162,0,5.524" transform="translate(177.29 69.668)"/><path d="M2.169,4.471,0,0A8.964,8.964,0,0,1,2.169,4.471" transform="translate(183.271 58.353)"/><path d="M.237,5.26,0,4.373,1.053,0Z" transform="translate(176.776 66.248)"/><path class="p" d="M59.535,1.655C37.178,6.238,17.378,21.323,7.628,41.267l-.045-.042c-.35.638-.706,1.273-1.061,1.909l0,0A72.687,72.687,0,0,0,3.166,94.427l-.06.03c.374,1.21.761,2.416,1.179,3.613a62.028,62.028,0,0,0,3.085,7.417,34.805,34.805,0,0,0,1.9,3.33c.2.3.395.611.585.922l.061-.022C27.95,139.44,64.523,153.4,98.814,142.83c26.676-8.224,47.333-31.42,51.466-58.325C158.1,33.6,111.669-9.031,59.535,1.655m72.248,110.729c-28.446,38.68-88.449,36.955-114.757-2.992C-11.037,66.78,18.7,9.672,70.632,6.609c58.3-3.439,95.216,59.454,61.151,105.775m-5.091-90.941q-.866-.814-1.76-1.6.894.787,1.76,1.6m-2.66-2.382q-.907-.774-1.841-1.519.934.745,1.841,1.519M121.25,16.8q-2.367-1.828-4.9-3.47,2.526,1.64,4.9,3.47m-5.912-4.118q-1.023-.641-2.07-1.249,1.047.608,2.07,1.249m-6.351-3.55q1.093.541,2.164,1.117-1.071-.575-2.164-1.117-2.734-1.354-5.606-2.489,2.871,1.133,5.606,2.489M97.509,4.614q2.4.718,4.718,1.588-2.318-.869-4.718-1.588A75.042,75.042,0,0,0,75.8,1.5,75.042,75.042,0,0,1,97.509,4.614m-70.2,14.278q-.863.723-1.7,1.471.838-.748,1.7-1.471M14.511,32.8q-.638.9-1.248,1.827.61-.923,1.248-1.827M8.37,43.26q-.476.993-.922,2,.445-1.007.922-2" transform="translate(190.315 -0.018)"/><path class="p" d="M54.059,11.62c-.038-.314-.085-.626-.139-.935a10.818,10.818,0,0,0-1.057-3.234,12.473,12.473,0,0,0-2.574-3.328,16.535,16.535,0,0,0-3.7-2.384A29.974,29.974,0,0,1,43.5,0C37.488,1.869,31.536,4.58,25.443,6.153a9.628,9.628,0,0,1-1.772.462,17.223,17.223,0,0,0-4.546,1.978A7.251,7.251,0,0,0,16.985,11.2c-.621,1.163-1.1,2.428-1.754,3.546a3.914,3.914,0,0,1-2.183,2.021,3.2,3.2,0,0,1-1.562-.021c-.582-.139-1.078-.456-1.643-.626-1.071-.322-1.611.846-2.132,1.512a1.954,1.954,0,0,1-2.331.81A3.916,3.916,0,0,1,3.39,15.729c-.022-.108-.037-.215-.048-.322a7.218,7.218,0,0,1,.43-2.791L0,14.12a17.887,17.887,0,0,0,1.263,2.347c.029.047.058.094.087.141.391.619.8,1.234,1.207,1.855a15.033,15.033,0,0,1,2.613,5.784A9.612,9.612,0,0,1,4.6,29.005c-.09.254-.186.507-.285.758,1.655-.664,5.412-1.339,7.184-1.852,1.03-.3,3.742-1.424,5.062-1.791a4.024,4.024,0,0,1-.521-2.586,8.011,8.011,0,0,1,.655-2.4,6.938,6.938,0,0,1,1.371-2.1,3.1,3.1,0,0,1,1.071-.75,2.155,2.155,0,0,1,.966-.111c.1-.029.2-.06.309-.082a1.706,1.706,0,0,1,1.122.3,1.693,1.693,0,0,0,.373-.035,3.052,3.052,0,0,0,1.154-.664,2.136,2.136,0,0,1,2.065-.614,4.776,4.776,0,0,1,2.147,1.87,6.32,6.32,0,0,1,.459.8,8.367,8.367,0,0,1,.6,1.709c.084.353.145.709.2,1.065,8.878-2.111,17-6.29,25.689-8.805-.019-.7-.068-1.4-.152-2.1m-29.636-.907c.289-.086.58-.167.878-.225-.3.058-.588.139-.878.225" transform="translate(99.528 111.41)"/><path d="M24.686.008c-2.134,3.618-6.126,5.466-5.1,10.331.4,1.914,4.19,4.96,6.134,5.135,2.9.261,5.769-1.373,9.161-1,5.321.587,10.665,7.818,14.4,11.321A187.278,187.278,0,0,0,70.9,43.533c.493.341,1.069.4,1.626.794a6.142,6.142,0,0,1,2.138,6.04c-.354,2.534-1.95,1.79-2.285,2.507a16.6,16.6,0,0,1-.276,6.328c-.807,2.48-3.269,3.644-5.037,5.386C61.2,70.366,56.76,77.075,50.776,82.5A89.537,89.537,0,0,1,35.091,93.887C32.8,95.193,30.5,95.5,28.966,97.7a32.273,32.273,0,0,0-3.156,6.6l5.392,4.64c-5.477-2.257-10.242-6.311-14.125-10.66-.588-.658-3.6-4.173-3-4.859.664.018,1.207.745,1.636,1.176,2.546,2.559,4.72,5.634,7.6,7.9.243.191,1.442,1.141,1.633.916-.2-2.343,1.486-4.2,2.174-6.313l-2.442.4c2.953-1.98,6.255-3.4,9.324-5.183,1.632-.949,6-3.315,6.938-4.6.791-1.078,1.13-2.741,2.085-3.771l-.678,2.893c2.556-1.2,3.25-3.948,4.755-6.051.582,1.116-1.036,2.072-.818,3.155,1.944-2.052,4.647-3.033,4.488-6.315,1.2-.239-.046,1.44.273,1.843,2.918-1.04,2.07-4.815,4.072-6.578l-.407,3.156,7.2-8.289c-.172-.343-.743-.023-1.006.079-2.074.8-4.29,2.04-6.6,2.029,3.151-2.669,7.221-3.871,10.781-5.877,3.048-1.717,4.582-2.665,5.662-6.1a15.26,15.26,0,0,0,.678-4.736l-5.434.791,1.9,1.836c-1.795-.462-2.213-2.118-4.348-1.31l1.9,1.837c-.909-.094-1.744-1.4-2.612-1.5a16.527,16.527,0,0,0-2.28.456c.366.762,1.527,1.083,1.355,2.1-1.56-2.251-2.77-2.167-5.156-.921l1.079,1.447-1.973-1.254c-2.934.81-5.969,1.353-8.895,2.176C39.724,60.851,31,64.979,23.448,64.48c-5.78-.382-17.4-4.431-21.6-8.294C.556,55-.845,53.786.635,52.111c1.828-2.068,6.252,3.871,7.491,4.839A32.356,32.356,0,0,0,18.37,61.766,51.109,51.109,0,0,0,25.9,62.9c1.712-.056,6.619-1.482,8.569-1.988,8.861-2.3,18.91-6.317,27.714-7.9,3.406-.614,6.927-.525,10.342-1.048-.613-2.173.243-4.4-1.175-6.363-3.341-2.16-7.106-4.375-10.221-6.81-4.532-3.543-6.536-5.287-12.018-7.835a9.494,9.494,0,0,0-3.5-1.222c1.128-2.223.052-4.306-1.491-6.052-1.566-1.773-7.459-5.691-9.726-6.37-3.86-1.156-11.129-.163-14.425,2.2-.58.417-1,1.392-1.454,1.509-.486.125-.987-.216-1.513-.177-2.423.179-2.126,3.806-4.709,2.865-1.169-.927.239-3.41,1.653-3.472.538-.023,1.152.351,1.581.249.574-.136,1.921-1.917,2.358-2.177.194-.116.587.077.818-.021a35.982,35.982,0,0,1,3.536-1.449c-2.523-2.93-5.036.278-7.61,1.317,1.394-1.425,3.326-2.827,5.436-2.895l-1.493-2.1-4.485,3.418c-.288-.275.848-1.235,1.082-1.45a16.94,16.94,0,0,1,3.255-2.255c-.772-1.84-1.464-3.492-.808-5.5C12.013,12.467,7.272,18.058,4.567,25.13,3.573,27.728,3,30.447,2.2,33.1l-.886,2.164c.011-8,3.847-16.106,8.975-22.225A81.815,81.815,0,0,1,23.467.536,1.736,1.736,0,0,1,24.686.008M14.627,21.057c-.327-.324-2.53.99-1.9,1.839.737.334,2.327-1.415,1.9-1.839M49.415,30c.26-2.424-2.272-3.768-3.8-5.261.672,1.446,1.632,2.812.81,4.47Z" transform="translate(202.614 21.244)"/><path d="M26.51,5.253c5.244-1.882,3.3,3.166,3.537,3.41a1.758,1.758,0,0,1,1.215.538,3.28,3.28,0,0,1,.192,3.6c-.191.4-.773.772-.829,1.037-.126.6.844,1.127.991,1.6.464,1.49-1.122,2.941-2.12,3.891,2.955,1.486.669,5.078-2.178,4.6.581,3.169-2.658,4.261-5.159,2.9-.316,2.341-2.265,3.714-4.549,2.448-.463-.256-.56-.984-1.024-.87-1.626,2.5-5.074,2.334-5.576-.789-1.32.442-1.746,1.261-3.328,1-1.712-.288-1.689-1.739-2.139-3.067C1.99,25.875.62,23.331,2.283,20.41.007,19.3-1.09,16.852,1.5,15.384c-2.325-1.59-1.609-4.869,1.364-4.871A3.452,3.452,0,0,1,6.123,4.988C5.186,1.315,8.709-.234,11.284,2.622a3.072,3.072,0,0,1,5.847-.794c1.837-2.26,4.116-1.466,5.435.789,2.087-1.787,4.785-.044,3.944,2.635M16.178,2.621c-.2-3.014-4.012-2.285-4.347.262Zm5.163,1.316a1.991,1.991,0,1,0-3.8-1.181Zm-10.87-.528C8.406.8,6.53,2.411,6.941,5.254Zm14.4,2.37c2.489-4.922-3.5-2.371-2.711-1.318ZM14.221,4.542c-6.728.482-9.057,5.468-9.435,11.409-.23,3.609,4.364,8.044,7.8,8.958,7.781,2.067,14-2.7,14.459-10.323.39-6.5-6.845-10.473-12.828-10.044M29.186,6.079a3.293,3.293,0,0,0-3.149.167c-.16.1-.531.01-.343.451a13.683,13.683,0,0,0,2.032,1.993c.875,0,1.931-1.773,1.46-2.611M6.123,6.046C3.885,5.488,2.077,8.5,3.814,9.989Zm22.832,7.362c2.781-.7,2.1-5.895-.791-3.509ZM3.4,11.307c-2.552.02-3.21,2.684-.671,3.409ZM28.138,18.67c2.25-.018,3.983-3.462.956-3.945Zm-26.574.206a7.857,7.857,0,0,0,1.489.547c1.187.071.023-2.8-.334-3.382-1.495.216-2.247,1.777-1.155,2.835m26.193.868-1.772,2.771c-.162,1.007,3.329.925,3.732-.344.468-1.473-.682-2.07-1.96-2.427m-23.269.508c-.608-.45-1.609,2.024-1.6,2.505a1.841,1.841,0,0,0,1.744,1.6l1.756-1.343Zm17.942,5.784c2.069.862,5.491-.359,2.878-2.351Zm-11.688.007-3.8-2.107c-.3.937-.622,2.865.286,3.54.772.953,3.943-.87,3.515-1.433m10.6.261c-1.053.3-2.221.341-3.262.667-.981.307-.432.936.175,1.4,1.775,1.349,2.883-.449,3.087-2.064m-5.437.789-4.074-.527c-.127,3.047,3.37,3.46,4.074.527" transform="translate(215.196 42.835)"/><path d="M6.242,46.57c-.486.06-.263-.59-.235-.884.245-2.488,1.029-5.166,1.291-7.7A61.117,61.117,0,0,0,4.537,12.049C3.2,7.955,1.031,4.132,0,0A10.006,10.006,0,0,1,2.139,3.058c7,13.1,9,29.425,4.1,43.512" transform="translate(319.166 40.452)"/><path d="M29.895,0a4.9,4.9,0,0,1-2.077,1.276c-3.878,1.806-9.4,4.41-13.584,5.006A29.683,29.683,0,0,1,0,5c.188-.467,1.611-.3,2.048-.271,3.68.211,7.058.79,10.873.549C19.045,4.887,23.92.99,29.895,0" transform="translate(212.077 83.611)"/><path d="M15.213,3.154,0,.652C.07-.658,6.62.375,7.665.593a54.024,54.024,0,0,1,7.547,2.561" transform="translate(272.966 13.622)"/><path d="M14.132,0C10.356,3.238,5.235,6.685,0,6.575.014,5.485,1.7,5.7,2.5,5.448,6.627,4.137,10.217,1.75,14.132,0" transform="translate(283.826 124.917)"/><path d="M10.872,0c-1.391,2.926-5.088,5.3-7.9,6.95A15.157,15.157,0,0,1,0,8.415Z" transform="translate(233.546 101.24)"/><path d="M13.315,0C9.3,3.429,4.594,6.055,0,8.681L2.9,6.094C6.368,4.08,9.47,1.348,13.315,0" transform="translate(235.179 95.977)"/><path d="M16.034,0a8.852,8.852,0,0,1-3.16,2.069A97.743,97.743,0,0,1,0,7.626Z" transform="translate(235.994 92.819)"/><path d="M12.774,0C13.511.683,3.641,7.817,2.8,8.369A12.435,12.435,0,0,1,0,9.994Z" transform="translate(230.284 104.66)"/><path d="M8.694.722c-.029.37-1.228.464-1.527.49A23.049,23.049,0,0,1,0,.327C.361-.228.624.089,1.02.1A76.963,76.963,0,0,1,8.694.722" transform="translate(212.076 99.73)"/><path d="M3.431,7.366A8.478,8.478,0,0,1,.857,3.678C.594,3.046-.538.336.31,0Z" transform="translate(211.904 58.615)"/><path d="M2.927,3.429C2.14,4.176-1.051.284.352.007c.8-.158,3.3,2.323,2.575,3.422" transform="translate(259.973 64.918)"/><path d="M.323,7.629C-.16,7.675.035,6.741.059,6.451.237,4.24.934,2.338.33,0c1.862,2.156.794,5.228-.007,7.629" transform="translate(253.062 59.664)"/><path d="M.536,0,3.525,6.841C1.4,5.336.719,2.464,0,.127Z" transform="translate(209.637 59.14)"/><path d="M3.256,8.945c-.42-.066-.512-.49-.672-.794A35.793,35.793,0,0,1,0,0C.513.082.444.554.573.89c1,2.612,1.524,5.48,2.683,8.056" transform="translate(200.935 84.137)"/><path d="M0,2.046.4.2C2.885-.826,1.991,2.449,0,2.046" transform="translate(210.177 44.201)"/><path d="M2.168,5.261.881,2.7,0,0C1.173,1.419,1.621,3.542,2.168,5.261" transform="translate(204.74 86.505)"/><path d="M1.9,5.786.891,3.738,0,0Z" transform="translate(203.925 86.506)"/><path d="M2.939.075A4.326,4.326,0,0,1,6.923,7.353a3.792,3.792,0,0,1-3.482.793C-1.132,7.531-.991.762,2.939.075" transform="translate(227.005 51.233)"/><path d="M5.163.034A8.014,8.014,0,0,1,0,6.608a21.828,21.828,0,0,0,4.55-6c.179-.358-.173-.725.613-.577" transform="translate(235.179 59.106)"/><path d="M4.074,3.944A4.638,4.638,0,0,1,0,0Z" transform="translate(225.126 58.087)"/><path d="M1.353,3.683C.5,2.846.393,1.128,0,0A2.983,2.983,0,0,1,1.353,3.683" transform="translate(236.27 52.035)"/><path d="M.141,3.419c-.473-.4.385-.579.508-.683C1.773,1.787,3.007.841,4.214,0,4.678.5.5,3.726.141,3.419" transform="translate(233.409 59.139)"/></g></g><line class="h" x2="353" transform="translate(38 2839)"/><text class="g" transform="translate(50 2795)"><tspan x="0" y="0">AI</tspan></text><g transform="translate(363.813 2780.49)"><g transform="translate(0 0)"><line class="j" y2="16.02" transform="translate(8.01)"/><line class="j" x2="16.02" transform="translate(0 8.01)"/></g></g></g></g></svg>