<svg xmlns="http://www.w3.org/2000/svg" xmlns:xlink="http://www.w3.org/1999/xlink" width="1920" height="1080" viewBox="0 0 1920 1080">
  <defs>
    <clipPath id="clip-path">
      <rect id="Rectangle_42" data-name="Rectangle 42" width="583.982" height="637.046" fill="none"/>
    </clipPath>
    <clipPath id="clip-_1.1_CDA_-_Homepage_Side_menu">
      <rect width="1920" height="1080"/>
    </clipPath>
  </defs>
  <g id="_1.1_CDA_-_Homepage_Side_menu" data-name="1.1 CDA - Homepage – Side menu" clip-path="url(#clip-_1.1_CDA_-_Homepage_Side_menu)">
    <rect width="1920" height="1080" fill="#fff"/>
    <g id="Component_63_2" data-name="Component 63 – 2" transform="translate(-1 -1)">
      <g id="Rectangle_82" data-name="Rectangle 82" fill="#fff" stroke="#ebebeb" stroke-width="1">
        <rect width="1922" height="125" stroke="none"/>
        <rect x="0.5" y="0.5" width="1921" height="124" fill="none"/>
      </g>
      <line id="Line_14" data-name="Line 14" x2="30.5" transform="translate(1739.5 53)" fill="none" stroke="#000" stroke-width="3"/>
      <line id="Line_15" data-name="Line 15" x2="18.838" transform="translate(1750.662 63.103)" fill="none" stroke="#000" stroke-width="3"/>
      <line id="Line_16" data-name="Line 16" x2="26.912" transform="translate(1742.588 73.204)" fill="none" stroke="#000" stroke-width="3"/>
      <g id="Group_1" data-name="Group 1" transform="translate(156 40)">
        <path id="Path_1" data-name="Path 1" d="M55.731,49.982c-5.324-1.8-9.579-5.859-9.721-12.449-.17-7.826,5.164-13.845,12.406-14A13.053,13.053,0,0,1,68.2,27.477l.892,1.044,6.529-6.645L74.86,21a22.139,22.139,0,0,0-16.644-6.692,24.2,24.2,0,0,0-3.79.379,16.2,16.2,0,0,0-13.154,12.6c-1.948,9.914,3.8,20.989,14.461,22.7Z" transform="translate(-34.939 -14.301)"/>
        <path id="Path_2" data-name="Path 2" d="M44.46,59.781,43.59,60.9a13.571,13.571,0,0,1-10.337,4.665,12.662,12.662,0,0,1-3.269-.438C15.64,62.511,10.651,41.861,21.23,32.348a.058.058,0,0,0-.067-.093A22.628,22.628,0,0,0,10.72,51.837c0,13.085,9.687,22.952,22.533,22.952a22.268,22.268,0,0,0,17.12-7.618l.681-.882-6.6-6.509Z" transform="translate(-10.72 -28.704)"/>
      </g>
      <path id="Path_3" data-name="Path 3" d="M263.828,24.486h-5.389V51.137h5.389c6.189,0,12.455-4.576,12.455-13.324a14.71,14.71,0,0,0-2.189-7.808c4.868,5.439,6.588,19.906-8.005,27.644-3.309,1.753-6.8,3.153-10.54,3.153H248.4V14.82h15.3c13.182,0,22.746,9.671,22.746,23S276.883,60.8,263.7,60.8h-2.527c16.459-5.316,19.335-17.767,16.923-25.759a14.751,14.751,0,0,0-9.782-10.029,13,13,0,0,0-4.487-.529Z" transform="translate(-45.478 25.282)"/>
      <path id="Path_4" data-name="Path 4" d="M461.823,15.21,443.56,61.115h10.522L458.035,51.1l17.294-.259,3.788,10.272h10.522L478.418,33.27s-.239,12.619-18.879,12.708L466.6,27.171S476,41.917,462.376,44.9c0,0,14.686-1.342,15.039-12.579L471.37,15.21h-9.547Z" transform="translate(-202.562 24.97)"/>
      <g id="Component_58_1" data-name="Component 58 – 1" transform="translate(414 53)">
        <path id="Path_7034" data-name="Path 7034" d="M925.675,5015.707s32.571-2.013,73.094-4.953c9.834-.713,20.387-1.5,31.034-2.328" transform="matrix(0.998, 0.07, -0.07, 0.998, -572.732, -5049.297)" fill="none" stroke="#3cbeeb" stroke-width="6" opacity="0"/>
        <text id="eCommerce" transform="translate(0 17)" font-size="18" font-family="Inter" font-weight="600"><tspan x="0" y="0">eCommerce</tspan></text>
      </g>
      <g id="Component_59_1" data-name="Component 59 – 1" transform="translate(559 53)">
        <path id="Path_7035" data-name="Path 7035" d="M925.675,5015.707s32.571-2.013,73.094-4.953c9.834-.713,103.525-7.314,114.172-8.142" transform="matrix(0.998, 0.07, -0.07, 0.998, -573.542, -5049.297)" fill="none" stroke="#3cbeeb" stroke-width="6" opacity="0"/>
        <text id="B2B_Lead_Generation" data-name="B2B Lead Generation" transform="translate(3.19 17)" font-size="18" font-family="Inter" font-weight="600"><tspan x="0" y="0">B2B Lead Generation</tspan></text>
      </g>
      <g id="Component_60_1" data-name="Component 60 – 1" transform="translate(786 53)">
        <path id="Path_7036" data-name="Path 7036" d="M925.675,5015.707s32.571-2.013,73.094-4.953c9.834-.713,115.872-7.278,126.52-8.105" transform="matrix(0.998, 0.07, -0.07, 0.998, -573.542, -5049.297)" fill="none" stroke="#3cbeeb" stroke-width="6" opacity="0"/>
        <text id="Software_Development" data-name="Software Development" transform="translate(0 17)" font-size="18" font-family="Inter" font-weight="600"><tspan x="0" y="0">Software Development</tspan></text>
      </g>
      <g id="Component_61_1" data-name="Component 61 – 1" transform="translate(1025 53)">
        <path id="Path_7037" data-name="Path 7037" d="M925.675,5015.341s32.322-1.943,72.536-4.78c9.759-.688,67.562-4.515,78.127-5.313" transform="matrix(0.998, 0.07, -0.07, 0.998, -573.567, -5048.932)" fill="none" stroke="#3cbeeb" stroke-width="6" opacity="0"/>
        <text id="Booking_Systems" data-name="Booking Systems" transform="translate(0 17)" font-size="18" font-family="Inter" font-weight="600"><tspan x="0" y="0">Booking Systems</tspan></text>
      </g>
      <g id="Component_62_1" data-name="Component 62 – 1" transform="translate(1405 53)">
        <path id="Path_7038" data-name="Path 7038" d="M925.675,5015.707s32.571-2.013,73.094-4.953c9.834-.713,66.8-4.588,77.445-5.416" transform="matrix(0.998, 0.07, -0.07, 0.998, -573.542, -5049.297)" fill="none" stroke="#3cbeeb" stroke-width="6" opacity="0"/>
        <text id="Outsourced_CMO" data-name="Outsourced CMO" transform="translate(0 17)" font-size="18" font-family="Inter" font-weight="600"><tspan x="0" y="0">Outsourced CMO</tspan></text>
      </g>
      <g id="Component_64_1" data-name="Component 64 – 1" transform="translate(1215 53)">
        <path id="Path_7039" data-name="Path 7039" d="M925.675,5015.341s32.322-1.943,72.536-4.78c9.759-.688,67.562-4.515,78.127-5.313" transform="matrix(0.998, 0.07, -0.07, 0.998, -573.568, -5048.932)" fill="none" stroke="#3cbeeb" stroke-width="6" opacity="0"/>
        <text id="Digital_Marketing" data-name="Digital Marketing" transform="translate(1 17)" font-size="18" font-family="Inter" font-weight="600"><tspan x="0" y="0">Digital Marketing</tspan></text>
      </g>
      <g id="Component_109_13" data-name="Component 109 – 13" transform="translate(1595 53)">
        <path id="Path_7038-2" data-name="Path 7038" d="M925.675,5015.707s9.657-.448,11.141-.621c9.834-.713-4.071.367,6.576-.46" transform="matrix(0.998, 0.07, -0.07, 0.998, -573.541, -5049.297)" fill="none" stroke="#3cbeeb" stroke-width="6" opacity="0"/>
        <text id="AI" transform="translate(0 17)" font-size="18" font-family="Inter" font-weight="600"><tspan x="0" y="0">AI</tspan></text>
      </g>
    </g>
    <g id="Group_9034" data-name="Group 9034">
      <path id="Path_318" data-name="Path 318" d="M844.337,5032.373s263.2-19.238,613.863-43.828" transform="matrix(0.998, 0.07, -0.07, 0.998, -335.734, -4533.227)" fill="none" stroke="#3cbeeb" stroke-width="11"/>
      <text id="Lorem_ipsum_odor_amet_consectetuer_adipiscing_elit._Nisl_dolor_enim_primis_vivamus_integer_facilisis_quis_efficitur_Rutrum_eros_nullam_ante_conubia." data-name="Lorem ipsum odor amet, consectetuer adipiscing elit. Nisl dolor enim primis vivamus integer facilisis quis efficitur? Rutrum eros nullam ante conubia." transform="translate(155 600)" font-size="18" font-family="Inter"><tspan x="0" y="17">Lorem ipsum odor amet, consectetuer adipiscing elit. Nisl dolor enim primis vivamus integer </tspan><tspan x="0" y="47">facilisis quis efficitur? Rutrum eros nullam ante conubia.</tspan></text>
      <g id="Component_105_3" data-name="Component 105 – 3" transform="translate(155 701)">
        <g id="Path_130" data-name="Path 130">
          <path d="M 230.4352264404297 49.5 L 0.5000173449516296 49.5 L 0.5000173449516296 0.5 L 230.4352264404297 0.5 L 230.4352264404297 49.5 Z" stroke="none"/>
          <path d="M 0.9999847412109375 1 L 0.9999847412109375 49 L 229.9351959228516 49 L 229.9351959228516 1 L 0.9999847412109375 1 M -1.52587890625e-05 0 L 230.9351959228516 0 L 230.9351959228516 50 L -1.52587890625e-05 50 L -1.52587890625e-05 0 Z" stroke="none" fill="#000"/>
        </g>
        <text id="Start_a_project" data-name="Start a project" transform="translate(46 32)" fill="#fff" font-size="18" font-family="Poppins-Bold, Poppins" font-weight="700"><tspan x="0" y="0">Start A Project</tspan></text>
        <g id="Group_8861" data-name="Group 8861" transform="translate(-155 -701)">
          <line id="Line_17" data-name="Line 17" y2="46" transform="translate(390 708.5)" fill="none" stroke="#000" stroke-width="1"/>
          <line id="Line_18" data-name="Line 18" x2="230" transform="translate(160 754.5)" fill="none" stroke="#000" stroke-width="1"/>
        </g>
      </g>
      <g id="Component_6_3" data-name="Component 6 – 3" transform="translate(1181.018 265)">
        <g id="Group_287" data-name="Group 287" clip-path="url(#clip-path)">
          <path id="Path_223" data-name="Path 223" d="M581.439,577.359c-4.192-19.014-9.374-30.756-17.337-48.423-9.681-21.48-13.182-35.384-33.721-49.448-17.274-11.827-32.852-20.452-54.665-15.952-9.477,1.955-21.615,10.035-31.075,10.831a12.7,12.7,0,0,1-4.856-.342c7.924-5.365,11.878-14.321,18.033-21.295a123.151,123.151,0,0,1,10.653-10.622c4.81-3.943,11.017-5.214,14.453-10.444a76.749,76.749,0,0,1,1.22-7.885l-.513.278.927-1.937c.1-.364.205-.727.319-1.087a63.247,63.247,0,0,1,3.2-7.407c1.146-2.471,2.3-4.939,3.421-7.423a129.889,129.889,0,0,0,6.125-15.752,50.813,50.813,0,0,0,2.491-15.961A29.261,29.261,0,0,0,496.52,361c-.579-.48-1.081-.861-1.2-1.2a2.669,2.669,0,0,1-.113-.485.651.651,0,0,1-.081-.243c-.512-4.157-.691-8.358-1.273-12.508-2.519-7.79-7.112-17.69-10.984-25.174-7.416-11.272-16.332-21.54-23.491-33a108.73,108.73,0,0,1-6.424-12.638c-.966-2.119-1.9-4.255-2.836-6.386-5.105-9.01-10.274-17.986-17-25.986a39.273,39.273,0,0,0-3.976-3.432c-1.764-1.31-5.15-3.729-7.333-1.934-1.3,1.069-1.691,3.056-1.908,4.628a21.508,21.508,0,0,0,.293,6.779c1.52,6.989,5.115,14.2,5.887,20.391.031.253.056.506.081.76.6,2.437,1.161,4.882,1.563,7.361a22.212,22.212,0,0,1,.411,5.359,4.654,4.654,0,0,1-.747,2.276c.049.172.093.343.147.515-.2.009-.392.019-.587.03a5.209,5.209,0,0,1-.7.621c-2.454,1.8-5.62.881-8.165-.418a11.979,11.979,0,0,1-7.01-3.429c-4.145-3.983-8.613-11.04-12.843-17.562a170.954,170.954,0,0,0-11.773-15.016,48.707,48.707,0,0,0-6.983-6.629,16.02,16.02,0,0,0-3.771-2.209,6.9,6.9,0,0,0-3.559.51,5.785,5.785,0,0,0-3.051,2.643,10.916,10.916,0,0,0,.24,5.209,54.007,54.007,0,0,0,1.764,5.989c1.329,2.7,2.793,5.186,3.427,6.877,4.541,12.094,6.7,26.149,12.272,38.016a44.524,44.524,0,0,0,2.651,4.739q.54.709,1.106,1.412a78.085,78.085,0,0,1,4.886,6.394,16.9,16.9,0,0,1,2.27,4.758c.056.1.115.2.17.3l-.09.042c.019.079.034.159.051.238a.521.521,0,0,1,.533.589,37.365,37.365,0,0,1-.616,4c-.205,1.048-.4,2.1-.51,3.144l.628-.273a11.578,11.578,0,0,0-.682,2.8,9.266,9.266,0,0,0,.665,2.869,17.217,17.217,0,0,0,3.922,5.745c1.235,1.232,2.562,2.367,3.852,3.541,1.584,1.127,3.162,2.233,4.507,3.407,2.562,2.235,4.812,5.271,7.421,7.407,5.025,4.116,11.049,7.223,16.273,11.3a30.821,30.821,0,0,1,3.909,1.743,6.187,6.187,0,0,1,3.178,3.674c.44,1.763-.371,3.759-1,5.378a61.339,61.339,0,0,0-2.346,6.243c-.03.115-.053.229-.079.344a58.548,58.548,0,0,0,.27,6.08c.678,3.338,1.678,6.609,2.439,9.927a34.284,34.284,0,0,1,.89,5.318,10.058,10.058,0,0,1-.032,1.937l0,.017-.013.042a5.293,5.293,0,0,1-.475,1.628,7.915,7.915,0,0,1-3.794,3.251c-1.755.882-3.618,1.517-5.412,2.308a22.159,22.159,0,0,0-5.641,3.558c-1.892,1.654-3.58,3.523-5.538,5.106a.633.633,0,0,1-.973-.125A85.594,85.594,0,0,1,414.18,411c-3.1-5.806-6.03-11.762-9.935-17.087-3.555-4.848-8.167-9.249-14.229-10.521a.526.526,0,0,1-.429-.632c-.791-.76-1.6-1.495-2.457-2.185-8.59-6.954-19.379-9.792-29.858-12.516-11.619-3.021-23.676-3.068-35.519-4.588a48.839,48.839,0,0,1-5.173-.724,2.5,2.5,0,0,1-2.056-1.665,8.861,8.861,0,0,1,.413-4.022c.629-2.768,1.444-5.484,1.857-8.3.7-4.789.115-10.215-2.458-14.411a8.567,8.567,0,0,0-4.1-3.7,7.153,7.153,0,0,0-5.519.412,15,15,0,0,0-3.384,2.175,44.687,44.687,0,0,0-5.709,7.834q-.5,1.048-.934,2.111a63.38,63.38,0,0,1-2.987,7.086,15.1,15.1,0,0,1-2.107,3.028c-.019.048-.041.1-.059.147l-.127.038a8.029,8.029,0,0,1-.772.684.589.589,0,0,1-.584.714.563.563,0,0,1-.329-.1,7.427,7.427,0,0,1-.882.422.489.489,0,0,1-.51-.063l-.234.092c-1.5.589-3.033,1.073-4.572,1.537-3.834,1.156-7.716,2.148-11.594,3.14-3.166.809-6.357,1.56-9.487,2.5-2.342.7-4.673,1.439-7.02,2.126-3.257.953-6.553,1.8-9.787,2.829a31.394,31.394,0,0,1-4.9,1.442l-3.154.954c-1.243-.011-1.783-1.488-2.006-3.387a9.207,9.207,0,0,1-.667-1.507c-1.089-3.161-.321-6.486-.7-9.73a23.693,23.693,0,0,0-1.222-4.574,38.688,38.688,0,0,0-1.621-4.165,18.3,18.3,0,0,0-4.979-6.728,15.469,15.469,0,0,0-6.642-3.385c-4.142-.779-7.287,1.963-8.993,5.5-2.449,5.075-2.7,11.262-1.677,16.722a34.913,34.913,0,0,0,3.579,10.065c.745,1.18,1.5,2.374,2.228,3.615q.95,1.352,2.022,2.615a.634.634,0,0,1-.126.973c-3.052,2.3-6.87,3.509-10.492,4.576-2.793.823-5.627,1.518-8.424,2.334l-7.8,2.882c-.188.081-.374.162-.563.241-1.916.8-3.857,1.537-5.81,2.238-1.585.568-3.178,1.108-4.775,1.641l-22.343,8.257a59.644,59.644,0,0,0-8.352,4.844c-4.967,3.484-3.734,10.392-2.409,15.434.82,3.122,1.9,6.168,3,9.2.6,1.668,1.223,3.338,1.769,5.03.136.115.27.23.392.343,1.361,1.256,3.859,7.284,5.312,9.517,2.121,3.263,4.734,6.284,6.969,9.464-11.879-2.2-29.713-6.466-37.663-16.165-8.043-9.814-12.361-21.183-22.6-30.264-3.071-2.722-8.7-7.611-12.583-4.5-.1-3.45-.131-7.058,1.067-10.333.144-2.167.844-4.346.441-6.5-.354-1.892-1.228-3.618-1.741-5.462a5.787,5.787,0,0,1-.216-2.4c-.05-.074-.1-.146-.154-.221,1.547-4.162,5.725-5.823,8.35-8.273a113.519,113.519,0,0,0,15.391-17.407c2.584-3.714,4.973-7.568,7.258-11.486,1.069-1.833,2.172-3.665,3.166-5.541a16.487,16.487,0,0,0,1.67-4.474,7.6,7.6,0,0,1-.27-4.146,13.821,13.821,0,0,1,.668-1.8c.025-.167.05-.334.084-.5a41.616,41.616,0,0,1,2.331-6.424,227.744,227.744,0,0,0,8.708-27.308,59.433,59.433,0,0,0,1.409-7.076,43.96,43.96,0,0,1,.374-7.153c0-.086,0-.172,0-.258a46.807,46.807,0,0,0-.507-6.954,14.9,14.9,0,0,0-1.567-5.188c-.63-1.076-1.525-1.806-2.722-1.5-1.99.5-3.569,2.534-4.761,4.065a49.75,49.75,0,0,0-4.442,7.271c-1.5,2.817-2.97,5.658-4.615,8.4-2.069,3.445-4.645,7.294-8.083,9.688v.018l-.069.029a13.049,13.049,0,0,1-3.619,1.776c-2.76,1.41-4.372,1.769-5.62-3.627-2.409-10.412,1.086-24.46,4.894-35.693a19.2,19.2,0,0,1,1.082-4.59,30.521,30.521,0,0,0,1.229-4.291,22.372,22.372,0,0,0,.206-4.782,42.942,42.942,0,0,0-1.655-9.174c-.821-2.972-1.416-6.481-2.959-9.316-1.453-.787-2.606-.7-4.7.767-6.339,4.435-9.494,17.2-12.663,24.082-6.344,13.78-20.426,30.915-29.568,43.281-3.94,5.328-7.37,10.924-11.686,15.933q-1.378,1.818-2.755,3.637a77.389,77.389,0,0,0-7.647,12.036c-1.5,4.388-2.7,8.955-4.455,13.188a65.589,65.589,0,0,1-2.634,8.969c-.427,4.5-1.717,9.514-1.8,13.918-.058,2.991,1.488,6.655,1.313,8.378-.19,1.857-3.225,4.666-3.995,6.331-3.117,6.745,3.406,18.893,6.961,24.905,1.48,2.5,3.632,4.634,5.031,7.219,5.051,9.337,6.709,24.641,19.657,25.795.429,4.279,2.388,9.694,2.413,13.89.013,2.283-1.507,4.071-.332,6.23,1.823,3.352,7.876,4.549,11.238,5.577.473.145,1.418-.25.938.968-1.24,3.147-6.054,7.46-6.891,11.312-11.753,2.846-31.846-.929-41.636,7.08a1.578,1.578,0,0,0-.476,1.277c-.245.153-1.959-2.24-4.507-.97-2.653,1.323-10.277,22.318-11.164,26.231-2.113,9.318-6.508,43-2.254,50.4.5.868,1.78.972,1.862,1.483.437,2.695-3.637,15.889-3.9,20.537C-1.059,592.6,9.812,614.919,21.736,630.3c2.862,3.691,2.022,3.033,4.013,6.947,1.108,2.179,3.954,4.889,4.453,7.152,1.727,7.821.677,18.259,2.2,26.816,2.61,14.694,14.465,34.125,26.331,43.3,2.927,2.263,6.106,3.858,7.7-.706.653-1.868.829-8.774.729-10.946-.54-11.765-5.955-32.138-11.774-42.384-2.38-4.191-5.865-5.573-3.08-10.772,5.57,5.2,16.881,12.4,24.481,13.278,2.775.321,9.647-.48,9.63-3.936-.006-1.234-6.945-9.888-8.348-11.583-5.94-7.175-13.2-13.322-17.916-21.463,1.887-15.928,8.358-32.261,4.587-48.377-.943-4.03-9.917-24.589-7.932-26.566,3-.5,5.687,1.3,8.606,1.242,5.338-.1,11.311-2.683,16.547-3.545,9.363,17.122,24.665,29.468,37.36,43.915l3.919,1.315c7.777-2.069-1.61-18.67-3.78-22.725-4.055-7.577-11.575-17.908-13.99-25.987-.214-.717-.618-1.893-.225-2.512,7.531-3.63,15.777-6.278,23.265-9.938,3.521-1.721,25.935-15.1,27.538-13.952,1.2,3.738,3.393,7.01,5.6,10.2,4.455,6.437,23.23,31.2,28.4,34.778,3.643,2.52,11.336,5.045,8.746-2.3-1.535-4.357-6.364-10.272-8.641-14.566-6.03-11.373-10.12-23.514-15.36-35.243,6.012,1.026,12.155,1.19,18.185,2.118,12.519,1.926,24.257,4.9,37.015,6.181,30.9,3.116,64.241,3.776,95.315,3.973,19.068.121,39.935-4.02,58.59-3.2,6.07.268,6.7,4.058,10.423,7.041,4.047,3.247,8.293,3.729,12.573,5.479,20.745,8.481,41.823,16.123,62.656,24.382l6.329.447c-1.68,3.384-2.481,7.154-3.859,10.641-2.828,7.156-8.595,15.6-9.033,23.218-.281,4.871,1.865,9.486,2.5,14.241,1.473,11.01,1.795,23.582,5.039,34.289.706,2.329,3.7,7.186,3.876,8.911.317,3.051-1.243,17.478-1.927,21.018-3.038,15.735-11.785,30.016-10.132,46.592.066.659.55,3.559.973,3.563a10.229,10.229,0,0,0,6.641-4.965c2.693-4.194,4.565-9.746,7.1-14.175,11.137-19.457,21.895-25.973,18.109-51.412-.387-2.6-1.8-4.33-3.009-6.508,6.511-6.385,8.192-15.822,9.427-24.576,2.4-17.04.617-30.2.086-46.972-.125-3.954.445-8.455-.17-12.736-.771-5.373-5.126-11.818-5.508-17.115-.128-1.772.755-3.094.415-4.819-.272-1.382-6.847-10.411-6.345-10.784,10.371.443,20.111-3.972,30.3-5.158-1.872,2.9-2.4,6.354-3.752,9.458-2.315,5.331-6.254,11.037-8.161,16.337-6.121,17.017-3.524,56.966-1.619,75.733.325,3.2,3.433,9.629,3.228,11.595-.066.635-5.405,8.9-6.367,11.069-5.447,12.313-7.236,25.89-10.063,38.935-1.55,7.154-8.28,19.726.009,23.866,3.36.361,4.248-6.639,5.332-8.854,6.225-12.717,15.334-23.488,21.3-36.724,1.769-3.925,7.571-16.809,8.209-20.19.363-1.92-.359-3.109-.2-4.127.439-2.862,4.725-9.636,5.547-15.641,2.1-15.349,1.092-35.514.089-50.864-.564-8.645,3-17.515,3.864-26.1l5.031,12.044c4.3,7.292,10.308,13.547,14.708,20.752,1.762,2.885,2.42,5.81,4.646,8.286-1.581,9.294-5.372,18.459-4.409,28.214l-.577,2.655,2.939,33.634c2.258,3.2,4.737-.487,5.945-2.835,2.352-4.567,2.7-10.241,4.295-15.047,3.867-11.671,9.5-22.552,12.643-35.067,2.189-8.722.256-12.907-1.57-21.188M495.222,368.611c2.092,5.369-1.013,8.749-2.385,13.405-3.7,12.55-8.612,20.363-12.748,31.738-.852,2.342-.628,4.658-1.942,6.419-4.3-1.217-6.946-4.5-10.3-6.452-5.374-3.123-11.276-5.4-16.28-9.18-3.406-9.94-8.523-19.169-7.267-30.127,5.111,5.727,10.681,11.16,18.966,10.94Zm-104.43-79.632c-3.41-9.4-8.5-30.054-13.27-37.018-.31-.453-5.307-4.911-3.18-5.2.861.086,2.029-.278,2.764.142.31.177,3.526,4.806,4.316,5.671,8.971,9.822,24.084,36.854,36.264,39.164,4.061.771,6.659-.725,10.486-1.14-.249,3.607,1.941,4.84.33,8.386-2.01,4.426-10.365,10.075-14.7,12.384-.96.511-7.44,3.489-7.87,3.491-7.372.027-13.163-20.428-15.141-25.88m42.549,65.765-27.4-20.954c-.76-1.669-.212-10.577.427-12.452.619-1.817,5.336-2.847,6.974-3.657.343.416-1.868,4.69,0,5.152.09-1.033,2.33-7.06,3.876-5.792l-.678,2.861.671,5.509c1.81-4.647.238-10.818,5.81-12.883-.908,2.156-.843,5.061-.647,7.412.063.75.2,2.887,1.284,2.892.538-2.287,1.518-4.491,1.873-6.834.571-3.768-1.411-6.5,2.974-8.63.483,2.645.339,5.412.976,8.057.235.974-.455,1.134,1.271.966l2.593-17.4c.879-.16.979,1.154,1.11,1.774.72,3.418.644,7.1,2.115,10.469,2.123-1.308,1.384-6.2,1.1-8.521-.718-5.912-4.566-12.364-5.47-17.74-2.143-12.74-4.112-23.541-6.929-36.267-.386-1.743-1.212-4.1-.641-5.806,2.083,1.943,2.978,4.766,4.575,7.03,3.426,4.855,7.948,9.015,11.24,13.9,2.893,4.3,4.58,9.186,7.2,13.428,12.166,19.672,38.265,53.465,41.126,75.568.2,1.534.756,10.567.325,11.272l-25,18.871c-1.749.95-3.585-.208-5.2-.916Zm10.121,53.922c12.968,2.723,25.094,8.416,33.068,19.254a76.145,76.145,0,0,1-19.478-3.4c-4.178-1.32-7.418-3.97-11.468-4.966l5.092,4.929-1.221,4.732c2.155.3,2.116-2.774,3.209-3.589l1.943.374-4.5,9.021a14.646,14.646,0,0,0,5.824-7.714l2.539.945c-3.974,4.957-8.284,10-10.942,15.795l11.605-15.178c1.275-.8,2.995.36,3.865,1.338.353,1.563-15.188,16.428-15.47,20.287a119.6,119.6,0,0,0,16.729-19.677c.926.063,5.129.557,4.535,1.939-4.522,4.814-10.992,8.856-15.464,13.552-8.38,8.8-12.188,18.861-23.256,26.387-5.833,3.967-15.035,4.545-21.885,6.484-6.979,1.975-13.606,4.946-20.622,6.769l18.048-15.461c-1.349-1.019-7.612,3.908-8.959,4.9-4.772,3.5-10.427,10.072-14.918,12.805-2.185,1.331-5.007,2.664-7.474,4.1-9.726,5.67-34.454,8.892-38.633-5.017-2.141-7.128.742-9.182,3.973-14.14.358-.55,1.586-1.433.574-2.006-2.312,2.444-3.748,1.1-5.9,4.418a16.772,16.772,0,0,0-1.134,16.147c1.548,3.159,4.948,4.561,6.056,7.8-9.313-3.478-16.978-8.9-16.672-19.876,3.977-2.636,7.048-6.459,10.931-9.4,4.362-3.306,7.886-6.488,13.657-5.384,11,2.1,25.575,11.564,37.233,7.917,5.609-1.756,12.7-6.1,17.091-9.986,17.635-15.624,23.271-39.6,42.026-54.091M299.372,355.54l6.958-17.228c2.455-1.722.209,10.314-.048,11.241a21.4,21.4,0,0,1-6.085,10.02c-1.367-.985-1.118-2.581-.825-4.033m-83.607-14c5.642.024,7.036,17.186,4.8,19.332-1,.96-1.108-.323-1.436-.828-1.66-2.569-7.393-17.375-3.362-18.5M105.168,297.7c1.442-.09,3.178.335,4.517-.32.431-.211,5.811-6.275,6.44-7.1,4.867-6.374,8.08-14.571,12.379-21.147,1.986-3.038,3.973-5.07,3.784.525-.408,12.078-3.815,28.629-7.6,40.148-.576,1.753-2.865,8.078-3.734,9.161-.822,1.024-.6.468-1.286.01-3.052-2.036-10.082-12.588-12.2-16.18-.525-.892-2.962-4.482-2.308-5.1M46.79,312.469c13.1-18.912,29.15-38.173,40.433-58.827,2.622-4.8,10.462-26.8,13.76-28.149,1.209-.5.944.742,1.139,1.408.6,2.058,3.032,9.7,3,11.09-.182,7.124-7.512,20.74-8.914,29.145a86.728,86.728,0,0,0-.734,17.364c.214,2.642,2.065,7.295,1.946,8.965-.131,1.848-2.306,4.737-1.272,7.451l2.564-3.863c-.087,2.085,2.233,4.652,2.459,6.256.322,2.289-1.82,5.923-1.158,8.564,2.44,0,2.482-3.434,2.582-5.154,2.8,1.9-.523,6.378,1.29,9.666,1.9-.343.93-4.717,1.286-5.15,5.771,1.082-.661,8.514,3.214,10.956l.655-6.443c.471-.568,2.576,1.322,2.576,1.608v9.349c2.269-1.295.67-5.122,1.609-7.088,9.283,6.872,3.707,13.889-1.084,21.475-9.378,14.845-18.1,17.005-29.546,27.834-2.246,2.124-3.67,5-5.57,6.679-3.748,3.319-16.158,7.026-20.885,5.6-1.239-.372-9.738-6.813-11.234-8.1-19.177-16.552-10.4-42.9,1.888-60.637M53.416,423.9c-7.073-1.262-11.392-17.3-14.77-23.266-3.188-5.632-11.79-14.708-11.454-21.3.159-3.137,2.641-7.271,2.546-10.725,1.864,1.442,5.14,3.075,6.777,4.5,2.2,1.909,4.362,4.082,6.561,6.015,6.239,5.486,8.047,9.078,17.921,8.883,5.611-.112,11.861-6.708,17.1-8.753,1.241-.485,4.65-1.617,5.5-.335a52.244,52.244,0,0,1-.389,6.739c-2.116,12.153-5.928,25.673-15.779,33.865-4.048,3.366-8.549,5.353-14.013,4.378m13.729,24.956-6.468-17.707c14.046-2.515,21.459-12.384,28.554-23.667l3.038-.831-.636,5.15c1.222-.11,1.077-2.948,2.263-3.219,4.876-1.115-1.292,12.609-.329,14.824L96.791,413.1c5.97,3.613-.183,12.484,0,18.048,1.178-.818,2.408-3.2,2.885-4.52.964-2.675,1.258-5.631,1.941-8.368,4.092,2.042,2.7,7.887.854,11.186-.686,1.229-2.657.751-1.515,2.369l13.236,6.422-10.913-7.472,2.851-7.992c11.3,14.817,20.8,27.264,38.851,34,8.942,3.338,28.676,8.415,37.842,8.573,6.772.116,12.682-2.007,19.5.5,3.516,1.292,17.962,11.276,19.245,14.322.515,1.222-1.558,5.411-2.388,6.643-3.16,4.691-10.324,9.077-16.009,6.87,5.616-9.356,1.9-25.856-10-27.724-2.38-.374.059,4.05-.326,4.52-5.526-2.167-13.312-4.382-18.679-.966-.056,2.127,16.99,1.462,18.885,1.733,1.205.369,6.446,7.946,6.767,9.37,1.162,5.15-5.686,12.341-10.57,13.018-24.171,3.35-39.356.064-61.675-8.489-16.481-6.315-21.326-10.545-34.238-21.532-8.413-7.158-15.912-10.707-26.189-14.751m13.2,11.958,1.326,1.278c1.046,2-3.2,3.948-4.872,3.217ZM71,465.316l5.5-7.087,1.95,1.287c-.53,3.778-3.767,5.647-7.448,5.8m-33.785,5.873c4.692-.479,8.841.848,13.464.564,5.65-.347,12.231-2.769,18.071-3.2,5.015-.369,18.534-.316,22.86,1.619,1.043.467,2.965,3.178,4.228,4.154,7.526,5.82,15.033,11.122,24.154,14.211.146,1.2-1.312.507-1.962.351-4.066-.975-7.993-3.06-12.217-3.577,1.193,1.465,3.869,2.339,5.629,3.068,5.938,2.461,12.293,3.858,18.232,6.274-.006.527-1.483.691-2.027.634-6.49-.671-13.795-3.9-20.542-4.174l17.4,5.788c-4.382,2.567-8.691-1.033-13.532-.63l7.086,3.211c-4.522.658-7.165,1.877-11.831,1.2-12.175-1.756-25.138-6.865-37.159-9.907-10.093-2.555-19.2-5.137-29.66-2.256l.959-1.936L27.157,490.46l.377-1.989c5.4-2.314,11.863-3.828,16.381-7.673L26.28,486.647l-1.05-2.6L39.4,477.574c-5.152.649-10.1,3.688-14.819,5.8l-.652-1.92L36.178,475a49.714,49.714,0,0,0-8.718,2.558c-1.874.634-4.96,3.4-5.462.347,3.711-4.154,9.79-6.158,15.216-6.712m59.566,33.464c-.665,1.656-3.767.957-5.146,1.932l-.646-3.873Zm-21.268,7.079-1.927.652-5.162-17.408,8.262,2.045,2.64,13.014c-.216,1.191-2.883,1.331-3.165,1.06-.4-.384-1.766-8.778-2.421-10.8-.382-1.181-.415-3.874-2.1-3.376Zm1.931-14.172c2.976-2.325,6.171,10.1,7.093,11.59l-3.868.656Zm4.522,2.237c-.454-1.73,1.592-.307,1.74-.121,1.369,1.729,3.355,6.552,3.406,8.834-1.449,1.716-4.023-8.378-5.145-8.713M47.05,533.887c-.069.37-4.722,5.833-5.061,5.571a16.159,16.159,0,0,0-4.821-9.061c-.622-.633-2.275-1.273-2.33-1.67-.117-.851.816-2.287.693-3.714-.159-1.846-2.72-5.29-3.415-7.6A54.954,54.954,0,0,1,30.385,506.9c-.1-2.243.079-8.275.743-10.2.885-2.567,9.052-2.842,11.533-3.3,1.747-.32,3.359-1.388,4.84-1.608,4.3-.639,8.968.253,13.111,1.315.5,7.927,4.454,15.167,6.433,22.755L46.438,530.086c-1.455,1.222.834,2.617.612,3.8M15.841,481.409c.322-.62,1.945-4.1,2.92-3.194,2.449,6.307,5.679,12.73,5.681,19.66,0,7.406-.553,11.977.939,19.824.368,1.936,2.4,5.644,2.25,7.159-.6,6.031-12.306,9.367-16.555,13.033l-4.548,4.787c-2.864-19.178.293-43.923,9.311-61.27m12,74.53c-1.809,11.824-1.172,26.464-1.979,38.637-.534,8.047-1.594,16.118-1.934,24.183l-11.648-17.68c-.821-6.564-4.38-12.964-5.03-19.469-.987-9.867,1.444-16.6,2.417-25.793.639-6.038-1.907-11.112,4.367-14.974,2.455-1.511,6.271-2.019,8.832-3.418,1.546-.845,6.289-5.73,7.07-5.612,5.2,2.824,6.085,8.289,6.749,13.708-2.782,2.943-8.181,6.085-8.844,10.419M60.672,710.308a18.306,18.306,0,0,1-7.859-7.286c-4.694-7.532-15.428-32.613-16.988-41.035-.472-2.549.478-8.974,1.973-10.99.81-1.093,3.387.151,3.995.835,1.584,1.781,5.336,8.508,6.745,10.98,8.046,14.12,12.8,31.129,12.133,47.5m2.579-74.787-3.215-.97c9.472,5.469,14.635,14.577,21.273,22.883a21.013,21.013,0,0,1-6.911-.5c-3.576-1.059-8.964-5.32-11.86-7.482-1.035-.774-6.479-4.55-6.708-4.9a2.8,2.8,0,0,1-.307-1.944c.981-1,8.986,6,10.951,6.443.03-1.633-2.131-2.6-3.289-3.474a37.627,37.627,0,0,0-6.993-4.308l2.558-11.558Zm-.89-48.14c-.157,13.8-8.728,34.458-11.341,48.476l-5.489,14.477c-3.8-2.9-8.484-4.672-11.555-8.42-4.4-5.372-2.328-5.6-2.286-11.2.133-17.885,1.17-35.624,1.292-53.565.029-4.29-.623-7.885.261-12.58,1.82-9.665,10.517-18.417,19.048-22.532-.574,2.184,2.192,4.973,2.4,6.216.248,1.469-1,5.18-1.1,7.01-.667,12.731,8.9,20.825,8.767,32.118m58.27.431c-3.706-4.523-8.362-8.233-12.226-12.588a128.886,128.886,0,0,1-9.584-11.692c-3.2-4.864-5.308-12.289-11.063-15.057-.509-.738,2.481-1.876,3.74-1.141l9.479,12.752c-.017-4.843-4.838-9.263-8.049-12.568,4.1-4.133,7.313,4.474,10.941,6.125l.642-1.285Zm56.212-59.749a90.406,90.406,0,0,1,6.328,17.84l-14.163-15.162c-2.224-2.656-8.591-10.2-9.631-12.943-.424-1.117.233-.79.756-1.041.736-.353,4.914-2.383,5.2-2.34,1.819.274,5.858,5.154,7.132,6.753a28.959,28.959,0,0,1,4.382,6.894m-11.129-21.817c-8.99,9.183-13.4,10.033-24.458,16.115-11.542,6.35-23.064,13.386-35.474,18.038-12.776,4.789-26.2,4.931-39.525,7.5l-1.068-2.629L75.5,540.755,64.281,544.64l-1.025-1.946,11.606-5.807L62.93,542.023l-.961-1.91c4.369-1.831,9.494-3.739,12.893-7.094-3.387-.155-11.5,5.834-13.878,5.78-1-.022-2.818-1.471-1.942-2.584L69.7,529.8c-1.971.131-4.172,1.244-5.935,2.114-2.5,1.235-5.95,5.051-7.588,2.071l7.079-5.474c-3.3.511-6.14,2.417-8.709,4.4l-1.563-1.594.921-1.53c7.432-5.495,13.591-10.841,22.266-14.483,18.047-7.577,43.66-9.705,59.029-18.954a6.5,6.5,0,0,1,6.067-.723l-1.288,1.92,5.8-.634-1.924,3.22c2.811-1.727,5.114-2.623,8.373-1.282.567.757-5.739,3.25-4.5,4.505,3.489-1.276,6.367-4.514,10.309-3.862l-3.865,2.9c2.666,1.008,4.88-2.881,7.733-2.9l-8.381,6.434c5.864-1.041,9.922-7.717,16.118-7.079L154.81,509.8c1.387.012,2.654-.983,3.815-1.658,3.521-2.044,10.228-7.628,13.113-8.808,1-.41,2.784-.945,3.7-.169-2.505,3.093-7.048,4.351-9.723,7.084M473.622,553.68c-1.025.1-12.563-5.427-14.986-6.319-15.878-5.847-31.989-10.95-47.658-17.459-9.48-3.938-24.5-12.622-26.494-23.8-.455-2.551,1.716-7.061-1.129-7.3-7.98-.671,2.344,17.3,1.62,18.094a274.834,274.834,0,0,0-31.292-.668c-1.547.033-2.964.694-4.489.729-41.21.934-80.9.8-121.844-3.934-16.459-1.9-32.8-5.146-49.326-6.447l9.982-9.021,24.83,3.232-.649,1.924c1.284,1.356,11.85-.451,13.556-1.6,1.221-.82-.069-1.491-.975-1.627-2.677-.4-5.428.348-8.06.329,5.28-6.239,11.378-12.593,12.9-20.955,2.631,2.712,5.168,4.74,7.071,8.074,4.846,1.139.54-3.811-.945-5.5-3.253-3.711-7.767-6.323-10.64-10.636-4.18-1.813-14.274-13.317-18.23-12.474-1.091.233-1.963,1.48-2.721,1.568a44.55,44.55,0,0,1-6.517-1.6c-2.451-1.164-3.031-4.6-5.414-5.862l2.569,5.8-4.863.383-5.443-6.182,3.214,6.443-3.472.045c-.908-3.385-3.476-5.71-6.189-7.777l5.147,7.418c-.652,1.053-1.423-.224-1.934-.646-.6-.493-4.921-4.442-5.148-4.194l3.213,4.839c.636,2.041-7.95-5.346-8.058-6.127l-.638,1.285c-12.515-12.143-20.325-29.244-24.006-46.133l22.739-8.052c8.68,1.133,17.262,3.206,26.082,2.6l-5.665-1.74c-4.377-.792-8.88-.95-13.271-1.558-.81-.112-3.51-.265-3.623-1.2,4.072-.72,7.824-3.447,11.615-4.829,8.524-3.107,18.4-5.483,27.2-8.263,2.852-.9,9.074-3.906,11.3-4.2,1.763-.233,6.871,2.155,9.6,2.375,12.011.969,5.4-8.044,6.045-8.937L288.6,360.238c1.37,6.828.634,14.016,1.685,20.865.24,1.563.568,5.906,2.251,6.176a49.063,49.063,0,0,0,19.312-21.261c4.225.745,8.59,1.519,12.857,1.943,7.193.716,6.66.036,13.673,2.445,5.883,2.02,14.78,5.5,20.657,6.427.687.108,2.239.687,2.085-.475l-16.754-5.173c-.18-1.065,1.594-.716,2.273-.664,4.172.322,11.051,2.273,15.27,3.433,5.536,1.523,12.234,3.1,16.623,6.9-3.448-.876-7.1-2.812-10.651-3.212-1.375-.155-1.177.5-.316.968,5.725,3.08,13.965,2.818,19.782,6.007,6.343,3.477,12.979,8.062,16.326,14.621l-22.239-6.774H363.7l0,2.577c12.99.677,27.9,1.024,38.644,9.394,6.233,4.859,6.952,9.616,4.891,17.053-.988,3.565-3.362,6.05-4.523,9.016-3.115,7.956-3.867,25.953-11.757,30.15-3.649,1.941-14.466,4.931-18.534,4.663-7.547-.5-7.227-3.816-11.6-7.756-.736-.664-3.693-3.334-3.558-.959l3.861,5.484c-.441.323-5.618-.377-6.273-.813-.8-.535-3.078-5.546-5.013-6.269l2.26,5.792c-.493.356-6.344-.515-7.082-.971-1.354-.837-5.09-10.376-8.385-11.272l6.438,12.246c-5.991,1.426-7.489-3.581-11.6-6.443l5.15,7.727-4.2,1.865c-.789-.069-3.649-6.813-6.107-6.366-1.072,1.177,4.057,5.987,4.5,7.418-2.049,2.957-6.435-5.537-7.727-4.194l4.51,6.433-2.267,1.152-4.822-3.716,3.219,5.145c-7.118,1.315-11.035,13.851-7.37,19.306,2.217,3.3,4.813,3.6,7.331,5.564,2.848,2.217,5.2,5.232,8.764,6.725l-.817,1.616c0,.334.781,1.123,1.13,1.279,1.457.651,11.731.561,13.794.277,2.489-.343,4.669-2.062,7.2-2.47,3.436-.553,8.619.337,11.395-.18,3.728-.693,11.607-6.789,15.817-8.713,19.664-8.984,45.958-11.384,67.221-14.659,11.321-1.743,22.495-10.3,35.116-11.305,6.438-.511,13.177-.254,19.28,1.849,1.108.75.393,12.559-1.309,14.3-6.014-.257-12.037.809-18.017,1.268-8.271.635-16.927.372-25.179.69-13.868.535-27.377,4.988-41.2,6.377-3.611.362-24.126.279-24.8,1.327.242,4.822,6.148,3.893,9.674,4.782,24.482,6.169,51.8,9.028,72.776,23.288,6.24,4.242,9.96,11.73,14.86,17.351-2.225,3.646-6.643,4.9-9.354,7.384-1.667,1.526-4.951,7.662-6.425,7.8m2.6,142.458a54.514,54.514,0,0,1-6.132,9.656c-1.152-15.648,8.75-29.571,7.736-45.129l1.291,2.577c2.257-.593,1.3-9.667.628-10.312l-1.918,1.928-.649-3.216,3.939.371L483.3,665.82c1.025-.736,1.035-1.731,1-2.863-.059-1.8-1.747-11.542-1.314-11.959l1.928-.007c.11,4.782.447,10.941,2.395,15.322.359.808,1.419.758,1.5,1.231.583,3.418-10.222,24.251-12.581,28.593m16.1-152.8c1.62,1.271.777,3.488,1.047,5.388,3.462,24.339,7.383,44.092,3.707,68.982-.674,4.562-2.491,15.045-5.414,18.441-.44.512-10.65,7.157-11.285,7.412a3.108,3.108,0,0,1-1.909.34c-2.408-9.126-2.989-18.608-4.7-27.869-2.336-12.664-6.959-19.407-2.7-32.708,1.916-5.981,5.673-11.577,7.891-17.253,1.473-3.769,3.844-16.193,5.97-17.885,2.035-1.618,5.654-2.352,7.388-4.848m27.4-26.449c-6.823-2.428-12.4,1.23-18.523,2.431-1.671.327-3.388-.077-4.942.217-6.411,1.213-8.143,3.826-14.226-.087-2.55-1.641-4.57-4.37-7.28-5.614-13.729-6.3-31.086-11.066-45.926-14.034-6.917-1.384-13.843-1.647-20.633-3.547-.154-1.121,1.466-.608,2.245-.637,2.579-.1,5.5-.129,8.065,0l8.674-1.313c7.3,1.571,14.788,2.824,22.27,2.6.152-.913-1.141-.934-1.79-1.1-4.068-1.012-8.507-.978-12.633-1.557-.815-.115-3.51-.264-3.623-1.2,3.288.626,6.832-1.147,9.891-1.055,4.428.133,9.9,2.405,14.6,1.687-2.6-2.629-7.578-1.748-10.96-1.934-1.239-.909,5.978-1.9,6.744-1.953,13.7-1,53.5.167,66.113,3.569,1.471.4,4.4.885,4.541,2.58-1.706,6.815-4.447,13.85-2.613,20.951M525.383,641.5l-13.7,30.139-13.223,20.618c2.965-13.537,5.79-27.283,10.14-40.464.594-1.8,3.89-11.645,4.388-12.375a1.241,1.241,0,0,1,1.569-.659c1.428,4.322,7.875,1.338,10.969-.013Zm5.945-75.289c-1.6,15.891.955,33.867-.646,50.286-.268,2.735-1.789,15.722-4.795,16.193-6.75.017-8.149-1.826-9.837-7.995-4.126-15.075-4.689-37.145-4.085-52.7.567-14.58,6.9-27.678,10.669-41.552,2.592-9.544,2.962-17.734,7.929-26.886.326-.6.616-1.419,1.408-1.486l4.509,27.411c2.139,12.715-3.943,24.753-5.152,36.733m10.958-33.2c-1.06.173-.6-.87-.638-1.6-.528-9.78-.191-16.253-3.054-25.968-4.867-16.515-14.081-21.891-31.113-22.722.2-3.691,2.556-7.6,0-10.95,22.1,7.7,40.063,22.035,46.239,45.455-4.434,4.587-8.831,9.969-11.432,15.781m4.239,19.95c-5.629-8.017.5-18.486,5.283-25.582.587-.872,4.282-6.258,5.31-5.322l17.372,45.487c.583,4.666-.782,15.058-6.736,15.764-1.44.17-.739-.2-.971-.954-3.624-11.819-13.6-19.911-20.258-29.392m24.288,64.34c-2.493,6.793-4.51,13.873-6.606,20.8-.932.13-.986-1.755-1.1-2.432-1.6-9.569-1.116-20.993,0-30.586l4.326-10.17-1.921,12.246c2.446-2.073,3.62-6.412,4.315-9.539,1.116-5.025.07-8.656,4.385-12.378L572.6,599.418c1.108,1.523,3.8-8.86,3.868-10.011.247-3.873-2.875-5.986,1.276-8.685,5.042,13.556-2.46,24.386-6.934,36.576" transform="translate(0 -83.588)"/>
          <path id="Path_224" data-name="Path 224" d="M680.065,246.1a4.878,4.878,0,0,1,3.742-.148,12.507,12.507,0,0,1,2.157.923c-2.308-2.141-5-3.737-6.747-.161a3.892,3.892,0,0,1,.848-.614" transform="translate(-258.401 -93.053)" fill="#0071bc"/>
          <path id="Path_225" data-name="Path 225" d="M688.742,317.12a33.891,33.891,0,0,0-.513-4.529,39.439,39.439,0,0,0,.481,6.1,10.05,10.05,0,0,0,.032-1.571" transform="translate(-261.829 -118.92)" fill="#0071bc"/>
          <path id="Path_226" data-name="Path 226" d="M683.6,327.174c-.738.055-1.462.105-2.175.139a5.161,5.161,0,0,0,2.175-.139" transform="translate(-259.241 -124.468)" fill="#0071bc"/>
          <path id="Path_227" data-name="Path 227" d="M706.707,469.664c.43-1,.864-1.994,1.221-3.007a9.939,9.939,0,0,0-1.182,2.709c-.015.1-.024.2-.038.3" transform="translate(-268.859 -177.533)" fill="#0071bc"/>
          <path id="Path_228" data-name="Path 228" d="M707.936,458.362a5.18,5.18,0,0,0-2.552-2.721,32.293,32.293,0,0,1,2.552,2.721" transform="translate(-268.355 -173.342)" fill="#0071bc"/>
          <path id="Path_229" data-name="Path 229" d="M703.452,522.374a9.936,9.936,0,0,0,2.579-1.644Z" transform="translate(-267.62 -198.105)" fill="#0071bc"/>
          <path id="Path_230" data-name="Path 230" d="M676.931,666.423a109.471,109.471,0,0,0,24.3,3.12l-5.022-1.738c-6.9-.986-13.781-2.416-20.765-2.768-.289,1.759.419,1.1,1.484,1.387" transform="translate(-256.941 -253.004)"/>
          <path id="Path_231" data-name="Path 231" d="M340.015,459.965a35.686,35.686,0,0,0,2.228,3.615c-.729-1.24-1.483-2.435-2.228-3.615" transform="translate(-129.355 -174.987)" fill="#0071bc"/>
          <path id="Path_232" data-name="Path 232" d="M249.5,502.3l22.343-8.257c-2.527.843-5.062,1.663-7.588,2.5A123.833,123.833,0,0,0,249.5,502.3" transform="translate(-94.918 -187.953)" fill="#0071bc"/>
          <path id="Path_233" data-name="Path 233" d="M482.864,402.939a23.233,23.233,0,0,0-5.709,7.835,44.678,44.678,0,0,1,5.709-7.835" transform="translate(-181.528 -153.292)" fill="#0071bc"/>
          <path id="Path_234" data-name="Path 234" d="M380.648,458.928a4.443,4.443,0,0,1-3.635-2.5c.222,1.9.763,3.377,2.006,3.387l3.154-.954a7.318,7.318,0,0,1-1.525.072" transform="translate(-143.43 -173.64)"/>
          <path id="Path_235" data-name="Path 235" d="M303.552,485.626l7.8-2.882c-1.112.324-2.217.665-3.311,1.045-1.532.53-3,1.2-4.488,1.838" transform="translate(-115.483 -183.653)" fill="#0071bc"/>
          <path id="Path_236" data-name="Path 236" d="M604.159,293.178c1.232,3.279,2.5,6.546,3.617,9.868,1.094,3.261,1.921,6.6,2.875,9.906a61.657,61.657,0,0,0,3.46,9.584,29.312,29.312,0,0,0,3.2,5.094,44.592,44.592,0,0,1-2.652-4.74c-5.572-11.867-7.73-25.922-12.272-38.016-.635-1.691-2.1-4.181-3.427-6.878.08.233.158.467.239.7,1.682,4.822,3.167,9.7,4.964,14.483" transform="translate(-227.866 -105.759)"/>
          <path id="Path_237" data-name="Path 237" d="M602.331,254.553a6.563,6.563,0,0,0-2.287-.458,4.784,4.784,0,0,0-4.246,3.339c-.032.089-.05.182-.077.272a5.78,5.78,0,0,1,3.051-2.643,6.9,6.9,0,0,1,3.559-.51" transform="translate(-226.635 -96.666)"/>
          <path id="Path_238" data-name="Path 238" d="M661.421,313.677a41.441,41.441,0,0,1-8.8-7.273,98.265,98.265,0,0,1-8.415-11.029q-.725-1.02-1.455-2.038c4.23,6.522,8.7,13.578,12.842,17.561a11.975,11.975,0,0,0,7.01,3.429c-.411-.209-.809-.429-1.182-.649" transform="translate(-244.527 -111.595)"/>
          <path id="Path_239" data-name="Path 239" d="M683.121,284.541c.344,1.426.7,2.849,1.051,4.275-.025-.253-.05-.507-.082-.76-.772-6.195-4.366-13.4-5.887-20.389.12.654.254,1.3.4,1.944,1.172,5.079,3.3,9.873,4.516,14.93" transform="translate(-258.015 -101.83)"/>
          <path id="Path_240" data-name="Path 240" d="M220.4,315.035c.031-.258.074-.513.1-.773.2-2.12.286-4.252.276-6.381a43.893,43.893,0,0,0-.374,7.154" transform="translate(-83.833 -117.129)"/>
          <path id="Path_241" data-name="Path 241" d="M789.984,406.665a47.8,47.8,0,0,0-5.37-14.152c-1.618-2.984-3.385-5.868-5.243-8.691,3.872,7.484,8.465,17.384,10.984,25.174-.109-.779-.228-1.556-.371-2.331" transform="translate(-296.503 -146.02)"/>
          <path id="Path_242" data-name="Path 242" d="M780.6,548.34l.514-.278c.125-.556.261-1.109.414-1.659Z" transform="translate(-296.97 -207.872)"/>
          <path id="Path_243" data-name="Path 243" d="M641.052,394.166a11.566,11.566,0,0,1,.683-2.805l-.628.273a13.97,13.97,0,0,0-.055,2.532" transform="translate(-243.868 -148.888)"/>
          <path id="Path_245" data-name="Path 245" d="M392.636,645.821l-.964-3.22c1.662.7,7.71,7.956,9.349,6.44l-2.9-6.44c3.766,2.416,4.1,8.369,9.351,7.082.526-.385-4.6-5.712-3.548-7.082,1.678,1.7,6.544,9.762,9.351,7.727-1.455-2.324-3.768-4.512-4.893-7.029-.417-.932-.443-1.82.693-1.34,2.239.945,5.539,9.477,9.355,8.369-.378-1.03-1.631-1.193-2.574-2.252-1.183-1.329-2.976-3.654-3.219-5.477l7.293,7.021,2.359-1.541-5.79-7.408c1.21-.283,1.534.674,2.258,1.281,1.453,1.219,4.414,5.308,4.978,5.7,1.757,1.209,7.562-1.846,9.525-2.478-1.21-1.88-3.541-3.171-3.216-5.794,1.838,1.158,3.593,2.911,3.883,5.16l2.56-.653-2.575-6.442,6.4,8c-.394,1.652-15.193,8.562-17.676,9.423-6.74,2.336-14.091,1.791-20.934-.366-1.6-.5-16.237-7.886-17.023-8.614-.771-.713-.359-2.123-.916-3.092-1.4-2.444-4.354-5.122-4.339-7.923,4.1,4.79,6.665,9.4,13.214,10.956" transform="translate(-144.347 -241.526)"/>
          <path id="Path_246" data-name="Path 246" d="M423,509.294c-.978,1.035-5.652,2.06-7.226,2.13a85.186,85.186,0,0,1-14.062-1.457c-4.559-1.09-3.732-7.128.661-8.147,3.75.887,7.634.2,11.373.626,2.735.31,13.774,2.065,9.254,6.849" transform="translate(-151.666 -190.911)"/>
          <path id="Path_247" data-name="Path 247" d="M503.692,682.1h10.961l-11.85-3.946c-.73-.444-1.5-.939-.411-1.545,4.877-2.711,14.034,4.49,17.8,4.841,2.615.243,8.257-1.383,10.945-1.229,1.074.061,1.553.877,2.2,1.557a4.174,4.174,0,0,1-1.771,1.44c-3.03,1.19-16.662,2.084-20.487,2.126-1.774.019-7.45-.886-7.387-3.244" transform="translate(-190.923 -257.177)"/>
          <path id="Path_248" data-name="Path 248" d="M645.5,698.05c-.816.769-6.813-3.924-7.749-4.817-1.208-1.151-10.229-11.7-6.1-12.584.726-.156,7.717,9.553,9.321,10.652Z" transform="translate(-239.898 -258.944)"/>
          <path id="Path_249" data-name="Path 249" d="M664.154,688.1c-3.491.227-6.918-1.648-9.868-3.342-2.342-1.345-6.2-3.558-6.891-6.318,1.978-1.689,15.293,7.062,16.76,9.661" transform="translate(-246.294 -258.021)"/>
          <path id="Path_250" data-name="Path 250" d="M691.022,718.324l-.324,1.285c-1.969.2-16.422-4.517-17.968-5.763-.738-.6-.343-1.219-.4-1.978,6.693.269,12.8,3.583,18.692,6.456" transform="translate(-255.759 -270.821)"/>
          <path id="Path_251" data-name="Path 251" d="M520.4,674.576l-18.7-4.518,0-1.919c6.458-.33,14.311,1.4,18.7,6.438" transform="translate(-190.864 -254.169)"/>
          <path id="Path_252" data-name="Path 252" d="M704.2,714.606a35.18,35.18,0,0,1-11.725-3.419c-2.378-1.074-7.054-2.934-7.613-5.6.771-.754,18.29,6.272,19.338,9.016" transform="translate(-260.547 -268.411)"/>
          <path id="Path_253" data-name="Path 253" d="M315.51,679.624c-2.1-.235-5.142-1.7-7.413-1.944-.517-1.909,1.6-1.341,2.929-1.31a62.362,62.362,0,0,1,12.983,1.878c1.09.312,1.795-.486,1.5,1.375-3.2-.256-6.856.354-9.994,0" transform="translate(-117.182 -257.277)"/>
          <path id="Path_254" data-name="Path 254" d="M654.244,695.226c-.26.283-5.769-3.615-6.449-4.182-1.051-.877-8.568-8.477-7.725-9.354l12.892,11.277Z" transform="translate(-243.482 -259.34)"/>
          <path id="Path_255" data-name="Path 255" d="M383.652,685.771c1.023.129,4.3.815,4.2,2.25-3.291,1.345-7.572.867-11,.042-1.1-.266-3.729-.745-3.189-2.292,3.175.283,6.9-.39,9.993,0" transform="translate(-142.127 -260.845)"/>
          <path id="Path_256" data-name="Path 256" d="M344.562,684.08c-.185-.818,1.251-1.071,1.778-1.136,1.631-.2,13.019.712,13.034,2.111-4.282,2.653-10.162-.749-14.812-.975" transform="translate(-131.079 -259.807)"/>
          <path id="Path_257" data-name="Path 257" d="M548.739,481.36c-.432,1.14-3.845.733-4.856.662a36.662,36.662,0,0,1-8.675-1.672c-1.029-.416-1.581.078-1.289-1.574a44.324,44.324,0,0,1,14.821,2.584" transform="translate(-203.094 -182.144)"/>
          <path id="Path_258" data-name="Path 258" d="M377.484,670.4c-4.8.079-9.957.339-14.181-2.247.866-1.328,1.5-.728,2.555-.686,3.136.124,9.656.559,11.625,2.933" transform="translate(-138.215 -253.866)"/>
          <path id="Path_259" data-name="Path 259" d="M383.359,678.092l0,1.926-10.963-1.289c-1.068-.8.071-1.175.958-1.288,3.271-.416,6.778.277,10.008.651" transform="translate(-141.508 -257.675)"/>
          <path id="Path_260" data-name="Path 260" d="M592.2,480.962c.155,1.138-1.464.638-2.171.561a47.258,47.258,0,0,1-9.945-2.341c-.98-.39-1.748.379-1.412-1.451Z" transform="translate(-220.118 -181.746)"/>
          <path id="Path_261" data-name="Path 261" d="M376.243,661.441c-.566,2.17-7.722,1.523-7.722.315,1.977-1.939,5.382-.85,7.722-.315" transform="translate(-140.2 -251.335)"/>
          <path id="Path_262" data-name="Path 262" d="M109.856,327.832c1.769,2.3-11.028,25.57-16.109,26.43-.907-1.135,8.636-16.443,10.042-18.642s2.861-4.479,4.407-6.571c.535-.725-.009-1.6,1.66-1.217" transform="translate(-35.642 -124.683)"/>
          <path id="Path_263" data-name="Path 263" d="M117.472,342.4c2.11,2.445-8.471,17.283-12.24,18.048.642-3.724,3.478-7.653,5.653-10.78.565-.812,5.681-8.318,6.587-7.269" transform="translate(-40.034 -130.221)"/>
          <path id="Path_264" data-name="Path 264" d="M105.227,439.359l8.324-4.883c4.748-3.523,9.049-8.621,13.656-12.132.92-.7,2.258-2.309,3.149-.708-4.129,4.18-7.958,8.285-12.679,11.808-3.394,2.532-8.154,6.382-12.449,5.915" transform="translate(-40.032 -160.144)"/>
          <path id="Path_265" data-name="Path 265" d="M90.663,348.515l12.237-20.63c1.735,3-11.428,21.543-12.237,20.63" transform="translate(-34.492 -124.739)"/>
          <path id="Path_266" data-name="Path 266" d="M102.1,432.389l8.375-7.73c1.222,1.543-6.209,8.139-8.375,7.73" transform="translate(-38.843 -161.555)"/>
          <path id="Path_267" data-name="Path 267" d="M101.059,440.568c2.843-3.8,6.908-6.414,10.309-9.664.282,1.209-.672,1.534-1.281,2.258-2.144,2.549-5.831,6.508-9.028,7.406" transform="translate(-38.447 -163.931)"/>
          <path id="Path_268" data-name="Path 268" d="M135.232,557.954c8.249,3.545,16.47,8.187,23.144,14.239l-23.643-12.8-3.422,4.055,10.3,8.1-11.927-6.861-4.188,2.029,5.154,4.188c-2.243.178-8.813-6.344-10.312-2.892a25.85,25.85,0,0,1,4.435,2.655c1,.718,2.954,1.407,2.647,2.821-6.082-2.725-11.189-6.828-18.041-7.1-.177-.841,1.191-1.024,1.761-1.115,5.614-.885,10.779,2.493,16.241-1.178,6-4.032,6.464-12.071,10.041-17.682Z" transform="translate(-41.607 -207.875)"/>
          <path id="Path_269" data-name="Path 269" d="M297.227,633.28c-.242,1.171-1.268,1.2-2.232,1.305-5.281.592-15.806-.957-21.286-1.981-1.045-.2-1.123.442-.981-1.259,8.14-1.581,16.584-.058,24.5,1.935" transform="translate(-103.736 -239.937)"/>
          <path id="Path_270" data-name="Path 270" d="M284.363,646.005c-2.94-.255-10.285-1.511-12.959-2.514-.929-.348-1.842-.33-.572-1.364l17.293,2.051,7.521,1.826c-3.668-.229-7.657.315-11.283,0" transform="translate(-102.797 -244.289)"/>
          <path id="Path_271" data-name="Path 271" d="M279.614,651.8c-.2,1.255-3.215.632-4.1.555A120.614,120.614,0,0,1,262.54,650.5c-.921-.2-2,.032-2.263-1.274,6.245-1.3,13.153,1.323,19.337,2.578" transform="translate(-99.019 -246.854)"/>
          <path id="Path_272" data-name="Path 272" d="M736.376,439.683c-.708.709-5.748-4.677-6.461-5.46-1.939-2.126-9.207-11.42-9.54-13.7a1.681,1.681,0,0,1,.864-2.11c1.387-.3,5.718,5.642,6.641,6.886,1.012,1.364,9.093,13.786,8.5,14.383" transform="translate(-274.033 -159.176)"/>
          <path id="Path_273" data-name="Path 273" d="M725.515,440.594c-10.5-2.282-14.051-14.052-20-21.577-4.36-5.515-10.279-10.448-15.459-15.158,3.351.517,6.654,3.765,9.041,6.1,7.047,6.9,10.889,14.8,16.762,21.921,2.877,3.491,6.519,5.628,9.656,8.712" transform="translate(-262.524 -153.642)"/>
          <path id="Path_274" data-name="Path 274" d="M758.1,397.556l-12.888-18.69c1.218-.213,1.85.843,2.6,1.589,4.232,4.239,9.235,11.16,10.293,17.1" transform="translate(-283.506 -144.123)"/>
          <path id="Path_275" data-name="Path 275" d="M736.488,425.523c1.281,1.138,8.241,10.233,7.3,11.386-2.337-.41-9.858-11.166-9.013-12.249a6.211,6.211,0,0,1,1.716.863" transform="translate(-279.51 -161.556)"/>
          <path id="Path_276" data-name="Path 276" d="M630.171,626.544a102.133,102.133,0,0,1-16.112,13.532c-.352-1.427.824-1.437,1.474-2.066,2.072-2,4.979-4.463,7.24-6.3,2.217-1.8,4.764-4.079,7.4-5.168" transform="translate(-233.587 -238.36)"/>
          <path id="Path_277" data-name="Path 277" d="M626.983,625.494c.6.531-10.781,9.271-12.894,8.368,1.048-1.478,3.044-2.492,4.567-3.486.983-.641,7.966-5.2,8.327-4.883" transform="translate(-233.623 -237.955)"/>
          <path id="Path_278" data-name="Path 278" d="M78.031,867.952c.256,5.991-.144,14.234-6.108,17.4-2.215-.477.427-6.683.941-8.072,1.109-3,2.856-7.177,5.167-9.333" transform="translate(-27.031 -330.201)"/>
          <path id="Path_279" data-name="Path 279" d="M64.642,881.839a113.514,113.514,0,0,1,2.9-12.889c.443-1.486.974-4.264,2.248-5.156-.725,4.813-1.275,11.526-3.021,15.988-.423,1.08-.573,2.3-2.127,2.057" transform="translate(-24.592 -328.62)"/>
          <path id="Path_280" data-name="Path 280" d="M58.662,879.511c-2.689.509-.085-3.88-.445-5.288l3.671-11.47c.512,5.815-1.753,11.277-3.226,16.758" transform="translate(-21.849 -328.224)"/>
          <path id="Path_281" data-name="Path 281" d="M53.194,883.424a81.594,81.594,0,0,1,.721-11.2c.132-.976.315-3.89,1.2-4.266,1.6,4.513-.662,9.148,0,13.852Z" transform="translate(-20.237 -330.204)"/>
          <path id="Path_282" data-name="Path 282" d="M105.381,905.068l-5.467-3.23-6.134-5.786c4.517,1.552,8.637,5.335,11.6,9.016" transform="translate(-35.678 -340.892)"/>
          <g id="Group_302" data-name="Group 302">
            <path id="Path_222" data-name="Path 222" d="M38.752,394.558a90.283,90.283,0,0,1,2.932-10.518,51.854,51.854,0,0,1,2.471-5.457l-18.016,6.3a102.446,102.446,0,0,1,12.535,9.979c.025-.1.053-.2.078-.306" transform="translate(-9.944 -144.026)" fill="#3cbeeb"/>
            <path id="Path_244" data-name="Path 244" d="M658.878,474.926c.921-.371,2.01-.762,3.057-1.251l2.578-1.643a4.257,4.257,0,0,0,1.456-2.918,18.75,18.75,0,0,0-.5-4.784c-.385-1.924-.875-3.826-1.364-5.725-.855-3.325-2.036-6.863-2.019-10.332a17.348,17.348,0,0,1,1.867-6.736c.014-.1.022-.2.038-.3a9.956,9.956,0,0,1,1.182-2.709,15.374,15.374,0,0,0,.6-2.136,3.859,3.859,0,0,0-.087-1.968,32.478,32.478,0,0,0-2.551-2.721,35.86,35.86,0,0,0-4.225-1.843,32.477,32.477,0,0,1-5.6-3.216q-3.561-2.386-6.947-5.019a123.531,123.531,0,0,1-12.88-11.331c-1.619-1.661-3.337-3.191-5.046-4.758a24.085,24.085,0,0,1-4.456-5.067A12.983,12.983,0,0,1,622,393.149c.007-.143.023-.284.033-.426L594.32,404.78l61.144,71.68c1.11-.569,2.251-1.066,3.414-1.534" transform="translate(-226.102 -149.406)" fill="#3cbeeb"/>
            <path id="Path_283" data-name="Path 283" d="M352.429,157.1l70.227,85.3L414.274,0,170.567,78.013l9.683,119.91c.278-.142.541-.3.8-.464,1.4-2.188,2.661-4.466,3.885-6.756,1.409-2.636,2.753-5.318,4.33-7.859.157-.253.318-.506.483-.759a15.376,15.376,0,0,1,1.8-2.836,7.271,7.271,0,0,1,1.068-.885,15.245,15.245,0,0,1,1.789-1.628,5.48,5.48,0,0,1,2.945-1.249.708.708,0,0,1,.081-.021.76.76,0,0,1,.219.025,2.972,2.972,0,0,1,.923.18,3.874,3.874,0,0,1,1.73,1.383,3.973,3.973,0,0,1,.586.545,8.008,8.008,0,0,1,1.3,4.372c.205,1.017.343,2.049.455,3.071a55.923,55.923,0,0,1,.29,7.1,58.882,58.882,0,0,1-.436,6.431l-.8,2.036,18.309-4.981c4.244-1.128,8.416-2.3,11.81-3.181,3.105-.808,6.2-1.67,9.3-2.563l.156-.043,1-.3q1.889-.55,3.776-1.112Z" transform="translate(-64.89 0.002)" fill="#3cbeeb"/>
            <path id="Path_284" data-name="Path 284" d="M404.285,343.177c-3.821-4.978-8.085-9.66-12.32-14.361l-20.953-27.045c-5.126-7.618-10.181-15.361-15.728-22.419-4.407-5.606-9.778-10.543-14.171-16.172l-.815-.171c-4.469,1.58-9.21,2.307-13.718,3.721q-10.019,3.144-20.131,6.386L191.025,306.2c-.2.764-.4,1.525-.6,2.285a239.737,239.737,0,0,1-9.187,27.55,15.474,15.474,0,0,0-1.339,5.809,18.141,18.141,0,0,1-.742,5.7,26.7,26.7,0,0,1-2.488,5.112c-1.149,1.966-2.262,3.952-3.429,5.907a117.964,117.964,0,0,1-16.211,21.838,75.96,75.96,0,0,1-7.686,7.007,41.756,41.756,0,0,0-3.7,3.14,4.411,4.411,0,0,0-1.73,3.134,6.065,6.065,0,0,0,.149,1.075c5.44,7.142,13.2,12.584,19.76,18.659,2.162,2,12.182,13,13.851,13l24.2-8.945c7.2-4.7,15.4-7.569,23.515-10.244,4.167-1.373,8.35-2.706,12.462-4.237,3.634-1.354,7.118-3.086,10.824-4.24,3.58-1.114,7.236-1.97,10.824-3.059a31.636,31.636,0,0,0,8.852-3.818c-.783-.954-1.532-1.934-2.218-2.961a36.29,36.29,0,0,1-5.361-12.785,21.068,21.068,0,0,1-.921-5.229,25.294,25.294,0,0,1,.366-4.748,23.722,23.722,0,0,1,2.193-8.137c1.611-3.942,3.984-7.023,7.141-6.543.42.064.831.147,1.237.239a8.988,8.988,0,0,1,2.068.147,15.994,15.994,0,0,1,6.567,3.216,18.61,18.61,0,0,1,5.259,6.376,44.926,44.926,0,0,1,3.043,8.039,16.683,16.683,0,0,1,.607,4.948,30.266,30.266,0,0,0,.132,5.181c.38,2.3,1.45,4.926,4.149,4.794,2.335-.114,4.628-1.26,6.855-1.886,5.38-1.514,10.71-3.2,16.081-4.735,3.363-.963,6.769-1.777,10.156-2.647,3.87-.995,7.746-1.993,11.557-3.2a37.073,37.073,0,0,0,4.086-1.475,8.132,8.132,0,0,0,1.255-.667c.161-.111.1-.1.287-.243.041-.031.014.033.033-.071a.528.528,0,0,1,.733-.408,7.946,7.946,0,0,0,.55-.689c2.993-4.238,3.9-9.547,6.594-13.971a21.575,21.575,0,0,1,5.38-6,11.787,11.787,0,0,1,6.188-2.61c3.989-.272,6.987,2.758,8.583,6.119a23.455,23.455,0,0,1,2.069,11.2l35.787-12.567c.606-.833-3.733-6.349-4.53-7.388" transform="translate(-54.751 -100.058)" fill="#3cbeeb"/>
            <path id="Path_285" data-name="Path 285" d="M858.279,416.151c-.382-.746-3.01-4.337-5.292-7.24l-50.182,25.618L796.73,380l21-17.2L789.9,325.222l-32.23,13.9c-.338.388,1.919,3.95,4.362,7.606q1.607,2.143,3.2,4.294a145.262,145.262,0,0,1,13.89,21.874,43.674,43.674,0,0,1,4.1,13.031c.623,4.217.818,8.479,1.311,12.711a.6.6,0,0,1,.324.255,30.606,30.606,0,0,1,4.739,17c-.092,11.189-4.648,21.941-9.2,31.959-1.136,2.5-2.3,4.984-3.455,7.476a45.712,45.712,0,0,0-3.091,7.784l84.39-45.684c1.12-.744.357-.664.04-1.285" transform="translate(-288.236 -123.726)" fill="#3cbeeb"/>
            <path id="Path_286" data-name="Path 286" d="M826.809,457.605l50.182-25.618h0l-35.254-46.11-21,17.2Z" transform="translate(-312.239 -146.801)" fill="#3cbeeb"/>
            <path id="Path_287" data-name="Path 287" d="M709.347,103.155l.009-2.68L634.035,48.151l.164-.123q-4.911-3.279-9.809-6.577L597.4,22.7c-8.645-6.251-17.148-12.7-25.414-19.479l-1.6.988c1.762,3.117.442,4.967.579,7.715,1.679,33.845,3.043,67.8,4.549,101.889,1.888,42.722,2.764,85.6,5.178,128.277.163,2.885-.1,5.812.011,8.694,11.6-3.29,22.077-9.247,32.937-14.267a15.642,15.642,0,0,0-2.654-5.553c-1.554-2.281-3.364-4.369-5.077-6.529a31.568,31.568,0,0,1-4.264-6.956c-2.768-6.263-4-13.032-6.219-19.483-1.155-3.359-2.454-6.666-3.693-9.994-1.011-2.715-1.9-5.452-2.763-8.213-1.338-4.263-3.183-8.386-4.007-12.8a10.331,10.331,0,0,1,.066-5.5,7.217,7.217,0,0,1,2.059-2.878,5.763,5.763,0,0,1,5.714-.757,20.822,20.822,0,0,1,6.714,4.377,72.079,72.079,0,0,1,7.2,7.6c4.579,5.455,8.706,11.269,12.82,17.075a64.353,64.353,0,0,0,9.339,11.082c2.776,2.5,6.126,5.255,9.884,6.015.139.028.28.048.421.066.712-.033,1.437-.084,2.175-.139a3.824,3.824,0,0,0,1.529-.864,3.2,3.2,0,0,0,.992-2.071,39.514,39.514,0,0,1-.48-6.1c-.46-2.629-1.15-5.237-1.785-7.792-.364-1.463-.646-2.976-1.086-4.417-.863-2.824-1.88-5.6-2.764-8.415-1.622-5.168-3.248-11.121-1.6-16.489a6.635,6.635,0,0,1,1.647-2.9c1.749-3.576,4.439-1.979,6.747.161a30.162,30.162,0,0,1,6.439,5.14c2.228,2.169,4.282,4.5,6.292,6.873a6.8,6.8,0,0,1,2.1,1.88A26,26,0,0,1,662,173.068c1.529,2.892,2.847,5.911,4.193,8.891,2.431,5.384,4.709,10.877,7.334,16.183,1.694,2.832,3.444,5.629,5.3,8.358a23.076,23.076,0,0,0,4.366,5.279c2.167.95,22.625-9.687,25.821-11.733l.336-96.8c0-.03.006-.059.009-.089Z" transform="translate(-216.997 -1.225)" fill="#3cbeeb"/>
          </g>
        </g>
      </g>
      <text id="Title_that_links_to_illustration_-_Lorem_ipsum_odor_amet" data-name="Title that links to illustration - Lorem ipsum odor amet" transform="translate(155 413)" font-size="50" font-family="Poppins-Bold, Poppins" font-weight="700"><tspan x="0" y="53">Title That Links To Illustration - </tspan><tspan x="0" y="129">Lorem Ipsum Odor Amet</tspan></text>
      <g id="Component_89_59" data-name="Component 89 – 59" transform="translate(426.22 719)">
        <text id="View_our_services" data-name="View our services" transform="translate(165 19)" font-size="18" font-family="Poppins-Bold, Poppins" font-weight="700" text-decoration="underline"><tspan x="-165.204" y="0">View Our Services</tspan></text>
        <path id="_9110843_arrow_bottom_right_icon_1_" data-name="9110843_arrow_bottom_right_icon (1)" d="M16.522,15.346V9.038h1.663v9.147H9.038V16.522h6.308L4.293,5.469,5.469,4.293Z" transform="translate(170.978 0.815)" stroke="#000" stroke-width="0.5" fill-rule="evenodd"/>
      </g>
    </g>
    <rect id="Rectangle_182" data-name="Rectangle 182" width="662" height="1080" transform="translate(1258)"/>
    <text id="Let_s_connect" data-name="Let’s connect" transform="translate(1338 899)" fill="#fff" font-size="22" font-family="Poppins-Bold, Poppins" font-weight="700"><tspan x="0" y="0">Let’s Connect</tspan></text>
    <path id="_9110796_x_icon" data-name="9110796_x_icon" d="M16.1,19.517,5.713,29.9l-3.42-3.42L12.677,16.1,2.293,5.713l3.42-3.42L16.1,12.677,26.48,2.293l3.42,3.42L19.517,16.1,29.9,26.48,26.48,29.9Z" transform="translate(1738.6 52.707)" fill="#fff" stroke="#000" stroke-width="1.5" fill-rule="evenodd"/>
    <g id="Group_542" data-name="Group 542" transform="translate(10007.062 23548.082)">
      <path id="_5305164_play_video_youtube_youtube_logo_icon_3_" data-name="5305164_play_video_youtube_youtube logo_icon (3)" d="M25.292,79.624a3.235,3.235,0,0,0-2.284-2.284c-2.015-.54-10.092-.54-10.092-.54s-8.078,0-10.092.54A3.235,3.235,0,0,0,.54,79.624a36.084,36.084,0,0,0,0,12.435,3.235,3.235,0,0,0,2.284,2.284c2.015.54,10.092.54,10.092.54s8.078,0,10.092-.54a3.235,3.235,0,0,0,2.284-2.284,33.621,33.621,0,0,0,.54-6.217A33.625,33.625,0,0,0,25.292,79.624ZM10.332,89.716v-7.75l6.711,3.875Z" transform="translate(-8532.85 -22643.883)" fill="#fff"/>
      <g id="_104493_linkedin_icon_2_" data-name="104493_linkedin_icon (2)" transform="translate(-8568.85 -22567.082)">
        <path id="Path_10" data-name="Path 10" d="M30.039,27.052v-.028l-.018.028Z" transform="translate(-20.333 -18.859)" fill="#fff"/>
        <path id="Path_11" data-name="Path 11" d="M20.211,4.667H4.827a1.318,1.318,0,0,0-1.333,1.3V21.532a1.318,1.318,0,0,0,1.333,1.3H20.211a1.318,1.318,0,0,0,1.335-1.3V5.968A1.318,1.318,0,0,0,20.211,4.667ZM8.965,19.874H6.239v-8.2H8.965ZM7.6,10.551H7.584A1.421,1.421,0,1,1,7.62,7.717,1.422,1.422,0,1,1,7.6,10.551ZM18.8,19.874H16.071V15.485c0-1.1-.394-1.855-1.381-1.855a1.493,1.493,0,0,0-1.4,1,1.867,1.867,0,0,0-.089.665v4.581H10.475s.036-7.434,0-8.2H13.2v1.161a2.707,2.707,0,0,1,2.458-1.355c1.794,0,3.139,1.173,3.139,3.692v4.7Z" transform="translate(-3.494 -4.667)" fill="#fff"/>
      </g>
      <g id="_1161953_instagram_icon_5_" data-name="1161953_instagram_icon (5)" transform="translate(-8606.062 -22567.082)">
        <path id="Path_8" data-name="Path 8" d="M20.109,16.7a4.709,4.709,0,1,0,4.709,4.709A4.719,4.719,0,0,0,20.109,16.7Zm0,7.727a3.017,3.017,0,1,1,3.017-3.017A3.031,3.031,0,0,1,20.109,24.427Z" transform="translate(-10.985 -12.322)" fill="#fff"/>
        <circle id="Ellipse_4" data-name="Ellipse 4" cx="1.067" cy="1.067" r="1.067" transform="translate(12.951 3.201)" fill="#fff"/>
        <path id="Path_9" data-name="Path 9" d="M20.178,6.309A5.24,5.24,0,0,0,16.314,4.8H8.735A5.04,5.04,0,0,0,3.4,10.135v7.543a5.294,5.294,0,0,0,1.545,3.937,5.369,5.369,0,0,0,3.826,1.435h7.506a5.433,5.433,0,0,0,3.863-1.435,5.267,5.267,0,0,0,1.509-3.9V10.135A5.274,5.274,0,0,0,20.178,6.309ZM20.03,17.714A3.6,3.6,0,0,1,18.963,20.4a3.8,3.8,0,0,1-2.686.957H8.772A3.8,3.8,0,0,1,6.086,20.4a3.7,3.7,0,0,1-.993-2.723V10.135a3.668,3.668,0,0,1,.993-2.686,3.742,3.742,0,0,1,2.686-.957h7.579a3.668,3.668,0,0,1,2.686.993,3.8,3.8,0,0,1,.993,2.649v7.579Z" transform="translate(-3.4 -4.8)" fill="#fff"/>
      </g>
      <path id="_9034940_logo_tiktok_icon" data-name="9034940_logo_tiktok_icon" d="M62.717,20.16a4.425,4.425,0,0,1-.383-.223,5.383,5.383,0,0,1-.983-.835,4.638,4.638,0,0,1-1.108-2.286h0A2.816,2.816,0,0,1,60.2,16h-3.34V28.916c0,.173,0,.345-.007.514,0,.021,0,.041,0,.063a.139.139,0,0,1,0,.029v.007a2.836,2.836,0,0,1-1.427,2.251,2.788,2.788,0,0,1-1.382.365,2.836,2.836,0,0,1,0-5.672,2.792,2.792,0,0,1,.867.137l0-3.4a6.2,6.2,0,0,0-4.781,1.4,6.555,6.555,0,0,0-1.43,1.764,6.112,6.112,0,0,0-.737,2.805,6.621,6.621,0,0,0,.359,2.218V31.4a6.528,6.528,0,0,0,.907,1.654,6.788,6.788,0,0,0,1.447,1.365v-.008l.008.008a6.25,6.25,0,0,0,3.41,1.027,6.036,6.036,0,0,0,2.531-.56,6.351,6.351,0,0,0,2.055-1.545,6.421,6.421,0,0,0,1.12-1.861,6.971,6.971,0,0,0,.4-2.128V22.5c.041.024.58.381.58.381a7.725,7.725,0,0,0,1.991.823,11.463,11.463,0,0,0,2.043.28V20.67A4.332,4.332,0,0,1,62.717,20.16Z" transform="translate(-8689.021 -22584.082)" fill="#fff"/>
      <path id="_104498_facebook_icon_4_" data-name="104498_facebook_icon (4)" d="M27.019,12.394H23.942V10.375A.822.822,0,0,1,24.8,9.44H26.97V6.108L23.979,6.1A3.788,3.788,0,0,0,19.9,10.172v2.222h-1.92v3.434H19.9v9.717h4.039V15.828h2.726Z" transform="translate(-8687.044 -22574.178)" fill="#fff"/>
    </g>
    <text id="Contact_Us" data-name="Contact Us" transform="translate(1338 943.785)" fill="#fff" font-size="18" font-family="Inter"><tspan x="0" y="0">Contact Us</tspan></text>
    <text id="_0203_780_0808" data-name="0203 780 0808" transform="translate(1468.334 943.785)" fill="#fff" font-size="18" font-family="Inter"><tspan x="0" y="0">0203 780 0808</tspan></text>
    <g id="Component_91_1" data-name="Component 91 – 1" transform="translate(1339.428 172)">
      <path id="Path_5656" data-name="Path 5656" d="M852.605,5021.135s48.883-3.914,122.305-8.552" transform="matrix(0.998, 0.07, -0.07, 0.998, -500.271, -5026.809)" fill="none" stroke="#3cbeeb" stroke-width="9" opacity="0"/>
      <text id="About" transform="translate(0.67 40)" fill="#fff" font-size="38" font-family="Poppins-Bold, Poppins" font-weight="700"><tspan x="0" y="0">About</tspan></text>
    </g>
    <g id="Component_92_1" data-name="Component 92 – 1" transform="translate(1339.428 265)">
      <path id="Path_5655" data-name="Path 5655" d="M852.605,5021.135s149.417-10.944,222.839-15.583" transform="matrix(0.998, 0.07, -0.07, 0.998, -500.271, -5026.809)" fill="none" stroke="#3cbeeb" stroke-width="9" opacity="0.003"/>
      <text id="All_Services" data-name="All Services" transform="translate(0 40)" fill="#fff" font-size="38" font-family="Poppins-Bold, Poppins" font-weight="700"><tspan x="0" y="0">All Services</tspan></text>
    </g>
    <g id="Component_93_1" data-name="Component 93 – 1" transform="translate(1338 358)">
      <path id="Path_5654" data-name="Path 5654" d="M852.605,5021.135s72.416-5.56,145.839-10.2" transform="matrix(0.998, 0.07, -0.07, 0.998, -498.844, -5026.809)" fill="none" stroke="#3cbeeb" stroke-width="9" opacity="0"/>
      <text id="Sectors" transform="translate(0 40)" fill="#fff" font-size="38" font-family="Poppins-Bold, Poppins" font-weight="700"><tspan x="0" y="0">Sectors</tspan></text>
    </g>
    <g id="Component_94_1" data-name="Component 94 – 1" transform="translate(1338 451)">
      <path id="Path_5653" data-name="Path 5653" d="M852.605,5021.135s182.878-15.611,252.639-17.666" transform="matrix(0.998, 0.07, -0.07, 0.998, -498.844, -5024.775)" fill="none" stroke="#3cbeeb" stroke-width="9" opacity="0"/>
      <text id="Case_Studies" data-name="Case Studies" transform="translate(0 40)" fill="#fff" font-size="38" font-family="Poppins-Bold, Poppins" font-weight="700"><tspan x="0" y="0">Case Studies</tspan></text>
    </g>
    <g id="Component_95_1" data-name="Component 95 – 1" transform="translate(1338 544)">
      <path id="Path_5652" data-name="Path 5652" d="M852.605,5021.135s235.94-19.321,305.7-21.376" transform="matrix(0.998, 0.07, -0.07, 0.998, -498.844, -5024.775)" fill="none" stroke="#3cbeeb" stroke-width="9" opacity="0"/>
      <text id="Knowledge_Hub" data-name="Knowledge Hub" transform="translate(0 40)" fill="#fff" font-size="38" font-family="Poppins-Bold, Poppins" font-weight="700"><tspan x="0" y="0">Knowledge Hub</tspan></text>
    </g>
    <g id="Component_96_1" data-name="Component 96 – 1" transform="translate(1338 637)">
      <path id="Path_5651" data-name="Path 5651" d="M852.605,5021.135s191.507-16.214,261.268-18.27" transform="matrix(0.998, 0.07, -0.07, 0.998, -498.844, -5026.41)" fill="none" stroke="#3cbeeb" stroke-width="9" opacity="0"/>
      <text id="Technologies" transform="translate(0 40)" fill="#fff" font-size="38" font-family="Poppins-Bold, Poppins" font-weight="700"><tspan x="0" y="0">Technologies</tspan></text>
    </g>
    <g id="Component_97_1" data-name="Component 97 – 1" transform="translate(1338 731)">
      <path id="Path_1062" data-name="Path 1062" d="M852.605,5021.135s89.931-9.112,159.693-11.167" transform="matrix(0.998, 0.07, -0.07, 0.998, -498.844, -5026.186)" fill="none" stroke="#3cbeeb" stroke-width="9" opacity="0.002"/>
      <text id="Contact" transform="translate(0 40)" fill="#fff" font-size="38" font-family="Poppins-Bold, Poppins" font-weight="700"><tspan x="0" y="0">Contact</tspan></text>
    </g>
    <g id="Group_9059" data-name="Group 9059" transform="translate(0 -32.938)">
      <g id="Path_7033" data-name="Path 7033" transform="translate(0 666.062) rotate(-90)">
        <path d="M 187.6233825683594 49.5 L 0.5000008344650269 49.5 L 0.5000008344650269 0.5 L 187.6233825683594 0.5 L 187.6233825683594 49.5 Z" stroke="none"/>
        <path d="M 1 1 L 1 49 L 187.1233825683594 49 L 187.1233825683594 1 L 1 1 M 0 0 L 188.1233825683594 0 L 188.1233825683594 50 L 0 50 L 0 0 Z" stroke="none" fill="#000"/>
      </g>
      <text id="Start_a_project-2" data-name="Start a project" transform="translate(32 641.468) rotate(-90)" fill="#fff" font-size="18" font-family="Poppins-Bold, Poppins" font-weight="700"><tspan x="0" y="0">Start A Project</tspan></text>
    </g>
  </g>
</svg>
