<svg xmlns="http://www.w3.org/2000/svg" xmlns:xlink="http://www.w3.org/1999/xlink" width="431" height="932" viewBox="0 0 431 932">
  <defs>
    <style>
      .cls-1, .cls-10, .cls-14, .cls-15, .cls-2, .cls-3 {
        fill: none;
      }

      .cls-2, .cls-3 {
        stroke: #3cbeeb;
      }

      .cls-2 {
        stroke-width: 8px;
      }

      .cls-3 {
        stroke-width: 9px;
      }

      .cls-4 {
        font-size: 32px;
      }

      .cls-11, .cls-16, .cls-4, .cls-9 {
        font-family: Poppins-Bold, Poppins;
        font-weight: 700;
      }

      .cls-11, .cls-16, .cls-5, .cls-9 {
        font-size: 14px;
      }

      .cls-5 {
        font-family: Inter;
      }

      .cls-6 {
        clip-path: url(#clip-path);
      }

      .cls-7 {
        fill: #0071bc;
      }

      .cls-8 {
        fill: #3cbeeb;
      }

      .cls-13, .cls-16, .cls-17, .cls-9 {
        fill: #fff;
      }

      .cls-10, .cls-12, .cls-14 {
        stroke: #000;
      }

      .cls-11, .cls-16 {
        text-decoration: underline;
      }

      .cls-12, .cls-17 {
        stroke-width: 0.5px;
        fill-rule: evenodd;
      }

      .cls-14 {
        stroke-width: 2px;
      }

      .cls-15 {
        stroke: #ebebeb;
        stroke-linecap: square;
      }

      .cls-17 {
        stroke: #fff;
      }

      .cls-18, .cls-19 {
        stroke: none;
      }

      .cls-19 {
        fill: #000;
      }
    </style>
    <clipPath id="clip-path">
      <rect id="Rectangle_42" data-name="Rectangle 42" class="cls-1" width="308.752" height="336.807"/>
    </clipPath>
  </defs>
  <g id="Component_112_5" data-name="Component 112 – 5" transform="translate(0.5)">
    <path id="Path_7824" data-name="Path 7824" class="cls-2" d="M1046.611,5018.229s27.528-1.771,102.272-7.151" transform="matrix(0.998, 0.07, -0.07, 0.998, -423.23, -4864.379)"/>
    <path id="Path_7823" data-name="Path 7823" class="cls-3" d="M843.779,5031.64s78-6.33,288.883-18.989" transform="matrix(0.998, 0.07, -0.07, 0.998, -420.486, -4817.025)"/>
    <text id="Title_that_links_to_illustration_-_Lorem_ipsum_odor_amet" data-name="Title that links to illustration - Lorem ipsum odor amet" class="cls-4" transform="translate(39 134)"><tspan x="-144.624" y="34">Title That Links To </tspan><tspan x="-157.808" y="79">Illustration - Lorem </tspan><tspan x="-144.592" y="124">Ipsum Odor Amet</tspan></text>
    <text id="Lorem_ipsum_odor_amet_consectetuer_adipiscing_elit._Nisl_dolor_enim_primis_vivamus_integer_facilisis_quis_efficitur_Rutrum_eros_nullam_ante_conubia." data-name="Lorem ipsum odor amet, consectetuer adipiscing elit. Nisl dolor enim primis vivamus integer facilisis quis efficitur? Rutrum eros nullam ante conubia." class="cls-5" transform="translate(39 294)"><tspan x="-175.458" y="14">Lorem ipsum odor amet, consectetuer adipiscing elit. </tspan><tspan x="-168.369" y="39">Nisl dolor enim primis vivamus integer facilisis quis </tspan><tspan x="-141.695" y="64">efficitur? Rutrum eros nullam ante conubia.</tspan></text>
    <g id="Group_287" data-name="Group 287" class="cls-6" transform="translate(61 396)">
      <path id="Path_223" data-name="Path 223" d="M307.407,408.8c-2.216-10.053-4.956-16.261-9.166-25.6-5.119-11.356-6.969-18.708-17.829-26.143-9.133-6.253-17.369-10.813-28.9-8.434-5.01,1.034-11.428,5.306-16.43,5.726a6.712,6.712,0,0,1-2.567-.181c4.189-2.836,6.28-7.571,9.534-11.259a65.119,65.119,0,0,1,5.632-5.616c2.543-2.085,5.825-2.756,7.641-5.522a40.566,40.566,0,0,1,.645-4.169l-.271.147.49-1.024c.053-.192.108-.384.169-.575a33.446,33.446,0,0,1,1.691-3.916c.606-1.307,1.217-2.611,1.809-3.925a68.657,68.657,0,0,0,3.238-8.328,26.864,26.864,0,0,0,1.317-8.439,15.471,15.471,0,0,0-1.9-7.13c-.306-.253-.571-.455-.635-.636a1.411,1.411,0,0,1-.06-.256.344.344,0,0,1-.043-.129c-.271-2.2-.366-4.419-.673-6.613a97.655,97.655,0,0,0-5.807-13.31c-3.921-5.959-8.635-11.388-12.42-17.446a57.485,57.485,0,0,1-3.4-6.682c-.511-1.12-1-2.249-1.5-3.376a89.084,89.084,0,0,0-8.989-13.739,20.764,20.764,0,0,0-2.1-1.814c-.933-.692-2.723-1.972-3.877-1.022A3.82,3.82,0,0,0,222,231.839a11.371,11.371,0,0,0,.155,3.584c.8,3.695,2.7,7.505,3.113,10.781.016.134.029.268.043.4.315,1.289.614,2.581.826,3.892a11.743,11.743,0,0,1,.218,2.833,2.46,2.46,0,0,1-.395,1.2c.026.091.049.181.078.273l-.31.016a2.753,2.753,0,0,1-.372.328c-1.3.95-2.971.466-4.317-.221a6.332,6.332,0,0,1-3.706-1.813c-2.192-2.106-4.553-5.837-6.79-9.285a90.385,90.385,0,0,0-6.224-7.939,25.755,25.755,0,0,0-3.692-3.5,8.471,8.471,0,0,0-1.994-1.168,3.648,3.648,0,0,0-1.882.27,3.058,3.058,0,0,0-1.613,1.4,5.771,5.771,0,0,0,.127,2.754,28.552,28.552,0,0,0,.933,3.167c.7,1.426,1.477,2.742,1.812,3.636,2.4,6.394,3.542,13.825,6.488,20.1a23.535,23.535,0,0,0,1.4,2.506q.285.375.585.747a41.285,41.285,0,0,1,2.583,3.38,8.936,8.936,0,0,1,1.2,2.515c.029.052.061.1.09.156l-.048.022c.01.042.018.084.027.126a.275.275,0,0,1,.282.311,19.768,19.768,0,0,1-.326,2.117c-.108.554-.212,1.109-.27,1.662l.332-.144a6.122,6.122,0,0,0-.361,1.483,4.9,4.9,0,0,0,.352,1.517,9.1,9.1,0,0,0,2.073,3.037c.653.652,1.354,1.252,2.036,1.872.838.6,1.672,1.181,2.383,1.8,1.354,1.181,2.544,2.787,3.924,3.916,2.657,2.176,5.841,3.819,8.6,5.972a16.3,16.3,0,0,1,2.067.922,3.271,3.271,0,0,1,1.68,1.942,5.014,5.014,0,0,1-.527,2.843,32.427,32.427,0,0,0-1.24,3.3c-.016.061-.028.121-.042.182a30.966,30.966,0,0,0,.142,3.215c.358,1.765.887,3.494,1.289,5.249a18.125,18.125,0,0,1,.471,2.811,5.318,5.318,0,0,1-.017,1.024l0,.009-.007.022a2.8,2.8,0,0,1-.251.861,4.185,4.185,0,0,1-2.006,1.719c-.928.466-1.913.8-2.862,1.22a11.714,11.714,0,0,0-2.982,1.881c-1,.875-1.893,1.863-2.928,2.7a.335.335,0,0,1-.515-.066,45.254,45.254,0,0,1-2.663-4.524,73.517,73.517,0,0,0-5.253-9.034c-1.88-2.563-4.318-4.89-7.523-5.562a.278.278,0,0,1-.227-.334c-.418-.4-.848-.79-1.3-1.155-4.541-3.677-10.246-5.177-15.786-6.617-6.143-1.6-12.517-1.622-18.779-2.426a25.829,25.829,0,0,1-2.735-.383,1.322,1.322,0,0,1-1.087-.88,4.684,4.684,0,0,1,.218-2.126c.332-1.464.764-2.9.982-4.388a11.644,11.644,0,0,0-1.3-7.619,4.53,4.53,0,0,0-2.166-1.959,3.782,3.782,0,0,0-2.918.218,7.935,7.935,0,0,0-1.789,1.15,23.625,23.625,0,0,0-3.018,4.142q-.265.554-.494,1.116a33.512,33.512,0,0,1-1.579,3.747,7.984,7.984,0,0,1-1.114,1.6l-.031.078-.067.02a4.241,4.241,0,0,1-.408.362.311.311,0,0,1-.309.377.3.3,0,0,1-.174-.053,3.918,3.918,0,0,1-.466.223.259.259,0,0,1-.27-.033l-.124.049c-.791.311-1.6.567-2.417.813-2.027.611-4.079,1.136-6.13,1.66-1.674.428-3.361.825-5.016,1.322-1.238.372-2.471.761-3.712,1.124-1.722.5-3.465.954-5.174,1.5a16.6,16.6,0,0,1-2.59.763l-1.668.5c-.657-.006-.943-.786-1.06-1.791a4.868,4.868,0,0,1-.352-.8c-.576-1.671-.17-3.429-.371-5.144a12.527,12.527,0,0,0-.646-2.418,20.456,20.456,0,0,0-.857-2.2,9.674,9.674,0,0,0-2.633-3.557,8.179,8.179,0,0,0-3.511-1.79c-2.19-.412-3.853,1.038-4.755,2.907a14.576,14.576,0,0,0-.886,8.841,18.46,18.46,0,0,0,1.892,5.321c.394.624.792,1.255,1.178,1.911q.5.715,1.069,1.382a.335.335,0,0,1-.067.515,17.114,17.114,0,0,1-5.547,2.419c-1.477.435-2.975.8-4.454,1.234L99.433,307.4c-.1.043-.2.086-.3.127-1.013.423-2.039.813-3.072,1.183-.838.3-1.68.586-2.525.868l-11.813,4.365A31.533,31.533,0,0,0,77.31,316.5c-2.626,1.842-1.974,5.494-1.274,8.16.434,1.651,1.006,3.261,1.584,4.865.317.882.647,1.765.935,2.659.072.061.142.122.207.181.72.664,2.04,3.851,2.809,5.032,1.122,1.725,2.5,3.322,3.685,5-6.281-1.162-15.709-3.418-19.912-8.546-4.252-5.189-6.535-11.2-11.95-16-1.623-1.439-4.6-4.024-6.652-2.377a14.671,14.671,0,0,1,.564-5.463,13.8,13.8,0,0,0,.233-3.437c-.187-1-.649-1.913-.92-2.888a3.06,3.06,0,0,1-.114-1.266c-.027-.039-.055-.077-.082-.117.818-2.2,3.027-3.078,4.415-4.374a60.017,60.017,0,0,0,8.137-9.2c1.366-1.964,2.629-4,3.837-6.073.565-.969,1.148-1.938,1.674-2.93a8.718,8.718,0,0,0,.883-2.365,4.019,4.019,0,0,1-.143-2.192,7.306,7.306,0,0,1,.353-.954c.013-.088.027-.177.045-.265a22,22,0,0,1,1.232-3.4,120.405,120.405,0,0,0,4.6-14.438,31.421,31.421,0,0,0,.745-3.741,23.243,23.243,0,0,1,.2-3.782c0-.046,0-.091,0-.136a24.748,24.748,0,0,0-.268-3.677,7.877,7.877,0,0,0-.828-2.743,1.3,1.3,0,0,0-1.439-.794,5.448,5.448,0,0,0-2.517,2.149A26.3,26.3,0,0,0,65,247.24c-.8,1.489-1.57,2.992-2.44,4.44a16.436,16.436,0,0,1-4.274,5.122v.01l-.037.015a6.9,6.9,0,0,1-1.913.939c-1.459.745-2.311.935-2.971-1.918-1.274-5.5.574-12.932,2.587-18.871a10.153,10.153,0,0,1,.572-2.427,16.138,16.138,0,0,0,.65-2.269,11.829,11.829,0,0,0,.109-2.528,22.7,22.7,0,0,0-.875-4.851,23.164,23.164,0,0,0-1.564-4.926c-.768-.416-1.378-.368-2.484.406-3.351,2.345-5.019,9.092-6.7,12.732C42.314,240.4,34.868,249.46,30.035,256c-2.083,2.817-3.9,5.776-6.178,8.424q-.729.961-1.456,1.923a40.914,40.914,0,0,0-4.043,6.364c-.792,2.32-1.426,4.735-2.355,6.972a34.673,34.673,0,0,1-1.393,4.742c-.226,2.378-.908,5.03-.953,7.359-.031,1.581.787,3.519.694,4.429-.1.982-1.705,2.467-2.112,3.347-1.648,3.566,1.8,9.989,3.68,13.167.783,1.324,1.92,2.45,2.66,3.817,2.671,4.936,3.547,13.028,10.393,13.638.227,2.262,1.262,5.125,1.276,7.344.007,1.207-.8,2.152-.176,3.294.964,1.772,4.164,2.4,5.941,2.949.25.077.749-.132.5.512-.655,1.664-3.2,3.944-3.643,5.981-6.214,1.5-16.837-.491-22.013,3.743a.834.834,0,0,0-.252.675c-.129.081-1.036-1.184-2.383-.513-1.4.7-5.433,11.8-5.9,13.868-1.117,4.926-3.441,22.736-1.192,26.649.264.459.941.514.985.784.231,1.425-1.923,8.4-2.063,10.858-.6,10.536,5.143,22.337,11.448,30.469,1.513,1.952,1.069,1.6,2.122,3.673.586,1.152,2.091,2.585,2.355,3.781.913,4.135.358,9.654,1.161,14.178,1.38,7.769,7.648,18.042,13.921,22.892,1.548,1.2,3.228,2.04,4.071-.373a27.563,27.563,0,0,0,.386-5.787c-.286-6.22-3.149-16.991-6.225-22.408-1.258-2.216-3.1-2.947-1.628-5.7,2.945,2.747,8.925,6.556,12.943,7.02,1.467.17,5.1-.253,5.092-2.081,0-.652-3.672-5.228-4.414-6.124-3.14-3.793-6.979-7.043-9.472-11.347,1-8.421,4.419-17.056,2.425-25.577-.5-2.131-5.243-13-4.193-14.045,1.586-.263,3.007.686,4.55.656,2.822-.053,5.98-1.418,8.748-1.874,4.95,9.052,13.041,15.58,19.752,23.218l2.072.7c4.112-1.094-.851-9.871-2-12.015-2.144-4.006-6.12-9.468-7.4-13.74-.113-.379-.327-1-.119-1.328,3.982-1.919,8.341-3.319,12.3-5.254,1.862-.91,13.712-7.981,14.559-7.376a20.911,20.911,0,0,0,2.961,5.393c2.356,3.4,12.282,16.5,15.017,18.387,1.926,1.332,5.993,2.667,4.624-1.217-.812-2.3-3.364-5.431-4.569-7.7-3.188-6.013-5.35-12.432-8.121-18.633,3.179.542,6.426.629,9.615,1.12,6.619,1.018,12.825,2.588,19.57,3.268,16.337,1.648,33.964,2,50.393,2.1,10.081.064,21.114-2.126,30.977-1.692,3.209.142,3.545,2.145,5.511,3.723,2.14,1.717,4.384,1.972,6.648,2.9,10.968,4.484,22.112,8.524,33.126,12.891l3.346.236c-.888,1.789-1.312,3.782-2.04,5.626-1.5,3.783-4.544,8.247-4.776,12.275-.148,2.575.986,5.015,1.322,7.529.779,5.821.949,12.468,2.664,18.129.373,1.231,1.955,3.8,2.049,4.711a82.545,82.545,0,0,1-1.019,11.112c-1.606,8.319-6.231,15.869-5.357,24.633.035.349.291,1.882.514,1.884a5.408,5.408,0,0,0,3.511-2.625c1.424-2.218,2.414-5.153,3.754-7.494,5.888-10.287,11.576-13.732,9.574-27.182a9.933,9.933,0,0,0-1.591-3.441c3.442-3.376,4.331-8.365,4.984-12.993,1.271-9.009.326-15.969.045-24.834a58.963,58.963,0,0,0-.09-6.733c-.408-2.841-2.71-6.248-2.912-9.049-.068-.937.4-1.636.219-2.548-.144-.73-3.62-5.5-3.355-5.7,5.483.234,10.633-2.1,16.021-2.727-.99,1.534-1.271,3.359-1.984,5-1.224,2.819-3.307,5.835-4.315,8.637-3.236,9-1.863,30.118-.856,40.04.172,1.694,1.815,5.091,1.707,6.13-.035.336-2.858,4.7-3.366,5.852-2.88,6.51-3.826,13.688-5.32,20.585-.82,3.782-4.378,10.429,0,12.618,1.777.191,2.246-3.51,2.819-4.681,3.291-6.724,8.107-12.418,11.262-19.416.935-2.075,4-8.887,4.34-10.674.192-1.015-.19-1.644-.107-2.182.232-1.513,2.5-5.095,2.933-8.269,1.112-8.115.577-18.776.047-26.892-.3-4.571,1.585-9.26,2.043-13.8l2.66,6.368c2.274,3.855,5.45,7.162,7.776,10.971.932,1.525,1.279,3.072,2.456,4.381-.836,4.914-2.84,9.759-2.331,14.917l-.3,1.4L296.139,448c1.194,1.69,2.5-.257,3.143-1.5,1.243-2.415,1.429-5.414,2.271-7.955,2.045-6.17,5.023-11.923,6.684-18.54,1.158-4.611.135-6.824-.83-11.2M261.825,298.437c1.106,2.838-.536,4.626-1.261,7.088-1.956,6.635-4.553,10.766-6.74,16.78-.45,1.238-.332,2.463-1.027,3.394-2.275-.644-3.672-2.38-5.445-3.411-2.841-1.651-5.962-2.856-8.607-4.853-1.8-5.255-4.506-10.135-3.842-15.928,2.7,3.028,5.647,5.9,10.027,5.784Zm-55.212-42.1c-1.8-4.969-4.5-15.889-7.016-19.572-.164-.239-2.806-2.6-1.681-2.75.455.046,1.073-.147,1.462.075.164.094,1.864,2.541,2.282,3,4.743,5.193,12.733,19.485,19.173,20.706,2.147.408,3.521-.383,5.544-.6-.132,1.907,1.026,2.559.175,4.434-1.063,2.34-5.48,5.327-7.772,6.547-.507.27-3.933,1.845-4.161,1.846-3.9.014-6.959-10.8-8.005-13.683m22.5,34.77-14.487-11.078c-.4-.883-.112-5.592.226-6.583.327-.961,2.821-1.505,3.687-1.934.181.22-.988,2.48,0,2.724.048-.546,1.232-3.733,2.049-3.062l-.359,1.513.355,2.913c.957-2.457.126-5.719,3.072-6.811a8.846,8.846,0,0,0-.342,3.919c.033.4.1,1.526.679,1.529.284-1.209.8-2.374.99-3.613.3-1.992-.746-3.437,1.572-4.563.256,1.4.179,2.861.516,4.26.124.515-.24.6.672.511l1.371-9.2c.465-.085.518.61.587.938.381,1.807.341,3.752,1.118,5.535,1.123-.691.731-3.278.583-4.505-.38-3.126-2.414-6.537-2.892-9.379-1.133-6.736-2.174-12.446-3.663-19.174a6.445,6.445,0,0,1-.339-3.07c1.1,1.027,1.575,2.52,2.419,3.717,1.811,2.567,4.2,4.766,5.943,7.351,1.529,2.271,2.421,4.857,3.808,7.1,6.432,10.4,20.231,28.267,21.744,39.953.1.811.4,5.587.172,5.959l-13.219,9.977c-.925.5-1.9-.11-2.748-.484Zm5.351,28.509c6.856,1.44,13.267,4.449,17.483,10.179a40.259,40.259,0,0,1-10.3-1.8c-2.209-.7-3.922-2.1-6.063-2.625l2.692,2.606-.646,2.5c1.139.158,1.119-1.467,1.7-1.9l1.027.2-2.381,4.77a7.744,7.744,0,0,0,3.079-4.078l1.342.5c-2.1,2.621-4.38,5.286-5.785,8.351l6.136-8.025c.674-.424,1.583.19,2.043.708.187.826-8.03,8.685-8.179,10.726a63.229,63.229,0,0,0,8.845-10.4c.49.033,2.712.294,2.4,1.025-2.391,2.545-5.811,4.682-8.176,7.165-4.43,4.652-6.444,9.972-12.3,13.951-3.084,2.1-7.949,2.4-11.57,3.428-3.69,1.044-7.194,2.615-10.9,3.579l9.542-8.174c-.713-.539-4.024,2.066-4.737,2.588-2.523,1.851-5.513,5.325-7.887,6.77-1.155.7-2.647,1.409-3.951,2.169-5.142,3-18.216,4.7-20.425-2.652-1.132-3.769.392-4.855,2.1-7.476.189-.291.839-.758.3-1.06-1.222,1.292-1.982.583-3.118,2.336a8.867,8.867,0,0,0-.6,8.537c.818,1.67,2.616,2.412,3.2,4.123-4.924-1.839-8.977-4.708-8.814-10.509,2.1-1.394,3.726-3.415,5.779-4.971,2.306-1.748,4.169-3.43,7.22-2.846,5.814,1.112,13.521,6.114,19.685,4.186a28.344,28.344,0,0,0,9.036-5.28c9.323-8.26,12.3-20.936,22.219-28.6m-76.181-28.087,3.679-9.109c1.3-.911.111,5.453-.026,5.943a11.312,11.312,0,0,1-3.217,5.3c-.723-.521-.591-1.365-.436-2.132m-44.2-7.4c2.983.013,3.72,9.086,2.537,10.221-.529.507-.586-.171-.759-.438-.878-1.358-3.909-9.186-1.778-9.783M55.6,260.945a6.4,6.4,0,0,0,2.388-.169c.228-.111,3.072-3.318,3.4-3.753,2.573-3.37,4.272-7.7,6.545-11.18,1.05-1.606,2.1-2.68,2,.278a86.394,86.394,0,0,1-4.016,21.226,32.875,32.875,0,0,1-1.974,4.844c-.434.541-.317.247-.68.005-1.614-1.077-5.33-6.655-6.448-8.554-.277-.472-1.566-2.37-1.22-2.7m-30.865,7.81c6.924-10,15.412-20.182,21.377-31.1,1.386-2.537,5.531-14.169,7.275-14.882.639-.262.5.392.6.745a52.716,52.716,0,0,1,1.584,5.863c-.1,3.766-3.971,10.965-4.713,15.409a45.853,45.853,0,0,0-.388,9.181c.113,1.4,1.092,3.857,1.029,4.74-.069.977-1.219,2.5-.672,3.94l1.356-2.042c-.046,1.1,1.181,2.46,1.3,3.307.17,1.21-.962,3.131-.612,4.528,1.29,0,1.312-1.815,1.365-2.725,1.481,1-.276,3.372.682,5.111,1-.181.492-2.494.68-2.723,3.051.572-.35,4.5,1.7,5.793l.346-3.407c.249-.3,1.362.7,1.362.85v4.943c1.2-.685.354-2.708.851-3.748,4.908,3.633,1.96,7.343-.573,11.354-4.958,7.848-9.568,8.991-15.621,14.716-1.187,1.123-1.94,2.641-2.945,3.531-1.982,1.755-8.543,3.715-11.042,2.963a56.827,56.827,0,0,1-5.939-4.285c-10.139-8.751-5.5-22.681,1-32.059m3.5,58.915c-3.739-.667-6.023-9.147-7.809-12.3-1.685-2.978-6.234-7.776-6.056-11.261.084-1.659,1.4-3.844,1.346-5.67.985.763,2.717,1.626,3.583,2.378,1.161,1.009,2.306,2.158,3.469,3.18,3.3,2.9,4.255,4.8,9.475,4.7,2.967-.059,6.271-3.546,9.038-4.627.656-.257,2.458-.855,2.91-.177a27.62,27.62,0,0,1-.206,3.563c-1.119,6.425-3.134,13.574-8.342,17.9a8.773,8.773,0,0,1-7.409,2.315M35.5,340.865,32.08,331.5c7.426-1.33,11.345-6.547,15.1-12.513l1.606-.44-.336,2.723c.646-.058.569-1.559,1.2-1.7,2.578-.589-.683,6.667-.174,7.838l1.7-5.452c3.156,1.91-.1,6.6,0,9.542a5.974,5.974,0,0,0,1.525-2.39,45.176,45.176,0,0,0,1.026-4.424c2.164,1.08,1.426,4.17.452,5.914-.363.65-1.4.4-.8,1.253l7,3.4L54.6,331.3l1.507-4.225c5.975,7.834,11,14.414,20.54,17.977,4.728,1.765,15.161,4.449,20.007,4.532,3.58.062,6.7-1.061,10.307.263,1.859.683,9.5,5.962,10.175,7.572.273.646-.824,2.861-1.262,3.512-1.671,2.48-5.459,4.8-8.464,3.632,2.969-4.946,1.006-13.67-5.285-14.657-1.258-.2.031,2.141-.173,2.39-2.922-1.146-7.038-2.317-9.875-.511-.029,1.124,8.982.773,9.985.916.637.195,3.408,4.2,3.578,4.954.614,2.723-3.006,6.525-5.589,6.883-12.779,1.771-20.807.034-32.608-4.488-8.713-3.339-11.275-5.575-18.1-11.384-4.448-3.785-8.413-5.661-13.846-7.8m6.977,6.322.7.675c.553,1.059-1.69,2.087-2.576,1.7Zm-4.94,2.378,2.906-3.747,1.031.681c-.28,2-1.992,2.986-3.938,3.066M19.675,352.67c2.481-.253,4.674.448,7.118.3,2.987-.183,6.466-1.464,9.554-1.692,2.652-.2,9.8-.167,12.086.856.551.247,1.568,1.68,2.235,2.2,3.979,3.077,7.948,5.88,12.77,7.513.077.634-.694.268-1.037.186-2.149-.515-4.226-1.618-6.459-1.891a7.989,7.989,0,0,0,2.976,1.622c3.14,1.3,6.5,2.04,9.64,3.317,0,.279-.784.365-1.072.335-3.431-.355-7.293-2.061-10.86-2.207l9.2,3.06c-2.317,1.357-4.6-.546-7.154-.333l3.746,1.7c-2.391.348-3.788.992-6.255.636-6.437-.929-13.291-3.629-19.646-5.238-5.336-1.351-10.15-2.716-15.681-1.193l.507-1.024-6.983,2.048.2-1.052c2.853-1.223,6.272-2.024,8.661-4.057l-9.324,3.092-.555-1.374,7.491-3.423c-2.724.343-5.341,1.95-7.835,3.064l-.345-1.015,6.477-3.413a26.281,26.281,0,0,0-4.609,1.352c-.991.335-2.622,1.8-2.888.183,1.962-2.2,5.176-3.256,8.045-3.548m31.493,17.693c-.352.876-1.992.506-2.721,1.021l-.341-2.048Zm-11.245,3.743-1.019.345-2.729-9.2,4.368,1.081,1.4,6.881c-.114.629-1.524.7-1.674.56-.211-.2-.934-4.641-1.28-5.712-.2-.624-.219-2.048-1.109-1.785Zm1.021-7.493c1.573-1.229,3.263,5.339,3.75,6.128l-2.045.347Zm2.391,1.183c-.24-.915.842-.162.92-.064a11.2,11.2,0,0,1,1.8,4.671c-.766.907-2.127-4.429-2.72-4.607M24.876,385.819c-.037.2-2.5,3.084-2.676,2.945a8.543,8.543,0,0,0-2.549-4.79c-.329-.335-1.2-.673-1.232-.883-.062-.45.431-1.209.366-1.963-.084-.976-1.438-2.8-1.806-4.02a29.055,29.055,0,0,1-.915-5.559,23.588,23.588,0,0,1,.393-5.394c.468-1.357,4.786-1.5,6.1-1.743.924-.169,1.776-.734,2.559-.85a18.088,18.088,0,0,1,6.932.7c.262,4.191,2.355,8.019,3.4,12.031l-10.9,7.521c-.769.646.441,1.384.323,2.01m-16.5-27.745c.17-.328,1.029-2.169,1.544-1.689,1.295,3.335,3,6.731,3,10.394,0,3.916-.292,6.332.5,10.481.195,1.023,1.27,2.984,1.19,3.785C14.29,384.234,8.1,386,5.857,387.936l-2.4,2.531c-1.514-10.139.155-23.222,4.923-32.393m6.342,39.4c-.956,6.251-.62,13.992-1.047,20.428-.282,4.255-.842,8.521-1.023,12.786L6.49,421.343c-.434-3.47-2.316-6.854-2.659-10.293-.522-5.217.764-8.775,1.278-13.637.338-3.192-1.008-5.875,2.309-7.917,1.3-.8,3.316-1.068,4.669-1.807.818-.447,3.325-3.03,3.738-2.967,2.75,1.493,3.217,4.382,3.568,7.247-1.471,1.556-4.325,3.217-4.676,5.509m17.36,81.615a9.679,9.679,0,0,1-4.155-3.852c-2.482-3.982-8.157-17.243-8.981-21.7-.25-1.348.253-4.745,1.043-5.81.428-.578,1.79.08,2.112.441a57.167,57.167,0,0,1,3.566,5.805,47.949,47.949,0,0,1,6.415,25.111m1.364-39.54-1.7-.513c5.008,2.891,7.737,7.707,11.247,12.1a11.109,11.109,0,0,1-3.654-.262c-1.891-.56-4.739-2.812-6.27-3.956-.547-.409-3.426-2.406-3.547-2.589a1.481,1.481,0,0,1-.162-1.028c.519-.527,4.751,3.173,5.79,3.407.016-.863-1.126-1.373-1.739-1.837a19.887,19.887,0,0,0-3.7-2.278l1.352-6.111Zm-.47-25.452c-.083,7.294-4.615,18.218-6,25.629l-2.9,7.654c-2.009-1.531-4.485-2.47-6.109-4.452-2.327-2.84-1.231-2.962-1.208-5.922.07-9.456.618-18.834.683-28.32.015-2.268-.33-4.169.138-6.651.962-5.11,5.56-9.737,10.071-11.913-.3,1.155,1.159,2.629,1.27,3.286.131.777-.53,2.738-.58,3.706-.353,6.731,4.7,11.01,4.635,16.981m30.808.228c-1.959-2.391-4.421-4.353-6.464-6.655a68.131,68.131,0,0,1-5.067-6.181c-1.694-2.571-2.806-6.5-5.849-7.96-.269-.39,1.312-.992,1.977-.6l5.011,6.742c-.009-2.561-2.558-4.9-4.255-6.645,2.166-2.185,3.866,2.366,5.785,3.238l.34-.679ZM93.5,382.74a47.8,47.8,0,0,1,3.345,9.432l-7.488-8.016c-1.176-1.4-4.542-5.391-5.092-6.843-.224-.591.123-.418.4-.55.389-.186,2.6-1.26,2.747-1.237.962.145,3.1,2.725,3.771,3.57A15.311,15.311,0,0,1,93.5,382.74m-5.884-11.535c-4.753,4.855-7.087,5.3-12.931,8.52-6.1,3.357-12.194,7.077-18.755,9.537-6.755,2.532-13.853,2.607-20.9,3.965l-.565-1.39,5.453-2.386L33.986,391.5l-.542-1.029,6.136-3.07-6.309,2.715-.508-1.01c2.31-.968,5.02-1.977,6.817-3.75-1.79-.082-6.079,3.084-7.337,3.056-.526-.012-1.49-.778-1.027-1.366l5.635-3.394a9.212,9.212,0,0,0-3.138,1.118c-1.323.653-3.146,2.67-4.012,1.095l3.743-2.894a10.358,10.358,0,0,0-4.6,2.329l-.826-.842.487-.809c3.929-2.905,7.185-5.732,11.772-7.657,9.542-4.006,23.083-5.131,31.209-10.021a3.434,3.434,0,0,1,3.207-.382l-.681,1.015,3.066-.335-1.017,1.7c1.486-.913,2.7-1.387,4.427-.678.3.4-3.034,1.718-2.382,2.382,1.845-.674,3.366-2.387,5.45-2.042l-2.043,1.532c1.41.533,2.58-1.523,4.089-1.532l-4.431,3.4c3.1-.551,5.246-4.08,8.522-3.743l-7.84,5.788a4.309,4.309,0,0,0,2.017-.877c1.862-1.081,5.408-4.033,6.933-4.657.531-.217,1.472-.5,1.956-.089-1.325,1.635-3.726,2.3-5.14,3.745M250.4,396.284c-.542.052-6.642-2.869-7.923-3.341-8.395-3.091-16.912-5.789-25.2-9.23-5.012-2.082-12.953-6.673-14.007-12.585-.24-1.349.907-3.733-.6-3.86-4.219-.355,1.239,9.148.856,9.567a145.318,145.318,0,0,0-16.544-.354c-.818.018-1.567.367-2.374.385-21.788.494-42.771.423-64.419-2.08-8.7-1.006-17.341-2.721-26.079-3.408l5.277-4.769,13.127,1.709-.343,1.017c.679.717,6.265-.238,7.167-.844.645-.434-.037-.788-.516-.86a29.726,29.726,0,0,0-4.261.174c2.791-3.3,6.016-6.658,6.819-11.079a21.316,21.316,0,0,1,3.738,4.269c2.562.6.285-2.015-.5-2.91-1.72-1.962-4.107-3.343-5.625-5.623-2.21-.958-7.547-7.041-9.638-6.6-.577.123-1.038.782-1.439.829a23.555,23.555,0,0,1-3.445-.845c-1.3-.615-1.6-2.431-2.862-3.1l1.358,3.066-2.571.2-2.878-3.268,1.7,3.407-1.836.024a8.019,8.019,0,0,0-3.272-4.112l2.721,3.922c-.345.557-.752-.118-1.022-.341a22.69,22.69,0,0,0-2.722-2.217l1.7,2.559c.336,1.079-4.2-2.826-4.26-3.239l-.337.679c-6.617-6.42-10.746-15.461-12.692-24.39l12.022-4.257c4.589.6,9.126,1.695,13.79,1.377l-2.995-.92c-2.314-.419-4.695-.5-7.016-.823-.428-.059-1.856-.14-1.915-.635,2.153-.381,4.136-1.823,6.141-2.553,4.507-1.643,9.728-2.9,14.379-4.368,1.508-.476,4.8-2.065,5.975-2.221.932-.123,3.633,1.139,5.075,1.256,6.35.512,2.856-4.253,3.2-4.725l26.423-7.158c.724,3.61.335,7.41.891,11.031.127.826.3,3.123,1.19,3.265a25.94,25.94,0,0,0,10.21-11.241c2.234.394,4.541.8,6.8,1.027,3.8.378,3.521.019,7.229,1.293,3.11,1.068,7.814,2.91,10.921,3.4.363.057,1.184.363,1.1-.251l-8.858-2.735c-.095-.563.842-.379,1.2-.351a53.513,53.513,0,0,1,8.073,1.815c2.927.805,6.468,1.639,8.789,3.649-1.823-.463-3.752-1.487-5.631-1.7-.727-.082-.622.267-.167.512,3.027,1.628,7.383,1.49,10.459,3.176,3.354,1.838,6.862,4.263,8.632,7.73l-11.758-3.581H192.29l0,1.362c6.868.358,14.753.541,20.431,4.967,3.3,2.569,3.676,5.084,2.586,9.016-.522,1.885-1.778,3.2-2.391,4.767-1.647,4.206-2.044,13.721-6.216,15.94-1.929,1.026-7.648,2.607-9.8,2.466-3.99-.262-3.821-2.017-6.133-4.1-.389-.351-1.952-1.763-1.881-.507l2.041,2.9a9.792,9.792,0,0,1-3.317-.43c-.425-.283-1.627-2.932-2.65-3.315l1.195,3.062a11.731,11.731,0,0,1-3.744-.513c-.716-.443-2.691-5.486-4.433-5.959l3.4,6.475c-3.168.754-3.96-1.893-6.131-3.407l2.723,4.085-2.222.986c-.417-.036-1.929-3.6-3.229-3.366-.567.622,2.145,3.165,2.381,3.922-1.084,1.564-3.4-2.927-4.085-2.218l2.385,3.4-1.2.609-2.549-1.965,1.7,2.72c-3.763.7-5.834,7.323-3.9,10.207,1.172,1.745,2.544,1.9,3.876,2.941,1.505,1.172,2.75,2.766,4.634,3.555l-.432.855c0,.177.413.594.6.676.77.344,6.2.3,7.293.146,1.316-.181,2.469-1.09,3.807-1.306,1.817-.293,4.557.178,6.025-.1,1.971-.367,6.137-3.589,8.362-4.606,10.4-4.75,24.3-6.019,35.54-7.75,5.985-.922,11.893-5.448,18.566-5.977a25.363,25.363,0,0,1,10.193.977c.586.4.208,6.64-.692,7.56a80.328,80.328,0,0,0-9.525.67c-4.373.336-8.949.2-13.312.365-7.332.283-14.474,2.637-21.783,3.372-1.909.192-12.755.147-13.11.7.128,2.549,3.251,2.058,5.115,2.528,12.944,3.262,27.385,4.773,38.477,12.312,3.3,2.242,5.266,6.2,7.857,9.173-1.177,1.928-3.512,2.592-4.946,3.9-.881.807-2.618,4.051-3.4,4.126M251.78,471.6a28.821,28.821,0,0,1-3.242,5.105c-.609-8.273,4.626-15.634,4.09-23.86l.682,1.363c1.193-.314.685-5.111.332-5.452l-1.014,1.019-.343-1.7,2.082.2,1.153,7.3a1.542,1.542,0,0,0,.528-1.514c-.031-.95-.924-6.1-.695-6.323l1.019,0c.058,2.528.236,5.784,1.266,8.1.19.427.75.4.793.651.308,1.807-5.4,12.821-6.652,15.117m8.514-80.784c.857.672.411,1.844.554,2.848,1.83,12.868,3.9,23.312,1.96,36.471-.356,2.412-1.317,7.955-2.862,9.75-.233.271-5.631,3.784-5.967,3.919a1.643,1.643,0,0,1-1.009.18c-1.273-4.825-1.58-9.838-2.483-14.734-1.235-6.7-3.679-10.261-1.427-17.293,1.013-3.162,3-6.121,4.172-9.122.779-1.993,2.032-8.562,3.156-9.456,1.076-.856,2.989-1.244,3.906-2.563m14.485-13.984c-3.607-1.284-6.556.65-9.793,1.285-.883.173-1.791-.041-2.613.115-3.39.641-4.305,2.023-7.522-.046-1.348-.867-2.416-2.31-3.849-2.968a115.971,115.971,0,0,0-24.281-7.42c-3.657-.732-7.319-.871-10.909-1.875-.082-.593.775-.321,1.187-.337,1.364-.051,2.909-.069,4.264,0l4.586-.694a49.207,49.207,0,0,0,11.774,1.373c.081-.483-.6-.494-.946-.579a65.5,65.5,0,0,0-6.679-.823c-.431-.061-1.856-.139-1.916-.636,1.738.331,3.612-.606,5.23-.558,2.341.07,5.233,1.272,7.722.892-1.376-1.39-4.007-.924-5.795-1.023-.655-.481,3.16-1,3.566-1.033,7.243-.53,28.286.088,34.954,1.887.778.21,2.326.468,2.4,1.364-.9,3.6-2.351,7.323-1.382,11.077m2.992,65.88-7.244,15.935-6.991,10.9a214.6,214.6,0,0,1,5.361-21.393c.314-.953,2.056-6.157,2.32-6.542a.656.656,0,0,1,.83-.349c.755,2.285,4.163.707,5.8-.007Zm3.143-39.805c-.848,8.4.505,17.906-.342,26.586-.142,1.446-.946,8.312-2.535,8.561-3.569.009-4.308-.965-5.2-4.227-2.181-7.97-2.479-19.638-2.16-27.864.3-7.709,3.649-14.634,5.641-21.969,1.37-5.046,1.566-9.376,4.192-14.215.172-.318.326-.75.745-.786l2.384,14.492c1.131,6.723-2.085,13.087-2.724,19.42m5.793-17.554c-.56.091-.316-.46-.337-.844-.279-5.171-.1-8.593-1.615-13.729-2.573-8.732-7.445-11.574-16.449-12.013.1-1.952,1.351-4.021,0-5.789,11.685,4.069,21.181,11.65,24.447,24.032a30.593,30.593,0,0,0-6.044,8.344m2.241,10.548c-2.976-4.238.265-9.774,2.793-13.525.311-.461,2.264-3.308,2.808-2.814l9.185,24.049c.308,2.467-.413,7.961-3.561,8.334-.761.09-.391-.105-.513-.5-1.916-6.249-7.19-10.527-10.711-15.54m12.841,34.017c-1.318,3.591-2.385,7.335-3.493,11-.493.069-.521-.928-.581-1.286a61.121,61.121,0,0,1,0-16.171L300,418.081l-1.015,6.475c1.293-1.1,1.914-3.39,2.281-5.043.59-2.657.037-4.577,2.318-6.544l-.85,7.5c.586.805,2.007-4.684,2.045-5.293.13-2.048-1.52-3.165.674-4.592,2.666,7.167-1.3,12.893-3.666,19.338" transform="translate(0 -147.746)"/>
      <path id="Path_224" data-name="Path 224" class="cls-7" d="M679.665,245.389a2.579,2.579,0,0,1,1.979-.078,6.613,6.613,0,0,1,1.14.488c-1.22-1.132-2.642-1.976-3.567-.085a2.057,2.057,0,0,1,.448-.325" transform="translate(-456.731 -164.476)"/>
      <path id="Path_225" data-name="Path 225" class="cls-7" d="M688.5,314.985a17.942,17.942,0,0,0-.271-2.394,20.85,20.85,0,0,0,.254,3.225,5.3,5.3,0,0,0,.017-.831" transform="translate(-462.791 -210.197)"/>
      <path id="Path_226" data-name="Path 226" class="cls-7" d="M682.576,327.174c-.39.029-.773.056-1.15.074a2.728,2.728,0,0,0,1.15-.074" transform="translate(-458.216 -220.003)"/>
      <path id="Path_227" data-name="Path 227" class="cls-7" d="M706.707,468.247c.228-.527.457-1.054.645-1.59a5.253,5.253,0,0,0-.625,1.432c-.008.051-.013.105-.02.157" transform="translate(-475.216 -313.797)"/>
      <path id="Path_228" data-name="Path 228" class="cls-7" d="M706.733,457.08a2.739,2.739,0,0,0-1.349-1.439,17.062,17.062,0,0,1,1.349,1.439" transform="translate(-474.327 -306.389)"/>
      <path id="Path_229" data-name="Path 229" class="cls-7" d="M703.452,521.6a5.255,5.255,0,0,0,1.363-.869Z" transform="translate(-473.027 -350.158)"/>
      <path id="Path_230" data-name="Path 230" d="M676.2,665.769a57.878,57.878,0,0,0,12.848,1.65l-2.655-.919c-3.649-.521-7.286-1.277-10.978-1.464-.153.93.222.583.785.733" transform="translate(-454.152 -447.194)"/>
      <path id="Path_231" data-name="Path 231" class="cls-7" d="M340.015,459.965a18.86,18.86,0,0,0,1.178,1.911c-.386-.656-.784-1.288-1.178-1.911" transform="translate(-228.639 -309.297)"/>
      <path id="Path_232" data-name="Path 232" class="cls-7" d="M249.5,498.411l11.813-4.365c-1.336.446-2.676.879-4.012,1.324a65.456,65.456,0,0,0-7.8,3.041" transform="translate(-167.771 -332.214)"/>
      <path id="Path_233" data-name="Path 233" class="cls-7" d="M480.173,402.939a12.283,12.283,0,0,0-3.018,4.142,23.621,23.621,0,0,1,3.018-4.142" transform="translate(-320.857 -270.951)"/>
      <path id="Path_234" data-name="Path 234" d="M378.935,457.747a2.349,2.349,0,0,1-1.922-1.324c.118,1,.4,1.786,1.06,1.791l1.668-.5a3.871,3.871,0,0,1-.806.038" transform="translate(-253.518 -306.915)"/>
      <path id="Path_235" data-name="Path 235" class="cls-7" d="M303.552,484.268l4.123-1.524c-.588.171-1.172.352-1.751.552-.81.28-1.586.635-2.373.972" transform="translate(-204.12 -324.615)"/>
      <path id="Path_236" data-name="Path 236" d="M601.707,286.023c.652,1.734,1.323,3.461,1.912,5.217.578,1.724,1.016,3.491,1.52,5.237a32.6,32.6,0,0,0,1.829,5.067,15.5,15.5,0,0,0,1.69,2.693,23.557,23.557,0,0,1-1.4-2.506c-2.946-6.274-4.087-13.705-6.488-20.1-.336-.894-1.11-2.21-1.812-3.636.042.123.083.247.126.37.889,2.549,1.674,5.129,2.624,7.657" transform="translate(-402.76 -186.934)"/>
      <path id="Path_237" data-name="Path 237" d="M599.216,254.337a3.47,3.47,0,0,0-1.209-.242,2.529,2.529,0,0,0-2.245,1.765c-.017.047-.027.1-.041.144a3.055,3.055,0,0,1,1.613-1.4,3.646,3.646,0,0,1,1.881-.27" transform="translate(-400.585 -170.862)"/>
      <path id="Path_238" data-name="Path 238" d="M652.622,304.09a21.91,21.91,0,0,1-4.653-3.845,51.951,51.951,0,0,1-4.449-5.831q-.383-.539-.769-1.078c2.237,3.448,4.6,7.178,6.79,9.284a6.331,6.331,0,0,0,3.706,1.813c-.217-.111-.427-.227-.625-.343" transform="translate(-432.21 -197.249)"/>
      <path id="Path_239" data-name="Path 239" d="M680.8,276.588c.182.754.371,1.506.556,2.26-.013-.134-.026-.268-.043-.4-.408-3.275-2.308-7.085-3.112-10.78.063.346.134.689.212,1.028.62,2.685,1.744,5.22,2.388,7.894" transform="translate(-456.05 -179.989)"/>
      <path id="Path_240" data-name="Path 240" d="M220.382,311.663c.016-.136.039-.271.052-.409.107-1.121.151-2.248.146-3.374a23.2,23.2,0,0,0-.2,3.782" transform="translate(-148.177 -207.03)"/>
      <path id="Path_241" data-name="Path 241" d="M784.982,395.9a25.269,25.269,0,0,0-2.839-7.482c-.855-1.578-1.79-3.1-2.772-4.6a97.7,97.7,0,0,1,5.807,13.31c-.058-.412-.121-.823-.2-1.232" transform="translate(-524.078 -258.096)"/>
      <path id="Path_242" data-name="Path 242" d="M780.6,547.427l.272-.147c.066-.294.138-.586.219-.877Z" transform="translate(-524.904 -367.421)"/>
      <path id="Path_243" data-name="Path 243" d="M641.035,392.844a6.115,6.115,0,0,1,.361-1.483l-.332.144a7.387,7.387,0,0,0-.029,1.339" transform="translate(-431.044 -263.165)"/>
      <path id="Path_245" data-name="Path 245" d="M386.408,640.658l-.51-1.7c.879.369,4.077,4.206,4.943,3.4l-1.534-3.4c1.991,1.277,2.17,4.425,4.944,3.744.278-.2-2.434-3.02-1.876-3.744.887.9,3.46,5.161,4.944,4.085-.769-1.229-1.992-2.386-2.587-3.716-.22-.493-.234-.962.366-.709,1.184.5,2.928,5.011,4.946,4.425-.2-.545-.862-.631-1.361-1.191a6.8,6.8,0,0,1-1.7-2.9l3.856,3.712,1.247-.815-3.061-3.917c.64-.149.811.356,1.194.677.768.645,2.334,2.806,2.632,3.011.929.639,4-.976,5.036-1.31-.64-.994-1.872-1.676-1.7-3.063a4.072,4.072,0,0,1,2.053,2.728l1.354-.345-1.361-3.406,3.383,4.227c-.208.874-8.033,4.527-9.345,4.982a17.649,17.649,0,0,1-11.068-.193c-.845-.266-8.585-4.169-9-4.554s-.19-1.122-.484-1.635c-.741-1.292-2.3-2.708-2.294-4.189,2.168,2.533,3.524,4.971,6.986,5.793" transform="translate(-255.137 -426.906)"/>
      <path id="Path_246" data-name="Path 246" d="M411.528,505.772c-.517.547-2.988,1.089-3.82,1.126a45.045,45.045,0,0,1-7.435-.77c-2.411-.577-1.973-3.769.35-4.307,1.982.469,4.036.107,6.013.331,1.446.164,7.282,1.092,4.892,3.621" transform="translate(-268.075 -337.442)"/>
      <path id="Path_247" data-name="Path 247" d="M502.823,679.228h5.795l-6.265-2.086c-.386-.235-.793-.5-.217-.817,2.579-1.433,7.42,2.374,9.412,2.559,1.383.128,4.366-.731,5.787-.65.568.033.821.464,1.162.823a2.208,2.208,0,0,1-.936.761c-1.6.629-8.809,1.1-10.832,1.124-.938.01-3.939-.469-3.906-1.715" transform="translate(-337.462 -454.569)"/>
      <path id="Path_248" data-name="Path 248" d="M638.471,689.849c-.431.407-3.6-2.075-4.1-2.547-.639-.608-5.408-6.184-3.225-6.653.384-.083,4.08,5.051,4.928,5.632Z" transform="translate(-424.027 -457.693)"/>
      <path id="Path_249" data-name="Path 249" d="M656.255,683.443c-1.846.12-3.658-.871-5.218-1.767-1.238-.711-3.279-1.881-3.643-3.341,1.046-.893,8.086,3.734,8.861,5.108" transform="translate(-435.332 -456.061)"/>
      <path id="Path_250" data-name="Path 250" d="M682.187,715.281l-.171.679c-1.041.1-8.682-2.388-9.5-3.047-.391-.315-.182-.644-.211-1.046,3.538.142,6.769,1.894,9.882,3.413" transform="translate(-452.063 -478.686)"/>
      <path id="Path_251" data-name="Path 251" d="M511.582,671.523l-9.885-2.389,0-1.015c3.414-.175,7.566.738,9.887,3.4" transform="translate(-337.358 -449.254)"/>
      <path id="Path_252" data-name="Path 252" d="M695.082,710.33a18.6,18.6,0,0,1-6.2-1.808c-1.257-.568-3.73-1.551-4.025-2.959.408-.4,9.67,3.316,10.224,4.767" transform="translate(-460.524 -474.426)"/>
      <path id="Path_253" data-name="Path 253" d="M311.979,678.042c-1.108-.124-2.718-.9-3.919-1.027-.274-1.01.846-.709,1.548-.693a32.976,32.976,0,0,1,6.864.993c.576.165.949-.257.79.727-1.694-.135-3.625.187-5.284,0" transform="translate(-207.122 -454.747)"/>
      <path id="Path_254" data-name="Path 254" d="M647.533,688.846a21.408,21.408,0,0,1-3.41-2.211c-.556-.463-4.53-4.482-4.084-4.945l6.816,5.962Z" transform="translate(-430.363 -458.393)"/>
      <path id="Path_255" data-name="Path 255" d="M378.908,685.713c.541.068,2.274.431,2.219,1.19a10.037,10.037,0,0,1-5.816.022c-.584-.141-1.971-.394-1.686-1.211,1.678.15,3.649-.206,5.284,0" transform="translate(-251.213 -461.054)"/>
      <path id="Path_256" data-name="Path 256" d="M344.554,683.531c-.1-.433.661-.566.94-.6.862-.107,6.883.376,6.891,1.116-2.264,1.4-5.373-.4-7.831-.515" transform="translate(-231.685 -459.218)"/>
      <path id="Path_257" data-name="Path 257" d="M541.717,480.142c-.228.6-2.033.388-2.567.35a19.379,19.379,0,0,1-4.586-.884c-.544-.22-.836.041-.682-.832a23.434,23.434,0,0,1,7.836,1.366" transform="translate(-358.974 -321.946)"/>
      <path id="Path_258" data-name="Path 258" d="M370.8,668.941c-2.538.042-5.264.179-7.5-1.188.458-.7.794-.385,1.351-.363,1.658.066,5.105.3,6.146,1.551" transform="translate(-244.299 -448.717)"/>
      <path id="Path_259" data-name="Path 259" d="M377.986,677.725l0,1.018-5.8-.681c-.565-.423.037-.621.507-.681a22.483,22.483,0,0,1,5.291.344" transform="translate(-250.12 -455.45)"/>
      <path id="Path_260" data-name="Path 260" d="M585.783,479.439c.082.6-.774.337-1.148.3a24.981,24.981,0,0,1-5.258-1.238c-.518-.206-.924.2-.746-.767Z" transform="translate(-389.065 -321.244)"/>
      <path id="Path_261" data-name="Path 261" d="M372.6,661.068c-.3,1.147-4.083.805-4.083.166,1.045-1.025,2.846-.449,4.083-.166" transform="translate(-247.807 -444.245)"/>
      <path id="Path_262" data-name="Path 262" d="M102.236,327.788c.936,1.214-5.831,13.519-8.517,13.973-.48-.6,4.566-8.693,5.309-9.856s1.513-2.368,2.33-3.474c.283-.383,0-.847.878-.643" transform="translate(-62.999 -220.383)"/>
      <path id="Path_263" data-name="Path 263" d="M111.7,342.349c1.115,1.293-4.478,9.138-6.471,9.542.339-1.969,1.839-4.046,2.989-5.7.3-.429,3-4.4,3.482-3.843" transform="translate(-70.762 -230.172)"/>
      <path id="Path_264" data-name="Path 264" d="M105.227,430.683l4.4-2.582c2.51-1.863,4.784-4.558,7.22-6.414.486-.371,1.194-1.22,1.665-.374a59.881,59.881,0,0,1-6.7,6.243c-1.794,1.339-4.311,3.374-6.582,3.127" transform="translate(-70.759 -283.062)"/>
      <path id="Path_265" data-name="Path 265" d="M90.663,338.792l6.47-10.907c.917,1.587-6.042,11.39-6.47,10.907" transform="translate(-60.965 -220.482)"/>
      <path id="Path_266" data-name="Path 266" d="M102.1,428.746l4.428-4.087c.646.816-3.283,4.3-4.428,4.087" transform="translate(-68.656 -285.556)"/>
      <path id="Path_267" data-name="Path 267" d="M101.059,436.013c1.5-2.008,3.652-3.391,5.45-5.109.149.639-.355.811-.677,1.194-1.134,1.348-3.083,3.441-4.773,3.916" transform="translate(-67.956 -289.755)"/>
      <path id="Path_268" data-name="Path 268" d="M123.042,552.515a44.258,44.258,0,0,1,12.236,7.528l-12.5-6.768-1.809,2.144,5.447,4.283-6.306-3.627-2.214,1.073,2.725,2.214c-1.186.094-4.659-3.354-5.452-1.529a13.661,13.661,0,0,1,2.345,1.4c.528.38,1.562.744,1.4,1.492-3.216-1.441-5.915-3.61-9.538-3.754-.093-.445.63-.542.931-.589,2.968-.468,5.7,1.318,8.587-.623,3.171-2.132,3.417-6.382,5.309-9.348Z" transform="translate(-73.542 -367.428)"/>
      <path id="Path_269" data-name="Path 269" d="M285.655,632.059c-.128.619-.67.633-1.18.69-2.792.313-8.356-.506-11.254-1.048-.553-.1-.594.234-.519-.666,4.3-.836,8.768-.031,12.953,1.023" transform="translate(-183.356 -424.098)"/>
      <path id="Path_270" data-name="Path 270" d="M277.691,644.178a39.244,39.244,0,0,1-6.852-1.329c-.491-.184-.974-.174-.3-.721l9.143,1.084,3.977.966c-1.94-.121-4.048.167-5.965,0" transform="translate(-181.698 -431.79)"/>
      <path id="Path_271" data-name="Path 271" d="M270.5,650.42c-.1.664-1.7.334-2.17.293a63.749,63.749,0,0,1-6.857-.983c-.487-.108-1.057.017-1.2-.674,3.3-.688,6.954.7,10.223,1.363" transform="translate(-175.02 -436.324)"/>
      <path id="Path_272" data-name="Path 272" d="M728.8,429.654c-.374.375-3.039-2.473-3.416-2.886-1.025-1.124-4.868-6.038-5.044-7.243a.889.889,0,0,1,.457-1.115c.733-.156,3.023,2.983,3.511,3.641.535.721,4.808,7.289,4.493,7.6" transform="translate(-484.362 -281.35)"/>
      <path id="Path_273" data-name="Path 273" d="M708.8,423.28c-5.551-1.207-7.429-7.429-10.574-11.408a71.975,71.975,0,0,0-8.173-8.014c1.772.273,3.518,1.991,4.78,3.226,3.726,3.649,5.757,7.823,8.862,11.59,1.521,1.846,3.447,2.976,5.105,4.606" transform="translate(-464.019 -271.569)"/>
      <path id="Path_274" data-name="Path 274" d="M752.022,388.734l-6.814-9.882c.644-.112.978.445,1.372.84,2.238,2.241,4.883,5.9,5.442,9.041" transform="translate(-501.106 -254.744)"/>
      <path id="Path_275" data-name="Path 275" d="M735.648,425.116c.677.6,4.357,5.41,3.858,6.02-1.236-.217-5.212-5.9-4.765-6.476a3.286,3.286,0,0,1,.907.456" transform="translate(-494.043 -285.557)"/>
      <path id="Path_276" data-name="Path 276" d="M622.547,626.544a54.007,54.007,0,0,1-8.518,7.155c-.186-.754.436-.76.779-1.092,1.1-1.06,2.632-2.359,3.828-3.33a17.525,17.525,0,0,1,3.911-2.732" transform="translate(-412.873 -421.311)"/>
      <path id="Path_277" data-name="Path 277" d="M620.906,625.487c.318.281-5.7,4.9-6.817,4.424a8.712,8.712,0,0,1,2.414-1.843c.52-.339,4.212-2.751,4.4-2.582" transform="translate(-412.936 -420.594)"/>
      <path id="Path_278" data-name="Path 278" d="M74.742,867.952c.135,3.167-.076,7.525-3.229,9.2-1.171-.252.226-3.533.5-4.267a13.884,13.884,0,0,1,2.732-4.934" transform="translate(-47.778 -583.643)"/>
      <path id="Path_279" data-name="Path 279" d="M64.642,873.335a60.017,60.017,0,0,1,1.533-6.815c.234-.785.515-2.254,1.189-2.726-.383,2.545-.674,6.094-1.6,8.453-.223.571-.3,1.217-1.125,1.088" transform="translate(-43.468 -580.847)"/>
      <path id="Path_280" data-name="Path 280" d="M58.081,871.613c-1.422.269-.045-2.051-.235-2.8l1.941-6.064c.271,3.075-.927,5.962-1.706,8.86" transform="translate(-38.618 -580.147)"/>
      <path id="Path_281" data-name="Path 281" d="M53.194,876.135a43.14,43.14,0,0,1,.381-5.921c.07-.516.167-2.057.635-2.256.845,2.386-.35,4.837,0,7.324Z" transform="translate(-35.769 -583.647)"/>
      <path id="Path_282" data-name="Path 282" d="M99.914,900.819l-2.89-1.708-3.243-3.059a14.707,14.707,0,0,1,6.134,4.767" transform="translate(-63.061 -602.538)"/>
      <g id="Group_302" data-name="Group 302" transform="translate(8.562 0)">
        <path id="Path_222" data-name="Path 222" class="cls-8" d="M32.808,387.029a47.732,47.732,0,0,1,1.55-5.561,27.413,27.413,0,0,1,1.307-2.885l-9.525,3.332a54.164,54.164,0,0,1,6.627,5.276c.013-.054.028-.108.041-.162" transform="translate(-26.139 -254.573)"/>
        <path id="Path_244" data-name="Path 244" class="cls-8" d="M628.452,436.184c.487-.2,1.063-.4,1.616-.662l1.363-.869a2.25,2.25,0,0,0,.77-1.543,9.9,9.9,0,0,0-.266-2.529c-.2-1.017-.463-2.023-.721-3.027a22.192,22.192,0,0,1-1.067-5.462,9.17,9.17,0,0,1,.987-3.562c.007-.051.012-.106.02-.157a5.264,5.264,0,0,1,.625-1.432,8.128,8.128,0,0,0,.317-1.129,2.04,2.04,0,0,0-.046-1.041,17.137,17.137,0,0,0-1.349-1.439,18.971,18.971,0,0,0-2.234-.974,17.168,17.168,0,0,1-2.962-1.7q-1.883-1.261-3.673-2.654a65.322,65.322,0,0,1-6.81-5.991c-.856-.878-1.764-1.687-2.668-2.516A12.734,12.734,0,0,1,610,396.818a6.863,6.863,0,0,1-1.046-3.87c0-.075.012-.15.018-.225L594.32,399.1l32.327,37.9c.587-.3,1.19-.564,1.805-.811" transform="translate(-408.205 -264.081)"/>
        <path id="Path_283" data-name="Path 283" class="cls-8" d="M266.718,83.06l37.129,45.1L299.415,0,170.567,41.245l5.119,63.4c.147-.075.286-.159.422-.245.741-1.157,1.407-2.361,2.054-3.572.745-1.393,1.455-2.811,2.289-4.155.083-.134.168-.268.255-.4a8.128,8.128,0,0,1,.953-1.5,3.843,3.843,0,0,1,.565-.468,8.064,8.064,0,0,1,.946-.861,2.9,2.9,0,0,1,1.557-.66.379.379,0,0,1,.043-.011.4.4,0,0,1,.116.013,1.571,1.571,0,0,1,.488.1,2.048,2.048,0,0,1,.915.731,2.1,2.1,0,0,1,.31.288,4.234,4.234,0,0,1,.689,2.311c.108.538.181,1.084.24,1.623a29.576,29.576,0,0,1,.153,3.755,31.138,31.138,0,0,1-.23,3.4l-.421,1.076,9.68-2.634c2.244-.6,4.45-1.215,6.244-1.682,1.642-.427,3.281-.883,4.917-1.355l.083-.023.53-.156q1-.291,2-.588Z" transform="translate(-123.258 0.002)"/>
        <path id="Path_284" data-name="Path 284" class="cls-8" d="M281.573,305.394c-2.02-2.632-4.274-5.107-6.514-7.593l-11.078-14.3c-2.71-4.028-5.383-8.122-8.316-11.853-2.33-2.964-5.17-5.574-7.492-8.55l-.431-.09c-2.363.835-4.869,1.22-7.253,1.967q-5.3,1.662-10.644,3.376l-61.025,17.494c-.1.4-.211.806-.316,1.208a126.748,126.748,0,0,1-4.857,14.566,8.182,8.182,0,0,0-.708,3.071,9.59,9.59,0,0,1-.392,3.016,14.118,14.118,0,0,1-1.315,2.7c-.607,1.039-1.2,2.089-1.813,3.123a62.366,62.366,0,0,1-8.571,11.546,40.152,40.152,0,0,1-4.063,3.7,22.079,22.079,0,0,0-1.955,1.66,2.332,2.332,0,0,0-.915,1.657,3.207,3.207,0,0,0,.079.568c2.876,3.776,6.979,6.653,10.447,9.865,1.143,1.059,6.441,6.871,7.323,6.873l12.8-4.729a52.4,52.4,0,0,1,12.433-5.416c2.2-.726,4.415-1.431,6.589-2.24,1.921-.716,3.763-1.632,5.723-2.242,1.893-.589,3.826-1.042,5.722-1.618a16.725,16.725,0,0,0,4.68-2.019c-.414-.5-.81-1.023-1.173-1.565a19.186,19.186,0,0,1-2.834-6.759,11.14,11.14,0,0,1-.487-2.765,13.374,13.374,0,0,1,.193-2.51,12.542,12.542,0,0,1,1.16-4.3c.852-2.084,2.107-3.713,3.775-3.459.222.034.439.078.654.126a4.75,4.75,0,0,1,1.093.078,8.456,8.456,0,0,1,3.472,1.7,9.839,9.839,0,0,1,2.781,3.371,23.753,23.753,0,0,1,1.609,4.25,8.82,8.82,0,0,1,.321,2.616,16.006,16.006,0,0,0,.07,2.739c.2,1.216.767,2.6,2.194,2.535a17.091,17.091,0,0,0,3.624-1c2.845-.8,5.663-1.69,8.5-2.5,1.778-.509,3.579-.939,5.369-1.4,2.046-.526,4.1-1.054,6.11-1.691a19.6,19.6,0,0,0,2.16-.78,4.294,4.294,0,0,0,.663-.353c.085-.059.055-.055.152-.129.022-.016.007.018.017-.038a.279.279,0,0,1,.388-.216,4.207,4.207,0,0,0,.291-.364c1.582-2.241,2.063-5.047,3.486-7.387a11.407,11.407,0,0,1,2.845-3.174,6.231,6.231,0,0,1,3.271-1.38c2.109-.144,3.694,1.458,4.538,3.235a12.4,12.4,0,0,1,1.094,5.922l18.921-6.644c.32-.44-1.974-3.357-2.4-3.906" transform="translate(-105.336 -176.856)"/>
        <path id="Path_285" data-name="Path 285" class="cls-8" d="M810.848,373.3c-.2-.394-1.591-2.293-2.8-3.828l-26.531,13.544-3.212-28.832,11.1-9.091L774.7,325.222l-17.04,7.351c-.178.205,1.015,2.089,2.306,4.022q.85,1.133,1.692,2.27A76.787,76.787,0,0,1,769,350.43a23.09,23.09,0,0,1,2.167,6.89c.33,2.229.433,4.483.693,6.72a.319.319,0,0,1,.171.135,16.182,16.182,0,0,1,2.505,8.99c-.049,5.915-2.457,11.6-4.865,16.9-.6,1.321-1.218,2.635-1.826,3.952a24.179,24.179,0,0,0-1.634,4.115l44.617-24.153c.592-.393.189-.351.021-.679" transform="translate(-518.027 -218.691)"/>
        <path id="Path_286" data-name="Path 286" class="cls-8" d="M823.946,423.8l26.531-13.544h0l-18.639-24.379-11.1,9.091Z" transform="translate(-560.455 -259.477)"/>
        <path id="Path_287" data-name="Path 287" class="cls-8" d="M643.855,56.057l0-1.417L604.037,26.977l.087-.065q-2.6-1.733-5.186-3.477l-14.269-9.912c-4.571-3.305-9.066-6.715-13.436-10.3l-.846.522c.932,1.648.234,2.626.306,4.079.888,17.894,1.609,35.845,2.405,53.869,1,22.587,1.461,45.255,2.738,67.82.086,1.525-.055,3.073.006,4.6,6.134-1.739,11.672-4.889,17.414-7.543a8.268,8.268,0,0,0-1.4-2.936c-.821-1.206-1.779-2.31-2.684-3.452a16.688,16.688,0,0,1-2.255-3.678c-1.463-3.311-2.116-6.89-3.288-10.3-.611-1.776-1.3-3.524-1.953-5.284-.535-1.435-1-2.883-1.461-4.342a59.317,59.317,0,0,1-2.119-6.766,5.461,5.461,0,0,1,.035-2.909,3.815,3.815,0,0,1,1.089-1.522,3.047,3.047,0,0,1,3.021-.4,11.008,11.008,0,0,1,3.55,2.314,38.087,38.087,0,0,1,3.807,4.018c2.421,2.884,4.6,5.958,6.778,9.028a34.023,34.023,0,0,0,4.938,5.859c1.468,1.321,3.239,2.778,5.226,3.18.074.015.148.025.223.035.376-.018.76-.045,1.15-.073a2.022,2.022,0,0,0,.808-.457,1.69,1.69,0,0,0,.524-1.095,20.894,20.894,0,0,1-.254-3.225c-.243-1.39-.608-2.769-.944-4.119-.192-.773-.341-1.573-.574-2.335-.456-1.493-.994-2.96-1.462-4.449-.858-2.733-1.717-5.879-.844-8.718a3.506,3.506,0,0,1,.871-1.534c.925-1.89,2.347-1.047,3.567.085a15.947,15.947,0,0,1,3.4,2.717c1.178,1.147,2.264,2.381,3.327,3.634a3.6,3.6,0,0,1,1.111.994,13.758,13.758,0,0,1,1.378,2.186c.808,1.529,1.505,3.125,2.216,4.7,1.285,2.847,2.49,5.751,3.878,8.556.9,1.5,1.82,2.976,2.8,4.419a12.2,12.2,0,0,0,2.308,2.791c1.146.5,11.962-5.122,13.651-6.2l.178-51.176c0-.016,0-.031,0-.047Z" transform="translate(-392.111 -2.167)"/>
      </g>
    </g>
    <g id="Group_9288" data-name="Group 9288" transform="translate(0 368)">
      <g id="Path_130" data-name="Path 130" transform="translate(38 403)">
        <path class="cls-18" d="M 173.71875 42.53222274780273 L 0.5000054240226746 42.53222274780273 L 0.5000054240226746 0.5000045895576477 L 173.71875 0.5000045895576477 L 173.71875 42.53222274780273 Z"/>
        <path class="cls-19" d="M 0.9999847412109375 1 L 0.9999847412109375 42.0322265625 L 173.2187347412109 42.0322265625 L 173.2187347412109 1 L 0.9999847412109375 1 M -1.52587890625e-05 0 L 174.2187347412109 0 L 174.2187347412109 43.0322265625 L -1.52587890625e-05 43.0322265625 L -1.52587890625e-05 0 Z"/>
      </g>
      <text id="Start_a_project" data-name="Start a project" class="cls-9" transform="translate(74 429)"><tspan x="0" y="0">Start A Project</tspan></text>
      <g id="Group_8861" data-name="Group 8861" transform="translate(40.317 406.366)">
        <line id="Line_17" data-name="Line 17" class="cls-10" y2="42.634" transform="translate(174.683)"/>
        <line id="Line_18" data-name="Line 18" class="cls-10" x2="174.683" transform="translate(0 42.634)"/>
      </g>
    </g>
    <g id="Group_9287" data-name="Group 9287" transform="translate(-29.867 341)">
      <text id="View_our_services" data-name="View our services" class="cls-11" transform="translate(398.22 458)"><tspan x="-128.492" y="0">View Our Services</tspan></text>
      <path id="_9110843_arrow_bottom_right_icon_1_" data-name="9110843_arrow_bottom_right_icon (1)" class="cls-12" d="M14.307,13.344V8.179h1.362v7.49H8.179V14.307h5.165L4.293,5.256l.963-.963Z" transform="translate(404.197 443.02)"/>
    </g>
    <g id="Component_98_31" data-name="Component 98 – 31">
      <rect id="Rectangle_4016" data-name="Rectangle 4016" class="cls-13" width="430" height="79"/>
      <g id="Group_9284" data-name="Group 9284" transform="translate(-117 -12.977)">
        <g id="Group_9283" data-name="Group 9283" transform="translate(155 39)">
          <path id="Path_1" data-name="Path 1" d="M49.581,35.19c-3.117-1.056-5.608-3.43-5.691-7.288-.1-4.581,3.023-8.105,7.263-8.2a7.642,7.642,0,0,1,5.727,2.309l.522.611,3.822-3.89-.444-.513A12.961,12.961,0,0,0,51.036,14.3a14.167,14.167,0,0,0-2.219.222,9.484,9.484,0,0,0-7.7,7.378c-1.141,5.8,2.224,12.288,8.466,13.286Z" transform="translate(-37.409 -14.301)"/>
          <path id="Path_2" data-name="Path 2" d="M30.472,48.366l-.51.654a7.945,7.945,0,0,1-6.051,2.731A7.413,7.413,0,0,1,22,51.494c-8.4-1.53-11.318-13.619-5.124-19.188a.034.034,0,0,0-.039-.054A13.247,13.247,0,0,0,10.72,43.715,13.023,13.023,0,0,0,23.911,57.151a13.036,13.036,0,0,0,10.022-4.46l.4-.517-3.861-3.81Z" transform="translate(-10.72 -30.172)"/>
        </g>
        <path id="Path_7821" data-name="Path 7821" d="M257.432,20.478h-3.155v15.6h3.155c3.623,0,7.291-2.679,7.291-7.8a8.612,8.612,0,0,0-1.282-4.571c2.85,3.184,3.857,11.653-4.686,16.184a13.286,13.286,0,0,1-6.17,1.846H248.4V14.82h8.959c7.717,0,13.316,5.662,13.316,13.462s-5.6,13.458-13.316,13.458H255.88c9.635-3.112,11.319-10.4,9.907-15.08a8.636,8.636,0,0,0-5.727-5.871,7.612,7.612,0,0,0-2.627-.31Z" transform="translate(-65.93 24.24)"/>
        <path id="Path_7822" data-name="Path 7822" d="M454.252,15.21,443.56,42.084h6.16l2.314-5.862,10.124-.151,2.218,6.013h6.16l-6.569-16.3s-.14,7.387-11.052,7.439l4.134-11.009s5.5,8.632-2.473,10.377c0,0,8.6-.786,8.8-7.364L459.841,15.21h-5.589Z" transform="translate(-238.536 23.895)"/>
      </g>
      <g id="Group_9285" data-name="Group 9285" transform="translate(-1372.48 -20.823)">
        <line id="Line_179" data-name="Line 179" class="cls-14" x2="25.48" transform="translate(1738 52)"/>
        <line id="Line_180" data-name="Line 180" class="cls-14" x2="15.5" transform="translate(1747.98 60.439)"/>
        <line id="Line_181" data-name="Line 181" class="cls-14" x2="21.892" transform="translate(1741.588 68.879)"/>
      </g>
      <line id="Line_205" data-name="Line 205" class="cls-15" x2="430" transform="translate(0 79)"/>
    </g>
    <g id="Group_9661" data-name="Group 9661">
      <rect id="Rectangle_4137" data-name="Rectangle 4137" width="430" height="58" transform="translate(430 932) rotate(180)"/>
      <g id="Group_9660" data-name="Group 9660" transform="translate(-143.219 450)">
        <text id="Start_a_project-2" data-name="Start a project" class="cls-16" transform="translate(398.22 458)"><tspan x="-102.27" y="0">Start A Project</tspan></text>
        <path id="_9110843_arrow_bottom_right_icon_1_2" data-name="9110843_arrow_bottom_right_icon (1)" class="cls-17" d="M14.307,13.344V8.179h1.362v7.49H8.179V14.307h5.165L4.293,5.256l.963-.963Z" transform="translate(404.197 443.02)"/>
      </g>
    </g>
  </g>
</svg>
