<svg xmlns="http://www.w3.org/2000/svg" id="Component_111_9" width="560.724" height="323.177" data-name="Component 111 – 9" viewBox="0 0 560.724 323.177"><defs><style>.cls-1{fill:#ff5c8a}</style></defs><g id="Group_9074" data-name="Group 9074" transform="translate(1821.502 -2817)"><path id="Path_7045" d="M-3018.12-9659.794l-5.063-1.886s-1.439-7.61-1.5-8.037,0-10.522,0-10.522l5.684-2.5s.819,5.094.884,6.037,0,8.911,0,8.911Z" class="cls-1" data-name="Path 7045" transform="translate(1261.405 12730)"/><g id="Group_9062" data-name="Group 9062" transform="translate(-3118.716 2360.112)"><path id="Path_7048" d="M1517.12,726.785l-8.126-1.928s-2.934-3.686-3.077-4.15-1.61-4.759-1.61-4.759l5.894-1s4.835,1.976,5.506,2.294a12.656,12.656,0,0,1,3,3.958,30.94,30.94,0,0,1,0,3.659Z" class="cls-1" data-name="Path 7048"/><path id="Path_7047" d="M1475.337,738.969s-6.421-5.983-7.152-7.067-5.375-13.638-5.375-13.638l6.763-5.078s5.089,7.067,5.124,7.491,1.677,7.081,1.747,7.788S1475.337,738.969,1475.337,738.969Z" class="cls-1" data-name="Path 7047"/><path id="Path_7046" d="M1379.431,759.121c-.461-.132-4.436-22.13-4.436-22.13l2.242-6.129s4.971,6.468,5.361,7.117,3.23,13.82,3.23,13.82-2.775,6.414-3.23,6.576S1379.431,759.121,1379.431,759.121Z" class="cls-1" data-name="Path 7046"/><path id="Path_5842" d="M325.08,104.721c4.8-5.276,10.2-10.077,15.044-15.312,9.66-10.438,23.011-28.7,37.05-32.751,21.457-6.192,31.126,18.91,33.032,35.875,2.461,21.879,2.162,36.036-15.31,51.064-4.977,4.281-11.613,7.33-17.6,9.931,5.11,5.77,12.57,11.018,17.263,17.062,2.7,3.473,4.809,8.271,7.252,12.038,3.586,5.529,7.1,7.925,8.932,14.905,7.134,27.116-8.625,58.886-29.771,75.69-8.367,6.647-31.43,10.355-41.844,8.944-8.507-1.153-18.35-8.231-25.4-12.9l13.153,26.283c.819,2.252,1.923,4.224,1.3,6.662,4.352,2.27,9.173,2.777,9.414,8.746.4,9.78-11.731,5.62-15.724-.188-.723-1.055-.982-2.815-1.622-3.485-1.258-1.316-5.743-2.034-7.91-4.575-3.556-4.166-7.164-20.292-9.386-26.363-.542-1.486-3.214-8.643-3.726-9.323-.573-.761-2.164-1.122-3.114-1.994A140.978,140.978,0,0,1,277.5,243.912c-2.792-3.947-4.909-8.407-8.045-12.1a51.48,51.48,0,0,0,2.822,9.941c1.067,2.832,3.925,7.39,4.427,9.758,1.552,7.312,2.556,7.39,5.5,13.8,3.008,6.551,9.416,23.4,9.055,30.137-.116,2.134-1.908,4.944-1.823,5.788.093.937,4.515,7.736,5.261,10.029a31.417,31.417,0,0,1,1.363,11.548c-.394,4.63-1.421,9.185-6.752,5.185-5.667-4.249-9.376-13.311-10.89-20.043-12.8-1.959-9.5-21.442-10.107-31.026-.113-1.8-1.416-13.092-1.873-13.733s-3.116-2.049-4.1-3c-6.87-6.657-10.622-13.524-13.331-22.71a20.97,20.97,0,0,1-14.18,3.975c1.386,7.2.628,15.837-4.073,21.743-1.843,2.315-7.573,6.654-10.167,8.563-2.262,1.665-11.018,6.391-11.626,8.236-1.291,8.655-1.949,17.846-4.382,26.26-1.16,4.015-3.179,11.114-7.787,11.8l.007.836a48.468,48.468,0,0,1,6.973,16.292c.977,4.814-.944,11.6-6.247,12.816-3.711.854-4-.294-4.992-3.279-2.18-6.594-2.016-12.768-2.011-19.6,0-.917.62-2.28.5-2.765-.176-.728-1.989-1.045-2.5-2.564-1.424-4.241,2.546-14.5,3.548-19.222,1.8-8.465,1.788-17.273,5.743-24.9.615-1.185,2.021-2.094,2.29-3.43.831-4.121-2.385-5.065,2.338-10.1,3.628-3.869,7.684-7.264,10.812-11.887.319-.47.806-.54.562-1.414-5.692-1.949-9.828-6.677-13.984-10.73-5.949,3.621-12.091,7.39-15.96,13.344.814,8.156.3,19.056-5.205,25.427,1.18,7.094,4.462,16.086.153,22.486-7.962.226-8.8-10.81-8.7-16.771.083-4.909-.08-3.011-1.027-6.928-1.539-6.358.229-17.931,3.186-23.82.816-1.627,3.8-4.939,4-5.7.316-1.225-.658-2.667-.249-4.713.7-3.483,4.314-7.531,4.866-11.325-4.841,5.153-10.142,12.844-16.635,15.988-9.311,4.51-15.312,4.861-24.786.741-26.858-11.684-19.676-58.8-3.965-77.138,1.9-2.222,4.5-4.04,6.17-6.16-.118-1.484-6.669-7.731-8.188-8.879-6.4-4.836-16.276-7.367-19.563-15.33l16.99,8.259c4.967,4.49,10.1,8.8,13.929,14.366,2.109-1.647,4.575-1.9,6.9-2.714.608-.213,1,.276.726-.844a46.5,46.5,0,0,0-12.741-15.641c-1.439-1.16-7.483-4.881-7.94-5.685a2.734,2.734,0,0,1-.264-1.713c.932-.917,9.261,4.442,10.735,5.434,6.812,4.58,11.287,9.672,13.733,17.76,8.568-.819,15.272,3.777,22.918,6.315.121-6.338,2.453-12.108,5.406-17.592l5.348,9.11c2.225,1.733,2.4-1.042,3.744-2.576a35.149,35.149,0,0,1,2.815-2.857c1.353-1.23,9.494-7.568,10.74-6.463.136.909.183,2.315,1.394,2.154.738-.065,9.233-5.318,10.144-6.172,1.635-1.529,9.012-12.2,9.9-12.435,3.2.048,3.478,4.8,3.588,7.317,4.62-1.9,7.418-6.591,10.5-.01l20.04-40.1c8.206-14.875,24.824-40.437,39.659-48.872,6.619-3.762,13.409.188,16.575,6.5,5.366,10.692,8.015,29.462,7.473,41.371-.153,3.335-1.082,7.081-1.153,10.471M306.192,49.2c-.768.153-6.8,4.46-7.8,5.3-18.047,15.091-33.53,43.611-43.405,64.983-.793,1.715-4.306,10.446-4.241,11.651.038.655,2.8,4.171,3.094,4.171,1.82-2.1,6.908-3.362,8.487-5.077,1.542-1.672,6.386-13.095,8.163-16.239a249.537,249.537,0,0,1,29.321-42.18c4.708-5.461,9.682-10.8,14.8-15.885.588-1.145-1.984-3.176-2.888-3.95-1.414-1.213-3.626-3.146-5.527-2.77M287.043,91.669l33.786-14.175c1.225-2.458-3.465-19.835-5.12-19.855-10.456,10.594-19.674,22.2-28.666,34.029m80.039-1.13c11.42-5.921,23.147-14.1,24.176-28.116-3.1-3.332-8.216-2.812-12.251-1.369,2.187,8.766-1.826,17.02-7.375,23.538-1.753,2.062-4.789,3.063-4.55,5.946m10.21-28.372c-7.448.909-12.394,7.955-17.585,12.769,3.814,2.5,6.852,6.448,7.375,11.061,7.252-6.044,11.458-14.16,10.21-23.83M361.4,111.533c8.4-4.658,14.453-12.2,21.271-18.742,2.943-2.82,5.831-6.215,8.806-8.786,3.3-2.842,7.262-4.849,10.752-7.425-1.881-5.035-3.827-9.6-8.47-12.708-1.328,12.148-8.794,19.29-18.551,25.429-2.5,1.572-7.6,3.382-9.564,5.2a57.6,57.6,0,0,0-4.244,7.671Zm-43.7,27.8c8.3-4.284,16.528-8.856,24.357-13.946,3.879-2.521,13.1-8.236,15.285-11.957,1.984-3.377.952-8.962,2.177-13.145,1.132-3.867,5.293-7.819,5.3-11.731.007-3.581-4.432-9.316-7.109-11.623l-46.25,51.353-.005.826c3.739,1.316,5.524,6.614,6.245,10.225m85.128-60.709c-.618-.462-9.67,6.1-10.785,7.081-3.957,3.5-7.764,8.261-11.543,12.008-3.9,3.869-8.181,7.576-12.276,11.262-.01.706,6.92,2.594,8.148,3.194,1.748.849,4.244,3.352,5.723,3.372l24.05-9.213a103.34,103.34,0,0,0-3.317-27.7m-81.736.565c-6.144,3.1-12.844,5.05-19.106,7.842-3.048,1.363-14.961,6.579-16.794,8.025-.821.653-4.075,5.908-4.851,7.219-1.758,2.976-3.061,6.19-4.65,9.241l5.7,4.884L320.55,95.947l.55-1.153c-.535-5.233,1.589-10.451-.008-15.6m-27.237,44.538c.673,5.71-.5,12.6,0,18.441a84.4,84.4,0,0,0,8.244-6.795,134.325,134.325,0,0,0,10.21-10.787c5.492-6.837,5.534-17.964,8.224-26.1L289.9,113.826c.969,3.453,3.483,5.941,3.952,9.9m112.951-14.463c-1.223-1.4-3.387,5.183-3.661,5.695-6.37,11.865-14.308,21.675-22.446,32.309.339.284,5.949-2.594,6.822-3.106,5.763-3.36,16.261-15.749,17.984-22.3a48.754,48.754,0,0,0,1.3-12.6m-17.025,17.592c-5.853,1.047-6.677-5.821-9.406-9.045-3.3-3.9-9.436-5.431-14.049-7.3L354.095,120.4,318.84,141.886c6.825,4.558,16.754,3.947,24.5,2.375,8.018-1.632,38.527-11.149,44.36-15.234a5.5,5.5,0,0,0,2.079-2.17m13.052-16.46-19.3,7.38c.886,6.245,7.056,9.5,12.337,5.293,1.22-.972,7.6-12.033,6.961-12.673M266.621,134.785l8.527-.234c1.2-3.674,5.818-10.863,4.844-14.516-.562-2.1-4.332-6.9-6.767-6.187-1.371.394-6.456,13.258-8.05,15.229ZM279.1,145l11.84-4.329c-.713-8.028,3.073-18.976-3.606-25.035-1.266.962-4.889,2.28-5.291,3.659-.354,1.213.028,2.724-.364,4.178-1.3,4.849-3.895,9.436-4.758,14.461l3.769,2.32Zm113.518-16.442c-3.99.691-7.418,3.844-11.365,5.371-3.7,1.431-8.113,2.109-11.885,3.435-15.865,5.582-34.5,14.524-51.1,7.071-.972,8.643-12.711,13.331-19.752,16.859-14.22,7.121-29.253,12.495-43.071,20.492-5.02,2.908-10.5,5.715-13.241,11.151.816,1.19.836.557,1.544.439,13.175-2.2,24.668-8.563,36.912-13.055,20-7.325,40.307-13.8,60.754-19.837,9.349-2.76,22.943-5.361,31.491-9.941,1.763-.942,5.886-5.517,7.518-7.234,4.359-4.588,8.306-9.768,12.2-14.752m-141.9,53.326c5.436-2.822,10.607-6.431,16.07-9.18,13.118-6.6,33.768-12.866,44.942-21.462,6.72-5.17,3.023-15.144-1.991-20.171l-1.125,0c-5.961,5.364-11.739,11.064-17.9,16.191-10.338,8.6-22.815,16.389-32.628,25.253-1.019.924-8.239,8.457-7.367,9.371M184.3,156.922v11.631c0,1.1,1.813,4.776,2.114,6.4,2.368,12.721,1,22.049,1.316,34.431.2,7.671-.055,14.692,4.8,21.288l3.407-6.787c3.915,6.413,7.126,13.557,13.331,18.145.148-1.185-3.664-8.389-1.416-8.495l8.525,6.222c1.286.236.783-.562.844-1.406.131-1.783-.1-3.616.008-5.4l6.534,4.547c8.429-3.136,15.4-1.524,23.724-5.785,7.1-3.633,21.617-15.983,26.486-22.318.8-1.042,6.388-9.286,5.682-9.916l-10.777,2.262c-1.657-1.65,6.293-10.084,9.075-9.647l-4.563-1.436c-.6-2.308,2.559-3.561,3.43-5.361-11.475,5.2-23.832,7.8-35.96,10.73-2.827-3.149-1.374-5.833.781-8.736a120.6,120.6,0,0,1,25.58-25.5c6.785-5.017,15.872-9.929,22.052-15.405,1.16-1.025,2.217-3.056-.136-2.406-1.871.515-12.063,5.851-12.879,4.992l1.13-7.367-3.46-.8-.515-3.739c-.439-.522-5.389,2.647-7.387,1.431l-1.984-5.986c-4.166,0-9.908,7.6-11.382,7.932-1.765.4-2-4.51-3.36-3.942-1.735.718-7.5,8.721-8.512,8.5-2.021-1.748.291-5.1-1.707-6.79-1.409.746-9,4.713-9.916,3.935l-2.006-7.92c-3.463,3.576-6.215,8.291-10.22,11.347-3.927,2.988-9.21,4.994-13.082,8.485-.459.414-3.8,5.18-2.986,1.559.342-1.519,1.3-2.988,1.733-4.52.218-.778,1.035-1.092-.414-.982-5.052,3.955-7.656,9.266-11.36,14.162-1.456,0-5.333-8.708-6.529-7.357m189.489,2.36c-6.576-3.475-9.637-5.331-16.364-.653l3.967,4.241-6.235,2.3c.738,2.421,2.757,4.344,2.267,7.071-1.175.123-5.4-.532-5.677.866l3.407,6.212-5.677,2.006,1.7,6.8-5.11.005,2.825,4.821c-1.68,2.323-5.567-.726-7.091.831-2.069,2.112.54,6.617.035,7.395-.746,1.391-3.45-.291-3.711,0l.321,2.85-3.734.547v3.972l-2.827-1.13-.583,4.535-2.825-1.132-.008,3.972-2.83-.568.339,6.777-.64,1.165-8.781-3.4-.653,4.46-3.33.078-.527,4.3-5.143-.9-1.255,7.249c-2.092,1.323-4.45-.186-6.647-.419-3.043,4.7,2.28,8.881,4.04,13.2a14.813,14.813,0,0,1,1.027,4.934l1.132-4.54c7.676,2.207,8.075,2.154,10.76-5.429l5.695,1.459.552-4.3,4.555.891c.146-1.238-.532-6.712.851-6.792l5.961,2.82.638-4.47,3.586.437c1.351-3.033,2.35-2.787,5.426-3.347l-2.832-6.232c5.562.942,8.013,4.485,7.445-3.9l5.037-.075v-3.975h3.972c.655-.633-3.013-5.708.043-6.016,6.875,3.882,3.528-6.622,3.937-7.028l3.957.56c1.1-2.373-1-4.259-.552-6.8l3.4.562-.562-5.1c6.908,1.906-2.006-6.052-1.135-6.807l5.67-.005-2.265-4.53,2.832-.854c-1.534-1.436-4.932-1.5-4.537-4.254l5.607-1.205-1.112-4.711,1.738-1.175-4.527-5.1c1.12-1.655,2.93.741,4.535.274Zm-219.573,3.88c-17.693,4.208-25.022,21.384-27.654,37.889-2.95,18.484,1.861,44.269,25.1,44.432,8.226.058,21.555-11.074,26.057-17.69,8.128-11.942,7.644-37.992,4.043-51.6-1.707-6.456-3.626-8.171-9.8-10.637-2.1-.839-13.68-4-14.91-2.96,2.094,6.473-2.313,6.73-2.842.562m179.367,9.07L332.51,169.8l2.77-2.953-1.856-1.291c-6.712,1.951-13.667,3.52-20.259,5.843-3.048,1.072-6.33,2.933-9.519,4.1-7.362,2.694-18.848,5.165-24.279,10.34-.728.688-2.524,2.2-2.546,3.129l5.886.869c.613-.1.46,1.107.339,1.384-.557,1.291-7.362,4.314-8.487,5.976a39.151,39.151,0,0,0,4.206-.043c2.011-.306,5.645-2.953,6.039-.218.608,4.2-9.828,15.393-12.517,18.983,6.262,1.2,11.156,7.792,14.28-1.6l5.014.47.01-5.672,5.095,2.835,1.715-5.672,3.689,1.69c2.32-3.294,1.743-7.832,7.084-6.23l.532-2.594,2.878-.244-1.7-3.967c1.421,0,8.5.123,9.08-.578,1.308-1.582-3.458-2.78-2.835-4.527l5.672-1.145-1.343-1.077-.09-1.2,6.539-2.83-1.667-3.608,5.072-2.629c.211-.854-.675-.515-1.085-.866-2.064-1.763,1.856-3.9,3.36-4.244m-6.247,94.193c-.4.442-4.952-2.893-5.677.854-.6,3.091,1.484,4.231,3.792,5.861,10.8,7.623,26.308,5.479,38.238,2.1,26.526-7.51,47.159-39.307,45.979-66.426-.364-8.4-2.915-14.064-7.5-20.874-.768-1.14-5.833-7.915-6.418-8.337a6.955,6.955,0,0,0-4.271-1.115l2.825,4.251-2.26.854.874,2.85-3.7,1.969c.005,1.25,11.35,8.043-.008,5.964.434,1.173,2.835,1.168,2.263,3.1-.422,1.419-3.151.485-3.965,1.15.934,1.313,4.427,2.461,3.91,4.427-.407,1.542-7.214,6.225-9.017,7.217l.331,1.165,1.9.573,0,1.612L380.7,214.8l2.265,4.53-5.672.01c1.3,1.876,1.346,3.95,1.075,6.17-2.011,1.248-2.639-.917-4.477-1.067l-.535,4.866-4.008-.326-.557,6.536-3.982-1.431-.259,2.87-2.609.274-.811.8.266,2.863-3.967-.567-.545,3.734-2.86-.329-.648,3.33-3.332.073v3.4l-3.965-1.132,1.127,6.8c-1.107,1.122-4.618-3.651-5.944-3.4l-1.394,4.3-3.44-.329-.58,5.672-2.257-1.7-.008,6.235-5.389-4.525c-1.316.962-.8,2.569-.856,3.96m-58.406-47.009c-.334.593,3.34,9.557,3.987,10.913,4.7,9.8,12.281,16.942,19.523,24.741,1.009,1.087,5.261,7.046,6.227,6.817,3.39-4.342,3.558-8.158,1.856-13.2-2.388-7.066-16.839-24.859-23.32-28.322-1.758-.939-7-3.217-8.274-.954m-.063,39.636c.093-1.991,2.509-4.4,2.734-6.082.316-2.36-2.566-10.009-3.586-12.633-2-5.135-4.9-10.107-6.8-15.32-2.835,2.556-5.1,5.9-8.688,7.473-1.082,1.831,3.4,12.49,4.753,14.607a100.967,100.967,0,0,0,8.163,10,14.837,14.837,0,0,0,3.425,1.959M187.7,228.981c-1.323-.286-.906.181-1.263.728-1.16,1.793-6.827,14.715-6.094,15.711l1.991.078L198.8,233.531l-2.29-4.54-4.542,6.787Zm43.1,9.128-1.813.06-23.373,28.277c-.964,1.459.655,9.964,1.692,10.195,3.217-.819,4.992-3.739,7.38-5.66,10.765-8.65,18.185-10.2,17.288-26.391-.045-.851-.9-6.3-1.175-6.481m-13.007,5.632-4.54-1.7,2.556,5.1ZM172.957,276.07c4.984-.628,6.835-7.119,7.689-11.317,1.06-5.218,1.858-12.362-.889-17.045-.891.46-1.574,2.458-1.971,3.407-3.533,8.442-3.782,15.968-4.829,24.954m99.336-19.287-1.15,4.246c2.046,9.946.439,21.911,2.433,31.624.635,3.094,3.736,11.091,7.957,10.011a15.545,15.545,0,0,0,3.691-3.729c1.321-4.455-1.21-9-2-13.09-2-10.421-2.29-21.683-10.933-29.063m53.266,45.311c.562-2.348-.713-4.452-1.522-6.546-3.6-9.318-10.531-23.681-17.406-30.828-1.283-1.331-2.134-2.659-4.261-2.262.357,2.719,2.428,4.678,3.247,7.247,2.845,8.934,3.307,19.064,8.214,27.533,3.227,5.569,4.917,6.825,11.729,4.856M193.749,317.271c6.054-4.738,6.122-5.788,7.875-13.391a121.531,121.531,0,0,0,3.111-21.856c.08-3.179.105-5.8-1.138-8.784l-4.073,7.546c-2.4,7.106-2.672,14.672-4.131,21.971-1.027,5.138-3.641,9.956-3.136,15.3.09.118,1.235-.588,1.492-.788M175.79,277.21c-1.366-.178-.906-.013-1.2.786a34.507,34.507,0,0,0-1.09,6.84c.025,1.6,1.743,12.1,3.7,11.659,3.332-.758-1.672-16.507-1.414-19.285M291.578,324.3c2.006-5.788-1.456-15.952-5.969-19.842-.547-.472-.786-.821-1.637-.55-.61.188-1.805,2.5-1.873,3.161-.233,2.375,7.993,18.333,9.479,17.231m42.007-11.35c2.443-2.453-8.143-11.006-10.77-7.094,1.938,3.985,6.5,6.654,10.77,7.094m-138.5,8.512c-.786-.859-1.029.06-1.13.841a29.231,29.231,0,0,0,.008,4.545,75.4,75.4,0,0,0,3.111,18.441c6.536-5.4-.678-16.952-1.989-23.827" data-name="Path 5842" transform="translate(1183.288 411.974)"/><path id="Path_5845" d="M165.055,86.838c-3.382,3.332-5.846,8.4-8.962,11.747-.562.6-.585,1.584-1.82,1.3-1.549-1.8,7.161-10.541,8.794-11.915.638-.535.924-1.376,1.989-1.127" data-name="Path 5845" transform="translate(1243.975 475.253)"/><path id="Path_5846" d="M158.024,121.652c-1.411,1.416-6.466-8.118-6.8-9.371-.123-.457-.909-2.092.281-1.964.65.073,6.092,9.74,6.524,11.335" data-name="Path 5846" transform="translate(1239.083 510.788)"/><path id="Path_5847" d="M177.17,90.655c-.7,1.62-8.52,6.654-9.647,5.665-.221-1.062.53-1.371,1.178-1.938,2.1-1.833,5.587-3.812,8.47-3.726" data-name="Path 5847" transform="translate(1264.214 481.084)"/><path id="Path_5848" d="M158.911,113.411c.043-4.239,2.571-9.13,5.665-11.915-1.635,4-2.737,8.623-5.665,11.915" data-name="Path 5848" transform="translate(1251.261 497.47)"/><path id="Path_5849" d="M165.487,88.876l-8.51,6.8c-1.421-1.579,6.536-7.455,8.51-6.8" data-name="Path 5849" transform="translate(1248.085 478.323)"/><path id="Path_5850" d="M169.342,89.975l-5.291,3.5-3.787,1.6c1.878-2.963,5.665-4.655,9.077-5.095" data-name="Path 5850" transform="translate(1253.307 480.062)"/><path id="Path_5851" d="M160.267,112.381a14.849,14.849,0,0,1,3.962-9.077c-.6,2.981-1.71,6.971-3.962,9.077" data-name="Path 5851" transform="translate(1253.31 500.201)"/><path id="Path_5852" d="M161.364,120.278c-1.358-.1-7.179-5.841-6.235-6.8l1.991,1.122Z" data-name="Path 5852" transform="translate(1245.391 515.567)"/><path id="Path_5853" d="M168.024,115.974c.477,2.536-4.881-.259-5.75-.8-.748-.467-1.353-.065-1.057-1.471Z" data-name="Path 5853" transform="translate(1254.628 515.908)"/><path id="Path_5854" d="M234.429,117.371l-6.8-13.615c3.837,3.068,6.117,8.856,6.8,13.615" data-name="Path 5854" transform="translate(1355.095 500.885)"/><path id="Path_5855" d="M234.321,116.4l-7.372-9.64c1.07-1.009,5.625,5.773,6.124,6.637.532.917,1.3,1.908,1.248,3" data-name="Path 5855" transform="translate(1354.068 505.266)"/><path id="Path_5856" d="M234.569,118.806c-1.567.532-8.927-6.963-8.515-7.365a20.321,20.321,0,0,1,5.117,3.674,22.968,22.968,0,0,1,3.4,3.691" data-name="Path 5856" transform="translate(1352.69 512.497)"/><path id="Path_5857" d="M232.518,118.827c-3.1-.628-5.331-4.015-7.377-6.23,1.06-.246,1.351.588,1.989,1.127a53.879,53.879,0,0,1,5.389,5.1" data-name="Path 5857" transform="translate(1351.336 514.176)"/><path id="Path_5858" d="M142.891,95.6c3.3-.485,6.714-.4,9.507,1.549,12.942,9.032,9.23,42.368-8,44.776-22.391,3.129-25.469-42.813-1.507-46.326m2.795,22.938c2.343-2.6,4.3-14-.806-15.041-6.719-1.368-7.536,15.074-3.726,16.249a4.871,4.871,0,0,0,4.532-1.208" data-name="Path 5858" transform="translate(1201.864 488.192)"/><path id="Path_5859" d="M131.126,118.515c-.947,1.014-5.758-5.592-5.67-6.8.841-.871,6.584,5.821,5.67,6.8" data-name="Path 5859" transform="translate(1200.708 512.79)"/><path id="Path_5860" d="M131.129,119.992c-1.007.957-5.4-5.271-5.675-6.23,1.065-1.027,5.994,5.926,5.675,6.23" data-name="Path 5860" transform="translate(1200.707 515.848)"/><path id="Path_5861" d="M191.761,98.561c-.156.756-1.785,1.459-2.461,1.788-1.753.856-3.721,1.328-5.477,2.177-.319-1.514.384-.977,1.115-1.409a16.771,16.771,0,0,1,6.822-2.556" data-name="Path 5861" transform="translate(1288.785 493.035)"/></g></g><g id="Group_9064" data-name="Group 9064" transform="translate(-1345.106 -110.314)"><path id="Path_7052" d="M1903.84,479.776l-1.5-2.276,2.1-11.16,3.015-.772,2.311.772.683,2.716-.4,3.928-2.593,4.516Z" class="cls-1" data-name="Path 7052" transform="translate(-48.226 -48.663)"/><path id="Path_7051" d="M1862.064,448.713s7.3-12.779,7.49-12.779,2.084.341,2.084.341l-.192,3.356-1.893,6.63-3.424,2.791s-3.235.827-3.4.784S1862.064,448.713,1862.064,448.713Z" class="cls-1" data-name="Path 7051" transform="translate(-37.853 -41.03)"/><path id="Path_7050" d="M1827.2,436.645s-1.144-3.961-1.173-4.333a60.063,60.063,0,0,1,2.9-5.315l3.5.9-1.586,5.57-1.913,3.175Z" class="cls-1" data-name="Path 7050" transform="translate(-28.57 -38.728)"/><path id="Path_7049" d="M1803.541,455.384a33.526,33.526,0,0,1-5.991-4.088c-.858-.992-1.782-5.14-1.409-5.209s3.965-1.167,3.965-1.167l4.406,6.377,1.322,4.088,4.948-2.905a33.789,33.789,0,0,1,3.66,2.905c.135.382,2.171,6.667,2.033,7.242a19.815,19.815,0,0,1-2.033,2.948s-3.553-.481-3.66-1.03a17.063,17.063,0,0,0-1.205-3.741,34.7,34.7,0,0,1-1.476-3.74l-5.115-1.678" class="cls-1" data-name="Path 7049" transform="translate(-20.85 -43.344)"/><path id="Path_5843" d="M347.368,52.238l4.211-.227c1.279.632.774,2.834.843,4.021,2.684-.787,2.323,2.054,4.325,2.041,4.263-2.222,8.685-4.428,13.094-6.329,6.793-2.931,13.945-5.181,20.52-8.553C400.1,38.2,408.39,30.917,418.036,25.785c4.817-2.563,8.8-2.164,12.725,1.857,5.794,5.923,3.531,24.023.669,31.33-3.712,9.476-14.211,17.716-23.7,20.961-12.623,4.319-27.127,1.555-40.137.533,1.338,1.059,2.474,2.524,3.822,3.549.667.509,1.639.686,2.222,1.146,7.848,6.186,12.556,15.236,14.069,25.109,1.1,7.144,2.725,17.624,1.189,24.55-.226,1.022-1.488,3.753-1.49,3.984,0,.414,1.657,2.94,2.008,3.883,2.079,5.636.3,11.614.541,17.143.075,1.7,1.689,2.966,1.695,5.509.007,3.393-3.167,11.129-6.221,12.8-2.623,1.437-3.615-4.155-3.5-6.053.1-1.693,2.759-10.253.621-10.753-3.811,3.057-6.611,6.529-11.167,8.628-7.226,3.33-11.5,2.547-18.864.337-9.534-2.858-15.956-7.244-22.859-14.22-2.177-2.2-4.709-5.833-6.937-7.807-1.258-1.113-2.12-1.258-2.341.615-.837,7.078,4.731,8.108,5.1,14.329.341,5.831-3.809,7.951-7.369,3.147-.878-1.184-3.261-7.147-3.6-7.384-.386-.274-1.818.341-2.711.246-1.734-.186-5.084-2.558-6.32-3.831-.9-.927-3.065-4.743-3.315-4.9-.446-.276-1.389-.168-2.155-.583-3.518-1.907-6.057-12.187-8.9-15.54-1.165-1.929-.656-4.819-1.376-6.627-.694-1.752-3.527-4.088-4.12-6.415-.951-3.736.766-12.028,2.742-15.4.885-1.512,2.269-2.276,2.983-3.8.084-.887-2.7-4.217-3.277-5.568-1.818-4.277-2.064-9.845-1.568-14.418-.777-1.56-10.356-2.649-12.47-3.145-6.551-1.532-15.447-5.239-20.011-10.324-5.634-6.281-10.846-25.648-10.337-33.94.254-4.085,1.916-13.3,7.345-13.206,6.344.106,21.92,13.083,28.107,16.985,1.646,1.038,13.063,7.985,13.859,7.394.17-1.083.4-1.844,1.585-2.03,3.5.194,4.137,5.278,5.569,6.909.886,1.007,4.357,1.943,5.294,3.54a33.343,33.343,0,0,0,3.533-4.034c.475-.928.349-2.5.878-2.912.33-.254,2.388-.585,3.248-.966,1.3-.572,4.442-2.841,5.08-2.959,1.421-.261,2.515.889,3.9.776.037-1.586-.449-3.2,1.059-4.208,1.954,3.991,3.591,6.13,8.1,7.058a81.446,81.446,0,0,0,9.181,1.391c2.362-.108,4.7-1.562,6.942-2.133ZM263.841,32.106c-2.64-1.284-9.107-6.148-11.868-5.863-1,.1-4.34,2.108-4.847,3.093a27.188,27.188,0,0,0-.9,6.24c.233,1.475,6.172,6.258,7.6,7.593,1.022.947,1.655,2.422,2.724,3.177,1.743,1.23,5.68,2.237,7.8,3.154,1.132.488,1.984,1.672,3.369,1.471-3.471-5.434-2.936-12.654-3.881-18.864m161.81-4.2c-.85-.889-3.639-.034-4.8.268-7.261,1.9-12.461,7.479-18.57,11.348-1.5.949-6.4,3.082-7.11,3.846-.692.742-1.422,5.3-1.971,6.875a66.8,66.8,0,0,1-3.695,8.093c.608.891,1.312.645,2.207.544,3.393-.384,18.035-4.931,21.387-6.437,2.649-1.188,4.97-3.29,7.463-4.756,1.243-.729,8.6-4.3,8.889-4.8.828-1.413-3.611-12.52-3.8-14.981M280.362,56.873c-2.265-5.073-1.888-10.753-3.182-15.984l-10.294-6.763c1.527,5.255-.488,13.417,2.923,17.813.941,1.215,8.85,3.339,10.553,4.935M253.394,45.5l-7.159-7.157.487,4.983Zm44.941,16.159c-.3-.345-.9-.488-1.3-1-2.5-3.264-3.6-6.745-4.441-10.736l-13.068-6.941c-.007,4.211.58,9.7,2.867,13.35,2.75,4.39,11.952,5.964,15.887,9.8,1.739-2.067,1.708-2.552.056-4.472M429.95,48.012l-.617-3.354-7.8,5.048ZM261.82,53.5l-1.7-3.986-13.046-4.437,2.567,9.237c.634.46,10.5-2.369,12.177-.815m82.593-2.947c-.915.295-1.56,1.8-2.4,2.051-1.189.349-1.627-.708-2.41-.749-1.752-.093-3.62,1.592-3.382-2.164l-.488-.341c-1.352-.17-2.7.058-4.053-.17-2.7-.455-6.076-2.446-8.225-2.77-1.031-.155-1.915.537-2.75.3-.57-.164-.925-1.029-1.437-1.169-.958-.259-1.35.757-2.131,1.119S312.6,48.3,312.445,48.5c-.226.282.14,1.363-.265,2.051-.192.324-.908.5-1.221.891a64.969,64.969,0,0,0-7.28,10.7l2.217,3.179a22.727,22.727,0,0,1,18.413-.08c3.507-1.754,9.336-9.448,12.833-9.979,2.591-.393,2.852,2.711,1.184,4.157L327.555,67.2c0,.818,3.432,3.73,4.209,4.638,1.566,1.825,3.083,3.632,4.636,5.477,4.957,5.895,4.211,14.5,3.8,21.685,3.124.457,5.686-1.723,8.438-2.733,2.025-.744,7-1.773,8.421-2.953,1.59-1.318-2.224-5.662,3.372-3.167a4.811,4.811,0,0,1-.447-4.866c.884-.619,5.93.416,5.915-.817-1.76-1.864-4.39-2.284-5.328-4.864-5.595-.759-11.646.734-17.171-.017-2.369-.323-4.912-2.149-4.847-4.763.058-2.317,4.316-7.828,6.057-9.543,1.5-1.476,6.342-3.911,7-4.8.522-.707.324-1.957,1.232-2.556L350.1,56.878l-.207-2.532-5.5,1.081c-.973-.682.483-3.663.017-4.873m24.869,13.9c3.618-1.352,11.2-1.8,14.12-3.784,2.071-1.407,7.858-9.593,8.177-12.045a5.239,5.239,0,0,0-.158-2.716c-.468-.628-.522-.222-.964-.1-1.814.485-9.187,3.309-10.436,4.325-1.387,1.135-3.574,6-5.084,7.975-1.629,2.131-4.029,4.165-5.654,6.35M429.54,50.135a68.8,68.8,0,0,0-21.058,6.1c.938,1.018.9,2.274.833,3.585l18.064-.9ZM284.577,61.511,262.668,50.556c1.353,2.91,1.435,5.393,4,7.58,3.639,3.1,8.4,4.239,13.063,4.631Zm60.347,5.544c-1.37,2.382,2.567,2.112,3.915,2.026,3.753-.239,14.006-2.88,17.356-4.552,2.235-1.115,6.542-6.137,8.134-8.3.981-1.335,2.369-2.591,2.112-4.413-8.669,3.309-18.825,6.428-26.6,11.53-.656.429-4.767,3.441-4.92,3.708M262.555,55.3c-3.948-1.314-8.143-.017-12.118.526.488,1.406,1.905,6.469,3.5,6.443,2.664-.041,7.028-4.1,10.406-3.29Zm104.2,12.1,12.9,1.229,5.852-.043,18.055-1.667c1.609-1.322,4.442-7.381,2.636-8.818-1.113-.886-7.817.606-9.61,1-4.539,1.012-8.941,2.681-13.475,3.8-4.6,1.137-9.828,1.674-14.258,3.018-.408.123-2.858.649-2.1,1.475M262.991,61.623c-1.016.108-8.745,1.626-8.745,2.2,3.432,4.778,7.884,9,13.57,10.861,4.456,1.458,17.147,3.49,21.418,2.218.874-.259,2.319-1.607,3.335-2.144,2.433-1.284,5.365-.837,4.142-4.951-.6-2.023-7.246-4.623-9.258-5.065-3.309-.727-7.608-.194-11.047-.751-5.5-.893-6.8-3.074-13.415-2.368m162.757-.114c-5.587-.166-10.993.984-16.579.485-.828,1.143-3.626,4.154-1.325,4.562.634.112,1.393-.084,2.058.048,2.7.539,8.943,2.259,11.336,1.553,1.014-.3,5.015-6.2,4.51-6.648M298.909,69.93a8.907,8.907,0,0,0,3.768-2.737l-1.874-2.31c-.68-.019-1.655,4.191-1.894,5.046m21.91-2.52c-4.249-1.514-8.445-.9-12.64.419,6.049,5.585-.175,8.577-3.592,2.09l-3.932,3.233c-.149.761,3.451,5.293,3.947,6.883a25.057,25.057,0,0,1-2.166,19.33c-1.27,2.235-2.3,4.116-5.039,4.657-1.206,1.568,3.238,6.068,4.485,6.954,6.529,4.636,18.637,3.993,25.4.164,1.665-.945,5.7-4.195,3.868-6.234-12.28,4.426-15.991-11.161-12.505-20.093.818-2.1,3.719-6.687,5.529-7.949,1.752-1.219,3.922-1.07,5.5-2.519.172-.777-4.469-4.681-5.268-4.687-2.064.356-5.207,4.042-7.155,3.643-.343-.069-.841-.723-.3-1.117Zm97.343,2.945c-3.743-.019-8.961-2.506-12.425-2.528-2.088-.013-5.037,1.329-7.213,1.639-10.753,1.532-22.22.3-32.859-.764-7.321-.735-14.537,2.481-21.785,3.007-1.447.639-2.824,3.471-1.324,4.508,1.786,1.236,9.146,0,11.786.019,18.909.134,45.983,8.952,62.277-3.85.651-.511,1.655-1.064,1.544-2.03m-122,7.166c-4.258,4.1-5.168,10.846-4.314,16.519a5.063,5.063,0,0,0,2.209,3.684c3.316-6.13,7.505-13.98,2.1-20.2m30.216,21.808c.945.554,3.8-.567,4.562-1.374,2.791-2.964,4.718-15.445-.74-16.579-5.127-1.063-6.907,9-6.333,12.675.155,1,1.779,4.849,2.511,5.278m53.8,8.879c1.068-7.239,2.025-11.4-3.1-17.22-2.006-2.276-4.172-4.551-7.382-3.361.352,1.6,5.608,4.853,1.9,5.084-1.376.088-2.67-.774-4.008-.872-.252.2,3.227,3.576,2.515,4.612-1.3.436-2.505.749-3.775.019.895,2.582,3.451,4.558,3.8,7.36.33,2.642-.943,5.009-.852,6.3.047.68.643,1.232.749,1.816.472,2.571-.852,3.7-1.135,5.835-.4,2.988.039,6.741-.453,9.86.949-.7.807-1.7,2.5-1.238l.861,2.08c.362-1.624-2.53-9.808,1.288-6.965l2.505,3.173c.982-2.23-3.4-8.175-2.916-9.841l1.02-.7,4.426.433c-1.8-4.187-4.146-5.382,2.058-6.372m-13.106-.034c.321-.229.479-1.348.516-1.806.343-4.006-4.3-9.211-6.534-12.418-.954.708-.442.66-.112,1.363a40.322,40.322,0,0,1,3.7,13.372Zm-32.352,6.406c1.5.33,2.231-1.12,3.223-1.62,1.687-.85,3.167-1.124,4.791-2.369.787-.6,7.543-7.716,7.778-8.231.667-1.449.392-2.694-1.376-2.237-1.8.462-6.732,3.605-8.115,4.964-.954.936-7.121,8.678-6.3,9.493M293.354,105.4c-1.165-.388-1.544,0-2.131.871a27.3,27.3,0,0,0-3.277,10.223c-.073,2.355,2.388,10.811,5.153,6.814,3.572-5.155,4.251-12.818.255-17.908m56.669,40.9a1.244,1.244,0,0,1,1.173-.336l2.908,1.3,4.523-6.35c-3.441-4.953-.11-11.737.488-17.324.341-3.2-.175-6.31.764-9.345.3-.975,1.374-1.954,1.374-2.817,0-.928-.913-1.46-1.145-2.205-.308-1,.321-2.284-.735-3.055-1.02-.2-.6.82-.628,1.465a17.43,17.43,0,0,1-.088,3.708c-.354,1.214-2.381,3.179-1.995,5.587-1.853,1.864-4.545,10.544-6.12,11.6-.248.168-.436.39-.779.311l-4.5-2.036-.475,5.417c-1.8.619-2.7-1.038-4.153-1.629-.369.779-.934,3.264-1.367,3.7-.77.77-6.43,2.041-6.868,2.614-.365,2.09-2.205,8.363-5.136,7.28-1.56-.574-1.5-2.04-1.391-3.479l-1.84.813c-2.787-3.206-6.387-5.3-2.97.837,1.573,2.824,8.4,11.292,11.983,9.513.755-.375,1.256-2.267,2.308-2.625l4.573,1.523c1.182-.57,1.75-3.807,3.022-3.622l3.792,3.169c.83,0,2.621-3.443,3.281-4.01M349,109.5l-.155-2.5c-2.821,4.256-7.906,5.977-12.054,8.622-.593.71.468,1.372.477,2.524.013,1.064-.822,2.341-.371,3.531l1.618.483.181-2.556c3.19-.393,1.5-1.575,1.939-3.96.5-2.677,2.209-.818,3.357.2-.917-2.657.777-3.9,2.949-2.107-1.283-2.832,1.719-2.058.843-4.211Zm-14.278-1.657-8.827,6.547c-1.381.406-2.819,1.381-4.137,1.762-1.95.563-5.975.259-6.406,2.442-.792,4,1.721,5.5,5.233,6.113,1.848-.261,3.281-4.381,4.236-4.245,1.872.268,1.352,4.784,4.168,2.919.567-.377,2.612-4.627,2.72-5.321.171-1.078-.511-1.775-.179-3.057.738-2.847,4.4-3.891,3.192-7.161m32.445,3.371c-7.144.913-5.25,8.995-5.947,14.48-.474,3.712-2.082,7.74-1.652,11.448.4,3.447,4.239-1.158,5.009-2.617,1.745-3.3,1.4-11.568,1.762-15.51.241-2.657,1.931-5.164.828-7.8m-58.239,25.361a8.911,8.911,0,0,1-1.784-1.374c-1.987-2.6-2.919-9.109-3.177-12.406-.162-2.051.419-5.85-.086-7.5-.242-.8-4.1-3.275-4.552-2.815.615,4.374-1.806,7.623-3.372,11.366,2.314.408,3.654,1.972,4.707,3.934,2.7,5.015,3.337,11.771,5.8,16.944,3.7,2.107,2.545.649,2.532-1.687-.007-1.186.257-5.9-.071-6.461M384.766,113l-.941-.364c-3.212.24-2.53,9.508-2.787,11.8-.345,3.039-3.624,9.012-1.654,11.431,1.346,1.652,4.709.986,6.131-.214,4.321-3.645,2.17-18.04-.749-22.652m-74.9,20.113c.539.393,2.5-1.6,2.515-2.325-.94-5.005,1.976-14.834-5.891-14.1-.216,5.708,1.583,11.111,3.376,16.428m23.81-16.426c-1.808,1.943-1.695,4.791-2.541,7.151-.6,1.668-3.255,6.113-2.53,7.584a1.313,1.313,0,0,0,2.14.459c1.782-1.2,4.377-11.937,3.975-14.14-.1-.552-.4-1.206-1.044-1.053M293.721,126.88c-3.048.936-.19,8.087.662,10.125.925,2.2,4.3,8.812,6.316,9.692,4.948,2.153,2.636-5.464,1.976-7.871-.966-3.544-3.947-13.486-8.954-11.946m19.09,7.5c-2.781-.222-2.187,3.238-2.1,5.263.157,3.7,1.208,11.584,2.925,14.768,1.834,3.408,4.308-3.749,4.247-5.477-.205-5.822-4.372-9.014-5.071-14.554m16.325,7.045c.949-.927,2.923-6.145.684-6.558-2.925-.541-3.762,9.564-.684,6.558m48.06-2.315a21.214,21.214,0,0,0-3.695-1.357l-.427,5.473c-.908.954-4.347-3.973-4.862,1.672-.1,1.132.735,2.2-.4,2.953l-4.422-2.1c-.649,1.667-1.555,4.181-2.727,5.5a42.262,42.262,0,0,1-6.247,4.286c-2.44.934-2.194-.831-3.436-.91a32.48,32.48,0,0,0-5.658,1.721c-.257.418.136,1.5-.242,2.071-2.412,1.5-4.394-.949-6.721-1.27l-.915,2.5c9.69,6.825,22.2,14.012,33.815,7.246,2.813-1.639,9.127-7.3,9.739-10.5.71-3.73-2.876-10.915-1.279-15.08l-.306-.414c-2.271.136-1.542-1.12-2.217-1.79M382,140.78c-1.2,1.374.384,10.882.88,13.07.339,1.5,2.824,11.221,4.968,6.044,1.115-2.684,1.3-10.423.626-13.322-.7-3.018-2.668-7.891-6.474-5.792m-20.73.343c-1.12-.233-.727.278-1.048.828-2.049,3.507-4.338,6.892-6.113,10.54,5.992-1.655,6.48-5.969,7.161-11.368m-55.353,7.194c-1.5.468-.088,2.511.4,3.292a9.423,9.423,0,0,0,4.586,3.833c1.616-.332-1.531-5.19-2.118-5.88a2.982,2.982,0,0,0-2.871-1.245m12.246,8.048c-3.136.947.74,10.477,3.656,9.582,2.252-.69,1.167-11.036-3.656-9.582m68.25,7.151a1.693,1.693,0,0,0-.934,1.171c.378,1.5-2.5,8.782-.805,9.286,1.568.464,5.061-5.533,5.225-6.993.287-2.509-.69-4.415-3.486-3.464" data-name="Path 5843" transform="translate(1471.461 255.112)"/><path id="Path_5862" d="M290.817,45.192c-3.078-1.5-5.345-4.219-7.582-6.735,1.443.257,3.1,1.745,4.221,2.727.5.438,3.809,3.522,3.361,4.008" data-name="Path 5862" transform="translate(1505.675 269.742)"/><path id="Path_5863" d="M306.671,60.444c-.343.339-6.655-4.582-7.16-5.472.781-.2,1.169.291,1.741.574.682.336,6.275,4.049,5.419,4.9" data-name="Path 5863" transform="translate(1519.741 283.977)"/><path id="Path_5864" d="M291.148,43.648c-.393.4-5.007-4.286-5.475-4.843-.4-.474-1.022-.684-.837-1.475.177-.2,3.164,2.215,3.535,2.571.337.326,3.078,3.44,2.778,3.747" data-name="Path 5864" transform="translate(1507.029 268.758)"/><path id="Path_5865" d="M286.933,44.248c-.71.679-4.608-3.4-5.054-4.206.979-.185,5.671,3.615,5.054,4.206" data-name="Path 5865" transform="translate(1504.503 271.106)"/><path id="Path_5866" d="M301.944,61.011c-.529.475-4.845-3.186-4.211-3.784,1.221-.457,4.532,3.5,4.211,3.784" data-name="Path 5866" transform="translate(1518.149 285.931)"/><path id="Path_5867" d="M312.779,88.862c1.2,3.779,2.1,8.277,1.264,12.214-.837-.173-.712-.867-.831-1.48-.608-3.123-.826-6.892-1.242-10.141-.1-.83.1-.611.809-.593" data-name="Path 5867" transform="translate(1530.487 313.27)"/><path id="Path_5868" d="M313.05,99.946c-.859.16-1-.386-1.292-1.022-.943-2.088-1.208-5.55-2.073-7.822,1.642.319,3.68,8.479,3.365,8.844" data-name="Path 5868" transform="translate(1528.534 315.239)"/><path id="Path_5869" d="M315.491,96.652l-.833-7.578c.6-.1.61.746.716,1.171a12.312,12.312,0,0,1,.118,6.407" data-name="Path 5869" transform="translate(1532.832 313.48)"/></g></svg>