<svg id="Component_111_9" data-name="Component 111 – 9" xmlns="http://www.w3.org/2000/svg" width="131.077" height="46.086" viewBox="0 0 131.077 46.086">
  <g id="Group_1" data-name="Group 1">
    <path id="Path_1" data-name="Path 1" fill="white" d="M55.731,49.982c-5.324-1.8-9.579-5.859-9.721-12.449-.17-7.826,5.164-13.845,12.406-14A13.053,13.053,0,0,1,68.2,27.477l.892,1.044,6.529-6.645L74.86,21a22.139,22.139,0,0,0-16.644-6.692,24.2,24.2,0,0,0-3.79.379,16.2,16.2,0,0,0-13.154,12.6c-1.948,9.914,3.8,20.989,14.461,22.7Z" transform="translate(-34.939 -14.301)"/>
    <path id="Path_2" data-name="Path 2" fill="white" d="M44.46,59.781,43.59,60.9a13.571,13.571,0,0,1-10.337,4.665,12.662,12.662,0,0,1-3.269-.438C15.64,62.511,10.651,41.861,21.23,32.348a.058.058,0,0,0-.067-.093A22.628,22.628,0,0,0,10.72,51.837c0,13.085,9.687,22.952,22.533,22.952a22.268,22.268,0,0,0,17.12-7.618l.681-.882-6.6-6.509Z" transform="translate(-10.72 -28.704)"/>
  </g>
  <path id="Path_3" data-name="Path 3" fill="white" d="M263.828,24.486h-5.389V51.137h5.389c6.189,0,12.455-4.576,12.455-13.324a14.71,14.71,0,0,0-2.189-7.808c4.868,5.439,6.588,19.906-8.005,27.644-3.309,1.753-6.8,3.153-10.54,3.153H248.4V14.82h15.3c13.182,0,22.746,9.671,22.746,23S276.883,60.8,263.7,60.8h-2.527c16.459-5.316,19.335-17.767,16.923-25.759a14.751,14.751,0,0,0-9.782-10.029,13,13,0,0,0-4.487-.529Z" transform="translate(-201.477 -14.718)"/>
  <path id="Path_4" data-name="Path 4" fill="white" d="M461.823,15.21,443.56,61.115h10.522L458.035,51.1l17.294-.259,3.788,10.272h10.522L478.418,33.27s-.239,12.619-18.879,12.708L466.6,27.171S476,41.917,462.376,44.9c0,0,14.686-1.342,15.039-12.579L471.37,15.21h-9.547Z" transform="translate(-358.563 -15.03)"/>
</svg>