<svg id="Component_102" data-name="Component 102" xmlns="http://www.w3.org/2000/svg" xmlns:xlink="http://www.w3.org/1999/xlink" width="997.736" height="930.814" viewBox="0 0 997.736 930.814">
  <defs>
    <style>
      .cls-1 {
        fill: #ad80f9;
      }

      .cls-2 {
        clip-path: url(#clip-path);
      }
    </style>
    <clipPath id="clip-path">
      <rect id="Rectangle_44" data-name="Rectangle 44" class="cls-1" width="419.948" height="332.83" transform="translate(-50.068)"/>
    </clipPath>
  </defs>
  <g id="Group_294" data-name="Group 294" transform="matrix(0.602, 0.799, -0.799, 0.602, 9591.432, -7620.148)">
    <path id="Path_305" data-name="Path 305" class="cls-1" d="M837.012,3.978C784.927,15,738.8,51.282,716.091,99.254l-.106-.1c-.814,1.535-1.646,3.063-2.471,4.592l.007,0a180.1,180.1,0,0,0-7.816,123.38c-.046.025-.093.048-.14.073.872,2.911,1.774,5.813,2.748,8.691a151.941,151.941,0,0,0,7.188,17.841,84.482,84.482,0,0,0,4.416,8.011c.46.73.92,1.469,1.362,2.219l.143-.054C763.451,335.41,848.655,369,928.54,343.576,990.683,323.8,1038.8,268,1048.427,203.286c18.206-122.448-89.964-225-211.416-199.307M1005.34,270.344c-66.264,93.04-206.049,88.88-267.343-7.215C672.613,160.623,741.876,23.257,862.864,15.9c135.822-8.264,221.829,143.03,142.477,254.448M993.466,51.588q-2.017-1.958-4.1-3.852,2.083,1.894,4.1,3.852m-6.2-5.729Q985.154,44,982.978,42.2q2.175,1.793,4.29,3.655m-6.481-5.431q-5.515-4.4-11.4-8.348,5.884,3.946,11.4,8.348M967.013,30.52q-2.383-1.541-4.822-3,2.439,1.464,4.822,3m-14.8-8.54q2.547,1.3,5.041,2.687-2.494-1.384-5.041-2.687-6.369-3.257-13.06-5.988,6.688,2.725,13.06,5.988M925.478,11.1q5.591,1.727,10.992,3.821-5.4-2.091-10.992-3.821A169.721,169.721,0,0,0,874.894,3.6,169.721,169.721,0,0,1,925.478,11.1M761.948,45.436q-2.009,1.739-3.961,3.538,1.952-1.8,3.961-3.538M732.126,78.9q-1.487,2.175-2.907,4.394,1.421-2.219,2.907-4.394M717.821,104.05q-1.109,2.389-2.147,4.811,1.037-2.422,2.147-4.811" transform="translate(110.08 11698.377)"/>
    <g id="Group_293" data-name="Group 293" transform="matrix(0.602, -0.799, 0.799, 0.602, 756.231, 12316.642)">
      <g id="Group_292" data-name="Group 292" class="cls-2">
        <path id="Path_306" data-name="Path 306" class="cls-1" d="M20.259,74.425a18,18,0,0,1,3.2,7.184L90.578,31.3,67.119,0,0,50.314A18.017,18.017,0,0,1,6,55.4Z" transform="translate(279.301 0)"/>
        <path id="Path_307" data-name="Path 307" class="cls-1" d="M-40.252,247.819l14.26,19.026A18.183,18.183,0,0,0-.54,270.488L295.916,51.723a18.326,18.326,0,0,0,3.643-25.448L285.3,7.246a18.327,18.327,0,0,0-25.45-3.641L-36.609,222.369a18.181,18.181,0,0,0-3.643,25.45" transform="translate(0 48.15)"/>
        <path id="Path_308" data-name="Path 308" class="cls-1" d="M78.85,15.648,67.121,0,0,50.312A18,18,0,0,1,6,55.4L13.123,64.9,83.77,13.34Z" transform="translate(279.301 0)"/>
        <path id="Path_309" data-name="Path 309" class="cls-1" d="M285.3,7.246a18.327,18.327,0,0,0-25.45-3.641L7.276,192.927a18.181,18.181,0,0,0-3.643,25.45l7.793,10.4,281-212.021Z" transform="translate(0 48.15)"/>
      </g>
    </g>
    <path id="Path_310" data-name="Path 310" d="M1185.652,265.363c-1.132.145-.614-1.42-.547-2.127.569-5.986,2.4-12.427,3.007-18.519a151.541,151.541,0,0,0-6.439-62.392c-3.109-9.85-8.167-19.047-10.571-28.985,2.038,1.609,3.745,4.965,4.983,7.355,16.314,31.519,20.962,70.783,9.567,104.668" transform="translate(-64.725 11640.757)"/>
    <path id="Path_311" data-name="Path 311" d="M1037.019,59.269l-35.44-6.021c.163-3.151,15.422-.665,17.857-.141,6.073,1.308,11.824,3.967,17.583,6.162" transform="translate(-2.835 11677.87)"/>
    <path id="Path_312" data-name="Path 312" d="M1074.376,473.342c-8.8,7.789-20.726,16.078-32.922,15.814.032-2.623,3.961-2.1,5.83-2.71,9.608-3.155,17.972-8.9,27.092-13.1" transform="translate(-17.393 11523.927)"/>
    <path id="Path_313" data-name="Path 313" d="M1177.384,265.363c1.132.145.614-1.42.547-2.127-.57-5.986-2.4-12.427-3.007-18.519a151.546,151.546,0,0,1,6.439-62.393c3.109-9.85,8.168-19.047,10.571-28.985-2.038,1.609-3.745,4.965-4.983,7.355-16.313,31.519-20.962,70.784-9.567,104.668" transform="translate(-327.746 11640.757)"/>
    <path id="Path_314" data-name="Path 314" d="M0,0,35.44,6.021c-.163,3.151-15.422.665-17.858.141C11.51,4.854,5.759,2.195,0,0" transform="matrix(0.914, 0.407, -0.407, 0.914, 899.468, 11990.389)"/>
  </g>
</svg>
