<svg id="Group_8937" data-name="Group 8937" xmlns="http://www.w3.org/2000/svg" xmlns:xlink="http://www.w3.org/1999/xlink" width="485.776" height="296.942" viewBox="0 0 485.776 296.942">
  <defs>
    <style>
      .cls-1 {
        fill: none;
      }

      .cls-2 {
        clip-path: url(#clip-path);
      }

      .cls-3 {
        fill: #fff;
      }

      .cls-4 {
        fill: #3cbeeb;
      }
    </style>
    <clipPath id="clip-path">
      <rect id="Rectangle_3898" data-name="Rectangle 3898" class="cls-1" width="485.776" height="296.942"/>
    </clipPath>
  </defs>
  <g id="Group_8936" data-name="Group 8936" class="cls-2">
    <path id="Path_6283" data-name="Path 6283" class="cls-3" d="M121.572,11.925,225.924,26.678l50.026,6.45h12.087l35.975-3.522,6.483,1.818L432.622,47.043,483.064,55.3l-33.45,19.463-12.51,4.3H421.793l-40.26,84.709L292.81,112.959l-48.843-29.6-5.8,4.332-56.8-37.049L116.015,12.916Z"/>
    <path id="Path_6256" data-name="Path 6256" d="M379.065,76.938c-9.462,21.242-20.505,41.754-30.2,62.893-1.981,4.321-3.433,8.97-5.449,13.283-1.387,2.965-3.376,5.639-4.271,8.8l-.913.025c-4.261-2.661-8.5-5.342-12.848-7.864-41.506-24.093-83.685-46.959-125.043-71.31-1.988-1.613-4.016,3.2-5.983,2.5-1.2-.421-6.494-4.711-8.255-5.831q-48.282-30.71-97.7-59.614c-6.242-3.651-12.924-6.692-18.969-10.7-.455-.3-5.319-3.6-4.718-4.061C121.342,14.4,178.367,21.2,235.2,29.236c14.661-.962,31.774-4.709,46.338-4.241,1.973.064,5.337,1.4,7.6,1.8,40.72,7.3,81.586,12.8,122.412,19.3,9.89,1.575,19.493,4.714,29.662,3.912l.665.917c0,.5-.322.675-.6.977-1.917,2.1-11.594,8.015-14.527,9.675a273.26,273.26,0,0,1-24.842,12.242c-7.739,3.291-14.53,3.3-22.844,3.119M228.3,30.047c-13.11-2.332-26.393-2.951-39.572-4.743-18.173-2.471-36.241-6.166-54.388-8.856C116.267,13.769,98.084,11.63,79.95,9.362c.2.564,1.749.821,2.337.975,34.534,9.109,69.393,17.028,104.093,25.51C199.1,33.97,213.512,34,226.038,31.094c.757-.175,1.964-.173,2.266-1.048m-2.735,17.561-5.565-.7-17.989,6.452L176.383,35.308,77.216,11.314c15.193,10.138,31.4,18.815,47.367,27.771,3.7,2.075,7.634,3.712,11.312,5.864,8.421,4.929,16.238,11.24,24.511,16.476,11.154,7.056,22.889,13.266,34.161,20.138a1.98,1.98,0,0,0,1.318-.213c1.459-.6,5.737-5.864,7.036-7.41,6.675-7.953,13.99-15.407,20.688-23.42.358-.428,2.2-2.585,1.961-2.913m49.583-20.683-67.289,7.857c-6.324,1.367-13.347,1.9-19.582,3.45-.514.128-.994-.025-1.353.593,5.691,4.278,11.863,8.324,18.882,9.937l64.566-19.787ZM435.219,52.29c-21.751-3.128-43.353-7.417-65.065-10.865-21.414-3.4-42.862-6.326-64.3-9.089-9.521-1.227-19.013-2.752-28.554-3.858-15.855,5.1-32.024,9.479-47.429,15.811,25.319,5.324,50.649,10.7,76.048,15.689C332.743,65.252,359.7,70.159,386.6,74.939c13.014.813,24.545-7.726,35.227-13.991,3.927-2.3,9.358-4.639,12.744-7.555.4-.348.821-.374.648-1.1m-58.949,24.2L230.847,46.434c-1.21.118-2.621,2.938-3.516,3.907-7.669,8.305-15.2,16.85-22.463,25.547-.729.871-2.921,2.4-2.75,3.494,12.623,9.388,26.655,16.542,39.97,24.885,22.312,13.978,44.858,26.415,68.073,38.885,7.832,4.207,15.363,9.245,23.68,12.623.922.374,3.317,1.551,4.111,1.043,6.333-9.905,9.858-21.177,14.947-31.691,2.708-5.6,6.249-10.928,8.869-16.5,3.885-8.267,6.415-16.886,10.783-25.125.531-1,4.281-6.477,3.717-7.014" transform="translate(43.901 3.441)"/>
    <path id="Path_6257" data-name="Path 6257" class="cls-4" d="M44.731,73.23c1.4-1.415,5.438.878,6.729,1.865,4.375,3.353,8.089,8.419,12.12,11.69,2.273,1.843,11.973,6.8,12.6,8.871A2.362,2.362,0,0,1,72.86,98.59c-7.624-5.916-16.644-11.129-23.744-17.641-1.492-1.368-6.49-5.6-4.385-7.719" transform="translate(30.019 49.406)"/>
    <path id="Path_6258" data-name="Path 6258" class="cls-4" d="M162.3,120.738c-.445-.85-1.355-1.914-.348-2.641l3.243-.059c8.555,4.162,16.748,9.126,25.219,13.424,2.167,1.1,7.946,2.02,6.316,5.4-1.068,2.211-5.04.351-6.707-.322-9.365-3.774-18.627-11.2-27.724-15.8" transform="translate(109.63 80.128)"/>
    <path id="Path_6259" data-name="Path 6259" class="cls-4" d="M109.939,119.791c2.063-.408,2.8.838,2.364,2.767-.421,1.877-3.74,3.374-5.186,4.582a69.548,69.548,0,0,0-12.232,12.747c-.972,1.36-1.724,3.665-2.789,4.629-2.052,1.858-3.838,1.2-3.888-1.623-.034-1.989,4.038-8.73,5.441-10.484,1.887-2.355,13.8-12.125,16.29-12.616" transform="translate(59.879 81.266)"/>
    <path id="Path_6260" data-name="Path 6260" class="cls-4" d="M102.985,102.767c1.12,2.233.613,3.792-2.05,3.811-4.786.032-20-5.765-24.521-8.275-1.021-.567-8.4-5.087-4.362-5.787C73.866,92.2,83.074,96.68,85.7,97.61c5.658,2.006,11.564,3.371,17.289,5.157" transform="translate(48.098 62.793)"/>
    <path id="Path_6261" data-name="Path 6261" class="cls-4" d="M126.748,120.932c3.294-1.764,4.16,1.014,5.943,2.653a56.079,56.079,0,0,1,13.56,17.666c.772,1.526,6.331,12.543,1.373,11.142-1.142-.322-2.773-5.681-3.453-7.112-4.034-8.51-6.44-11.4-13.223-17.613-1.293-1.184-5.79-4.954-4.2-6.737" transform="translate(85.813 81.709)"/>
    <path id="Path_6262" data-name="Path 6262" class="cls-4" d="M25.616,52.477c-2.139-2.073-7.246-12.544-8.34-15.665-.737-2.107-2.8-9.03-2.255-10.857.324-1.093,1.838-1.311,2.784-.992,1.043.351,4.056,10.944,5,12.957,1.523,3.245,6.059,8.753,6.794,11.562.692,2.648-1.674,5.235-3.982,3" transform="translate(9.135 13.542)"/>
    <path id="Path_6263" data-name="Path 6263" class="cls-4" d="M19.1,23.143c-3.9-2.867-3.48-3.546-6.2-7.268A50.763,50.763,0,0,0,3.4,5.47C1.541,3.976-1.078,3.8.471.574,2.375-.772,4.082.526,5.682,1.624c4.9,3.371,15.326,15.336,16.4,21.1a1.424,1.424,0,0,1-1.12,1.892c-1.434.143-1.346-1.091-1.864-1.469" transform="translate(0.001 0)"/>
    <path id="Path_6264" data-name="Path 6264" class="cls-4" d="M195.43,137.489a1.756,1.756,0,0,1,.138-2.609c1.526-1.1,12.3,2.379,14.977,2.911,3.008.6,16.179,1.937,17.561,3.128a1.935,1.935,0,0,1,.708,1.484l-1.278,1.43a95.351,95.351,0,0,1-20.89-2.537c-1.714-.418-10.407-2.958-11.216-3.808" transform="translate(132.316 91.416)"/>
    <path id="Path_6265" data-name="Path 6265" class="cls-4" d="M100.079,104.98l.121-1.145c1.276-1.682,11.544,2.072,13.6,2.846,5.2,1.963,14.93,6.621,18.826,10.451.9.883,3.054,4.229.813,4.279-2.13.047-7.5-4.659-9.625-6.007-7.639-4.86-15.282-7.405-23.73-10.424" transform="translate(67.937 70.196)"/>
    <path id="Path_6266" data-name="Path 6266" class="cls-4" d="M269.979,132.48c-2.857,3.05-5.666,6.284-9.39,8.372-1.889,1.059-6.576,3.368-6.353-.472.1-1.753,4.664-4,6.193-5.152a91.3,91.3,0,0,0,7.654-6.009c1.56-1.494,5.7-7.338,6.952-7.906.712-.322,1.261-.294,1.64.5,1.367,2.857-4.911,8.762-6.7,10.667" transform="translate(172.58 82.221)"/>
    <path id="Path_6267" data-name="Path 6267" class="cls-4" d="M134.015,110.531c1.889-.572,6.289.42,8.393.829,3.85.747,8.426,1.927,12.2,3.022a59.6,59.6,0,0,1,7.132,2.238c2.945,1.627,1.053,3.26-1.581,3.173-3.747-.126-7.385-2.164-10.7-2.992-4.607-1.148-11.555-1.3-15.8-2.933-.549-.212-1.027-.532-1-1.189.233-.789.509-1.89,1.363-2.149" transform="translate(90.048 74.915)"/>
    <path id="Path_6268" data-name="Path 6268" class="cls-4" d="M86.934,167.179c2.047-.618,3.65,1.659,5.3,2.743a43.193,43.193,0,0,0,11.3,5.486c2.1.656,7.706.559,5.967,4.185-1.125,2.342-7.723.173-9.665-.487-3-1.021-13.081-6.195-13.862-9.175-.265-1.011-.2-2.4.964-2.753" transform="translate(58.272 113.416)"/>
    <path id="Path_6269" data-name="Path 6269" class="cls-4" d="M85.266,145.487c1.246,1.264-1.066,7.592-1.36,9.571a44.772,44.772,0,0,0-.531,4.578c-.013,1.759,1.555,10.328.369,11.065-2.809.821-3.779-1.922-4.14-4.143a38.164,38.164,0,0,1,.557-14.851c.557-2.339,1.694-8.042,5.1-6.22" transform="translate(53.713 98.522)"/>
    <path id="Path_6270" data-name="Path 6270" class="cls-4" d="M278.241,88.73c-1.951,1.973-4.08-2.261-5.167-3.421a108.683,108.683,0,0,0-8-8c-1.593-1.34-7.31-4.476-7.744-5.935a2.286,2.286,0,0,1,1.7-2.852c1.65-.161,6.41,3.845,7.8,5.073,1.811,1.595,11.727,11.96,11.893,13.5a2.545,2.545,0,0,1-.484,1.637" transform="translate(174.625 46.513)"/>
    <path id="Path_6271" data-name="Path 6271" class="cls-4" d="M142.933,146.069a1.754,1.754,0,0,1,2.446,1.311c.65,3.457-.917,12.862-1.733,16.589-.567,2.592-1.749,9.559-5.481,6.626-.871-1.464.92-5.166,1.252-6.95,1.053-5.653,1.4-11.525,2.812-17.091a1.442,1.442,0,0,1,.7-.485" transform="translate(93.63 99.079)"/>
    <path id="Path_6272" data-name="Path 6272" class="cls-4" d="M273.989,92.768c1.1-.311,1.694.326,2.147,1.231,1.7,3.4,1.207,16.219.65,20.326-.193,1.425-.344,4.281-2.157,4.451-3.257.306-1.343-6.252-1.289-7.9.089-2.77.087-5.849,0-8.621-.059-1.907-1.806-8.8.648-9.489" transform="translate(185.107 62.92)"/>
    <path id="Path_6273" data-name="Path 6273" class="cls-4" d="M137.227,168.586c5.911-.322.876,4.793-1.323,6.487-2,1.545-12.239,6.751-14.569,7.291-1.538.358-3.665.178-3.077-1.877.361-1.256,4.117-2.305,5.29-2.936a118.407,118.407,0,0,0,13.679-8.965" transform="translate(80.209 114.432)"/>
    <path id="Path_6274" data-name="Path 6274" class="cls-4" d="M250.848,139.65c-.51.512-7.671,2.29-8.957,2.557-2.512.522-13.412,2.335-15,1.085-.759-.6-.891-2.4.1-2.71,3.712-.433,7.471-.677,11.149-1.345,2.046-.371,12.093-3.568,13.026-2.253a2.992,2.992,0,0,1-.317,2.666" transform="translate(153.612 92.775)"/>
    <path id="Path_6275" data-name="Path 6275" d="M222.6,92.854l6.239-10.145c.185,1.338-.772,2.409-1.4,3.477a32.6,32.6,0,0,1-4.843,6.668" transform="translate(151.111 56.146)"/>
    <path id="Path_6276" data-name="Path 6276" d="M228.522,85.753a16.732,16.732,0,0,1-3.285,6.284c-.322.4.013.985-1.007.735,1.073-2.087,2.141-4.222,3.322-6.252.3-.509-.065-.98.97-.767" transform="translate(152.214 58.177)"/>
    <path id="Path_6277" data-name="Path 6277" d="M221.208,90.746c1.079-2.649,2.27-5.748,4.286-7.8a30.155,30.155,0,0,1-4.286,7.8" transform="translate(150.164 56.303)"/>
    <path id="Path_6278" data-name="Path 6278" d="M148.651,51.979c1.449-1.78,2.77-3.73,4.681-5.07a13.878,13.878,0,0,1-2.528,3.519c-.329.348-1.722,1.956-2.152,1.551" transform="translate(100.909 31.843)"/>
    <path id="Path_6279" data-name="Path 6279" d="M167.363,32.035c-.237.688-3.618,5.308-4.294,4.676l1.362-1.954Z" transform="translate(110.697 21.746)"/>
    <path id="Path_6280" data-name="Path 6280" d="M113.186,21.818l-5.461,5.851c.255-1.729,2.731-3.927,4.095-5.075.438-.369.635-.945,1.367-.776" transform="translate(73.127 14.79)"/>
    <path id="Path_6281" data-name="Path 6281" d="M115.588,21.354c-.633.5-4.414,5.681-5.075,5.065a15.813,15.813,0,0,1,3.709-4.289c.438-.368.635-.947,1.367-.776" transform="translate(75.02 14.475)"/>
    <path id="Path_6282" data-name="Path 6282" class="cls-4" d="M44.731,73.23c1.4-1.415,5.438.878,6.729,1.865,4.375,3.353,8.089,8.419,12.12,11.69,2.273,1.843,11.973,6.8,12.6,8.871A2.362,2.362,0,0,1,72.86,98.59c-7.624-5.916-16.644-11.129-23.744-17.641-1.492-1.368-6.49-5.6-4.385-7.719" transform="translate(20.537 -4.777) rotate(17)"/>
  </g>
</svg>
