<?xml version="1.0" encoding="UTF-8"?>
<svg id="Layer_2" xmlns="http://www.w3.org/2000/svg" version="1.1" viewBox="0 0 336.9 306.2">
  <!-- Generator: Adobe Illustrator 29.6.1, SVG Export Plug-In . SVG Version: 2.1.1 Build 9)  -->
  <defs>
    <style>
      .st0 {
        fill: #01e486;
      }

      .st1 {
        fill: #fff;
      }
    </style>
  </defs>
  <g id="Layer_1-2">
    <g>
      <path class="st1" d="M215.9,87.7s12.9,11.9,14.3,12.3,8.9.4,9.6.3,8.9-2.7,8.9-2.7l-1.6,4.6-11,15.2-.7,3.7,3.1,3.4,4.2-1.4,2.7-6.7,1.9-5.6,5.2-4.7,1.6,4.7,4.9,4.4,3-.9,1.3-2.7.4,2.6-.9,6.2-3.3,10.5v3.3c-.1,0,2.6.6,2.6.6l2.9-1.7,1.6-8.7,2.1-12,6.3,1.6,10.6,27.2,1.1,4.5,2.6,3.4,6.3,6.9,4,4.4,7,6.2,16.2,1.9,13.5-15.4v-9.4s-2.5-15.5-2.5-15.5l-2.7-8.2-23.6,4.9-8.2,1.7-1.9-8-4.9-9.6-7.3-.7h-6.2l-6-6.4h-7.2c0,.1-1.3-2.3-1.3-2.3l-4.2-3.9-7.6-2.9v-3.7l-1.6-6.2-12.3-6.3-15.1,4.6-8,6.7h0Z"/>
      <g>
        <path class="st1" d="M33.8,199.5l-12.9,17.6-2,5.9-3.4,22-.3,8.6.5,5.4s12,24.3,11.8,24.6,15.5-.3,15.5-.3c0,0,10.7-4.4,10.7-4.5s6.9-4.6,6.9-4.6l5.9-6.3,7.6-8.7,3.6-4.2,2.7-3.8,6.7,12.8s3.6-2,3.6-2.2,2.1-4.9,2.1-4.9l-7-19.4,4.6-28.4,19-7.6,9.6-11.4,2.5-8,3.2,3.4,11.8,19.5,2,.3s1.2-2.3,1.2-2.5-2.5-7.5-2.5-7.5l-9.4-16.1-1.9-3.2,6.4-10.7,8.9,3.5,3.1,2,8.2,15.4,4.2,4.3,4.2-.3-.4-3.6-7.2-12.2-2.1-7,11.8-9,9.6-12.9,3.8-9.3-7.4-4.2-33.8-4-19,3.5-5.5,8s-1.6,11.9-1.2,12.8-14.6,9.1-14.6,9.1l-15.3,13.2s-16.2,13.6-16.1,13.8-17.6,15.1-17.6,15.1l-12-3.9h0Z"/>
        <g>
          <path class="st1" d="M59.7,63.2l2,1.1,1.3-3.8,1.7-6.7,3.8-7.1s4.6,3.7,5.4,3.5,5.3-2,5.5-1.7,1.2,2.4,1.2,2.4l5.5-2.6.8,1.3.6,5.6-.6,13.1,2.5-1.2,1.7-4.4-1.3-12.1,5-.5,9.5,18.9,1.4-.9,1.5-2.7,9.3,2.3,5.2-.2,10.4-2.3s1.3-3.9,1.3-4.3-3.1-9.1-3.1-9.1l-.9-1.9-6.3-5-5.6-1.7-5.1-.3-38.7-4.2-7.3,1.8-4.1-6-5-2.3-8.6,4.6s-2.2,10.5-1.9,10.5,7.1.9,7.3.8,7.4-4.3,7.4-4.3l5.2-1.7s-2.2,5.4-2.4,5.7-3.3,8.6-3.3,8.6l-1.4,6.8h0Z"/>
          <g>
            <path d="M183.9,222.4c-2.8-2.1-7.3-10.6-9.5-14.1-3.1-4.7-8.4-11.1-10.6-16.1-.9-1.9-.5-3.7-1.4-5.5-.7-1.5-2.6-3.4-3.4-4.9-2.3-4-4.1-8.4-6.9-12.1l9-6.3c6.3-6.6,12.6-13,16-21.7.9-2.4,2.8-6.6.8-8.8-.6-.6-4-2.3-4.9-2.7-5.7-2-15.7-3.4-21.7-4.2-.4,0-.8.2-.6-.6.6-2.1,5.3-7.9,7.1-9.3,5.4-4.3,12.8-4,18.8-6.7-.9-2-2.8-1.9-4.7-1.6-3.6.5-17.3,6.3-19.9,8.7-1.2,1.2-5.6,8.1-6.2,8.3-7.2.1-14.4,0-21.5,1.2-.3-.3-.7-5.6-.9-6.6-.6-3.2-2.2-4.6-.4-7.8,2.4-4.1,9.6-8.2,13.6-10.8,1.5-1,3.8-1.2,3.6-3.8-4.2-2.3-8.8,1.6-12,4.2-2.5,2-4.4,4.5-6.7,6.7-.5.5-1.6.9-1.9,1.5-1.2,1.9.3,10,.4,12.6,0,1.7,0,3.4,0,5.1-1,.7-2.4.6-3.3,1-3.2,1.4-9.8,10.7-10.6,14.2-.6,2.8-1.1,7.1.6,9.5v.5c-2.1,1.2-4.4,1.8-6.6,2.7-.3.1-1.5.9-2.5,1.4-.1.1-.3.3-.4.4-1.8,1.9-3.8,3.6-5.9,5.3-2.1,1.6-4.1,3.3-6.1,5-2.5,2.1-5,4.2-7.5,6.4-5,4.3-10.1,8.6-15.2,12.7-2.6,2.1-5.2,4.1-7.9,6-2.3,1.7-4.8,3.2-7.4,4.3-4.2,1.8-8.8,2.4-13.4,2.8-4.1,6-9.5,11.2-12.8,17.9,7.8-2.5,19.6-6.6,27.5-3.3,6.6,2.7,11.1,8.1,15.5,13.4,4.4,5.4,8.1,15.9,10.9,22.7.6,1.5,1.2,4.5,1.9,5.7.3.6.4.3.8,0,.4-.3,2.1-3.4,2.5-3.1l7.1,15.6c1.4,1.3,1.9-1,2.7-1.9.4-.4.3-.5.7,0,1.4,2.9,3.3,5.3,4.7,8.2,2.2,4.5,8.3,18.6,7.1,23-.1.4-2.8,5.8-3.1,6.1-.4.5-1.9,1.1-2,1.2-.8,1.4,0,1.6,1.3,1.1,3.1-1.2,7.4-7.1,7.4-10.5,0-4-4.5-12.3-6-16.5-1.1-3-1.9-6.2-3-9.2-.6-1.8-3.3-7.6-3.4-8.7,0-1.1,1.5-2.7,1.7-3.7.5-3.4-5.9-14.4-7.1-18.3,1.5-4.4,3.2-8.2,3.7-12.9.6-5.1-.4-8.2-.8-12.9,0-1-.3-2.7.6-3.2,3.1-.8,6.2-1.8,9.3-2.9,1.2-.5,2.2-1.5,3.4-1.9,3.2-1.2,5.5-1.2,8.6-3.6,3.2-2.5,2.8-3.9,4.3-7.1,1.8-3.6,4.1-7,4.7-11.2l13.5,22.8c.4,1.2,2.1,1,2.6,1.6.5.6,2.8,6.9,3.2,8.2,4.7,12.6,8.3,22.4,15.4,34.1.9,1.5,5.2,8.3,6.3,9,.6.4,4.8,1.5,5.3.4l-4.9-2.3c-7.5-13.1-12.4-27.4-18.1-41.3-1.1-2.7-4-7.6-4.6-9.9-.5-1.9-.2-4.5-.7-6.5-.5-1.9-2.6-6.6-3.6-8.6-2.3-4.8-5.3-9.6-8.6-13.8l2.9-7.2,2.1,1.1,10.7.7c4,6.2,6.2,16.9,13.1,20.4.5.3,1.6.8,2.2.8,1,0,1.9-1.1,2.6-.3,4.3,7.4,9.2,14.4,13.9,21.6,3.3,5.1,5.8,13.1,13.4,12.3,1.2-1.1-4-3.3-4.7-3.9h0ZM170.4,143.9c.1-.7,1.2-5.6,1.6-5.6,1.8,2.3-.5,4.7-1.3,6.9-.7,0-.4-.8-.3-1.2h0ZM168.4,144c-.6.5-.7,0-.8-.6-1-7.7,3.4-4.8.8.6ZM147.7,143.7c4.2-.4,4.3,8.2-.7,6.6-3.4-1.1-2.6-6.3.7-6.6ZM116.6,139.4l.4,5.7c-.5-.2-1.2-1.5-1.3-1.9-.5-1.4-1.4-4.1.9-3.8ZM113.7,140.9c1.1,1.7,1.3,3.7,1.7,5.7-1.3-.5-3.3-5-1.7-5.7ZM113.2,154.6l8.4,3.8c0,.7-.8.3-1.2.2-1.8-.5-4.8-2.1-6.5-3.1-.5-.3-1,0-.8-.9h0ZM120.4,161.5c0,.8-1.1.2-1.4,0-1.8-.7-3.9-2.3-5.4-3.5,0,0,6.8,3.4,6.9,3.4ZM93.7,198.6l-3.4,1.3-1.5-5.7s4.9,4.4,4.9,4.4ZM84.6,192.4l-5.7-8c1.4-1.1,6.2,6.3,5.7,8ZM82.7,196.9l-6.8-9.5c1.4-1.1,7.5,7.6,6.8,9.5ZM76.6,203l-6.5-15.2c4,3.6,5.5,10.1,6.5,15.2ZM68.6,190.5c.8.8,2.3,9,2.3,10.7-.6,0-.8-1.4-.9-1.9-.8-2.5-1.6-5.7-2-8.3-.1-.8.5-.7.7-.5h0ZM101.4,203.7c-6.2,2.7-13.4,3.6-19.8,5.7-4.9,1.6-10.6,1.6-15.3,3.9-.4.6,2.2,2.6,2.7,3.2,6.6,8.1,18.8,27.1,21.4,36.8.8,2.8,1.2,7.5-2.4,8.1-2.2-4.5-4.1-9.3-6.4-13.8-2.3-4.5-5.2-10-7.8-14.3-3.6-6.2-8.6-12-11.9-18.4-.2-3.2,5.3-4.4,7.7-5.5,8.8-3.9,18.9-6.2,27.2-10.1,1-.5,1.8-1.6,3-2,1.9-.7,4.2-.8,5.9.6,1.2,3.6-1.6,4.5-4.3,5.6h0ZM108.4,196.2c-1.2,0-3.9-16.3-4.6-18.3-1.3-3.9-3.7-8.4-6.8-11.1-.7-.6-2.2-.7-2.1-1.9,6,.3,8.8,7.4,10.8,12.2,1.8,4.2,2.9,10.5,3.2,15.1,0,1.2.4,3-.5,3.9ZM110.9,143.4c0-.8-.4-1.5.7-1.3l.8,4.9s-1.5-3.6-1.5-3.6ZM134.9,193.2c1.4,2.8,2.2,6.4,3.7,9.2l-1,.6-1-.6c-6.2-8.5-10.1-18.8-17.9-26.1v7.1c0,.2-.9,3.1-1.1,3.5-.4,1.2-3.8,8.1-5.4,6.6l3.8-21.4c1.6-2.3,4.8.7,6.3,2,3.3,2.9,10.3,14.9,12.5,19.2h0ZM158.5,188.2c-3.4-.3-5-3.1-6.5-5.8-5.3-9.3-7.6-18.6-15.7-26.5-.8-.8-3.4-3.1-4.4-2.5-2.1,2.4-1.4,5.7-2,8.7-.4,2.3-2.1,8.7-3.3,10.5-1.3,1.9-1.7-.4-3.3-1v-.5c2.5-4.6,3.3-10.1,5.3-14.8,1.5-3.6,3.7-6.1,7.5-3.1,5.9,4.6,8.3,10.1,12,16.2,2.3,3.7,9.6,13.6,10.3,17.2.1.6.2,1.3.2,1.9h0Z"/>
            <path d="M333.9,128c-.5-.4-3.4-1.3-4.2-1.4-10.9-1.6-20.1.4-29.4,6.2-.6.4-1,1-1.6,1.5l-.2.7c0,1.3,1.6,7.1-.2,7.1-2.3,0-2.6-7.4-3-9.2-1.3-5.2-3.4-9.9-3.3-15.4,0-1.8,1.2-5.8-2.6-4.2-2,.8-5.4,4.5-7,5.2-1.2.5-2.6.1-3.6.9-1,.2-.9-2.1-.8-2.7.2-1.3,2.1-1.3,3.1-1.8,2.1-1,8.6-4.9,10.4-4.8,3.8.2,5.3,10.3,5.8,13.2.5,2.9.7,5.9,1.3,8.8,4.8-2.1,10-6,15.1-7.1,6.5-1.4,13.5-1,19.9.3l-2.8-9.4c-2.4.5-4.7,1.2-7,1.9-2,.6-4.1,1.2-6.1,1.9-1.8.6-3.5,1.2-5.3,1.7-3.2.9-6.9,1.6-10.1,0-3.5-1.7-4.9-5.5-6.4-8.8-1.2-2.7-2.5-5.5-4.7-7.5-2.3-.3-4.9,1-6.8,2.2l-4.2-7.7c-1.4.2-2.8.4-4.1.6-4.1.6-8.9.8-12.3-2.1-2.5-2.1-3.9-5.2-5.5-8.1-.5.5-1.6.8-3.5,1.2,1.5-5.3-.5-8.6-3.8-12.4-.8-.9-2.9-2.3-3.2-2.9-.7-1.2-.4-3-.7-4.3-1.1-4.4-4.8-16.2-7.7-19.2-1.3-1.4-3.4-2.9-5.4-3.2-1.5.3,1.5,5.3,2,6,1.6,2.5,4.6,4.5,5.6,7,.4.9,1.5,5,1.6,5.9.1,1.3-.6,3.6-.3,5.1-.2.2-4.7-.8-4.9-1-1.1-.6-4.3-7-5.7-8.4-1.6-1.6-9.5-4.7-11.7-5.1-.9-.1-1.8.3-2.7.4-.4.6-.6,1-.1,1.7.5.6,7.8,4,8.8,4.2,1.5.3,3.2-.4,4.4.5.5.4,4.7,6.6,4.4,6.9-5.2,0-9.7,2.8-14,5.3-2.6,1.5-6.5,3.8-8.9,5.6-3.5,2.7-4.6,4-1.6,8,6.1,8,20.8,14.7,30.7,11.2,1.8-.6,3.1-1.5,4.8-2.3-2.5,3.2-5.5,6.6-7.6,10.1-1.8,2.8-4.7,7.7-4.2,11,.2,1.1,1.2,1.7,1.1,2.6-.5,3.4-3.2,8.9-4.2,12.6-1.8,6.2-1.6,12.8-3.4,19-1.2,4.2-4.4,8.5-5.2,12.9.5-.1.8-.6,1.1-1,6.9-8.8,7.7-17.3,10.5-27.6,1.2-4.7,2.9-9.4,4.3-14,.5-.7,1.4,0,2.4-.3.9-.2,3.5-2,4.1-2.8,1-1.5,1-3.8,1.7-5.6.4-1.1,3.5-8.1,4.1-8.1l8.1,6.4c1.6,1.1,2.6-.5,4.3-.3-.2,1.9-.5,3.8-1,5.7-.8,3.3-5,11.3-2.8,14,.3.4,1.6.5,2.2.5.2.2-.8,5.3-.8,6.3,0,5.4.5,10.2-1,15.7-1,3.8-3.4,7.2-4.3,11.1.9,0,1.6-1.3,2.1-1.9,6.4-8.5,6.3-16.5,6-26.8,0-2.2-1.6-4.7,1.3-5.5,2.5-2,3.6-18.4,4.8-19.2l4.6-.6c-.2,6.2,2.1,11.6,3.7,17.4l9,13.4c.8.1.5-.2.6-.5,1.8-3,3.7-5.6,6.4-7.9,0,.6.5,1.3.2,1.9-.2.5-3.4,3.5-4.2,4.6-.8,1.1-2.2,2.8-1.6,4.1.4.8,4,4.8,5,5.7.7.8,1.6,1.7,2.5,2.3l1.1-10.8c.5-.8,1.4,0,1.6.7.5,3.3,0,9.3,0,12.9s4.1,4.4,4.6,4c2.2-8.2,9.2-11.7,17.1-13.2,5.6-1.1,11.1-1.1,16.5,1,.3-3.1-.9-21.1-2.5-22.5h0ZM251.1,87.2l-2.2-1-3.8-2.8c2.2.3,4.7,2.1,6.1,3.8ZM244.2,88c.4-.3,5.4,2,5.7,3-1.7-.1-3.5-1.2-5-2.1-.2-.1-1.5-.4-.8-.9h0ZM234.3,81.3c3.4-3.1,9.2,1.2,5.6,4.4-1.1.9-4,1.4-5.1.7-.9-.6-1.7-3.9-.5-5.1ZM238.9,98.1c-1.2-.5-3.2-1.8-4.2-2.8l5.7,2.7c0,.8-1.1.3-1.5.2h0ZM236.6,92.6c2.7.9,5.6,3,7.6,4.9-2.7-.8-5.4-3.1-7.6-4.9ZM240,90.7c.7,0,1.2,0,1.8.3.7.2,6.3,3.5,5.4,4.3-.5.5-6.5-3.9-7.2-4.6h0ZM260.4,114.3c-.4.6-.5.2-.9,0-3.5-1-5.6-10.5-6.2-13.8-1-.2-.6.2-.8.6-2.1,3.5-5.2,7.1-6.9,10.6-1,2.1-2.4,8.8-3.6,9.8-1.1.8-5.9,2.2-5.9-.2,0-1,3.6-7.3,4.4-8.6,2.3-3.7,7.8-11.7,11.2-13.9.4-.2,1.1-.7,1.5-.8,2.5-.6,3.9,6.9,4.7,8.7,1.1,2.6,3.6,4.2,2.4,7.5h0ZM261.6,103.2c-.6,1.9-.1,4.1-1.3,5.3-1.1-1.8-.8-4.1,0-6,.3-.8,3-4.8,3.9-3.9-.3,1.8-1.8,2.7-2.5,4.6h0ZM277.2,113.9c-.6-.9-1.3-3.8-2-5.2-.5-.9-1.9-3.2-2.6-3.9-.4-.5-.3-.5-.8,0-.9.8-3.8,7.2-4.3,8.7-1.7,5.4-1.3,13.1-3.6,18.5-.7,1.6-2.5,1.7-4.1,1.8,0-4.1,2.5-7.6,3.3-11.4.6-3,.7-6.1,1.5-9.2.9-3.2,4.7-14.2,9.3-9.7,1.3,1.2,5.4,8.3,4.9,9.8l-.9.7c-.4.2-.4.5-.8,0h0ZM323,138.6c-.6-1.4-1.1-2.9-1-4.5,1.6,1.1,1.5,3.6,1.9,5.3-1.1.2-.6-.3-.9-.8ZM326,139c-.9-2.2-1.6-5-1.9-7.3-.2-2,.5-1.6,1.4-.2,1.6,2.7,1.4,6.7,1.8,9.8-.6-.3-1.1-1.7-1.3-2.3ZM330.7,140.6c-1.1.2-.6-.3-.9-.8-.9-2.1-1.7-7-1.4-9.3l.8-.2c.2.1,1.5,4.1,1.5,4.4v5.9h0Z"/>
            <path d="M121.4,42.8c-3.1,0-6.1-.2-9.2-.6-3.5-.5-6.9-1-10.3-1.7-1.7-.3-3.4-.6-5.1-1-1.6-.3-3.3-.5-4.9-.8-1.3-.3-2.7-.8-3.8-1.6-.8-.5-1.4-1.3-2.1-1.9l-2.2.9c-3.5-4.7-9-5.6-13.8-1.8-1.6,1.3-1.9,2.8-3.2,4.2-.6-2.4-2.7-6.2-4.6-7.8-.8-.7-2.2-1-2.7-1.9-.5-.7-.4-1.6-.8-2.3-1.4-2.5-3.6-5.3-6.6-5.2-1.6,0-2.3.8-3.5,1.1-2.6.5-4.9.4-7.3,1.7v1.5c1.5-.3,3.5-.2,5-.5,2.1-.4,4.9-2.2,6.9-1.8,1.2.2,5.4,5.1,4.8,5.7-2.7.5-3.4-1.9-6-2.6-5.9-1.5-8.8,2.4-12.3,6.2-.4.4-1.1.6-1.5,1.1-.8.9-3.5,4.2-.6,3.6,2.8-.6,5.3-4.9,7.6-6.8,3.3-2.8,5-3.8,9-.9-2.8,2.3-6,4.5-7.7,7.9-1.5,3.1-3.1,11,1.5,12,5.7,1.3,11.9-2.5,16.9-4.9-.9,2.5-2.3,4.8-3.2,7.2-1.9,5.3-2.5,10.8-2.3,16.4l-1,6.2c-.4,1.5-5.3,4.3-3.2,6.3.6,0,4.2-2.8,4.5-3.5,1.4-3.1,1.1-9.1,1.4-12.5,2.6,1,2.3-3.6,2.8-5.3,1.1-3.6,2.3-7.3,4.4-10.5.2-.2,2.4,1.3,3.1,1.5,2.4.8,5,.6,7.5,0l.9,1.6c1.2,1,6.5-3.3,6.9-2.9,1.1,6.8-1.3,13.8,0,20.6l1.9-.4c.2,3.7.1,11.6,2.3,14.6,1.4,2,6.5-1.2,4.3-3.2l-3.2,2.3c-.5-3.2-.7-6.2-.8-9.3,0-3.6,0-7.4.4-11l-.8-11.2,1.2.2c1.8,4.8,5.4,9.1,8.5,13.1.4.6,1.2.7,1.7,1.4,2.9,4.7-.4,13.5,5.2,17.6,2.6,1.9,6.5.4,5.5-.4-2.7.3-5.2-1.5-6.2-3.9-.2-3.9-1.4-8.7,1.1-12l8.9.3c-1.1-8.2,3.1-15.5,8.8-21.1l-4-3.8h0ZM48.4,45.3c-.7,0-.3-.8-.3-1.2.3-2,1.5-5,3-6.4l-2.7,7.6h0ZM58.7,37.9c-1.8,2.6-4.8-1-3-2.8s4.7.5,3,2.8ZM72.3,45.3c-.9-.5-2-2.4-3.2-1-.2.2-.2.8-.5,1.2-1.9,2.4-2.8,4.6-4,7.4l-3,10.3c-1.7,0,.8-8.3,1.2-9.1.8-2.2,5.1-11.2,6.8-12.2.3-.2.4-.3.8-.3.9,0,9,4.6,9,5.1-1.8,2-5.1-.3-7-1.4h0ZM87.6,66.3c-.3-6.3,2-13.3-1.4-19.1l-4.7,2.3c.1-.8-.3-2.4,0-3,.1-.2,4.2-2.3,4.7-2.4,1.6,0,2,1.8,2.3,3,.8,3.6.8,6.9.9,10.5.2,2.9,1.4,6.8-1.9,8.6h0ZM105.2,67.8l-1.1-.7c-1.9-6.5-4.6-12.8-7-19.1l-6.8,1.9-.8-2.7c1.7-.5,6.9-2.6,8.3-1.4.7.6,4.6,7.3,5.1,8.5.6,1.5,1.3,4,1.6,5.6.3,1.3,1.6,7.3.6,7.9h0ZM112.4,62.1c-2-1.4-2.3-4.3-3-6.5,1-1,3.8,5.4,3,6.5ZM110.9,52.6c1.6,1.5,2.3,4,2.7,6.1-1.9-1.3-2.3-4-2.7-6.1ZM115.8,44.4c-.8.9-2.5,1.8-3.4,2.7-2.2,2-4.8,4.4-6.1,7l-.8-.2c-.1-1.6,4.9-6.6,6.3-7.8.6-.5,3.4-2.8,3.8-2.7.4,0,.6.5.2,1Z"/>
            <path d="M62.1,272.4c-.1-1.1-.5-2.4-1-3.4-4.7-10.8-19.7-22.9-32-21.7-4.8.5-10.5,3-13.9,6.5,0-9.8-.8-19.7,2.8-29,1.2-3.3,1.5-4.3,4.9-5.8,5.2-2.3,17.4-4.5,23-3.2,7.5,1.8,17.2,15,20.5,21.7s5.3,14.6,7.9,21.8c0,.6-6.4,7.9-7.4,9s-2.8,3.1-3.8,3.8c-.3.2-.4.5-1,.4h0ZM27.1,243c.4-6.1.9-12.7,0-18.8,0-.3-.2-1.1-.7-1-.6,5.8-.5,11.8,0,17.7,0,.4.2,2.1.7,2.1h0ZM32.4,238.4c.8-4.4,1.1-9-.6-13.3-1.3,1.8-.3,4.7-.2,6.7,0,1.6-.1,3.3,0,4.9,0,.4.1,1.8.7,1.8h0ZM22.9,226.4c-.5,2,0,9.2,0,11.8s.4,2.1.8,2.1c.7-4.8.2-9.6,0-14.5-.2,0-.7.4-.8.6ZM21,226.6h-1.1c-.9,3.9-1,7.5-.4,11.4.8-.1.6-.8.8-1.3.3-1.2,1.1-9.7.8-10.1h0Z"/>
            <path d="M24.1,287.9c-.3-.2-1.2-1.7-1.5-2.1-2.8-5.2-6.8-21.3-7-27.2-.2-5.3,6.6-8.3,11.1-9.2,12-2.4,26.3,8.8,31.8,18.9.6,1.1,2.7,5.2,2.3,6.1-.2.5-5.2,5.3-6,5.9-6,4.8-17.4,8.2-25,8.9-1.7.2-4.4,0-5.8-1.2h0ZM50.7,270.5l-6.5-2.3c1,1.1,3.2,2,4.6,2.4.4.1,1.8.7,1.8-.1h0ZM49.5,275c-3.4-2.8-8.3-4.6-12.6-5.7,0,.6.7.7,1.1,1,3.3,1.9,7.8,3.8,11.4,4.8ZM50.3,278.8l-18.3-6.9,3.7,2.2c4,1.6,8.6,4.4,12.9,5,.4,0,1.7.4,1.7-.3h0ZM41.2,280l-8-2.3,6.8,2.6,1.2-.3h0ZM36.6,281.5l-7.2-2.3c.3.6,1.7,1.1,2.3,1.3,1,.4,2.4.9,3.4,1.2.4,0,1.6.5,1.5-.2h0Z"/>
            <path d="M336.4,152.8c0,7.6,2,14.2-3.8,20.3s-17.4-1.1-22.8-4.6c-.8-.5-4.8-3.3-4.9-3.9-.7-2.2,2.8-5.6,4.3-7,4.7-4,11.5-5.8,17.5-6.1,3.3-.1,6.6-.2,9.7,1.2h0Z"/>
            <path d="M126.2,48.8c1.5-.9,5.2,2.7,5.9,4,2.4,4.2,3.5,12.5-2.2,14.4l-11.2.5-.6-.6c0-4.5.9-8.7,3.4-12.5.5-.7,4.3-5.7,4.6-5.9h0ZM131.1,60.6c0-2.2-.3-5.2-2.3-6.5l2.3,6.5ZM129.2,60.9c.6-.9-1.9-5.8-2.7-5l2.7,5Z"/>
            <path d="M287.7,189.7c.5-2.5,2.4-6.8,4.4-8.3.7-.6,1.9-.8,2.4-1.4,2.5-2.6,1.2-16.5,1.5-20.6l1.1-5.9c0,5.7,1,11.2.8,17-.1,3.4-.4,9.2-2.7,11.8-.7.8-2,1.5-2.9,2.5-1.5,1.7-2.4,3.9-4.8,5h0Z"/>
            <path class="st0" d="M69.6,119.7c7.2,6.7,16.6,15.7,22.6,23.3,4.9,6.3,6.4,9,0,14.9-3.5,3.2-7.8,6-11.4,9.1-7.5,6.6-14.3,14-22.3,20-5.8,4.4-8,5.4-13.7.4-4.8-4.2-20-19.9-22.5-25.1-1.3-2.6-1.9-5.5-1.1-8.4l19.4-19.8c6.5-5.3,14.6-14.7,23.4-15.9,2.8-.4,3.7-.3,5.7,1.6h0ZM56.2,152.4c-.5.1-.7.7-.5,1.2.2.6,9.4,8.6,10,8.5s1.1-.9.6-1.6c-.6-.9-2.9-2.9-3.8-3.8-1-.9-5.2-4.6-6.2-4.4h0ZM55.2,163.4v6.7c0,1.1,2.3.6,2.3-1.1v-8.8c-2.3-1.2-6.2-1-8.8-.4-1,.2-2,.8-2.6,1.6,1.4,1.8,4.1.8,6,.6.4,0,1-.3.9.3l-12.2,10.1c-.6.6-.5,1.9.2,2.1,2.2.6,11.8-9.8,14.2-11h0Z"/>
            <path class="st0" d="M298.6,38.2c5.3-.6,8,1.7,10.4,6.1,2.8,5.1,5,11.2,7.9,16.5,5.4,10,15.5,23.3,19.2,33.4.6,1.6,1.2,3.3.3,5-.9,1.5-9.4,4.4-11.6,5.2-5.4,1.9-16.5,6.8-20.7,1.3-4.2-5.6-6.8-18.1-14.7-20.3-6.9-1.9-14.4,5.4-19.6-2.9-3.2-5.2-8-15.1-10.4-20.8-.6-1.4-2.1-4-1.4-5.3,2.4-4.3,13.5-7.3,18.1-9.3,6.9-3,14.9-7.9,22.5-8.7h0ZM281.2,73.9c5-1.8,16-5.9,16-12.4s-4.2-7.1-4.2-4.2c0,2.1,3.8,3.1.8,7.2s-9.6,5.8-13.9,8.6c-.6,0-.7,0-.5-.5.3-1.3,2.3-3.5.2-4-4.6,5.5-.5,8.8,5.5,8.8,0-.8,0-1.4-.5-1.9-.8-.7-2.7-.5-3.3-1.5h0Z"/>
            <path class="st0" d="M96.7,6.2c6.6-.8,16.7,2.6,23.3,4.3,3.5.9,7.3.1,8,5,.6,4.2-1.8,14.9-3,19.4-1.4,5.1-2.2,6-7.7,5.5-7.7-.6-18.7-3.1-26.6-4.6-6.7-1.3-3.4-9.5-2.4-14.4.4-1.9,3-12.8,3.6-13.5.7-.8,3.8-1.5,4.9-1.6ZM111.3,31.2l1.5-1.3c.5-2-5,0-5,1.1-.3,1.2,4,6.3,4.3,3.4l-.8-1.7,9.5,1.5c0-.6.1-.9-.4-1.3-1.2-1-7.3-1.5-9.1-1.7h0Z"/>
            <path class="st0" d="M336.9,101.6c-3,1.4-6,2.7-9,3.8-1.2.4-2.4.8-3.5,1.3-2.5.9-5,1.6-7.5,2.3-.8.2-1.7.5-2.5.6h0c-.1,0-.3,0-.4,0-1.8.3-3.6.5-5.3,0-3.3-.8-5.8-3.6-7.5-6.5-1.7-3-2.7-6.2-4.4-9.2-1.8-3.2-4.4-6.3-8-7.1-5-1.2-10.5,2.3-15.3.4-2.9-1.2-4.8-4.1-6.4-6.8-1-1.7-1.9-3.4-2.9-5.1-.2-.6-.5-1.1-.9-1.6-2.6-4.8-5.1-9.6-7.5-14.5l-.2-.5-.4.5c-2.6,3.4-2.2,9.4-1.3,13.3,1.3,5.6,7.6,19.9,11.7,23.8,6.6,6.4,15-2.3,21.5-1.3,6.4,1,9.5,15.4,12.5,20.3,1.4,2.3,3.1,4.1,5.9,4.4,5.9.7,20.7-4.7,26.2-7.6,4.5-2.4,4.3-5.2,5.1-9.7"/>
            <path class="st0" d="M31.1,176.1c-1.9-2.4-4.1-4.5-6.2-6.7-1-1.1-2-2.2-2.9-3.4,0,0,0,0,0,0-.3-.6-.8-1.2-1.4-1.9-1.1-1.7-2-3.5-2.6-5.5-.5-1.7-.6-3.5-.4-5.3.2-.6.4-1.3.8-1.7,2.2-2.6,7.4-6.3,10.1-8.9,6.1-5.9,11.9-12.2,18.3-17.9,3.5-3.1,7-6.2,11.1-8.4,0-.2-2.4-.5-2.9-.6-13.6-1.4-18.6,6.5-27.8,14.1-8,6.6-18.5,13.5-24.9,21.5-7.1,8.9,3.8,17.3,9.3,23.4,4.7,5.3,12.6,15.6,17.9,19.4,4.7,3.5,12.2,1.6,17.4-.1.9-.3,2.5-.6,3-1.4-2.7,0-6-2.9-8-4.8-3.8-3.5-7.1-8-10.8-11.9h0Z"/>
            <path class="st0" d="M139,10.9c0-2.6-1-4.7-3.4-5.8-5.7-2.5-14.8-2.8-21.1-3.7-3.3-.5-6.1-1.7-9.5-1.4-3.5.3-6.6,1.5-9,4.1,2.1,0,4.2.1,6.2.5,8,1.4,16.4,3.6,24.5,5.3.4,0,.7.4,1.1.5.2.2.3.4.5.6.9,1.3,1.1,2.9,1.1,4.5,0,1.9-.1,3.8-.4,5.6-.1.4-.2.8-.1,1.2-.1.7-.2,1.5-.2,2.2,0,0-.1-.1-.2-.1-1.4,5.3-1.5,11.1-4.2,16,3.6-.4,8.6-1.6,10.1-5.3,1.3-3.1,4.8-20.9,4.7-24.1h0Z"/>
          </g>
        </g>
      </g>
    </g>
  </g>
</svg>