<?xml version="1.0" encoding="UTF-8"?>
<svg id="Layer_2" xmlns="http://www.w3.org/2000/svg" xmlns:xlink="http://www.w3.org/1999/xlink" version="1.1" viewBox="0 0 138.3 123.6">
  <!-- Generator: Adobe Illustrator 29.6.1, SVG Export Plug-In . SVG Version: 2.1.1 Build 9)  -->
  <defs>
    <style>
      .st0 {
        fill: none;
      }

      .st1 {
        fill: #fff;
      }

      .st2 {
        fill: #fd8721;
      }

      .st3 {
        clip-path: url(#clippath);
      }
    </style>
    <clipPath id="clippath">
      <rect class="st0" width="138.3" height="123.6"/>
    </clipPath>
  </defs>
  <g id="Layer_1-2">
    <g>
      <path class="st1" d="M7.9,42.9l5.4-6.8,6.2-5.7,10.6-8.1,18.2-11,13.1-6.2,14.9-3.7,8.5-.2,7.2.9,9.1,2.2,12.1,5.4,5.9,5.4,7.9,8.3,6.1,10.1,3.6,13.5v9.4s-.4,13.8-.9,14.6-.5,6.4-.5,6.4l-2,6.3-6.2,9.8-9,9-8.3,5.9-9.6,5.6-15,4.6-10.8,1.5-20.3,2.8-7.3-.3-7.9-7.2-5.7-12.2-.4-2.8.6-1.9,1.5-1,3.6-.7,8.9-1.2,9.1-1.9,13.7-4.3,8.9-4.3,6.3-3.7,7-5.4,3.6-4.4,3.9-6.8,1.8-8.1-.5-8.2-3.9-6-9.4-2.9h-8.7c0,0-14.7,2.3-14.7,2.3l-10.5,3.2-6.8,3.7-10.5,6.3-5.9,3.9-6.9,5.7-3.3.2-7.2-3.9-5.6-10.3-.8-4.9.8-2.8h0Z"/>
      <g class="st3">
        <g id="Group_9065">
          <path id="Path_7056" d="M84,0c7.8-.3,14.5,2,21.5,5,10,4.2,16.1,10.4,22.7,18.8,3.4,4.3,5.4,9.4,7.3,14.5,2.5,6.8,2.7,10.7,2.7,17.9,0,10.7-1.3,23.8-7.1,33-5.3,8.3-13,14-20.6,20-11.1,8.7-27.5,10.7-41.2,12.5-6.5,1-13.1,1.6-19.7,1.8-5.3.1-8.7-5.6-12.4-8.8-1.5-4.2-5.5-10.4-4.7-14.9.7-4,6.3-3.7,9.5-4.2,10.7-1.8,20.6-3.6,30.6-7.9,9.2-4,18.8-10,24.4-18.6,2.9-4.6,4.8-14,3.7-19.2-2.4-11.2-16.9-9.9-25.7-9.2-10.2.9-23.3,5.3-31.8,11-5.6,3.8-11.3,7.7-16.7,11.8-1.8,1.4-2.2,2.5-4.8,2.2-1.7-.2-6.4-2.7-8-3.7-1.7-1-3.6-4.7-4.4-6.6-3-6.6-4.3-10.3.5-16.5,2.5-3.2,6.1-6.2,9.1-8.9,10.7-9.4,22.9-16.8,35.9-22.8C64.1,2.9,73.9.5,84,0M50.5,95.8l6.1,19.7c.2.1,4,0,4.6,0,16.7-.3,36-4.2,49.9-13.7,8.8-6.1,14.3-11.1,19.4-20.6,4.9-9.2,5.9-21.8,4.9-32-1.5-15-8.1-25.1-19.1-34.9-6.2-5.6-11.9-7.8-19.9-9.9-7.3-1.9-12.1-3.3-19.8-2.2-10.3,1.5-20,5.9-29.1,10.8-6.7,3.5-13.2,7.4-19.5,11.7-3.3,2.4-6.4,4.9-9.3,7.8,3.6,5.5,5.7,11.9,9,17.6,6.2-3.8,12.1-8.2,18.9-10.9,11.2-4.5,22-7.7,34.4-6.6,15.2,1.4,25.6,12.6,21.4,28.2-1.3,4.8-3.5,9.7-6.9,13.3-5,5.3-10.9,9.7-17.5,12.9-7.6,3.6-16.4,6.8-24.7,8.5-.9.2-1.7.3-2.6.3M17.4,33.5c-1.6,1.6-3.2,3.2-4.7,4.9-1.1,1.3-3.6,4.2-3.9,5.7-.5,2-.6,5.4.2,7.3,1.1,2.5,2.4,5,3.8,7.3.4.5.8,1.1,1.3,1.6l12-9.3-8.6-17.4h0ZM80.3,33.9h-2.2l3.6,3.1v.4c-.6-.3-4.4-3.7-4.7-3.7h-2.5l3.9,3,1.4,1.5-6.1-4.5-2.3.2c1.6,1.2,3.5,2.2,4.9,3.7l-5.8-3.6-2.6.3c1.4,1.2,3.1,2.1,4.3,3.5-.7-.3-1.4-.7-2.1-1.2-.5-.3-2.7-2-3-2.1-.7-.2-1.6.4-2.3.2l5.3,4.2c-2.1-1-4-2.5-5.8-3.9-.5-.2-1.5.2-2,.4.3.2,4.7,3.3,4.5,3.5l-5.3-3.3-2.3.8c1.3.7,2.7,1.4,3.7,2.6-.4-.1-.8-.3-1.2-.5-.6-.3-2.6-1.8-3-1.9-.5-.1-1.2.4-1.7.4,1.3,1.1,3,1.7,4.2,3-1.8-.5-3.2-1.9-4.8-2.7l-1.8.7c1.4.7,2.8,1.5,3.9,2.6-1.2,0-3.6-2.3-4.4-2.4-.2,0-1.4.3-1.3.5.7.3,1.6.7,2,1.4-.8.2-2-1.1-2.7-1.2-.7.2-1.4.4-2.1.7-.2.1-.1.2,0,.3,1,.9,2.2,1.6,3.2,2.6.2.1.3.2.3.5-1.5-.9-3-1.9-4.3-3.1-.5.3-1.2.3-1.7.6-.2,0-.2,0-.2.3,1.2.6,2.3,1.4,3.1,2.4-.2,0-.4-.2-.6-.3-1-.7-1.9-1.4-2.8-2.3l-2,.9,3,2.2-3.2-2.2-1.8.8c1.7,1.3,3.7,2.4,5,4.1l-5.4-3.8-2.3,1.1v.3c1.4,1,3,1.9,4.2,3,.1.1.7.6.5.8l-5.2-3.6c-.5-.1-2,.8-2.4,1.1,0,0-.3,0-.2.2.2.5,3.1,2.1,3.4,2.9-1.1-.2-2.9-2.4-3.8-2.7-.3,0-.7.2-1,.4,1.3,1.1,2.7,2,3.8,3.3l-4.3-3-2.2,1.3v.3c1.1.6,2.2,1.5,3.2,2.4-1.1,0-2.9-2.1-3.6-2.3-.3,0-.8.4-1.1.6,1.3,1.3,2.9,2.2,4.1,3.6-.3,0-.6-.2-.9-.4-.6-.4-3.3-2.7-3.6-2.8-.4,0-.9.4-1.2.6,1.1.9,2.4,1.5,3.3,2.6-1.2,0-2.7-2.1-3.6-2.3-.4,0-1.2.6-1.5.9l7,4h.4c5.3-3.3,10.3-6.9,16-9.5,11.7-5.3,24.2-7.1,37-6.5.8,0,1.8.2,2.6.3-.4-.5-.9-1-1.4-1.5-.8-.9-1.7-1.7-2.7-2.5-.6-.3-1.3-.5-2-.5,1,.9,1.9,2,2.8,3,0,.1.4.3.1.4l-4-3.6-2.9-.6c1.5,1.2,2.9,2.5,4.2,3.9h-.2c0,0-5-4-5-4h0ZM94.3,39.7c-1.4-1.8-3.4-3.2-5.6-3.9.5.7,1.2,1.2,1.7,1.8.4.6.9,1.1,1.3,1.6.6.3,1.8.3,2.5.5M95.4,40c0-.2-1.4-1.3-1.5-1.2.4.6.7,1.3,1.5,1.2M30.3,54.9l-4-2.7-1.3.9,4.6,4.3c-.6-.2-1.1-.5-1.5-1-1.2-.9-2.3-2-3.4-3l-1.7,1.1c.4.2,3.9,3,3.7,3.2l-3.9-2.8-1,.6c1,.8,2,1.6,2.9,2.6.1.2.3.2.3.5-.2.2-.8-.4-1-.5-.8-.6-1.6-1.4-2.4-2.1l-1.1.6,4.5,4.5c-.5-.1-.9-.4-1.2-.7-1.2-1-2.4-2.2-3.5-3.3-.2,0-1.3.7-1,1.1.3.3,1.1.9,1.5,1.2.9.8,2,1.7,2.7,2.6.1.1.9,1,.8,1.2l-5.5-4.9c-.2,0-1,.8-.9.9.9.5,1.7,1.2,2.3,2,.1.2.3.2.3.5-.1.1-2.6-2.2-2.9-2.2-.4,0-1.6,1.3-2,1.6l6.2,2.8c.8.2,1.5,0,2.3-.2.8-.3,3.6-2.6,4.5-3.3,1.8-1.4,3.4-3.1,5.4-4.2v-.3c0,0-5-2.7-5-2.7h-.3s1.8,1.7,1.8,1.7h0ZM129.4,87.2l1.2.2c1.6-2.7,3.1-5.8,3.7-8.9l-2.7,5.4c.2,0,.6.2.5.6h-.9c0,0-1.8,2.7-1.8,2.7h0ZM130.3,87.9l-1.3-.4-1.8,2.2c.2.2,1.3.4,1.4.7,0,.4-1.6-.3-1.8-.2l-1.2,1.3,1.3.5v.4c0,0-1.7-.4-1.7-.4l-1.2,1.2,1.9.8c1.7-1.9,3.2-3.9,4.5-6M122.2,95.1l2.1.5,1-1.3-1.8-.7-1.3,1.5h0ZM120.8,96.6l1.8.8,1.2-1.3-2.1-.7-.9,1.2ZM49.7,96l-4.5.5c0,.2,0,.3.2.4,1,1.3,2.7,2.5,3.2,4.1-1-.3-3.7-4.3-4.3-4.3l-8.8,1.4c-1.3.7-2.5,2.2-2,3.7,1.6,3,3.9,12.4,7.3,13.5,1.2.4,3.6.2,4.9.2,2.6,0,5.3.2,8,.2s1.2-.3,1.8-.2l-5.8-19.5h0ZM122.2,97.7l-1.8-.8-1.3,1.1,1.7,1.3c.2-.2,1.6-1.4,1.4-1.6M117.1,99.9c.4,0,1.2,1.2,1.4,1.2l1.8-1.5-1.8-1.1-1.4,1.5ZM116.2,102.9c-.6.2-1.6-1-2-1l-2.2,1.4,1.8,1.3c1.6-.9,3.1-2,4.5-3.2l-1.7-1.1-1.8,1.3c0,.3,1.4.9,1.4,1.4M113.5,105.1c.2-.2-1.4-1.3-1.7-1.4-.5-.2-1.3.3-1.7.7,0,0-.2,0-.2.2,0,0,1.8,1.1,1.5,1.4l-2-1.2-2.8,1.7,1.8,1.7h.3s4.7-3.1,4.7-3.1h0ZM104,107.8l2,2c.4,0,1.9-1,2.3-1.3l-2.1-1.7-2.2.9h0ZM101.7,108.9c0,.2,0,.2.1.3.5.6,1.5,1.2,2,1.8l1.8-1-2.1-1.9s-1.8.8-1.8.8ZM96,111.2l2.8,2.1,4.5-2.1-2.2-2.1-2.1.8,1.8,1.8-2.4-1.5-2.3.7v.3c0,0,0,0,0,0ZM95.3,111.2l-1.6.6,2.7,2.3,1.9-.7-2.7-2.2s-.3,0-.3,0ZM93.2,111.9l-2,.6c.9.8,2.2,1.5,2.9,2.5l2-.7s-2.9-2.3-2.9-2.3ZM93.8,115.1l-3-2.5-1.6.3c0,.3.1.3.2.4.7.8,1.9,1.3,2.6,2.2l1.8-.4h0ZM91.8,115.6c-1.1-.6-2.2-1.4-3.1-2.3l-1.9.4c0,.2,0,.3.2.4.3.3,2.4,2.1,2.6,2.2.3,0,2.3-.5,2.2-.7M89.1,116.5l-2.9-2.6-3.2.7,2.8,2.7,3.3-.8h0ZM85.4,117.3l-3.1-2.6-3,.5,2.7,2.8c1,0,1.9-.2,2.9-.4.2,0,.5-.1.5-.3M65.3,116.9h-2l2.6,3.1c-.6-.4-1.2-.9-1.8-1.4-.4-.4-1.2-1.5-1.5-1.6-.5-.2-1.6,0-2.2.1.4.5,1,.9,1.3,1.4.5.5.9,1.2,1.2,1.8l-3-3.2h-1.9c0,0,3.6,3.7,3.6,3.7l12.9-1.4v-.3c-1-.6-2.1-1.3-3-2.1-.2-.1-.3-.2-.3-.5.3-.2,1.8.9,2.2,1.2.7.5,1.2,1,1.9,1.5l6.4-1.1-3-2.8-2.4.5c.8.6,1.5,1.3,2.2,2,.1.2.3.2.3.5-.3.3-2.7-2.4-3.2-2.4l-6.7.7,3,2.8c-.7-.4-1.4-.8-2-1.3-.6-.4-1.1-1-1.6-1.5h-2c0,0,2.8,3,2.8,3-.4,0-1.1-.5-1.4-.8-.4-.3-2-2-2.2-2M56.3,117h-2.2l1.6,2.3-2-2.2h-1.8c.5.6,1.1,1.2,1.6,1.8.5.6,1,1.2,1.4,2-.7-.6-1.3-1.2-2-1.9-.3-.3-1.4-1.8-1.6-1.8-.4-.2-1.2,0-1.6,0,.8.9,1.7,1.8,2.4,2.8.2.2,1,1.1.8,1.3-1.5-1-2.6-2.7-3.9-4.1h-2c.1.6.8.9,1.2,1.4.3.3.6.7.8,1.1,0,.1.4.3.1.4-1-.3-2.1-2.5-2.8-2.8-.5,0-1.1-.2-1.6-.2-.2,0-.3-.1-.3.2l1.6,1.6,1.1,1.5c-.5-.4-1.1-.8-1.6-1.3-1-.9-1.8-2.4-3.4-1.9,1.9,1.6,3.7,3.5,5.8,4.9l12-.9-3.7-3.9h0Z"/>
          <path id="Path_7057" class="st2" d="M19.1,81.5c1.5.6,6.8,2.5,7.5,3.7.3.5.2,1.1-.2,1.4-6.8,3.9-13.8,7.8-20.9,11.1-1.2.5-3.5,1.7-4.7,1.7-2.1,0,1.3-2.4,1.8-2.8,3.8-2.8,8-4.9,11.8-7.7.7-.5,3-2.2,3.2-2.8,0-.1,0-.3,0-.4-2.9-.8-7-.1-9.7-1.3-2.2-1,.8-2.5,1.8-3.1,4.9-3,10.1-5.3,15.2-7.9.9-.5,4.3-2.8,5.1-2.4.4.2.4.5.1.8-.4.5-2.3,1.7-3,2.3-2.3,2-4.8,4-7,6-.2.2-1.2,1-1,1.3"/>
          <path id="Path_7058" d="M45.2,112.4c0,0-1.7-1.3-1.8-1.5-1.5-1.3-2.8-2.7-4.1-4.1-.1-.2-.3-.2-.3-.5.2-.2.9.5,1.1.6,1,.8,2,2,2.9,2.9.3.3,2.5,2.2,2.2,2.6"/>
          <path id="Path_7059" d="M48.5,113.4c0,0-.9-.6-1-.7-.7-.6-1.5-1.4-2.2-2-1-.9-2-1.9-2.8-3,.3-.2,2,1.4,2.2,1.6,1.2,1,2.2,2.1,3.2,3.3,0,.1.6.7.5.8"/>
          <path id="Path_7060" d="M49.2,103.9c-.3,0-.3-.1-.5-.3-1.6-1.5-3.1-3.1-4.4-4.8-.1-.2-.3-.4-.3-.6.3,0,.4,0,.5.2,1,.8,3,3.2,3.8,4.3.1.2.8,1.1.8,1.2"/>
          <path id="Path_7061" d="M43.8,113.2c-.2.1-1-.5-1.2-.7-.9-.8-1.7-1.6-2.4-2.4-.1-.2-.3-.3-.2-.6.3,0,.4,0,.5.2.2.2,3.4,3.3,3.2,3.5"/>
          <path id="Path_7062" d="M50.5,113.1c-.1.1-.7-.4-.8-.5-.2-.2-2.3-2.1-2.2-2.2.6-.1,3.3,2.4,3,2.7"/>
          <path id="Path_7063" d="M41.3,113.7c0,.1-2.1-1.7-2.2-1.9-.1-.2-.3-.3-.2-.6.2,0,.4.1.6.3.2.2,2,1.9,1.8,2.2"/>
          <path id="Path_7064" d="M46.3,102.7c0,0-.8-.4-.9-.6-.3-.2-.8-.6-1-.9-.2-.2-.5-.4-.5-.8.3-.2,2,1.4,2.2,1.7.1.2.3.2.3.5"/>
          <path id="Path_7065" d="M23.5,48.5c-.2.2-3.8-3.9-4.1-4.3-.2-.2-.4-.5-.4-.7.1-.1.8.4.9.5,1.1,1.1,2.1,2.2,3,3.5.1.2.7.9.5,1"/>
          <path id="Path_7066" d="M23.1,50c-.3,0-.3-.1-.5-.3-.4-.4-.8-.8-1.2-1.2-.2-.2-1.4-1.6-1.3-1.8.5,0,.9.5,1.1.8.6.6,1.1,1.2,1.6,1.9.1.2.3.3.2.5"/>
          <path id="Path_7067" d="M13.1,49.9c-.2,0-.3-.1-.5-.3-1-.9-1.9-2-2.8-3.1-.1-.2-.4-.4-.3-.7,1.3,1.2,2.5,2.6,3.5,4.1"/>
          <path id="Path_7068" d="M11.7,50.6c-.4-.2-3.1-3.1-2.9-3.4.4,0,.7.5.9.7.6.6,1.1,1.2,1.6,1.9.2.2.3.5.3.8"/>
          <path id="Path_7069" d="M10.5,50.7l-1.3-1.1c0-1.3,1.5.6,1.3,1.1"/>
          <path id="Path_7070" d="M21.8,50.6c0,0-1.1-.8-1.2-.9-.2-.2-.6-.5-.7-.9.2-.2,1.5,1.1,1.6,1.3.1.2.3.2.3.5"/>
          <path id="Path_7071" d="M11.3,45.8c-.4-.3-.7-.6-1-1-.1-.1-.8-1-.7-1.1l.6.4,1.1,1.6h0Z"/>
        </g>
      </g>
    </g>
  </g>
</svg>