<?xml version="1.0" encoding="UTF-8"?>
<svg id="Layer_2" xmlns="http://www.w3.org/2000/svg" version="1.1" viewBox="0 0 842.4 362.3">
  <!-- Generator: Adobe Illustrator 29.6.1, SVG Export Plug-In . SVG Version: 2.1.1 Build 9)  -->
  <defs>
    <style>
      .st0 {
        fill: #eb8330;
      }

      .st1 {
        fill: #fff;
      }

      .st2 {
        fill: none;
        stroke: #000;
        stroke-width: 4px;
      }
    </style>
  </defs>
  <g id="Layer_1-2">
    <g>
      <path class="st1" d="M593.2,12.1l6.1-.3,52.4,33.3,13.2,13.1,3.4-3.1,7.3-8.7,1.4-3.1s9.8-3.9,10.4-3.7,4.7,1.1,4.7,1.1l19.3,4.7,4.8,3.3,5.3-3.3,3,3-1.2,4.2,6.7-1.1.6,3.4,3.7,2.8-1.7,2.3,4.5-.9,19.1-8.9,36.8-15.7,11-7,14.9-10,7.6-2.9,5.9.5,5.1,9,.3,28.1-6.8,17.3-20.5,14.6-19.8,3.6-27.2-.6-16.2-.5,3.4,4.7,7.5,4.5,4.5,1.9,7.2,8.4,4.7,18.5,4.7,9.8,1.6,14.6-.5,8.6-4.7,7.8,4.2,6.1,1.7,3.9-.3,20.8-5.3,3.4-4.8-6.7-12,13.4-12.3,4.4-22.2-5.8-14.6-9.5-7.8-8.7-10-8.6-10-13.7,4.7,10.7-.9,11-4.7,6.2-8.4-14.8-9,1.6-4.8-2.2-10.1-21.3-.3-7-6.5-7.9,2-13.1,8.9-11-6.7-10.1-.5-19.9-26.4-3.6-17-10.6-12.1-21.6-3.3-21.5.5-9.8,5.4-7.3h0Z"/>
      <path class="st1" d="M303.5,180.4l-14.3-3.1-9.8-3.1-14.8,4.7-9.7,12.9-6.1,13.4-2.5,16.5.5,13.9,4.7,13.3s7.3,7.4,7.5,7.9,9.7,4.5,10.1,4.6,13-.9,13-.9l15.4-11.2,8.9-12,.7,3.6-7.6,21.5-6.3,12.2v13.9c.1,0,.6,4.3.6,4.3l7.5-4.1,3.5-9.6.9-16.6,15.8-13.3,2.6,2,9.3,8.2-.6-6.1,8.1,3,1.9,3.6-17.1,18.2-2,7.7-3.7,8.6-5.2,26.7-1.7,9.8.7,3.2,8.6-5.6,4.1-12.7,3.5-19.4-1.4-4.1,11.9-6.3,11.9-10.5,3.6-8.1v-15.6c-.1,0,7.5.6,7.5.6l9.4-4.3s5.3,14.7,6.1,14.9,12.5,13.4,12.5,13.4l2.7,35.1s6.8,8.1,7.2,8.1,8.9-5.1,8.9-5.1l1.4-10.8-10.1-28.9-4.7-6-4.8-18.1-5.2-13.2,5.1,3,13.3,21.1,15.8,16.1,6.1,7.5,7.6,28.8,7.8,6.2,8.1-4.6-2.5-6.8-12.9-25.9-1.4-3.5,3.6-.5,2.1,4.3,15.8,10.2h20.9l9.1-1.7,16.3-6.3,17.5-16.6,8.9-17,5-13.9.9-10.4-1.2-15.1-10.3-16.8-13.9-14-10.5-14.3,3.7-4.1,5.3-1.7,15.1-9.6,7.7-13.4,1.9-17.6-3.7-29.7-9.3-14.7-15.1-4.7-14,6.9-23.5,23.2-19.1,21-3.4-6,4.5-15.9-4.6-23.1-5.7-12.3-9.6-5.7-9.6,7.2-17.1,19-23.8,43.9-10.9,21.7-6.3-3.1-7.3,3.6-2.6-7.6-8.1,10.6-14.3,9.9-1.1-4.3-7.8,6-5.1,7.8-7.2-7.9-1.9,4-1.2,9.7h0Z"/>
      <path class="st1" d="M49.2,169.1l7.3,11.4,14.5,11.9,16.9,3.1,9.9.8,13-5.2,2.1,15.3.7,6.4s1.7,2.7,1.8,2.9,2.6.4,2.6.4l2-4.2,2.6-8.4.3-7.8-3.3-8.1,6-3.7,8-14.8s3-11.4,3-11.6-2.3-17.3-2.3-17.3l3.6,1.3s5.1,5.3,5.3,5.3,4.5,8.8,4.5,8.8c0,0,5.5,14.8,5.7,15.1s1.1,4.5,1.1,4.5l-2.1,9.2s1.4,1.8,1.7,1.9,4.7-3.1,4.7-3.1c0,0,1.1-6.8,1.1-7s-1-8.5-1-8.7-1.5-8.3-1.5-8.3l-8.3-15.4s-.5-4.9-.5-5.1-2.6-7.7-2.6-7.7l1.6-1.5,7.9,7.4-1-10.8s9.9.9,10.5,1,4.8,5.1,4.8,5.1l3.1,13.2,3.3,11,1.3,2.2,4.8-3.8-.4-12.1-10.9-19.3h3.7c0,.1,3.9-4.6,3.9-4.6l4.7,4.6,4.8-10.8v-6.9c0,0,9.5-2,9.5-2l10.9-6,5.4-7.7,3.9-4.6-2.7-23.4-3.7-3.3-5.1-7.2-16.8-5.6-5.5.2-12,8.2h-3.6l-5.6-10.8-1.8,1.2-.6,9-5.4-1.1-6.2-3.2-10.1-17-11.2-16.7L108.8,1.8l-9.2,1.1-6.8,6.9-5.1,10.9-1.8,13.1,5.1,17.6s6.8,12.7,6.9,13,7.2,9.7,7.2,9.7h-1.8c0,0-10.6-3.7-10.6-3.7l-20.2-6.6-14.1-4.1-18.4-5-17.5-2.3-14.5,1.3-5.1,3.2-1.2,5.1,2,8.1,2.7,6.9,6.6,9.9,17.2,10.7,23.3,3.8,15.5-1.1.2,3.9-5.9,4.3-8.5,4.5s-6.2,8.9-6.2,9.2-5,14.1-5,14.1l-.2,8.5,1.9,10.1,3.9,14.2h0Z"/>
      <g id="Group_9119">
        <path id="Path_7045" class="st0" d="M301.3,312.1l-5.1-1.9s-1.4-7.6-1.5-8,0-10.5,0-10.5l5.7-2.5s.8,5.1.9,6,0,8.9,0,8.9v8Z"/>
        <path id="Path_7044" class="st0" d="M153.2,179.4l2-7.4,4.8-1.8v5.6l-4.3,10.8-2-.8-.5-6.5h0Z"/>
        <g id="Group_9062">
          <path id="Path_7048" class="st0" d="M456.4,328.8l-8.1-1.9s-2.9-3.7-3.1-4.1-1.6-4.8-1.6-4.8l5.9-1s4.8,2,5.5,2.3c1.2,1.1,2.3,2.5,3,4,0,1.2,0,2.4,0,3.7l-1.6,1.9h0Z"/>
          <path id="Path_7047" class="st0" d="M414.6,341s-6.4-6-7.1-7.1-5.4-13.6-5.4-13.6l6.8-5.1s5.1,7.1,5.1,7.5,1.7,7.1,1.8,7.8-1.1,10.5-1.1,10.5h0Z"/>
          <path id="Path_7046" class="st0" d="M318.7,361.1c-.5-.1-4.4-22.1-4.4-22.1l2.2-6.1s5,6.5,5.4,7.1,3.2,13.8,3.2,13.8c0,0-2.8,6.4-3.2,6.6s-3.2.8-3.2.8h0Z"/>
          <path id="Path_5842" d="M447.6,118.7c4.8-5.3,10.2-10.1,15-15.3,9.7-10.4,23-28.7,37-32.8,21.5-6.2,31.1,18.9,33,35.9,2.5,21.9,2.2,36-15.3,51.1-5,4.3-11.6,7.3-17.6,9.9,5.1,5.8,12.6,11,17.3,17.1,2.7,3.5,4.8,8.3,7.2,12,3.6,5.5,7.1,7.9,8.9,14.9,7.1,27.1-8.6,58.9-29.8,75.7-8.4,6.6-31.4,10.4-41.8,8.9-8.5-1.1-18.4-8.2-25.4-12.9l13.1,26.3c.8,2.2,1.9,4.2,1.3,6.7,4.4,2.3,9.2,2.8,9.4,8.8.4,9.8-11.7,5.6-15.7-.2-.7-1-1-2.8-1.6-3.5-1.3-1.3-5.7-2-7.9-4.6-3.6-4.2-7.2-20.3-9.4-26.4-.5-1.5-3.2-8.6-3.7-9.3-.6-.8-2.2-1.1-3.1-2-6.9-6.4-13.1-13.5-18.6-21.1-2.8-3.9-4.9-8.4-8-12.1.6,3.4,1.5,6.7,2.8,9.9,1.1,2.8,3.9,7.4,4.4,9.8,1.5,7.3,2.6,7.4,5.5,13.8,3,6.5,9.4,23.4,9,30.1-.1,2.1-1.9,4.9-1.8,5.8,0,.9,4.5,7.7,5.3,10,1.2,3.7,1.6,7.6,1.4,11.5-.4,4.6-1.4,9.2-6.8,5.2-5.7-4.2-9.4-13.3-10.9-20-12.8-2-9.5-21.4-10.1-31-.1-1.8-1.4-13.1-1.9-13.7s-3.1-2-4.1-3c-6.9-6.7-10.6-13.5-13.3-22.7-4.1,3-9.1,4.4-14.2,4,1.4,7.2.6,15.8-4.1,21.7-1.8,2.3-7.6,6.6-10.2,8.6-2.3,1.7-11,6.4-11.6,8.2-1.3,8.6-2,17.9-4.4,26.3-1.2,4-3.2,11.1-7.8,11.8v.8c3.3,5,5.7,10.5,7,16.3,1,4.8-.9,11.6-6.2,12.8-3.7.9-4-.3-5-3.3-2.2-6.6-2-12.8-2-19.6,0-.9.6-2.3.5-2.8-.2-.7-2-1-2.5-2.6-1.4-4.2,2.5-14.5,3.5-19.2,1.8-8.5,1.8-17.3,5.7-24.9.6-1.2,2-2.1,2.3-3.4.8-4.1-2.4-5.1,2.3-10.1,3.6-3.9,7.7-7.3,10.8-11.9.3-.5.8-.5.6-1.4-5.7-2-9.8-6.7-14-10.7-6,3.6-12.1,7.4-16,13.3.8,8.2.3,19.1-5.2,25.4,1.2,7.1,4.5,16.1.1,22.5-8,.2-8.8-10.8-8.7-16.8,0-4.9,0-3-1-6.9-1.5-6.4.2-17.9,3.2-23.8.8-1.6,3.8-4.9,4-5.7.3-1.2-.7-2.7-.2-4.7.7-3.5,4.3-7.5,4.9-11.3-4.8,5.1-10.1,12.8-16.6,16-9.3,4.5-15.3,4.9-24.8.7-26.9-11.7-19.7-58.8-4-77.1,1.9-2.2,4.5-4,6.2-6.2-.1-1.5-6.7-7.7-8.2-8.9-6.4-4.8-16.3-7.4-19.6-15.3l17,8.3c5,4.5,10.1,8.8,13.9,14.4,2.1-1.6,4.6-1.9,6.9-2.7.6-.2,1,.3.7-.8-3-6.1-7.4-11.4-12.7-15.6-1.4-1.2-7.5-4.9-7.9-5.7-.3-.5-.4-1.1-.3-1.7.9-.9,9.3,4.4,10.7,5.4,6.8,4.6,11.3,9.7,13.7,17.8,8.6-.8,15.3,3.8,22.9,6.3.1-6.3,2.5-12.1,5.4-17.6l5.4,9.1c2.2,1.7,2.4-1,3.7-2.6.9-1,1.8-2,2.8-2.9,1.4-1.2,9.5-7.6,10.7-6.5.1.9.2,2.3,1.4,2.1.7,0,9.2-5.3,10.1-6.2,1.6-1.5,9-12.2,9.9-12.4,3.2,0,3.5,4.8,3.6,7.3,4.6-1.9,7.4-6.6,10.5,0l20-40.1c8.2-14.9,24.8-40.4,39.7-48.9,6.6-3.8,13.4.2,16.6,6.5,5.4,10.7,8,29.5,7.5,41.4-.1,3.3-1.1,7.1-1.1,10.5M428.8,63.2c-.8.2-6.8,4.5-7.8,5.3-18,15.1-33.5,43.6-43.4,65-.8,1.7-4.3,10.4-4.2,11.6,0,.6,2.8,4.2,3.1,4.2,1.8-2.1,6.9-3.4,8.5-5.1,1.5-1.7,6.4-13.1,8.2-16.2,8.3-15,18.1-29.2,29.3-42.2,4.7-5.5,9.7-10.8,14.8-15.9.6-1.2-2-3.2-2.9-3.9-1.4-1.2-3.6-3.2-5.5-2.8M409.6,105.7l33.8-14.2c1.2-2.5-3.5-19.8-5.1-19.8-10.5,10.6-19.7,22.2-28.7,34M489.6,104.5c11.4-5.9,23.1-14.1,24.2-28.1-3.1-3.3-8.2-2.8-12.2-1.4,2.2,8.8-1.8,17-7.4,23.5-1.8,2.1-4.8,3.1-4.5,5.9M499.9,76.2c-7.5.9-12.4,8-17.6,12.8,3.8,2.5,6.9,6.4,7.4,11.1,7.2-6,11.5-14.2,10.2-23.8M484,125.5c8.4-4.7,14.5-12.2,21.3-18.7,2.9-2.8,5.8-6.2,8.8-8.8,3.3-2.8,7.3-4.8,10.8-7.4-1.9-5-3.8-9.6-8.5-12.7-1.3,12.2-8.8,19.3-18.5,25.4-2.5,1.6-7.6,3.4-9.6,5.2-1.6,2.4-3,5-4.2,7.7v9.4h0ZM440.3,153.3c8.3-4.3,16.5-8.9,24.4-13.9,3.9-2.5,13.1-8.2,15.3-12,2-3.4,1-9,2.2-13.2,1.1-3.9,5.3-7.8,5.3-11.7,0-3.6-4.4-9.3-7.1-11.6l-46.2,51.3v.8c3.7,1.3,5.5,6.6,6.2,10.2M525.4,92.6c-.6-.5-9.7,6.1-10.8,7.1-4,3.5-7.8,8.3-11.5,12-3.9,3.9-8.2,7.6-12.3,11.3,0,.7,6.9,2.6,8.1,3.2,1.8.8,4.2,3.3,5.7,3.4l24-9.2c.2-9.3-1-18.7-3.3-27.7M443.7,93.2c-6.1,3.1-12.8,5.1-19.1,7.8-3,1.4-15,6.6-16.8,8-.8.7-4.1,5.9-4.9,7.2-1.8,3-3.1,6.2-4.6,9.2l5.7,4.9,39.2-20.5.5-1.2c-.5-5.2,1.6-10.4,0-15.6M416.4,137.7c.7,5.7-.5,12.6,0,18.4,2.9-2.1,5.6-4.4,8.2-6.8,3.6-3.4,7-7,10.2-10.8,5.5-6.8,5.5-18,8.2-26.1l-30.6,15.3c1,3.4,3.5,5.9,4,9.9M529.4,123.3c-1.2-1.4-3.4,5.2-3.7,5.7-6.4,11.9-14.3,21.7-22.5,32.3.3.3,6-2.6,6.8-3.1,5.8-3.4,16.3-15.8,18-22.3,1-4.1,1.4-8.4,1.3-12.6M512.3,140.9c-5.9,1.1-6.7-5.8-9.4-9-3.3-3.9-9.4-5.4-14-7.3l-12.2,9.9-35.3,21.5c6.8,4.6,16.8,3.9,24.5,2.4,8-1.6,38.5-11.1,44.4-15.2.9-.5,1.6-1.3,2.1-2.2M525.4,124.4l-19.3,7.4c.9,6.2,7.1,9.5,12.3,5.3,1.2-1,7.6-12,7-12.7M389.2,148.8l8.5-.2c1.2-3.7,5.8-10.9,4.8-14.5-.6-2.1-4.3-6.9-6.8-6.2-1.4.4-6.5,13.3-8,15.2l1.5,5.7h0ZM401.7,159l11.8-4.3c-.7-8,3.1-19-3.6-25-1.3,1-4.9,2.3-5.3,3.7-.4,1.2,0,2.7-.4,4.2-1.3,4.9-3.9,9.4-4.8,14.5l3.8,2.3-1.6,4.8h0ZM515.2,142.6c-4,.7-7.4,3.8-11.4,5.4-3.7,1.4-8.1,2.1-11.9,3.4-15.9,5.6-34.5,14.5-51.1,7.1-1,8.6-12.7,13.3-19.8,16.9-14.2,7.1-29.2,12.5-43.1,20.5-5,2.9-10.5,5.7-13.2,11.1.8,1.2.8.6,1.5.4,13.2-2.2,24.7-8.6,36.9-13.1,20-7.3,40.3-13.8,60.8-19.8,9.4-2.8,22.9-5.4,31.5-9.9,1.8-.9,5.9-5.5,7.5-7.2,4.4-4.6,8.3-9.8,12.2-14.8M373.3,195.9c5.4-2.8,10.6-6.4,16.1-9.2,13.1-6.6,33.8-12.9,44.9-21.5,6.7-5.2,3-15.1-2-20.2h-1.1c-6,5.4-11.7,11.1-17.9,16.2-10.3,8.6-22.8,16.4-32.6,25.2-1,.9-8.2,8.5-7.4,9.4M306.9,170.9v11.6c0,1.1,1.8,4.8,2.1,6.4,2.4,12.7,1,22.1,1.3,34.4.2,7.7,0,14.7,4.8,21.3l3.4-6.8c3.9,6.4,7.1,13.6,13.3,18.2.1-1.2-3.7-8.4-1.4-8.5l8.5,6.2c1.3.2.8-.6.8-1.4.1-1.8-.1-3.6,0-5.4l6.5,4.6c8.4-3.1,15.4-1.5,23.7-5.8,7.1-3.6,21.6-16,26.5-22.3.8-1,6.4-9.3,5.7-9.9l-10.8,2.3c-1.7-1.6,6.3-10.1,9.1-9.6l-4.6-1.4c-.6-2.3,2.6-3.6,3.4-5.4-11.5,5.2-23.8,7.8-36,10.7-2.8-3.1-1.4-5.8.8-8.7,7.2-9.7,15.8-18.3,25.6-25.5,6.8-5,15.9-9.9,22-15.4,1.2-1,2.2-3.1-.1-2.4-1.9.5-12.1,5.9-12.9,5l1.1-7.4-3.5-.8-.5-3.7c-.4-.5-5.4,2.6-7.4,1.4l-2-6c-4.2,0-9.9,7.6-11.4,7.9-1.8.4-2-4.5-3.4-3.9-1.7.7-7.5,8.7-8.5,8.5-2-1.8.3-5.1-1.7-6.8-1.4.8-9,4.7-9.9,3.9l-2-7.9c-3.5,3.6-6.2,8.3-10.2,11.4-3.9,3-9.2,5-13.1,8.5-.5.4-3.8,5.2-3,1.6.3-1.5,1.3-3,1.7-4.5.2-.8,1-1.1-.4-1-5,4-7.7,9.3-11.4,14.2-1.5,0-5.3-8.7-6.5-7.4M496.4,173.3c-6.6-3.5-9.6-5.3-16.4-.6l4,4.2-6.2,2.3c.7,2.4,2.8,4.3,2.3,7.1-1.2.1-5.4-.5-5.7.9l3.4,6.2-5.7,2,1.7,6.8h-5.1l2.8,4.8c-1.7,2.3-5.6-.7-7.1.8-2.1,2.1.5,6.6,0,7.4-.8,1.4-3.5-.3-3.7,0l.3,2.9-3.7.6v4l-2.8-1.1-.6,4.5-2.8-1.1v4l-2.8-.6.3,6.8-.6,1.2-8.8-3.4-.6,4.5h-3.3c0,0-.5,4.4-.5,4.4l-5.1-.9-1.3,7.2c-2.1,1.3-4.5-.2-6.6-.4-3,4.7,2.3,8.9,4,13.2.6,1.6,1,3.2,1,4.9l1.1-4.5c7.7,2.2,8.1,2.1,10.8-5.4l5.7,1.5.5-4.3,4.5.9c.1-1.2-.5-6.7.9-6.8l6,2.8.6-4.5,3.6.4c1.4-3,2.4-2.8,5.4-3.4l-2.8-6.2c5.6.9,8,4.5,7.5-3.9h5v-4.1h4c.6-.6-3-5.7,0-6,6.9,3.9,3.5-6.6,3.9-7l4,.6c1.1-2.4-1-4.3-.5-6.8l3.4.6-.6-5.1c6.9,1.9-2-6.1-1.1-6.8h5.7l-2.3-4.5,2.8-.9c-1.5-1.4-4.9-1.5-4.5-4.2l5.6-1.2-1.1-4.7,1.7-1.2-4.5-5.1c1.1-1.6,2.9.7,4.5.3v-2.7h-.1ZM276.8,177.2c-17.7,4.2-25,21.4-27.6,37.9-2.9,18.5,1.9,44.3,25.1,44.4,8.2,0,21.6-11.1,26.1-17.7,8.1-11.9,7.6-38,4-51.6-1.7-6.5-3.6-8.2-9.8-10.6-2.1-.8-13.7-4-14.9-3,2.1,6.5-2.3,6.7-2.8.6M456.1,186.2l-1.1-2.4,2.8-2.9-1.9-1.3c-6.7,1.9-13.7,3.5-20.3,5.8-3,1.1-6.3,2.9-9.5,4.1-7.4,2.7-18.9,5.2-24.3,10.3-.7.7-2.5,2.2-2.5,3.1l5.9.9c.6-.1.5,1.1.3,1.4-.6,1.3-7.4,4.3-8.5,6,1.4,0,2.8,0,4.2,0,2-.3,5.6-2.9,6-.2.6,4.2-9.8,15.4-12.5,19,6.3,1.2,11.2,7.8,14.3-1.6l5,.5v-5.7l5.1,2.8,1.7-5.7,3.7,1.7c2.3-3.3,1.7-7.8,7.1-6.2l.5-2.6,2.9-.2-1.7-4c1.4,0,8.5.1,9.1-.6,1.3-1.6-3.5-2.8-2.8-4.5l5.7-1.1-1.3-1.1v-1.2c0,0,6.5-2.8,6.5-2.8l-1.7-3.6,5.1-2.6c.2-.9-.7-.5-1.1-.9-2.1-1.8,1.9-3.9,3.4-4.2M449.9,280.4c-.4.4-5-2.9-5.7.9-.6,3.1,1.5,4.2,3.8,5.9,10.8,7.6,26.3,5.5,38.2,2.1,26.5-7.5,47.2-39.3,46-66.4-.4-8.4-2.9-14.1-7.5-20.9-.8-1.1-5.8-7.9-6.4-8.3-1.3-.8-2.8-1.2-4.3-1.1l2.8,4.2-2.3.9.9,2.9-3.7,2c0,1.2,11.3,8,0,6,.4,1.2,2.8,1.2,2.3,3.1-.4,1.4-3.1.5-4,1.1.9,1.3,4.4,2.5,3.9,4.4-.4,1.5-7.2,6.2-9,7.2l.3,1.2,1.9.6v1.6l-3.9,1.2,2.3,4.5h-5.7c1.3,1.9,1.4,4,1.1,6.2-2,1.2-2.6-.9-4.5-1.1l-.5,4.9-4-.3-.6,6.5-4-1.4-.3,2.9-2.6.3-.8.8.3,2.9-4-.6-.5,3.7-2.9-.3-.6,3.3h-3.3v3.5l-4-1.1,1.1,6.8c-1.1,1.1-4.6-3.6-5.9-3.4l-1.4,4.3-3.4-.3-.6,5.7-2.3-1.7v6.2l-5.4-4.5c-1.3,1-.8,2.6-.9,4M391.5,233.4c-.3.6,3.3,9.6,4,10.9,4.7,9.8,12.3,16.9,19.5,24.7,1,1.1,5.3,7,6.2,6.8,3.4-4.3,3.6-8.2,1.9-13.2-2.4-7.1-16.8-24.9-23.3-28.3-1.8-.9-7-3.2-8.3-.9M391.4,273c0-2,2.5-4.4,2.7-6.1.3-2.4-2.6-10-3.6-12.6-2-5.1-4.9-10.1-6.8-15.3-2.8,2.6-5.1,5.9-8.7,7.5-1.1,1.8,3.4,12.5,4.8,14.6,2.5,3.5,5.2,6.8,8.2,10,1,.8,2.2,1.5,3.4,2M310.3,243c-1.3-.3-.9.2-1.3.7-1.2,1.8-6.8,14.7-6.1,15.7h2c0,0,16.5-11.9,16.5-11.9l-2.3-4.5-4.5,6.8-4.3-6.8h0ZM353.4,252.1h-1.8c0,0-23.4,28.3-23.4,28.3-1,1.5.6,10,1.7,10.2,3.2-.8,5-3.7,7.4-5.7,10.8-8.6,18.2-10.2,17.3-26.4,0-.9-.9-6.3-1.2-6.5M340.4,257.7l-4.5-1.7,2.6,5.1,2-3.4ZM295.5,290.1c5-.6,6.8-7.1,7.7-11.3,1.1-5.2,1.9-12.4-.9-17-.9.5-1.6,2.5-2,3.4-3.5,8.4-3.8,16-4.8,25M394.9,270.8l-1.1,4.2c2,10,.4,21.9,2.4,31.6.6,3.1,3.7,11.1,8,10,1.4-1,2.7-2.3,3.7-3.7,1.3-4.5-1.2-9-2-13.1-2-10.4-2.3-21.7-10.9-29.1M448.1,316.1c.6-2.4-.7-4.5-1.5-6.5-3.6-9.3-10.5-23.7-17.4-30.8-1.3-1.3-2.1-2.7-4.3-2.3.4,2.7,2.4,4.7,3.2,7.2,2.9,8.9,3.3,19.1,8.2,27.5,3.2,5.6,4.9,6.8,11.7,4.9M316.3,331.3c6-4.7,6.1-5.8,7.9-13.4,1.7-7.2,2.7-14.5,3.1-21.9,0-3.2.1-5.8-1.1-8.8l-4.1,7.5c-2.4,7.1-2.7,14.7-4.1,22-1,5.1-3.6,10-3.1,15.3,0,.1,1.2-.6,1.5-.8M298.4,291.2c-1.4-.2-.9,0-1.2.8-.6,2.2-1,4.5-1.1,6.8,0,1.6,1.7,12.1,3.7,11.7,3.3-.8-1.7-16.5-1.4-19.3M414.1,338.3c2-5.8-1.5-16-6-19.8-.5-.5-.8-.8-1.6-.5-.6.2-1.8,2.5-1.9,3.2-.2,2.4,8,18.3,9.5,17.2M456.2,327c2.4-2.5-8.1-11-10.8-7.1,1.9,4,6.5,6.6,10.8,7.1M317.7,335.5c-.8-.9-1,0-1.1.8-.1,1.5-.1,3,0,4.5.3,6.2,1.3,12.5,3.1,18.4,6.5-5.4-.7-17-2-23.8"/>
          <path id="Path_5845" d="M348.3,164.1c-3.4,3.3-5.9,8.4-9,11.8-.6.6-.6,1.6-1.8,1.3-1.5-1.8,7.2-10.5,8.8-11.9.6-.5.9-1.4,2-1.1"/>
          <path id="Path_5846" d="M336.4,234.5c-1.4,1.4-6.5-8.1-6.8-9.4-.1-.5-.9-2.1.3-2,.6,0,6.1,9.7,6.5,11.3"/>
          <path id="Path_5847" d="M380.7,173.8c-.7,1.6-8.5,6.6-9.6,5.7-.2-1.1.5-1.4,1.2-1.9,2.1-1.8,5.6-3.8,8.5-3.7"/>
          <path id="Path_5848" d="M349.5,212.9c0-4.2,2.6-9.1,5.7-11.9-1.6,4-2.7,8.6-5.7,11.9"/>
          <path id="Path_5849" d="M352.9,169.2l-8.5,6.8c-1.4-1.6,6.5-7.5,8.5-6.8"/>
          <path id="Path_5850" d="M361.9,172.1l-5.3,3.5-3.8,1.6c1.9-3,5.7-4.6,9.1-5.1"/>
          <path id="Path_5851" d="M352.9,214.6c.2-3.4,1.6-6.6,4-9.1-.6,3-1.7,7-4,9.1"/>
          <path id="Path_5852" d="M346,237.9c-1.4-.1-7.2-5.8-6.2-6.8l2,1.1,4.2,5.7h0Z"/>
          <path id="Path_5853" d="M361.9,233.9c.5,2.5-4.9-.3-5.8-.8-.8-.5-1.4,0-1.1-1.5l6.8,2.3Z"/>
          <path id="Path_5854" d="M528.8,220.3l-6.8-13.6c3.8,3.1,6.1,8.9,6.8,13.6"/>
          <path id="Path_5855" d="M527.7,223.7l-7.4-9.6c1.1-1,5.6,5.8,6.1,6.6.5.9,1.3,1.9,1.2,3"/>
          <path id="Path_5856" d="M526.5,233.3c-1.6.5-8.9-7-8.5-7.4,1.9.9,3.6,2.2,5.1,3.7,1.3,1.1,2.4,2.3,3.4,3.7"/>
          <path id="Path_5857" d="M523.1,235c-3.1-.6-5.3-4-7.4-6.2,1.1-.2,1.3.6,2,1.1,1.9,1.6,3.7,3.3,5.4,5.1"/>
          <path id="Path_5858" d="M284,185.8c3.3-.5,6.7-.4,9.5,1.6,12.9,9,9.2,42.4-8,44.8-22.4,3.1-25.5-42.8-1.5-46.3M286.8,208.8c2.3-2.6,4.3-14-.8-15-6.7-1.4-7.5,15.1-3.7,16.2,1.6.4,3.3,0,4.5-1.2"/>
          <path id="Path_5859" d="M271.1,233.3c-1,1-5.8-5.6-5.7-6.8.8-.9,6.6,5.8,5.7,6.8"/>
          <path id="Path_5860" d="M271.1,237.9c-1,1-5.4-5.3-5.7-6.2,1.1-1,6,5.9,5.7,6.2"/>
          <path id="Path_5861" d="M419.8,193.6c-.2.8-1.8,1.5-2.5,1.8-1.8.9-3.7,1.3-5.5,2.2-.3-1.5.4-1,1.1-1.4,2.1-1.3,4.4-2.2,6.8-2.6"/>
        </g>
        <g id="Group_9064">
          <path id="Path_7052" class="st0" d="M774.8,216.6l-2-3.1,2.8-15,4.1-1,3.1,1,.9,3.7-.5,5.3-3.5,6.1-4.9,3.1Z"/>
          <path id="Path_7051" class="st0" d="M732.5,185.1s9.8-17.2,10.1-17.2,2.8.5,2.8.5l-.3,4.5-2.5,8.9-4.6,3.8s-4.4,1.1-4.6,1.1-.9-1.5-.9-1.5h0Z"/>
          <path id="Path_7050" class="st0" d="M698,171.9s-1.5-5.3-1.6-5.8,3.9-7.2,3.9-7.2l4.7,1.2-2.1,7.5-2.6,4.3h-2.3,0Z"/>
          <path id="Path_7049" class="st0" d="M676.5,190.9c-.7-.1-6.9-4.2-8.1-5.5-1.2-1.3-2.4-6.9-1.9-7s5.3-1.6,5.3-1.6l5.9,8.6,1.8,5.5,6.7-3.9s4.8,3.4,4.9,3.9,2.9,9,2.7,9.8-2.7,4-2.7,4c0,0-4.8-.6-4.9-1.4-.3-1.7-.9-3.4-1.6-5-.8-1.6-1.4-3.3-2-5l-6.9-2.3"/>
          <path id="Path_5843" d="M725.2,49.9l5.7-.3c1.7.8,1,3.8,1.1,5.4,3.6-1.1,3.1,2.8,5.8,2.8,5.7-3,11.7-6,17.6-8.5,9.2-4,18.8-7,27.6-11.5,13.1-6.7,24.3-16.5,37.3-23.4,6.5-3.4,11.8-2.9,17.1,2.5,7.8,8,4.8,32.4.9,42.2-5,12.8-19.1,23.9-31.9,28.2-17,5.8-36.5,2.1-54.1.7,1.8,1.4,3.3,3.4,5.2,4.8.9.7,2.2.9,3,1.5,10.6,8.3,16.9,20.5,19,33.8,1.5,9.6,3.7,23.7,1.6,33.1-.3,1.4-2,5.1-2,5.4,0,.6,2.2,4,2.7,5.2,2.8,7.6.4,15.6.7,23.1,0,2.3,2.3,4,2.3,7.4,0,4.6-4.3,15-8.4,17.2-3.5,1.9-4.9-5.6-4.7-8.1.1-2.3,3.7-13.8.8-14.5-5.1,4.1-8.9,8.8-15,11.6-9.7,4.5-15.5,3.4-25.4.4-12.8-3.9-21.5-9.8-30.8-19.1-2.9-3-6.3-7.9-9.3-10.5-1.7-1.5-2.9-1.7-3.2.8-1.1,9.5,6.4,10.9,6.9,19.3.5,7.9-5.1,10.7-9.9,4.2-1.2-1.6-4.4-9.6-4.8-9.9-.5-.4-2.5.5-3.7.3-2.3-.2-6.8-3.4-8.5-5.2-1.2-1.2-4.1-6.4-4.5-6.6-.6-.4-1.9-.2-2.9-.8-4.7-2.6-8.2-16.4-12-20.9-1.6-2.6-.9-6.5-1.8-8.9-.9-2.4-4.8-5.5-5.5-8.6-1.3-5,1-16.2,3.7-20.7,1.2-2,3.1-3.1,4-5.1.1-1.2-3.6-5.7-4.4-7.5-2.5-5.8-2.8-13.3-2.1-19.4-1-2.1-14-3.6-16.8-4.2-8.8-2.1-20.8-7.1-27-13.9-7.6-8.5-14.6-34.5-13.9-45.7.3-5.5,2.6-17.9,9.9-17.8,8.5.1,29.5,17.6,37.9,22.9,2.2,1.4,17.6,10.8,18.7,10,.2-1.5.5-2.5,2.1-2.7,4.7.3,5.6,7.1,7.5,9.3,1.2,1.4,5.9,2.6,7.1,4.8.4,0,4.5-5,4.8-5.4.6-1.2.5-3.4,1.2-3.9.4-.3,3.2-.8,4.4-1.3,1.8-.8,6-3.8,6.8-4,1.9-.3,3.4,1.2,5.3,1,0-2.1-.6-4.3,1.4-5.7,2.6,5.4,4.8,8.3,10.9,9.5,2.2.5,10.5,2,12.4,1.9,3.2-.2,6.3-2.1,9.3-2.9v7.9h0ZM612.7,22.8c-3.6-1.7-12.3-8.3-16-7.9-1.3.1-5.8,2.8-6.5,4.2-.7,2.7-1.1,5.6-1.2,8.4.3,2,8.3,8.4,10.2,10.2,1.4,1.3,2.2,3.3,3.7,4.3,2.3,1.7,7.7,3,10.5,4.2,1.5.7,2.7,2.2,4.5,2-4.7-7.3-4-17-5.2-25.4M830.7,17.1c-1.1-1.2-4.9,0-6.5.4-9.8,2.6-16.8,10.1-25,15.3-2,1.3-8.6,4.2-9.6,5.2-.9,1-1.9,7.1-2.7,9.3-1.4,3.7-3.1,7.4-5,10.9.8,1.2,1.8.9,3,.7,4.6-.5,24.3-6.6,28.8-8.7,3.6-1.6,6.7-4.4,10-6.4,1.7-1,11.6-5.8,12-6.5,1.1-1.9-4.9-16.9-5.1-20.2M635,56.2c-3-6.8-2.5-14.5-4.3-21.5l-13.9-9.1c2.1,7.1-.7,18.1,3.9,24,1.3,1.6,11.9,4.5,14.2,6.7M598.6,40.8l-9.6-9.6.7,6.7,9,2.9ZM659.2,62.6c-.4-.5-1.2-.7-1.8-1.3-3.4-4.4-4.8-9.1-6-14.5l-17.6-9.3c0,5.7.8,13.1,3.9,18,3.7,5.9,16.1,8,21.4,13.2,2.3-2.8,2.3-3.4,0-6M836.5,44.2l-.8-4.5-10.5,6.8,11.3-2.3ZM610,51.6l-2.3-5.4-17.6-6,3.5,12.4c.8.6,14.1-3.2,16.4-1.1M721.2,47.7c-1.2.4-2.1,2.4-3.2,2.8-1.6.5-2.2-1-3.2-1-2.4-.1-4.9,2.1-4.5-2.9l-.7-.5c-1.8-.2-3.6,0-5.5-.2-3.6-.6-8.2-3.3-11.1-3.7-1.4-.2-2.6.7-3.7.4-.8-.2-1.2-1.4-1.9-1.6-1.3-.3-1.8,1-2.9,1.5s-6.1,2.2-6.3,2.5c-.3.4.2,1.8-.4,2.8-.3.4-1.2.7-1.6,1.2-3.7,4.5-7,9.3-9.8,14.4l3,4.3c8.3-3.4,16.5-3.7,24.8-.1,4.7-2.4,12.6-12.7,17.3-13.4,3.5-.5,3.8,3.7,1.6,5.6l-14.5,10.5c0,1.1,4.6,5,5.7,6.2,2.1,2.5,4.2,4.9,6.2,7.4,6.7,7.9,5.7,19.5,5.1,29.2,4.2.6,7.7-2.3,11.4-3.7,2.7-1,9.4-2.4,11.3-4,2.1-1.8-3-7.6,4.5-4.3-1.2-1.9-1.8-4.5-.6-6.6,1.2-.8,8,.6,8-1.1-2.4-2.5-5.9-3.1-7.2-6.6-7.5-1-15.7,1-23.1,0-3.2-.4-6.6-2.9-6.5-6.4,0-3.1,5.8-10.5,8.2-12.8,2-2,8.5-5.3,9.4-6.5.7-1,.4-2.6,1.7-3.4l-3.7-1.4-.3-3.4-7.4,1.5c-1.3-.9.7-4.9,0-6.6M754.7,66.4c4.9-1.8,15.1-2.4,19-5.1,2.8-1.9,10.6-12.9,11-16.2.1-1,.3-2.8-.2-3.7-.6-.8-.7-.3-1.3-.1-2.4.7-12.4,4.5-14.1,5.8-1.9,1.5-4.8,8.1-6.8,10.7-2.2,2.9-5.4,5.6-7.6,8.6M835.9,47.1c-9.8,1.2-19.4,4-28.4,8.2,1.3,1.4,1.2,3.1,1.1,4.8l24.3-1.2,2.9-11.8ZM640.6,62.4l-29.5-14.8c1.8,3.9,1.9,7.3,5.4,10.2,4.9,4.2,11.3,5.7,17.6,6.2l6.5-1.7ZM721.9,69.9c-1.8,3.2,3.5,2.8,5.3,2.7,5-.3,18.9-3.9,23.4-6.1,3-1.5,8.8-8.3,11-11.2,1.3-1.8,3.2-3.5,2.8-5.9-11.7,4.5-25.4,8.7-35.8,15.5-.9.6-6.4,4.6-6.6,5M611,54c-5.3-1.8-11,0-16.3.7.7,1.9,2.6,8.7,4.7,8.7,3.6,0,9.5-5.5,14-4.4l-2.4-5h0ZM751.3,70.3l17.4,1.7h7.9c0,0,24.3-2.3,24.3-2.3,2.2-1.8,6-9.9,3.5-11.9-1.5-1.2-10.5.8-12.9,1.3-6.1,1.4-12,3.6-18.2,5.1-6.2,1.5-13.2,2.2-19.2,4.1-.5.2-3.8.9-2.8,2M611.6,62.6c-1.4.2-11.8,2.2-11.8,3,4.6,6.4,10.6,12.1,18.3,14.6,6,2,23.1,4.7,28.8,3,1.2-.3,3.1-2.2,4.5-2.9,3.3-1.7,7.2-1.1,5.6-6.7-.8-2.7-9.8-6.2-12.5-6.8-4.5-1-10.2-.3-14.9-1-7.4-1.2-9.2-4.1-18.1-3.2M830.8,62.4c-7.5-.2-14.8,1.3-22.3.7-1.1,1.5-4.9,5.6-1.8,6.1.8.2,1.9-.1,2.8,0,3.6.7,12,3,15.3,2.1,1.4-.4,6.8-8.3,6.1-9M660,73.8c2-.8,3.7-2,5.1-3.7l-2.5-3.1c-.9,0-2.2,5.6-2.5,6.8M689.5,70.4c-5.7-2-11.4-1.2-17,.6,8.2,7.5-.2,11.6-4.8,2.8l-5.3,4.3c-.2,1,4.7,7.1,5.3,9.3,2.6,8.7,1.5,18.1-2.9,26-1.7,3-3.1,5.5-6.8,6.3-1.6,2.1,4.4,8.2,6,9.4,8.8,6.2,25.1,5.4,34.2.2,2.2-1.3,7.7-5.7,5.2-8.4-16.5,6-21.5-15-16.8-27.1,1.1-2.8,5-9,7.5-10.7,2.4-1.6,5.3-1.4,7.4-3.4.2-1.1-6-6.3-7.1-6.3-2.8.5-7,5.4-9.6,4.9-.5,0-1.1-1-.4-1.5l5.2-6.4h0ZM820.6,74.3c-5,0-12.1-3.4-16.7-3.4-2.8,0-6.8,1.8-9.7,2.2-14.5,2.1-29.9.4-44.3-1-9.9-1-19.6,3.3-29.3,4.1-2,.9-3.8,4.7-1.8,6.1,2.4,1.7,12.3,0,15.9,0,25.5.2,61.9,12.1,83.9-5.2.9-.7,2.2-1.4,2.1-2.7M656.2,84c-5.7,5.5-7,14.6-5.8,22.2.2,2,1.3,3.8,3,5,4.5-8.3,10.1-18.8,2.8-27.2M697,113.3c1.3.8,5.1-.8,6.1-1.8,3.8-4,6.4-20.8-1-22.3-6.9-1.4-9.3,12.1-8.5,17.1.2,1.3,2.4,6.5,3.4,7.1M769.4,125.3c1.4-9.8,2.7-15.3-4.2-23.2-2.7-3.1-5.6-6.1-9.9-4.5.5,2.2,7.5,6.5,2.6,6.8-1.8.1-3.6-1-5.4-1.2-.3.3,4.3,4.8,3.4,6.2-1.8.6-3.4,1-5.1,0,1.2,3.5,4.7,6.1,5.1,9.9.4,3.6-1.3,6.8-1.2,8.5,0,.9.9,1.7,1,2.4.6,3.5-1.2,5-1.5,7.9-.5,4,0,9.1-.6,13.3,1.3-.9,1.1-2.3,3.4-1.7l1.2,2.8c.5-2.2-3.4-13.2,1.7-9.4l3.4,4.3c1.3-3-4.6-11-3.9-13.3l1.4-.9,6,.6c-2.4-5.6-5.6-7.2,2.8-8.6M751.8,125.3c.4-.3.6-1.8.7-2.4.5-5.4-5.8-12.4-8.8-16.7-1.3.9-.6.9-.2,1.8,2.7,5.7,4.4,11.8,5,18l3.3-.7ZM708.2,133.9c2,.4,3-1.5,4.3-2.2,2.3-1.1,4.3-1.5,6.5-3.2,1.1-.8,10.2-10.4,10.5-11.1.9-1.9.5-3.6-1.8-3-2.4.6-9.1,4.9-10.9,6.7-1.3,1.3-9.6,11.7-8.5,12.8M652.5,121.5c-1.6-.5-2.1,0-2.9,1.2-1.9,2.9-4.3,10.3-4.4,13.8,0,3.2,3.2,14.6,6.9,9.2,4.8-6.9,5.7-17.3.3-24.1M728.8,176.6c.4-.4,1-.6,1.6-.4l3.9,1.7,6.1-8.6c-4.6-6.7-.2-15.8.7-23.3.5-4.3-.2-8.5,1-12.6.4-1.3,1.8-2.6,1.8-3.8s-1.2-2-1.5-3c-.4-1.3.4-3.1-1-4.1-1.4-.3-.8,1.1-.8,2,0,1.5.3,3.6-.1,5-.5,1.6-3.2,4.3-2.7,7.5-2.5,2.5-6.1,14.2-8.2,15.6-.3.2-.6.5-1,.4l-6.1-2.7-.6,7.3c-2.4.8-3.6-1.4-5.6-2.2-.5,1.1-1.3,4.4-1.8,5-1,1-8.7,2.8-9.2,3.5-.5,2.8-3,11.3-6.9,9.8-2.1-.8-2-2.8-1.9-4.7l-2.5,1.1c-3.8-4.3-8.6-7.1-4,1.1,2.1,3.8,11.3,15.2,16.1,12.8,1-.5,1.7-3.1,3.1-3.5l6.2,2.1c1.6-.8,2.4-5.1,4.1-4.9l5.1,4.3c1.1,0,3.5-4.6,4.4-5.4M727.4,127.1l-.2-3.4c-3.8,5.7-10.7,8.1-16.2,11.6-.8,1,.6,1.9.6,3.4,0,1.4-1.1,3.1-.5,4.8l2.2.6.2-3.4c4.3-.5,2-2.1,2.6-5.3.7-3.6,3-1.1,4.5.3-1.2-3.6,1-5.3,4-2.8-1.7-3.8,2.3-2.8,1.1-5.7h1.6s0,0,0,0ZM708.2,124.8l-11.9,8.8c-1.9.6-3.8,1.9-5.6,2.4-2.6.8-8,.4-8.6,3.3-1.1,5.4,2.3,7.4,7,8.2,2.5-.4,4.4-5.9,5.7-5.7,2.5.4,1.8,6.4,5.6,3.9.8-.5,3.5-6.2,3.7-7.2.2-1.4-.7-2.4-.2-4.1,1-3.8,5.9-5.2,4.3-9.7M751.9,129.4c-9.6,1.2-7.1,12.1-8,19.5-.6,5-2.8,10.4-2.2,15.4.5,4.6,5.7-1.6,6.8-3.5,2.3-4.4,1.9-15.6,2.4-20.9.3-3.6,2.6-7,1.1-10.5M673.4,163.5c-.9-.5-1.7-1.1-2.4-1.9-2.7-3.5-3.9-12.3-4.3-16.7-.2-2.8.6-7.9-.1-10.1-.3-1.1-5.5-4.4-6.1-3.8.8,5.9-2.4,10.3-4.5,15.3,3.1.6,4.9,2.7,6.3,5.3,3.6,6.8,4.5,15.9,7.8,22.8,5,2.8,3.4.9,3.4-2.3,0-1.6.3-7.9,0-8.7M775.6,131.8l-1.3-.5c-4.3.3-3.4,12.8-3.8,15.9-.5,4.1-4.9,12.1-2.2,15.4,1.8,2.2,6.3,1.3,8.3-.3,5.8-4.9,2.9-24.3-1-30.5M674.7,158.9c.7.5,3.4-2.1,3.4-3.1-1.3-6.7,2.7-20-7.9-19-.3,7.7,2.1,15,4.5,22.1M706.8,136.7c-2.4,2.6-2.3,6.4-3.4,9.6-.8,2.2-4.4,8.2-3.4,10.2.6,1.3,1.7,1.4,2.9.6,2.4-1.6,5.9-16.1,5.3-19.1-.1-.7-.5-1.6-1.4-1.4M653,150.5c-4.1,1.3-.3,10.9.9,13.6,1.2,3,5.8,11.9,8.5,13.1,6.7,2.9,3.5-7.4,2.7-10.6-1.3-4.8-5.3-18.2-12.1-16.1M678.7,160.6c-3.8-.3-3,4.4-2.8,7.1.2,5,1.6,15.6,3.9,19.9,2.5,4.6,5.8-5.1,5.7-7.4-.3-7.8-5.9-12.1-6.8-19.6M700.7,170.1c1.3-1.2,3.9-8.3.9-8.8-3.9-.7-5.1,12.9-.9,8.8M765.4,166.9c-1.6-.8-3.3-1.4-5-1.8l-.6,7.4c-1.2,1.3-5.9-5.4-6.5,2.2-.1,1.5,1,3-.5,4l-6-2.8c-.9,2.2-2.1,5.6-3.7,7.4-2.6,2.2-5.4,4.1-8.4,5.8-3.3,1.3-3-1.1-4.6-1.2-2.6.5-5.2,1.3-7.6,2.3-.3.6.2,2-.3,2.8-3.2,2-5.9-1.3-9-1.7l-1.2,3.4c13,9.2,29.9,18.9,45.5,9.8,3.8-2.2,12.3-9.8,13.1-14.1,1-5-3.9-14.7-1.7-20.3l-.4-.6c-3.1.2-2.1-1.5-3-2.4M771.9,169.2c-1.6,1.9.5,14.7,1.2,17.6.5,2,3.8,15.1,6.7,8.1,1.5-3.6,1.8-14,.8-17.9-.9-4.1-3.6-10.6-8.7-7.8M744,169.6c-1.5-.3-1,.4-1.4,1.1-2.8,4.7-5.8,9.3-8.2,14.2,8.1-2.2,8.7-8,9.6-15.3M669.4,179.3c-2,.6-.1,3.4.5,4.4,1.4,2.4,3.6,4.2,6.2,5.2,2.2-.4-2.1-7-2.8-7.9-.9-1.2-2.4-1.9-3.9-1.7M685.9,190.2c-4.2,1.3,1,14.1,4.9,12.9,3-.9,1.6-14.9-4.9-12.9M777.8,199.8c-.6.3-1.1.9-1.3,1.6.5,2-3.4,11.8-1.1,12.5,2.1.6,6.8-7.4,7-9.4.4-3.4-.9-5.9-4.7-4.7"/>
          <path id="Path_5862" d="M695.1,60.1c-4.2-2-7.2-5.7-10.2-9.1,1.9.3,4.2,2.3,5.7,3.7.7.6,5.1,4.7,4.5,5.4"/>
          <path id="Path_5863" d="M735.4,99.8c-.5.5-9-6.2-9.6-7.4,1-.3,1.6.4,2.3.8.9.4,8.5,5.4,7.3,6.6"/>
          <path id="Path_5864" d="M697.4,56.7c-.5.5-6.7-5.8-7.4-6.5-.5-.6-1.4-.9-1.1-2,.2-.3,4.3,3,4.8,3.5.5.4,4.2,4.6,3.7,5"/>
          <path id="Path_5865" d="M688.3,60.7c-1,.9-6.2-4.6-6.8-5.7,1.3-.2,7.6,4.9,6.8,5.7"/>
          <path id="Path_5866" d="M726.9,103.2c-.7.6-6.5-4.3-5.7-5.1,1.6-.6,6.1,4.7,5.7,5.1"/>
          <path id="Path_5867" d="M758.1,177.6c1.6,5.1,2.8,11.1,1.7,16.4-1.1-.2-1-1.2-1.1-2-.8-4.2-1.1-9.3-1.7-13.7-.1-1.1.1-.8,1.1-.8"/>
          <path id="Path_5868" d="M755.9,195.2c-1.2.2-1.3-.5-1.7-1.4-1.3-2.8-1.6-7.5-2.8-10.5,2.2.4,5,11.4,4.5,11.9"/>
          <path id="Path_5869" d="M765,188.4l-1.1-10.2c.8-.1.8,1,1,1.6.8,2.8.9,5.8.2,8.6"/>
        </g>
        <g id="Group_9063">
          <path id="Path_7054" class="st0" d="M117.1,215.1c-.9-.3-1.8-.8-2.5-1.5-.8-1.8-1.3-3.6-1.6-5.5.6-1.2,1.5-2.2,2.5-3.1.5-.2,3.8-1.8,4.2-2s1.6-.7,1.6-.7c0,0,1.2,3.9,1.1,4.4s-1.3,4.6-2.2,5.4-3.1,2.9-3.1,2.9h0Z"/>
          <path id="Path_5844" d="M148.9,47l10.1,4.7c.2-2.3-2.4-11.2-1.4-12.5,1.6-2.4,7.1,3.4,8.2,4.9,2.1,2.5,3.5,5.5,4,8.8l8.5-6.5c-3.5-4.6-19.3-7.8-19.8-13.6-.6-6.3,9.2-.8,11.5.4,5.2,2.8,10,6.8,14.4,10.6,7.3-1.5,13.8-.4,19.9,4,8.1-5.7,14.3-18,25.8-16.7,1.3.9.2,3.1-.6,4-2.3,2.6-9.5,6.7-12.8,9.4-1.3,1.1-7.7,6.6-7.7,7.6.9.8,3.3,5.6,3.6,5.8.6.4,2.8.5,4.4,1.6,7.6,5.1,8.1,19.4,3.4,26.5-1.2,1.9-3.4,3.2-4.7,4.9-1,1.3-1.6,3.2-2.7,4.7-5.2,7.5-14,11.7-23.2,11.2-.2,7.3-2.8,14.4-7.4,20.2-.9.4-3.8-3.8-4-4.8l-1.2.3-2.2,4c5.7,6.4,9.1,14.6,9.6,23.2.2,3.1-1.3,11.1-2.1,14.4-.8,3.4-6.1,11.4-9.7,7.1-1.4-3,3.2-9.8,3.1-11.8,0-.6-3.1-4.7-3.6-6.4-1.9-6-1-13.2-4.2-19-.3-.5-3.2-4.6-3.4-4.8-.6-.3-6.4.3-7.8-.7-1.2,1.3,3.1,12.5-2.3,9.9l-6.8-5.9c-.3.3,3,5.4,3.3,6.6.4,1.9-.2,4,.4,5.9.5,1.7,4.3,6,5.5,8.7,2.4,5.4,5.4,16.5,4.9,22.2-.2,2.8-2.8,11.7-5.9,12.3-7.9,1.3-2.3-11.5-2.7-13.8-.1-.6-2.4-3.6-3-4.9-2.8-6.4-4.6-14-7.1-20.6-2.9-.7-4.1-2.7-6.3-4.3,0,4.4,2.2,9.7,2.3,13.9,0,3.2-5.6,18.3-7.5,21.4-2,3.4-5.8,8.2-9.6,9.5,3.5,7,2.7,14.7,0,21.9-1.2,3.3-4.4,10.1-8.3,5.4-2.9-3.4-3.2-17.3-4.2-22.2-2.9.1-4.1,2.5-7.1,3.4-24.8,6.9-57.2-14.5-60.3-40-2.2-17.7.6-36.6,15-48.4l9.3-6.8c-19,3.7-43-1.2-55.9-16.5-6.5-7.6-18.5-30.3-2.7-33.9,11.9-2.7,29.8-.1,41.6,3l52.2,16.7c-16.7-14.8-26.2-55.5-3.8-68.8,7.4-4.4,11.5-3.2,18.2,1.3,14.8,10.1,25.6,26.8,32.9,42.9M131.1,38.6c1.1,1,6.1-2.9,7.3-3.7-6-9.9-13.2-18.7-22.4-25.8-5-3.8-8.5-7-15-3.7-4.1,2.1-2.8,3-.9,6.4,2.2,3.9,8.1,9.9,12.3,11.5,3.1,1.2,6.1.6,9,1.2,4.9,1.1,8.8,9.3,9.6,13.9M95.9,10.8c-.8-.2-.9,0-1.4.6-.6.7-4,6.9-3.7,7.3,4.8,1.4,9.8,3.9,14.8,4-2.9-4.2-7.9-7-9.7-11.9M119.8,40.3l-5.2-11c-2.4-3.9-9.8-3-14.1-4-3.4-.8-7.4-2.5-10.8-3.7-1.3,8.4-.7,16.9,1.7,25,.3.3,6.4-4.3,7.4-4.8,3.9-1.7,14.2-3.1,18.4-2.6.9.2,1.8.6,2.6,1.1M120.8,27.9c-.4-.2-4.9-.7-4.4.7,1,3.2,5.1,8.7,6.6,12.1l3,8.6,2.2-6.9c-1.4-1.7-6.7-14.1-7.4-14.5M143.6,44.8l-3.8-7.3c-1-.3-6,3.6-6.6,4.7-2.9,4.8,4.1,9.2,5.2,13.8l8.5-1.8c-.7-2.6-7.7-6.6-6-8.8l2.6-.5h0ZM123.2,50.5c-.7-10.8-12-9.1-19.5-6.2-2.4.9-9.9,4.9-10,7.6l4.8,8.8c7.2-6.3,13.9-15.4,24.7-10.2M202,51.2c-4.6-3.1-9-4.8-14.7-4-.4.3,5.8,6.3,1.9,7.3-2.1.6-4.1-4.8-5.1-5-2.8-.8-5.7,1.3-7.5,3.1,12.2,6,15.4,18,11.4,30.6-2.3,7.1-7.4,12.6-15.3,12.2,1.1,3.6,5.2,5,8.5,5.9,7.4,2.2,14.2,2,21.2-1.5,1.5-.7,9.3-6.3,7.8-7.8-14.8.2-10.2-26.3-3.1-32.4.4-.3.9-.5,1.4-.6l-2.8-4.3c-1.2-.6-2.4,2-3.7.3l.2-3.9h0ZM164,48.2c-1.6-1.3-1.8,4.3-2.3,5.3-3.1,5.5-10.1-1.8-11.3-.8,2.5,6.2-6,5.4-10.2,6.5-1.3.3-7.9,2.4-8.3,3.1,1.1,3.7-2.4,4.1-4.8,6.5-1.9,2-3.2,4.8-5.1,6.8,2.4,3,13.4-2.4,12.2,2.6-2,8.1-13.3,14.5-18.5,20.7-.4.4-4.5,5.4-2.5,5.4,6.4-2.7,8.4-2.6,6.5,5.1l2.6-1.2c3.3,0,2.3,9.6,3.1,11.9,2.5-2.1,4.9-10.7,9.1-9.4,1.2.4,5.7,5.1,6.8,6.3,2,2.3,9.3,13.7,11.1,14.4.9.4,1-.5,1.1-1.1.1-1.2-.7-6.4-.2-6.8l6.8,1.7c-.8-3.6-2.2-6.8-2.8-10.6-.7-4.5-1.8-13.2-1.8-17.5,0-3.6,2.4-8.6,6.3-5.1,5.4,4.8,7.6,21.6,10.3,28.8.3.6.7,1.2,1.3,1.6l6.2-8.5c.6,1.2.6,5.8,2.9,4,1.7-1.4,4.3-10.2,2.5-11.7-4.6-1.2-8.8-2.7-12.5-5.7-3.9-3.2-10.4-11.8-11.8-16.6-2.6-8.9-1.5-22.3,6.1-28.3l-2.9-7.6h0ZM130,57.3c.8,0,4.5-.6,4.5-1.4l-3.4-6.5c-.7.3-1,3-1.1,3.8,0,1.4-.1,2.8,0,4.2M123.7,59c-3.9-15.2-16.7,0-23.8,3.7.8,2.7,6.9,6.7,8.8,8.8.7.8.8,2.2,1.4,2.6,1.5.5,3.1.8,4.7.8,2.8-3.6,5.3-8.2,9.5-10.2-.5-1.6-4-1.1-4-3.1.3-1.6,2-2.3,3.4-2.6M4,64.7c7-2.6,11-2.6,18.2-.9,4.8,1.1,11.9,4.8,16.3,5.3,4,.4,10.5-2.3,15-.9l17.2,6.1c1.1,0,1.1-6.8,3.1-7.7,0-.5-8.1-2.9-9.2-3.3-15.3-4.8-32.1-9.9-48.4-8.9-7.4.5-14.3.8-12.2,10.2M172.7,82.7c1.4,1.4,5.5,0,6.2-1.7,1.6-3.5-1.1-18.4-5.5-18.4-5.7,0-3.9,17-.7,20.1M212.3,64.1c-1-.9-3.4,3.2-3.7,4-1.2,2.9-3.5,13.6.7,14.7,1.4.3,4.4-1.6,4.7-3.1.9-4.5-1.2-11-1.7-15.6M16.5,66.4c-1-3.1-10.2.7-10.2,1.4,2.9,2.5,6.8-2,10.2-1.4M32.9,69.8c-9-3.5-17.9.3-26.7,2l3.1,6c4.3-2.2,9.1-4.4,14-4.7l9.5-3.3ZM106.7,77.2l-28.1-9.1c-5.7-1.4-6.4,10.3-4.3,12.8,2.7,3.1,13.8.3,17.8.7,0,0,14.6-4.4,14.6-4.4ZM44.8,70.9c-2.6.9-5.4.8-8.1,1.3-6.4,1.2-17.5,4.2-23.3,6.8-.6.3-2.5.9-2.1,1.8,4.7,5.8,11.1,11.9,18.7,13.3,2-9.9,7.7-16.6,14.8-23.2M55.6,71.5c-1-.3-2-.6-3.1-.6-5.9,0-15,10.5-17.3,15.6-.5,1.1-2.6,6.7-2.7,7.5-.2.6,0,1.2.4,1.6l8.5,2.5c4.1-8.4,4.3-18,11.7-24.4.6-.5,3.5-1.3,2.6-2.3M81.7,92.5c-1.2-1.8-3.7-2-5.5-3.3-4.3-2.9-4.8-8.2-5.8-12.9l-11.6-3.1c-9,5.3-11.8,16.1-14.5,25.5,7.2,1.1,14.5.8,21.6-.8,5.4-1.4,10.2-4.9,15.9-5.4M127.1,80c-4.6,1.4-11.2-1.9-15-1.7-1.4,0-3.2,1.6-4.7,2.1-13,4-18.1,4.2-31.5,3.4-.6,0-1.1-1.2-1,.4,1.4,2.2,9.1,7.3,11.3,8,1.4.4,10.8.9,12.8.8,9.6-.3,20.8-7.2,28.1-13.1M159.5,94.8c-1,6.8-.2,16,1.3,22.8.5,2.5,1.7,7.7,5.1,7.2,4-1.3,2.6-5.9,1.8-9-1.4-6-3.3-11.9-5.7-17.6-.5-1.3-1.4-2.5-2.6-3.4M116.3,109c-2-.4-4,.8-5.9.6-8-.9,2.5-13.4,1.9-14.2l-8.4,2.9c-.3,3.1,1.4,4.9-1.1,7.6.9,1.5,2.6,2.5,4.3,2.6,1,2.8-1.1,2.5-1.6,4.5l2.9-.3,2.2,5.2,3.9-.3.6,4.5,3.1-1.6,3.7,4.4-.6-10.8c-5.3,6.4-6.7.5-5.1-5.1M90.8,99.3c-5.7.9-11.4,1.7-16.7,4l-1.5,5.1,2.6.5-.3,3.4,3.2.6-.3,3.4c1.7-.7,3.3-1.3,5.1-.5l-1.7,6.8h3.4v4c4.2-1.1,6.9-.2,5.1,4.5,2.5.4,9-4.5,10.8-3.2,1.2,1.2-.3,7.7,1.4,7.7.6-1.6,3.9-1.4,4.3-2.1.2-.3,1.6-5.8,1.7-6.2.2-1.5-.5-2.8-.6-4.2l-4.5,1.1c-1.1-1.4,0-6.4-1.5-6.8-1.2,0-3.4,3.5-4.6,1.7l-.3-8c-8.1,3.8-2.4-3.1-2.9-4.8l-5.6-3.6c-.6-1.9,2.2-2.2,2.8-3.6M52.8,138.2c.5,2.9-.4,6.9,0,9.9,1.7-1.2,3.8-1.5,5.7-.9l.8,8.9c1.2,1.7,9.6-1.1,10.4,2.1.5,1.8-1.4,3.5.4,4.7,1.5-1.1,3.4-2.1,5.3-1.6l2.3,8.4c2.3-.9,6.1-4,8.5-2.6.4.2,2.2,3.6,2.8,3.1,2.5-11.5,8.1-.6,9.4-.6,2.2-3.4,2.9-5,6.8-2.3,1.5-.3.8-8.2.8-9.9.2-3,1.1-6.2.6-9.3l-2.8.3-1.7-4.3c-2,.9-1.6,3.9-4.2,3.9l-2.3-4.5-3.2,4.4h-1.8c-1.5-.5-2.1-6.8-2.1-8.4-1.9-.1-2.6,3.2-4.6,2-1-.7-2.4-5.1-2.3-6.6-2.6.2-2.3,4.2-5.7,3.4l-1.7-7.9-3.4,1.1v-6.2l-6.2,1.7.6-9.7-5.1,2.3,1.1-6.8c-5.5,0-6.7,2.1-9.2,6.4-3.3,5.6-5.2,12-5.6,18.5l5.6-1c0,.4.6,1,.7,1.3M136.8,118c-1.5-.3-.9.2-1.2.8-.6,1.3-1.2,2.6-1.6,4-.2,4.2,4.2,18.6,8.1,20.8,3.8,2.1,4.3-.8,4.6-4l-10-21.5h0ZM180.4,154.9c.6-10.9-2.6-23.8-13.6-28.3,1,2.2,3,3.6,4.2,5.7,4.4,7.4,2.1,15.9,6.6,23l2.8-.4h0ZM130.5,139c.8-2.2,1.7-4.7-.9-6.2-1.2-.7-2.5-.5-3.6-.9-4.6-1.9-9-4.3-14.2-3.7,4,5.9,12.6,7.6,18.7,10.8M109.6,175.4c2.2-.8,5.7,0,6.6-2.8.7-2.2.4-10.6.3-13.4,0-4.3-.6-8.6-1.4-12.8-1.2-4.4-4-8.8-5.7-13-1.1,0,.3,15.6.3,17.3,0,3.4-1,7.9-1.2,11.3-.2,4.5-.3,9.1,1.1,13.3M131.1,152.6c3.3-6-4.2-13-9.6-13.9-8.4-1.5-2.8,7.5-2.4,11.5.3,2.9-.4,5.9.6,8.7,2.4-2.4,3.9.1,6.2,1.1.4-5.4-3.3-11,5.1-7.4M149.2,147l-3.3,1.4c3.8,5.9,4.6,14.9,7.8,20.6,1.2,2.1,2.9.9,3.4-.8.8-2.7-1.4-9.2-2.6-11.9-1.4-3.3-3.7-6-5.3-9.2M130,169.7c-2.1.6-5.9-1.8-6.7,1-.8,2.9.7,6.4-4.1,2.4-.3,2.2-2,2.9-3.4,4.2,3,3.2,3,10.8,8.2,4.8,1.1-1.2,6.7-11.8,6-12.4M60.1,171.4c-.9-.7-4.2,1.5-4.4,2.6,2.6,7.6,11.7,14.1,19.1,17.1,5.9,2.4,16.2,3.6,22.6,3,2.2-.2,11.6-2.9,12.2-4.9l-1.2-6.4-7.6-3.5c-1.5,1.1,0,3.8-2.3,4-1.8.1-3.1-2.1-4-3.4-1.2.5-.6,4.6-2.3,5.1-1.6.5-4.2-2.9-4.2-4.5l-1.2.3c0,1-.8,2.5-1.9,2.3-1.2-.2-4.5-6-5.5-3.6-1.7,5.5-5.1,3.5-5.6-1.3-1.5-.2-2.1,1.9-3.2,2.2-2.5.6-3.8-4.4-4.2-6.2-.8-.6-4.2,9-6.3-2.8M154.9,183.9c2.2-.8,4.1-10.4,3.4-11.4-3.7,1.4-3.2,7.9-3.4,11.4M116.9,213.9c2.4-5.2,4.8-12,3.9-17.8-.3-2.5-5.7-14.1-7.3-15.9-.5-.6-.8-1-1.7-.8,0,4.6.1,9.2.6,13.8.7,5.9,1.7,11.7,2.9,17.5.2.9.6,3,1.5,3.3"/>
          <path id="Path_5870" d="M139.1,100.4c-1-.2-1-1.1-1.3-1.8-1.4-3.7-2-8-3.2-11.8,3,3.4,4.3,9.2,4.5,13.6"/>
          <path id="Path_5871" d="M143,98.2c-1-.2-1-1.1-1.3-1.8-1.6-4.3-2.2-9.2-3.8-13.5,3.2,4.1,4.1,10.3,5.1,15.3"/>
          <path id="Path_5872" d="M147,90.8c-.9-.1-1.3-2-1.5-2.7-1-3.1-1.6-6.6-2.4-9.8,2.7,3,3.8,8.4,4,12.5"/>
        </g>
        <ellipse id="Ellipse_575" class="st0" cx="177.5" cy="164.4" rx="5" ry="2" transform="translate(-51 244.1) rotate(-62)"/>
        <path id="Path_7053" class="st2" d="M112.7,208.6s6.3-6.7,10-7.3"/>
      </g>
    </g>
  </g>
</svg>