<?xml version="1.0" encoding="UTF-8"?>
<svg id="Layer_2" xmlns="http://www.w3.org/2000/svg" version="1.1" viewBox="0 0 243.7 196.5">
  <!-- Generator: Adobe Illustrator 29.6.1, SVG Export Plug-In . SVG Version: 2.1.1 Build 9)  -->
  <defs>
    <style>
      .st0 {
        fill: #9b78f1;
      }

      .st1 {
        fill: #fff;
      }

      .st2 {
        fill: #ad80f9;
      }
    </style>
  </defs>
  <g id="Layer_1-2">
    <g>
      <path class="st1" d="M7.5,118.1l.7-5,4.3-8.8,7.5-12.4-1.9-5.8.2-4.1,2-2,3.7.3,7.7,6.5h1l1.3-4.4.9-3.4,2.5-1.6,4,1.5,13.1,15.6,7.8,4.1,4.3,1.3,9.7-7.2,11.5-6.6,12.2-3.8,11.2-.3,23.7,6.3-5-5.9-8.8-10.2,2.4-1.3-4.9-11.9,2.8.2-1.8-11,2.2.9-.2-8.5,2.1-5.5,1.2,2.1,5.3-13,6.3-8.2,1.2,1.9,9.1-7.7,19.6-8.6-1.2,4.3,14.3-1.9,14.1,1.8-1.6,1.9,22.1,7.7,7.2,3.7-.3,1.5,7.5,6.6,6.9,9.4,4.9,11.5,1.6,10.3-2.2,8.1-2.2-.9-2.2,5.9-6.2,7.2-8,6.6-5.8,1.9-7.8.3-13-4-8.7-5.9-6.3-8-1.2-4v4l1.8,7.2,1.9,4,2.2-.7,1.2,6.9,2.5,2.8,5.2,11.1,2.6,2.7,1.5,10.9-1.6,9-5.6,11.2-6.9,9-9.1,6.5-11.6,4.3-3.7,4.1-14.6,8.6-13.4,7.8-3.4,5.2-.8,3-3.6,1.6-11.1,3.7-5.4,1.6-.2-1.6-4.9,1.7-2.2-1.3-5,1.2.3-2.3-.5-1.8,1.6-2.3,10.2-6.6,12.3-3.6-1.2-7-2.3,2-3.7,5.1-5.3,1.2-9.8,2.4-3.2.7-.2-1.6-2.2.2-3.2.4-.5-1.2-4.3.9v-3c0,0-.2-1.6-.2-1.6l5.9-3.3,15.4-6.1,1.2-4.2-4.6-8.3-11.8-1-1.6.2-3.9,9.3-3.7,5.7-4.6,7.6-1.9,1.1-3.4,2-1.5,5.2-6.5,5-4,4.4-6.6,4.6-4,1.6-.5-1.2v-2.1l-3.3,1.6v-3.3c0,0-1.8-.2-1.8-.2l.8-2.1-.6-1.1,1.6-3.5s4.7-5,4.9-5.1,12.5-7.8,12.5-7.8l2-3.4-2-3.7.2-7.7-1-7.8-3.4-4.4-9.5.7-9.5,3.1-2.9,4.9-6.2.9-5.5,1.7-3.1,1.1-2.6,2.9-1.1.3-1-.8,1.1-4.3-3.4.7-2.5-.2.7-1.7,1.2-2.5,5-5.1,2.4-.7,4.5.9,8.1-7.7,6.6-6.9-.3-1.4-9.4-.5-3.1-.8-2.7-1-1.5-1.5-3.3-.2-6.9-2.3-3.8-5.5h0Z"/>
      <g>
        <path d="M117.4,54.1c.3-.4,2.1,2.4,2.3,2.6.2.2,0,.5.5.3.2-.3-1.2-6.2-1.3-7.2,0-1.7.4-3.7.6-5.4.9,0,.6,1.3,1.3,1.6-.7-4.6,1.1-9.1,2.9-13.2.4-.3,1.2,1,1.1,1.4,0,0,.2,0,.3-.2.3-.6.6-2,.9-2.7,2.3-5.7,5.9-11.5,10-16.1.3-.4,1.6-1.8,2-1.6.7.6.6,1.6.8,2.4,1.5-1.6,3.1-3.2,4.8-4.6,5.4-4.5,12.7-7.6,19.3-9.9.7-.3,4.9-1.8,5.3-1.4l-1.1,3.5c1.9-.3,3.9-.9,5.8-1.1,5.8-.6,13.2,0,18.7,1.5.6.2,5.2,1.9,5.4,2.1.1.2.1.6,0,.8l-1.6.5c5.6,2,11.5,3.6,17,5.8s10.6,5.4,16.1,7.8v.5c0,.1-2.2-.5-2.7-.5-1.1-.1.5.9.8,1.2,4.5,4.8,7.8,10.5,11,16.2,1.5,2.6,2.2,5.4,3.1,8.2,1.3,3.8,2.3,5.9,2.7,10,.1,1.1.5,3.6.4,4.6-.1,1.6-1.3-.5-1.4-.5-1,2.3-1,4.8-.9,7.3-1.2.7-1.5-1.1-2.5-1.2-.9,2-1.6,4.4-2.8,6.3-3.2,5.2-11.1,12.2-17,13.9-13.2,3.7-30.5-2.9-38.2-14.2l-1.8-2.7c.6,3.5,1.7,7.1,3.6,10l1.8-.7c.7.1,1.1,3.6,1.3,4.5.2.7,1.3,4,1.6,4.4,0,0,.2.2.3.2l.3-.4c.2.1.3.3.4.5,1.4,2.3,2.3,5.9,3.6,8.4.7,1.3,1.4,2.1,2.4,3.1,1.8,1.7,2.4,4.5,2.7,6.9l.7-.2c.2.3-.2,2.2-.2,2.6,0,.4.3.8.4,1.3.2,4.6.2,8.3-1.5,12.6-3.4,8.7-6.1,13.8-12.5,20.6-5.9,6.3-13.6,10.5-22.2,12.1-.6,1.4-2,2.8-3.3,3.6-5.7,3.5-11.6,6.7-17.2,10.3-3.8,2.4-11.6,6.4-13.3,10.6-.4.9-.4,2.7-1.2,3.2-1.7.6-3.4,1.3-5.2,1.8-5.2,1.5-9.2,3.2-14.2,4.8-.4.1-2.6.9-2.7.3l.4-1.2c-1.4.2-3.5,1.1-4.9,1.1s-1.3-1.1-1.5-1.1c-.2,0-2.4.8-3.1.9-3.2.3-3.4-.9-1.5-3.1h-1.5c-1-1.5.3-2.5,1.4-3.2,3.8-2.7,8.3-5,12.1-7.9l4.4-1.5c-4.5,0-8.9,1.3-13.2,2.6-.7.2-1.4.6-2.2.9-1.5.4-4.6,1.4-4-1.1-1.6-.1-4.7,1.5-4.9-.9-2.1,1.1-6.6,1.7-4.2-2-.9,0-1.1-.9-.8-1.6.4-1,3.2-2.8,4.3-3.4,5.3-3.4,11.2-5.2,17.4-6.5l.3-.3c0-1.1.4-2.5.2-3.6-.1-.5-1.6-2.4-2-3.1-.8-1.4-1.6-2.9-2.3-4.4l-10.7-1.2c-.4.1-.9,2.1-1.2,2.7-1.2,2.7-2.4,5.9-4,8.3-.9,1.3-2.1,2.6-3,3.9-2.1,3.1-2.4,5.4-5.5,7.8-1.2.9-4.6,2.8-5.1,3.8-.3.8-.4,1.9-.8,2.7-.7,1.5-1.8,1.9-2.9,2.9-1.3,1.2-2.5,2.3-3.8,3.5-1.5,1.4-2.7,3.3-4.3,4.7-1.3,1.1-8.9,5.9-10.3,6.3-2.1.6-1.9-.9-1.9-2.6l-2.7,1.2c-.7,0-1.1-2.6-1.1-3.2,0-.3.2-.6.1-.6,0,0-1.2,0-1.3-.8,0-.6.6-1.4.5-1.6,0-.2-.5-.2-.5-.4-.2-.8.2-2.1.6-2.9,1.5-3.6,5.9-7.1,9.1-9.1,3.6-2.2,8.3-4,10-8.2-.2-1.9-.8-3.9-.9-5.9,0-3.8.6-6.1-.3-10.1-.6-3-2-4.8-3.7-7.3-.4-.3-2.5-.2-3.1-.2-4.6.2-9,1.4-13.3,2.6-.9.4-1.2,2.2-1.7,3.1-.6,1.1-2.3,3.3-3.3,3.8-1.8.8-3.8.3-5.5.3-1.9,0-7.1,1.5-8.8,2.5-1.3.8-2,3.9-4.3,3.1-1.7-.5-1.5-1.5-1.3-3,0-.6.7-1.3,0-1.7-.8.7-4.9.8-5.2-.1s.9-1.9,1.2-2.6c.1-.4,0-.7.2-1.1.5-1.4,5.1-5.6,6.5-6.5,2.6-1.5,4.5.4,6.4-.4.5-.2,3.5-2.8,4.1-3.4,2.4-2.1,4.4-4.6,6.6-6.9.7-.7,2.5-2.1,2.8-2.8.2-.4-.3-.3-.5-.3-1.3,0-2.4.2-3.7.2-3.1-.1-7.9-1.6-10.3-3.6-.3-.3-.6-.9-.9-1-.6-.2-3.1-.2-4.1-.4-3.2-.6-8.5-3.2-10.6-5.6-.2-.2-1.1-1.3-1.2-1.4-.1-.4,0-2.6,0-3.1.3-1.8,3.8-7.8,4.9-9.7,2.6-4.8,5.6-9.3,8.2-14.1-.6-3.9-2.3-6.5-.6-10.5.2-.6.8-1.1.9-1.3.2-.6-1.2,0-.9-.6h2l-1.3-.9,2.4.5-1-1.1c1.3.9,3,1,4.4,1.6,1,.4,2.9,2.1,3.8,2.8.4.3,3.6,3.4,3.9,3.1.7-2.8,1.5-5.8,3.3-8.2l-.9-1.2c.2-.2,1.4,1.4,1.8.4.1-.3-1.6-1.1-1.8-1.5l1.5.4c-.8-.7-1.5-1.3-2.1-2.1-.1-.1-.5-.3-.2-.5,1.3,1.3,3,2.6,4.8,3.2,1.2.5,2.8.5,3.9,1.4.7.6,1.4,1.8,2.1,2.5,2.6,2.7,4.4,4.8,6.5,7.9.6.8,2.5,4.6,3,5,.3.2,1.4.4,1.9.7,1.9,1,6.6,4.5,8.3,4.6,1.8.2,4.5-1.4,6-2.4,5.7-3.6,9.8-7.6,16.2-10.8,10.7-5.4,20.5-5.7,32-2.8,4.4,1.1,8.8,2.5,13.3,3.6-1.4-1.5-2.7-3.4-4.1-4.9-3.2-3.3-8-6.8-8.5-12-.2-2.3,1.1-.2,1.9.1.2,0,.3,0,.3-.3-1-2.3-2-4.6-2.8-6.9-.4-1.3-1.5-4.3-1.5-5.5v-2.8h0ZM122.4,57.3c.2,1.3-.2,3,0,4.4l-.5.3c-.4,0-1.1-1.3-1.2-.5,1.9,4,2.9,8.3,5.3,12.1q0,.3-.3.3c-.8,0-1.7-.6-2.4-.7-.2,0-.4,0-.3.3.2.5,2.6,3.3,3.2,3.9,2.1,2.3,4.6,4.3,6.8,6.6,1.8,1.9,3.2,4.1,5,5.9,1.6,1.7,3.7,3,5.2,4.7,1.6,1.8,2.7,3.9,3.9,5.9,0,.6-2.5,0-2.7.6,2.2,1.6,5.3,2.8,6.7,5.2.2.3.8,1.5.9,1.7.3,1.1-2,.1-2.4,0-.1,0-.6,0-.6,0,1.3,1.8,3.2,3.4,4.4,5.3,1.5,2.4,4.5,9.7,4.6,12.4,0,.3,0,.6-.3.8-1.1-1.8-1.5-4-2.3-5.9-1.4-3.3-4.4-8.5-6.7-11.2-.5-.6-2.7-2.5-2.9-3,0-.1-.1-.4,0-.4h3c-1-1.3-2.2-2.6-3.6-3.7-.5-.4-3.8-2.2-2.7-2.8l2.4-.3c-1.6-1.8-3.2-4-4.9-5.7-2-1.9-3.9-3.7-6.5-4.7-17.8-6.4-34.9-9.8-51.9.9-4.5,2.8-7.5,7.2-12.4,9.7-4.3,2.1-6.7-.3-10.3-1.8-1.5-.6-5.2-1.6-6-2.7-.4-.5-.6-1.2-.9-1.8-1.3-2.1-2.8-4.3-4.3-6.3-2-2.7-6.4-7.9-9.6-8.8-.3,0-.6-.1-.9,0l2.2,1.2c2.9,2.7,6.3,9.6,3.1,13.1-.8.9-2.8,1.5-3.8.6-1.6-1.4.1-2.9-.3-3.8-.3-.8-3.1-2.9-3.7-3.8-.4-.2-.4.7-.4.8.2,1.4,2.6,2.5,3.4,3.7-.2.2-.7-.2-.9-.4-.6-.5-1.1-1.1-1.8-1.5-.2,1.3.6,2.5,1,3.7l1.6,1.4c-3,0-4.7-3.5-5.9-5.8-1.2.4-2.6.2-3.8.5-.7.2-4.7,2.3-5.1,2.7-.5.6-1,1.8-1.5,2.5-3.1,4.7-7.4,9.9-9.8,14.8-.5,1-1.9,4.1-2.1,5-.5,2.2,1.2,2.3,2.4,3.6-.1,1.3-.8,2.6-.5,3.9,0,.4,2,2.8,2.3,3.1.9.7,6.6,2.1,7.8,2,2.4-.1,5-2.8,7.6-2.6-.1.7-1.4.7-2,1-1.4.6-2.7,1.3-4,1.9-.1.5.3.3.5.6.5.5.6,1.1,1.4,1.2,2,.3,4.6,0,6.6.2,1.3.1,2.8.6,4.2.7,2.1.1,3.6-.5,5.5,1.1.5.4,1.9,2.7,2,2.7s.3-.3.6-.4c1.1-.1,2,3.1,2.4,3.1,1.8-2.2,2,.4,2.8,1.6,1.5,2.2,5.3,3.9,7.2,5.8l-1.2-2.3v-.3c2.3,2.1,4.2,5.5,5.3,8.3,1.9,4.8.7,9,1.1,13.7.2,3.5,2.6,6.2,0,9.6-3,3.7-5.9,4.2-9.7,6.4-3.2,1.9-8.4,5.5-9.4,9.2,0,.2-.3.5.1.3.9-.3,4.2-3.7,5.6-4.6.2-.1.4-.5.5-.2-1.4,1.7-3.3,3.1-4.7,4.8-.4.5-1.7,2.3-1.8,2.7-.1.4.2.3.4.2l8.5-6.5c-.4,2.2-2.6,3.2-4,4.6-1.2,1.2-3.5,3-3.1,4.8,1.5-.8,3-1.6,4.4-2.7.5-.4,5.1-4.7,5.5-4.3,0,.3-.2.4-.4.6-1.3,1.6-3,2.8-4.3,4.6-.2.2-2.8,3.7-1.6,3.7,3.1-3.4,7.8-4.5,11.3-7.3l9.6-9.8c.4-.6.3-1.6.4-2.3.7-3.1,4.1-4.5,6.3-6.3,1.5-1.3,3.8-5.3,5.1-7.2,1.8-2.8,3.6-5.4,4.7-8.6.8-2,1.1-4.5,2.2-6.3.8-1.3,2.4-2.2,3.2-3.5.4.8-1.8,3.4-1.6,3.6,4.6,1.5,9.3,1.5,14.1,2l-1.1-6.9c-.8.6-.8,2.1-2,2-1.2-4.8.7-9.4,1.6-14,3.7-5.2,9.2-9,13.5-13.8l7.2-3.7c-1.9,2.1-4.5,3.5-6.7,5.2-2.2,1.7-4.9,3.9-7,5.8-1.8,1.7-4.9,4.7-5.7,7.1s-.9,4.9-1.2,7.3c-.1.9-.9,2.1,0,2.7l1-1.4h.5c0,0,.7,6.8.7,6.8,3.1,6.2,8.6,11.3,12.8,16.8,2.2,2.9,2.9,4.3,2.8,8.2,0,.3,0,1-.1,1.2-.3,1.1-6,2.3-7.3,2.8-4.4,1.6-13.1,5.8-16.2,9.1,0,.1-.4.6-.4.6,3.6-.4,5.8-3.8,9.3-4.2-.9.8-1.9,1.4-2.9,2.1-1.4.9-3.2,1.8-4.5,2.9-.4.3-1.6,2-1.7,2.4,0,.3,0,.2.3.3,2.1.3,8.9-4.7,11.1-5.9.4-.2,3.5-1.8,3.7-1.8.1,0,.4.3,0,.5-1.1,1-9.6,5.8-9.8,6.4,0,.3,0,.7,0,1,2.2,0,4.1-1.3,6.2-2l7.2-5c0,.2-.2.4-.3.6-1.6,1.7-3.6,3.1-5.1,4.9-.2.3-.8.9-.6,1.3,4.1-1,7.8-3.6,11.9-4.5,1.3-.3,5.2-.5,6-1.5.5-1.4,1.2-2.8,1.9-4.1,2.1-3.8,3-4.7,6.7-6.9,6.9-4.1,14-7.8,20.8-12.1,1.2-.8,4.3-2.6,4.9-3.8.4-.6,1-3.1,1.6-3.4,5.2-.5,11.1-1.8,15.4-4.8,3.8-2.6,5.9-6,8.7-9.4,1.7-2.1,3.6-3.6,5-5.9,2.9-4.6,6.4-15.4,6.1-20.7,0-.2,0-.9-.3-.8l-.6,1.1c.1-3.2,0-6.2-.9-9.3l-.4,2.2-.5.5c-.1-1.9-1.2-3.2-1.9-4.8-1.1-2.7-2.3-5.3-3.4-8l-.3-.2c0,0,0,1.5-.4.9-.4-.5-1.7-3.1-2-3.8-.7-1.7-1.9-5.4-2.1-7.1,0-.8,0-1.3.1-2.1-1.9,2.3-2.5.2-3.4-1.6-5-9.8-4.5-25.6,5.4-32.2,2.6-1.8,5.6-2.1,8.7-1.7.8.1,1.7.3,2.3.8-.7.3-1.6,0-2.3,0-12.1-.4-19.2,14.2-13.6,24.2,2,3.5,4.9,7.2,8.4,9.2,5.6,3.1,11.2,4.7,17.3,6.4,2.6.8,3.4,1.2,6.3,1,5.2-.4,10.6-4.8,14.6-8,2.7-2.2,4.9-4.3,6.7-7.4,1.3-2.3,1.9-5.3,3-7.8.4-.5,1.2.6,1.7.5l.2-8c.3-.3,1.2,1.2,1.5,1.3-.4-2.6-.5-5.4-1-7.9-.7-3.7-6.6-16.2-9.3-18.9-3.4-3.3-7.1-6.5-10.8-9.4l-5.8-3.1h4.6l-1.6-.8c-5.7-1.9-11.1-4.5-16.9-6.1-3.5-1-8.1-1.6-11.3-3.1-.3-.1-1-.4-.7-.8.3-.4,2.6-.8,3.2-.9,0-.2-.2-.3-.3-.3-1.4-.5-2.9-.4-4.3-.6-4.4-.5-10.3-.4-14.8.2-3.1.4-6.3,1.4-9.4,2,.3-1.3.9-2.4,1.8-3.4,0-.5,0-.2-.3-.1-.3,0-.7.2-1,.3-8.2,3.3-18.2,7.5-24,14.3-.4.4-1.2,2.2-1.7,1.8-.3-.6-.3-1.4-.5-2,0-.2,0-.4-.3-.4-1,1.9-2.6,3.4-3.7,5.1-2.4,3.7-5.2,9-6.5,13.2-.4,1.4-.5,2.9-.9,4.3h-.5l-.8-2.5c-2.7,4.3-.8,9.5-1,14.2-1.2.2-1.2-1.5-2-2,.3,1.5.2,3.1.6,4.6.2.7.8,1.7.9,2.2h0ZM39.6,81.9c0-2-2.3-3.7-4-2.3l4.3,4.3c.3-1.9-2-2.9-3-4.3.2-.3.4,0,.5.2.8.6,1.4,1.5,2.2,2.1ZM39.5,87.7c.2-.9.8-2.4.5-3.3-.5-.4-4.3-4.8-4.7-4.6,0,.4-.4,1.7-.3,2,0,.2,1.8,1.5,2.2,1.8.6.6,1.4,1.3,1.9,1.9.2.2.4.3.4.6l-4.5-3.8-.2,1.2c1.9.9,3.1,2.8,4.7,4.1h0ZM30.3,86.4l-6.6-5.4c-2.2-1-4.9-.8-4.9,2.2,0,.7.4,3.1.6,3.8.1.4,1.7,3.4,1.9,3.4.5-.5,1.1-1.1,1.7-1.4.8-.4,2.2-.9,3.1-1.3,1.3-.5,2.9-1,4.2-1.3h0ZM34.8,83.9c-.9,1.2.3,1.6.9,2.2,1,1,2,2.1,2.9,3.1.3-.3.6-.7.4-1.1,0,0-4.2-4.2-4.2-4.2ZM47.3,135.7c-.5.1-.2,1.8-1.1,1.2-.6-.4-2-3.9-2.5-3.9-.3.2-.4.7-.8.5s-1.9-2.6-2.5-3.2c-.2-.1-.2-.3-.4-.2,0,.4-.3.8-.6,1.1-3.4,4.9-7.2,8.9-11.6,12.8-.5.4-2.8,2.3-3.2,2.4-1.6.4-3.7-1-5.5-1s-4.1,2.7-4.9,3.6l-1.9,2.7c1.8-1.3,3.2-2.8,5.2-3.6.2,0,.5-.4.6-.1-2.4,2-4.7,3.6-6.8,6-.2.2-.4.3-.4.6.6-.1,1.3-.2,1.9-.4,1.7-.5,4.2-1.7,5.9-2.5,1.2-.6,2.5-1.6,3.9-1.9,0,.5-.7.8-1,1.1-1.3,1.1-3.6,2.1-4.5,3.5-.8,1.1-1.1,2.7-1.8,3.9l.2.5c.9.6,2.8-2.3,3.6-2.8,1.4-1,6.7-2.6,8.5-3,1.5-.3,4.7-.3,5.9-1.1.6-.4,1.5-2.6,2.1-3.4,1.8-2.3,3.3-3.2,6.1-3.9,3.2-.9,7.6-1.4,11-1.6.9,0,1.9,0,2.8,0-2.6-2.6-6.4-4.2-8.2-7.5h0ZM116,165.9l-5.9-7.3c-1.5-1.5-3-3-4.4-4.6-.6-.6-2.6-3.4-3.1-3.5-.3,0-.7,0-1,0l10,11.1v.4c-3.3-3-6.1-6.4-9.1-9.7l3,5.1c.9,1.3,4,4,4.5,5.2,0,.2,0,.4-.2.2-1.4-1-2.5-3-3.8-4.1,0,.4,0,.9,0,1.3s2.2,2.3,2.6,2.8c.3.3.7.8.7,1.2-.2.2-1.3-1-1.5-1.2-.6-.6-2.7-3.8-2.1-1.2l3.4,3.8c-.3,0-.4-.2-.6-.4-.9-.7-1.5-1.8-2.3-2.6-.2-.2-.2-.4-.5-.3-.7,2.3,1.9,2.4,2.4,4.2-.2.3-2.5-2.4-2.8-2.5,0,0-.6.1-.5.4,0,.2,1.4,1.2,1.1,1.6-1.2-.4-1.4-2-2.9-1.3,1,1.2,2.3,2.4,2.7,4-.9-.5-2.7-3.8-3.6-3.8l-1.4.5c.4.3,3.5,4.1,3.3,4.3-.4,0-.6-.3-.8-.5-.5-.6-2.7-3.7-3.1-3.8l-2.6.8,2.6,2.8c-1.2-.4-2.2-3.1-3.6-2.6-.2,0-.3,0-.2.3.2.3,2.1,1.8,1.8,2.1-1.4-.5-1.6-2.7-3.3-2l.4.9c0,.1-.6-.6-.8-.7-.4,0-6,2.4-6.8,2.9-1.4.7-3,1.7-4.1,2.8,3.1,0,5.4-2.6,8.4-2.9v.4c-1.4.7-3,1.3-4.3,2-1.6.9-3.6,1.9-4.3,3.7.8,0,1.5,0,2.2-.3,2.8-.9,5.7-2.8,8.5-3.9.6-.2,2.4-1,3-1.1.4,0,.5,0,.4.4l-9.1,4.5-.2,1.2c.5-.2,1.1-.1,1.7-.3,3.9-.8,6.9-2.7,10.3-4.7l.2.2c-.5.3-6.4,4.8-5.9,5.1,4-.5,7.6-2.5,11.6-2.9.6,0,1.4,0,2.2,0,.6,0,2.5-.3,2.8-.7.6-.7-2.1-2.7-1.7-3.1.7-.1,1.9,2.2,2.1,2.2,1.8-1.5-1.3-2.2-1.6-3.8,1.1.4,1.6,1.6,2.5,2.4l.7-1-2.4-3.6c.3-.3,2.4,2.6,2.7,2.9l1-1-2.7-3.5c.3-.3,2.8,2.5,3,2.9.3,0,.8-.7.8-1l-2.7-3.2c.2-.2,2.8,2.6,3,2.8.3.2.3,0,.6,0h0ZM116.9,167.5c-.1-.1-1.3.9-1.5,1-.5.5-1.8,1.7-2.1,2.3-.6,1-.5,2.3-1.2,3.3l4.7-1.3c.4-1.8.2-3.5,0-5.3h0Z"/>
        <path class="st2" d="M8.1,175.9c2.5,0,4.3-1.3,4-4,2.8-.2,5-2,3.8-4.9,2.3-.1,3.3-1.8,3.1-4,2.2-.1,3.9-2,3.5-4.2,1.4.2,3.1-.5,3.9-1.6.2-.3.3-.9.3-.9.1,0,2.3-.4,2.6-.4,1.3-.1,2.6.1,3.9.3.5.2,2.8,3.6,3.2,4.3,2.9,5,4.1,10.5,3.8,16.3-.2,3.2-1.2,9.1-4.4,10.8-5.1,2.7-14.6.4-19.7-1.9-3.2-1.5-6.6-3.6-9.1-6.1.2-1.2,1.2-2.3,1-3.6h0Z"/>
        <path class="st2" d="M4,151.1c0,0,.1.3.2.4.8.6,2.6,1.9,3.1,2.6.9,1.1.6,2.6,2,3.1,1,.3,2.1.2,3.1,0-.5,4.6,3.5,6.1,6.7,2.9.7-.6,1.1-1.6,1.8-2.2.6.6.6,1.5.2,2.2-.9,1.7-3.4,1.1-3.6,1.5,0,1.5.3,2.9-1.2,3.7-.5.3-1.9.4-2,.8.2,1.4.6,3.1-.9,3.8-.6.3-2.5.4-2.7.7-.6.6.6,2-1,3.1-.7.5-1.9.6-2.4,1.1-.8.7-.7,3.2-2,3.3-2.6.3-4.2-3.1-4.7-5.2-.8-3.5-.7-6.2.9-9.4.4-.9,3.4-5.4,3.3-5.8s-3.1-3-3.7-3.4c-.7-1,1.7-2.2,2-3.1.2-.1.6-.2.9,0h0Z"/>
        <path class="st0" d="M25,156.9c-1,.5-1.7.9-2.9.7,0-.4,2.5-1.3,2.6-1.2s.4.4.3.5Z"/>
        <path d="M32.7,99.3c2.3-.3,4.1.3,5.8,1.8,1.8,1.6,1.4,2.2.2,4.2-2.3,3.8-5.8,5.3-10.2,4.9-.4,0-2.3-.3-2.5-.4-.2-.2-.2-.3-.1-.5,0-.9.6-2.1.9-3,1-3,2.5-6.5,6-7h0ZM32.5,101.6c-1,.2-2.2,2.5-.6,2.7,1.8.2,3.2-3.3.6-2.7ZM30.2,104.7c-.3.3-.4,1.4.2,1.4,1.4-.4.8-2.4-.2-1.4Z"/>
        <path d="M89.3,132.1l-5.5-9.5c.4,0,.6.1.8.4,1.2,1.1,4.2,6.7,4.6,8.2,0,.3.1.6,0,.9h0Z"/>
        <path d="M140.8,82.8c-.4,0-.5,0-.7-.3-.9-.6-1.9-1.6-2.8-2.3-1.6-1.3-3.2-2.7-4.7-4.2,1.4.5,2.8,1.6,3.9,2.6,1,.8,2.4,1.9,3.3,2.7.2.2,1.3,1.2,1,1.5h0Z"/>
        <path d="M232,54.1l-4.6-9c.5-.5,2.1,2.2,2.3,2.5,1.1,1.9,2.1,4.2,2.3,6.4h0Z"/>
        <path d="M130.1,69.1l.6.4c1.8,1.8,3.8,3.5,5.5,5.5.3.4,1.3,1.5,1.5,1.8.1.3,0,.3-.2.5l-7.4-8.2h0Z"/>
        <path d="M233.1,48.6l-5.7-8.2c.3,0,.6.2.8.4.7.6,2,2.5,2.5,3.3.9,1.4,1.7,3,2.3,4.5h0Z"/>
        <path d="M32.5,97.8c0,.3-.6.4-.9.5-2.9,1.1-4.2,1.6-5.4,4.7l-1.1,3.4c-.1-1,.1-2,.4-3,1-3.7,3.2-4.9,6.9-5.6h0Z"/>
        <path d="M188.5,119.5l.2,1.7c0,1-2,7.9-2.5,7.9-.4,0-.1-.5,0-.6.6-2.9,2.3-5.9,2.4-9.1h0Z"/>
        <path d="M137.2,73.1c-.4.3-1.9-1.8-2.2-2.1-1.3-1.7-2.5-3.6-3.5-5.5l5.7,7.7h0Z"/>
        <path d="M82.8,128.4l-5.3-5.2c-.3-.1,0-.4,0-.4.6,0,4.6,4.2,5,4.9.1.2.2.5.2.8h0Z"/>
        <path d="M92.2,133.9l-2-8.3.8,1.2c.3.7,1.2,3.5,1.2,4.1v3Z"/>
        <path d="M143.8,112.7l-4.7-2.7-3.9-1.5c3.2.4,6.4,1.8,8.6,4.2h0Z"/>
        <path d="M190.1,125.2h-.4c1.2-2.8.8-5.9,1-8.8,1,1.2.2,8-.6,8.8Z"/>
        <path d="M85.3,129.5l-4.8-6.6c.2-.2,1,.7,1.2.9,1.4,1.5,2.8,3.8,3.6,5.7Z"/>
        <path d="M183.2,128.6l2.7-7.3c-.2,1.6-.6,3.2-1.1,4.8,0,.2-1.1,3-1.6,2.5Z"/>
        <path d="M119.3,157.7c-.3.3-.8-.9-.8-1.1-.7-1.7-1.1-3.6-1.9-5.3.3,0,.5.2.6.4.4.5,2.3,5.8,2.1,6h0Z"/>
        <path d="M54.8,106.9c-1.6-.3-3.4-1.9-4.5-3-.4-.4-.5-.9,0-.7,1.3.6,3.1,2.9,4.5,3.7Z"/>
        <path d="M136.6,67.1c-.5.4-.9-.8-1-1.1-.6-1.5-1.2-3.3-1.6-4.9,1.4,1.7,1.7,4.1,2.6,6h0Z"/>
        <path d="M150,128.1c-1.5-1.6-3-3.6-4.1-5.5-.1-.2-.4-.4-.3-.7,1.7,1.8,3.4,3.9,4.4,6.2h0Z"/>
        <path d="M58.5,106.7c-1.7-.7-3.7-2-5.1-3.2-.2-.2-.5-.2-.4-.6.3-.3,5,3.2,5.5,3.8h0Z"/>
        <path d="M63.8,106c.6.7-1.6,0-1.7,0-1.4-.4-3.2-1.4-4.3-2.4l6,2.4h0Z"/>
        <path d="M75.1,162.2h-.4c.8-2,1.1-4.3,1.8-6.2,0-.2.1-.5.4-.6-.2,2.3-.9,4.6-1.8,6.8Z"/>
        <path d="M229.2,54.7c-.5,0-.3,0-.5-.4-.4-.7-1.3-2.8-1.5-3.5,0-.2-.1-.7.2-.7.4,0,1.9,3.9,1.7,4.6h0Z"/>
        <path d="M112.2,147.6l2.4,6.2c-1.6-1.6-1.9-3.9-2.7-6l.3-.2Z"/>
        <path d="M196.7,16.7l-7.1-1c.8-.5,2.4-.2,3.4,0,1.3.2,2.5.6,3.8,1.1h0Z"/>
        <path d="M148.5,130.4c-.4,0-.7-.6-.9-.9-1.1-1.5-2-3.1-3.1-4.6.2-.2,1.5,1.4,1.7,1.7.9,1.1,1.7,2.5,2.3,3.8h0Z"/>
        <path d="M74.3,158.8c-.2,1.9-1.1,4-2.4,5.5l1.8-5,.5-.5h0Z"/>
        <path d="M143.2,115.8c-1-.3-1.8-1-2.7-1.4-.7-.3-1.4-.4-2.1-.6-.3,0-.5.2-.4-.4,1.9,0,4.1.8,5.3,2.4Z"/>
        <path d="M151.1,125c-.9-.8-1.7-1.9-2.4-2.9-.6-.7-1.2-1.5-1.6-2.4,1.5,1.6,3.1,3.3,4,5.3h0Z"/>
        <path d="M78.9,155.5c-.2,2-.9,4.1-2.2,5.7.6-1.8,1.3-3.4,1.8-5.2,0-.3-.2-.5.4-.4Z"/>
        <path d="M145.9,131.4l-3.8-4c1,.3,2.1,1.5,2.7,2.3.4.5,1,1.1,1.1,1.7h0Z"/>
        <path d="M142.3,118.2c-1.6-.5-2.9-1.7-4.2-2.7,1.6.3,3.1,1.6,4.2,2.7Z"/>
        <path d="M110.9,150.9c-1.2-1.2-1.9-3.1-2.2-4.8l2.2,4.8Z"/>
        <path d="M65.9,103.6c.3.2,0,.3-.3.4-.6,0-2.8-.5-3.5-.7-.2,0-.6,0-.6-.4,0,0,4.4.7,4.4.7Z"/>
        <path d="M198.7,20c0,.3-.4.2-.6.2-.6,0-1.9-.3-2.4-.5-.3-.1-.5-.1-.5-.5,1.2,0,2.3.5,3.5.9Z"/>
        <path d="M197.3,18.1l-.8.2-4.1-.7c1.7-.2,3.3.3,4.9.5h0Z"/>
        <path d="M101.9,168.8l-.7-.6-1.8-2.5c1,.8,2.2,1.8,2.6,3.1Z"/>
      </g>
    </g>
  </g>
</svg>