<?xml version="1.0" encoding="UTF-8"?>
<svg id="Layer_2" xmlns="http://www.w3.org/2000/svg" xmlns:xlink="http://www.w3.org/1999/xlink" version="1.1" viewBox="0 0 455.3 454.7">
  <!-- Generator: Adobe Illustrator 29.6.1, SVG Export Plug-In . SVG Version: 2.1.1 Build 9)  -->
  <defs>
    <style>
      .st0 {
        fill: none;
      }

      .st1 {
        fill: #ff5c8a;
      }

      .st2 {
        fill: #fff;
      }

      .st3 {
        clip-path: url(#clippath);
      }
    </style>
    <clipPath id="clippath">
      <rect class="st0" width="455.3" height="454.7"/>
    </clipPath>
  </defs>
  <g id="Layer_1-2">
    <g>
      <polygon class="st2" points="197.1 390.4 220 399.1 265.7 412.3 277.3 381.2 293.7 334.3 311.2 285.2 302.2 281.5 262.2 271.4 238.3 265.1 232.8 281.3 206 362.4 197.1 390.4"/>
      <polygon class="st2" points="347.7 228.9 384.5 213.9 388.1 218.2 423.7 311.8 434.4 339.8 397.3 354.2 382.9 319.5 364.6 273.2 347.7 228.9"/>
      <polygon class="st2" points="319.1 80.3 399.9 79.1 400.5 2.9 319.9 3.3 319.1 80.3"/>
      <path class="st2" d="M22.1,4.2l66.5,9.3,96.5,13.9,39.5,6.1s-2,36.5-1.9,37-2.3,36.2-2.3,36.2l22.8,10.9,50.1,17.6,73.1-23.5,58.3-18.6,4.7,9.6,23.3,68.5-22.7,8.2s-60.5,18.9-60.9,19-78.5,22.8-79.2,23.7c-.6.9-18.8,7.1-18.8,7.1l-10.7-29.8-31.6-9.7-11.1-1-7.7,71.2-58.3-4.7-1.8,97.4,8.1,7.8-9.1,8.4-1.1,50.1-60,3.3-36,28.5L3.1,399.4l39.5-35.8,22-21,1.5-28.8,4.2-73,2.6-20,58.3-.2s2.9-60.7,3.3-60.7,37.1,3.8,37.1,3.8l21.6-58.2-49.2-6.4L12.9,85.6v-20.8L18.6,4l3.5.2Z"/>
      <g class="st3">
        <g id="Group_8900">
          <path id="Path_5775" class="st1" d="M224.5,167.7l-10.3,96.3c-7.7,1.4-15.6-.7-23.3-1.4-18.4-1.7-36.9-3.5-55.3-5.1-3.5-.3-7.1-.8-10.6-.8l-.8-.4c-.3-.4.9-8.7,1-10.1.2-4.3-.1-7.1.3-11.5,1.4-14.8,3.5-29.3,3.7-44.2,0-6.4,1.3-12.7,1.8-19.1.3-3.8-.1-8.9.4-12.5.2-1.2,1-3.1,2.4-3.1l90.7,11.8h0ZM149,172.9c-12.5,1.8-13.4,26.8,1.8,28.6,13.4,1.6,19.3-9.5,15.4-21.3-2.1-6.4-11.3-8.1-17.2-7.3M192.1,176.6c-13.9.8-18.1,21.5-6.2,27.7,5.1,2.7,14.2,2,18.2-2.4,6.1-6.8,5.4-18.9-3.3-23.1-1.8-.8-6.8-2.3-8.7-2.2M144.2,220.1c-9.5,1.9-12.1,21.8-3,26.3,11.9,5.9,23-2.3,21.9-15.2-.9-9.5-10.6-12.8-18.9-11.1M188.7,222.3c-20.9,2.9-15.3,34.6,6.1,27,6.3-2.2,9.4-5.9,9.9-12.6.7-9.7-6.4-15.8-15.9-14.4"/>
          <path id="Path_5776" d="M227.9,193.1c-.1-1,.2-6.9.9-7l64.2,20.9c2-5.1,5.5-9.3,8.3-14,6.3-10.5,11.7-21.5,17.3-32.4l5.3-10.3c-5.8-2.1-11.2-4.9-16.9-7.2-29.8-11.7-60.4-21.4-90.3-33.1l-20.7-2.5-19.8,49.3-6.2-.7,19.9-49.3c-.7,0-1.4,0-2,0-12.4-1.6-26.4-4.3-38.7-4.8-22.8-1-47-4.2-69.9-6.6-10.1-1-19.9-3.2-29.8-4.4-13-1.5-26.4-.6-39.3-3.4-1-.4-1.8-2.4-1.8-3.4,0-.8.7-1.3.8-2.2,1.1-8.2.7-17.7,1.5-26.2,1.3-14,3.7-27.8,4.8-42,.3-3.6,0-7.6.7-11.1.9-.8,2-1.1,3.2-.9.8,0,1.6,0,2.4.1,6.8.4,14.2,1.3,20.8,2.2,22,2.8,44.1,6.6,66,10.2,10.3,1.7,20.9,2.2,31.2,3.8,10.7,1.6,21.7,4.6,32.1,6.1,16.6,2.4,33.8,2.1,50.3,6.4.9.2,3.8,1,4.2,1.7l-3.7,73.3c.4.6,10.8,3.4,12.5,4,20.1,7.1,39.9,15.3,60,22.5,7.5-1.6,14.3-5.2,21.6-7.5,35.3-10.8,70.9-23.3,106.3-33.2,1.1-.3,2.2-1.6,3.5-.6l28.8,80.6v.8c-.1,0-2.7,1.4-2.7,1.4-23.3,8.8-47.3,15-71,22.5-9.7,3.1-19.3,7.2-29,10-5.7,1.6-11.5,2.6-17.2,4.1-18.5,4.9-36.6,11.1-54.2,18.6-2.1.9-8.2,3.9-10,4-1.1-.1-2.1-.5-3.1-.9-1.7-1.1-3.1-9.7-3.8-12-1.8-5.9-4.3-11.6-6.7-17.2l-29.6-9.9h0ZM222.3,34.4L21.3,6.1l-6.3,75.6c0,.4,1,.5,1.3.6,13.6,1.8,27.2,2.5,40.8,4.1,10.4,1.3,20.5,3.3,31,4.4,22.1,2.3,44.1,4.9,66.3,7,19,1.1,39.1,6.2,57.8,7.4,2.1.1,4.1,0,6.2,0,1.1-.3.5-3.8.6-4.9,1.1-13,1.8-26,2.9-39l.4-26.7h0ZM424.4,94.8l-125.1,40.5,13.5,6.2h.5c3.5-7.8,17.1-6,21.7-.5,2.8,3.3,3,11.4,1.6,15.3-.9,2.6-5.9,7.1-8.5,7.6-1.5.3-3.9,0-5.4.5-1.1.3-5.1,9.5-6.1,11.2-3.8,6.8-8.8,13.1-12.4,20,.3,6.4,1.3,11.3-3.8,16-5.7,5.2-13,5.1-18.8,0-1.8-1.6-2.8-4.4-3.9-5.3-2.5-2-10.2-3-13.4-4.5l8.1,23.8c4.8-1.9,10.1-2.6,14.9-4.2,16.6-5.6,32.7-11.3,49.7-15.8,24.8-6.6,49-14.8,73.6-22.1l39.4-13.6c-.1-1.3-.4-2.5-.7-3.8-3.8-13.6-9.6-26.6-14.3-39.9-1.9-5.3-3-10.7-4.8-15.8-1.8-5.2-4.7-10.2-5.9-15.6M325,160c3.9,1.7,8.8-3,9.9-6.5.8-2.6.5-9.7-1.4-11.8-2.4-2.5-9.8-4.9-12.7-2.8-1.1,1.4-1.9,3-2.4,4.6,0,1.9,8.5,3.1,9.8,5.7,1.6,3.3-2.7,7.4-3.1,10.7M295.2,211.5c2.5-1.3,5.8-3.7,6.7-6.4.2-.7,1.2-6.6.1-6.5-2.8,4-5,8.3-6.8,12.9"/>
          <path id="Path_5777" d="M124,218.9l-1,4.8-47.9-.7c-.7,4.7-1.4,9.4-1.9,14.1-1.8,18.3-2.8,36.9-3.3,55.2-.3,10.2-1.3,19.5-1.8,29.5-.3,5.7.3,11.4-.4,17.1,4.5-4.5,10-7.8,14.7-12,3.3-2.9,6-6,9.6-8.8,3.9-3,8.5-5.9,12.6-8.6,2,.1,13,11.6,15.3,13.7,2.2,2,7,6.4,9.6,7,4.6,1.1,8,1.4,10.3,6.3.6,1.2.7,2.7,1.4,3.8,1.2,2,5.6,4.6,7.2,6.6.1-4.7-.1-9.5,0-14.2.4-14.1,1.2-28.2,1.5-42.3.2-8.5.1-17.1.7-25.6l4,.4c-.2,11.1,0,22.2-.3,33.3-.4,16.2-1.4,32.3-1.1,48.6,0,1.8-1.1,3.2.2,5,2.6,2.3,5.8,4.8,7.5,7.9-.1,1.5-8.5,7.9-9.8,9.7,0,.5.3,1,.3,1.4-.9,8.2-1.3,16.8-1.5,25-.2,8.1.5,16.1,0,24.1-5.1-.4-10.2.5-15.3.7-15.3.8-30.7.5-45.9,2.7-12.7,8.5-22.9,20.4-34.7,29.7-.9.7-1.8,1.8-3,1.2-4-3.8-8.6-7.1-12.7-10.9-4.8-4.5-11.2-10.7-15-15.9-1.9-2.5-3.2-5.5-5.4-7.9-4.1-4.4-9.4-8.4-13.4-13.1-1.5-1.7-2.9-3.5-4.1-5.4-.3-.7-.3-1.4-.1-2.1.6-3.4,7.3-9.1,10.1-11.6,12.5-11,24.1-21.1,36.3-32.6,4.6-4.3,10.2-8.1,14.7-12.5,1.1-7.1,1.6-14.3,2.4-21.5,2.2-19.2,2.9-37.1,3.6-56.4.6-14.6.8-29.1,2.8-43.6.7-1,1.7-1.7,2.9-1.9,7.6-.9,18.2.1,26.2,0,.8,0,1.5-.4,2.2-.4,7.6-.1,15.1-.5,22.6,0M102.6,313.2c-.7.1-9.5,8.1-10.9,9.3-25.7,22.5-51.2,45.3-75.6,69-1.1,1-8.2,7-8.3,7.6l45.1,48.7h.8c3.1-3.1,6.7-5.5,10-8.2,28.5-23.9,56.2-48.6,84.5-72.7,2.6-2.2,5.9-3.9,8.2-6.5.1-.6-3.5-3.2-4.2-3.8-3.7-3.5-7.2-7.8-10.8-11.2-10.8-10.1-24.1-19-35.3-29.1-.9-.8-2.2-3.2-3.4-3.1M137.7,337.4c.6-.6-4-4.6-5.1-4l5.1,4ZM148,372.4l-14.4,13.1c1.5,1.9,3.8,2.9,4.9,5,2.6,4.5,2.4,13.6-1.2,17.5-5.8,6.2-14.3,6.4-20.5.6-1.8-1.7-2.4-3.9-3.7-5.9-5.6,3.4-9.8,8.4-14.5,12.7-1.5,1.3-3.6,2.5-5,3.9-.4.4-.7.5-.6,1.1l53-2.6,1.5-18.9.4-26.3h0ZM129.5,387.2c-3.1,2.5-7.1,5.1-9.8,7.9-.4.4-1,.8-1.1,1.5.2,2.7.8,5.4,2.1,7.9,1.1,1.5,5.8,5.1,7.7,5.1,3.1,0,8.4-4.5,9.4-7.5.5-2.3.6-4.7.3-7-.4-2.5-6.1-8.4-8.5-7.9"/>
          <path id="Path_5778" d="M316,2.1c1-1.2,5-1.5,6.7-1.6,16.4-.9,33.9.2,50.5,0,8.6,0,14.6-1.2,23.5,0,1.9.2,4.6-.7,5.3,1.7-.4,1.8.4,3.8.4,5.5.2,21.7-.2,43.8,1.1,65.5.1,1.7.3,7.8-.9,8.7-1.2.4-2.4.7-3.7.7-8.2.6-17.8,0-26.2,0-13.7,0-27.5.3-41.2.4-2.1,0-15.5,0-16.2-1.1l.7-79.8h0ZM397.9,4.6l-73.3-.2c-.8.6-1,11.8-1.1,13.6-1.2,19.1-2.4,37.1-1.1,56.3,0,.8.2,1.6.4,2.3l74.7-.3.4-71.8h0Z"/>
          <path id="Path_5779" d="M195.1,392.2c-.3-.4,0-1.3.1-1.8,2.1-9.5,6.6-21.3,9.7-30.8,6.7-20.8,14.1-41.3,21.2-62,3.8-11.2,7.1-22.5,10.7-33.8,1.1-.8,3.7,0,5,.2,7.9,1.6,16.3,4.7,24.3,6.6,13.8,3.3,28,5.7,41.3,10.9,1.5.6,5.5,1.9,5.7,3.5-1.6,5.8-4.5,11.2-6.6,16.9-2.6,7.1-4.2,14.6-6.6,21.7-2.3,6.8-5.6,13.3-7.9,20.1-2.3,6.9-3.7,12-6.5,18.9-5.6,13.4-9.9,27.4-14.8,41.1-1.4,4-2.1,8.3-4.2,12l-71.4-23.5h0ZM308.5,285.1l-68.4-18.4-39.8,122.9c12.4,3.3,24.3,8.3,36.4,12.8l28,7.8c2-5.2,4-10.4,5.9-15.6,9.2-25.2,17.9-50.6,26.9-75.9,3.3-9.3,6.2-17.9,9.1-27.3.3-1,2.4-5.9,1.9-6.3"/>
          <path id="Path_5780" d="M387.2,211.9c1,4.2,3.7,7.3,5.4,11.4,1.4,3.6,2.2,7.6,3.6,11.1,4.8,12.3,10.5,24.3,15.3,36.6,6.9,17.9,12.7,36,19.8,53.9,1.2,3.1,5.1,12.2,5.4,14.9,0,.4.2,1.1-.2,1.3l-39,16.1c-1.5,0-2.9-3.5-3.5-4.8-5.3-11.6-10.2-23.7-14.8-35.6-9.4-24.5-18.7-49-28.1-73.5-1-2.5-4.6-11.1-4.7-13.2,0-.9.4-1.8,1-2.6.6-.6,6.2-3,7.5-3.6,6.9-3.1,14.8-6.4,21.9-9.1,1.5-.6,9.9-3.7,10.7-3M385.4,215.5l-35.3,14.9c3,7.1,6.3,14.2,9.1,21.4,7.3,19.3,14.2,38.7,21.5,58,5.4,14.5,11.6,28.8,18.5,42.6l32.5-13.5-46.4-123.5h0Z"/>
          <path id="Path_5781" d="M250.2,128c6.1-1,16,1.8,17.2,8.7,1.4,7.4.6,13.3-6.1,17.5-8.3,5.1-21.3-1.4-20.2-11.7.6-5.4,2.8-13.4,9.1-14.5M250.1,130.6c-1.5,1.6-2.5,3.5-3,5.6-.8,6.7,2.2,13.7,9.4,14.8,1.2.2,2.5.3,3.7.1,1.9-.7,5-4.4,5.5-6.3.4-3.3.3-6.6-.5-9.9-1-2.7-6.8-5.3-9.5-5.3s-5.1.5-5.6.9"/>
          <path id="Path_5782" d="M276,172.6c6.2-1.1,16,1.4,17.5,8.5,1.6,7.6.6,14-6.5,18-8.2,4.6-20.8-1.9-19.7-11.9.5-5,2.8-13.5,8.7-14.5M280.4,174.4c-1.2,0-2.3.2-3.4.6-1.4,2.3-2.6,4.6-3.7,7-.7,2.7.9,8.2,2.6,10.3,1.5,1.9,6.1,4.5,8.4,4.3,2.9-.3,7.8-6,7.9-8.9,0-2.6-.3-5.1-.8-7.6-1-3.8-7.5-5.9-11-5.7"/>
          <path id="Path_5783" d="M305.4,147.9c2.3,2.6,3,8.4,2.7,11.8-1.6,15.4-24,14.9-26.7,2.1-.8-4,1.5-13.2,4.6-16,4.7-4.3,15.4-2.4,19.4,2.2M295.2,145.3c-1.5,0-5,.3-5.8,1.6-.9,1.9-1.6,3.9-2.1,6-.6,3.2,1.1,9.8,3.8,11.9,2.6,2,7.9,3.2,10.7,1.1,4.6-3.6,5.3-9.4,3.8-14.8-.9-3.4-7.1-5.7-10.3-5.7"/>
          <path id="Path_5784" d="M89,279.3c9.9-1.6,18.9,9.7,16.5,19.1-2.1,8.2-8.4,11.6-16.5,10.2-15.8-2.6-12.3-27.4,0-29.3M88.6,281.5c-5.2.9-7.1,9.7-6.1,14,2,8.9,14.4,11.1,19.6,3.9,2.4-3.4,2.4-5.5.9-9.3-2.3-5.8-8-9.7-14.4-8.6"/>
          <path id="Path_5785" d="M207.1,114c7.6-1.3,16.9,2.3,17.8,10.8.6,6.4-.4,11.1-5.8,14.9-8.4,5.9-22.3-.4-21-11.1.6-5.3,2.8-13.5,9-14.6M205.1,117.7c-3.7,4.1-2.2,12.5,1.2,16.4.9,1.1,6.1,2.9,7.6,3.1,5.9.7,9.2-5.4,9.1-10.6,0-1.5-.8-5.7-1.6-6.8-2.8-3.8-9.2-4.4-13.5-3.6-1,.3-1.9.8-2.7,1.5"/>
          <path id="Path_5786" d="M236.6,158.9c6.2-1.1,16,1.4,17.5,8.4,1.3,6.1,1.1,11.7-3.8,15.9-5.6,4.9-13.2,4.6-18.8-.4-3.6-3.3-2.5-4.9-2.6-9.2,0-1-.4-1.9-.4-2.9,0-4.4,3.3-11.1,8-11.9M237.7,180c1.4,1.1,3.1,1.8,4.8,2,4.4.5,9.5-2.4,10-7.1.3-2.3,0-8.6-1.5-10.3-3.3-3.8-10.6-5.3-14.7-1.8-5.9,4.9-4.4,13,1.3,17.3"/>
          <path id="Path_5787" d="M87.9,232.6c12.2-2.1,19.1,4.2,18.2,16.3-1,12.7-19.6,15.7-25.4,4.4-2.2-4.3-.9-10.8,1-15.2,1.1-2.4,3.6-5.1,6.2-5.6M90.8,234.4c-2.7.3-4.9,1.2-6,3.9-.8,2.2-.9,8.9,0,10.9.9,1.8,5.2,4.8,7.1,5.4,7.2,2.6,12.4-2.4,12.2-9.6,0-2.4-.6-6-2.2-7.7-2.9-2.9-7.2-3.5-11.1-3.1"/>
          <path id="Path_5788" d="M127.3,281.5c7.4-1.2,16.9,2,17.8,10.4.7,6.8-.1,11.2-5.8,15.2-7.1,5-18.3,1.2-20.6-7.2-.8-2.9.7-10,2-12.8,1.2-2.5,3.8-5.1,6.6-5.5M131,283.4c-1.3,0-2.5.2-3.8.7-1.1.7-4.8,6.2-5,7.5-1.3,8.4,5.6,14.2,13.7,12.6,1.7-.8,3.4-1.7,5-2.7,2.8-2.6,2.5-9.5,1.4-12.8-1.4-4-7.6-5.6-11.4-5.3"/>
          <path id="Path_5789" d="M209.8,161.8h-1.8c-.2-5.2.6-9.4-4.5-12.2-3.2-1.8-7.1-2.3-10.7-1.3-2,.4-4.2,4.7-4.5,6.5-.2,1.2.8,2.8.5,4.1-1-.2-4.9-.1-5.1-.9.3-1.5.6-2.9,1.1-4.4,2.3-6.8,6.9-8.4,13.7-7.4,4.4.6,11.3,4.7,11.3,9.7v6.1h0Z"/>
          <path id="Path_5790" d="M122.9,232.8c.7,3.4-1.7,7-1.8,10.2,0,1.5.7,3.5.7,5.1-.2,2.4-.5,4.8-.9,7.2-5.5-6.3-5.2-15.8.7-21.7.4-.4.6-.9,1.3-.7"/>
          <path id="Path_5791" class="st1" d="M147.5,222.3c3.9-.4,7.6,1.9,9.8,5.1,5.9,8.2.4,18.3-9.9,17.3-3,0-5.6-1.8-7-4.4-2.1-3.6-1.7-8.8,0-12.4.9-1.6,2-3.1,3.2-4.6,1.2-.5,2.5-.9,3.8-1"/>
          <path id="Path_5792" class="st1" d="M149.3,175.8c2-.1,4.1-.1,6.1,0,3.2.4,5.9,2.5,7.1,5.4,1.6,5.2,1.1,11-3.2,14.6-2.5,2.1-7.5,3-10.4,1.6-3.3-1.6-7.1-6.2-6.8-10,.3-4.6,2-10.8,7.2-11.6"/>
          <path id="Path_5793" class="st1" d="M189.6,180.3c6.6-1.6,13.3,2.4,15,9,.6,2.4.4,5-.4,7.4-.7,2-3.4,5.2-5.5,5.9-4.3,1.6-10.4.5-13.7-2.7-3.9-3.8-3.4-13.3.5-17.1,1.3-1,2.7-1.8,4.1-2.5"/>
          <path id="Path_5794" class="st1" d="M189.3,224.1c10-.7,14.5,7.9,11.6,16.8-1,3-3.5,4.6-6.3,5.9-3.6,1.5-5.2,1.4-8.8-.2-11.1-4.8-8.4-21.6,3.5-22.4"/>
          <path id="Path_5795" d="M41.5,13.2c7.4-1.1,16.3,7.3,15.5,14.8-.4,4-4.7,10.9-8.5,12.4-10.7,4.2-21.2-3.8-19.3-15.3.6-3.9,8.4-11.4,12.3-11.9M45.2,16.5c-3.8.6-7.5,4-9.1,7.5-2.5,5.6,2.7,10.8,7.8,12.4,5.3,1.6,7,.3,9.6-4.3.7-1.4,1.4-2.8,2-4.3,1.2-4.6-5.4-12.1-10.2-11.3"/>
          <path id="Path_5796" d="M195.4,70.2c4.5-.8,8.3,1.2,11.5,4.2,6.6,6.1,5.6,13.1.2,19.7-8.5,10.4-25.9,1.8-23.6-11.8.6-3.7,8.2-11.4,11.9-12M199.8,74.3c-2.1.3-4,1.2-5.6,2.5-1,.9-4.1,6.4-4.2,7.6-.2,3.7,3.1,8.2,6.1,10,4.5,2.8,9.4-1.1,11.7-5.1,2.6-4.7,2.9-7.6-.5-11.9-2.2-2.7-3.9-3.5-7.4-3"/>
          <path id="Path_5797" d="M145.3,61c6.7-.7,15,7.3,14.8,14.1-.1,4.7-4.9,12.3-9.6,13.6-10.3,3-19.4-3.9-18.4-14.8.4-4.8,8.4-12.4,13.2-13M146.4,63.6c-3,.5-7.1,5.8-7.6,8.7-1.1,6.6,4.4,16,12.1,13.2,3.3-1.2,6.9-6.8,7.6-10.1,1-5.2-7.1-12.7-12.2-11.8"/>
          <path id="Path_5798" d="M31,59.2c5.8-7.1,11.7-10.5,19.7-4,7.2,5.9,7,12.8,1.7,20-5.6,7.4-17.5,6.4-22-1.5-3-5.1-3.1-9.9.6-14.5M44.8,54.7c-2,.3-7.7,3.7-9,5.4-2,2.9-2.1,8.7-.2,11.6,1,1.6,6.4,5.2,8.3,5.3,2.3-.3,4.6-1.2,6.5-2.7,1.4-1.4,4.4-7.3,4.5-9.2,0-3-3.1-7.3-5.6-8.8-.9-.5-3.5-1.8-4.5-1.6"/>
          <path id="Path_5799" d="M138.6,33.2c6.3-7.2,11.6-10.2,19.8-2.8,6.5,5.9,5.9,12.7.9,19.3-5.5,7.4-17.8,6.4-22.3-1.6-3.3-6-2.7-9.9,1.6-14.9M151.9,29c-3.8-.1-5.1,1-7.2,3.8-4.1,5.4-6.6,14.1,1.3,17.5,5.8,2.5,10.5.8,13.5-4.5,2.7-4.8,3.1-7.8-.4-12.2-1.2-1.5-5.2-4.4-7.1-4.5"/>
          <path id="Path_5800" d="M96.4,19.4c6.2-.2,14.4,8.1,14.1,14.4-.1,2.2-2.4,6.9-3.8,8.8-7.7,11-25.3,4.1-24.6-9.1.3-5.6,8.7-13.9,14.3-14.1M98.2,22c-6.6,0-12.5,11.1-9.4,17,1.1,2.1,5.9,5.8,8.2,6,2.5-.2,4.9-1,7-2.4,1.4-1.2,4.9-7.7,4.9-9.4,0-2.1-2.5-6.3-4-7.7-.9-.9-5.7-3.4-6.7-3.4"/>
          <path id="Path_5801" d="M93.4,55.9c5.6-.4,13.5,6.8,14.3,12.3.6,3.7-2,8.6-4.2,11.5-7.8,10.2-24.4,3.2-24.1-9.4.2-5.7,8.3-14,13.9-14.4M94.9,58.4c-12.3.4-14.4,19.8-.9,21.3,2.3.2,4.6,0,6.8-.5,1.6-.6,5-7.2,5.4-9,.9-4.8-6.7-11.8-11.3-11.7"/>
          <path id="Path_5802" d="M197.9,36.3c4.3-.7,7.4.9,10.6,3.6,7.1,6,6.5,12.7,1.3,19.7-8.8,11.8-27.8,1.4-23.7-12.3,1-3.4,8.1-10.4,11.8-11M201.3,38.5c-3.1.2-6.2,3.6-8,6-3.6,4.9-2.4,11.8,2.5,15.3.1,0,.2.2.4.2,3.5,2.4,8.4,1.5,11.6-1.2,1.3-1.2,4.6-7.2,4.8-8.9.2-2.4-2.4-6.5-4.1-8.1-1-1-5.8-3.5-7.1-3.4"/>
          <path id="Path_5803" d="M399.5,130c-5.9-5.9-4-19.3,3.5-22.9,5.5-2.7,16.1-.1,18.9,5.8,1.2,2.6,1.3,6.8,1,9.7-.9,11.4-15.6,15.2-23.4,7.4M408.9,108.2c-2.2.2-5.7.9-6.6,3.3-.5,2.9-.6,5.9-.5,8.8.5,2.1,4.2,6.1,6,7.2,2.7,1.7,5.2,1,8.3,1.5,3.5-2.8,5.2-5.5,5.1-10.1-.2-5.2-1.3-8-6.3-9.9-1.9-.8-3.9-1.1-6-.8"/>
          <path id="Path_5804" d="M361,122.9c6.1-1,15.1,1.1,17.3,7.6,2.4,7.1.7,14.3-5.7,18.4-8.4,5.4-21.5-1.5-20.3-11.8.6-4.9,2.8-13.2,8.6-14.2M361.6,125.1c-.5.3-3.2,5.6-3.4,6.4-.5,3.2,0,8.8,2.4,11.2,2.9,2.8,5.7,3.2,9.6,3.3,2.6,0,6.1-4.2,6.6-6.6.7-3.2.4-9.5-2.2-11.8-3.6-3.2-8.5-3.3-13-2.5"/>
          <path id="Path_5805" d="M418.1,144.2c7.4-1.2,16.6,2.6,17.4,10.8.7,6.9-.4,11.6-6.4,15.4-8.1,5.2-21.4-1.1-20.5-10.9.5-5.6,3-14.2,9.4-15.2M422.5,146.1c-.9,0-1.9.3-2.7.6-1.5,1.4-2.9,2.8-4.2,4.3-.5,1-1.3,7.2-1.2,8.4.4,4.7,6.1,8.2,10.1,9.7,5.9-2.4,9.4-5.9,9.1-12.6-.1-1.7-.4-3.4-.8-5.1-1.1-3.1-7.1-5.5-10.3-5.4"/>
          <path id="Path_5806" d="M347,175.9c3.3,3.6,3.4,11.7,1.8,16.1-.8,2.1-5.5,6-7.6,6.8-8.1,3-19.3-3.2-18.4-12.5.5-4.8,2.5-11.9,7.2-14.1,4.6-2.1,13.5,0,16.9,3.7M337.1,173.3c-1.4,0-4.5.3-5.5,1.2-4,3.7-3.8,11.9-1.4,16.5,1.3,2.4,7.5,4.9,10,4.6,2.5-.3,6.6-4.8,7.1-7.1.6-2.7.4-8.6-1.2-10.8-1.8-2.4-6.2-4.3-9.1-4.3"/>
          <path id="Path_5807" d="M375.4,158.6c6.3-1,15.1,2.1,16.9,8.8,1.9,7.3-.1,15.2-7.5,18.3-8.5,3.6-19.9-2.8-18.8-12.5.6-5.6,3-13.5,9.4-14.6M380.2,160.4c-12.6.5-13,24.8,2.8,22.3,2.7-.4,6.4-4.2,7.2-6.8.7-2.1.4-7.3,0-9.6-.7-3.2-7-6.1-10-6"/>
          <path id="Path_5808" d="M47,413.8c6.1-7.2,11.3-10.2,19.5-3.2,7,6.1,6.3,13.2.9,20-5.6,7.1-17.5,5.8-21.8-2.1-3.3-6-2.8-9.8,1.5-14.8M65.8,429.3c1.1-1,3.7-6.1,4-7.6.6-3-.4-5.1-2.2-7.4-2.5-3.2-7.9-6.2-11.9-4.5-1.4.6-4.9,5.6-5.4,7.1-2.2,6.6,5.2,14,11.8,13.6,1.3,0,2.6-.5,3.8-1.2"/>
          <path id="Path_5809" d="M97,403.2c-2.5,2.1-8.4,3.1-11.4,2.3-7-1.7-11.5-8.5-10.5-15.6.5-3.7,7.2-10.8,10.8-12.1,7.4-2.7,17,5.4,17.2,12.8,0,3.7-3.3,10.2-6,12.6M88.2,381.3c-1.2.3-2.4.7-3.6,1.2-.2.2-3.3,4.1-3.4,4.4-.4,1.9-.6,3.9-.7,5.9,0,1.2,2.6,5.6,3.5,6.5s5.3,3.4,6.9,3.3c4-.2,6.9-3.2,8.6-6.5,2.1-4,2.8-6.3.2-10.3-2.9-4.6-6.3-5.2-11.6-4.4"/>
          <path id="Path_5810" d="M33.4,380.6c7.3-1.2,16.6,7,15.9,14.4-.4,4.1-4.4,11-8.3,12.7-9.3,4-19.8-2.1-20-12.3,0-5.2,7.4-13.9,12.4-14.8M36.7,382.8c-2.2,0-4.3.7-6.1,1.9-1.7,1.4-4.5,6.3-4.4,8.4.4,9.9,14,16.8,19.6,6.3,2.1-3.9,2.8-6,.6-9.9-1.5-2.7-6.5-6.7-9.6-6.8"/>
          <path id="Path_5811" d="M101.1,322.8c5.1-.1,12.6,6.7,13.5,11.7.7,3.9-1.1,8-3.2,11.2-8.1,12-26.5,4.3-24.6-10.2.7-5,9.1-12.5,14.2-12.6M110.3,343.5c.7-.6,3-6.1,3.1-7.1.1-2.7-3.2-7.6-5.4-9-2.7-1.7-5.5-2.5-8.6-1.7-6.9,1.8-8.9,8.6-6.9,15,1.8,5.5,5.1,5.9,10.4,5.4,1.8-.2,6.2-1.5,7.4-2.7"/>
          <path id="Path_5812" d="M124.3,347.1c5.4-.2,13.1,6.6,14,12,.8,4.9-3.7,13.6-8.2,15.5-7,3.2-15.3.1-18.5-6.9-1.1-2.5-1.5-5.2-1.1-7.9.6-4.8,9-12.5,13.9-12.6M125.4,349.6c-11.2.2-14,17.4-4.2,21.3,6.3,2.5,10.7,1,13.8-5,2-3.9,2.6-5.9.3-9.8-1.7-3-6.4-6.5-9.9-6.4"/>
          <path id="Path_5813" d="M65.4,353.7c6.3-.7,14.9,7.4,14.8,13.7,0,2.9-2.3,7.6-4.1,9.9-8,10.3-24.5,3.4-24.3-9.2,0-5.4,8.2-13.9,13.5-14.5M66.2,356.3c-13.9,1.7-12.2,23.6,2.8,22,4.4-.5,6.1-2.4,7.9-6.1,1.8-3.7,2.6-5.6.4-9.5-1.9-3.4-7.2-6.9-11.1-6.4"/>
          <path id="Path_5814" d="M337.8,9.5c7.5-1.3,16.9,2.3,17.8,10.8.6,6.4-.4,11.1-5.8,14.8-8.4,5.8-22.1-.3-21.1-10.8.5-5.3,2.9-13.8,9.1-14.9M342.3,11.3c-4.1.4-6.5,4.2-7.2,7.9-.9,4.9-1,7.8,3,11.1,4.4,3.6,9.5,3.9,13.2-.7,2.7-3.3,2.9-9,1.5-13-1.1-3.3-7.4-5.7-10.6-5.3"/>
          <path id="Path_5815" d="M372.1,9.5c7.6-1.3,16.9,2.2,17.8,10.8.6,6.4-.5,11.3-5.9,15.1-8.3,5.7-22.1-.9-20.9-11.3.6-5.2,3-13.6,9-14.6M376.5,11.3c-2.7,0-5.7.5-7.2,3.1-1.7,2.9-1.6,9.7.1,12.6,3.3,5.5,12,8,16.4,2.4,2.5-3.2,2.6-9,1.4-12.8-1.2-3.6-7.3-5.4-10.6-5.3"/>
          <path id="Path_5816" d="M338.6,43c7.1-.3,15.3,2.3,16.5,10.2,1.1,6.9-.3,12.4-6.3,16.2-8.5,5.3-21.7-1.7-20.3-11.8.8-5.6,3.2-14.2,10.1-14.5M340.4,45.2c-2.7.3-4.2,1.5-5.7,3.9-3.1,5-2.1,11.6,2.9,14.9,4.5,3,9,4.7,13-.1,3-3.5,3.3-9.4,1.9-13.7-1.4-3.9-8.4-5.5-12-5"/>
          <path id="Path_5817" d="M371.7,43c6.4-1,15.9,1.9,17.2,9.1.7,3.7.7,9.7-1.5,12.9-4.4,6.3-13.1,7.9-19.5,3.5-1-.7-1.8-1.4-2.6-2.3-4.1-4.6-3-9.3-1.5-14.7,1.1-3.7,3.6-7.7,7.8-8.4M376.1,44.8c-3.8,0-6.5.8-8,4.5-1.7,4.2,0,12.5,3.7,15.4,1.3.9,2.7,1.8,4.1,2.5,4.2,1.5,10.5-4,11.2-8.1.3-1.9,0-7.4-.6-9.1-1.2-3.2-7.3-5.3-10.4-5.2"/>
          <path id="Path_5818" d="M218.6,357.7c7.1-1.2,16.7,2,17.7,10.1.9,7.1,0,11.5-5.9,15.8-6.6,4.7-17.6,1.1-20.2-6.6-1.2-3.5.3-9.9,1.8-13.3,1.1-2.5,3.8-5.5,6.6-5.9M223.4,359.6c-6.1.6-7.6,9.9-6.9,14.8.5,3.8,6.9,7.8,10.4,7.5,2.2-.2,6.2-4.4,7-6.5.9-2.4.6-8.9-.6-11.1-1.3-2.6-7.2-4.9-10-4.6"/>
          <path id="Path_5819" d="M232.2,319.1c6.9-1.1,16.4,2.2,17.4,10.1.9,7.1,0,12-6.3,16.1-7,4.4-17.4.6-19.9-7.1-1.1-3.4.5-9.8,1.9-13.1,1.2-2.7,3.9-5.4,7-5.9M237,320.9c-2.3.7-4.3,2-5.9,3.7-1.8,2.9-2.5,10-1,13s4.9,5,6.5,5.6c3.9,1.6,9.5-3.3,10.7-6.9.8-2.3.4-8.1-.4-10.4-1-2.7-7.2-5.4-9.9-5.1"/>
          <path id="Path_5820" d="M278.9,284.1c5.8-1,14.9,1.4,16.9,7.6,2.3,6.7,1,13.9-4.9,18.1-8.6,6-22.3-.5-21-11.4.6-5.2,3-13.2,9-14.2M283.3,286c-1.3.3-5.2,2.5-5.9,3.6-1.3,2-2.5,7.7-2,10,.9,4.2,8.1,9.1,12.2,8.4,2.1-.4,5.8-4.4,6.5-6.4.8-2.3.6-7.5,0-9.9-.9-3.4-7.6-6.3-10.8-5.6"/>
          <path id="Path_5821" d="M251.7,369.1c4.7-.8,12.2,1.2,15.2,5.2,1.8,2.4,2.4,7.4,2.2,10.3-.8,12.8-17.1,17-24.7,7-4.7-6.1-1-21.2,7.3-22.5M252.6,372.1c-3.3,2.8-6,8-5.1,12.4.8,3.8,7.7,10,11.6,9,2.6-.6,6.8-4.6,7.5-7.2.4-3.3.3-6.7-.4-10-1.2-3.8-10.5-7-13.7-4.3"/>
          <path id="Path_5822" d="M263.1,327.9c7.5-1.4,17.3,1.9,18.1,10.4.7,6.7,0,11.3-5.8,15.2-6.9,4.7-17.6,1.6-20.4-6.4-1.5-4.2.8-13.9,4.1-17,1.1-1,2.5-1.8,4-2.3M262.9,348.7c1,1,6.6,3.1,8.2,3.1,3.9-.2,8-5.3,8.3-9,.2-1.9-.2-6.5-1-8.2-1.3-2.6-5.9-4.7-8.7-4.9-2.5-.2-6.2.1-7.9,2.1-2.3,2.8-2.5,9.9-1.1,13.1.2.4,2,3.7,2.2,3.9"/>
          <path id="Path_5823" d="M261.2,298.2c-6.6,6.9-18.6,6.2-22.9-2.8-2.2-4.8,0-15.5,4.4-18.8,4.9-3.7,15.7-1.4,19.3,3.5,3,4.2,2.8,14.3-.9,18.1M251,276.8c-3.4.1-4.9,1.5-6.7,4.4-2.1,3.3-3.2,7.4-1.5,11,3,6.4,9.7,9.9,15.7,4.6,4-3.6,4.5-8.4,3.2-13.5-1-4.2-6.7-6.6-10.6-6.4"/>
          <path id="Path_5824" d="M382,230.4c5.4,4.8,8.1,12.6,3.6,19-5.2,7.4-16.8,8.7-21.9.6-5.1-8.1-6.5-14.9,2.8-20.4,5.3-3.1,10.7-3.4,15.5.8M373.6,228.9c-7.7.8-11.8,12.7-5.8,18.1,3.9,3.5,7.6,3.5,12.1,1.5,1.1-.5,2.3-1.1,3.4-1.8,1.9-1.7,1.9-7.4,1.2-9.7-.8-2.5-6.1-7.9-8.8-8.2-.7,0-1.4,0-2.1,0"/>
          <path id="Path_5825" d="M407.1,310.3c5.6-.5,10.4,3.9,13,8.5,4.1,7.1-.5,17.5-8.5,19.2-10.4,2.3-18.1-5.1-18.1-15.5,0-6.5,7.6-11.6,13.6-12.2M405.9,312.1c-4.1.6-5.5,4.5-6.1,8.2-.5,3.4-.7,6.3,1.4,9.2.9,1.2,4.7,4.4,6.1,4.6,4.6.6,8.5-.7,10.3-5.2,2-4.9,1.6-8.5-1.8-12.5-3-3.5-5.1-5.1-9.9-4.3"/>
          <path id="Path_5826" d="M388.3,270.9c6-.9,9.7,1.6,13.1,6.2,4.8,6.4,3.4,14-2.5,19.1-4,3.4-12.5,3.5-16.6,0-1.5-1.3-5.7-9.3-6-11.3-1.1-7,5.5-13,12-14M389,272.3c-1.1.2-5,1.7-5.6,2.5-3.4,4.8-2.1,14,3,17.2,8.6,5.5,15.8,0,14.9-9.7-.3-3.2-4.3-8-7-9.5-1.4-.8-3.7-.7-5.2-.5"/>
        </g>
      </g>
    </g>
  </g>
</svg>