<?xml version="1.0" encoding="UTF-8"?>
<svg id="Layer_2" xmlns="http://www.w3.org/2000/svg" version="1.1" viewBox="0 0 126.1 199.2">
  <!-- Generator: Adobe Illustrator 29.6.1, SVG Export Plug-In . SVG Version: 2.1.1 Build 9)  -->
  <defs>
    <style>
      .st0 {
        fill: #fff;
      }
    </style>
  </defs>
  <g id="Layer_1-2">
    <g>
      <g>
        <path d="M114.6,28.3c.6.5,1.8,1.1,2.5,1.7.6.4,1,1,1.4,1.4,0,0,.3,0,.4,0,.5.6-2.6,7.1-3,8.1-2.1,6.3-3.9,11.5-6.7,17.5-2.5,5.4-5.6,10.7-9.2,15.4,0,.9-.1,1.8-.2,2.7-.5,8.9-.8,17.9-1.7,26.8-.3,2.8-1,5.8-1.2,8.7-.1,1.5-.1,3.2-.2,4.7l2.4.5c1-2.1,2.4-1.4,3.1.4.3.9.3,2.1.6,2.9.1.4.7,1.1.9,1.5.6,1.2,1.1,2.4,1.7,3.6,2.6-1.9,5.8-2.5,8.4-.4,2.1,1.7,2.3,4.7,1.8,7.2-.2,1.2-1,2.2-.7,3.6.7.4,1.5,1,2.2,1.5,1.1.9,2.5,2,3.4,3.1.6.7,1.9,3.1,2.2,3.3.2.1.4,0,.7,0,.7.3,2.5,1.1,2.7,1.9.2.6-.3,1.5-.4,2.1-1.4,8-2.7,16.1-3.5,24.2-.5,4.5-.3,12.3-2.9,16-2,2.9-5.7,3.7-8.8,5-9.1,3.8-17.8,6.6-27.8,7.1-8.2.4-25.9-.7-33.1-4.4-.4-.2-2.2-1.2-2.5-1.5-.9-.9-1.7-3.3-2.6-4.3l-12.6-38.9c-.4-1.3,1.3-1.6,1.9-2.2.2-.3.7-1.8,1.1-2.4.5-.7,1.3-1.3,1.8-2.1-1.9-1.1-3.2-2.7-3-5,.2-2,2.2-2.6,3.3-3.9-.1-.1-.2-.3-.4-.3-.9-.3-2.8-.3-3.9-.5-4-.8-5.5-2.1-8.5-4.7-6.1-5.2-9-11.2-13-17.9-1.1-1.8-2.4-3.5-3.4-5.4-2.8-4.8-5.2-9.8-7.7-14.8-.2-.7.3-.5.6-.8,2.4-2,2.4-3,3.9-5.5.9-1.5,2.1-2.7,3.2-4.1-.5-3.7-.4-7.6.4-11.3,1.3-5.9,4.2-9.4,10.6-6.9,1,.4,2,1.2,3,1.3.2-.2-2-2.8-2.1-3.3,0-.6.4-2,1-2.3,1.5-1,2.8.8,3.8,1.7,1.6-1.2,3.4-2,5.4-1.8,1,0,1.9.5,2.8.7-.5-4.4-1.5-8.8-1.8-13.3-.2-2.6-.1-5.4-.3-8-.2-3.6-.7-7.3-.8-10.9,0-.4-.2-.7-.2-1,0-.7.9-.9,1.3-1.3.8-.8,1.5-1.7,2.3-2.5.9-.8,1.9-1.5,2.9-2.3-.5-1.1-.8-2.4-.9-3.6,0-2.7.3-6.1,2.8-7.7,2.7-1.7,4.7-1.4,7.4-2.3,1.1-.4,2.2-1.2,3.2-1.6,2.7-1.2,6.4-1.8,9.3-2.1,0-1.3.5-2,1.9-1.8,1.1.2,1.7,1.7,2.4,2.4,3.8.2,7.3,1.3,11.2,1.1,1.1,0,2.2-.3,3.3-.3.4-.1.3-1.4,1.5-1.5,1.1,0,1.4.8,2.1.9,1.1.2,2.7-.2,3.9-.2,3.8.2,12.5,3.7,15.7,6,1.1.8,2.1,1.5,3.2,2.3,2.4,1.7,3.8,2.6,5.6,5,1.5,2,2,5,.5,7.1,1.3,1,2.7,2.2,3.7,3.4.5.5,1,1.7,1.5,2.1h0ZM63,8.5c.9-.5-1.1-4.8-1.5-5.5-.6-.9-2.6-3.3-2-.7.3,1.1,1,3,1.6,4,.3.6,1.2,2.7,2,2.1h0ZM84.4,12.5c.5-.5-1-3.6-1.4-4.1-.5-.8-2.8-4.2-3.3-4.7-.6-.6-1.2-.5-1.1.4.2,1.4,3.7,7.2,4.8,8.1.3.2.5.4.9.4ZM64.1,4.6c.2,1.5,1.1,3.7-.4,4.9-.9.7-2,.5-2.8-.2-.4-1.1-1.1-2.1-1.6-3.1-.2-.5-.8-2.3-1-2.5-.5-.6-4.3.3-5.2.6-2.7.8-4.5,2.5-7.4,3-1.3.3-2.6.2-4,.7-3.6,1.2-4.8,2.6-5,6.4-.4,7.7,6.4,6.8,11.9,5.5,1.8-.4,4-1.5,5.8-1.6s4,.4,5.4-.2c1.2-.5,1.9-1.5,3.4-1.6,2,0,4.2,2.9,6.8,3.3s6.4-1,8.8-.2c2.2.7,3.7,3.8,6.4,3,2.3-.7,2.9-2.2,6-2,4.3.4,8.7,2.8,13.2,1.2,2.2-.7,3.3-2.9,1.8-4.9-.8-1.1-3.4-3.3-4.6-4.2-1.3-1.1-2.9-1.9-4.2-3-.4,0-.5,1.1-.7,1.4-.3.7-.9,1.7-1.4,2.4-.8,1.3-3.1,5.3-5,3.7-1-.9-.3-3.2.1-4.2.7-1.9,2.2-3.7,3.2-5.4,0-.4-5.7-2.4-6.5-2.5-.7,0-1.4,0-2.1,0-1.1,0-2.2-.4-3.3-.3l2.4,3.5c.7,1.3,2.5,5.2.3,5.8-1.9.5-3.4-2.1-4.3-3.4-1.1-1.7-2-3.5-3-5.3-4.5,0-9,.4-13.5-.5h0ZM95.7,8.2c-.7-.5-2.8,2.8-3.1,3.3-.6,1-1.4,2.9-1.3,4,0,.2,0,.4.2.5.8,0,2.9-3.5,3.3-4.2.6-1.1,1.3-2.3.8-3.6h0ZM103.3,34.2c.7,3,3.7,3.3,6,1.8.8-.5,2.1-2.3,2.7-2.5.7-.2.9.5,1.4.8.9.5,1.6.2,2.2-.5-.8-2-1.4-4.3-2.8-6.1-1.2-1.7-3.2-2.5-4.7-3.9-.8,0-1.7.3-2.6.4-1.7.2-5.2.6-6.8.2-3-.6-6.3-2.7-9.6-1.6-2,.7-3.6,1.7-5.9,1.3-1.3-.2-2.5-1.8-3.7-2.4-3.1-1.4-7.4.7-10.7-.3-2.4-.7-3.6-3.7-6.5-3.1-.6.1-1,.6-1.5.8-2.6,1-5,.2-7.6.7-1.7.4-3.3,1.4-5,1.8-2.6.7-6.5.6-9.1,0-1.2-.3-1.7-.5-2.5-1.4-1.3,1-3.4,2.3-4.1,3.9-.6,1.4-1.1,2.9.7,3.4,1.2.4,2,.2,3-.4.6-.4,2.4-2.5,3-2.2.2,0,1.1,2.6,1.4,3.1,2.2,3.7,5.9,2.9,9,1,.6-.4,2.3-2,2.9-1.8.1,0,1,2,1.3,2.5,2.6,3.4,6.6,3.9,10.1,1.4.5-.4,1.6-1.6,2.2-1.5,1,.2,1.2,1.7,1.8,2.5,1.8,2.6,5.3,3.3,8.2,2.1,1-.4,3.6-2.7,4-2.7.8,0,1.2,1.3,1.5,1.8,1.7,2.5,5.2,3.3,7.9,2.1.7-.3,2.4-1.8,3-1.7.5.5.6,1.1.9,1.7,1.2,2,4.6,1.7,6.4.7,1.2-.7,1.9-2.1,3.4-1.9h0ZM41.9,58.3l-3.7-31-.3-.2c-1.6,1.8-4.4,2.6-6.4,1.1l.5,6.7c-.1,4.2.3,8.4.8,12.6.7,5.5,1,11.3,5.7,14.9,8.3,6.4,25,8.6,35.3,9,7,.3,17.6,0,24.4-1.7,2.6-.7,3.6-3.9,5-5.9.6-.9,1.4-1.7,2-2.5,4.7-6.7,6.5-13.3,9-20.9.2-.7,1.9-4.7,1.9-5,0-.4-.9.2-1.2.2-1,.2-1.6-.2-2.5-.5-.2,1.3-.6,2.8-1.1,4-2.2,6.6-5,13-8.5,19-.5.9-1.1,1.8-1.6,2.6,0-.4.2-.9.3-1.3.8-2.2,2-4.3,2.9-6.5,2.1-4.9,3.3-10.1,4.7-15.2,0-.2,0-.3-.2-.2-.4,0-.9.4-1.5.4-1,.1-1.9,0-2.8-.5-.3-.1-1.4-1-1.5-.9-1.3,4.2-2.3,8.5-3.6,12.7-1.2,3.8-2.6,7.8-4,11.5-.4,1.1-.9,2.5-1.6,3.4l7.4-27.6c-.8.3-1.4.9-2.3,1.1-1.5.4-3.3.3-4.7-.3-.6-.2-1-.7-1.6-.9-1.4,6.3-4.1,12.1-6.2,18.2l-1.8,3.7,5.9-22.3c-3.4,1.5-7.3.8-9.7-2.1l-6.1,23.8c0-.9,0-1.8.2-2.6.7-5.5,2-10.8,2.9-16.2.3-1.7.6-3.4.9-5.1-3.2,2.3-6.6,2.7-9.9.4-1.1-.8-1.6-1.5-2.4-2.5,0,3.6-.5,7.2-1.1,10.8-.9,5.8-2.1,12.4-3.7,17.9,0,.2,0,.3-.3.2-.4-3.1.5-6.3.9-9.3.6-4.4,1.3-8.7,2-13.1.3-2.1.3-4.3.8-6.4-3.9,3.2-9,2.2-12-1.7,0,2.4,0,4.8-.2,7.2,0,3.6.3,10.6-.5,13.8,0,.2.2.4-.3.4.2-1.8-.3-3.5-.5-5.2-.3-3.9-.3-7.9-.5-11.8,0-1.7,0-3.4,0-5.1-3.2,2.3-7.6,3.6-10.6.3l1.5,28.5h0ZM24.7,61.8c0,0-.4,0-.6-.3-.4-.4-.6-1.1-1-1.5-.3-.3-1.8-1.6-2-.8,0,.3.1,1.4.2,1.7,0,.2,1.6,2.3,1.9,2.7.7.9,3.1,3.6,4,3.9.5.2,1,.2,1-.5,0-1.2-2.6-4.3-3.5-5.2h0ZM33.1,60.4c-.2-.3-2.4-1-2.8-1-1.8-.3-3.2.2-4.7,1.2,0,.1,0,.3,0,.4.4.7,1.6,1.9,2.2,2.7.8,1.1,2.6,3.6,1.1,4.7-2.1,1.7-5-2.4-6.2-3.7-1.7,1.1-3.4-.6-5-1.2-2.9-1.1-5.2-.8-6.8,2.1-2.1,3.9-2.5,12.1-1.3,16.3.4,1.4,1,1.2,2.4,1.2,2.7-.7,5.1-.8,7.5-2.3,2.6-1.7,3.9-3.8,7.4-4.3,4.5-.6,7.5,2.6,12,1.7,4.5-.8,7.2-4.2,12.2-4,2.3,0,4.7,1,7,1.3,3.2.4,6.6-.3,9.4-1.8v-.3c-3.5-.3-6.9-1.1-10.3-1.6-3.3-.6-6.3-.8-9.6-1.6-.7-.2-1.5-.5-2.2-.7-.8,1.6-1.6,5.5-3.7,5.9-1,.2-2-.8-2.2-1.7,0-.7,0-2.2,0-2.9,0-.7.7-3.1.5-3.4l-4.3-2.6c.5,2.1-1.1,4.6-2.1,6.3-.8,1.4-1.9,3.3-3.7,3.4-.7,0-2.1-.8-2-1.5,0-.6,1.3-2.8,1.7-3.5,1.1-2,2.9-5.5,5.5-5.3-.5-.6-1.2-1.5-1.6-2.1-.2-.4-.4-1.4-.6-1.6h0ZM34.3,65.4c-1.2.2-2.9,3.2-3.5,4.3-.3.5-1.4,2.6-1.3,3,.2.8,1.2.1,1.6-.2.9-.8,3.4-5.4,3.6-6.5,0-.4,0-.7-.4-.6h0ZM44.2,69.1l-2.9-1.1c-.1,1.1-1.1,5.6,0,6.2.5.3,1.3-1,1.5-1.3.3-.5,1.5-3.5,1.3-3.7h0ZM88.6,74c-2.9.3-5.8,0-8.7,0-1.2,0-2.4.3-3.6.2l-5.6-.4c-3.5,2.5-7,3.6-11.4,3.3-3.7-.3-7.9-2.3-11.3-1-5.3,1.9-7.5,4.1-13.8,3.4-2.5-.3-3.9-1.7-6.4-1.5-.5,0-1.5.2-2,.3-.9.3-2.6,2.2-3.7,3-2.5,1.7-4.5,1.9-7.3,2.5-.6.1-1.1.5-1.8.6-1.9.4-4.1.2-4.8-1.9-2.2,2.3-3.5,5.4-3.4,8.7.2.7,2.6,0,3.2-.3,1.5-.6,2.2-1.6,3.3-2.3.9-.5,1.3.5,2.1.9,2.2,1.3,4.5.8,6.5-.7.6-.4,2.5-2.4,2.8-2.5.5,0,1.8,1.2,2.4,1.6,2.5,1.4,5.1,1.3,7.5-.2.7-.4,1.8-1.7,2.4-1.8.8-.2,1.2.4,1.8.6,1.8.7,4.3.4,5.8-.7.6-.4,1.7-2,2-2.1.6-.2,2.6.9,3.4,1,3.3.4,6.4-.9,8.9-3,.7.2,1.2.8,1.8,1.1,1.6.8,3.8.8,5.4,0,1.9-.9,2.5-2.1,2.9-4.1.2-.2,1.8.7,2.2.9,3.1,1.1,6.8.3,8.5-2.6.2-.4.4-1.4.9-1.4,1.8,1.6,3.7,2.7,6.2,2.1,1.6-.4,3.3-2,3.8-3.6h0ZM98.2,74.2c-1.8.5-4.4,1.3-6.2,1-.6,0-1-.4-1.5-.5.3,1.8.6,3.6.8,5.4.9,8.9,1.7,20,1.2,28.8,0,.4,0,.8-.2,1.1-.3-.2-.4-1-.4-1.3-.8-5.4-.6-11.7-.9-17.3-.3-5.3-.9-10.7-1.2-16.1l-.3-.2c-1.9,3.5-5.7,5-9.2,3,.5,3.1.2,6.2.3,9.3.2,6.3.9,12.6,1.2,19,.2,3.5.8,7.5.8,10.9,0,.8-.3,1.7-.3,2.5-.3-.2-.5-1.1-.6-1.5-.4-2.7-.3-6-.5-8.8-.3-6.1-.6-12.3-1.4-18.5-.5-4.2-1.6-8.3-1.8-12.5-2.2,2.4-5.4,3.2-8.5,2.3.2,1.6.4,3.3.6,4.9,1,9.8,3.5,19.3,4.7,29,.1,1.1.2,2.2.2,3.4-.6-.5-.8-1.6-1-2.4-1-4.1-1.4-8.5-2.2-12.6-.7-3.5-1.9-6.9-2.6-10.4s-1-7.1-1.9-10.6c-2.3,2.7-5.1,3.3-8.5,2.4l5.5,26.4-8-26.8c-.1,0-1.4.8-1.7.9-2.4,1.1-5.1,1.3-7.7.7l8.9,32.8c-.4.4-1.4-2.2-1.5-2.3-1.8-4.6-3-9.9-4.5-14.6-1.6-5-3.8-9.9-5-15.1l-2,1.3c-1.8.9-3.9,1.1-5.8.4l11.5,35c-.3.3-.9-1.1-1-1.2-2.5-5.9-3.6-12.4-6.8-18l-6.1-15.6c-.3-.4-1.2.5-1.5.7-2.8,1.5-5.5,1.5-8.4.2.4,1.1,1,2.2,1.4,3.3,1.9,5.1,3.3,10.3,5.2,15.4,1.9,5.1,4.7,11.4,7.1,16.4.3.6,2.2,3.5,1.8,3.9-.3,0-.4-.1-.5-.3-.6-.6-2.5-4.3-2.9-5.2-3.8-7.7-6.7-16.2-10.1-24.1-1.4-3.2-3.1-6.3-4.3-9.6l-2.5,1.7c-1.3.7-2.6,1.1-4.1,1-.8,0-1.6-.5-2.3-.5l10.8,24.3c-.4,0-.3-.1-.4-.3-3.8-5.1-6.7-11-9.5-16.8-1.2-2.5-2.4-5-3.5-7.5-1.9,1.2-3.5,1.9-5.8,1.7-.9,0-1.7-.5-2.5-.5,1.8,3.1,3.1,6.3,4.9,9.4,3.6,6.2,7.6,12.3,11.3,18.4,3.3,3.4,6.6,7.1,10.3,10,1,.8,2.6,1.8,4,1.8,2.1,0,5.4-.4,7.6-.6,6.4-.6,13.2-1.6,19.5-2.6,10.4-1.5,18.5-5.2,27.6-10.1,1.3-.7,5.6-3.1,6.2-4.1.4-.8.8-2.8.9-3.8.4-2.4.6-4.8,1-7.2,1.4-8.7,3.3-18.9,2.9-27.6,0-.5-.2-.9-.2-1.4h0ZM100.4,115.7c0,.2-.1.5-.1.7,0,1.6-.2,3.1,0,4.8,0,.5.3,2.8,1,2.7.2-.1.3-.3.3-.6.3-.7,0-4.1-.1-5.1,0-.8-.2-2.3-1.1-2.5h0ZM102.9,122.1c0,1-.2,2.7-1.4,2.7-1.6.1-1.9-1.9-2.2-3.2-.2-1.4-.3-2.8-.3-4.1-2.7-1.5-5.1.8-7.3,2.1-.2,1.6-.8,3.2-1.3,4.7s-2.3,5.7-4.4,5.4c-1.8-.3-1.4-3.1-1.1-4.4.2-.8.8-1.7,1-2.4,0-.2,0-.3-.2-.2-1.2.4-2.7,1.2-3.9,1.7-6.1,2.2-12.7,4.6-18.9,6.3-2.4.6-4.9.9-7.3,1.4,0,.2.2.2.3.2,1.8.7,7.3,2.2,7.7,4.4.4,2.3-2.1,1.9-3.5,1.5-2.7-.7-5.4-2.2-8.1-2.9-.9-.6-1-1.6-.7-2.6l-8,.6c.8.9,2,3.3.9,4.3-1.5,1.4-4.4-1.2-5.7-2-1.6,1-3.9,2.6-2.4,4.8,1.8,2.6,7.9,1.1,10.6,1.2,2,.1,3.9.6,6.1.5,2.5-.2,4.5-1.6,6.8-2.3,4.5-1.4,8.5.4,12.5,2.2,3.3,1.4,3.8,2.8,7.8,1.7,4.3-1.2,8.6-5,12.9-5.3,4.5-.3,6,4.3,10.7,2.2,2.3-1,3.2-2.3,6-2.8.8-.1,1.4.1,2.2-.3,1.3-.8.8-1.9,1-3.1.2-1.7,1.5-3.8,1.5-5.2,0-.7-1-3-1.4-3.6-.6-.9-1.7-1.3-2.7-1.2-1.4,0-3.3,1.5-4.6,1.9-.2,0-.6.2-.8,0-.2-.1-1.1-3.1-1.3-3.6-.1-.3-.3-.8-.5-.9h0ZM90.6,120.6l-3.5,1.8c-.6,1.8-1.8,3.7-1.5,5.6.3,1.9,1.9-.3,2.4-.9,1.2-1.9,1.8-4.3,2.6-6.4ZM62.5,137.6c.5-.8-2.5-2.4-3.1-2.7-1.5-.7-5.3-2.4-6.8-1.6-.6.3-.7.7-.2,1.2.7.7,6.8,2.6,8.1,2.9.4,0,1.8.5,2,.1h0ZM43.3,136.4c-.1-1.2-1.5-1.6-1.8-2.8-.2-.1-2.3-.1-2.7,0-.4,0-.8.3-.3.7,1.3,1,3.1,2.3,4.8,2.2ZM55.4,153.4c1.4,2.5,3,3.5,5.8,2.2.7-.3,2.6-2,3-1.9.4,0,1.7,1.9,3.2,2.1,2.6.3,3.4-1.3,5.2-2.5,1.3-.9,1.3,0,2.3.7,2.8,2,6.1,2.2,9,.2.5-.4,2-2.2,2.2-2.2.8-.3,1.8.7,2.5,1.1,3.1,1.5,5.7,1.1,8.1-1.4.3-.3.6-1.1.9-1.2.6-.2.7.3,1.2.5,2,.9,3.9,1.5,5.8,0,.5-.4,1.1-1.3,1.5-1.4.4,0,1.4.5,2,.6,2.2.4,4.7-.4,6.3-2,.6-.6,1.3-2.3,2.1-2.5.6-.1,2.1.4,2.8.4.3,0,1.7,0,1.8-.2-1.5-3.4-3.1-6.7-6.1-9-.7,1.1-1.8,2.3-3.2,2.5-.5,0-1.1,0-1.6,0-3.1.4-5.6,4-9.1,3.8-2.6-.2-4.7-2.7-7.2-2.7-5,0-8.9,4.1-13.4,5.2-3.2.8-4.8.6-7.8-.8-2.7-1.2-4.9-3.4-8.2-3.5-5.1-.1-8.6,3.4-14.4,2.7-1-.1-2-.8-3-.8s-1.7.3-2.4.3c-1.4,0-2.7,0-4.1,0-1.8,0-1.8-.3-3,1.1-1.1,1.2-2,2.8-2.5,4.4-.1.4-.5,1.6-.2,1.9.7.6,3.5.4,4.5.2.3.6,1.2,1.9,1.8,2.4,1.1.7,3.2.8,4.4.3.6-.2,1-1,1.7-1,.8,0,1.5,1.2,2.2,1.6,1.2.7,2.7.7,3.9,0,.7-.4,1.2-1.4,2.1-1.2h0ZM34.6,152.9c.9,3.3,2.1,6.6,3.1,9.9,2.1,6.6,4.4,13.3,6.6,19.9,1,2.9,1.7,7.5,4,9.4,1.9,1.6,6.7,2.4,9.2,2.9,10.7,2.1,23.7,2.8,34.3.3,7.6-1.8,17.2-5.1,23.9-9.1,2.1-1.3,3-2.2,3.4-4.8,1.1-8.1,2.1-16.2,3.2-24.2.5-3.5,1.2-7,1.7-10.6-2.2.9-4.3.9-6.5.3,0,1.7,0,3.5-.2,5.2-.3,3.2-.6,6.4-.9,9.6-.6,6.3-1.5,12.5-2.1,18.7-.3,0-.2-.3-.3-.5-.4-1.4,0-2.8,0-4.1.2-7.4,1.1-14.9,1.4-22.3,0-1.5,0-3,0-4.5-.8.3-1.2.9-2,1.3-1.9,1.1-3.7,1.1-5.9.8l-2,34.4-.5-3.9c.5-7.8.7-15.7.6-23.5,0-2.1,0-4.3,0-6.4,0-.1-1,.6-1.2.7-1.6.8-3.8.7-5.3-.3l-.5,6.9c0,6.2.4,12.4-.3,18.5-.3,3-1,6.1-1.2,9.2l.3-34.1c-1.9,1.9-4.2,2.9-7,2.2-1-.2-1.8-.9-2.7-1.1l.3,30.8c-.2.3-.3,0-.3-.2-.6-4.7-.6-9.5-.9-14.2l-1.1-15.4c-1.1.4-2,1.2-3.1,1.7-2.7,1.1-5.8.9-8.3-.6l1.7,28.5-1.3-5.3c-.9-6.4-1.6-12.8-2.2-19.2,0-.6-.1-4.3-.3-4.5-2.2,1.8-4.8,2.6-7.3.8,0,6.6,1,13.1,1.7,19.6.5,4.6,1.1,9.1,1.3,13.7,0,.4,0,.8,0,1.1l-5-34.7c-1.9,1.3-3.8,1.8-6.1,1.5l-1.3-.7c1.2,9.2,4.2,17.9,6.1,26.9.2.8.5,1.9.5,2.7,0,.2.1.6-.2.5-2.6-7.4-4.2-15-6.1-22.6-.4-1.5-1-3-1.3-4.6-.3-1.3-.5-2.6-.8-3.9-.2-.3-1,.3-1.3.4-1.4.3-2.5.3-3.9,0,.1,1.9.3,4,.7,5.9,1.2,6.4,3.4,12.9,4.7,19.4.3,1.4.6,2.9.8,4.4,0,.3,0,.2-.3.2l-7.9-30.6c-.6,0-1,.4-1.6.6-2.3.6-4.3,0-5.9-1.8.4,1.3.7,2.7,1.2,4.1,1.6,5.1,3.3,9.8,5.3,14.8,1.5,3.8,2.8,8.9,3.7,12.9,0,.1.2.5-.1.5-.8-2-1.5-4.1-2.3-6.1-3-8.4-6.2-16.7-8.8-25.1-.2-.6-.4-1.3-.4-1.9-1,.2-2,.5-3,.1h0Z"/>
        <path d="M33.7,124.7c0,.4,0,.3-.4.3-.5,0-1.5-.3-2.1-.5-2.9-.8-5.7-1.8-8.5-2.8.2-.3.3-.2.6-.2.9,0,2.3.5,3.2.7,2.4.7,4.8,1.5,7.1,2.4h0Z"/>
        <path d="M90.3,106.8c-.2.2-1.1-.9-1.3-1.1-1.5-1.6-2.8-3.4-4.2-5.2.3,0,.4,0,.6.2.7.5,2.2,2.1,2.8,2.8.8.9,1.6,2,2,3.2h0Z"/>
        <path d="M88.8,114.1c-.3,0-.6-.1-.8-.3-.6-.4-1.9-1.9-2.5-2.5-.2-.2-1.7-1.9-1.5-2.1.5,0,.9.4,1.3.8.8.7,2.3,2.2,2.9,3,.1.2.7,1,.6,1.1h0Z"/>
        <path d="M89.5,111c-.2.2-1-.8-1.1-.9-1.5-1.6-2.9-3.7-4.3-5.5.3-.3,2.4,2.1,2.7,2.4.3.4,3.1,3.7,2.8,3.9h0Z"/>
        <path d="M33.3,121.1c-.5.2-1,0-1.5-.2-1.5-.4-3.4-.8-4.9-1.3-.2,0-.5,0-.5-.3,1.9,0,4,.4,5.8.9.5.2,1.2.3,1.2.9h0Z"/>
        <path d="M33.1,127.3v.3c0,0-8.2-2.5-8.2-2.5l-.3-.4c2.9.4,5.8,1.4,8.5,2.6Z"/>
        <path d="M32.4,118c-1.3,0-2.9-.4-4.2-.9-.2,0-.4,0-.3-.3,1.5,0,3.5.1,4.5,1.2Z"/>
        <path d="M105.6,188.5c-.3,0-.4,0-.6-.2-.8-.4-4-3.9-4.7-4.7-.1-.2-.4-.2-.3-.5.3,0,.4,0,.7.2,1.1.5,3.6,3.1,4.3,4.1.1.2.8,1,.6,1.1h0Z"/>
        <path d="M112.7,183.7c-.4,0-.4,0-.6-.2-.9-.8-2.5-3.2-3.1-4.3-.2-.4-.6-.8-.5-1.2.2-.2.8.6.9.7,1.3,1.4,2.6,3.3,3.3,5.1Z"/>
        <path d="M103.2,190.5c-.4.4-2.7-1.8-3-2.2-.1-.2-.4-.2-.3-.5.3,0,.4,0,.7.1.3.1,3,2.3,2.6,2.6Z"/>
        <path d="M110.7,185.2c-.3.2-1-.6-1.1-.8-.3-.3-2-2.3-1.7-2.6.4,0,.6.2.8.4s2.3,2.7,2,2.9h0Z"/>
        <path d="M111.5,177.2c-.2.2-.8-.6-.9-.7-.7-.8-1.4-2.1-1.7-3.1.6.2,2.9,3.4,2.6,3.8h0Z"/>
        <path d="M110.7,173.5c-.3,0-.5-.4-.6-.7-.2-.4-.4-.7-.4-1.2.5.4,1,1.1,1.1,1.8Z"/>
        <path d="M54.2,63l-3.8-2.5c-1.2-1.1-2.8-2-4-3.2-.2-.2-.5-.4-.5-.7,0,0,8.2,6.4,8.2,6.4Z"/>
        <path d="M52.2,57.5l-6.5-4.8c1.8.5,3.8,1.8,5.2,3.1.3.2,1.6,1.4,1.4,1.8h0Z"/>
        <path d="M49.3,52.2c-1.8-1.3-3.6-2.6-5.2-4.2.7.3,1.4.8,2,1.2.7.5,2.1,1.5,2.7,2,.2.3.5.6.5,1h0Z"/>
        <path d="M48,47.3c-.3,0-.4,0-.6-.2-.8-.6-2.1-1.6-2.9-2.3-.2-.2-.4-.2-.3-.5,1.4.6,3.2,1.5,3.8,3h0Z"/>
        <path d="M95.7,124.7c1.3-.2,2.3.4,2.3,1.7s-1.9,4.1-2.6,5.2c-.8,1.2-2.5,3.9-4.3,3.1-1.2-.5-.7-2.2-.4-3.2.5-1.3,2.3-4.3,3.1-5.5.4-.5,1.2-1.2,1.8-1.3h0ZM96.6,126.1c-.9-.9-2.5,2-2.9,2.6-.6.9-2.2,3.4-2.2,4.5s1.4-.1,1.8-.5c.8-.8,3.5-4.9,3.6-5.8,0-.2,0-.5-.2-.6h0Z"/>
        <path d="M110.2,129.7c.2.2.5,1,.5,1.2,0,2.5-5.7,7-8.1,7-.8,0-1.6-.7-1.6-1.6,0-2,3.3-4.7,5-5.7.5-.3,2.1-1.2,2.6-1.3s1.3-.1,1.6.3ZM109.3,130.6c-.5-.5-1.8.4-2.4.7-1.3.8-4.2,3.1-4.6,4.5-.5,1.6,1.5.6,2.2.2,1.3-.6,4.8-3.3,4.9-4.8,0-.2,0-.5-.2-.6h0Z"/>
        <path d="M75.4,129.6c1-.2,1.6.8,1.8,1.6.4,1.6.2,6.1-.2,7.8-.5,2-2.1,2-2.8.1-.5-1.4-.9-5.4-.7-6.9.2-1,.6-2.5,1.8-2.6h0ZM75.9,130.8c-.7-.1-.9.6-1,1.2-.2,1,0,4.9.3,6,0,.4.2,1,.5,1.3.2,0,.3-1.1.4-1.3,0-.5.2-1.3.2-1.8,0-.8,0-5.1-.3-5.4Z"/>
        <path d="M45.8,8.1c1.4-.1,6.9,1.3,8.4,1.9,1,.4,2.4,1.2,2.8,2.2s-.2,1.7-1.1,1.8c-1.1.2-4.4-.4-5.7-.6-1.6-.3-4.8-1.1-5.6-2.6-.6-1.3-.6-2.4,1.2-2.6h0ZM55.9,12.8c.3-.2-.8-1.1-1-1.2-1.3-.8-6.8-2.2-8.3-2.3-.7,0-1.2,0-.8.9.6,1.3,4.2,1.9,5.5,2.1.6.1,4.5.7,4.7.5h0Z"/>
        <path d="M70.2,15c-.5-.5-.4-1.4-.2-2,.3-1.1,2.9-4.2,4-4.7.8-.4,1.8-.6,2.5,0,1.1,1,0,2.5-.6,3.5-.9,1.2-4,4.6-5.6,3.1h0ZM71,14.3c.5.6,4.7-3.6,4.7-4.5,0-1.2-2.1.1-2.5.5-.5.5-2.1,2.5-2.2,3.1,0,.3,0,.6,0,.8h0Z"/>
        <path d="M12.6,66.5c2-.2,5.7,4.1,6.8,5.6.8,1,2.2,2.9.6,3.9-.7.5-1.4.3-2.1,0-1.1-.5-5.3-4.5-6.1-5.6-.9-1.2-1.2-3.7.8-3.9ZM12.6,67.8c-.7.2.3,1.9.6,2.3.7.9,4.6,4.7,5.5,4.9.2,0,.4.1.6,0,.2-.2.1-.3,0-.6-.2-1.2-4.4-5.6-5.6-6.3-.4-.2-.8-.5-1.2-.4h0Z"/>
      </g>
      <g>
        <path class="st0" d="M18.7,75c.2,0,.4.1.6,0,.2-.2.1-.3,0-.6-.2-1.2-4.4-5.6-5.6-6.3-.4-.2-.8-.5-1.2-.4-.7.2.3,1.9.6,2.3.7.9,4.6,4.7,5.5,4.9h0Z"/>
        <path class="st0" d="M34.3,65.4c-1.2.2-2.9,3.2-3.5,4.3-.3.5-1.4,2.6-1.3,3,.2.8,1.2.1,1.6-.2.9-.8,3.4-5.4,3.6-6.5,0-.4,0-.7-.4-.6h0Z"/>
        <path class="st0" d="M27.3,67.6c.5.2,1,.2,1-.5,0-1.2-2.6-4.3-3.5-5.2,0,0-.4,0-.6-.3-.4-.4-.6-1.1-1-1.5-.3-.3-1.8-1.6-2-.8,0,.3.1,1.4.2,1.7,0,.2,1.6,2.3,1.9,2.7.7.9,3.1,3.6,4,3.9h0Z"/>
        <path class="st0" d="M52.4,134.5c.7.7,6.8,2.6,8.1,2.9.4,0,1.8.5,2,.1.5-.8-2.5-2.4-3.1-2.7-1.5-.7-5.3-2.4-6.8-1.6-.6.3-.7.7-.2,1.2h0Z"/>
        <path class="st0" d="M85.6,127.9c.3,1.9,1.9-.3,2.4-.9,1.2-1.9,1.8-4.3,2.6-6.4l-3.5,1.8c-.6,1.8-1.8,3.7-1.5,5.6Z"/>
        <path class="st0" d="M41.3,74.1c.5.3,1.3-1,1.5-1.3.3-.5,1.5-3.5,1.3-3.7l-2.9-1.1c-.1,1.1-1.1,5.6,0,6.2h0Z"/>
        <path class="st0" d="M8,90.9c1.5-.6,2.2-1.6,3.3-2.3.9-.5,1.3.5,2.1.9,2.2,1.3,4.5.8,6.5-.7.6-.4,2.5-2.4,2.8-2.5.5,0,1.8,1.2,2.4,1.6,2.5,1.4,5.1,1.3,7.5-.2.7-.4,1.8-1.7,2.4-1.8.8-.2,1.2.4,1.8.6,1.8.7,4.3.4,5.8-.7.6-.4,1.7-2,2-2.1.6-.2,2.6.9,3.4,1,3.3.4,6.4-.9,8.9-3,.7.2,1.2.8,1.8,1.1,1.6.8,3.8.8,5.4,0,1.9-.9,2.5-2.1,2.9-4.1.2-.2,1.8.7,2.2.9,3.1,1.1,6.8.3,8.5-2.6.2-.4.4-1.4.9-1.4,1.8,1.6,3.7,2.7,6.2,2.1,1.6-.4,3.3-2,3.8-3.6-2.9.3-5.8,0-8.7,0-1.2,0-2.4.3-3.6.2l-5.6-.4c-3.5,2.5-7,3.6-11.4,3.3-3.7-.3-7.9-2.3-11.3-1-5.3,1.9-7.5,4.1-13.8,3.4-2.5-.3-3.9-1.7-6.4-1.5-.5,0-1.5.2-2,.3-.9.3-2.6,2.2-3.7,3-2.5,1.7-4.5,1.9-7.3,2.5-.6.1-1.1.5-1.8.6-1.9.4-4.1.2-4.8-1.9-2.2,2.3-3.5,5.4-3.4,8.7.2.7,2.6,0,3.2-.3h0Z"/>
        <path class="st0" d="M59.7,128.5c10.4-1.5,18.5-5.2,27.6-10.1,1.3-.7,5.6-3.1,6.2-4.1.4-.8.8-2.8.9-3.8.4-2.4.6-4.8,1-7.2,1.4-8.7,3.3-18.9,2.9-27.6,0-.5-.2-.9-.2-1.4-1.8.5-4.4,1.3-6.2,1-.6,0-1-.4-1.5-.5.3,1.8.6,3.6.8,5.4.9,8.9,1.7,20,1.2,28.8,0,.4,0,.8-.2,1.1-.3-.2-.4-1-.4-1.3-.8-5.4-.6-11.7-.9-17.3-.3-5.3-.9-10.7-1.2-16.1l-.3-.2c-1.9,3.5-5.7,5-9.2,3,.5,3.1.2,6.2.3,9.3.2,6.3.9,12.6,1.2,19,.2,3.5.8,7.5.8,10.9,0,.8-.3,1.7-.3,2.5-.3-.2-.5-1.1-.6-1.5-.4-2.7-.3-6-.5-8.8-.3-6.1-.6-12.3-1.4-18.5-.5-4.2-1.6-8.3-1.8-12.5-2.2,2.4-5.4,3.2-8.5,2.3.2,1.6.4,3.3.6,4.9,1,9.8,3.5,19.3,4.7,29,.1,1.1.2,2.2.2,3.4-.6-.5-.8-1.6-1-2.4-1-4.1-1.4-8.5-2.2-12.6-.7-3.5-1.9-6.9-2.6-10.4-.7-3.5-1-7.1-1.9-10.6-2.3,2.7-5.1,3.3-8.5,2.4l5.5,26.4-8-26.8c-.1,0-1.4.8-1.7.9-2.4,1.1-5.1,1.3-7.7.7l8.9,32.8c-.4.4-1.4-2.2-1.5-2.3-1.8-4.6-3-9.9-4.5-14.6-1.6-5-3.8-9.9-5-15.1l-2,1.3c-1.8.9-3.9,1.1-5.8.4l11.5,35c-.3.3-.9-1.1-1-1.2-2.5-5.9-3.6-12.4-6.8-18l-6.1-15.6c-.3-.4-1.2.5-1.5.7-2.8,1.5-5.5,1.5-8.4.2.4,1.1,1,2.2,1.4,3.3,1.9,5.1,3.3,10.3,5.2,15.4,1.9,5.2,4.7,11.4,7.1,16.4.3.6,2.2,3.5,1.8,3.9-.3,0-.4-.1-.5-.3-.6-.6-2.5-4.3-2.9-5.2-3.8-7.7-6.7-16.2-10.1-24.1-1.4-3.2-3.1-6.3-4.3-9.6l-2.5,1.7c-1.3.7-2.6,1.1-4.1,1-.8,0-1.6-.5-2.3-.5l10.8,24.3c-.4,0-.3-.1-.4-.3-3.8-5.1-6.7-11-9.5-16.8-1.2-2.5-2.4-5-3.5-7.5-1.9,1.2-3.5,1.9-5.8,1.7-.9,0-1.7-.5-2.5-.5,1.8,3.1,3.1,6.3,4.9,9.4,3.6,6.2,7.6,12.3,11.3,18.4,3.3,3.4,6.6,7.1,10.3,10,1,.8,2.6,1.8,4,1.8,2.1,0,5.4-.4,7.6-.6,6.4-.6,13.2-1.6,19.5-2.6h0ZM85.4,100.8c.7.5,2.2,2.1,2.8,2.8.8.9,1.6,2,2,3.2-.2.2-1.1-.9-1.3-1.1-1.5-1.6-2.8-3.4-4.2-5.2.3,0,.4,0,.6.2h0ZM86.7,107.1c.3.4,3.1,3.7,2.8,3.9-.2.2-1-.8-1.1-.9-1.5-1.6-2.9-3.7-4.3-5.5.3-.3,2.4,2.1,2.7,2.4h0ZM85.2,110c.8.7,2.3,2.2,2.9,3,.1.2.7,1,.6,1.1-.3,0-.6-.1-.8-.3-.6-.4-1.9-1.9-2.5-2.5-.2-.2-1.7-1.9-1.5-2.1.5,0,.9.4,1.3.8h0ZM27.8,116.8c1.5,0,3.5.1,4.6,1.2-1.3,0-2.9-.4-4.2-.9-.2,0-.4,0-.3-.3h0ZM32.1,120.2c.5.2,1.2.3,1.2.9-.5.2-1,0-1.5-.2-1.5-.4-3.4-.8-4.9-1.3-.2,0-.5,0-.5-.3,1.9,0,4,.4,5.8.9h0ZM33,127.6l-8.1-2.5-.3-.4c2.9.4,5.8,1.4,8.5,2.6,0,0,0,.3,0,.3ZM33.4,125c-.5,0-1.5-.3-2.1-.5-2.9-.8-5.7-1.8-8.5-2.8.2-.3.3-.2.6-.2.9,0,2.3.5,3.2.7,2.4.7,4.8,1.5,7.1,2.4,0,.4,0,.3-.4.3h0Z"/>
        <path class="st0" d="M12,83.1c2.7-.7,5.1-.8,7.5-2.3,2.6-1.7,3.9-3.8,7.4-4.3,4.5-.6,7.5,2.6,12,1.7,4.5-.8,7.2-4.2,12.2-4,2.3,0,4.7,1,7,1.3,3.2.4,6.6-.3,9.4-1.8v-.3c-3.5-.3-6.9-1.1-10.3-1.6-3.3-.6-6.3-.8-9.6-1.6-.7-.2-1.5-.5-2.2-.7-.8,1.6-1.6,5.5-3.7,5.9-1,.2-2-.8-2.2-1.7,0-.7,0-2.2,0-2.9,0-.7.7-3.1.5-3.4l-4.3-2.6c.5,2.1-1.1,4.6-2.1,6.3-.8,1.4-1.9,3.3-3.7,3.4-.7,0-2.1-.8-2-1.5,0-.6,1.3-2.8,1.7-3.5,1.1-2,2.9-5.5,5.5-5.3-.5-.6-1.2-1.5-1.6-2.1-.2-.4-.4-1.4-.6-1.6-.2-.3-2.4-1-2.8-1-1.8-.3-3.2.2-4.7,1.2,0,.1,0,.3,0,.4.4.7,1.6,1.9,2.2,2.7.8,1.1,2.6,3.6,1.1,4.7-2.1,1.7-5-2.4-6.2-3.7-1.7,1.1-3.4-.6-5-1.2-2.9-1.1-5.2-.8-6.8,2.1-2.1,3.9-2.5,12.1-1.3,16.3.4,1.4,1,1.2,2.4,1.2h0ZM12.6,66.5c2-.2,5.7,4.1,6.8,5.6.8,1,2.2,2.9.6,3.9-.7.5-1.4.3-2.1,0-1.1-.5-5.3-4.5-6.1-5.6-.9-1.2-1.2-3.7.8-3.9Z"/>
        <path class="st0" d="M91.3,15.6c0,.2,0,.4.2.5.8,0,2.9-3.5,3.3-4.2.6-1.1,1.3-2.3.8-3.6-.7-.5-2.8,2.8-3.1,3.3-.6,1-1.4,2.8-1.3,4h0Z"/>
        <path class="st0" d="M83.4,12.1c.3.2.5.4.9.4.5-.5-1-3.6-1.4-4.1-.5-.8-2.8-4.2-3.3-4.7-.6-.6-1.2-.5-1.1.4.2,1.4,3.7,7.2,4.8,8.1Z"/>
        <path class="st0" d="M61,6.3c.3.6,1.2,2.7,2,2.2.9-.5-1.1-4.8-1.5-5.5-.6-.9-2.6-3.3-2-.7.3,1.1,1,3,1.6,4h0Z"/>
        <path class="st0" d="M101.3,123.9c.2-.1.3-.3.3-.6.3-.7,0-4.1-.1-5.1,0-.8-.2-2.3-1.1-2.5,0,.2-.1.5-.1.7,0,1.6-.2,3.1,0,4.8,0,.5.3,2.8,1,2.7h0Z"/>
        <path class="st0" d="M51.1,12.3c.6.1,4.5.7,4.7.5.3-.2-.8-1.1-1-1.2-1.3-.8-6.8-2.2-8.3-2.3-.7,0-1.2,0-.8.9.6,1.3,4.2,1.9,5.5,2.1h0Z"/>
        <path class="st0" d="M48.7,19.7c1.8-.4,4-1.5,5.8-1.6,1.7-.2,4,.4,5.4-.2,1.2-.5,1.9-1.5,3.4-1.6,2,0,4.2,2.9,6.8,3.3,2.7.4,6.4-1,8.8-.2,2.2.7,3.7,3.8,6.4,3,2.3-.7,2.9-2.2,6-2,4.3.4,8.7,2.8,13.2,1.2,2.2-.7,3.3-2.9,1.8-4.9-.8-1.1-3.4-3.3-4.6-4.2-1.3-1.1-2.9-1.9-4.2-3-.4,0-.5,1.1-.7,1.4-.3.7-.9,1.7-1.4,2.4-.8,1.3-3.1,5.3-5,3.7-1-.9-.3-3.2.1-4.2.7-1.9,2.2-3.7,3.2-5.4,0-.4-5.7-2.4-6.5-2.5-.7,0-1.4,0-2.1,0-1.1,0-2.2-.4-3.3-.3l2.4,3.5c.7,1.3,2.5,5.2.3,5.8-1.9.5-3.4-2.1-4.3-3.4-1.1-1.7-2-3.5-3-5.3-4.5,0-9,.4-13.5-.5.2,1.5,1.1,3.7-.4,4.9-.9.7-2,.5-2.8-.2-.4-1.1-1.1-2.1-1.6-3.1-.2-.5-.8-2.3-1-2.5-.5-.6-4.3.3-5.2.6-2.7.8-4.5,2.5-7.4,3-1.3.3-2.6.2-4,.7-3.6,1.2-4.8,2.6-5,6.4-.4,7.7,6.4,6.8,11.9,5.5h0ZM69.9,13c.3-1.1,2.9-4.2,4-4.7.8-.4,1.8-.6,2.5,0,1.1,1,0,2.5-.6,3.5-.9,1.2-4,4.6-5.6,3.1-.5-.5-.4-1.4-.2-2h0ZM45.8,8.1c1.4-.1,6.9,1.3,8.4,1.9,1,.4,2.4,1.2,2.8,2.2.4.9-.2,1.7-1.1,1.8-1.1.2-4.4-.4-5.7-.6-1.6-.3-4.8-1.1-5.6-2.6-.6-1.3-.6-2.4,1.2-2.6h0Z"/>
        <path class="st0" d="M33.2,27.6c1.2.4,2,.2,3-.4.6-.4,2.4-2.5,3-2.2.2,0,1.1,2.6,1.4,3.1,2.2,3.7,5.9,2.9,9,1,.6-.4,2.3-2,2.9-1.8.1,0,1,2,1.3,2.5,2.6,3.4,6.6,3.9,10.1,1.4.5-.4,1.6-1.6,2.2-1.5,1,.2,1.2,1.7,1.8,2.5,1.8,2.6,5.3,3.3,8.2,2.1,1-.4,3.6-2.7,4-2.7.8,0,1.2,1.3,1.5,1.8,1.7,2.5,5.2,3.3,7.9,2.1.7-.3,2.4-1.8,3-1.7.5.5.6,1.1.9,1.7,1.2,2,4.6,1.7,6.4.7,1.2-.7,1.9-2.1,3.4-1.9.7,3,3.7,3.3,6,1.8.8-.5,2.1-2.3,2.7-2.5.7-.2.9.5,1.4.8.9.5,1.6.2,2.2-.5-.8-2-1.4-4.3-2.8-6.1-1.2-1.7-3.2-2.5-4.7-3.9-.8,0-1.7.3-2.6.4-1.7.2-5.2.6-6.8.2-3-.6-6.3-2.7-9.6-1.6-2,.7-3.6,1.7-5.9,1.3-1.3-.2-2.5-1.8-3.7-2.4-3.1-1.4-7.4.7-10.7-.3-2.4-.7-3.6-3.7-6.5-3.1-.6.1-1,.6-1.5.8-2.6,1-5,.2-7.6.7-1.7.4-3.3,1.4-5,1.8-2.6.7-6.5.6-9.1,0-1.2-.3-1.7-.5-2.5-1.4-1.3,1-3.4,2.3-4.1,3.9-.6,1.4-1.1,2.9.7,3.4h0Z"/>
        <path class="st0" d="M38.4,62.3c8.3,6.4,25,8.6,35.3,9,7,.3,17.6,0,24.4-1.7,2.6-.7,3.6-3.9,5-5.9.6-.9,1.4-1.7,2-2.5,4.7-6.7,6.5-13.3,9-20.9.2-.7,1.9-4.7,1.9-5,0-.4-.9.2-1.2.2-1,.2-1.6-.2-2.5-.5-.2,1.3-.6,2.8-1.1,4-2.2,6.6-5,13-8.5,19-.5.9-1.1,1.8-1.6,2.6,0-.4.2-.9.3-1.3.8-2.2,2-4.3,2.9-6.5,2.1-4.9,3.3-10.1,4.7-15.2,0-.2,0-.3-.2-.2-.4,0-.9.4-1.5.4-1,.1-1.9,0-2.8-.5-.3-.1-1.4-1-1.5-.9-1.3,4.2-2.3,8.5-3.6,12.7-1.2,3.8-2.6,7.8-4,11.5-.4,1.1-.9,2.5-1.6,3.4l7.4-27.6c-.8.3-1.4.9-2.3,1.1-1.5.4-3.3.3-4.7-.3-.6-.2-1-.7-1.6-.9-1.4,6.3-4.1,12.1-6.2,18.2l-1.8,3.7,5.9-22.3c-3.4,1.5-7.3.8-9.7-2.1l-6.1,23.8c0-.9,0-1.8.2-2.6.7-5.5,2-10.8,2.9-16.2.3-1.7.6-3.4.9-5.1-3.2,2.3-6.6,2.7-9.9.4-1.1-.8-1.6-1.5-2.4-2.5,0,3.6-.5,7.2-1.1,10.8-.9,5.8-2.1,12.4-3.7,17.9,0,.2,0,.3-.3.2-.4-3.1.5-6.3.9-9.3.6-4.4,1.3-8.7,2-13.1.3-2.1.3-4.3.8-6.4-3.9,3.2-9,2.2-12-1.7,0,2.4,0,4.8-.2,7.2,0,3.6.3,10.6-.5,13.8,0,.2.2.4-.3.4.2-1.8-.3-3.5-.5-5.2-.3-3.9-.3-7.9-.5-11.8,0-1.7,0-3.4,0-5.1-3.2,2.3-7.6,3.6-10.6.3l1.5,28.5-3.7-31-.3-.2c-1.6,1.8-4.4,2.6-6.4,1.1l.5,6.7c-.1,4.2.2,8.4.8,12.6.7,5.5,1,11.3,5.7,14.9h0ZM54.2,63l-3.8-2.5c-1.2-1.1-2.8-2-4-3.2-.2-.2-.5-.4-.5-.7,0,0,8.2,6.4,8.2,6.4ZM52.2,57.5l-6.5-4.8c1.8.5,3.8,1.8,5.2,3.1.3.2,1.6,1.4,1.4,1.8h0ZM44.2,44.3c1.4.6,3.2,1.5,3.8,3-.3,0-.4,0-.6-.2-.8-.6-2.1-1.6-2.9-2.3-.2-.2-.4-.2-.3-.5h0ZM46.2,49.2c.7.5,2.1,1.5,2.7,2,.2.3.5.6.5,1-1.8-1.3-3.6-2.6-5.2-4.2.7.3,1.4.8,2,1.2h0Z"/>
        <path class="st0" d="M75.7,9.8c0-1.2-2.1.1-2.5.5-.5.5-2.1,2.5-2.2,3.1,0,.3,0,.6,0,.8.5.6,4.7-3.6,4.7-4.5h0Z"/>
        <path class="st0" d="M104.6,136c1.3-.6,4.8-3.3,4.9-4.8,0-.2,0-.5-.2-.6-.5-.5-1.8.4-2.4.7-1.3.8-4.2,3.1-4.6,4.5-.5,1.6,1.5.6,2.2.2h0Z"/>
        <path class="st0" d="M39.2,151.2c.3.6,1.2,1.9,1.8,2.4,1.1.7,3.2.8,4.4.3.6-.2,1-1,1.7-1,.8,0,1.5,1.2,2.2,1.6,1.2.7,2.7.7,3.9,0,.7-.4,1.2-1.4,2.1-1.2,1.4,2.5,3,3.5,5.8,2.2.7-.3,2.6-2,3-1.9.4,0,1.7,1.9,3.2,2.1,2.6.3,3.4-1.3,5.2-2.5,1.3-.9,1.3,0,2.3.7,2.8,2,6.1,2.2,9,.2.5-.4,2-2.2,2.2-2.2.8-.3,1.8.7,2.5,1.1,3.1,1.5,5.7,1.1,8.1-1.4.3-.3.6-1.1.9-1.2.6-.2.7.3,1.2.5,2,.9,3.9,1.5,5.8,0,.5-.4,1.1-1.3,1.5-1.4.4,0,1.4.5,2,.6,2.2.4,4.7-.4,6.3-2,.6-.6,1.3-2.3,2.1-2.5.6-.1,2.1.4,2.8.4.3,0,1.7,0,1.8-.2-1.5-3.4-3.1-6.7-6.1-9-.7,1.1-1.8,2.3-3.2,2.5-.5,0-1.1,0-1.6,0-3.1.4-5.6,4-9.1,3.8-2.6-.2-4.7-2.7-7.2-2.7-5,0-8.9,4.1-13.4,5.2-3.2.8-4.8.6-7.8-.8-2.7-1.2-4.9-3.4-8.2-3.5-5.1-.1-8.6,3.4-14.4,2.7-1-.1-2-.8-3-.8s-1.7.3-2.4.3c-1.4,0-2.7,0-4.1,0-1.8,0-1.8-.3-3,1.1-1.1,1.2-2,2.8-2.5,4.4-.1.4-.5,1.6-.2,1.9.7.6,3.5.4,4.5.2h0Z"/>
        <path class="st0" d="M46.7,141.8c2,.1,3.9.6,6.1.5,2.5-.2,4.5-1.6,6.8-2.3,4.5-1.4,8.5.4,12.5,2.2,3.3,1.4,3.8,2.8,7.8,1.7,4.3-1.2,8.6-5,12.9-5.3,4.5-.3,6,4.3,10.7,2.2,2.3-1,3.2-2.3,6-2.8.8-.1,1.4.1,2.2-.3,1.3-.8.8-1.9,1-3.1.2-1.7,1.5-3.8,1.5-5.2,0-.7-1-3-1.4-3.6-.6-.9-1.7-1.3-2.7-1.2-1.4,0-3.3,1.5-4.6,1.9-.2,0-.6.2-.8,0-.2-.1-1.1-3.1-1.3-3.6-.1-.3-.3-.8-.5-.9,0,1-.2,2.7-1.4,2.7-1.6.1-1.9-1.9-2.2-3.2-.2-1.4-.3-2.8-.3-4.1-2.7-1.5-5.1.8-7.3,2.1-.2,1.6-.8,3.2-1.3,4.7-.6,1.5-2.3,5.7-4.4,5.4-1.8-.3-1.4-3.1-1.1-4.4.2-.8.8-1.7,1-2.3,0-.2,0-.3-.2-.2-1.2.4-2.7,1.2-3.9,1.7-6.1,2.2-12.7,4.6-18.9,6.3-2.4.6-4.9.9-7.3,1.4,0,.2.2.2.3.2,1.8.7,7.3,2.2,7.7,4.4.4,2.3-2.1,1.9-3.5,1.5-2.7-.7-5.4-2.2-8.1-2.9-.9-.6-1-1.6-.7-2.6l-8,.6c.8.9,2,3.3.9,4.3-1.5,1.4-4.4-1.2-5.7-2-1.6,1-3.9,2.6-2.4,4.8,1.8,2.6,7.9,1.1,10.6,1.2h0ZM106,130.8c.5-.3,2.1-1.2,2.6-1.3.5-.2,1.3-.1,1.6.3.2.2.5,1,.5,1.2,0,2.5-5.7,7-8.1,7-.8,0-1.6-.7-1.6-1.6,0-2,3.3-4.7,5-5.7h0ZM90.7,131.6c.5-1.3,2.3-4.3,3.1-5.5.4-.5,1.2-1.2,1.8-1.3,1.3-.2,2.3.4,2.3,1.7,0,1.3-1.9,4.1-2.6,5.2-.8,1.2-2.5,3.9-4.3,3.1-1.2-.5-.7-2.2-.4-3.2h0ZM73.6,132.2c.2-1,.6-2.5,1.8-2.6,1-.2,1.6.8,1.8,1.6.4,1.6.2,6.1-.2,7.8-.5,2-2.1,2-2.8.1-.5-1.4-.9-5.4-.7-6.9h0Z"/>
        <path class="st0" d="M75.7,139.2c.2,0,.3-1.1.4-1.3,0-.5.2-1.3.2-1.8,0-.8,0-5.1-.3-5.4-.7-.1-.9.6-1,1.2-.2,1,0,4.9.3,6,0,.4.2,1,.5,1.3Z"/>
        <path class="st0" d="M117.6,146.8c0,1.7,0,3.5-.2,5.2-.3,3.2-.6,6.4-.9,9.6-.6,6.3-1.5,12.5-2.1,18.7-.3,0-.2-.3-.3-.5-.4-1.4,0-2.8,0-4.1.2-7.4,1.1-14.9,1.4-22.3,0-1.5,0-3,0-4.5-.8.3-1.2.9-2,1.3-1.9,1.1-3.7,1.1-5.9.8l-2,34.4-.5-3.9c.5-7.8.7-15.7.6-23.5,0-2.1,0-4.3,0-6.4,0-.1-1,.6-1.2.7-1.6.8-3.8.7-5.3-.3l-.5,6.9c0,6.2.4,12.4-.3,18.5-.3,3-1,6.1-1.2,9.2l.3-34.1c-1.9,1.9-4.2,2.9-7,2.2-1-.2-1.8-.9-2.7-1.1l.3,30.8c-.2.3-.3,0-.3-.2-.6-4.7-.6-9.5-.9-14.2l-1.1-15.4c-1.1.4-2,1.2-3.1,1.7-2.7,1.1-5.8.9-8.3-.6l1.7,28.5-1.3-5.3c-.9-6.4-1.6-12.8-2.2-19.2,0-.6-.1-4.3-.3-4.5-2.2,1.8-4.8,2.6-7.3.8,0,6.6,1,13.1,1.7,19.6.5,4.6,1.1,9.1,1.3,13.7,0,.4,0,.8,0,1.1l-5-34.7c-1.9,1.3-3.8,1.8-6.1,1.5l-1.3-.7c1.2,9.2,4.2,17.9,6.1,26.9.2.8.5,1.9.5,2.7,0,.2.1.6-.2.5-2.6-7.4-4.2-15-6.1-22.6-.4-1.5-1-3-1.3-4.6-.3-1.3-.5-2.6-.8-3.9-.2-.3-1,.3-1.3.4-1.4.3-2.5.3-3.9,0,.1,1.9.3,4,.7,5.9,1.2,6.4,3.4,12.9,4.7,19.4.3,1.4.6,2.9.8,4.4,0,.3,0,.2-.3.2l-7.9-30.6c-.6,0-1,.4-1.6.6-2.3.6-4.3,0-5.9-1.8.4,1.3.7,2.7,1.2,4.1,1.6,5.1,3.3,9.8,5.3,14.8,1.5,3.8,2.8,8.9,3.7,12.9,0,.1.2.5-.1.5-.8-2-1.5-4.1-2.3-6.1-3-8.4-6.2-16.7-8.8-25.1-.2-.6-.4-1.3-.4-1.9-1,.2-2,.5-3,.1.9,3.3,2.1,6.6,3.1,9.9,2.1,6.6,4.4,13.3,6.6,19.9,1,2.9,1.7,7.5,4,9.4,1.9,1.6,6.7,2.4,9.2,2.9,10.7,2.1,23.7,2.8,34.3.3,7.6-1.8,17.2-5.1,23.9-9.1,2.1-1.3,3-2.2,3.4-4.8,1.1-8.1,2.1-16.2,3.2-24.2.5-3.5,1.2-7,1.7-10.6-2.2.9-4.3.9-6.5.3h0ZM103.2,190.5c-.4.4-2.7-1.8-3-2.2-.1-.2-.4-.2-.3-.5.3,0,.4,0,.7.1.3.1,3,2.3,2.6,2.6ZM105.6,188.5c-.3,0-.4,0-.6-.2-.8-.4-4-3.9-4.7-4.7-.1-.2-.4-.2-.3-.5.3,0,.4,0,.7.2,1.1.5,3.6,3.1,4.3,4.1.1.2.8,1,.6,1.1h0ZM110.7,173.5c-.3,0-.5-.4-.6-.7-.2-.4-.4-.7-.4-1.2.5.4,1,1.1,1.1,1.8ZM111.5,177.2c-.2.2-.8-.6-.9-.7-.7-.8-1.4-2.1-1.7-3.1.6.2,2.9,3.4,2.6,3.8h0ZM109.6,184.4c-.3-.3-2-2.3-1.7-2.6.4,0,.6.2.8.4.2.2,2.3,2.7,2,2.9-.3.2-1-.6-1.1-.8h0ZM112.1,183.4c-.9-.8-2.5-3.2-3.1-4.3-.2-.4-.6-.8-.5-1.2.2-.2.8.6.9.7,1.3,1.4,2.6,3.3,3.3,5.1-.4,0-.4,0-.6-.2Z"/>
        <path class="st0" d="M38.8,133.5c-.4,0-.8.3-.3.7,1.3,1,3.1,2.3,4.8,2.2-.1-1.2-1.5-1.6-1.8-2.8-.2-.1-2.3-.1-2.7,0Z"/>
        <path class="st0" d="M93.2,132.6c.8-.8,3.5-4.9,3.6-5.8,0-.2,0-.5-.2-.6-.9-.9-2.5,2-2.9,2.6-.6.9-2.2,3.4-2.2,4.5s1.4-.1,1.8-.5h0Z"/>
      </g>
    </g>
  </g>
</svg>