<?xml version="1.0" encoding="UTF-8"?>
<svg id="Layer_2" xmlns="http://www.w3.org/2000/svg" xmlns:xlink="http://www.w3.org/1999/xlink" version="1.1" viewBox="0 0 311.1 126.3">
  <!-- Generator: Adobe Illustrator 29.6.1, SVG Export Plug-In . SVG Version: 2.1.1 Build 9)  -->
  <defs>
    <style>
      .st0 {
        fill: none;
      }

      .st1 {
        fill: #01e486;
      }

      .st2 {
        fill: #fff;
      }

      .st3 {
        clip-path: url(#clippath);
      }
    </style>
    <clipPath id="clippath">
      <rect class="st0" width="311.1" height="126.3"/>
    </clipPath>
  </defs>
  <g id="Layer_1-2">
    <g class="st3">
      <g id="Group_8963">
        <path id="Path_6482" class="st2" d="M3.2,61.1l53.6-12.3,29.3-5.2,9.1-6,35.2-27.7,7.8-4.9,5.6-3.8,5.9-.6,11.6,2.1,7.1,3.1,8.7,4.6,4.6,1.2,9.4-.6,8.5,2,2.4,3.2,6.2,9.6s5.5,3.7,6.1,4.3,3.7,2.7,3.7,2.7c0,0,8.4-1.2,8.5-1.2s4.2,0,4.2,0l2.7,1.2,5.8-1.2h9.4l46.8-.6,3,1.8,1.9,3.2,9.5,40.4.6,5.2-1.6,2.9s-3.7,3.1-4.1,3.3-7.1,1.9-7.3,1.9-16.7-.4-16.7-.4l-91.4,1.9-24-1.2-3.4-2s-3.5-3.2-3.8-3.6-1.5-2.3-1.5-2.6-.5-2.7-.6-3.3,0-2.2,0-2.2l3.4-18.1-8.6,6.5s-7.4,5.1-7.6,5.2-5.7,2.2-5.7,2.2l-14.3,5.3-17.9,2.1-15.3,4.1-26.7,11.4-23,10.1-22.2,9.8-15.9,9.7-1.5.9.4-64.1,2.4-.6h0Z"/>
        <path id="Path_6435" d="M157.9,61.2c-1.2,1-2.5,1.7-3.7,2.6-2.2,1.6-4.1,3.5-6.4,5-8.3,5.6-17.9,8.4-27.7,10.1-4.2.8-7.3.9-11.5,1.1-5.7.3-15.2,4.2-20.9,6.2-11.6,4.1-23,8.7-34,13.9-2.5,1.2-5,1.9-7.6,3-2.7,1.1-5,2.8-7.6,3.9-3.1,1.4-6.2,2.7-9.4,4.2-7.2,3.4-15.1,6.7-22,10.7-2,1.2-4.2,3.1-6.3,4-.2.2-.5.2-.8.2-.2-.9.4-.9.8-1.3,1.1-1.2,1.5-1.6,3-2.5,8.1-5.1,17-8.7,25.6-12.9,8.9-4.3,17.6-9.1,26.8-12.8,4-1.6,8.1-3.1,12.2-4.7,6.8-2.8,13.7-6.1,20.6-8.4,5.4-1.7,12.1-4,17.6-5,1.9-.4,3.5-.2,5.4-.4,8.8-.8,22.2-5,30.4-8.7,4.6-2.2,8.4-5.8,12.3-8.9,4.1-3.2,8.5-6.2,12-10.1.3-.3,1.5-1.8,1.6-2.1.1-.3-.2-.2-.4-.2-.9.2-1.9.5-2.8.8-.2-.1,0-.4,0-.5.3-.3,3.2-1.5,3.9-1.8,2.1-.8,4.2-1,6-2.6l-.5-.2c0-.7.8-.4,1.3-.5,4.1-.6,7.4-2.2,8.3-6.5.1-.6-.1-1.4.4-1.9.1.6.2,1.3.2,2,0,.7-.6,2.5-.4,2.9,0,.2,2.3,3.3,2.6,3.6.6.6.7.8,1.6.9,1.3.1,4.8.1,5.9-.3.3,0,1.9-1.2,1.9-1.1-.6,2.1-2.2,2-3.9,2.4-1.5.3-2.5.7-4.2.4-1.2-.2-2-1.1-3.1-1.4-.4,2.4.2,5.6,1.7,7.5.8,1,3.4,2.6,4.8,2.6,1.7,0,3.3-2.5,4.2-3.8,1.6-2.3,5.1-6.7,5.2-9.4.2-3.8-.6-5.6-3.4-8.2-1.5-1.4-3.1-2.5-4.7-3.8-3.9-3.1-5.3-5.3-10.8-5.3-4,0-9.6,2.7-13.4,4.1-5.2,1.9-7.4,2.3-11.1,6.9-.6.5-1.9,3.1-2.4,3.2-.8.2-.4-.8-.3-1.2,2.1-6.2,5.5-6.9,10.8-9.3,2-.9,3.9-2,6-2.7,3.5-1.3,9.1-2.9,12.8-2.5,4.5.5,7.9,4.3,11,7.1,1.8,1.6,6,4.5,6.5,6.9.1.6-.1.8,0,1.2,0,.7.4,1.7.3,2.3,0,1.7-1.2,4.2-1.9,5.7-.3.5-1.4,2.2-1.5,2.6-.1,1,1.3,3.8,2,4.6,1.2,1.6,4.1,3.8,6.2,3.1,2.1-.7,3.2-2.6,3.5-4.7,0-.5,0-.9,0-1.4.7-3.8,1.1-7.7,1.2-11.5.1-3.9-.7-5.2-2.5-8.4-2.6-4.5-6.2-11.1-9.4-15.1-4.1-5.1-9.4-2.6-14.8-2.2-2.1.1-4,0-6.2.4-2.4.4-5.2,1.8-7.5,2-3.1.3-6-.5-8.9-.5s-2.2.7-3.4.6c0-.2,0-.3.1-.5,2.2-1.8,8.2-.5,11-.8l9.1-2v-.2c-4.7-1.3-9.1-2.6-13.8-3.2-3.7-.4-6.9-.1-10.4-.3-3-.2-5.4-.9-8.5,0-1.8.5-4.5,4-6,5.4-1.3,1.1-2.9,2-4.6,2.5l.8-.9c4.1-1.9,5.3-6.5,9.4-8.3,3.8-1.6,7.2-.2,11,0,2.4,0,4.9-.3,7.3-.2,1.6,0,3,.7,4.6.8,0-.2-.3-.3-.5-.4-1.9-1.1-4.2-2-6.2-3-3.5-1.7-6.1-1.5-9.9-2.1-1.8-.3-3.3-.8-5.2-.7-4.4.1-6.8,2.7-10.3,5-1.2.7-2.6,1.3-3.7,2.1-6.3,4.1-11.5,9.6-17.3,14.1-3.7,2.9-7.7,5.3-11.4,8.1-5.1,3.9-9.5,8.7-15,12.1-3.2,2-8.4,1.9-12.1,2.6-10.4,1.8-20.6,4.6-30.8,6.9-13.4,3-27,5.4-40.3,8.7-2.2.5-4.4,1.6-6.6,1.2v-.6c6.5-1.8,13.1-3.3,19.6-4.8,9.3-2.2,18.8-4,28.1-6.2,4-.9,7.8-2.2,11.8-3,4.5-1,9.2-1.5,13.8-2.4,3.3-.6,9.7-1.6,12.6-2.7,1.9-.8,6.9-4.1,8.7-5.4,5.2-3.7,10.5-7.9,15.7-11.8,7.5-5.6,14.1-12.2,21.8-17.5,2.1-1.4,4.3-2.3,6.3-3.6,2-1.2,2.7-2.9,5.2-3.6,4.8-1.4,8.1,0,12.7.9,1.6.3,3.6.3,5.1.8,1.5.5,4.4,2,6,2.7,2.5,1.2,4.8,2.6,7.3,3.7,1.7.7,5.9,2.4,7.5,2.3,5.1-.3,8.6-1.3,13.8-.3,6.5,1.2,6.5,7.9,10.2,11.9,1.5,1.6,4.1,3.5,5.8,5,.7.6,1.3,1.4,1.9,2,.4.3,3.2,2.5,3.4,2.5.5,0,1.2,0,1.7,0,4.1.2,8.5-1.6,12.6-.8.7.1.4.7,1.9.6,3.6-.1,6.9-1.3,10.6-1.1,1.7,0,3.3.5,5,.5,2.6-.1,5.4-.7,7.9-.8,10.6-.5,21.6.1,32.3,0,3.5,0,6.7-.9,9.3,2.3,2.8,3.4,3.4,10.8,4.4,15.2,2.4,10.5,5.4,20.9,8,31.4-.6,1.3-.6,4.3-1.4,5.4-.3.4-2,1.8-2.5,2.1-5.5,3.9-8.2,3.2-14.7,3.2-9.5.1-19.1.2-28.7.5-6.5.1-13,0-19.5,0-11.9,0-23.8.7-35.7,1.1-7.7.3-14.9.4-22.6.2-3.6,0-7.1-.4-10.7-.5-3.6,0-8.8.2-12.3-.8-1.2-.3-3.5-2.3-4.4-3.2-.8-.9-3.6-4.4-3.8-5.4-.6-3.4.6-9.2,1.3-12.7.5-2.7,1.5-5.3,1.8-8.1M228.6,45.8c-1.6-.5-4-2-4.1-3.8,0-1.6.9-1.4-.5-2.7-3.1-2.9-6.8-5.8-10.1-8.5-1.7-1.4-3.3-3-5.1-4.1.9,1.9,2.2,3.7,3.2,5.6,1.9,3.8,1.1,7.4,1,11.4,0,.8,0,1.7,0,2.5,1.2.9,2.4,1.7,3.8,2.4,1.9,1,4.2,2.3,6.4,2.5,3,.2,5.7-.3,7.9-2.4,1.1-1.1,1.2-2.5,1.1-4-1.1.3-1.9,1.5-3.1,1.4,0-.3.2-.4.4-.5.3-.2,1.7-1,1.9-1.1.2,0,.4,0,.6,0,0-.6-.2-.8-.7-1.1-1.7-1.1-4.2-1.7-5.9-2.9,0,.9-.4,1.7.1,2.5.7,1.2,2.2,1.8,3.2,2.8M241.3,32c-.6,0-3.3.3-3.6.6-.6.5-.5,3.1-.2,3.8.4,1,3.6.3,4.4.3,1,0,5.3,0,5.8-.8.1-1.2.4-2.9-1-3.3-1.8-.6-3.5-.6-5.3-.5M175.2,46.1c-.2-.2-1.5.6-1.8.8-3.1,1.7-4.6,4.2-7,6.6-1.9,1.8-4.1,3.6-6,5.4-1.3,4.7-2.2,9.5-3.2,14.3-.7,3.5-1.6,4.5-.2,8.2,2.9,7.4,8.3,8.6,15.6,8.8,8.4.3,17,.3,25.4.3,12.8,0,25.8-.7,38.7-1.2,19.4-.8,39-.6,58.5-.5,3.4,0,5.2.3,8.4-1.4,1.5-.8,4.8-3.2,5.3-4.8,1-3.5,0-8.3-.9-11.7-1.5-5.4-2.8-11-4.1-16.5-1.3-5.4-2.3-12-4-17.2-.6-2-2.1-4.4-4.3-4.9-1.5-.3-4.7,0-6.4,0-11.7,0-23.6-.3-35.4.2-1.7,0-3.5,0-5.2.2,0,1.5.4,3.3,0,4.8-.1.3-.5.6-.5,1s.4.7.5,1c.3,1,.5,4.2-.1,5-.1.1-.4.1-.4.2-.2.3.3.3.4.5.7.9.9,4.5.7,5.7,0,.4-.5.7-.5.9s.6,1.7.7,2.2c.2,1.2.5,3.8,0,4.9-.2.3-.3.6-.7.6v.2c1.3,1,1,3.1,1.1,4.5-.2,1.3.4,2.6-1.1,3.3,1.3,2.3,1,4.7,1.1,7.3,0,.3.2.7.2,1.1-.1,1.3-2.6,1-3.5,1-2.5.2-5.1.2-7.6.1-.9-.2-1.2-1.7-1.5-2.4.3-1.7-.9-5.1-.2-6.5.1-.3.6-.5.6-.8s-.3-.4-.4-.7c-.3-.8-.3-4.9-.2-5.9,0-.4.3-.7.3-.9,0,0-.6-1.2-.7-1.5-.6-1.9-.7-4.2.2-6,.1-.2.4-.5.5-.6,0-.2-.4-.9-.4-1.2,0-.6-.2-4.3-.1-4.8,0-.3.5-.6.5-.7,0-.2-.5-.6-.6-.9-.2-1.4-.3-2.8-.3-4.2,0-.6.6-1.4.6-1.9,0-.4-.3-.7-.3-1.1-.1-1.2-.1-2.4,0-3.7l-3.6.2c.3,1.7.2,3.8-1.2,4.9,0,.2.7.7.8.9.3.4.6,3.4.6,4.1,0,.7-.2,1.5-.2,2,0,.6.6,1.1.6,1.9,0,1.5-1.9,3.5-3.1,4.2.8.3,1.1.8,1.4,1.6.4,1.2.6,4,.2,5.1-.2.5-.5,1-.8,1.5.4.2.8.7.9,1.1.4,1.1.5,4.6.3,5.7-.1.7-.9,1.3-.9,1.6,0,.4.3,1.1.3,1.6,0,1.6.2,4.9,0,6.4-.1.6-.6.9-1.2,1-1.4.2-3.7.1-5.3.2-1.3,0-2.6.3-3.9.2-1.2,0-1.7-.1-2.1-1.4-.4-1.6-.9-6.5.1-7.8.1-.2.6-.3.6-.5,0-.2-.2-.4-.3-.6-.4-2.2-.5-5.3.9-7.1-.3-.3-.6-.7-.7-1.2-.2-1.2-.4-4.6-.1-5.7.1-.5.6-.8.9-1.2-.6.3-3.7-1.4-3.9-1.2.4.9-1.3,2.3-1.4,2.6,0,.2.5,1.1.6,1.4.3,1.3.5,4.7-.1,5.8-.4.7-.9.5-1,1.5-.1.9,0,1.8-.2,2.6-.3,1.7.9,3.8-.9,4.7.3.3.5.7.6,1.1.3,1.2.5,4.9,0,5.9-.3.4-.6.8-.9,1.1-1.5,1.1-6.2.6-8.1.6-.8,0-3,.6-3.4-.3-.2-.3-.5-3.6-.6-4.1,0-1,.6-3.3,1.2-4.1.3-.4.8-.4,1.1-.7-1.4-1.5-1.7-6.2-.4-7.7.2-.2.5-.4.7-.6l-.3-3.7c-1.2-.7-2.3-1.4-3.4-2.3-.4-.3-1.7-1.9-1.8-2-.6-.3-2.9-.1-3.1.7,1,.2,3.5-.2,4.1.7.4.6.5,3.7.5,4.5,0,1.2-.3,2.3-1.4,3,1,1.6,1.1,3.8.9,5.6-.1,1.4-1.5,2.3-1.6,3,0,.5.5,2.2.5,2.9,0,1.4-.2,2.8-.6,4.2-.2.7-.6,1.2-1.4,1.3-2,.4-4.9.3-7,.3-.9,0-4.2.3-4.6-.7,0-.5-.1-.9-.2-1.4-.1-1.9,0-3.8.3-5.7l-3.8-.2c-.3,0,.3,1.2.4,1.5.2,1.5-.4,4-1,5.4-.1.3-.5,1.1-.8,1.2-.7.4-2.7.8-3.6.8-1.6,0-4.8.2-6.4,0-3-.4-2.6-4-1.9-6.1.4-1.3,1.3-3.2,2.8-3.4-.2-.5-.6-.8-.8-1.3-.3-.8-.6-1.6-.8-2.4-.1-1.8.7-3.6,2.2-4.7-1.3-.8-1.2-3-.8-4.2.3-1.2.9-2.6,2.1-3.2,0-.6-.3-1.5-.3-2.1.2-1.2.4-2.4.8-3.6.3-.8,1.2-1.4,1.9-1.8v-.8c0,0-.1,0-.1,0ZM224.9,32.2c-.4,0-1.7.4-1.8.8-.2.5,0,3.3.6,3.6.1,0,2.5,0,2.9,0,.5,0,1.1-.3,1.6-.3,1,0,2.6.2,3.4-.2.6-.3,1.2-2.3.7-3-.8-1.1-1.3-.7-2.2-.7-1.5,0-3.8-.3-5.1-.1M222.5,33.3l-3.3.2,3.4,2.7c-.3-1,0-1.9-.1-3M247.6,42.5c-.2-1,0-2.4-.1-3.3-.1-.8-.7-.4-1.2-.4-1.7,0-3.5-.1-5.1.2l-3.4-.3c-.2,0-.3.2-.4.4-.1.7-.2,1.4-.2,2.1,0,.5.1,1.8.6,1.9h6.3c0,.1,3.5-.6,3.5-.6h0ZM232.1,41.5c0-.7,0-1.6,0-2.3-.9-.8-2.1-.2-3-.2-1.3,0-2.5-.1-3.8-.2,1.5,2.1,4.1,2.7,6.2,4,.3,0,.7-1,.7-1.3M176.7,45.5l6.9-.3c.2,0,.9-1.5.9-1.7,0,0-.7-1.2-.8-1.4,0-.2-.1-.3-.4-.3-.1,0-1.7,1.2-2.2,1.4-.9.4-4,1-4.4,1.7,0,.2-.1.4,0,.6M237.4,45.5v4.2c0,.2.4.2.5.2,1.7,0,3.7-.5,5.3-.5,1.7,0,4.9,1,4.9-1.8,0-.5-.4-2.7-.9-2.9-1.1-.2-2.3.2-3.4.3-1.4,0-2.9,0-4.4,0-.4,0-2,.2-2.1.4M176.8,47.5c-.9,0-2.2.4-2.7,1.2-.2.3-.7,2.5-.7,2.9-.1,1.2,1,.9,1.9.8,1,0,1.7,0,2.6,0s3.8.2,4.9-.3c1.3-.5,1.2-3.2.7-4.3-2.2-.2-4.5-.6-6.8-.3M211.7,50.4c.1,0,2.7-.1,3-.2.3,0,.7-.3.6-.6,0-.3-3-2-3.1-1.8l-.5,2.7h0ZM247.2,51.6l-9.5.5c-.6.3-.6,3-.5,3.7,0,.6.2,1.3.9,1.3,1.8.2,4.1,0,5.9-.2,1.3,0,2.6.1,3.8-.2.2-.2.2-3.1.1-3.6,0-.3-.4-1.6-.8-1.6M182.6,61.2c.1.1,3.2,0,3.7-.2.4,0,1.4,0,1.7-.2.5-.1,0-1.2,0-1.6,0-1.4,0-2.7.4-4-1.2-1-2.1-2.2-3-3.5-.7,1.1-.8,2.7-2.4,2.8.9,1.9,1.1,5-.3,6.7M223.2,52.3c-.9,0-2,.1-2.2,1.2-.1.5-.2,3.4.2,3.7.6.1,1.2.2,1.8.2,1.6,0,3.6-.2,5.3-.3.7,0,2.8.2,3.1-.5.3-.7.1-3.9-.7-4.3-.4-.2-3.6,0-4.3,0-1,0-2.3,0-3.2,0M207.4,56.8c-.7,0-1.7,0-2.4,0v1.1h5.2c1.6-.2,3.2.1,4.8-.3,0-.8.4-3.4,0-4-.6-.9-3.2-.5-4.1-.4-.5,1.3-2,3.3-3.5,3.6M199.1,54.2c-.3-.2-3.4-.3-3.9-.2-.3,0-1.5,1.1-2.2,1.4-1.2.3-2.5.4-3.8,0l-.5,3.2c0,.3.8.3,1,.3,2.3,0,4.7-.2,7,0,1.1,0,1.9.7,2.2-.9.2-1,.3-2.1.3-3.1,0-.2,0-.6-.2-.7M174.3,54.7c-2.4.4-2.6,2.7-2.9,4.7l.3.3c1,0,2-.1,3,0,1.9,0,4.2.5,6.1.2,1.5-.2,2.1-3.4,1.5-4.5-.3-.5-1-.6-1.5-.7-1.5-.1-5.1-.2-6.5,0M248.2,60.1c-1.9-.3-3.8,0-5.7,0l-4.2-.3c-.4.2-.6.3-.7.8,0,1.2,0,2.5.2,3.7.4,1.3,3,.9,4.1.9,1.4,0,5.1.6,6.1-.3.6-.6.4-3.8.2-4.8M220.9,62.2c-.1.8,0,1.8,0,2.6,0,.3,1.2.2,1.5.2,1.9,0,3.8-.3,5.6-.5.7-.2,3.1.6,3.3-.3,0-.2.2-1.5.2-1.7,0-.8-.2-1.5-.4-2.2-.3-.4-4.4-.3-5.1-.3-.9,0-3,.1-3.9.4-.7.2-1.1,1.1-1.2,1.8M214.3,61.2c-.3-.1-.6-.2-1-.2-1.3,0-6.9-.2-7.9,0-.6.2-1.1.7-1.4,1.3-.2.5-.5,2.6-.4,3.1.4,1.3,2.2.8,3.1.7,1.9,0,4.7,0,6.5-.5,1.5-.4,1.4-3.2,1.1-4.4M197.1,61.8c-1.6,0-3.3.4-4.9.4-4.4.2-8.9.2-13.2.3-1.5,0-6.6-.4-7.5.6-.6.6-1.6,3.3-.9,4,.8.7,3.2.2,4.3.2,6.4,0,12.8.3,19.2,0,.9,0,1.8-.3,2.8-.2,1.3-.6,2.4-5.4.2-5.4M247.5,67.6c-.2-.2-.4-.2-.6-.3-2,.2-4,0-5.9,0-.7,0-2.1,0-2.7.4-1,.6-.2,4.1-.1,5.2l4.8.3c1-.4,5,0,5.5-.6.4-.3,0-1.8,0-2.3-.1-.7-.3-2.4-.8-2.9M220.2,73.6c.6.6,2.8,0,3.6,0,1.4,0,7,.5,7.5-1.2.2-.7.4-3.1,0-3.7-.4-.9-1.3-.7-2.1-.8l-8.7.7c-.2,0-.3.4-.3.6-.2.8-.5,4,0,4.5M213.6,69.6c-.7-.6-8.4,0-9.8,0-.1,0-.2.1-.2.2-.1.2-.9,2.8-.9,3.1,0,.3,0,.7,0,1,0,.2.5.3.7.4,2.1.4,5,.4,7.1.2,1-.1,2.1-.3,3.1-.5.6-.4.6-4,0-4.4M196.7,75.2c.7-.4.1-4.3.2-5.2l-.2-.2c-.9,0-1.9,0-2.8,0-2.1,0-4.2.3-6.2.6-2.2.4-2,3.5-1.8,5.3l10.9-.5h0ZM172.7,70.6c-2.2.1-3,1.1-3.6,3.1-.8,2.4-1,2.8,1.7,2.7,2.1-.1,4.2-.3,6.4-.3.7,0,2.1-.3,2.5-.9.4-.9.7-1.9.9-2.9,0-.6-.8-1.1-1.3-1.2-2.1.2-4.5-.5-6.5-.4"/>
        <path id="Path_6436" d="M133.3,39.5c-.2.3-.4.7-.7.9-2.2,2.1-8,4.8-10.9,6.2-6.1,2.9-11.8,4.6-18,6.8-1.7.6-3.4,2-5.3,2.4,1.2-1.2,3-2.2,4.5-2.9,6.6-3.2,13.6-5.5,20.4-8.3,2.5-1,4.7-2.8,7.1-4,.9-.5,2-1,3-1.2"/>
        <path id="Path_6437" d="M117.3,31.3c0,.3,0,.4-.2.6-.8,1.5-9,7.7-10.8,8.7-.7.4-1.3.8-2.1.7.2-.3.4-.6.7-.8,2.2-1.8,4.7-3.4,7-5.1.5-.4,5.1-4.4,5.4-4"/>
        <path id="Path_6438" d="M155.9,18.4c.4.3-1.8,1.6-2,1.7-2.4,1.2-3.7,1.2-5.9,3.3-.4.3-2,2.7-2.4,2.3,1.1-2.7,2.9-4.4,5.6-5.5.6-.3,1.4-.4,2-.6.4-.2,2.4-1.4,2.6-1.2"/>
        <path id="Path_6439" d="M80.9,73c.2.3-1.4,3.8-1.7,4.4-.7,1.5-1.6,3.1-2.6,4.3.6-1.9,1.6-3.8,2.5-5.7.4-.8.9-2,1.3-2.7.1-.2.2-.4.5-.4"/>
        <path id="Path_6440" d="M89.2,68.5c-.4,1.9-1.1,3.8-1.8,5.6,0,.2-1.5,3.2-1.9,2.7.5-1.2,1.1-2.4,1.6-3.6.6-1.3,1.1-3.1,1.7-4.4.1-.2,0-.4.4-.3"/>
        <path id="Path_6441" d="M81.4,78.5l3.9-7.8c-.4,2.8-2.2,5.6-3.9,7.8"/>
        <path id="Path_6442" d="M77.4,75.4c.2.2-1.8,4.7-2.7,5,.3-1.2.8-2.4,1.5-3.4,0-.2.9-1.8,1.2-1.6"/>
        <path id="Path_6443" d="M171.4,38c-.3,0-.1-.3,0-.5.3-1.1,1-2.2,1.4-3.3l.8-1.3c-.3,1.8-1.4,3.4-2,5.1"/>
        <path id="Path_6444" d="M90.6,73.7l1.4-4.4c0,1.4-.4,3.3-1.4,4.4"/>
        <path id="Path_6445" d="M173.5,36.9l2-4.7c-.3,1.7-1,3.3-2,4.7"/>
        <path id="Path_6446" d="M168.7,39.4v-.5c0,0,1.6-4.3,1.6-4.3-.1,1.7-1,3.2-1.6,4.8"/>
        <path id="Path_6447" d="M297,74.8c-.4.2-.6.6-1.2.7-4.1.6-9,.4-13.2.6-2.6.2-5.5,1.1-7.9,0-3.6-1.7-2.7-4.9-2.9-8.1-.6-8.6-.9-17.2-1.2-25.9,0-2.2-.6-4.6-.1-6.8.5-1.9,4.1-1.6,5.6-1.7,3.9-.2,8.9-.3,12.8,0,5.2.5,4.9,6.5,5.6,10.3.8,4.1,1.6,8.2,2.4,12.4.5,2.8,1.1,5.6,1.6,8.4.5,2.5,1.8,6.7.3,8.9-.6.9-.9.8-1.7,1.2M288.9,44.2c-.1-1.7.1-4.2-1.3-5.3-1,.9-.5,3.4.1,4.4.1.2,1,1.1,1.2.9M280.4,39.7c-.3,0-3.1.2-3.1.5.9,1.2,1.8,1.3,3.2,1,.7-.1,1.4-.6,1.5-1.3-.1-.4-1.2-.2-1.6-.2M282.4,45.3c.4.3,1.5-1.4,1.5-1.8-.1-.9-.3-1.8-.5-2.8,0-.2-.2-.3-.4-.4-2,1.2-.8,3.1-.7,5M277,41.2l.3,5.1.4.4c.5-.5,1.3-1.3,1.3-2.1,0-1.2-.5-3.4-2-3.4M283.6,45.8c.6,0,4.8-.5,4.8-.8-1-1.7-2.4-1-3.9-.9-.3.6-1,1-.9,1.7M289.8,47.6c-.2-.2-4.2.5-4.7.7-.5.2-1.4.5-1.2,1,.3.4,4-.3,4.7-.2.3-.2,1.5-1.2,1.2-1.5M290.9,48c-.3-.2-1.4,1.3-1.5,1.5-.1.3.1.6,0,.9,0,.6-.3.9,0,1.6.1.3,1.6,1.4,1.8,1.3l-.3-5.3h0ZM283,49c-.4,0-.7-.4-1.1-.4-.8,0-2.5.3-3.5.4-.2,0-.4,0-.5.2.8.4,1.1,1.3,2.1,1.3s2-.2,2.1-.2c0,0,1-1.3,1-1.4M286.9,52.2c0-.3-.1-.3-.3-.4-.6-.5-1.4-1-1.9-1.7l-1.5.3c1.1,1,2.1,2.1,3.7,1.8M279.4,51.2l-1.7-.8.3,3.9c1.8-.3,1.6-1.6,1.4-3.1M290.3,53.7c-.5-.6-1-1.3-1.8-1.3-1.1,0-2.2.3-3.2.5-.2,0-.6.4-.6.6.2.4.7.6,1.2.6l4.5-.5h0ZM283.9,53.7c-1.1-.5-3.2-.4-4.1.3-.2.2-.7.6-.7.9.1.1,3.3-.1,3.8-.2s1-.5,1.1-1M285.6,58.7c.6,0,1.4.6,1.9.6,1-.1,2-.3,2.9-.5.7-.2,1.2-.7,1.5-1.3,0-.3-1.3-.7-1.6-.7-.5,0-.8.2-1.3.3-1.2.2-3.4,0-3.5,1.6M278.8,59.8c1.5.9,2.3.5,3.8.2.3,0,.6,0,.9,0,.7-.1,1.2-1.3.4-1.6-.4-.2-2.9.1-3.5.2-.7.2-1.3.6-1.6,1.2M285.9,63.2c.6.1,1,.7,1.5.9.8.2,4.7-.2,4.7-1.2,0-.2-.1-.4-.3-.5-.8-.4-4.7.5-5.8.5v.3ZM285.7,64.2c-.3.3-.5.6-.7,1,0,.2.3,2.8.3,2.9,0,.2.9,1.1,1.1,1,1.2-1.2,0-2.8.2-4.3,0-.3-.7-.8-1-.7M293.1,68.5c.2-.5-.5-.8-.8-.9-.5,0-3.6.4-3.9.6-.4.4-.7.9-.9,1.4.3.4,4.4-.2,5-.6.2-.1.3-.5.6-.6M284.2,69.2c-.8,0-4.9.5-4.5,1.7.1.4,1.7.4,2.1.4,1.1-.1,2.1-.3,3.2-.5,1.2-.4.8-1.7-.8-1.6"/>
        <path id="Path_6448" d="M260.5,58.4c1.3,0,4-.4,4.9.5.8.8.5,1.4.6,2.3.2,1.1.4,1.9.3,3.1-.1,1.5-.5,1.2-.1,2.8.4,1.8,1,6.2.5,7.9-.4,1.2-2.4,1.3-3.4,1.4-2.1.2-6.3.2-8.4-.2-1.3-.3-1.3-1.8-1.4-3-.1-1.6-.3-4.5.1-5.9.1-.4.6-.9.6-1.1s-.3-.6-.4-.9c-.4-1.4-.3-2.4-.4-3.8,0-1-.6-2.4.9-2.7,1.7-.3,4.3-.4,6.1-.4M264.7,64.1c.2-.3.3-.6.3-1,0-1,0-2-.2-3.1-.3-1.4-3.8-.8-4.9-.7-1.6,0-3.3,0-4.8.2-.2,0-.6,0-.7.3-.3.6-.2,4,.1,4.7.3.7,1.5.2,2,.2,2.1,0,3.7,0,5.8-.3.6,0,2,.2,2.4-.2M258.5,66.8c-.6,0-3.7.2-3.9.4-.2.3-.3.6-.4.9-.1.8.1,3.7.8,4.1,3.5.5,7,.6,10.4.2.7-.6,0-5-.4-5.4-.2-.2-.5-.3-.9-.2-1.7-.2-4,0-5.7,0"/>
        <path id="Path_6449" d="M291.2,86.4c-.2-.2,1.5-2.3,1.7-2.6.5-.6,3.6-4.3,4-4.3.4,0,0,.6,0,.7-.5.9-4.2,5.5-5,5.9-.2.1-.4.3-.6.2"/>
        <path id="Path_6450" d="M280.3,87.4c-.2-.2.9-1.5,1-1.7,1.1-1.4,2.5-3.3,3.6-4.6.1-.2.3-.3.5-.4,0,.3,0,.6-.1.9-.3.9-3.6,5-4.4,5.6-.2.1-.4.3-.6.2"/>
        <path id="Path_6451" d="M188,87.2c-.1-.1.6-1.2.7-1.4,1-1.4,2-2.7,3.1-3.9.3-.3.7-.6.6,0-.2.9-2.9,4.3-3.8,4.9-.2.2-.3.3-.6.2"/>
        <path id="Path_6452" d="M175.2,82.8c.4.4-2.9,4.6-3.4,5.1-.1.2-1.2,1.3-1.3,1.1,0-.5.4-.9.6-1.3.9-1.3,2.2-3.1,3.2-4.3.1-.1.7-.8.8-.6"/>
        <path id="Path_6453" d="M178.8,82.4c.4.3-4.7,6-5.4,6.2-.2-.2,1.8-2.6,2.1-3,.9-1.1,1.8-2,2.8-3,.2-.2.2-.4.6-.3"/>
        <path id="Path_6454" d="M181.3,82.2c.5.6-2.6,4.4-3.3,4.9-.2.2-.5.4-.8.4-.2-.2,2-2.8,2.2-3.1.1-.2,1.5-2.5,1.8-2.2"/>
        <path id="Path_6455" d="M292.5,79.7c.4.5-3.1,5-4.2,5,0-.3.1-.4.2-.6,1-1.3,2-2.6,3.2-3.8.1-.1.6-.7.8-.6"/>
        <path id="Path_6456" d="M285,85.5l4.3-5.4q.2.2.2.5c-.2.8-4,5.4-4.5,5"/>
        <path id="Path_6457" d="M184.4,87.8c-.1-.1.3-.7.4-.9.7-1.1,1.5-2.1,2.3-3.1.1-.2.5-.7.8-.6.3.2.2.2.1.4-.3.8-1.3,2.1-1.8,2.8-.5.6-.9,1.4-1.8,1.4"/>
        <path id="Path_6458" d="M297.3,83.8l3.5-4.2c.8,0-.7,2.1-.9,2.2-.3.4-2.2,2.3-2.6,1.9"/>
        <path id="Path_6459" d="M278.1,86.4c0-.3,0-.6.2-.8.8-1.2,1.8-2.4,2.7-3.5.2-.2.4-.3.5-.4.5,0-.4,1.4-.5,1.5-.8,1.2-1.8,2.3-3,3.1"/>
        <path id="Path_6460" d="M168.7,87.4l3-4.7c.7,0-.4,1.9-.5,2.1-.2.4-2,2.9-2.5,2.6"/>
        <path id="Path_6461" d="M184.1,83c-.4,1.7-2,3.3-3.6,4.1-.3-.3,1.6-1.9,1.8-2.2.2-.2,1.5-2.1,1.8-1.9"/>
        <path id="Path_6462" d="M192.4,86.1c-.2-.2,2.3-3.7,2.6-3.7.7,0-.5,1.8-.6,1.9-.2.2-1.7,2.1-2,1.8"/>
        <path id="Path_6463" d="M169.3,83.5c.3.4-1.5,2.9-2.2,2.8-.2-.2,1.3-2.1,1.5-2.3.2-.2.4-.5.7-.5"/>
        <g id="Group_8965">
          <path id="Path_6464" class="st1" d="M285.6,58.7c.1-1.6,2.3-1.4,3.5-1.6.4,0,.8-.3,1.3-.3.3,0,1.6.5,1.6.7-.3.6-.9,1.1-1.5,1.3-1,.2-1.9.4-2.9.5-.5,0-1.4-.5-1.9-.6"/>
          <path id="Path_6465" class="st1" d="M284.2,69.2c1.6,0,2,1.2.8,1.6-1,.2-2.1.4-3.2.5-.4,0-2,0-2.1-.4-.4-1.3,3.7-1.7,4.5-1.7"/>
          <path id="Path_6466" class="st1" d="M278.8,59.8c.4-.6,1-1,1.6-1.2.6-.1,3.1-.4,3.5-.2.8.4.3,1.5-.4,1.6-.3,0-.6,0-.9,0-1.5.3-2.3.7-3.8-.2"/>
          <path id="Path_6467" class="st1" d="M293.1,68.5c-.3,0-.4.4-.6.6-.6.3-4.7,1-5,.6.2-.5.5-1,.9-1.4.3-.2,3.4-.6,3.9-.6.4,0,1.1.4.8.9"/>
          <path id="Path_6468" class="st1" d="M285.9,63.2v-.3c1.2,0,5.1-.9,5.9-.5.2,0,.3.3.3.5,0,1.1-3.9,1.5-4.7,1.2-.5-.1-1-.8-1.5-.9"/>
          <path id="Path_6469" class="st1" d="M277,41.2c1.5,0,2,2.2,2,3.4,0,.8-.8,1.5-1.3,2.1l-.4-.4-.3-5.1Z"/>
          <path id="Path_6470" class="st1" d="M290.9,48l.3,5.3c-.2.1-1.6-1-1.8-1.3-.3-.7,0-1,0-1.6,0-.3-.2-.5-.1-.9,0-.2,1.2-1.8,1.5-1.5"/>
          <path id="Path_6471" class="st1" d="M285.7,64.2c.3,0,1,.4,1,.7-.2,1.5.9,3.1-.2,4.3-.2,0-1-.8-1.1-1,0-.1-.3-2.8-.3-2.9.1-.4.4-.7.7-1"/>
          <path id="Path_6472" class="st1" d="M282.4,45.3c-.1-1.8-1.3-3.8.7-5,.1.1.3.3.4.4.2.9.4,1.8.5,2.8,0,.4-1.1,2.1-1.5,1.8"/>
          <path id="Path_6473" class="st1" d="M289.8,47.6c.3.3-.9,1.4-1.2,1.5-.7,0-4.4.6-4.7.2-.1-.6.8-.9,1.2-1,.5-.2,4.5-.8,4.7-.7"/>
          <path id="Path_6474" class="st1" d="M283,49c0,0-.9,1.3-1,1.4,0,0-1.8.2-2.1.2-1,0-1.3-.9-2.1-1.3.1-.2.3-.2.5-.2,1,0,2.7-.4,3.5-.4.5,0,.7.3,1.1.4"/>
          <path id="Path_6475" class="st1" d="M290.3,53.7l-4.4.5c-.5,0-.9-.2-1.2-.6,0-.2.4-.6.6-.6,1.1-.3,2.1-.4,3.2-.5.8,0,1.3.7,1.8,1.3"/>
          <path id="Path_6476" class="st1" d="M288.9,44.2c-.1.2-1.1-.8-1.2-.9-.7-.9-1.2-3.5-.1-4.4,1.5,1.1,1.2,3.6,1.3,5.3"/>
          <path id="Path_6477" class="st1" d="M283.6,45.8c0-.7.6-1.2.9-1.7,1.6-.2,3-.8,3.9.9,0,.4-4.2.8-4.8.8"/>
          <path id="Path_6478" class="st1" d="M280.4,39.7c.3,0,1.5-.2,1.6.2,0,.7-.8,1.2-1.5,1.3-1.4.3-2.3.2-3.2-1,0-.3,2.8-.5,3.1-.5"/>
          <path id="Path_6479" class="st1" d="M279.4,51.2c.2,1.5.5,2.8-1.4,3.1l-.3-3.9,1.7.8Z"/>
          <path id="Path_6480" class="st1" d="M283.9,53.7c0,.5-.6.9-1.1,1s-3.6.3-3.8.2c0-.3.5-.8.7-.9.9-.7,3-.8,4.1-.3"/>
          <path id="Path_6481" class="st1" d="M286.9,52.2c-1.7.3-2.6-.8-3.7-1.8l1.5-.3c.5.7,1.3,1.1,1.9,1.7.1.1.3.1.3.4"/>
        </g>
      </g>
    </g>
  </g>
</svg>