<?xml version="1.0" encoding="UTF-8"?>
<svg id="Layer_2" xmlns="http://www.w3.org/2000/svg" version="1.1" viewBox="0 0 62.8 27.1">
  <!-- Generator: Adobe Illustrator 29.6.1, SVG Export Plug-In . SVG Version: 2.1.1 Build 9)  -->
  <defs>
    <style>
      .st0 {
        fill: #fff;
      }
    </style>
  </defs>
  <g id="Layer_1-2">
    <g>
      <polygon class="st0" points="2.4 14.1 4.2 12.2 5.9 10.8 8.2 9.4 10.9 8.3 12.8 6 14.6 4.2 16.8 2.5 20 1.3 23.6 .6 28.8 .6 32.4 1 36.1 1.7 38.4 2.3 42.5 4.2 45.4 7.2 48.3 8.9 53.3 10.2 56.7 10.8 59.9 12.9 61.5 17 62.1 21.5 61.5 22.3 53.8 22.3 52.7 24.3 49.9 26.2 47 26.2 44.3 24.4 43.7 22.2 40.2 21.9 33.1 22 18.5 22 17 24.7 14.8 26.2 12.1 26.5 10.1 25.8 8 23.4 7.8 22.2 1.2 22.2 .7 20.3 .9 17.8 2.4 14.1"/>
      <g>
        <path d="M42.6,23c-.5-.1-1.1,0-1.6.1-3.7.1-7.3-.2-11-.2s-7.4,0-11.1.1c-.3.6-.4,1.1-.8,1.6-1.7,2.3-4.6,3-7.3,2.1-1.8-.6-3.1-1.8-3.4-3.8l-5-.2c-1.5,0-2.3-.4-2.5-2-.3-3,1.8-6.9,3.7-9.1,1.8-2,4.2-2.7,6.3-3.9,1.2-.7,1.2-1.1,2-1.9C17.8.1,22.8-.4,30.6.2c4.5.4,9.2,1.3,12.9,4,1.7,1.3,3.6,3.9,5.7,4.3,3.7.8,8.8,1.2,11.4,4.4,1.3,1.6,2.1,6.2,2.2,8.2,0,1.1-.2,1.6-1.4,1.7-2.2.2-4.5-.3-6.7-.1-.3,0-.8,1.1-1,1.5-2,2.5-6,3.2-8.7,1.6-.8-.5-2-2-2.3-2.9h0ZM54.1,21.5h7.1c.4,0,.3-1,.3-1.2-.2-2.1-.9-5.6-2.4-7-3-2.6-5.2-2.5-8.8-3.2-4.3-.8-5.6-3.7-9-5.8-4.3-2.6-8.4-2.8-13.3-3-5.7-.3-9.7.3-13.8,4.5-.8.8-1.6,2.1-2.4,2.7-1.3,1-3.1,1.6-4.5,2.5-2.7,1.7-5.6,5.3-5.6,8.6,0,1.7,1,1.9,2.5,2,1.2,0,2.4,0,3.5,0,0-1.5.9-3.1,2-4.1,2.8-2.6,7.9-.9,8.9,2.7.1.5.2.8,0,1.3h24c.2,0,.2-1,.2-1.2.4-1.8,2.2-3.7,4-4.1,3.1-.6,7,1.8,7.1,5.1l.2.2h0ZM47.7,17.2c-1.3.2-3.6,1.6-3.8,3-.7,4.6,4.6,6.5,7.8,3.9,1.2-1,1.5-2.4,1.1-3.8-.7-2.4-2.8-3.4-5.1-3.1h0ZM12.3,17.5c-1.2.1-3,1.4-3.4,2.5-1.1,2.7,1.3,6.1,4.2,5.9s5.4-3.2,4.1-6c-.8-1.8-3-2.5-4.9-2.4Z"/>
        <path d="M31,3c1.4-.1,4.5.2,5.8.7,2.3.8,6,3.8,6.8,6.1,0,.2.2.4,0,.7-.2.2-3.8.2-4.3.2-1.8,0-3.7.2-5.5.2-.7,0-2.8.1-3.2-.1-.2-.1-.2-.2-.3-.4-.5-1.1-.6-5.2-.5-6.5.1-.9.4-.9,1.2-1ZM42.4,9.9c0,0-.6-1.4-.7-1.5-1-1.7-4.5-3.9-6.4-4.3-1.3-.3-1.9,0-3.2,0-.3,0-1,0-1.2.1l.3,5.8h11.1Z"/>
        <path d="M22.9,2.9c1,0,3.9-.2,4.7.1.2,0,.3.2.4.3l-.5,7.5c-.4.3-1.4,0-1.9,0-3.2,0-6.5,0-9.7-.2-.5,0-1.9-.2-1.7-.9.9-1.8,1.8-3.4,3.4-4.7,1.4-1.1,3.5-2,5.3-2.1h0ZM27,3.8c-1.7-.2-3.5-.5-5.1,0-3.2.8-5.4,2.9-6.6,5.9l11.6.5s.1-6.3.1-6.3Z"/>
        <path d="M31.1,19c-.1-.1.8-1.2.9-1.3.7-.8,2.8-2.8,3.6-3.3.7-.4.5.4.1.8-.7.7-1.7,1.3-2.4,2.1l-2.2,1.7h0Z"/>
        <path d="M38.3,14.2c.2.2-.5,1.1-.7,1.3-.2.3-3.4,3.5-3.7,3.2,0-.2,0-.3.2-.5.4-.8,2.7-3,3.4-3.6.1,0,.6-.5.7-.4Z"/>
        <path d="M37.9,17.2c-.4-.4,2.4-2.8,2.5-2.6.2.6-2.3,2.9-2.5,2.6Z"/>
      </g>
    </g>
  </g>
</svg>