<?xml version="1.0" encoding="UTF-8"?>
<svg id="Layer_2" data-name="Layer 2" xmlns="http://www.w3.org/2000/svg" viewBox="0 0 335.33 285">
  <defs>
    <style>
      .cls-1 {
        fill: #fff;
      }

      .cls-2 {
        fill: #ad80f9;
      }
    </style>
  </defs>
  <g id="Layer_1-2" data-name="Layer 1">
    <g>
      <path class="cls-1" d="M333.89,203.2l-.13-5.48-1.12-4.1-1.39-4.3-.93-2.58-1.85-2.78-2.45-2.91-2.84-3.57-5.09-4.63-10.38-7.4-5.35-2.97-4.36-1.85-10.97-5.15-8.19-2.31-8.39-1.45-6.54-.59-7.2-.2-6.67.07-4.49.07-1.65.26-9.85.66s-8.19.86-8.72.93c-.53.07-9.05,2.51-9.05,2.51l-4.63,2.18-6.08,3.83-3.24,2.58-3.3,2.05-4.96,4.16-4.63,4.56-7.8,7.4-2.58,4.03-2.97,3.83-3.57,4.03-2.71,2.11.46-9.45-.26-8.19-.4-6.67.73-5.68.73-5.49-1.06-5.09v-2.38l.73-5.22-.53-23.46-.07-4.63.07-4.1-.33-6.28,2.51-4.16.79-9.52,2.45-2.25,4.63-5.55,2.18-5.75.13-5.45,7.67-6.08,5.55-2.25,7.14-1.85,10.97-4.63h3.83l2.38-1.59,1.65-4.23,2.18-4.03,2.18-7.07,1.26-7.67-1.65-8.26-3.77-10.77-6.87-8.19-14.34-7.07-7.6-1.59-7.67.13-10.64,3.24-1.78-2.05-5.02,4.23-1.12,3.11-7.2,7.47-2.11,7.73-.79,8.13-15.33,15.79-45,51.48-23.79,25.77-13.35,15.86-5.75,5.95-1.19,4.1-5.49,7.34-9.12,11.56-1.45,3.37-11.04,7.93-7.8,7.34-5.62,6.74-3.57,5.88-2.84,5.45-3.9,17.84-.33,6.15.46,7.2,1.78,9.12,3.5,8.26,2.11,3.7,6.94,8.92s4.89,4.36,5.09,4.56,5.09,3.17,5.09,3.17l5.35,2.71,8.99,2.51,7.93,1.59,9.25.59,7.86-.73,8.33-.93,8-2.45,8.92-3.63,7.67-3.97,6.81-3.97,4.49-3.5,11.7-8.46,6.54-5.22,5.62-4.82,1.92-.13,6.28,2.11,12.69,3.11,14.41,3.63,10.51,2.38s14.6,2.45,14.94,2.58,15.2,2.31,15.2,2.31l13.42,2.31,11.96,1.19,14.74.99,11.56.46,6.34-.46,9.19-.99,8.59-1.59,6.28-1.92,7.67-3.5,6.61-3.37,7.07-4.69,5.09-5.35,6.48-7.47,4.16-5.82,1.72-3.63,1.72-3.3.53-2.64.59-2.97.46-3.9.79-7.14-.66-5.82ZM124.78,247.66l-16.96,11.75-11.75,7.61-14.16,6.41-11.08,2.8-9.22,1.47-9.88.13-10.42-1.07-11.75-3.34-3.74-4.54,8.15-8.95,12.69-7.75,14.82-5.61,11.75-2.4,11.75-2,14.69-.8,9.35-.4,14.69,2.54,3.21.67-2.14,3.47ZM132.41,239.71l-6.11-1.1-15.45-3.97-12.07-.29-8.09.66-20.38,3.9-10.74,3.02-16.04,6.84-10.01,4.71-9.34,7.21-4.27,4.41-4.64-4.12-4.12-6.33-5.15-15.67.81-10.74,2.06-9.57,2.72-8.02,3.61-5.89,3.02-4.56,2.94-3.9,6.4-5.59,5.08-3.75,4.64-3.16,4.93-4.86,3.75.96,2.5-1.84,13.39-10.45,4.78-.74,16.41-12.14,12.14-8.9,9.42-7.21,6.25-3.83,6.7-6.99,8.31-6.03,12.21-9.05,4.19-4.27,4.64-3.24,3.46-2.21,6.33,1.47,1.77,5.37,2.72,4.19-.22,15.75v50.11l.15,28.84-15.97,18.25-12.73,12.73ZM161.34,247.92l-6.42-.73-15.6-5.32,15.41-17.98,6.42-5.32.55,13.94-.37,15.41ZM329.3,216.17l-5.49,15.12-7.99,9.82-8.57,6.93-9.82,5.59-11.27,3.95-19.65,3.08-7.99.67-14.73-.19-11.27-1.06-12.04-1.64-42.08-6.74-7.7-2.02-.1-41.6,6.74-8.19,7.22-9.73,8.47-9.24,8.28-7.7,6.93-3.47,4.43-3.47,10.79-4.53,9.53-2.89,13.48-1.64,15.6.19,15.7,2.02,7.8,1.93,17.33,6.84,12.52,9.15,8.67,9.24,5.97,12.52.29,11.27-1.06,5.78Z"/>
      <g>
        <path class="cls-2" d="M315.15,102.7c-5.77,2.79-12.67,3.74-17.89-.67-1.27-1.07-2.26-2.47-3.46-3.61-5.27,8.02-10.31,16.26-15.75,24.16-2.45,3.55-2.87,5.25-7.85,4.64-3.77-.46-4.32-2.79-3.83-6.17.82-5.67,7.45-8.48,11.27-3.68l15.62-21.48c1.61-.74,3.56,2.62,4.8,3.74,5.5,4.93,10.72,3.91,16.82.8.87-.44,1.67-1.51,2.68-1.09.67.48-.78,3.52-1.12,4.25-5.05,10.93-11.95,21.6-16.11,33-.37,1-.3,2.06-.7,3.04-.74,1.82-3.46,4-5.43,4.17-5.75.5-6.55-5.24-3.49-9.09,1.35-1.7,5.37-4.19,7.21-2.13l17.22-29.88Z"/>
        <path class="cls-2" d="M209.13,109.69c.2.12,2.31,3.13,2.85,3.69,1.09,1.13,3.15,2.88,4.61,3.4.74.26,5.94.97,5.93,1.54-4.56,2.51-9.14,2.17-13.08-1.33-.41-.36-1.39-1.82-1.73-1.74-3.07,5.72-5.62,12.05-9.26,17.43-2.12,3.14-7.05,10.2-11.42,7.51-5.84-3.59,3.84-16.31,8.66-8.4,1.06.03,9.77-16.19,10.77-18.31.46-.98,1.22-4.62,2.66-3.78Z"/>
        <path d="M167,94.69c.44.39-6.66,6.55-7.74,6.4-.35-.34,2.45-2.63,2.81-2.93,1.13-.96,2.56-2.06,3.79-2.89.37-.25.66-.66,1.15-.59Z"/>
        <path d="M218.08,12.13c12.55,12.2,13.21,26.02,6.09,41.64-.42.93-1.33,1.87-1.7,2.83-.45,1.15-.42,2.78-1.05,3.76-.33.52-2.23,1.94-2.84,2.23-1.37.65-2.79.59-4.07,1-2.28.73-4.96,2.57-7.48,3.46-1.94.69-4.61,1.06-6.45,1.83-2,.83-3.8,3.31-6.24,3.63-1.01.14-2.02-.1-3.06.14-1.33.31-6.9,4.84-7.57,6.04-.78,1.41-.76,4.73-1.29,6.45-.3.98-3.66,6.86-4.35,7.67s-3.86,2.95-4.07,3.67c-.13,3.74.12,7.9-1.42,11.39-.32.72-1.02,1.1-1.06,1.9-.11,1.85.52,4.93.57,6.93.07,2.46-.28,4.9-.29,7.21-.08,23.18-.41,46.34-.25,69.53l7.07-8.81c13.9-15.54,27.13-29.1,48.67-32.74,16.43-2.78,34.51-3.3,50.82.26,17.16,3.74,37.79,15.28,49.32,28.62,9.69,11.21,9.09,30.39,5.54,43.95-2.65,10.12-13.39,22.19-21.57,28.6-9.83,7.7-27.75,13.21-40.15,14.3-15.86,1.4-31.31.09-47.01-1.83-24.17-2.95-48.03-7.5-71.64-13.24-6.05-1.47-12.08-3.16-17.97-5.18l-21.55,16.88c-12.89,9.29-21.49,15.02-37.38,18.67-17.91,4.11-42.36,2.72-56.81-9.83C7.49,263.24,1.44,250.23.18,235.2c-.65-7.76.5-13.3,2.53-20.68,1.28-4.63,2.56-9.24,5.09-13.32,3.81-6.14,8.33-12.08,13.72-16.98,4.47-4.05,9.8-7.08,14.54-10.82.59-.67.32-1.6.53-2.4.47-1.75,7.1-10.08,8.7-12.12,1.43-1.82,5.17-5.33,5.88-7.2,2.81-7.36,3.95-7.19,8.93-12.69,5.97-6.59,11.65-14.1,17.74-20.43,3.67-3.82,8.08-7.12,11.62-11.06,2.36-2.63,4.27-5.7,6.54-8.4,19.13-22.71,40.02-43.87,59.26-66.45.65-6.77,2.07-13.16,6.01-18.81,2.21-3.17,4.73-4.6,6.88-7.8.86-1.28,4.21-3.77,5.71-3.92,1.14-.12.86,1.11,1.51,1.03,2.66-1.13,5.51-2.07,8.36-2.61,12.44-2.33,25.47,2.98,34.32,11.58ZM190.23,2.62c-1.52.17-4.75-.34-4.54,1.87,1.61-.29,4.71.45,4.54-1.87ZM194.76,3.42l-3.2-.54-.27,1.06c.74-.01,1.49.06,2.24-.03.28-.03,1.25-.1,1.23-.5ZM184.89,3.42c-1.15.39-2.87.45-3.74,1.33l3.43-.31.31-1.02ZM173.67,4.22c-.45-.39-3.75,2.29-4.23,2.86-.72,2.44,4.5,12.26,5.99,14.73,5.07,8.41,11.78,16.04,18.4,23.24,5.54,6.02,8.74,8.7,15.98,12.58,1.63.87,5.29,3.21,6.84,3.59,1.05.26,3.08-1.19,2.55-2.03-5.06-3.66-10.77-6.56-15.37-10.8-9.76-9.02-23.82-25.22-28.57-37.62-.75-1.96-1.03-4.5-1.59-6.55ZM199.27,9.25l1.61-3.84c-.68-.96-3.41-1.11-4.19-.61-.36.23-1.34,4.03-1.65,4.75l4.23-.3ZM195.03,5.29c-.99.36-3.9.02-4.47.6l-1.4,4.21,4.28-.39,1.59-4.41ZM206.77,7.16l-4.8-1.61-.53,3.2c1.32-.46,3.72-.41,4.88-.85.37-.14.53-.34.45-.74ZM178.48,5.82h-1.87s.54,2.4.54,2.4c.51-.17,1.63-2.11,1.33-2.4ZM183.55,10.09h4l1.33-4.27c-.85.11-3.4-.28-3.94.33l-1.4,3.94ZM183.82,6.09h-3.74l-1.87,3.73c1.13-.35,3.26.76,4.02-.12.61-.7.97-2.76,1.58-3.62ZM205.18,14.89l4.01-.39c.24-.87,1.84-4.08,1.47-4.67-.58-.94-2.74-1-3.48-.28-.21.21-2.21,5.15-2,5.34ZM199.03,15.16h3.87c.95-1.53,1.59-3.25,2.32-4.88.1-.22.46-.56.08-.72l-4.94,1.2-1.33,4.41ZM180.09,15.16c.46-.22,1.36-3.4,1.32-3.58-.15-.62-2.52-.39-3.19-.68l1.87,4.27ZM192.9,15.16h4.54c.03-.42,1.52-4.25.93-4.27l-4.07.6-1.4,3.67ZM213.98,13.29c.42-.62-2.27-2.73-2.67-2.4l-.8,3.2,3.47-.8ZM186.76,11.69l-3.74-.15-1.59,3.49c.06.77,3.57.3,4.21.08l1.12-3.42ZM187.56,15.16h4l1.07-3.73c-1.34-.14-2.64.23-3.96.3l-1.11,3.43ZM169.41,15.69c.12-.12-.59-3.05-1.06-3.2l-.8,2.93,1.87.27ZM220.65,20.76c.25-.23-2.81-4.79-3.32-5.08-3.04-1.76-2.32,4.08-2.55,5.62l5.87-.54ZM208.64,21.57h3.74c-.1-.52,1.13-5.63.66-5.61l-3.47.8-.93,4.81ZM165.38,16.79l-1.27-.26-2.45,4.5,2.64.24,1.07-4.48ZM208.38,16.76l-3.94.6-1.4,4.74c1.36.08,2.7-.04,4.01-.39l1.32-4.95ZM170.45,22.08c.6-1.31,1-3.07-.11-4.25-.72-.76-2.62-.38-3.6-.8l-1.07,4.54,4.78.51ZM184.89,17.3l-3.74-.27c.56,1.66,1.46,3.16,2.54,4.53.61.12.33-.27.43-.63.14-.52.94-3.47.77-3.64ZM196.9,22.1h4.14c.39-.33,1.55-4.52,1.06-4.54l-4.1.31-1.1,4.24ZM190.49,18.1l-3.7-.23-1.37,3.7,4.24.23.84-3.7ZM191.29,21.83h4.27l.8-4-4.21.33-.86,3.67ZM221.45,22.1l-6.88.86-.59,5.28,6.03-.77,1.44-5.36ZM162.73,27.97l1.03-4.68-3.01-.89c-.51.13-1.68,3.96-1.46,4.6s2.75.65,3.44.97ZM189.16,23.17c-.77.32-4.09-.78-4.27.14l3.34,4.66.93-4.8ZM212.38,22.9l-4.15.52-.92,5.62,4.69-.52.38-5.62ZM195.03,23.44l-4.27-.27-1.07,5.34,4.02.15,1.32-5.22ZM169.94,23.7l-4.82-.15-.48,4.65,3.96.83,1.34-5.33ZM201.44,29.04h4.27l1.07-5.47-4.11.16-.31.23-.93,5.08ZM200.64,23.7h-4.27l-1.07,5.07c1.54-.18,3.01.41,4.53.26l.8-5.33ZM223.58,26.89c.15-.22-.67-3.05-1.32-3.19l-.54,3.47,1.86-.28ZM173.64,29.54c.8-3.13,1.95-5.85-2.61-5.54l-1.09,5.31,3.7.23ZM177.41,29.57l-1.87-2.4-.24,2.1,2.1.3ZM162.7,29.34l-3.7-.84.06,4.47,3.16.49.49-4.12ZM220.66,33.57l4.42-.51c.43-.59-.58-3.66-.94-4.44l-2.55.41-.93,4.54ZM219.85,29.31l-5.62.65c-.67,1.57-.51,3.3-.51,4.95l5.3-.84.84-4.76ZM168.34,30.38l-4.02-.69-.79,4.16c1.31.3,2.63.69,3.99.52l.82-3.99ZM193.43,34.11l.16-3.75-3.62-.52c-.2.18.88,1.47,1.07,1.73.66.85,1.54,1.88,2.39,2.54ZM211.85,30.11h-3.87c-.14,0-.59.41-.93.27v5.07l4.42-.52.38-4.82ZM199.57,30.64l-4.78-.24-.83,4.78,5.07.27.53-4.8ZM205.44,30.37l-4.27.27-.54,4.8h4.8v-5.07ZM173.41,31.17l-4-.54-.68,4.01,3.89.79.8-4.27ZM173.68,35.71l5.09.42c1.66-4.34.56-5.49-4.03-4.83l-1.06,4.41ZM182.75,36.51l-2.4-2.93-.27,2.94h2.67ZM225.19,34.91l-4.54.53c.21,1.15-.82,5.7,0,6.29l4.01-.43.54-6.4ZM161.93,36.25l-1.87-.54,1.34,3.47.53-2.93ZM218.79,35.71l-5.31.83.24,6.11,4.8-.53.26-6.4ZM166.7,37.35l-3.43-.57-.24,4.78c.59.06,3.05.75,3.32.31l.35-4.51ZM207.04,37.05v5.74c0,.69,1.4.14,1.74.13.72-.02,2.89.19,3.22-.26l-.43-5.87-4.53.25ZM188.09,71.21c-4.59-1.81-9.32-4.24-13.43-6.99-9.12-6.1-14.32-12.65-18.65-22.72-.46-1.08-.91-3.43-1.42-4.19-.32-.48-.68.13-.94.4-1.2,1.2-2.41,3.31-3.68,4.58-.13.62,3.97,10.64,4.63,11.82,3.13,5.57,11.38,12.41,16.85,15.72,3.51,2.12,7.4,3.58,10.96,5.61.22.07.44.05.67,0,.29-.06,4.4-3.16,4.74-3.56.2-.23.34-.3.26-.67ZM198.77,37.04c-.51.04-2.94-.21-2.93.4l2.53,2.53c.6-.85.37-1.96.4-2.94ZM205.04,37.05h-4.27c-.27.2-.29.23-.29.54,0,.8.05,3.8.21,4.34.12.4,1.26,1.48,1.68,1.52l3.33-.27c-.13-1.62,0-3.93-.27-5.47-.05-.3-.14-.5-.4-.67ZM172.32,38.14l-4.25-.56-.42,4.55,4.16.79.51-4.78ZM178.08,38.11h-4.67l-.42,4.81c.19.27,4.17.77,4.7.35.11-.2.75-4.25.74-4.56s-.1-.41-.35-.6ZM184.62,38.38h-5.07l-.27,5.34,4.64.23.4-.4.3-5.17ZM189.43,44.52l-3.34-4c-.67-.01-.32,3.14-.4,3.73l3.74.26ZM220.39,43.45v4.54l3.43-.3c.37-1.59,1.04-3.07.84-4.77l-4.27.53ZM166.2,46.92l-.11-3.22-2.55-.51,2.67,3.73ZM218.79,43.72l-4.8.54c.31.97.08,4.2.79,4.69l4.16-.67-.15-4.56ZM148.85,43.99c-.29-.31-2.22,1.8-2.54,2.13-3.63,3.8-7.04,8.13-10.51,12.1l4.37,7.65c1.26-.58,4.08-4.49,5.48-3.61.44.28,4.03,7.95,4.85,9.3,4.3,7.02,11.06,12.98,19.42,14.2l10.55-8.15.4-.66c-3.19-2.28-6.87-3.75-10.22-5.79-6.35-3.87-14.68-11.53-18.21-18.09-1.48-2.76-2.93-6.05-3.6-9.08ZM171.27,49.59l.15-4.82-3.89-.78c-.07,1.16-.65,3.52-.14,4.54.36.71,3.02.82,3.87,1.06ZM177.42,45.05l-4.54-.53-.24,5.31c1.49.28,2.98.67,4.51.56l.27-5.34ZM212.91,49.32c-.24-1.16-.16-3.36-.59-4.35-.13-.29-.22-.49-.59-.45l-4.7.52-.12,2.42c.08.23,1.98,1.85,2.12,1.85h3.87ZM183.55,51.19l.42-5.35-4.96-.53-.15,5.36,4.69.52ZM190.23,46.12l-4.54-.27-.15,5.36,4.69.52v-5.6ZM192.5,51.99h4.4c-1-1.08-2.27-1.94-3.34-2.93-.42-.39-1.48-1.84-1.6-1.88-.63-.2-.3.28-.27.54.1.91-.02,4.01.81,4.27ZM223.06,49.86l-2.11.56.25,2.11c.63.13.43-.08.6-.34.43-.67.78-1.64,1.27-2.32ZM219.59,50.92l-4.26.55c-.76,2.21,3.96,5.99,4.52,3.05.22-1.15-.47-2.4-.26-3.6ZM176.87,52.27l-4.26-.55c-.62,2.94,1.64,5.07,4.54,4.8l-.28-4.26ZM179.02,52.79v4.27l4.54.53c-.35-1.37-.32-2.5.03-3.87l-.06-.37-4.51-.57ZM190.72,54.16l-5.03-.57.38,4.29,5.22.51-.57-4.23ZM192.9,58.66h4.8l-.59-3.94c-1.44-.72-3.14.04-4.61-.6l.4,4.54ZM204.91,58.66c.13-.89-.19-1.22-.82-1.72-.44-.35-3.33-2.24-3.73-2.41-.44-.18-.86-.18-1.32-.15l.27,4.54,5.61-.27ZM148.85,102.16c.09-.38-.04-.43-.28-.65-1.07-.98-3.56-1.98-4.92-3.09-5.55-4.52-10.37-10.38-12.61-17.29-.83-2.55-1.77-5.49.58-7.54l7.07-6.29c-1.78-2.54-3.01-5.3-3.58-8.37l-44.11,49.98c1.63,6.93,4.36,13.5,10.26,17.76,1.68,1.21,7.42,4.87,9.27,4.58.59-.09,1.7-1.09,2.26-1.49,11.36-8.22,22.34-17.23,33.42-25.83.8-.62,1.7-1.38,2.64-1.77ZM183.82,61.87c.65-3.29-2.41-2.25-4.53-2.93,1.27,1.26,2.99,2.07,4.53,2.93ZM191.55,60.28c-1.7-.05-3.4.13-5.06-.28l.3,2.9,5.3,1.37-.55-3.99ZM212.11,60.8c-1.86-.45-3.11-1.05-5.07-.54l.54,3.47c1.5-.93,3.39-1.54,4.53-2.93ZM197.96,60.53l-4.8-.27,1.06,4.94,4.81,1.19-1.07-5.87ZM205.14,60.29l-5.58.24.79,5.49c.71.52,4.54-1.52,5.61-1.5l-.82-4.23ZM144.58,64.8l-11.46,10.7c2.1,9.75,8.13,18.47,16.45,23.94,2.55,1.68,4.31,1.78,6.76,2.85s3.01,8.3,5.35,9.35c.77.35,1.2-.36,1.86-.54,1.84-.51,4.43-.82,5.72-2.29,3.01-3.43,2.29-8.84,2.76-12.99,3.82-3.67,7.31-6.8,9.07-12.02.19-.57,1.19-4.74,1.14-4.99-.1-.48-.33-.33-.66-.14-.29.17-1.85,1.31-1.99,1.48-.93,1.12-1.39,3.89-2.69,5.32-6.79,7.49-19.26-1.56-24.43-7.07-3.6-3.84-6.87-8.34-7.87-13.61ZM155.51,105.38l-5.57-.95c-2.98,2.48-6.21,4.65-9.22,7.08-13.01,10.53-25.34,20.52-38.76,30.64-10.12,7.62-20.45,16.18-30.8,23.38-.68.47-4.29,2.83-4.77,2.97-1.05.31-2.15-.09-3.2.27-2.76.94-10.54,7.77-13.65,9.84-1.57,1.05-3.84,2.76-5.72,2.57-.51-.05-1.25-.52-1.47-.42-.71.33-2.86,2.52-3.76,3.19-7.77,5.86-16.25,11.2-21.55,19.55-4.61,7.26-9.18,18.28-9.67,26.9-.67,11.84,3.6,24.73,11.89,33.23.78-.57,1.18-1.49,1.87-2.13,7.56-6.93,21.94-14.13,31.56-17.82,20.57-7.88,39.73-12.71,62.05-9.07,5.91.96,11.65,3.01,17.63,3.63,6.03-5.27,11.23-11.36,16.88-17.04l10.69-12.27-.02-95.02c-2.23-2.3-4.46-5.18-4.42-8.53ZM108.55,132.59c-8.43-1.29-15.25-10.29-18.46-17.7-.17-.4-1.16-3.92-1.55-3.65l-33.87,38.6c-.85,1.64.53,5.75,1.25,7.49,1.4,3.34,4.25,7.92,8.22,8.34,2.05.22,5.33-2.64,7.02-3.88,11.6-8.49,23.38-17.78,34.7-26.69.7-.55,1.63-1.19,2.25-1.76.26-.24.57-.24.45-.75ZM168.03,112.34c-.4-.23-5.12,1.21-5.43,1.83l-.39,91.54,1.74-1.6c1.34-2.24,3.06-4.16,4.87-6.04-.59-4.21-.03-8.56.07-12.77.54-21.94.08-43.96.24-65.94.02-2.49.85-4.83-1.1-7.02ZM324.93,180.45c-11.7-12.29-34.31-23.43-50.83-26.7-15.16-3-35.09-1.95-50.24,1.38-17.02,3.74-29.64,14.78-40.56,27.77-12.24,14.57-23.41,29.96-36.44,43.9-5.24,5.61-11.07,10.65-16.43,16.14-1.27,1.3-2.37,3.03-3.73,4.28-3.89,3.56-10.92,8.42-15.4,11.56-5.85,4.1-13.86,8.67-20.19,12.1-11.4,6.18-29.6,8.57-42.5,7.97-25.15-1.16-44.29-20.8-43.09-46.31.66-14.02,5.7-28.73,15.87-38.57,5.82-5.64,12.52-10.32,18.97-15.2l-1.88-3.21c-9.32,5.98-18.01,12.28-24.64,21.26-2.73,3.7-5.45,7.88-6.99,12.22-8.04,22.56-5.97,45.93,12.38,62.49,6.07,5.48,20.26,10.49,28.34,11.3,16.42,1.64,36.31-1.88,50.29-10.83,15.56-9.96,31.37-21.5,44.2-34.8,5.35-5.55,9.71-11.87,15.34-17.22,5.21-4.96,11.62-11.07,16.01-16.82,15.22-19.91,28.92-37.68,54.72-43.77,22.4-5.28,45.52-4.01,66.65,5.16,16.39,7.12,29.57,15.38,35.26,33.34,3.15,9.94-.47,27.25-6.66,35.65-7.89,10.71-18.62,19.85-31.45,23.8-26.91,8.3-49.72,5.59-76.97,1.7-17.66-2.52-36.18-5.66-53.61-9.38-7.72-1.65-15.62-3.71-23.05-6.34-.9-.05-2.41,1.98-3.04,2.67,9.55,2,18.7,5.32,28.24,7.4,24.49,5.34,49.43,10.02,74.39,12.35,29.72,2.78,60.51,1.09,81.68-22.41,11.68-12.96,15.33-24.4,13.74-42.03-.71-7.88-2.86-15.07-8.36-20.86ZM61.04,166.22c-2.27-.78-3.93-2.77-5.6-4.41l-3.47-6.8c-.58,2.83-12.57,16.74-12.42,17.9.1.78,1.62,3.04,2.26,3.59,2.32,2,3.52.95,5.7-.46,3.31-2.15,6.45-5.04,9.82-7.27.92-.61,2.91-1.42,3.55-2,.2-.18.28-.43.17-.55ZM171.56,249.2c16.8,2.78,33.4,7,50.33,9.05,20.72,2.51,38.64,4.62,59.2-.52,4.38-1.09,13.57-3.24,17.21-5.21,12.11-6.53,23.65-17.72,27.91-31.07,6.69-20.93-1.22-34.84-17.62-47.23-19.94-15.05-47.72-16.96-71.76-14.39-10.77,1.15-22.65,7.22-31.84,12.73-11.99,7.19-23,21.78-31.32,33-.69.93-2.4,2.29-2.4,3.47,0,.5.28,1.02.29,1.6.2,12.85-.18,25.72,0,38.56ZM169.67,248.68v-38.43l-6.53,7.22c-.98,4.13-.17,8.49-.13,12.65.05,5.68.12,11.44-.24,17.07.23,1.02,5.77,1.38,6.9,1.49ZM160.6,246.81v-26.42c-4.46,3.69-8.06,8.22-11.87,12.55-1.86,2.11-3.41,3.74-5.22,5.99-.54.68-2.15,1.82-2.13,2.67,6.22,2.35,12.72,3.82,19.22,5.21ZM99.69,235.67c-23.26-.06-53.64,10.33-72.27,24.11l-6.42,5.57,3.29,2.53c6.73-7.83,15.18-13.54,24.73-17.45,11.05-4.53,21.37-7.38,33.27-8.91,11.77-1.51,22.83-2.35,34.62-.53,1.59.25,9.63,2.44,10.13,2.32.27-.06,2.37-2.14,2.19-2.36-3.67-1.1-7.26-2.35-11.03-3.12-5.74-1.18-12.67-2.14-18.52-2.15ZM125.63,244.68c-3.86-.64-7.71-1.43-11.61-1.87s-8.88-.93-12.55-.81c-5.77.18-13.35,1-19.17,1.65-9.36,1.04-19.96,3.79-28.64,7.39-10.13,4.21-19.76,9.77-26.51,18.59,3.29,1.96,6.72,3.86,10.35,5.14,10.13,3.58,23.55,2.29,34.06.57,12.3-2.01,22.09-7.7,32.44-14.27,3.73-2.37,7.9-5.15,11.48-7.74,3.57-2.58,7.28-5.32,10.17-8.65Z"/>
        <path class="cls-2" d="M96.24,28.48c.12-5.43-1.17-10.81-1.04-16.25-1.07.47-1.94,1.36-3.02,1.91-4.82,2.46-9.87,2.36-15.13,1.82.08.98.3,1.8.28,2.81-.09,4.12-1.1,8.26-1.58,12.3-.65,5.5-.89,14.03-2.76,19.13-.7,1.92-2.94,3.98-4.94,4.4-9.93,2.07-5.96-16.53,2.59-9.28.99-3.89.94-7.9,1.34-11.87.29-2.83.91-5.7,1.06-8.55.18-3.38-.29-7.08,0-10.4.06-.73.43-2.9,1.06-3.21,1.25-.48,2.51.4,3.67.6,5.62,1,10.41,1.52,15.02-2.46,1.19-1.03,3.56-5.03,4.8-1.87,1.49,3.84,2.57,11.28,3.17,15.51.51,3.6,1.76,10.32.19,13.45-1.19,2.38-4.41,5.07-6.91,2.88-2.89-2.53-2.25-10.32,2.2-10.93Z"/>
        <path class="cls-2" d="M121.36,216.39l-2.06-3.74c-7.64.37-16.4-1.74-19.61-9.42-3.26-7.8-1.51-16.67-.81-24.81-1.66-5.1-6.32-11.52-5.16-17.02.54-2.6,3.23-3.03,5.31-1.81,4.41,2.57,4.49,14.94,4.03,19.46l3.62,6.54c7.82-4.84,16.11-.58,19.27,7.41,1.24,3.12,1.26,6.02.69,9.32-.56,3.25-2.61,6.42-4.71,8.91l3.06,7.56c.64,2.79-1.19,5.67-4.27,5.08-2.75-.53-3.2-7.85.66-7.47ZM98.32,161.5c-.36-.37-1.83-1.17-2.29-.87-.86,2.53.27,5.51,1.26,7.9.58,1.38,1.56,3.2,2.45,4.36-.14-1.97.61-4.32.52-6.23-.05-1-1.26-4.45-1.94-5.16ZM115.49,207.58c.28-.29-1.54-3.21-1.99-3.49-.61-.38-2.33-.6-3.27-1-3.85-1.65-5.58-4.3-5.95-8.46-.17-1.86.49-4.95.2-6.34-.18-.9-1.74-3.13-2.34-3.93-.11,1.1-.48,2.23-.55,3.33-.21,3.38.72,12.48,2.19,15.44,1.99,3.99,7.68,5.09,11.7,4.45ZM110.78,191.66c2.46-2.38,6.45.51,7.87,2.75,2.54,4,2.18,6.97-2.09,9.3.96.79,1.37,2.95,2.92,2.4,1.8-.65,4.21-4.24,4.27-6.18.11-3.65-1.07-9.27-3.85-11.83-2.93-2.7-9.28-3.3-12.11-.1-.05.25,1.68,4.22,1.98,4.62.5.68.57-.54,1.01-.97ZM106.94,191.84c-.74-.71-.55,1.96-.53,2.26.33,3.48,1.76,6.15,5.33,7.07l-4.81-9.34ZM115.24,201.7c5.77-1.06.98-9.47-2.78-8.54-2.16,3.25,1.68,5.65,2.78,8.54Z"/>
        <path class="cls-2" d="M119.16,88.07c1.48-.24,5.18,2.37,5.39,3.84.26,1.78-1.97,3.74-3.19,5.06-2.4,2.61-5.64,5.95-8.28,8.27-1.09.96-3.65,3.16-5.01,3.28-2.15.19-3.54-4.66-3.13-6.35,3.01-2.34,10.95-13.57,14.21-14.1Z"/>
        <path d="M63.97,157.68c-2.62-2.02-3.3-6.51-2.93-9.61.47.11.59.62.73,1.01.64,1.79,1.67,5.39,2.09,7.26.1.45.17.89.12,1.35Z"/>
        <path d="M65.31,145.93c.01,1.45,2.69,8.59,2.14,9.34-.27-.11-.63-.23-.81-.46-1.02-1.33-2.35-6.93-1.87-8.48.12-.38-.16-.48.54-.4Z"/>
        <path d="M71.71,150.74c-2.1-.94-2.04-4.11-2.13-6.14.69-.09.79.54,1.01.99.38.81,1.56,4.55,1.13,5.14Z"/>
        <path d="M148.05,76.54c.41.4-2.54,3.24-2.93,3.61-.52.48-4.99,4.23-5.34,3.86-.12-.54.12-.71.39-1.08.59-.81,2.52-2.61,3.34-3.33.49-.42,4.19-3.4,4.54-3.06Z"/>
        <path d="M145.38,73.08c.14,1.65-6.76,7.35-7.47,6.67-.03-.49.41-.93.69-1.31.71-.95,4.44-4.29,5.46-4.95.42-.27.79-.49,1.32-.41Z"/>
        <path d="M149.92,80.28c-.24,1.16-5.43,5.71-6.14,5.07-.12-.5.28-.63.53-.93.56-.68,5.04-4.6,5.61-4.13Z"/>
      </g>
    </g>
  </g>
</svg>