<?xml version="1.0" encoding="UTF-8"?>
<svg id="Layer_2" xmlns="http://www.w3.org/2000/svg" version="1.1" viewBox="0 0 48.3 42.5">
  <!-- Generator: Adobe Illustrator 29.6.1, SVG Export Plug-In . SVG Version: 2.1.1 Build 9)  -->
  <defs>
    <style>
      .st0 {
        fill: #fff;
      }
    </style>
  </defs>
  <g id="Layer_1-2">
    <g>
      <polygon class="st0" points="2.2 29.4 .8 30.9 .5 32.5 1 34.2 3.1 34.3 5.1 32.7 6.1 31.6 6.9 31.2 13.1 33.3 11.5 34.2 10.8 36.8 11 37.5 12.2 38 14.2 37.7 16.4 36.3 17 34.6 23.5 37.4 23.4 38.6 24.2 41.2 26.3 41.8 28.5 41.1 29.8 39.6 29.7 38 32.2 38.2 39 38 42.4 36.7 44.6 35.3 45.9 33.1 46.8 30.4 47.5 27.2 47.8 23.8 46.1 24 44.9 23.2 43.2 21 42.6 19.4 43.6 17.4 42.2 16.7 40.2 17.3 37.5 17 33 16.7 32.7 12.5 32.5 10.6 31.9 9.8 30.8 10 30.7 16.6 30.6 17.6 28.9 17 25 16.2 25.2 9.5 23.2 9.4 22.8 12.4 22.9 14.1 22.4 15.2 21 15.5 16.9 14.2 16.5 7.8 14.6 7.3 14.1 13.2 12.7 13.7 8.6 12.5 8.7 7.1 7.1 7.1 6.5 12.7 4.6 13.5 1.2 18.2 .5 24 2.2 29.4"/>
      <polygon class="st0" points="7.3 4 7.9 4.1 8.8 3 8.2 .8 7.8 .2 7.1 1.1 6.6 2.9 7.3 4"/>
      <path class="st0" d="M14.8,5.3c0,0,.9.6.9.6l1-.7v-1.6c0,0-.8-1.7-.8-1.7l-.5.8-.6,1.4v1.2c0,0,0,0,0,0Z"/>
      <polygon class="st0" points="22.9 6.5 23.5 7.6 24.5 7.7 25.2 7 24.8 5.1 24.3 3.7 23.9 4.5 22.9 6.5"/>
      <polygon class="st0" points="31.5 4.2 30.8 7.5 31.5 8.1 32.8 7.4 32.7 6.2 32 4.3 31.5 4.2"/>
      <g>
        <path d="M13.6,13c.1-.8.3-1.6.4-2.4,0-1,0-2.1.2-3.1.2-1.1,1.5-.4,2.2-.2.2,0,.4,0,.6,0,.5.2.2,1.7.2,2.1,0,1.5.2,2.9.2,4.4,1.7,0,3.3.5,4.9.9,0-1,.3-1.9.4-2.9,0-.2,0-.4,0-.7,0-.4.2-1.9.4-2.2.1-.2.2-.2.4-.3.2,0,1.3,0,1.5.1.1,0,.7.3.8.3.5.4.2.7.2,1.2,0,.8,0,1.5,0,2.3,0,1,0,1.9-.1,2.9.5.2,1.1.3,1.6.5.2,0,.5.3.6.3.2,0,.7-.4,1.1-.3.2,0,1.3.7,1.4.6,0-.4,0-.8,0-1.2,0-1.1.3-2.3.3-3.4,0-.6-.1-1.1,0-1.8.3-1.3,2.2-.9,2.4,0,.3,1.1.2,2.7.2,3.8,0,.3.1.7.2,1.1,0,.2,0,1.1,0,1.2,1.3,0,2.5-.3,3.8-.2.5,0,1.2.2,1.7.3.3,0,1.1.4,1.3.4s.7-.3.9-.5c.7-.3,1.9-.5,2.5,0,1.1.7.2,2.4-.2,3.3l1.8,3.2c.2.2,1.5.2,1.9.3.7.2,1.2.7,1.3,1.3-.2,1.9-.5,3.8-.9,5.6-.5,2.2-1.3,4.7-3,6.2-3.1,2.7-8.5,2.5-12.4,2.8-.5,0-1.1,0-1.6,0,0,.2,0,.4,0,.6,0,.5-1.7,2-2.2,2.3-1.8,1.1-3.1.8-4.4-.7-.7-.8-1.4-2.2-1.2-3.3h0c-1.4-.7-2.8-1-4.2-1.7-.2,0-.7-.5-.9-.4,0,0-.4.7-.6.9-.9,1-3.3,1.9-4.6,1.8-.5,0-1.6-.5-1.9-1-.3-.7-.2-1.1,0-1.8.2-.8.6-1.6,1.3-2l-5.3-1.9c.2,1.4-2,2.7-3.2,3-1.2.3-2.5.4-2.9-1-.4-1.2-.2-2.4.3-3.6.2-.6.6-.8.9-1.3l-1.2-3.4c-.8-4.1.6-9.2,3.8-11.9.6-.5,1.3-.8,2-1l.6-5.9c.3-.4,1.8-.2,2.3,0,.8.2.3.7.2,1.2-.2,1.1,0,2.1,0,3.1,0,.2,0,.9,0,1,1.5.1,3,.4,4.3,1h0ZM8.2,7.6h-.8c.1.9,0,1.7,0,2.5v1.1c0,.9,0,1.8,0,2.7.6,0,.6-.9.6-1.4,0-.8,0-1.5,0-2.2,0-.4.4-2.6.1-2.8h0ZM15.8,17.9c-.2-.8,0-1.5,0-2.2,0-1.5.1-3,0-4.6l.2-2.7c0-.4-.6-.2-.9-.3-.1,0-.1.2-.1.2-.1,1.4.1,3.1,0,4.5,0,1.5-.4,3-.2,4.5,0,.5.5.6.9.6ZM24.7,9.8c-.3-.2-1,0-1,.3,0,.2.1.7.1.9,0,.5,0,1.1,0,1.5,0,1.5-.3,3.5,0,4.9,0,.4.4.9.8.8.2-2.3.1-4.6.2-6.9,0-.5.2-1,0-1.6h0ZM32.3,16.6v-5.4c-.2-.2,0-.6-.2-.8-.1-.3-.9-.2-.9.1l.2,6.3.9-.2h0ZM13.9,14.7c-.5,0-1-.3-1.5-.4-.4-.1-.9-.1-1.2-.2-.8-.2-1.7-.7-2.5-.9-.2.2.1.7.1.9-.1.4-1.1,1.1-1.5.7,0,0,0-.2-.2-.3,0-.1-.2-.1-.2-.2,0-.2-.1-1-.2-1-.7,0-1.1.6-1.6,1-1.1.9-1.5,1.4-2.2,2.6-1.6,2.8-1.7,6.8-1.1,9.9,0,.4.6,2.3.8,2.4,0,0,.6,0,.8,0,.4.1,1.2.8,1.8,1,1.6.6,4,1.3,5.7,1.8,1.2.4,2.6.5,3.8.9.3.1.6.4.9.6.9.5,2,.7,2.9,1.1,1.5.6,3.1,1.4,4.6,1.8,1,.2.8,0,1.6-.3.7-.2,1.6-.5,2.3-.4s1.6,1,2.2,1.2c.1,0,.2,0,.4,0-1.1-1.1-2.3-2.1-3-3.5-1-1.8-2-4.6-1.9-6.7,0-.6.3-1.2.8-1.6.3-.2.8-.4,1-.7.1-.2.1-.5.2-.7.4-1.1.9-2.1,1.3-3.2-.6-.9-1.5-1.9-1.1-3.2l-1.7-.5c-.2.7-.1,1.2-.1,1.9-.4.5-1.2.3-1.6-.1-.5-.5-.3-1.5-.4-2.2,0,0-1.2-.1-1.4-.2-1-.2-2.1-.6-3.1-.8-.7-.2-1.3-.4-2-.7.1.6-.2,1.3-.2,1.9s.3,1.4-.2,1.9-1.5.6-2,0c-.4-.5-.3-1.8-.4-2.4,0-.2-.1-.5-.1-.7,0-.2.1-.5,0-.8h0ZM26,26.5c0,.6.1,1.4.3,2,.4,1.1,1.1,2.6,1.6,3.7.4.8,1.3,2.5,2,3,3.4,2.3,6.4,2,10.3,1.6,2.3-.2,3.8-2.2,5-4,1-1.6,1.6-3.9,1.9-5.8,0-.6.3-1.8,0-2.4s-1.1-.3-1.6-.4c-1.3-.1-1.8-1.8-2.4-2.8,0-.1-.3-.2-.4-.4-.1-.2-.7-1.4-.7-1.5,0-.2,0-.6,0-.7,0-.1.2-.2.3-.4.2-.3.3-.7.2-1-.5-.9-1.1,0-1.6.3-.3.1-.8.2-1.1.3-1.4-.3-2.8-.8-4.2-.7-.5,0-1.6.1-2,.3-.6.1-2.1,1.1-2.5,1-.3,0-1.3-.8-1.8-.8-.2,0-1.1,0-1.2,0-.2.2,0,.6.1.8.3.5,1,1,1.3,1.5.2.4-.2,1.1-.4,1.5-.5,1.3-.9,2.5-1.7,3.7-.3.5-.8.8-1.4,1h0ZM2.8,30c-.7,0-1.4,1.2-1.5,1.9,0,.4,0,1.3.3,1.5.7.5,1.8-.4,2.4-.7.3-.2,1.7-.6,1.2-1.3-.2-.3-1.1-.7-1.4-.9,0,0-.1-.2-.2-.3-.2-.1-.5-.3-.7-.3ZM11.2,37.3c.2.4,3.2-.2,3.7-.4.6-.2,1.7-1.3,1.4-2-.1-.3-1.4-1.2-1.7-1.2-.7-.2-1.9.2-2.4.6-.3.3-1.1,2.8-1,3.1h0ZM27.8,36.8c-.8-.8-1.6.1-2.4.4-.4.2-.9.2-1.2.5-.5.5-.5,1,0,1.5.3.4,1.4,1.4,1.8,1.6.1,0,.5.3.6.3.2,0,.9-.5,1.2-.7.4-.3.8-.7,1.2-1.1,0-.2-.1-.5-.2-.7-.1-.4-.8-1.7-1-1.9h0Z"/>
        <path d="M32.9,7.8c-.6.6-2.2.6-2.5-.2-.1-.5.4-2.2.5-2.8,0-.2.3-.9.5-1,.7-.2.8.7,1.1,1.1,0,.2.3.2.4.5.2.6.5,1.9,0,2.4h0ZM31.9,4.7c-.1-.1-.2.4-.3.5-.2.7-.2,1.4-.5,2.1,0,.6,1.3.4,1.4-.2,0-.2-.5-2.2-.6-2.3Z"/>
        <path d="M24.1,3.4l.3.2c.5,1.1,1.1,2.2,1,3.4-.1.8-.8,1.3-1.6,1-.3,0-.9-.6-1-.8-.5-.9.8-3.1,1.3-3.8ZM23.7,7.3c.1.1.6.1.8,0,.6-.3,0-2.4-.4-2.8-.3.6-.8,1.4-.7,2.2,0,0,.2.5.2.6Z"/>
        <path d="M15.8,1.8c.3,0,.8,1,.9,1.3.3.9.6,2.3-.3,2.9-.5.4-1.5.1-1.8-.4-.1-.2-.1-.7,0-1,0-.4.8-2.2,1-2.5,0-.1.2-.2.3-.3h0ZM15.9,2.7c-.2-.2-.5.7-.5.8-.1.4-.1.9-.3,1.3,0,.4.6.8,1,.5.5-.6-.1-1.9-.2-2.6Z"/>
        <path d="M6.6,3.7s-.2-.7-.2-.7c0-.8.7-2.3,1.3-2.9.4-.3.9.6,1,.9,0,.2.5,1.6.4,1.8,0,0-.5,1.1-.5,1.2-.2.4-.7.5-1.2.3,0,0-.7-.6-.7-.6h0ZM7.8.6c-.1,0-.2,0-.2.1-.2.4-.7,1.6-.7,2s.2.7.3.7c.2.2.7.2.9,0,0,0,.3-.5.3-.7,0,0-.6-2.3-.6-2.3Z"/>
        <path d="M6.9,27.2c-.3.2-.6-.7-.7-.9-.1-.3-.8-2.3-.6-2.5.1,0,.2,0,.3.2.3.4,1.1,2.5,1.1,3,0,0,0,.2,0,.3h0Z"/>
        <path d="M4.3,23.1c.1.5,1.2,3,.9,3.2,0,0-.2,0-.2,0-.3-.2-1.1-3-.9-3.2h.2Z"/>
        <path d="M8.9,25.5c.2.2.9,1.8.9,2.1,0,.3-.2.3-.4,0s-.9-2.1-.7-2.3c0,0,.2,0,.2.1Z"/>
        <path d="M7.4,25.3c.2,0,.2.1.3.3.2.3.7,1.5.7,1.7,0,.1,0,.2-.1.3-.2,0-.3-.5-.4-.6-.2-.5-.3-1.1-.5-1.6Z"/>
        <path d="M45.7,27.1c-.5.3-.8-.3-1.2-.5,0,.3-.1.7-.2,1-.2.4-.6.9-.6,1.1-.3,1-1,2.2-1.8,2.9-1.4,1.4-3.9,1.4-5.8,1.6-.3,0-.5.2-.8.2-2.7.3-5.6-2.2-6.6-4.5-.4.1-.2.5-.8.5-.8-.1-.6-1.6,0-2,.3-.3,1.7-.8,1.8-.2.2.7-.6.2-.9.6-.2.3,0,.3.2.4,1.2,1.8,2.6,3.7,4.9,4.2,1.4.3,4.3,0,5.8-.5.3-.1,1-.3,1.2-.6.5-.6,1.1-1.4,1.5-2,.7-.9,1.2-2,1.9-2.9,0-.1,0-.1-.1-.1-.3,0-.8.2-1.1,0-.3-.6.2-.6.6-.7,1,0,2.1.1,2,1.3h0Z"/>
        <path d="M31.3,22.3c1.5-.3,3,.8,2.8,2.4-.1,1.2-1.5,1.8-2.6,1.4-.8-.4-1.5-1.8-1.3-2.6.1-.5.6-1,1.1-1.1h0Z"/>
        <path d="M39.4,21.5c.9-.2,2,1,2.1,1.9.1,1.1-1,2.2-2.1,1.7-.8-.4-1.2-1.2-1.1-2.1,0-.5.6-1.4,1.1-1.5Z"/>
        <path d="M36.7,25.9c.8,0,1.8,0,2.2.6,1.1,1.7-2,2.3-3.1,2.4-1.2.1-2.3-.4-1.7-1.7.4-1,1.6-1.2,2.6-1.3ZM36.1,26.6c-.3,0-1.5.4-1.2.9s2,.5,2.4.4c.3,0,1.4-.5,1-.9-.3-.4-1.7-.4-2.2-.3Z"/>
      </g>
    </g>
  </g>
</svg>