<?xml version="1.0" encoding="UTF-8"?>
<svg id="Layer_2" xmlns="http://www.w3.org/2000/svg" xmlns:xlink="http://www.w3.org/1999/xlink" version="1.1" viewBox="0 0 405.2 288.8">
  <!-- Generator: Adobe Illustrator 29.6.1, SVG Export Plug-In . SVG Version: 2.1.1 Build 9)  -->
  <defs>
    <style>
      .st0 {
        fill: none;
      }

      .st1 {
        fill: #fff;
      }

      .st2 {
        fill: #2864ae;
      }

      .st3 {
        fill: #ad80f9;
      }

      .st4 {
        clip-path: url(#clippath);
      }
    </style>
    <clipPath id="clippath">
      <rect class="st0" x="19.8" y="43.9" width="365.7" height="200.9" transform="translate(-30.5 57.4) rotate(-15)"/>
    </clipPath>
  </defs>
  <g id="Layer_1-2">
    <g id="Group_496">
      <g class="st4">
        <g id="Group_277">
          <path id="Path_367" class="st1" d="M215.6,161.1l1.4-.2,1.2-1.3,1.1-2.3h1.2l1.3,1.1,1.4,1.7.6,2.2s-.7,1.9-.7,2-1.2,1.9-1.3,2c-.8.7-1.6,1.4-2.5,1.9-.3,0-2.6.9-2.8.9s-2.8-.2-2.8-.2h-.6c0-.1,1.5-7.5,1.5-7.5l1.1-.3h0Z"/>
          <path id="Path_366" class="st1" d="M203.4,151.4l1.8-2.6,3.2-.6,3,.3,3.2,2.1-.4,1.5s-3.7,1.4-3.9,1.4-2.6,1.1-2.6,1.1l-1.4,2-2.1,2.5h-1.8c-.1,0-.4-2.9-.4-2.9l1.4-4.7h0Z"/>
          <path id="Path_365" class="st1" d="M159.2,196.9l1.9-.6h1.2l1.4-1.4.8-.9,2.3,1.3,1.6,2.6c.3.8.5,1.5.7,2.3-.4.6-.9,1.2-1.4,1.8l-3.1,1.2s-3,.5-3.2.6-2.1-.1-2.1-.3-.8-2-.8-2.4v-2.8c.2-.4.4-.9.6-1.3h.1Z"/>
          <path id="Path_364" class="st1" d="M226.5,93.3c.2,34.7,30,60.4,30,60.4l13.6,7.9,1.2-9.2,5.7-4.8,10.1-11.3,7.9-12.9,5-12.2,5-6.2.7-6.1-1-3.3.8-2.6-1.2-4.7-3-1.7s-8.4-4.1-9.2-4-10.6-4.8-10.6-4.8l-11.7-5.7-6.2-3.2-9-1.4-9.9,3.2-6.1-3.3-2.4-6-2.7,4.4-5,9.9-1.9,8.3-.5,5.7.5,3.4h0v.2Z"/>
          <path id="Path_363" class="st1" d="M213.4,85.9c-6.9,7.9,6.9,55.9,6.9,55.9l-31,4.4,11.8,6.6-6,6.2-9.9-5.5s-4.4-4.6-4.6-4.8-10-1.7-10-1.7l-3.7,3.9,2.8,3.2,19.7,6.9,7.9,4.3,3.3,3.7,1.5,8.6s-1.2,5.2-1.3,5.9-1.5,1.3-1.5,1.3l-1.3-.5-2.7-4.1-2.8-4.5-2.6-2.4-3.1-2-3.8-1.6-5-1.3-6.9-2.2-13.1-4.1-5.5-4.8-.5-3.6-10.1,2.9,16.8,25.4-4.2,3.3-1.4,3.6-1.1,4.9-2,1.1-2.4-1-1.2,1.9-1.9,2.2-1.7-1.7.4-4,.3-4.4,3.8-2,4.6-1.8-2.5-4-10.4-13.4-3.7-7-4,.6-.2,3.7.4,5.9s1.5,15.8,1.5,16,1.6,9.1,1.7,9.2,3.4,3.6,3.6,3.8,3.6,3.9,3.7,4,2.9,2.7,2.9,2.7l.9,4.2s-1.1,4.6-.9,4.9-2.7,2.7-2.7,2.7h-2c-.5-1-1-1.9-1.4-2.8,0-.4-3.8-5-3.8-5,0,0-5.9-5.1-6.5-5.2s-2.7-2.4-2.7-2.4c0,0-.6-4.1-.6-4.4s-.7-4.6-.7-4.6l-1.1-3.8-1.9-8.7-2.4-7.3-.7-7.9-5.8,2.8-5.8,8.5s-5.1,4.5-5.3,4.6-4.7,2.2-4.7,2.2c0,0-5.3,4.4-5.6,4.8s-10.6,6.4-10.6,6.4l-7.1,4.4-3.8,4-8.1,10.2s-3.5,7.3-3.5,7.5-2.1,12.6-2.1,12.7,0,4.1,0,4.1c0,0,7.7,17.1,7.8,17.5s3.7,4.7,4,4.9,5.3,4.4,5.8,4.8,6,2,6.2,2,7.1-.9,8.4-1,8.3-1.9,8.7-2.1,7.4-4.4,7.4-4.4c0,0,5.4-9.3,5.5-9.5s.2-9.7.2-9.9-1.9-5.4-1.9-5.4l-3.3-5.5s-3.6-3.8-3.8-3.9-6.4-2.8-6.4-2.8l-7.3,1.9-6.4,4.3-3,6.5s.3,7.5.4,8,2.4,5.1,2.4,5.1c0,0,5.8,3,5.9,2.9s8.2-2.1,8.2-2.1l3.4-2.7,1.3-3.4-.7-3.9-3.3-3.6-3.1-1.2-3.6.5-3.1,2.5v3.2l2.7,2.5,3.2-1.6,1.6.5v1.3l-6.7,2.5-2.2-1.3-3.1-3,1.1-6.3,4-4.3,8.2-2.1,7,2.7,4.8,8.4v8.7c0,0-5.4,6.7-5.4,6.7,0,0-9.3,3.8-9.8,3.9s-7.3,0-7.3,0l-5.8-3.2-4.3-3.9-3.2-6.4-.5-7.1,1.4-6.9,4.4-7.5,5.5-5.6,8.4-4.5,9-.5,9.7,3.7,7.2,7.4,4.9,11.3.8,9.9-2,9.3-4.1,5.2-7.3,8.7-12.1,7.4-12.9,3-11.2-1.6-6.8-2.7-8.7-5.5-6.1-5.1-5.2-8.5-4.2-13.5-1.5-17.2,1.2-15.8,2.2-13,5-15.1,10.8-19,15.8-18.1,20.6-27.4,8.8-14.9,16.7-15.6,16.4-8.3,10.8-3.3,16-.5,9.9,4.6,15.5,11.4s-6.6-2-.1-8.1,25.8,1.5,25.8,1.5l-.8,2.6h-.3Z"/>
          <path id="Path_76" class="st3" d="M68.7,242c-2.5,2.3-4.8,3-3.3,7.1,1,2.8,6.7,10.2,10.3,9.7,1.1-.2,2.5-1.1,3.2-1.4-.6-.4-1.1-.7-1.7-1.1-1.3-.9-2.4-1.9-3.5-3-1-1.1-1.9-2.3-2.6-3.5-.8-1.2-1.4-2.6-1.8-4-.3-1.2-.3-2.5-.6-3.8"/>
          <path id="Path_77" d="M168.4,196.7c-.4-.8-1-1.5-1.7-2.1-.4-.3-.8-.5-1.2-.7s-.9-.3-1.4-.3c-.7.2-1.1,1.1-1.6,1.6s-1.5.8-2.4.9c-.5,0-1,.2-1.3.5s-.5.7-.7,1h0c-.4,1.4-.3,2.9-.6,4.2,0,1,.5,1.9,1.3,2.6.6-.2,3.1.1,4.1,0,1.9-.3,4.9-1.4,6.1-2.9,1.1-1.2.4-2.4.3-3.1-.2-.6-.5-1.2-.8-1.8M160.9,203.1c-1.9-.9-2.3-3.4-1.5-5.2s1.2-.9,2.3-1.1c1.4-.2,1.8-1,2.5-2.1,2.6.5,3.7,2.9,4.4,5.2-1,1.9-5.8,4.1-7.7,3.1"/>
          <path id="Path_78" class="st2" d="M161.2,195.4c-.4-.1-.8-.1-1.2,0-.1,0-.2.1-.3.2h.4c.4,0,.8,0,1.1-.1"/>
          <path id="Path_79" d="M200.8,166.6l-.6-.6c.8.8,1.4,1.7,1.8,2.7.3.8.6,1.6.7,2.5-.2-1.7-.8-3.4-2-4.7"/>
          <path id="Path_80" d="M202.7,151.3c0,.6-.2,1.2-.4,1.8-.1,1-.3,2-.6,3-.2,1-.4,2.1.2,3,1.1,1.6,3.1.3,4.1-.8.6-.7,1.1-1.4,1.6-2.2.6-.9,1.5-1.6,2.5-2,1.1-.4,2.4-.5,3.5-1,.7-.4,1.5-.9,1.7-1.7.2-1-.6-1.9-1.3-2.3-.7-.4-1.5-.8-2.3-1.1-3.8-.8-7.4-.4-8.8,3.3M214.1,151.3c-.8.8-1.8.4-2.7.7-2.2.8-4.2,2.2-5.7,4-.8.9-.9,2.4-2.4,2.5-.7-2.3,0-8,2.3-9.2,1.8-.9,7.6-.2,8.4,2"/>
          <path id="Path_81" d="M224.5,161.8c-.1-.5-.3-.9-.5-1.4-.4-.8-.9-1.6-1.5-2.3s-1.4-1.2-2.4-1.4c-1.1-.1-1.7.7-2,1.6-.2.8-.8,1.4-1.5,1.7-.5.2-1,.2-1.5.4-.4.2-.7.6-.9,1-.3.8-.5,1.6-.5,2.4-.2,1.9-.6,3.7-1.1,5.5,5.3,2,11.8-1.7,11.9-7.5h0ZM222.9,163.9c-.1,1.3-2.6,3.4-3.9,3.9-2,.8-3.4.3-5.5.3-.2-.2,1.1-5.7,1.3-5.9.8-1,2.1-.4,3-.9,1.1-.7.9-3.2,2.2-3.4,2.1-.4,3.1,4.6,2.9,6"/>
          <path id="Path_82" d="M217.3,143.8c.8-.4,1.6-.9,2.3-1.4,1-.6,2-1.1,2.9-1.8-3.7,1.1-9.7,1.9-12.9,2.1-8.1.7-16.2,1.6-24.4,2.5-2.9.3-5.9.2-8.7.9-.2-.5.6-.4.9-.5,2.9-.9,5.8-1.6,8.6-2.6,4.7-1.7,7.4-3.7,12.6-4.5,1.2-.2,2.3.1,3.5-.1-.4-2.3-4.5-1.9-6.2-1.2-7.4,3.2-15.1,5.9-22.8,8.2-2.9.8-4.5.2-6.1,3.1-.9,1.6-1.3,2.9,0,4.4,3,3.4,14.9,6.2,19.5,8,.9.3,1.8.7,2.6,1.1.8.6-.4,2.6-.3,3.4.8-.8,1.1-1.8,1-2.9,1.9,0-.7,4.9-.4,5.1,1.7-.9,1.2-3.1,2.1-4.4,2,1.3.4,2.7.3,4.6l1.4-3.3c2.9,1.6,5.6,2.7,6.7,6,.8,2.4,1.4,8.9.6,11.2-.6.9-1.3,1.8-2,2.6-2.9-2.7-4-6.7-6.7-9.7-5.8-6.3-23.4-9.4-32-12.8-3.5-1.4-7.1-2.8-6.4-7.2,1-6.9,7.8-11.6,13.2-15.6,4.5-3.3,17.1-10,19.6-13.8,1.7-2.6.8-6-.8-8.4-.4-.6-2.1-2.9-2.8-1.6,1.9,2.7,3,5.3.5,8.1-2.3-.8-4.2-1.9-6.7-.7-.9.4-1.8,1.8-2.7,2-1.5.2-4.5-.9-6.1-.8-1.1,0-2.5.7-3.9.9-1.4.2-3,0-4.3,0-5.5.6-14,2.5-19.3,4.2-.8.2-5.6,2.1-5.9,2.3-.8.9,2.3,2.6,3.1,2.8,3,.9,10-1.4,13.6-1.8,5.1-.5,10.2-.4,15.2.1l6.2-.7c0,.4-.3.5-.6.7-5.1,3.9-13.3,9.3-16.8,14.3-.8,1.2-2.4,4.8-2.9,5.3-1.5,1.5-5.4,2.1-7.4,2.8-4.1,1.5-8.1,3.1-12.2,4.4,0-5.1-.2-10.2-.6-15.2-.2-3.2-.5-7.9-1-11-.9-5.1-4-9.2-9.8-6.8-7.3,3.1-16.2,16.5-22.8,22.3-3.4,3-10.8,7.4-11.8,11.7-.6,2.7,1,7.4,3.6,8.6,0-1.3-1.1-2.2-1.5-3.5-1-3.9.7-6.6,3.5-9.2.2,1.5.3,3.2.9,4.6.2.4.4.8.7.2,0-2-1.2-5.5.6-6.9l1.2,4.4c.9-.1.4-.3.4-.8,0-.9-.6-4.2-.3-4.6,2.4-2.3,4.8-4.6,7.3-6.8,1.4-1.2,3.2-2.2,4.6-3.5,4.2-3.8,8.8-12.5,14.8-13.4,1.1-.2,4,.3,4.7,1.2,2.7,3,2.1,12.3,2.3,16.4.7,11.2,1.4,22.2,1.8,33.4.1,2.9,1,7.5.7,10.1-.1.9-1.5,2.2-1.6,2.8-.2,1.4,2.2-1.7,2.2-1.9,1.2,2.1-2,2.8-1.1,4.7l1.9-1.7c1,3.6,4.8,4.9,7.3,7.3,1.2,1.2,3.6,4,4.2,5.6,1.4,3.7-1.2,7.2-3.7,9.9-1.4-3.3-3.1-6.8-5.5-9.5-2.6-2.9-6.2-4.4-8.8-7.2-.2-1.1,0-2.4-.2-3.5-1.5-9.7-5.7-18.7-7.2-28.3-1-6.2,1.8-13.2.3-19.5l.3-9.7c-.6,1.2-1.6,2.3-2.2,3.5-1.9,3.7-1.4,8.2-2.6,12.5-1.5,5.1-4.1,12.6-6.8,17.1-1.9,3.1-4.5,3.3-7.9,3.1,0,.7.3.4.7.6,1.4.4,2.9.4,4.2-.1-.7,2.7-3.8,3-6.2,3s-3.5-1.1-5.3-.8c1.1,1.6,3.4,1,4.7,1.9-1.7.3-3.5.2-5.2-.2-1.1-.2-5.4-2.4-5.9-1.8,1.2,1.4,3.2,2.3,4.9,3,.7.3,3.3.5,3,1.3-.2.6-3.5,3.5-4.3,4.1-1.7,1.2-3.4,2.4-5.2,3.3l-10.8-.5,4.3,1.7,4.1.4c-2.4,1.7-4.9,3.1-7.4,4.6-.6.4-3.3,2.6-3.5,2.7l-4.9,1.3,2.5.5c-3,3.9-6.6,7.4-9.2,11.6-5,1.7-12.1.9-16.4-2.1-.7-.5-2.9-2.3-3.2-2.9-.5-.8,1.6-9.4,2-11,1.3-4.8,3.1-9.4,4.9-13.9,1,3.6,2.9,7.4,6.5,9.1-.9-2.5-3-4.6-4-7-.6-1.5-.7-3.1-1.5-4.5,7.3-18.4,22.9-32.1,35.1-47.4,3.9-4.8,6.9-10.2,10.4-15.3,5.8-8.4,12.3-16.3,19.5-23.7.5-.3.3,0,.5.2.9.7,4.7,5.1,4.5,6l-23.7,27.1c7.2-5.7,12.1-13.9,18.6-20.3,9.1-9.1,16.8-12.6,28.1-17.9.3,0,4-2,3.2-2.2-3.7.8-7.3,2.2-10.8,3.5-.9-3.3-3.1-6-5.3-8.5,2.7-1.1,5.2-2.6,7.9-3.6,7-2.5,14.6-3.1,22-2.7.5,2.1,1.9,9.1.7,10.9-.6.9-4.9.6-6.1.8-.3,0-1.1,0-.9.5,8.9.2,17.9.2,25.6,5.1.4.3,2.1,1.7,2.3,1.7,1.4,0-.4-1.7-.7-1.9-1.8-1.5-3.9-2.3-6-3.4,1-.6,1.6-1.6,1.8-2.7l-.3-4.4c12.8,8.5,21,21.3,30.2,33.1,2,2.5,5.4,5.2,6.3,8.5.5,1.9.2,4.7.6,6.7.4.3,1.5-2.3,1.6-2.7,1.1-3.3.4-4.6-1.5-7.3-2.3-3.3-5.8-7.1-8.4-10.4-4.2-5.3-15.1-18.2-16.1-24.3-.4-2.3.5-3.2,2.6-4l3.5,2.4-1.6,1.9c-.7,2.4,3.4,7.8,6,8.4.8,0,.2-.2,0-.5-1.1-2.3-3.9-4.3-3.2-7,.7-2.8,6.8-.3,8.9,0,.9,0,4.9.5,5.5.2.2,0,.4-.2.5-.4v-.9c-.8,0-2,0-2.6-.3-.3-.2-1.8-2.6-.8-2.6,2.1,0,4.7,1.5,6.9,2.2.2-.8.4-1.7.6-2.5-2.8-1.3-5.7-2.2-8.7-2.6-4.9-.8-12-1.6-16.6.4-2.1.9-5.8,4.3-4.9,6.8-2.6-2.1-5.1-4.3-7.9-6.2-5-3.4-10.1-6.5-16.3-7.1-21.3-2.1-38.6,8.8-53.1,23-7.1,6.9-9.9,12.9-15.1,20.8-11.6,17.5-27.1,32.4-38.9,49.5-14.2,20.8-18.8,53.2-13.7,77.2,3.3,15.5,10,25,24.4,32.1,19.5,9.6,40.3.8,52.2-16.2,6.3-9,5.5-18.5,2.7-28.3-.2-.5-.4-1-.6-1.4-.7-1.5-1.6-3-2.3-4.5-.7-1.4-1.6-2.8-2.6-4.1-.9-1-1.7-1.9-2.7-2.9-.9-.9-1.8-1.8-3-2.3-.2,0-.3-.2-.4-.4-3.5-1.6-7-3.1-10.9-3.4-15.3-.9-28.7,14.6-27.6,29,.3,1.5.4,3.1.8,4.6.4,1.4,1.1,2.7,1.9,3.9s1.7,2.4,2.7,3.5c2.1,2.2,4.9,3.7,7.5,5.3h0c5.8,2.2,11.8.7,17.1-2.3,6.1-3.6,8-8.2,7.7-15,0-1.1-.4-2.1-.4-2.9-.4-.5-.7-1.1-.9-1.7-.3-.7-.6-1.4-1-2.1-.6-.9-1.2-1.7-1.9-2.5-.6-.7-1.3-1.4-2-1.9-1.4-1-3.1-1.7-4.9-2s-3.6-.1-5.4.3c-1.5.4-2.9.9-4.3,1.6-.6.4-1.1.7-1.6,1.1-.7.5-1.3,1.1-1.9,1.7-.3.7-.7,1.4-.9,2.2-.5,1.3-.7,2.6-.8,4,0,1.2.2,2.4.7,3.5.6,1,1.4,1.8,2.4,2.4.5.4,1.1.6,1.8.7.6,0,1.2,0,1.7-.1,1-.2,2-.6,2.9-1.1.7-.4,1.4-.8,2-1.4.4-.4.9-1,.6-1.6s-.6-.6-1.1-.8c-.4-.1-.9-.1-1.3,0,0,.1,0,.2,0,.2-.8.4-1.7,1.1-2.6,1-1.1,0-1.8-1.2-1.9-2.2-.3-2.2,1.3-4.4,3.4-5.1,1.9-.6,4-.2,5.5,1.1,1.6,1.3,2.7,3,3.3,5,.2.6.2,1.3,0,1.9,0,0,0,0,.2-.1-.6,4.9-6.5,7.2-10.9,7.6h0c-1.4-.1-2.9-.4-4.2-1-2.9-1.4-4.5-4.6-5.1-7.6-.4-1.5-.3-3.1.2-4.7.2-.5.4-1,.6-1.4h0c2.1-7.2,8.6-12.4,16.5-11.4h0c.9.1,1.8.4,2.7.7,2.8,1.2,5.2,3.5,7.1,5.9.8,1,1.5,2.2,2.1,3.4.3.8.5,1.6.5,2.5h0c1,7.6.7,17.7-6.2,22.8-5.2,3.9-15.8,6.9-22.2,5.6-14.7-2.9-22.8-21.3-22-34.8.7-11.8,7-21.5,15.8-29.4,6.2-5.5,11.3-6.1,17.6-10.4,2.2-1.5,5.6-5.1,7.5-6,1.5-.7,3.4-.7,4.9-1.4,4.1-2,6.6-7.5,8.4-11.3l5.6-4.4c.3,3.2.7,6.3,1.3,9.4,1.1,5.1,3.4,10.2,4.4,15.2.8,4.1,0,8.5,2.3,12h0c.7,1.3,2,1.9,3.2,2.4,1.1.5,2.2,1.1,3.1,1.8,1.2,1,2.3,2.1,3.4,3.4,1.4,1.7,2.4,3.6,3.2,5.6.8.5,1.7,2.3,3,2.1,1.4-.2,3-2.8,3.6-4,.3-.6.4-1.7.8-2.4.1-.8.2-1.5.2-2.3.1-1.7-.2-3.4-1.1-4.9-.8-1.3-1.7-2.5-2.9-3.5-1.7-1.6-3.7-3.1-5.2-5.1-2.9-2.1-3.1-6.2-3.5-9.5-1-8.7-.3-17.5-1.1-26.2,5.6,4.6,9.2,11.1,13.7,16.8,1.6,2.1,3.8,3.8,5.1,6.2-4.1-.5-7.9,2.5-8.9,6.3-.3,1-.2,2-.5,3,0,1.6-.2,3.3.9,4.6.7.8,2.1,1.9,3.1.8.3-.4.5-.9.7-1.4.1-.7.2-1.4.6-1.7.9-.4,2.1-.1,3.2,0,1,0,1.9-.5,2.4-1.4.5-1.1.8-2.3.9-3.5.2-1.2.5-2.5.9-3.6s1.1-2.1,2.1-2.9c.9-.8,1.8-1.4,2.8-2.1l-15.8-25,7.8-2.5c-1.2,5.5,7,7.8,11.1,9.2,3.2,1.1,6.5,2.3,9.8,3.4,1.9.7,4,1.1,5.9,1.8h.2c1.7.8,3.6,1.1,5.4,1.5,1.5.3,3,.9,4.3,1.7s2.5,1.8,3.5,3c1,1.3,1.7,2.7,2.2,4.2.2.5.4,1,.5,1.5,0,0,.1,0,.2-.1.9,1.5,2.9,5.9,5.2,4.6,2.7-1.5,2.7-6,3.2-9,0-1.2-.1-2.3-.3-3.5-.3-2.9-1.2-5.9-3.8-7.6-1.3-.8-2.8-1.4-4.1-2-1.2-.6-2.3-1.4-3.3-2.3-7.4-3.9-16.6-4.5-23.4-9.6,2.3-2.9,6.4-2.9,9.8-3.6,4.2,5.7,10.9,7.9,16.7,11.5.6-.4,1.3-.5,2-.9h0c-.4,0-6-3.1-6.7-3.6-.9-.6-1.9-1.4-2.7-2.1,0-.1-.2-.4,0-.4l2.6,1.1-4.3-3.7c-.4-.7,1.2-.7,1.6-.5.9.5,2.5,2.8,3.8,3.3.2-.9-3.5-3.1-3.2-3.5,2-.6,2.7-.2,4.3.9l-.8-1.2h.6c2.8,2.2,6.3,3.9,9.6,5.7.3-.4.6-.9.8-1.5,0-.3.2-.6.2-.9l-9.9-5.7c8.4-.6,17-.2,25.3-2.6M151.1,131.5c-3.8.5-10.7,3-14.1,1.4-.6-.3-1.1-.9-1.7-1.3l5-1.9c6.9-1.4,13.7-2.9,20.6-3.7,3.2-.4,5.9-.8,9-.4,2.5.3,4,.8,6.3-.7.7-.4,1.3-1.4,2.1-1.5l3.5,1.1v.6c-1.6.9-3.1,2.3-4.6,3.2-9.4,5-16.5,2.1-26.2,3.3M205.6,81.8l.2,2.6c-2.5.3-3.6-1.7-4.8-3.4l4.6.8h0ZM199.1,80.5l3,3.1c-3.5-.2-7.3-.7-9.9-3.2h6.9ZM172.7,79.8c3.4-.3,3.4,8.4.7,8.5-2.5-.4-.6-.9-.1-2.3.2-.8.4-1.5.5-2.3l-1.1-3.9h0ZM160.6,75.2h1.9l.3.4c1.2,3.2.9,6.3.7,9.6,2.2-2.9.8-6.8-.2-9.9,1.5,0,2.9.4,4.2,1.1,1.5.7,2.9,1.5,4.3,2.3,1.4,1.3,1.5,8.6-.4,9-.3,0-4.9-1-5.9-1.1-1.4-.2-2.8-.2-4.3-.2.3-.9.5-1.8.6-2.8v-3.9l-1.2-4.5h0ZM125.6,83.6c.7-.4,3.5-2.4,4.1-1.9,1,1.8,4.6,6.5,4.1,8.5-.1.5-.5.3-.7,0-.4-.7-.4-1.7-.8-2.6-.9-1.9-2.6-4.2-4.6-5.1.5.8,1.3,1.3,1.9,2.1.8,1,3.3,5.3,2.9,6.2l-10.6,7.2c-1.3-2.6-3.4-4.7-5.9-6.2,2.9-3,6-6,9.6-8.3M116.5,92.8c.8.5,5,5.2,4.6,5.9l-1.1.3c-.9-2.4-2.9-3.8-4.6-5.6-.6-.7.2-1,1-.5M82.4,235.9c1.2,1.4,3,1.4,2.6,3.7-2.5.1-4.5-1.2-2.6-3.7M87.2,242.9c2,.8,3.2,0,4.4-1.5.5-.1,1,.2,1.2.7h0c-3.3,4.5-10.9,3.1-11.4-2.5l.5-.3c.5,1.3,2.4,1.1,3.2,1.6.7.5,1,1.6,2.1,2M85.4,236.9c-.6-.5-2.2-1.3-2.2-2.1l2.6-2.6c-.4,2,1.9,3.2-.4,4.8M88.9,233.7l-1.8,1.2c-.7-1.9-1.7-3.6.9-4.3l.8,3.1h0ZM40.9,231c4.6,2.4,9.4,2.7,14.2.3,0,3.9,0,7.7.9,11.5-2,5.1-7.3,7.3-12.6,6.7-1.6-6-2.5-12.3-2.6-18.5M44.1,250.9c3.9,0,7.3-.5,10.3-3.2,1-.9,1.5-2.1,2.5-2.9.8,4.1,3.5,7.7,4.8,11.5-2,4.4-6.5,7-11.4,7.1-3.1-3.6-4.8-8.1-6.2-12.6M119.8,239.9c-2.8-1.3-5.8-1.1-8.7,0l-.2-.9c1.7-1.9,4.2-2.9,6.7-2.6,2.5.3,2.1,1.4,2.3,3.5M115.3,225.9c1.1.4,4.1,9.1,3.7,9.8-2.3-.6-4.7-.2-6.7,1-.6.4-.7,1-1.4,1.2-.5-2.7-2.4-4.9-3.2-7.6,1.1-1.6,5.7-5.3,7.7-4.5M71.7,247.1l-1.1-3.9c2.2.1,4.4.2,6.6-.3l1,2.8c-.8,1.9-2.3,3.4-3.9,4.7-.2,0-2.5-3-2.5-3.2M70.5,241.4c2.1.4,4.2.5,6.3-.2l.2.8-5.9.7-.5-1.3h0ZM75,251.5l4.2-4.2c.6.4-.9,3.1-1.3,3.6-.8.9-2.5,2.3-2.9.7M104.8,246.5l-4.7-2.7.2-2.5c1.7-.2,3.4.1,5,.8.5.5-.2,4.4-.4,4.4M105.3,241.1c-.4.1-.5-.4-.9-.6-1.4-.7-2.9-.6-4.4-.3l-.7-1.5c2.8-.4,6.5-1.6,6.1,2.4M102,233.3l2.3,4c-1.8-.3-3.6,0-5.2.7l-1.2-1.5c-.3-.9,3.6-3.5,4.2-3.2M90.1,233.5l-.9-3.2c2.8-.9,5.8-1.5,8.4,0-.8,1.4-1.9,2.8-1.8,4.4-1.8-.9-3.7-1.3-5.7-1.1M96.2,235.3c-.4-1.1,2.1-6.9,3.9-3.2-1.6.6-2.2,2.1-3.2,3.2-.3.3-.6.4-.7,0M99.9,244.7c1.8.6,6.2,2.6,3.8,4.8-.7-1.5-2.5-3.3-4.3-3.5l.5-1.3ZM94.7,249.8l2.2,5.5c1.1-2.1-.7-4.2-1.7-5.9,1.4,0,2.6-2.3,3.4-2.6,1.2-.5,4.3,2.6,4.6,3.6.5,1.7-7,6.2-8.7,6.5,0-2.2-.4-4.4-1.7-6.3l1.9-.8h0ZM91.7,251c1.3,1.9,2,4.1,1.5,6.4-.5.6-7.7,1.3-9,.3,1.4-2,2.1-3.7,1.7-6.1,2,.4,3.9-.1,5.8-.6M84.9,251.3c.6,1.6.2,3.2-.6,4.7-.2.3-1,1.9-1.4,1.7,0-1.3.8-2.4,1.2-3.9.2-.8-.2-2.3.7-2.5M83.3,251.2c0,.9-.9,5.6-1.9,5.6-2.2-1-4.1-2.5-5.6-4.3l2.1-.8,2.1-3.2,3.2,2.7h.1ZM76.5,240.1l-6,.5c-.3-2.9-.3-6.1,1.2-8.8,1.4,1.6,3.3,2.8,5.4,3.4l-.6,4.9h0ZM74.2,232.7c-.3-.2-.8-.3-.8-.8.6.7,4.3,1.4,4.3,1.6.5,1.4-3.2-.6-3.5-.8M80.4,228.3c-.6.7-1.8,3.3-2.2,3.7-1,.8-4.8-1.3-5.7-2.2,1.2-3.1,3.2-5.9,5.6-8.1.8,1.6,1.8,3.6,3.6,4.3-1-1.6-2.9-2.9-3.1-5l1.2-.9c.6,2,2.1,3.4,3.7,4.7,0,.2-2.7,3.1-3.1,3.6M84.2,223.5c-.9-.2-3.9-3.4-3.7-4.2,2.7-1.8,5.4-3.9,8.7-4.7-1.2,1.9-1.7,3.9-.8,6,.7-.7.2-2,.4-2.9.2-1.8.6-3.9,3-3.7-1.3,2.2-1.3,4.9-1.1,7.4-1.8,0-5.2,2.4-6.5,2.1M96.3,222.1c-3.2-1.2-4.8.6-4.4-4.1.2-1.5.6-2.9,1.2-4.2,3.2-.3,6.3.4,9.4,1-2.2,2.6-3.8,5.2-3.1,8.7-.2.4-2.6-1.2-3.1-1.3M99.9,224.2c-.3-.2,0-3.8.2-4.4.6-1.8,1.8-3.4,3.3-4.6l2.6,1.1c-1.1,1-2.3,1.5-3.3,2.8-1.1,1.4-1.6,3.2-1.8,5h-1ZM105.3,228c-1.6-1.9-3.3-1.8-3-4.7.2-2.2,3.1-6.3,5.6-5.7.9.2,5.3,4.4,5,4.8-3.5.7-5.8,2.7-7.7,5.6M106,228.4c0-1.8,5.8-5.4,7.8-5.2l.7,1.2c-3.6.5-5.6,2.7-8,5.1-.2-.4-.5-.6-.5-1.1M111.1,241.4c2.6-1.5,6-1.2,8.6,0,.4,3.4,0,7-.7,10.4h-.6c-1.5-2-4.5-2.6-6.9-2.4.2-2.7.4-5.4-.3-8.1M111.1,250.1c1.7-.4,7.5,1.7,7.1,3.6,0,.3-.9,1.6-1.3,1.5-1.4-2-3.7-3-6-3.6v-1.5h.2ZM108.1,256c.5-.6,1.2-2.5,1.7-2.8,1.3-1.1,6.7,2.1,6.7,3.7s-2.5,3.6-3,4.2c-.3.4-3.6,4.2-3.8,4-.4-2.5-2.3-4.2-4.2-5.7,0-.3,2.3-2.8,2.7-3.4M104.7,260.4c.8.6,1.6,1.4,2.4,2.1.6.9,1.2,1.8,1.7,2.7.2.4.6.4,0,1l-3.7-4.5c-.7-.2-2-1.9-.5-1.4M103,261.7c1.3.2,4.8,4.5,4.4,5.7-.2.6-6.7,5.4-7.2,5.1-.8-2.8-2.4-5.3-4.2-7.6,2,.2,5.5-3.4,7-3.2M95.7,265c.4.2,3.5,6.8,3.6,7.6,0,1-1.2,1-2,1.5,0-3.4-1.1-6.1-3-8.8l1.4-.3h0ZM90.4,267c.8-.2,2-1.3,2.8-.8,1.3.9,3.5,7.3,2.3,8.7-.7.8-5,2.3-6.2,2.6-1.5.3-3.1.5-4.6.6-.3,0-.7,0-.9-.3,2.4-2.2,2.9-7.1.5-9.5,1.9-.8,4.2-.8,6.1-1.3M83.4,278l-.4.4h-2c2.2-2.7,3.2-6.1,3-9.5,2.2,2.6,0,6.3-.6,9.2M82.6,268.6c.3,2.5-1,8.6-3.7,9.7-.5.2-3.2,0-3.9,0s-5-1.5-5.1-1.8c2.4-2.9,4.5-5.8,3.8-9.6,2.8,1.3,5.8,1.9,8.9,1.7M72.3,270.6c-.6,2-2.2,3.6-3.1,5.5-.3.1-.6.1-.8,0-.6-.3-1.5-1.6-2.4-1.9,3.7-1.5,4.9-5,5.4-8.5,2.1.6,1.4,3.3.9,4.9M63.8,258.6c.3,1.3-4.2,6.3-4.7,7.8,1.8-.8,3.6-2.9,4.5-4.5.3-.5.7-2.5,1.2-2.2.3,1.6,4.8,4.6,5,5.5.6,2.9-2.6,8.5-5.9,8.4-.7,0-5.3-2.8-6.2-3.4-2.2-1.5-4.3-3.2-6.2-5,3.6-.5,7.3-2,9.6-4.8.7-.9,1.1-2,1.9-2.8,0,.4.7.8.8,1.1M56.2,222.8c-.7,2.3-.7,4.8-1.6,7-4.3,2.7-9.7,2-13.8-.4-.4-6.9-.7-13.9.6-20.7,4.4,5.4,12,6.8,18.8,5.5-1.2,2.9-3,5.6-3.9,8.6M115.6,164.9c-.2.1-.6.7-.5,0,0-1.6.7-3.6.8-5.4l1.2-4.1c.5,2.8,0,5.8.2,8.6-.6.2-1.1.5-1.6.8M150.7,194c-2.4-1.9-4.4-.8-6,1.4-.2.3-.1,1-.7,1.2-.3-2.6-.9-4.2.2-6.7,1.7-3.7,5.7-5.2,9.4-3.6-2.2,2.2-1.9,5.1-2.9,7.6M157.9,183c-1,.3-2.6,1.9-3.6,1.1-1.1-.9-3.1-4.6-4.1-6-2.1-2.7-4.3-5.4-6.5-8.1-2.1-2.6-4.4-5-6.6-7.5,1.2-1.1,1.1.2,1.9.5l-.6-1.3,1.1-.2c.3,0,2.6,3.9,3.5,4l-2.9-4.2,1.9-.7,5.2,6.9c.6-.2-.1-1.4-.3-1.7-1-1.9-2.7-3.8-4-5.5l1.1-.4,14,23.1h0Z"/>
          <path id="Path_83" class="st3" d="M81.6,234.1c-.5.4-1,.8-1.5,1.1-.5.8-.8,1.6-1.1,2.4-.4,1.5-.3,3,0,4.5s.9,2.9,1.8,4.2c.8,1.2,2,2.1,3.3,2.7,1.3.4,2.6.7,3.9.6.7-.7,1.5-1.3,2.4-1.8,2.3-1.6,4.7-2.9,7-4.4l.3-.6c.2-.7.2-1.5,0-2.2-1.1-3.1-4.2-6.5-7.9-5.2-1.9.6-3.4,2.7-2.9,4.7.2.7.7,1.6,1.6,1.5.6-.1,1.2-.4,1.7-.7h0c.8-1,2.6-.6,3.3.2.7.7.4,1.6-.2,2.3s-1.4,1.3-2.2,1.7c-1,.6-2.1,1-3.2,1.3-1.3.3-2.7.1-3.9-.6-1.1-.6-2.1-1.5-2.7-2.6-1.4-2.5-.8-5.8,0-8.4,0-.2.2-.4.2-.6"/>
          <path id="Path_84" class="st1" d="M107.4,237c0-1-.2-2-.6-3-1.3-2.5-3-4.7-5.2-6.5-1.7-1.4-3.8-2.7-6.1-2.8-.2,0-.3.2-.5.3-1.7,1.1-3.6,2.2-5.4,3.2.7-.2,1.3-.4,2-.5,1.9-.4,3.9-.3,5.8.2s3.6,1.5,5,2.9,2.6,3.1,3.4,4.9c.2.7.6,1.4.9,2,.2-.3.4-.6.7-.8"/>
          <path id="Path_85" class="st3" d="M235.2,152.2c-2-1.9-3.9-4.1-5.5-6.4-1.5-2.1-3-4.2-4.3-6.3-.3.2-.7.4-1,.6-1.3,1.1-2.9,1.9-4.4,2.9-.6.4-1.2.7-1.8,1.1l-5.3,3.9c.7.3,1.3.6,1.9,1.1.1,0,.2.2.3.3.7.7.9,1.6.6,2.5-.4.8-1.1,1.5-2,1.8-.6.2-1.1.4-1.8.6-.7.1-1.4.3-2.1.6-1.1.6-1.8,1.6-2.4,2.6-.5.8-1.1,1.5-1.8,2-.7.6-1.5.9-2.4,1-.9,0-1.7-.6-2-1.4h0c-.5-1.2-.1-2.6.2-3.9-.2.3-.5.6-.8.8h-.1c-.9,1-2,1.7-2.9,2.6-.5.4-1,.7-1.6,1-.4.1-.7.3-1.1.4,0,0,.1,0,.2.1l-2.8,1.4c.8.6,1.6,1.2,2.5,1.6,0,0,0-.1.1-.2,0,0,0,.1-.1.2.4.2.8.4,1.1.6,1.4.6,2.8,1.2,3.9,2.1.2.1.3.3.4.4l.6.6c1.1,1.3,1.8,3,2,4.7v.5c.2,1.2.3,2.4.4,3.6l8.8-6.1c.3-1.2.6-2.3.8-3.5v-.5c.1-.9.3-1.8.4-2.7,0-.9.4-1.6,1-2.3.4-.3.9-.6,1.4-.6s1.1-.3,1.5-.7c.2-.3.4-.7.5-1.1.2-.5.4-.9.8-1.2.7-.6,1.6-.7,2.4-.3,1,.4,1.9,1.1,2.5,2,.5.7.9,1.4,1.2,2.2.1.3.2.6.3.9l11.5-8.1c-.4-.4-.9-.8-1.3-1.2M207.8,169.1c-.6.4-1.1.7-1.7,1.1.6-.3,1.2-.7,1.7-1.1M205.8,170.3c-.4.3-.9.5-1.3.7.4-.2.8-.5,1.3-.7M203.8,171.4c-.1,0-.2.1-.3.2,0,0,.2-.1.3-.2M204.3,171.1c-.1,0-.2.1-.3.2,0,0,.2-.1.3-.2M208.8,168.4l-.5.3.5-.3c.3-.2.6-.4.8-.5-.2.2-.5.3-.8.5M209.8,167.8c.1-.1.3-.2.4-.3-.1,0-.3.2-.4.3"/>
          <path id="Path_86" class="st3" d="M136.9,215.1c0-.2-.2-.3-.3-.5h0c-.7-1.2-1.5-2.4-2.4-3.4-.5-.6-1.1-1.1-1.7-1.7s-1.1-1-1.7-1.4c-.6-.4-1.4-.8-2.1-1.1h0c-1.1-.4-2.2-1-3.1-1.8l-16.4,10.3c1,.6,1.9,1.4,2.7,2.2.5.5,1,1.1,1.4,1.6s1,1,1.4,1.6c1,1.3,1.9,2.7,2.7,4.2.7,1.3,1.4,2.6,2.1,4l18.2-12.1c-.3-.7-.6-1.3-.9-2M128.8,207h0"/>
          <path id="Path_87" d="M99.1,136.9c-1.7-2.6,2.5-4.7,3.9-6.4.9-1,1.4-2.6,2.2-3.6,1.1-1.5,3-2.5,3.6-4.3.2-.8.5-4.7,2.2-4.2,2.9,3.2,5.2,4.7,2.6,9.1-1.9,3.2-3.1,3.2-6.1,4.7-1.8.9-4,3.1-6.1,4.1-.7.3-1.5.5-2.3.6M111,119.4c-.7,0-.4.2-.6.5-.5,1.1-.2,2-.5,2.9-.4,1.4-3.2,3.9-4.3,5.3-.7.9-1.1,2.1-1.8,2.9-1.3,1.6-3.6,2.5-4.1,4.8,2.7-1.1,4.8-3.3,7.1-5,1.2-.9,2.8-1.5,3.9-2.4.7-.6,3.2-3.9,3.4-4.6.2-1.3-2.6-3.1-3.2-4.4"/>
          <path id="Path_88" d="M59.9,168.6c.4-.6.7-1.9,1-2.4,2.2-3.2,5.4-2.4,6.7.9.8,1.8,1.5,7.3-.4,8.5-2.4,1.6-3.4-1.8-4.9-1.1-1.1.5-4.4,6.6-5.6,3.3-1-3,.7-5.9,2.2-8.4.2-.3.7-.5.9-.8M65.7,165.5c-.5-.2-1.1-.2-1.6-.2-1.7.4-3.9,6.1-4.9,7.7-.5.9-2.9,2.5-1.3,3.7,1.4,1,2.4-2.8,4.1-3.3,2.1-.6,3.4,1.3,4,1.3,1.5-.1,1.6-8-.3-9.2"/>
          <path id="Path_89" d="M172.8,98.6c2.8-1.3,5.8-.5,8,1.5,2.5,2.3,4.4,7.1-.4,8.1-2.3.5-2.9-.9-4.7-1.7-2-.9-7.7-1.7-8.4-3.8-.7-2.2,2.3-2.3,3.5-2.9.7-.3,1.3-1,1.9-1.2M178.5,106.8c1.9.8,3.9-.2,3.7-2.3-.3-2.2-3.1-4.6-5.2-5.1-3.1-.7-3.1.3-5.4,1.5-.8.4-3.9.7-2.7,2.2.6.7,6.1,1.7,7.8,2.4.7.3,1.4,1,1.9,1.3"/>
          <path id="Path_90" d="M143,101.9c2-.7,4.1-1.7,5.8,0,.5.3.6,1,.3,1.5h-.1c-.5.8-5.6,4-6.5,4.3-1.3.5-7.3,2.3-8.1.8,1.6-3.3,5.1-5.6,8.7-6.7M147.5,101.9c-1.1-.3-6.8,2-8,2.7-1.5.9-2.5,2.4-3.8,3.4.4.4.9.2,1.4,0,3.3-.6,6-1.4,8.9-3.2.5-.3,2.5-1.6,2.5-2.1-.2-.4-.6-.7-.9-1"/>
          <path id="Path_91" d="M88,141.7c1.1,1.3.8,4.5-.4,5.8-1,.8-2.1,1.6-3.3,2.1-.8.3-1.6.1-2.2.4-.8.3-2.3,1.9-3.1,1.9s-1.1-.5-1.1-1.1h0c0-1.6,4.3-4.6,5.5-5.8.9-.9,3-4.1,4.6-3.2M87.9,142.3c-2,.4-2.7,2.5-4,3.7-1.6,1.6-3.9,2.7-4.9,4.8,1-.2,1.8-1.3,2.8-1.6.7-.2,1.3-.1,1.9-.3,3.5-1.2,4.6-3.1,4.2-6.6"/>
          <path id="Path_92" d="M204.8,134.5l5.5-5.6,1.4-2.1c-.2,3.5-3.8,6.5-7,7.7"/>
          <path id="Path_93" d="M211.4,109.4c-.5,0-.6-.4-.8-.8-1.3-2-2.1-4.5-3.5-6.5,2.3,1.6,3.4,4.8,4.4,7.3"/>
          <path id="Path_94" d="M60.7,201.5c-1.7,0-3.5-.5-5-1.3-1.2-.6-2.3-1.4-3.2-2.3,2.7,1.4,5.4,2.6,8.2,3.6"/>
          <path id="Path_95" d="M144.3,152.5l2.1-7.9c.8.8-1.6,8.2-2.1,7.9"/>
          <path id="Path_96" d="M147.9,152.7l.2-1.6,1.7-5.6c.2,2.6-.5,5.1-2,7.2"/>
          <path id="Path_97" d="M206.6,129.7l2.6-7.1c0,2.1-.5,4.6-1.8,6.3-.2.3-.3.8-.8.8"/>
          <path id="Path_98" d="M205.1,126.6l1.5-6.8c.4,2.1.5,5.4-1.5,6.8"/>
          <path id="Path_99" d="M200.8,119.6c-.1-1.2-.2-2.4-.4-3.6-.1-.9-1.1-2.2-.2-3,.5,1.6.8,3.2.9,4.8,0,.6.2,1.4-.3,1.8"/>
          <path id="Path_100" d="M61.1,198.5c-.7.4-5.8-.9-5.3-1.8l5.3,1.8Z"/>
          <path id="Path_101" d="M204.2,123.3l.4-6.2c.4,2,.8,4.4-.4,6.2"/>
          <path id="Path_102" d="M209.2,108.3l-3.5-4c1.5,1,2.7,2.4,3.5,4"/>
          <path id="Path_103" d="M202.9,119.6l-.5-.8v-4.8c-.1,0,.5,5.7.5,5.7h0Z"/>
          <path id="Path_104" class="st3" d="M258.9,27.1c-21.9,10.9-38.1,32-42.7,55.4h0c-.2.7-.4,1.5-.6,2.2h0c-3.1,18.7.7,37.9,10.8,54h0c.7,1.1,1.5,2.3,2.2,3.4,1.6,2.4,3.4,4.7,5.2,6.8.9,1,1.9,2,2.9,2.9.3.3.6.5.9.8h0c26.9,25.7,68.6,30,101.1,9.6,25.3-15.9,40.2-45.6,37.1-74.6-6-54.8-65.9-86.1-116.8-60.5M364.3,121.6c-18.7,47.9-81.2,62.8-119.5,28.7-40.9-36.3-25.9-103.6,26.9-121.2,59.4-19.7,115,35.1,92.6,92.4M333.9,28.9c-.8-.4-1.5-.8-2.3-1.2.8.4,1.5.8,2.3,1.2M330.4,27.2c-.8-.4-1.5-.7-2.3-1.1.8.3,1.6.7,2.3,1.1M326.9,25.6c-2-.8-4-1.6-6-2.2,2,.7,4,1.4,6,2.2M319.7,23c-.8-.2-1.6-.5-2.5-.7.8.2,1.7.5,2.5.7M312.1,21.1c.9.2,1.7.4,2.5.6-.8-.2-1.7-.4-2.5-.6-2.1-.4-4.3-.8-6.5-1,2.2.2,4.4.6,6.5,1M299,19.6c1.8,0,3.6.2,5.3.3-1.8-.2-3.5-.3-5.3-.3-7.9-.2-15.7.7-23.3,2.8,7.6-2.1,15.5-3,23.3-2.8M230.4,53.9c-.5.7-.9,1.3-1.4,2,.4-.7.9-1.3,1.4-2M221,71.8c-.3.7-.5,1.5-.8,2.2.2-.8.5-1.5.8-2.2M217.5,84.3c-.1.8-.3,1.6-.4,2.3.1-.8.2-1.6.4-2.3"/>
          <path id="Path_105" class="st3" d="M193,179.4c-.1-.3-.3-.6-.4-.9-.5-1.1-1.2-2.1-2-3.1-1-1.1-2.2-2-3.6-2.7-1.4-.7-2.9-1.2-4.5-1.4-1.2-.2-2.5-.6-3.7-.9-5.7,3.6-11.1,8.1-17,11.4-.5.4-1.1.7-1.7,1-1.5,1-3,1.9-4.1,3.3-.8,1-1.3,2.1-1.5,3.3-.3,1.4-.5,2.8-.8,4.1-.3,1-.7,2.1-1.7,2.7-.5.3-1.1.4-1.6.4s-1.2-.2-1.9-.2c-1.2,0-1.4,1.3-1.8,2.2-.4.9-1.1,1.6-2.2,1.5-1.2-.2-2.3-1.2-2.8-2.2,0-.1-.1-.2-.1-.3-.3-1-.4-2-.3-3l-3.5,2.6c.6.7,1.2,1.4,2,2.1h.1c.6.6,1.2,1.2,1.8,1.7,1.7,1.5,3.4,3.1,4.3,5.3.7,1.6.9,3.4.7,5.1v.9c1.5-1.1,5.2-2.9,6.9-3.9,1-.6,3.5-2.5,4.7-3.3-.7-.7-1.1-1.6-1.3-2.5-.1-.9-.1-1.8,0-2.7s.4-1.8.8-2.6c.2-.4.5-.8.9-1.1.3-.2.6-.3,1-.4.1,0,.2-.1.3-.2.4-.1.8-.1,1.2,0,.1,0,.2,0,.4-.1.4-.3.8-.6,1-1,.5-.6,1.1-1.3,2-1.2,1,.2,2,.6,2.7,1.3s.5.4.7.7c.4.5.8,1,1.1,1.6.2.3.4.7.5,1.1,8.6-4.6,15.8-11.2,24.1-16.2-.2-.7-.5-1.4-.7-2.1M162.1,186.6c.3-.2.6-.3.9-.5-.3.1-.6.3-.9.5"/>
          <path id="Path_106" d="M241,53.6c-1.2,4.3-4.8,7.3-2.4,12.1.9,1.9,5.7,4,7.8,3.6,3.1-.5,5.6-3,9.2-3.6,5.7-.9,13.2,5.1,18,7.7,8.8,4.8,17.9,8.9,27.3,12.3.6.2,1.2,0,1.9.4,2.4.9,3.6,3.3,3.9,5.7.3,2.7-1.5,2.4-1.7,3.2.7,2.1,1.6,4.4,1.5,6.6-.1,2.8-2.4,4.7-3.7,7-4.5,7.6-7.2,15.8-11.9,23-3.8,5.8-8.1,11.2-13.1,16.1-2,2-4.3,2.9-5.3,5.6-.9,2.4-1.1,5.1-1.4,7.7l6.9,3.3c-6.3-.8-12.3-3.7-17.6-7.1-.8-.5-4.9-3.3-4.4-4.2.7-.2,1.4.4,2,.8,3.3,1.9,6.5,4.5,10,6.1.3.1,1.8.8,1.9.5-.9-2.4.4-4.8.5-7.1l-2.4,1.1c2.5-2.9,5.5-5.2,8.2-7.9,1.4-1.4,5.3-5.1,5.9-6.7.5-1.3.4-3.1,1.1-4.5v3.2c2.4-1.9,2.4-5,3.3-7.6.9,1-.5,2.4,0,3.5,1.4-2.7,4-4.4,2.9-7.8,1.2-.6.4,1.5.8,1.8,2.7-1.9.8-5.6,2.4-7.9l.5,3.4,5.1-10.6c-.3-.3-.8.2-1,.4-1.9,1.4-3.9,3.3-6.3,3.9,2.5-3.6,6.4-6,9.5-9.1,2.7-2.6,4-4,4.2-7.9,0-1.7-.1-3.4-.6-5.1l-5.4,2.3,2.5,1.4c-2,0-2.9-1.6-4.9-.2l2.5,1.4c-1,.2-2.2-1-3.1-.8-.7,0-1.5.9-2.2,1.1.6.7,1.9.7,2,1.8-2.2-1.9-3.5-1.5-5.6.5l1.5,1.2-2.4-.8c-2.8,1.7-5.8,3.1-8.6,4.7-6.9,4.1-14.8,10.8-22.8,12.4-6.1,1.2-19.2.2-24.6-2.6-1.7-.9-3.4-1.7-2.4-3.9,1.3-2.7,7.5,2.3,9.1,2.9,3,1.3,8.6,2.3,11.9,2.1,1.7,0,6.6-.5,8.1-.9,1.8-.5,6.4-3.4,8.3-4.4,8.5-4.8,17.8-11.8,26.5-15.9,3.4-1.6,7-2.5,10.4-3.9-1.2-2.1-1-4.6-3-6.3-4-1.3-8.6-2.6-12.5-4.2-5.7-2.4-8.2-3.7-14.6-4.8-1.3-.2-2.7-.6-4-.3.5-2.6-1.1-4.5-3.2-5.8-2.1-1.4-9.3-3.8-11.8-3.9-4.3,0-11.6,2.9-14.3,6.3-.5.6-.6,1.7-1.1,2s-1.1,0-1.6.2c-2.5.9-1.1,4.5-4.1,4.3-1.5-.6-.7-3.6.8-4.1.6-.2,1.3,0,1.7-.2.6-.3,1.5-2.5,1.8-2.9.2-.2.6,0,.8-.2,1-.9,2.1-1.7,3.3-2.5-3.4-2.3-5.1,1.7-7.5,3.5,1.1-1.9,2.7-3.8,4.8-4.5l-2.1-1.8-3.7,4.8c-.4-.2.5-1.5.7-1.8.8-1.2,1.7-2.3,2.7-3.2-1.3-1.7-2.5-3.2-2.4-5.5-4.4,6.8-7.7,13.9-8.6,22-.3,3-.1,5.9-.2,8.9l-.3,2.5c-2.2-8.3-.5-17.7,3.1-25.5,2.4-5.2,6.5-12.1,10.2-16.6.3-.4.6-.8,1.1-.9M236.4,78.2c-.4-.2-2.3,1.7-1.5,2.4.9,0,2-2.1,1.5-2.4M274.9,77.8c-.4-2.6-3.4-3.3-5.4-4.4,1.1,1.3,2.5,2.5,2.1,4.4h3.3Z"/>
          <path id="Path_107" d="M263.4,77.4c4.9-3.4,4.3,2.4,4.6,2.6.5,0,1,0,1.4.2,1.2.9,1.5,2.3,1.2,3.7,0,.5-.6,1-.6,1.3,0,.7,1.2.9,1.5,1.4.9,1.4-.3,3.3-1.1,4.6,3.5.7,2.1,5.1-1,5.4,1.5,3.1-1.6,5.1-4.5,4.4.3,2.5-1.3,4.5-4,3.8-.5,0-.9-.9-1.3-.6-1,3-4.6,3.8-6,.7-1.2.8-1.5,1.8-3.2,1.9-1.9.2-2.2-1.3-3.1-2.6-3.6,1.3-5.7-.9-4.8-4.4-2.7-.5-4.5-2.7-2.2-5-2.9-1-3-4.6,0-5.4-2.7-1.9-1.5-6.1,1.8-6.6-2-3.5,1.2-6.1,4.7-3.9-.2-1.8,1.1-3.4,2.9-3.6,1.1,0,2.2.3,2.9,1.2,1.3-2.8,3.9-2.7,5.8-.7,1.7-2.4,4.9-1.4,4.8,1.6M251.9,77.6c-1-3.1-4.8-1.2-4.4,1.5l4.4-1.5ZM257.6,77.5c0-2.7-3.8-3.2-4.3-.2l4.3.2ZM246.2,79.9c-2.9-2.1-4.4,0-3.1,2.9l3.1-2.9ZM261.8,78.4c1.2-5.8-4.3-1.5-3.2-.6l3.2.6ZM250.4,80.1c-6.8,2.4-7.9,8.2-6.6,14.4.8,3.8,6.8,7.1,10.6,7.1,8.6,0,13.7-6.7,12.1-14.7-1.4-6.8-10-8.9-16.1-6.8M266.4,77.5c-1.2-.2-2.4.2-3.2,1.1-.1,0-.5.2-.2.6.1,0,2.5,1.6,2.6,1.5.9-.2,1.5-2.4.8-3.1M242.5,83.9c-2.5,0-3.5,3.7-1.3,4.7l1.3-4.7ZM268.1,85.2c2.7-1.5.5-6.7-1.8-3.4l1.8,3.4ZM241.1,90.1c-2.6.7-2.6,3.7.2,3.7l-.2-3.7ZM268.8,90.8c2.3-.6,3.2-4.7-.1-4.3v4.3h.1ZM241.3,98.4c.6,0,1.1.2,1.7.2,1.2-.3-.8-2.9-1.3-3.4-1.5.6-1.8,2.5-.4,3.2M268.7,92.1l-1.1,3.4c.1,1.1,3.7,0,3.8-1.4,0-1.7-1.3-1.9-2.7-2M244.7,99c-.8-.3-1.1,2.5-1,3,.3.9,1.4,1.3,2.2,1.2l1.4-1.9-2.7-2.3h.1ZM264.9,100c2.4.3,5.6-1.9,2.3-3.2l-2.3,3.2ZM252.8,103.3l-4.5-1.1c0,1.1.1,3.1,1.3,3.6,1.1.8,3.8-2,3.2-2.5M263.9,100.6c-1,.6-2.2,1-3.2,1.6-.9.6-.2,1.1.6,1.4,2.2.9,2.9-1.3,2.6-3M258.4,102.9l-4.4.6c.7,3.2,4.4,2.6,4.4-.6"/>
          <path id="Path_108" d="M360.7,94.5c-.5.2-.4-.5-.5-.8-.4-2.6-.4-5.6-.8-8.3-1.4-9.3-4.9-18.2-10-26.1-2.5-3.9-5.8-7.2-8-11.2,1.1.5,2.2,1.7,3.1,2.6,10.9,11.6,17.5,27.9,16.3,43.9"/>
          <path id="Path_109" d="M273.5,114.1c-.2.8-1.2,1.4-1.8,1.9-3.5,2.9-8.5,7.2-12.7,8.9-4.7,2.1-9.9,3-15.1,2.6,0-.5,1.6-.8,2-.8,3.9-.8,7.5-1.1,11.4-2.4,6.2-2.1,10.2-7.5,16.1-10.2"/>
          <path id="Path_110" d="M302.8,32.1l-16.4,1.6c-.3-1.4,6.8-2.1,7.9-2.2,2.9-.2,5.7.3,8.5.6"/>
          <path id="Path_111" d="M342.9,141.3c-3,4.4-7.4,9.4-12.8,10.7-.3-1.1,1.5-1.4,2.3-1.9,3.9-2.5,7-6,10.5-8.9"/>
          <path id="Path_112" d="M280.9,131.6c-.6,3.4-3.8,6.9-6.2,9.4-.8.9-1.7,1.7-2.7,2.3l8.9-11.7h0Z"/>
          <path id="Path_113" d="M283.7,125.1c-3.2,4.7-7.3,8.7-11.4,12.7l2.3-3.5c3-3,5.5-6.7,9.1-9.2"/>
          <path id="Path_114" d="M286.4,120.8c-.5,1.2-1.7,2.2-2.7,3-3.7,3.4-7.6,6.5-11.8,9.3l14.5-12.3h0Z"/>
          <path id="Path_115" d="M280.5,135.6c1,.5-7.3,10.6-8,11.4-.7.8-1.5,1.9-2.5,2.5l10.4-13.9h.1Z"/>
          <path id="Path_116" d="M256.2,137.4c0,.4-1.1.8-1.4.9-2.4.9-5.1,1-7.7,1.1.2-.7.6-.4,1-.5,2.7-.6,5.4-1.1,8.1-1.5"/>
          <path id="Path_117" d="M241,103.2c-1.4-.5-2.8-1.9-3.7-3.1-.4-.6-2.4-3.1-1.6-3.7l5.3,6.8h0Z"/>
          <path id="Path_118" d="M290.9,92.5c-.6,1-5-2.2-3.6-2.8.8-.4,4,1.5,3.6,2.8"/>
          <path id="Path_119" d="M280.8,94c-.5.2-.5-.8-.6-1.1-.4-2.3-.2-4.5-1.5-6.8,2.5,1.7,2.3,5.2,2.1,7.9"/>
          <path id="Path_120" d="M233.8,97.6l5,6.2c-2.6-1-4.1-3.8-5.5-6l.5-.3h0Z"/>
          <path id="Path_121" d="M237,134.4c-.4,0-.7-.4-.9-.6-2-2.2-3.5-5.1-4.9-7.7.6,0,.6.4.8.8,1.8,2.4,3.1,5.2,5,7.6"/>
          <path id="Path_122" d="M230.2,84.2v-2c2.2-1.8,2.2,1.9,0,2"/>
          <path id="Path_123" d="M239.5,132.2l-2-2.3-1.7-2.5c1.6,1.1,2.7,3.2,3.7,4.8"/>
          <path id="Path_124" d="M238.5,133.1l-1.6-1.8-2-3.6,3.6,5.5h0Z"/>
          <path id="Path_125" d="M252.1,84c4.2-2,8.5,2.4,6.1,6.4-.7,1.3-2,1.6-3.4,1.8-4.9.6-6.6-6.4-2.8-8.2"/>
          <path id="Path_126" d="M265,89.2c.4,3-.8,6.5-3.5,8.2,1.5-2.5,2.5-4.6,3-7.5,0-.4-.4-.7.5-.8"/>
          <path id="Path_127" d="M254.3,95.3c-2.2.3-4.4-.9-5.3-2.9l5.3,2.9Z"/>
          <path id="Path_128" d="M261.2,86.4c-1.1-.6-1.7-2.4-2.4-3.4,1.5.4,2.6,1.8,2.4,3.4"/>
          <path id="Path_129" d="M258.9,94.6c-.6-.3.2-.7.3-.8.9-1.3,1.9-2.6,2.9-3.8.6.4-2.8,4.9-3.3,4.7"/>
        </g>
      </g>
    </g>
  </g>
</svg>