<?xml version="1.0" encoding="UTF-8"?>
<svg id="Layer_2" xmlns="http://www.w3.org/2000/svg" xmlns:xlink="http://www.w3.org/1999/xlink" version="1.1" viewBox="0 0 300.8 328.1">
  <!-- Generator: Adobe Illustrator 29.6.1, SVG Export Plug-In . SVG Version: 2.1.1 Build 9)  -->
  <defs>
    <style>
      .st0 {
        fill: none;
      }

      .st1 {
        fill: #3cbeeb;
      }

      .st2 {
        fill: #fff;
      }

      .st3 {
        fill: #2864ae;
      }

      .st4 {
        clip-path: url(#clippath);
      }
    </style>
    <clipPath id="clippath">
      <rect class="st0" width="300.8" height="328.1"/>
    </clipPath>
  </defs>
  <g id="Layer_1-2">
    <g>
      <polygon class="st2" points="33.1 324.5 33 313.3 24.7 292.5 26.2 289.2 38.4 297.5 43.4 296.4 28.5 278.2 32.7 264.1 33.1 256.8 28.6 244.9 28.5 239.8 30.5 238.7 33.8 240.2 42.2 238.3 47.8 245.9 62.2 261.2 64 259.5 52.5 236.5 64.3 231.6 75.8 225.1 80.9 222.5 83.6 228 91.8 239 95.6 241 94.1 233.1 87.8 219.3 90.4 219 116.1 222.9 157 224.8 199.5 224.3 203.6 227.7 214.1 232 234.2 239.9 244.9 243.4 246.5 242.6 246.7 245.1 240.1 259.5 240 263.1 242.4 273.6 243.7 285.7 245.9 290.2 245.2 292.1 244.6 299.8 241.4 314.4 240.6 323.9 243 322 249.5 309.3 254.1 299.1 251.4 287.2 255.9 282.6 258.2 268 257 246 253.7 233 250.3 227.3 251.7 226.2 268.9 224.7 268 229.3 262.7 242.8 261.9 257.3 263.4 277.8 265 283.4 262.3 288.1 257.5 302.3 254.4 318.4 259.3 310.8 266.1 299.8 271.5 287.6 271.4 283.7 273.6 280 275 261.9 274.1 254.7 274.5 246 277.4 234.9 278.7 236.8 281 244.4 290.8 258.7 289.5 266.3 288.2 273.5 289.7 289 292 285.3 295.8 272.7 299.6 263.8 299.5 258.1 295.8 245.2 286.1 222.1 282 214 276.5 207.3 268.5 201.9 259.7 197.7 252.4 196.3 246.2 196.4 235.8 200.7 230.4 202 225.6 202.6 222.4 202.1 228.3 196.9 234.6 187.9 243.5 180.3 246.8 178.4 248.8 170.6 253.7 160.7 256 151.6 256.4 149.1 255.7 144.7 253.5 139.8 250.8 131 241.3 113.3 229.9 95.7 224.3 87 217.8 80 216.7 81.9 218.5 89.7 219.7 94.3 220.9 98.9 221.8 102.5 220.3 105.2 218.2 105.8 212.9 105.2 207.4 99.4 199 88.3 193.4 82.3 191.7 82.7 191.2 85.1 195.1 95.5 196.8 102 198.2 108.1 200.4 110.9 201.7 114 204.9 115.5 207.1 120.4 206.8 124.2 206.4 126.3 208.3 128.9 211.6 131.3 213.8 135.5 222.5 140.1 228.4 146.9 227.1 152.8 227.2 156.8 229.6 165.1 225.8 168.5 218.8 173.1 215.2 175.4 211.2 169.3 208.3 161.3 203.1 156.1 196.8 152.9 185.9 147.7 176.8 145.9 160.4 144.7 158.4 139.2 161 133.2 159.1 128.3 156.2 129.9 151.3 140.2 119 148.4 115.8 144.7 116.4 139.8 113.2 131.6 109.9 131 108.2 136.2 111.6 146.7 113.6 151.3 108 153.4 76.7 164.7 74.9 166.1 74.7 168.1 76.1 173.5 79.2 181.6 85.2 190.8 80.3 190.7 71.8 188.7 61.9 182.3 52.9 169.2 46.5 164.8 43.4 163.5 44.6 154.9 43.4 148.9 48 145.3 58.2 133.9 61.8 128.2 61.8 123.3 63.5 120.8 67.4 109.8 69.3 100.6 68.8 92.6 66.7 93.1 63.6 98.3 59.3 105.6 55.1 108.8 52.6 109.4 50.2 104.9 50.7 96.3 53.5 86.9 55 82 54.6 78.3 52.4 71.5 49.5 73.4 46.9 80.3 40.6 92.8 33.9 101.2 29.9 107.4 24.3 115.2 18.4 124.9 15.4 135.3 15.7 145.4 13.5 147.7 13.1 152.2 13.6 155.6 18.4 162.7 21.4 168.9 23.4 173.4 26.1 175.6 29.6 176.7 32.4 189 37.2 190.7 34.9 196.3 33.4 197.8 26.5 198.9 16.9 198.8 10.5 202.8 7.9 201.6 2.7 214.8 1.5 230.3 2.1 239.8 3.9 239.2 1.9 248.8 1.3 258.1 4.7 267.4 13.3 280.7 14.1 284.1 17.6 289.6 17.4 297 18.8 307.2 24.6 317.4 28.4 322 33.1 324.5"/>
      <g class="st4">
        <g id="Group_287">
          <path id="Path_223" d="M299.5,254.3c-2.2-9.8-4.8-15.8-8.9-24.9-5-11.1-6.8-18.2-17.4-25.5-8.9-6.1-16.9-10.5-28.2-8.2-4.9,1-11.1,5.2-16,5.6-.8.1-1.7,0-2.5-.2,4.1-2.8,6.1-7.4,9.3-11,1.7-1.9,3.6-3.8,5.5-5.5,2.5-2,5.7-2.7,7.4-5.4.1-1.4.4-2.7.6-4.1h-.3c0,.1.5-.9.5-.9,0-.2.1-.4.2-.6.5-1.3,1-2.6,1.6-3.8.6-1.3,1.2-2.5,1.8-3.8,1.2-2.6,2.3-5.3,3.1-8.1.9-2.6,1.3-5.4,1.3-8.2s-.7-4.8-1.9-6.9c-.3-.2-.6-.4-.6-.6v-.2h0c-.3-2.2-.4-4.4-.7-6.5-1.3-4-3.7-9.1-5.7-13-3.8-5.8-8.4-11.1-12.1-17-1.2-2.1-2.4-4.3-3.3-6.5-.5-1.1-1-2.2-1.5-3.3-2.6-4.6-5.3-9.3-8.8-13.4-.6-.6-1.3-1.2-2.1-1.8-.9-.7-2.6-1.9-3.8-1-.7.6-.9,1.6-1,2.4-.1,1.2,0,2.3.1,3.5.8,3.6,2.6,7.3,3,10.5v.4c.3,1.3.6,2.5.8,3.8.2.9.2,1.8.2,2.8s-.2.8-.4,1.2v.3h-.3c-.1,0-.2.2-.4.3-1.3.9-2.9.4-4.2-.2-1.4-.2-2.6-.8-3.6-1.8-2.1-2.1-4.4-5.7-6.6-9.1-1.9-2.7-3.9-5.3-6.1-7.7s-2.3-2.4-3.6-3.4c-.6-.5-1.2-.8-1.9-1.1-.6,0-1.3,0-1.8.3-.7.2-1.2.7-1.6,1.4-.2.9-.1,1.8.1,2.7.2,1,.6,2.1.9,3.1.7,1.4,1.4,2.7,1.8,3.5,2.3,6.2,3.4,13.5,6.3,19.6.4.8.9,1.7,1.4,2.4.2.2.4.5.6.7.9,1.1,1.7,2.2,2.5,3.3.5.8.9,1.6,1.2,2.4v.2h0c.1,0,.3.2.3.4h0c0,.7-.2,1.4-.3,2.1-.1.5-.2,1.1-.3,1.6h.3c-.2.3-.3.8-.4,1.3,0,.5.1,1,.3,1.5.5,1.1,1.1,2.1,2,3s1.3,1.2,2,1.8c.8.6,1.6,1.1,2.3,1.8,1.3,1.1,2.5,2.7,3.8,3.8,2.6,2.1,5.7,3.7,8.4,5.8.7.2,1.4.6,2,.9.8.4,1.4,1.1,1.6,1.9.2.9-.2,1.9-.5,2.8-.5,1.1-.9,2.1-1.2,3.2v.2c0,1.1,0,2.1.1,3.1.4,1.7.9,3.4,1.3,5.1.2.9.4,1.8.5,2.7v1h0c0,.3-.1.6-.2.9-.4.8-1.1,1.3-1.9,1.7-.9.4-1.9.8-2.8,1.2-1.1.5-2,1.1-2.9,1.8-1,.9-1.8,1.8-2.9,2.6-.1.1-.3.1-.5,0h0c-.9-1.4-1.8-2.9-2.6-4.4-1.6-3-3.1-6.1-5.1-8.8-1.8-2.5-4.2-4.8-7.3-5.4-.1,0-.2-.2-.2-.3h0c-.4-.4-.8-.8-1.3-1.1-4.4-3.6-10-5-15.4-6.4-6-1.6-12.2-1.6-18.3-2.4-.9,0-1.8-.2-2.7-.4-.5,0-.9-.4-1.1-.9,0-.7,0-1.4.2-2.1.3-1.4.7-2.8,1-4.3.4-2.5,0-5.3-1.3-7.4-.5-.9-1.2-1.5-2.1-1.9-.9-.3-2-.2-2.8.2-.6.3-1.2.7-1.7,1.1-1.1,1.2-2.1,2.6-2.9,4-.2.4-.3.7-.5,1.1-.4,1.2-.9,2.5-1.5,3.6-.3.6-.7,1.1-1.1,1.6h0c-.1.2-.3.3-.4.4,0,.2,0,.3-.2.4h-.2c-.1,0-.3.1-.4.2h-.4c-.8.4-1.6.6-2.4.8-2,.6-4,1.1-6,1.6-1.6.4-3.3.8-4.9,1.3-1.2.4-2.4.7-3.6,1.1-1.7.5-3.4.9-5,1.5-.8.3-1.7.6-2.5.7l-1.6.5c-.6,0-.9-.8-1-1.7,0-.2-.2-.5-.3-.8-.6-1.6-.2-3.3-.4-5,0-.8-.3-1.6-.6-2.4-.2-.7-.5-1.4-.8-2.1-.6-1.3-1.4-2.5-2.6-3.5-1-.9-2.2-1.4-3.4-1.7-2.1-.4-3.8,1-4.6,2.8-1.3,2.6-1.4,5.8-.9,8.6.3,1.8,1,3.6,1.8,5.2.4.6.8,1.2,1.2,1.9.3.5.7.9,1,1.4,0,.1,0,.3,0,.5h0c-1.6,1.2-3.5,1.8-5.4,2.4-1.4.4-2.9.8-4.3,1.2l-4,1.5s-.2,0-.3.1c-1,.4-2,.8-3,1.1-.8.3-1.6.6-2.5.9l-11.5,4.2c-1.5.7-2.9,1.6-4.3,2.5-2.6,1.8-1.9,5.4-1.2,7.9.4,1.6,1,3.2,1.6,4.7.3.9.6,1.7.9,2.6,0,0,0,.1.2.2.7.6,2,3.8,2.7,4.9,1.1,1.7,2.4,3.2,3.6,4.9-6.1-1.1-15.3-3.3-19.4-8.3-4.1-5.1-6.4-10.9-11.6-15.6-1.6-1.4-4.5-3.9-6.5-2.3,0-1.8,0-3.6.5-5.3,0-1.1.4-2.2.2-3.4-.2-1-.6-1.9-.9-2.8,0-.4-.2-.8,0-1.2h0c.8-2.2,3-3.1,4.3-4.4,2.9-2.7,5.6-5.7,7.9-9,1.3-1.9,2.6-3.9,3.7-5.9.5-.9,1.1-1.9,1.6-2.9.4-.7.7-1.5.9-2.3-.2-.7-.3-1.4,0-2.1,0-.3.2-.6.3-.9v-.3c.3-1.1.7-2.2,1.2-3.3,1.8-4.6,3.3-9.3,4.5-14.1.3-1.2.6-2.4.7-3.6,0-1.2,0-2.5.2-3.7h0c0-1.3,0-2.5-.3-3.7,0-.9-.4-1.8-.8-2.7-.3-.6-.8-.9-1.4-.8-1,.3-1.8,1.3-2.4,2.1-.9,1.2-1.6,2.4-2.3,3.7-.8,1.4-1.5,2.9-2.4,4.3-1.1,1.8-2.4,3.8-4.2,5h0c-.6.4-1.2.7-1.9.9-1.4.7-2.2.9-2.9-1.9-1.2-5.4.6-12.6,2.5-18.4,0-.8.3-1.6.6-2.4.3-.7.5-1.5.6-2.2,0-.8.2-1.6,0-2.5,0-1.6-.4-3.2-.8-4.7-.4-1.5-.7-3.3-1.5-4.8-.8-.4-1.3-.4-2.4.4-3.3,2.3-4.9,8.9-6.5,12.4-3.3,7.1-10.5,15.9-15.2,22.3-2,2.7-3.8,5.6-6,8.2-.5.6-1,1.2-1.4,1.9-1.5,1.9-2.8,4-3.9,6.2-.8,2.3-1.4,4.6-2.3,6.8-.3,1.6-.8,3.1-1.4,4.6-.2,2.3-.9,4.9-.9,7.2s.8,3.4.7,4.3c-.1,1-1.7,2.4-2.1,3.3-1.6,3.5,1.8,9.7,3.6,12.8.8,1.3,1.9,2.4,2.6,3.7,2.6,4.8,3.5,12.7,10.1,13.3.2,2.2,1.2,5,1.2,7.1s-.8,2.1-.2,3.2c.9,1.7,4.1,2.3,5.8,2.9.2,0,.7-.1.5.5-.6,1.6-3.1,3.8-3.5,5.8-6,1.5-16.4-.5-21.4,3.6-.2.2-.3.4-.2.7-.1,0-1-1.1-2.3-.5-1.4.7-5.3,11.5-5.8,13.5-1.1,4.8-3.3,22.1-1.2,26,.3.4.9.5,1,.8.2,1.4-1.9,8.2-2,10.6-.6,10.3,5,21.8,11.1,29.7,1.5,1.9,1,1.6,2.1,3.6.6,1.1,2,2.5,2.3,3.7.9,4,.4,9.4,1.1,13.8,1.3,7.6,7.5,17.6,13.6,22.3,1.5,1.2,3.1,2,4-.4.3-1,.4-4.5.4-5.6-.3-6.1-3.1-16.5-6.1-21.8-1.2-2.2-3-2.9-1.6-5.5,2.9,2.7,8.7,6.4,12.6,6.8,1.4.2,5-.2,5-2s-3.6-5.1-4.3-6c-3.1-3.7-6.8-6.9-9.2-11,1-8.2,4.3-16.6,2.4-24.9-.5-2.1-5.1-12.7-4.1-13.7,1.5-.3,2.9.7,4.4.6,2.8,0,5.8-1.4,8.5-1.8,4.8,8.8,12.7,15.2,19.2,22.6l2,.7c4-1.1-.8-9.6-2-11.7-2.1-3.9-6-9.2-7.2-13.4,0-.4-.3-1,0-1.3,3.9-1.9,8.1-3.2,12-5.1,1.8-.9,13.4-7.8,14.2-7.2.6,1.9,1.8,3.6,2.9,5.2,2.3,3.3,12,16.1,14.6,17.9,1.9,1.3,5.8,2.6,4.5-1.2-.8-2.2-3.3-5.3-4.4-7.5-3.1-5.9-5.2-12.1-7.9-18.1,3.1.5,6.3.6,9.4,1.1,6.4,1,12.5,2.5,19.1,3.2,15.9,1.6,33.1,1.9,49.1,2.1,9.8,0,20.6-2.1,30.2-1.6,3.1.1,3.4,2.1,5.4,3.6,2.1,1.7,4.3,1.9,6.5,2.8,10.7,4.4,21.5,8.3,32.3,12.6l3.3.2c-.9,1.7-1.3,3.7-2,5.5-1.5,3.7-4.4,8-4.6,12-.1,2.5,1,4.9,1.3,7.3.8,5.7.9,12.1,2.6,17.7.4,1.2,1.9,3.7,2,4.6.2,1.6-.6,9-1,10.8-1.6,8.1-6.1,15.5-5.2,24,0,.3.3,1.8.5,1.8,1.4-.3,2.7-1.3,3.4-2.6,1.4-2.2,2.4-5,3.7-7.3,5.7-10,11.3-13.4,9.3-26.5-.2-1.3-.9-2.2-1.6-3.4,3.3-3.3,4.2-8.1,4.9-12.7,1.2-8.8.3-15.5,0-24.2,0-2,.2-4.4,0-6.6-.4-2.8-2.6-6.1-2.8-8.8,0-.9.4-1.6.2-2.5-.1-.7-3.5-5.4-3.3-5.6,5.3.2,10.4-2.1,15.6-2.7-1,1.5-1.2,3.3-1.9,4.9-1.2,2.8-3.2,5.7-4.2,8.4-3.1,8.8-1.8,29.3-.8,39,.2,1.6,1.8,5,1.7,6,0,.3-2.8,4.6-3.3,5.7-2.8,6.3-3.7,13.3-5.2,20-.8,3.7-4.3,10.2,0,12.3,1.7.2,2.2-3.4,2.8-4.6,3.2-6.5,7.9-12.1,11-18.9.9-2,3.9-8.7,4.2-10.4.2-1-.2-1.6-.1-2.1.2-1.5,2.4-5,2.9-8.1,1.1-7.9.6-18.3,0-26.2-.3-4.4,1.5-9,2-13.4l2.6,6.2c2.2,3.8,5.3,7,7.6,10.7.9,1.5,1.2,3,2.4,4.3-.8,4.8-2.8,9.5-2.3,14.5l-.3,1.4,1.5,17.3c1.2,1.6,2.4-.2,3.1-1.5,1.2-2.4,1.4-5.3,2.2-7.8,2-6,4.9-11.6,6.5-18.1,1.1-4.5.1-6.6-.8-10.9M255.1,146.8c1.1,2.8-.5,4.5-1.2,6.9-1.9,6.5-4.4,10.5-6.6,16.4-.4,1.2-.3,2.4-1,3.3-2.2-.6-3.6-2.3-5.3-3.3-2.8-1.6-5.8-2.8-8.4-4.7-1.8-5.1-4.4-9.9-3.7-15.5,2.6,2.9,5.5,5.8,9.8,5.6l16.5-8.6h-.1ZM201.3,105.8c-1.8-4.8-4.4-15.5-6.8-19.1-.2-.2-2.7-2.5-1.6-2.7.4,0,1.1,0,1.4,0,.2,0,1.8,2.5,2.2,2.9,4.6,5.1,12.4,19,18.7,20.2,2.1.4,3.4-.4,5.4-.6-.1,1.9,1,2.5.2,4.3-1,2.3-5.3,5.2-7.6,6.4-.5.3-3.8,1.8-4.1,1.8-3.8,0-6.8-10.5-7.8-13.3M223.2,139.7l-14.1-10.8c-.4-.9-.1-5.4.2-6.4.3-.9,2.8-1.5,3.6-1.9.2.2-1,2.4,0,2.7,0-.5,1.2-3.6,2-3l-.4,1.5.4,2.8c.9-2.4.1-5.6,3-6.6-.5,1.1-.4,2.6-.3,3.8,0,.4.1,1.5.7,1.5.3-1.2.8-2.3,1-3.5.3-1.9-.7-3.3,1.5-4.4.2,1.4.2,2.8.5,4.2.1.5-.2.6.6.5l1.3-9c.4,0,.5.6.6.9.4,1.8.3,3.7,1.1,5.4,1.1-.7.7-3.2.6-4.4-.4-3-2.4-6.4-2.8-9.1-1.1-6.6-2.1-12.1-3.6-18.7-.2-.9-.6-2.1-.3-3,1.1,1,1.5,2.4,2.4,3.6,1.8,2.5,4.1,4.6,5.8,7.2,1.5,2.2,2.4,4.7,3.7,6.9,6.3,10.1,19.7,27.5,21.2,38.9.1.8.4,5.4.2,5.8l-12.9,9.7c-.9.5-1.9-.1-2.7-.5l-13.2-14.1h-.1ZM228.4,167.4c6.7,1.4,12.9,4.3,17,9.9-3.4-.1-6.8-.7-10-1.8-2.1-.7-3.8-2-5.9-2.6l2.6,2.5-.6,2.4c1.1.1,1.1-1.4,1.6-1.9l1,.2-2.3,4.6c1.4-.9,2.5-2.4,3-4l1.3.5c-2.1,2.6-4.3,5.1-5.6,8.1l6-7.8c.7-.4,1.5.2,2,.7.2.8-7.8,8.5-8,10.4,3.2-3.1,6.1-6.5,8.6-10.1.5,0,2.6.3,2.3,1-2.3,2.5-5.7,4.6-8,7-4.3,4.5-6.3,9.7-12,13.6-3,2-7.7,2.3-11.3,3.3s-7,2.6-10.6,3.5l9.3-8c-.7-.5-3.9,2-4.6,2.5-2.5,1.8-5.4,5.2-7.7,6.6-1.1.7-2.6,1.4-3.9,2.1-5,2.9-17.8,4.6-19.9-2.6-1.1-3.7.4-4.7,2.1-7.3.2-.3.8-.7.3-1-1.2,1.3-1.9.6-3,2.3-1.6,2.5-1.8,5.6-.6,8.3.8,1.6,2.6,2.4,3.1,4-4.8-1.8-8.7-4.6-8.6-10.2,2.1-1.4,3.6-3.3,5.6-4.8,2.2-1.7,4.1-3.3,7-2.8,5.7,1.1,13.2,6,19.2,4.1,2.9-.9,6.5-3.1,8.8-5.1,9.1-8.1,12-20.4,21.6-27.9M154.2,140.1l3.6-8.9c1.3-.9.1,5.3,0,5.8-.5,2-1.6,3.8-3.1,5.2-.7-.5-.6-1.3-.4-2.1M111.1,132.9c2.9,0,3.6,8.9,2.5,10-.5.5-.6-.2-.7-.4-.8-1.3-3.8-8.9-1.7-9.5M54.2,110.3c.7,0,1.6.2,2.3-.2.2,0,3-3.2,3.3-3.7,2.5-3.3,4.2-7.5,6.4-10.9,1-1.6,2.1-2.6,1.9.3-.2,6.2-2,14.8-3.9,20.7-.3.9-1.5,4.2-1.9,4.7s-.3.2-.7,0c-1.6-1.1-5.2-6.5-6.3-8.3-.3-.5-1.5-2.3-1.2-2.6M24.1,117.9c6.8-9.7,15-19.7,20.8-30.3,1.3-2.5,5.4-13.8,7.1-14.5.6-.3.5.4.6.7.3,1.1,1.6,5,1.5,5.7,0,3.7-3.9,10.7-4.6,15-.4,3-.5,6-.4,8.9,0,1.4,1.1,3.8,1,4.6,0,.9-1.2,2.4-.7,3.8l1.3-2c0,1.1,1.2,2.4,1.3,3.2.2,1.2-.9,3.1-.6,4.4,1.3,0,1.3-1.8,1.3-2.7,1.4,1-.3,3.3.7,5,1-.2.5-2.4.7-2.7,3,.6-.3,4.4,1.7,5.6l.3-3.3c.2-.3,1.3.7,1.3.8v4.8c1.2-.7.3-2.6.8-3.7,4.8,3.5,1.9,7.1-.6,11.1-4.8,7.6-9.3,8.8-15.2,14.3-1.2,1.1-1.9,2.6-2.9,3.4-1.9,1.7-8.3,3.6-10.8,2.9-.6-.2-5-3.5-5.8-4.2-9.9-8.5-5.4-22.1,1-31.2M27.5,175.3c-3.6-.6-5.9-8.9-7.6-12-1.6-2.9-6.1-7.6-5.9-11,0-1.6,1.4-3.7,1.3-5.5,1,.7,2.6,1.6,3.5,2.3,1.1,1,2.2,2.1,3.4,3.1,3.2,2.8,4.1,4.7,9.2,4.6,2.9,0,6.1-3.4,8.8-4.5.6-.2,2.4-.8,2.8-.2,0,1.2,0,2.3-.2,3.5-1.1,6.3-3,13.2-8.1,17.4-2.1,1.7-4.4,2.8-7.2,2.2M34.6,188.1l-3.3-9.1c7.2-1.3,11.1-6.4,14.7-12.2l1.6-.4-.3,2.6c.6,0,.5-1.5,1.2-1.7,2.5-.6-.7,6.5-.2,7.6l1.7-5.3c3.1,1.9,0,6.4,0,9.3.6-.4,1.2-1.6,1.5-2.3.5-1.4.7-2.9,1-4.3,2.1,1.1,1.4,4.1.4,5.8-.3.6-1.4.4-.8,1.2l6.8,3.3-5.6-3.9,1.5-4.1c5.8,7.6,10.7,14,20,17.5,4.6,1.7,14.8,4.3,19.5,4.4,3.5,0,6.5-1,10,.3,1.8.7,9.2,5.8,9.9,7.4.3.6-.8,2.8-1.2,3.4-1.6,2.4-5.3,4.7-8.2,3.5,2.9-4.8,1-13.3-5.2-14.3-1.2-.2,0,2.1-.2,2.3-2.8-1.1-6.9-2.3-9.6-.5,0,1.1,8.8.8,9.7.9.6.2,3.3,4.1,3.5,4.8.6,2.6-2.9,6.4-5.4,6.7-12.4,1.7-20.3,0-31.8-4.4-8.5-3.2-11-5.4-17.6-11.1-4.3-3.7-8.2-5.5-13.5-7.6M41.4,194.3l.7.7c.5,1-1.7,2-2.5,1.7l1.8-2.3h0ZM36.6,196.6l2.8-3.6,1,.7c-.3,1.9-1.9,2.9-3.8,3M19.2,199.6c2.4-.2,4.6.4,6.9.3,2.9-.2,6.3-1.4,9.3-1.6,2.6-.2,9.5-.2,11.8.8.5.2,1.5,1.6,2.2,2.1,3.9,3,7.7,5.7,12.4,7.3,0,.6-.7.3-1,.2-2.1-.5-4.1-1.6-6.3-1.8.6.8,2,1.2,2.9,1.6,3.1,1.3,6.3,2,9.4,3.2,0,.3-.8.4-1,.3-3.3-.4-7.1-2-10.6-2.1l9,3c-2.3,1.3-4.5-.5-7-.3l3.7,1.6c-2.3.3-3.7,1-6.1.6-6.3-.9-13-3.5-19.1-5.1-5.2-1.3-9.9-2.6-15.3-1.2l.5-1-6.8,2,.2-1c2.8-1.2,6.1-2,8.4-3.9l-9.1,3-.5-1.3,7.3-3.3c-2.6.3-5.2,1.9-7.6,3l-.3-1,6.3-3.3c-1.5.3-3,.7-4.5,1.3-1,.3-2.6,1.8-2.8.2,1.9-2.1,5-3.2,7.8-3.5M49.8,216.9c-.3.9-1.9.5-2.7,1l-.3-2,3,1h0ZM38.9,220.5l-1,.3-2.7-9,4.3,1.1,1.4,6.7c0,.6-1.5.7-1.6.6-.2-.2-.9-4.5-1.2-5.6-.2-.6-.2-2-1.1-1.7l2,7.6h-.1ZM39.9,213.2c1.5-1.2,3.2,5.2,3.7,6l-2,.3-1.7-6.3ZM42.2,214.4c-.2-.9.8-.2.9,0,.7.9,1.7,3.4,1.8,4.6-.8.9-2.1-4.3-2.7-4.5M24.2,231.9c0,.2-2.4,3-2.6,2.9-.3-1.8-1.2-3.4-2.5-4.7-.3-.3-1.2-.7-1.2-.9,0-.4.4-1.2.4-1.9s-1.4-2.7-1.8-3.9c-.5-1.8-.8-3.6-.9-5.4,0-1.2,0-4.3.4-5.2.5-1.3,4.7-1.5,5.9-1.7.9-.2,1.7-.7,2.5-.8,2.2-.3,4.6.1,6.8.7.3,4.1,2.3,7.8,3.3,11.7l-10.6,7.3c-.8.6.4,1.4.3,2M8.2,204.9c.2-.3,1-2.1,1.5-1.6,1.3,3.2,2.9,6.6,2.9,10.1s-.3,6.2.5,10.2c.2,1,1.2,2.9,1.2,3.7-.3,3.1-6.3,4.8-8.5,6.7l-2.3,2.5c-1.5-9.9.2-22.6,4.8-31.6M14.3,243.3c-.9,6.1-.6,13.6-1,19.9-.3,4.1-.8,8.3-1,12.5l-6-9.1c-.4-3.4-2.3-6.7-2.6-10-.5-5.1.7-8.6,1.2-13.3.3-3.1-1-5.7,2.2-7.7,1.3-.8,3.2-1,4.6-1.8.8-.4,3.2-2.9,3.6-2.9,2.7,1.4,3.1,4.3,3.5,7.1-1.4,1.5-4.2,3.1-4.6,5.4M31.2,322.8c-1.7-.8-3.1-2.1-4-3.8-2.4-3.9-8-16.8-8.8-21.1-.2-1.3.2-4.6,1-5.7.4-.6,1.7,0,2.1.4.8.9,2.8,4.4,3.5,5.7,4.1,7.3,6.6,16,6.2,24.5M32.6,284.3l-1.7-.5c4.9,2.8,7.5,7.5,11,11.8-1.2.1-2.4,0-3.6-.3-1.8-.5-4.6-2.7-6.1-3.9s-3.3-2.3-3.5-2.5c-.2-.3-.2-.7-.2-1,.5-.5,4.6,3.1,5.6,3.3,0-.8-1.1-1.3-1.7-1.8-1.1-.9-2.3-1.6-3.6-2.2l1.3-6,2.3,3h.2ZM32.1,259.5c0,7.1-4.5,17.8-5.8,25l-2.8,7.5c-2-1.5-4.4-2.4-5.9-4.3-2.3-2.8-1.2-2.9-1.2-5.8,0-9.2.6-18.4.7-27.6,0-2.2-.3-4.1.1-6.5.9-5,5.4-9.5,9.8-11.6-.3,1.1,1.1,2.6,1.2,3.2.1.8-.5,2.7-.6,3.6-.3,6.6,4.6,10.7,4.5,16.5M62.1,259.7c-1.9-2.3-4.3-4.2-6.3-6.5-1.8-1.9-3.4-3.9-4.9-6-1.7-2.5-2.7-6.3-5.7-7.8-.3-.4,1.3-1,1.9-.6l4.9,6.6c0-2.5-2.5-4.8-4.2-6.5,2.1-2.1,3.8,2.3,5.6,3.1l.3-.7,8.3,18.3h.1ZM91.1,228.9c1.4,2.9,2.5,6,3.3,9.2l-7.3-7.8c-1.2-1.4-4.4-5.2-5-6.7-.2-.6,0-.4.4-.5.4-.2,2.5-1.2,2.7-1.2.9.1,3,2.6,3.7,3.5.9,1.1,1.7,2.3,2.3,3.6M85.3,217.7c-4.6,4.7-6.9,5.2-12.6,8.3-5.9,3.3-11.9,6.9-18.3,9.3-6.6,2.5-13.5,2.5-20.4,3.9l-.5-1.4,5.3-2.3-5.8,2-.5-1,6-3-6.2,2.6-.5-1c2.3-.9,4.9-1.9,6.6-3.6-1.7,0-5.9,3-7.1,3s-1.5-.8-1-1.3l5.5-3.3c-1,0-2.2.6-3.1,1.1-1.3.6-3.1,2.6-3.9,1.1l3.7-2.8c-1.7.3-3.2,1.2-4.5,2.3l-.8-.8.5-.8c3.8-2.8,7-5.6,11.5-7.5,9.3-3.9,22.5-5,30.4-9.8.9-.6,2.1-.8,3.1-.4l-.7,1,3-.3-1,1.7c1.4-.9,2.6-1.4,4.3-.7.3.4-3,1.7-2.3,2.3,1.8-.7,3.3-2.3,5.3-2l-2,1.5c1.4.5,2.5-1.5,4-1.5l-4.3,3.3c3-.5,5.1-4,8.3-3.6l-7.6,5.6c.7,0,1.4-.5,2-.9,1.8-1.1,5.3-3.9,6.8-4.5.5-.2,1.4-.5,1.9,0-1.3,1.6-3.6,2.2-5,3.6M243.9,242.1c-.5,0-6.5-2.8-7.7-3.2-8.2-3-16.5-5.6-24.6-9-4.9-2-12.6-6.5-13.6-12.3-.2-1.3.9-3.6-.6-3.8-4.1-.4,1.2,8.9.8,9.3-5.4-.4-10.7-.5-16.1-.3-.8,0-1.5.4-2.3.4-21.2.5-41.7.4-62.8-2-8.5-1-16.9-2.6-25.4-3.3l5.1-4.6,12.8,1.7-.3,1c.7.7,6.1-.2,7-.8.6-.4,0-.8-.5-.8-1.4-.2-2.8.2-4.2.2,2.7-3.2,5.9-6.5,6.6-10.8,1.4,1.4,2.7,2.4,3.6,4.2,2.5.6.3-2-.5-2.8-1.7-1.9-4-3.3-5.5-5.5-2.2-.9-7.3-6.9-9.4-6.4-.6.1-1,.8-1.4.8-1.1-.2-2.3-.5-3.4-.8-1.3-.6-1.6-2.4-2.8-3l1.3,3-2.5.2-2.8-3.2,1.7,3.3h-1.8c-.5-1.7-1.8-2.9-3.2-4l2.7,3.8c-.3.5-.7-.1-1-.3s-2.5-2.3-2.7-2.2l1.7,2.5c.3,1.1-4.1-2.8-4.2-3.2l-.3.7c-6.4-6.2-10.5-15.1-12.4-23.8l11.7-4.1c4.5.6,8.9,1.6,13.4,1.3l-2.9-.9c-2.2-.4-4.6-.5-6.8-.8-.4,0-1.8-.1-1.9-.6,2.1-.4,4-1.8,6-2.5,4.4-1.6,9.5-2.8,14-4.3s4.7-2,5.8-2.2c.9-.1,3.5,1.1,4.9,1.2,6.2.5,2.8-4.1,3.1-4.6l25.7-7c.7,3.5.3,7.2.9,10.8.1.8.3,3,1.2,3.2,4.3-2.6,7.8-6.4,9.9-10.9,2.2.4,4.4.8,6.6,1,3.7.4,3.4,0,7,1.3,3,1,7.6,2.8,10.6,3.3.4,0,1.1.4,1.1-.2l-8.6-2.7c0-.6.8-.4,1.2-.3,2.1.2,5.7,1.2,7.9,1.8,2.9.8,6.3,1.6,8.6,3.6-1.8-.4-3.7-1.4-5.5-1.6-.7,0-.6.3-.2.5,2.9,1.6,7.2,1.4,10.2,3.1,3.3,1.8,6.7,4.1,8.4,7.5l-11.4-3.5h-9.1v1.3c6.7.4,14.4.5,19.9,4.8,3.2,2.5,3.6,4.9,2.5,8.8-.5,1.8-1.7,3.1-2.3,4.6-1.6,4.1-2,13.4-6.1,15.5-1.9,1-7.4,2.5-9.6,2.4-3.9-.3-3.7-2-6-4-.4-.3-1.9-1.7-1.8-.5l2,2.8c-.2.2-2.9-.2-3.2-.4-.4-.3-1.6-2.9-2.6-3.2l1.2,3c-.2.2-3.3-.3-3.6-.5-.7-.4-2.6-5.3-4.3-5.8l3.3,6.3c-3.1.7-3.9-1.8-6-3.3l2.6,4-2.2,1c-.4,0-1.9-3.5-3.1-3.3-.6.6,2.1,3.1,2.3,3.8-1.1,1.5-3.3-2.9-4-2.2l2.3,3.3-1.2.6-2.5-1.9,1.7,2.6c-3.7.7-5.7,7.1-3.8,9.9,1.1,1.7,2.5,1.9,3.8,2.9,1.5,1.1,2.7,2.7,4.5,3.5l-.4.8c0,.2.4.6.6.7.8.3,6,.3,7.1.1,1.3-.2,2.4-1.1,3.7-1.3,1.8-.3,4.4.2,5.9,0,1.9-.4,6-3.5,8.1-4.5,10.1-4.6,23.7-5.9,34.6-7.6,5.8-.9,11.6-5.3,18.1-5.8,3.3-.3,6.8-.1,9.9.9.6.4.2,6.5-.7,7.4-3.1-.1-6.2.4-9.3.6-4.3.3-8.7.2-13,.4-7.1.3-14.1,2.6-21.2,3.3-1.9.2-12.4.1-12.8.7.1,2.5,3.2,2,5,2.5,12.6,3.2,26.7,4.6,37.5,12,3.2,2.2,5.1,6,7.6,8.9-1.1,1.9-3.4,2.5-4.8,3.8-.9.8-2.6,3.9-3.3,4M245.3,315.5c-.9,1.8-1.9,3.4-3.2,5-.6-8.1,4.5-15.2,4-23.2l.7,1.3c1.2-.3.7-5,.3-5.3l-1,1-.3-1.7,2,.2,1.1,7.1c.5-.4.5-.9.5-1.5,0-.9-.9-5.9-.7-6.2h1c0,2.5.2,5.6,1.2,7.9.2.4.7.4.8.6.3,1.8-5.3,12.5-6.5,14.7M253.6,236.8c.8.6.4,1.8.5,2.8,1.8,12.5,3.8,22.7,1.9,35.5-.4,2.4-1.3,7.8-2.8,9.5-.2.3-5.5,3.7-5.8,3.8-.3.2-.6.2-1,.2-1.2-4.7-1.5-9.6-2.4-14.4-1.2-6.5-3.6-10-1.4-16.9,1-3.1,2.9-6,4.1-8.9.8-1.9,2-8.3,3.1-9.2,1.1-.8,2.9-1.2,3.8-2.5M267.7,223.2c-3.5-1.2-6.4.6-9.5,1.2-.9.2-1.8,0-2.6.1-3.3.6-4.2,2-7.3,0-1.3-.9-2.4-2.2-3.8-2.9-7.1-3.2-16-5.7-23.6-7.2-3.6-.7-7.1-.9-10.6-1.8,0-.6.8-.3,1.2-.3h4.1l4.5-.7c3.8.8,7.6,1.4,11.5,1.3,0-.5-.6-.5-.9-.6-2.1-.5-4.4-.5-6.5-.8-.4,0-1.8-.1-1.9-.6,1.7.3,3.5-.6,5.1-.5,2.3,0,5.1,1.2,7.5.9-1.3-1.4-3.9-.9-5.6-1-.6-.5,3.1-1,3.5-1,7.1-.5,27.6,0,34,1.8.8.2,2.3.5,2.3,1.3-.9,3.5-2.3,7.1-1.4,10.8M270.6,287.4l-7.1,15.5-6.8,10.6c1.5-7,3-14,5.2-20.8.3-.9,2-6,2.3-6.4.1-.3.5-.5.8-.3.7,2.2,4.1.7,5.6,0v1.4h0ZM273.7,248.6c-.8,8.2.5,17.4-.3,25.9-.1,1.4-.9,8.1-2.5,8.3-3.5,0-4.2-.9-5.1-4.1-2.1-7.8-2.4-19.1-2.1-27.1.3-7.5,3.5-14.3,5.5-21.4,1.3-4.9,1.5-9.1,4.1-13.9.2-.3.3-.7.7-.8l2.3,14.1c1.1,6.6-2,12.8-2.6,18.9M279.3,231.5c-.5,0-.3-.4-.3-.8-.3-5-.1-8.4-1.6-13.4-2.5-8.5-7.2-11.3-16-11.7.1-1.9,1.3-3.9,0-5.6,11.4,4,20.6,11.4,23.8,23.4-2.3,2.4-4.5,5.1-5.9,8.1M281.5,241.8c-2.9-4.1.3-9.5,2.7-13.2.3-.4,2.2-3.2,2.7-2.7l9,23.4c.3,2.4-.4,7.8-3.5,8.1-.7,0-.4-.1-.5-.5-1.9-6.1-7-10.3-10.4-15.1M294,274.9c-1.3,3.5-2.3,7.1-3.4,10.7-.5,0-.5-.9-.6-1.2-.8-4.9-.6-10.8,0-15.8l2.2-5.2-1,6.3c1.3-1.1,1.9-3.3,2.2-4.9.6-2.6,0-4.5,2.3-6.4l-.8,7.3c.6.8,2-4.6,2-5.2.1-2-1.5-3.1.7-4.5,2.6,7-1.3,12.6-3.6,18.8"/>
          <path id="Path_224" class="st3" d="M217.2,78.8c.6-.3,1.3-.3,1.9,0,.4,0,.8.3,1.1.5-1.2-1.1-2.6-1.9-3.5,0,.1,0,.3-.2.4-.3"/>
          <path id="Path_225" class="st3" d="M219.9,102.1c0-.8-.1-1.6-.3-2.3,0,1.1,0,2.1.2,3.1v-.8"/>
          <path id="Path_226" class="st3" d="M218.6,104.4h-1.1,1.1"/>
          <path id="Path_227" class="st3" d="M225.5,150.5c.2-.5.4-1,.6-1.6-.3.4-.5.9-.6,1.4h0"/>
          <path id="Path_228" class="st3" d="M226.4,146.8c-.2-.6-.7-1.1-1.3-1.4.5.4.9.9,1.3,1.4"/>
          <path id="Path_229" class="st3" d="M224.5,167c.5-.2.9-.5,1.3-.9l-1.3.9Z"/>
          <path id="Path_230" d="M216.3,212.9c4.1,1,8.3,1.5,12.5,1.6l-2.6-.9c-3.6-.5-7.1-1.2-10.7-1.4-.1.9.2.6.8.7"/>
          <path id="Path_231" class="st3" d="M108.5,146.8c.3.6.7,1.3,1.2,1.9-.4-.6-.8-1.2-1.2-1.9"/>
          <path id="Path_232" class="st3" d="M79.6,161.9l11.5-4.2c-1.3.4-2.6.9-3.9,1.3-2.6.8-5.1,1.8-7.6,3"/>
          <path id="Path_233" class="st3" d="M155.2,128.6c-1.2,1.1-2.2,2.5-2.9,4,.8-1.4,1.8-2.8,2.9-4"/>
          <path id="Path_234" d="M122.2,146.9c-.8,0-1.5-.6-1.9-1.3,0,1,.4,1.7,1,1.7l1.6-.5h-.8"/>
          <path id="Path_235" class="st3" d="M96.9,155.5l4-1.5c-.6.2-1.1.3-1.7.5-.8.3-1.6.6-2.3.9"/>
          <path id="Path_236" d="M193.8,96.5c.6,1.7,1.3,3.4,1.9,5.1.6,1.7,1,3.4,1.5,5.1s1.1,3.3,1.8,4.9c.5.9,1,1.8,1.6,2.6-.5-.8-1-1.6-1.4-2.4-2.9-6.1-4-13.3-6.3-19.6-.3-.9-1.1-2.2-1.8-3.5,0,0,0,.2.1.4.9,2.5,1.6,5,2.6,7.5"/>
          <path id="Path_237" d="M193.5,81.3c-.4-.2-.8-.2-1.2-.2-1,0-1.9.8-2.2,1.7h0c.3-.5.9-1,1.6-1.3.6-.2,1.2-.3,1.8-.3"/>
          <path id="Path_238" d="M214.7,104.1c-1.7-1-3.2-2.3-4.5-3.8-1.6-1.8-3-3.7-4.3-5.7-.2-.3-.5-.7-.8-1.1,2.2,3.4,4.5,7,6.6,9,1,1,2.2,1.6,3.6,1.8l-.6-.3"/>
          <path id="Path_239" d="M218.9,94.1c.2.7.4,1.5.5,2.2v-.4c-.4-3.2-2.2-6.9-3-10.5,0,.3.1.7.2,1,.6,2.6,1.7,5.1,2.3,7.7"/>
          <path id="Path_240" d="M70.3,101.9v-.4c0-1.1.2-2.2,0-3.3-.2,1.2-.2,2.4-.2,3.7"/>
          <path id="Path_241" d="M254.2,134.2c-.5-2.6-1.5-5-2.8-7.3-.8-1.5-1.7-3-2.7-4.5,2,3.8,4.4,8.9,5.7,13,0-.4-.1-.8-.2-1.2"/>
          <path id="Path_242" d="M249.1,175.4h.3c0-.4.1-.7.2-1l-.5,1h0Z"/>
          <path id="Path_243" d="M204.6,126.3c0-.5.2-1,.4-1.4h-.3v1.4"/>
          <path id="Path_245" d="M127.9,208.2l-.5-1.7c.9.4,4,4.1,4.8,3.3l-1.5-3.3c1.9,1.2,2.1,4.3,4.8,3.6.3-.2-2.4-2.9-1.8-3.6.9.9,3.4,5,4.8,4-.8-1.2-1.9-2.3-2.5-3.6-.2-.5-.2-.9.4-.7,1.1.5,2.9,4.9,4.8,4.3-.2-.5-.8-.6-1.3-1.2-.6-.7-1.5-1.9-1.7-2.8l3.8,3.6,1.2-.8-3-3.8c.6-.1.8.4,1.2.7.8.6,2.3,2.7,2.6,2.9.9.6,3.9-.9,4.9-1.3-.6-1-1.8-1.6-1.7-3,.9.6,1.9,1.5,2,2.7l1.3-.3-1.3-3.3,3.3,4.1c-.2.9-7.8,4.4-9.1,4.9-3.5,1.2-7.3.9-10.8-.2-.8-.3-8.4-4.1-8.8-4.4-.4-.4-.2-1.1-.5-1.6-.7-1.3-2.2-2.6-2.2-4.1,2.1,2.5,3.4,4.8,6.8,5.6"/>
          <path id="Path_246" d="M139.8,164c-.5.5-2.9,1.1-3.7,1.1-2.4,0-4.9-.3-7.2-.8-2.3-.6-1.9-3.7.3-4.2,1.9.5,3.9.1,5.9.3,1.4.2,7.1,1.1,4.8,3.5"/>
          <path id="Path_247" d="M161.1,218.9h5.6l-6.1-2c-.4-.2-.8-.5-.2-.8,2.5-1.4,7.2,2.3,9.2,2.5,1.4.1,4.2-.7,5.6-.6.6,0,.8.4,1.1.8-.2.3-.6.6-.9.7-1.6.6-8.6,1.1-10.6,1.1s-3.8-.5-3.8-1.7"/>
          <path id="Path_248" d="M208.9,226.2c-.4.4-3.5-2-4-2.5s-5.3-6-3.1-6.5c.4,0,4,4.9,4.8,5.5l2.3,3.5h0Z"/>
          <path id="Path_249" d="M215.2,221.5c-1.8.1-3.6-.9-5.1-1.7-1.2-.7-3.2-1.8-3.6-3.2,1-.9,7.9,3.6,8.6,5"/>
          <path id="Path_250" d="M224.2,230.5l-.2.7c-1,.1-8.5-2.3-9.2-3-.4-.3-.2-.6-.2-1,3.4.1,6.6,1.9,9.6,3.3"/>
          <path id="Path_251" d="M169.7,216.5l-9.6-2.3v-1c3.3-.2,7.4.7,9.6,3.3"/>
          <path id="Path_252" d="M228.5,229.8c-2.1-.2-4.1-.8-6-1.8-1.2-.6-3.6-1.5-3.9-2.9.4-.4,9.4,3.2,10,4.6"/>
          <path id="Path_253" d="M102.2,217.5c-1.1-.1-2.7-.9-3.8-1-.3-1,.8-.7,1.5-.7,2.3,0,4.5.4,6.7,1,.6.2.9-.2.8.7-1.7-.1-3.5.2-5.2,0"/>
          <path id="Path_254" d="M211.6,224.5c-.1.1-3-1.9-3.3-2.1-.5-.4-4.4-4.4-4-4.8l6.6,5.8.7,1.2h0Z"/>
          <path id="Path_255" d="M124.4,218.9c.5,0,2.2.4,2.2,1.2-1.7.7-3.9.4-5.7,0-.6-.1-1.9-.4-1.6-1.2,1.6.1,3.6-.2,5.2,0"/>
          <path id="Path_256" d="M110,218.5c0-.4.6-.6.9-.6.8-.1,6.7.4,6.7,1.1-2.2,1.4-5.2-.4-7.6-.5"/>
          <path id="Path_257" d="M178,154.1c-.2.6-2,.4-2.5.3-1.5-.1-3-.4-4.5-.9-.5-.2-.8,0-.7-.8,2.6,0,5.2.5,7.6,1.3"/>
          <path id="Path_258" d="M123.2,214.5c-2.5,0-5.1.2-7.3-1.2.4-.7.8-.4,1.3-.4,1.6,0,5,.3,6,1.5"/>
          <path id="Path_259" d="M124.6,216.5v1l-5.7-.7c-.6-.4,0-.6.5-.7,1.7-.2,3.5.1,5.2.3"/>
          <path id="Path_260" d="M191.6,154.1c0,.6-.8.3-1.1.3-1.8-.2-3.5-.6-5.1-1.2-.5-.2-.9.2-.7-.8l7,1.7h0Z"/>
          <path id="Path_261" d="M121.6,211.2c-.3,1.1-4,.8-4,.2,1-1,2.8-.4,4-.2"/>
          <path id="Path_262" d="M38.2,104.6c.9,1.2-5.7,13.2-8.3,13.6-.5-.6,4.5-8.5,5.2-9.6s1.5-2.3,2.3-3.4c.3-.4,0-.8.8-.6"/>
          <path id="Path_263" d="M39.9,109.3c1.1,1.3-4.4,8.9-6.3,9.3.3-1.9,1.8-3.9,2.9-5.6.3-.4,2.9-4.3,3.4-3.7"/>
          <path id="Path_264" d="M33.6,143.8l4.3-2.5c2.5-1.8,4.7-4.4,7-6.2.5-.4,1.2-1.2,1.6-.4-2.1,2.1-4.1,4.3-6.5,6.1-1.8,1.3-4.2,3.3-6.4,3.1"/>
          <path id="Path_265" d="M28.9,115.3l6.3-10.6c.9,1.6-5.9,11.1-6.3,10.6"/>
          <path id="Path_266" d="M32.6,139.5l4.3-4c.6.8-3.2,4.2-4.3,4"/>
          <path id="Path_267" d="M32.2,142.5c1.5-2,3.6-3.3,5.3-5,.2.6-.3.8-.7,1.2-1.1,1.3-3,3.4-4.7,3.8"/>
          <path id="Path_268" d="M48.2,180.3c4.2,1.8,8.5,4.2,11.9,7.3l-12.2-6.6-1.8,2.1,5.3,4.2-6.1-3.5-2.2,1.1,2.7,2.2c-1.2,0-4.5-3.3-5.3-1.5.8.4,1.6.8,2.3,1.4.5.4,1.5.7,1.4,1.4-3.1-1.4-5.8-3.5-9.3-3.7,0-.4.6-.5.9-.6,2.9-.5,5.5,1.3,8.4-.6,3.1-2.1,3.3-6.2,5.2-9.1l-1.1,5.9h-.1Z"/>
          <path id="Path_269" d="M99.7,202.6c0,.6-.7.6-1.2.7-2.7.3-8.1-.5-11-1-.5-.1-.6.2-.5-.6,4.2-.8,8.5,0,12.6,1"/>
          <path id="Path_270" d="M93.5,206.9c-1.5-.1-5.3-.8-6.7-1.3-.5-.2-.9-.2-.3-.7l8.9,1.1,3.9.9c-1.9-.1-3.9.2-5.8,0"/>
          <path id="Path_271" d="M93,208.6c0,.6-1.7.3-2.1.3-2.2-.2-4.5-.5-6.7-1-.5-.1-1,0-1.2-.7,3.2-.7,6.8.7,10,1.3"/>
          <path id="Path_272" d="M238.1,144.5c-.4.4-3-2.4-3.3-2.8-1-1.1-4.7-5.9-4.9-7.1-.2-.4,0-.9.4-1.1.7-.1,2.9,2.9,3.4,3.6.5.7,4.7,7.1,4.4,7.4"/>
          <path id="Path_273" d="M238.5,147.8c-5.4-1.2-7.2-7.2-10.3-11.1-2.2-2.8-5.3-5.4-8-7.8,1.7.3,3.4,1.9,4.7,3.1,3.6,3.6,5.6,7.6,8.6,11.3,1.5,1.8,3.4,2.9,5,4.5"/>
          <path id="Path_274" d="M244.4,130.5l-6.6-9.6c.6,0,.9.4,1.3.8,2.2,2.2,4.8,5.8,5.3,8.8"/>
          <path id="Path_275" d="M235.4,136c.7.6,4.2,5.3,3.8,5.9-1.2-.2-5.1-5.8-4.6-6.3.3.1.6.2.9.4"/>
          <path id="Path_276" d="M204.3,199.9c-2.5,2.6-5.3,4.9-8.3,7-.2-.7.4-.7.8-1.1,1.1-1,2.6-2.3,3.7-3.2,1.1-.9,2.4-2.1,3.8-2.7"/>
          <path id="Path_277" d="M202.6,199.6c.3.3-5.6,4.8-6.6,4.3.5-.8,1.6-1.3,2.4-1.8.5-.3,4.1-2.7,4.3-2.5"/>
          <path id="Path_278" d="M26.3,277c.1,3.1,0,7.3-3.1,9-1.1-.2.2-3.4.5-4.2.6-1.5,1.5-3.7,2.7-4.8"/>
          <path id="Path_279" d="M20.6,284.9c.4-2.2.9-4.5,1.5-6.6.2-.8.5-2.2,1.2-2.7-.4,2.5-.7,5.9-1.6,8.2-.2.6-.3,1.2-1.1,1.1"/>
          <path id="Path_280" d="M19,283.9c-1.4.3,0-2-.2-2.7l1.9-5.9c.3,3-.9,5.8-1.7,8.6"/>
          <path id="Path_281" d="M17,284.9c0-1.9.1-3.9.4-5.8,0-.5.2-2,.6-2.2.8,2.3-.3,4.7,0,7.1l-1,.8h0Z"/>
          <path id="Path_282" d="M35.9,290.6l-2.8-1.7-3.2-3c2.3.8,4.5,2.8,6,4.6"/>
          <g id="Group_302">
            <path id="Path_222" class="st1" d="M14.8,129c.4-1.8.9-3.6,1.5-5.4.4-1,.8-1.9,1.3-2.8l-9.3,3.2c2.3,1.5,4.4,3.3,6.5,5.1v-.2"/>
            <path id="Path_244" class="st1" d="M222.9,167.7c.5-.2,1-.4,1.6-.6l1.3-.9c.4-.4.7-.9.8-1.5,0-.8,0-1.7-.3-2.5-.2-1-.4-2-.7-2.9-.4-1.7-1.1-3.5-1-5.3,0-1.2.4-2.4,1-3.5h0c.1-.6.3-1.1.6-1.5.1-.4.2-.7.3-1.1v-1c-.4-.5-.9-1-1.3-1.4-.7-.4-1.4-.7-2.2-.9-1-.4-2-1-2.9-1.7-1.2-.8-2.4-1.7-3.6-2.6-2.3-1.8-4.6-3.7-6.6-5.8-.8-.9-1.7-1.6-2.6-2.4-.9-.8-1.7-1.6-2.3-2.6-.7-1.1-1.1-2.4-1-3.8v-.2l-14.3,6.2,31.5,36.9c.6-.3,1.2-.6,1.8-.8"/>
            <path id="Path_283" class="st1" d="M148.1,80.9l36.2,43.9L179.9,0,54.4,40.2l5,61.8c0,0,.3-.2.4-.2.7-1.1,1.4-2.3,2-3.5s1.4-2.7,2.2-4.1c0,0,.2-.3.2-.4.2-.5.6-1,.9-1.5.2-.2.3-.3.6-.5.3-.3.6-.6.9-.8.4-.4,1-.6,1.5-.6h.6c.4.2.7.4.9.7,0,0,.2.2.3.3.4.7.7,1.4.7,2.2,0,.5.2,1.1.2,1.6,0,1.2.2,2.4.2,3.7s0,2.2-.2,3.3l-.4,1.1,9.4-2.6c2.2-.6,4.3-1.2,6.1-1.6,1.6-.4,3.2-.9,4.8-1.3h0l.5-.2c.7-.2,1.3-.4,1.9-.6l54.8-16.1h.2Z"/>
            <path id="Path_284" class="st1" d="M180,125.2c-2-2.6-4.2-5-6.4-7.4l-10.8-13.9c-2.6-3.9-5.2-7.9-8.1-11.6-2.3-2.9-5-5.4-7.3-8.3h-.4c-2.3.7-4.7,1.1-7.1,1.8-3.4,1.1-6.9,2.2-10.4,3.3l-59.4,17c0,.4-.2.8-.3,1.2-1.3,4.8-2.9,9.6-4.7,14.2-.4.9-.7,2-.7,3s0,2-.4,2.9c-.3.9-.8,1.8-1.3,2.6-.6,1-1.2,2-1.8,3-2.3,4.1-5.1,7.8-8.4,11.2-1.2,1.3-2.6,2.5-4,3.6-.7.5-1.3,1-1.9,1.6-.5.4-.8,1-.9,1.6v.6c2.8,3.7,6.8,6.5,10.2,9.6,1.1,1,6.3,6.7,7.1,6.7l12.5-4.6c3.7-2.4,7.9-3.9,12.1-5.3,2.2-.7,4.3-1.4,6.4-2.2,1.9-.7,3.7-1.6,5.6-2.2,1.8-.6,3.7-1,5.6-1.6,1.6-.4,3.2-1.1,4.6-2-.4-.5-.8-1-1.1-1.5-1.3-2-2.3-4.2-2.8-6.6-.3-.9-.4-1.8-.5-2.7,0-.8,0-1.6.2-2.4,0-1.4.5-2.9,1.1-4.2.8-2,2.1-3.6,3.7-3.4.2,0,.4,0,.6.1h1.1c1.2.3,2.4.9,3.4,1.7,1.1.9,2.1,2,2.7,3.3.7,1.3,1.2,2.7,1.6,4.1.2.8.3,1.7.3,2.6v2.7c.2,1.2.8,2.5,2.1,2.5s2.4-.6,3.5-1c2.8-.8,5.5-1.6,8.3-2.4,1.7-.5,3.5-.9,5.2-1.4,2-.5,4-1,5.9-1.6.7-.2,1.4-.5,2.1-.8.2-.1.4-.2.6-.3h.1c0-.2.2-.3.3-.3h0c.1-.1.2-.2.3-.4,1.5-2.2,2-4.9,3.4-7.2.7-1.2,1.7-2.2,2.8-3.1.9-.8,2-1.2,3.2-1.3,2.1,0,3.6,1.4,4.4,3.1.8,1.8,1.2,3.8,1.1,5.8l18.4-6.5c.3-.4-1.9-3.3-2.3-3.8"/>
            <path id="Path_285" class="st1" d="M293.6,150.6c-.2-.4-1.5-2.2-2.7-3.7l-25.9,13.2-3.1-28.1,10.8-8.9-14.3-19.3-16.6,7.2c-.2.2,1,2,2.2,3.9.6.7,1.1,1.5,1.6,2.2,2.7,3.5,5.1,7.3,7.1,11.3,1.1,2.1,1.8,4.4,2.1,6.7.3,2.2.4,4.4.7,6.6,0,0,.1,0,.2.1,1.7,2.6,2.5,5.7,2.4,8.8,0,5.8-2.4,11.3-4.7,16.5-.6,1.3-1.2,2.6-1.8,3.9-.6,1.3-1.2,2.6-1.6,4l43.5-23.5c.6-.4.2-.3,0-.7"/>
            <path id="Path_286" class="st1" d="M265,160.1l25.9-13.2h0l-18.2-23.8-10.8,8.9,3.1,28.1Z"/>
            <path id="Path_287" class="st1" d="M253.6,52.5v-1.4l-38.8-27h0c-1.7-1.2-3.4-2.3-5.1-3.4l-13.9-9.7c-4.4-3.2-8.8-6.5-13.1-10l-.8.5c.9,1.6.2,2.6.3,4,.9,17.4,1.6,34.9,2.3,52.5,1,22,1.4,44.1,2.7,66.1v4.5c6-1.7,11.4-4.8,17-7.3-.3-1-.7-2-1.4-2.9-.8-1.2-1.7-2.2-2.6-3.4-.9-1.1-1.6-2.3-2.2-3.6-1.4-3.2-2.1-6.7-3.2-10-.6-1.7-1.3-3.4-1.9-5.2-.5-1.4-1-2.8-1.4-4.2-.7-2.2-1.6-4.3-2.1-6.6-.2-.9-.2-1.9,0-2.8.2-.6.6-1.1,1.1-1.5.8-.7,2-.8,2.9-.4,1.3.5,2.5,1.3,3.5,2.2,1.3,1.2,2.6,2.5,3.7,3.9,2.4,2.8,4.5,5.8,6.6,8.8,1.4,2.1,3,4,4.8,5.7,1.4,1.3,3.2,2.7,5.1,3.1h1.3c.3,0,.6-.2.8-.4.3-.3.5-.7.5-1.1-.2-1-.2-2.1-.2-3.1-.2-1.3-.6-2.7-.9-4-.2-.8-.3-1.5-.6-2.3-.4-1.4-1-2.9-1.4-4.3-.8-2.7-1.7-5.7-.8-8.5.1-.6.4-1.1.9-1.5.9-1.8,2.3-1,3.5,0,1.2.7,2.3,1.6,3.3,2.7,1.1,1.1,2.2,2.3,3.2,3.5.4.2.8.6,1.1,1,.5.7,1,1.4,1.4,2.1.8,1.5,1.5,3,2.2,4.6,1.2,2.8,2.4,5.6,3.8,8.3.9,1.5,1.8,2.9,2.7,4.3.6,1,1.4,1.9,2.2,2.7,1.1.5,11.6-5,13.3-6l.2-49.9h0Z"/>
          </g>
        </g>
      </g>
    </g>
  </g>
</svg>