<?xml version="1.0" encoding="UTF-8"?>
<svg id="Layer_2" data-name="Layer 2" xmlns="http://www.w3.org/2000/svg" viewBox="0 0 226.04 351.92">
  <defs>
    <style>
      .cls-1 {
        fill: #ff5c8a;
      }

      .cls-2 {
        fill: #fff;
      }
    </style>
  </defs>
  <g id="Layer_1-2" data-name="Layer 1">
    <g>
      <path class="cls-2" d="M80.32,22.97l5.72-6.99,8.26-7.46,5.88-3.81,8.42-3.02,4.76-.95,4.13.48,5.72,1.59,5.4,3.18,6.67,5.24,4.02,5.13,2.7,8.71-2.85,10.82-1.43,7.59-3.08,6.76-5.03,7.14-.08,2.55,2.25,8.41,6.16,3.53,8.94,2.4,15.48,1.65,10.22,3.61,13.22,13.97,7.36,6.61,6.54,19.61,5.33,20.66,5.78,16.38-2.4.45,2.93,9.09,4.21,8.71,2.85,9.54,1.43,7.14v16.83l.15,18.56,1.65,9.77,3.08,12.62-.3,3.91-.83,1.58.23,3.23-1.05,2.7-3.01,2.63-1.05,3.91-1.13,2.03-1.95.23-4.51-1.88-13.07-7.59-2.18,1.5-1.8.3-3.38-10.89,1.2-2.93,4.88-12.4,6.99-10.44-1.13-5.94-9.54-21.04-7.14-17.35-.83-13.52-6.06-.65-2.26-1.13-6.49-15.6-2.05,1.69-1.41,15.6,2.61,9.46,2.26,6.28.21,10.02v8.47l3.04,6.63-.78,10.16s4.31,10.16,4.38,10.45,6,7.55,6,7.55l-.35,12.21-.07,11.86,4.16,8.82,7.55,8.68-1.27,2.68,6.35,9.95,9.74,21.1,5.93,15.46,2.75,7.48v3.74l-4.73,10.31-3.88,1.27-8.47-1.06-25.2-5.29-8.47-5.36-11.22-8.19s-3.25-5.51-3.18-5.72-.35-7.48-.35-7.48l-8.89-11.22-18.56,3.67-3.74-5.36-2.68-11.36-16.38,2.05-3.53,1.41-6.35,6.92-5.08,9.46-6,3.81-2.33.92-.07,6.35-7.83,9.39-4.09,4.87-8.47,4.24-17.01-1.62-1.2,1.06-7.2,3.74-9.67,2.33-4.31-1.76-9.46-7.34-4.31-7.55-.85-4.31,2.96-8.68,5.01-15.81,5.79-9.18,3.95-6.71-3.04-4.09,1.55-3.88,3.6-10.8,5.01-6.92,4.52-6.07,2.75-5.43.92-3.25.14-5.29,1.2-4.02,2.89-2.61,4.59-7.48,3.88-6.85,3.81-5.86,1.34-4.16-1.98-2.75.07-2.61,1.76-9.18,3.53-8.89,3.53-7.13,2.89-6.07-2.82-5.72-15.1,2.96-1.27,5.08-5.22,22.59-20.47,41.43.07,4.09s2.96,7.2,3.25,7.41-2.47,12.63-2.47,12.63l-3.6,6.35-2.4-.14-6.14-2.26-6.14-2.4-3.6-9.74,2.05-5.15,8.89-19.34,4.52-45.6,7.76-16.94,5.93-11.58-2.19-4.38,1.84-7.13,6-35.43,4.09-17.01,2.05-3.6,8.05-5.79,14.54-6.78,16.73-8.19-2.26-10.23-.21-8.19-2.75-6.14.07-5.43,1.2-5.58,3.39-9.7Z"/>
      <g>
        <path d="M173.8,343.37c-.48-.76-1.79-.73-2.59-1.18-2.63-1.48-7.35-5.13-9.97-7.08-4.25-3.16-8.19-7.3-8.75-12.9-.13-1.26.29-3.39-.17-4.42-.09-.2-2.22-2.87-2.7-3.53-1.63-2.29-3.53-4.41-5-6.83-6.65,1.52-13.39,3.86-20.33,2.98-1.54-.76-4.03-8-4.57-9.86-.41-1.43-.6-6.17-2.16-6.39-.75-.11-5.94.86-7.11,1.09-3.07.6-6.41,1.71-9.57,2.24-1.76,2.15-3.73,4.18-5.44,6.37-3.32,4.24-6.25,10.78-11.19,13.08-.87.41-1.61.61-2.59.53-.16.15.13,3.64-.02,4.41-.52,2.79-8.85,13-11.14,15.75-.59.71-1.34,1.29-1.95,1.98.72.26,1.18,1.33,1.7,1.56,1.48.66,4.43-.15,5.51,1.55-2.67.22-5.39-.09-8.05,0-6.7.19-15.42,1.34-21.93.32-1-.16-2.24-1.3-2.98-1.29-.36,0-4.89,3.11-6.16,3.66-5.26,2.29-10.32,4.02-16.04,2.47-2.38-.64-7.55-5.91-9.44-7.94-2.34-2.5-3.91-4.31-5.3-7.5-1.59-3.67-1.81-3.84-.76-7.77,2.39-8.95,5.41-18.09,9.94-26.14,2.19-3.9,4.83-7.52,6.9-11.48l-3.56-3.21c.81-1.84,1.63-3.68,2.3-5.58.95-2.7,1.59-6.17,2.55-8.6.89-2.26,5.07-7.69,6.69-10.04,2.72-3.94,6.84-7.88,7.72-12.61.46-2.48.19-4.74.45-7.09.47-4.16,4.58-7.46,6.86-10.85,2.59-3.85,4.64-8.36,6.94-12.41.67-1.19,3.62-5.26,3.82-6.05.39-1.56-1.78-2.19-1.93-3.5-.48-4.15,1.65-11.28,3.14-15.27,2.28-6.1,5.4-11.96,8.02-17.91l-1.85-5.4-13.59,2.51c-1.88,6.38-2.56,13.03-4.05,19.49-2.72,11.77-9.1,20.87-14.45,31.46-2.16,4.28-7.77,14.28-8.02,18.56-.22,3.8,3.19,5.92,2.94,10.81-.18,3.59-2.91,14.48-4.91,17.39-2.59,3.77-6.16.72-9.25-.26-2.64-.84-7.11-.85-8.73-3.07-.86-1.17-2.87-7-3-8.48-.26-3.08,2.57-8.81,3.98-11.76,4.33-9.05,6.87-11.54,7.51-22.34.71-12.15.56-26.92,3.69-38.63,2.36-8.84,9.27-17,12.3-25.76.25-1.66-1.48-4.14-1.56-5.84-.1-2.16,1.11-4.61,1.54-6.62,3.04-14.44,5.15-29,8.05-43.45,2.42-12.06,3.7-15,14.44-21.31,9.17-5.39,19.59-9,29.37-13.1.38-3.56-1.62-6.98-1.92-10.3-.22-2.44.35-5.54-.02-7.85-.16-.98-1.15-1.95-1.53-3.06-.39-1.13-1.4-5.03-1.42-6.14-.05-1.72,2.4-10.16,3.07-12.38,2.64-8.83,9.69-16.52,17.39-21.31,15.57-9.67,24.41-9.75,39.07,1.7,5.24,4.1,5.86,7.08,7.88,13.11.25.75.92,1.5,1.07,2.22.46,2.24-1.34,5.62-1.81,7.88-1.39,6.63-1.29,8.97-4.28,15.4-.92,1.98-2.68,6.6-3.72,8.09-.7,1-2.18,1.48-2.77,2.65,0,5.31,2.73,9.95,7.31,12.58,5.76,3.31,15.96,2.49,22.48,3.43,1.8.26,11.4,3.27,12.94,4.11,2.16,1.18,5.63,6,7.47,7.94,3.75,3.98,8.46,8.03,11.98,11.96,2.22,2.47,5.81,12.39,6.97,15.99,3.63,11.29,5.73,24.59,9.73,35.53.76,2.08,2.62,4.74,3.07,6.78s-2.15,1.14-2.04,2.33l8.5,23.01c2.53,6.46,1.88,12.94,1.94,19.71.08,9.34.14,18.81.37,28.14.16,6.83,6.13,16.33,4.82,22.61-.18.85-1,1.51-1.16,2.12-.69,2.75.21,5.31-2.2,7.97-.54.6-1.34.74-1.75,1.53-1.09,2.09-.03,5.13-3.02,6.17-4.18,1.44-9.88-3.84-13.55-5.8-1.22-.65-5.73-2.89-6.77-2.41-1.11.52-2.99,3.98-4.29,1.01-.79-1.8-2.36-7.13-2.72-9.09-.78-4.37,2.73-9.47,4.14-13.8.79-2.42,1.22-6.04,2.07-8.1.63-1.53,5.98-6.81,5.98-7.34-1.83-4.48-3.22-9.12-5.13-13.57-3.45-8.07-8.62-16.34-11.54-24.54-2.01-5.63-2.35-11.6-2.29-17.56-2.03.08-5.13-.46-6.86-1.5-1.29-.78-3.46-6.02-4.12-7.69-.72-1.83-.86-4.16-2.13-5.57-.37,2.94-1.25,5.78-1.6,8.73-.18,1.5-.52,3.78-.37,5.21.16,1.56,2.68,6.55,3.36,8.77.82,2.65,1.92,6.27,2.17,8.98.46,5-1.01,10.93-.27,15.69.25,1.58,2.3,4.48,2.86,6.33,1.17,3.88-1.06,5.97-1.23,9.74,2.08,3.62,3.36,8.8,5.51,12.23,1.33,2.13,4.04,4.04,5.11,6.37,1.19,2.59-.59,7.64-.8,10.62s-.37,11.73.43,14.35c.41,1.34,2.5,4.52,3.38,5.81,3.03,4.43,7.13,8.05,10.17,12.47.69,1.34-3.29,1.37-3.15,1.82,2.28,3.11,4.74,6.11,6.51,9.56,5.71,11.12,9.66,21.65,13.8,33.43,1.41,4.01,4.47,9.94,4.3,14.1-.07,1.73-3.66,9.94-4.79,11.3-1.05,1.27-4.02,1.55-5.57,2.33-6.85-1.08-13.77-1.96-20.55-3.4-4.93-1.05-10.76-3.41-15.52-3.83-3.02-.27-6.45-.1-9.5-.34-.48-.04-2.44-.11-2.14-.98h11.15ZM137.4,41.25c.35-2.94.74-6.04,1.41-8.92.5-2.14,2.12-5.45,2.17-7.68.03-1.02-2.55-8.11-3.19-9.22-3.12-5.43-13.8-11.41-19.73-13.06-9.63-2.68-17.65,3.79-25.42,8.37l-7.33,8.41c-.08.44.7,1.45.99,1.86,3.26,4.51,6.03,1.51,10.28,1.21,3.01-.21,5.98.43,9.14-.05,1.69-.26,3.78-1.41,5-1.49,1.7-.11,4.7.95,6.68.71.55.3.6.74.67,1.3.46,3.54-.83,7.87-.32,11.15.16,1.05,1.02,1.84,1.35,2.92.67,2.18.87,5.16,1.41,7.44.42.53.33.21.66,0,1.37-.9,2.56-2.53,3.99-3.55.89-.63,5.75-3.54,6.53-3.65,1.39-.2,3.44.83,4.38,1.81.76.79.54,1.9,1.33,2.44ZM130.41,55.26c1.93-2.8,5.95-12.33,4.53-15.32-.29-.61-2.12-1.36-2.8-1.17-1.37.38-7.13,5.19-7.93,6.52-.86,1.43-2.92,9.39-4.35,9.09-.96-1.32-.34-3.33-.58-5-.33-2.3-1.7-4.3-1.85-7.01-.07-1.36.41-3.25.23-4.15-.2-.98-1.37-1.48-1.57-2.72-.34-2.14.93-11.31-.02-12.12-.37-.32-3.78-.85-4.39-.81-1.38.1-3.58,1.27-5.03,1.55s-3.36.18-4.8.45c-5.54,1.01-11.74,3.66-16.73-.4-.84-.68-.76-2.2-1.67-2.91-2.58,2.01-2.17,4.95-2.88,7.61-.42,1.57-1.09,4.15-1.65,5.57-1.56,3.97-3.78,4.42-2.35,9.43.61,2.13,2.77,5.36,3.03,7.15.28,1.94-.59,4.81-.24,7.11,1.05,6.82,5.96,16.01,9.55,21.93,1.15,1.89,3.36,4.76,5.69,5.13,3.45.56,7.87.14,10.62-2.14,1.16-.95,1.47-2.37,2.43-3.31,3.06-2.99,12-8.97,13.24-12.84.49-1.53.59-3.54,1.07-5.17.14-.48-.19-.57.66-.48,1.72,6.17-1.72,9.82-5.73,13.79-2.34,2.32-4.15,4.43-6.4,6.72-2.12,2.16-4.85,4.18-7.54,5.57,0,.53,8.44,4.88,9.36,5.06,4.07.82,6.91.21,10.79,0,2.06-.11,5.01.34,6.88,0,1.42-.26,6.99-5.93,8.26-7.31,2.84-3.08,5.26-6.55,7.98-9.72-5.02-.98-12.24-2.74-15.22-7.25-.36-.55-1.5-2.78-1.79-3.46-.75-1.73-1.31-3.84-1.68-5.7-2.11.97-3.85,2.7-5.72.31-1.08-1.38-.07-1.85.83-1.08.25.21.32,1.17,1.06,1.05l6.68-3.99ZM49.85,112.6c.47,1.68-.35,5.44,0,7.38,1.76-1.45,3-3.45,4.75-4.92.37-.31.53-.8,1.15-.65.62.57-5.77,6.32-6.05,6.9-.14.29-.98,3.41-.02,2.93l5.25-5.57.48.48c-1.53,2.19-5.01,4.71-6.24,6.88-.53.94-.41,2.43-.15,3.46,1.9-1.7,3.97-5.43,6.06-6.73.45-.28.78-.32.66.33-1.75,2.66-5.14,5.4-6.7,8.06-.82,1.4-.17,2.74-.02,4.25,2.47-2.64,4.66-6.69,7.28-9.1.36-.33.21-.6,1.08-.4.55.43-8.1,9.97-8.17,11.3-.02.41.38,1.59.54,2.08.11.32-.06.98.57.72.72-.29,3.69-4.64,4.59-5.58.26-.27,1.13-1.3,1.48-.98l-5.91,8.03c0,.48,5.75,6.26,6.57,6.89.33.25.42.64.98.49.5-5.83,1.06-11.68,1.68-17.51.35-3.24.79-3.62.37-7.02-.42-3.38-1.73-12.86-.73-15.64.13-.35.16-.79.64-.83.4.3,0,2.72.98,2.95.25-2.86.96-5.74,1.88-8.45.32-.94.57-2.99,1.73-3.03.52.63-2.09,12.6-2.29,14.6-.57,5.76.73,9.94.66,15.1-.09,6.64-1.95,13.6-2.6,20.03-.33,3.23,1.83,7.84,3.19,10.85.73,1.63,4.57,8.21,4.63,9.14.08,1.22-.88,4.56-1.38,5.81-.83,2.1-2.37,3.92-3.26,5.92-2.43,5.4-6.69,17.44-7.39,23.11-.09.73-.29,1.71.08,2.38.13.24,3.72,2.8,4.32,3.22,1.93,1.35,4.06,2.63,6.19,3.65,3.15-.26,6.35-.13,9.49-.31,4.72-.28,10.86-1.57,15.41-1.3,7.62.44,17.24,4.16,25.01,5.48,4.87.83,9.21-.29,14.02-.57,11.06-.64,22.39,1.26,33.4-.05,1.08-.13,4.88-.78,5.64-1.25s2.7-5.26,2.76-6.11c.17-2.68-3.11-6.15-2.59-10.45.93-7.67,1.46-12.38-1.18-19.86-1.03-2.92-3.23-6.36-3.35-9.45-.32-8.2,1.01-16.58,1.48-24.77-2.2-4.01-4.52-6.8-4.85-11.55-.15-2.2.3-4.5-.25-6.64-2.44-3.68-7.8-8.7-9.42-12.56-2.29-5.44-3.39-12.91-5.18-18.76-.61-2-1.79-2.97-1.4-5.2.73-4.11,4.58-8.97,6.9-12.45.19-.28.8-.47.17-.82-.83-.46-1.82-.07-2.44.52-1.65,1.56-4.04,6.03-5.62,8.15-2.35,3.13-8.06,11.25-11.05,12.89s-12.36,1.41-15.77.88c-8.61-1.33-16.17-8-23.57-11.52-.84-.4-1.74-.27-2.76-.85-2.74-1.54-6.18-10.18-8.22-13.1-1.2-1.71-1.89-3.1-4.18-1.73-.67,2.49-.89,5.31-1.79,7.72-1.36,3.66-6.93,9.29-9.85,12.12-.96.93-5.84,5.55-6.56,5.9-.43.21-.84.21-1.3.17-.8-.75,4.68-7.03,5.4-7.88,3.94-4.61,9.59-9,11.41-14.83.13-.41.71-2.4.56-2.55-.74-.1-1.38.17-2.05.4-5.22,1.78-11.87,5.78-16.86,8.39-5.06,2.66-16.57,7.68-17.99,13.49-3.94,16.11-5.79,33.62-9.1,49.95-.47,2.32-2.26,6.92-1.8,8.88.17.74,2.4,3.44,3.04,4.17,1.2,1.38,8.61,8.94,9.67,9.35s4.18.74,5.42.81c5.21.3,10.46-.81,15.57-1.64-1.53-2.85-4.03-4.52-6.45-6.52-1.1-.3-1.56,2.17-3.06,1.93,1.33-2.23,2.77-2.86-.17-4.59-.51.89-.96,1.88-1.54,2.72-.29.43-3.31,4.75-3.87,4.16.02-.76.62-1.47,1.04-2.08.6-.88,3.72-4.23,3.85-4.71.16-.62-1.75-2.63-2.12-2.71-.46-.1-.55.25-.75.53-1.6,2.21-2.98,4.61-4.84,6.64-.33.36-.48.82-1.11.69-.13-.6.19-.91.44-1.36.85-1.53,5.21-5.94,5.43-6.74s-.94-1.51-1.46-2.05c-.44-.12-.54.25-.75.53-1.98,2.69-3.46,5.97-6.28,7.99-.09-.55.13-.96.37-1.43.91-1.72,5.46-6.04,5.81-7.34.39-1.47-2.88-3-3.56-4.2-.17-.77,1.13-1.08,1.63-.64l13.12,10.65c-.35-1.4-.29-4.04-.83-5.24-.26-.59-3.87-5.07-4.58-5.92-1.76-2.11-4.16-3.3-4.99-6.16-1.2-4.1-1.6-13.55-1.4-17.94.07-1.58.89-9.01,1.38-10.1.45-1.01,1.42-.26,1.57.26ZM98.71,87.18c5.5,4.31,12.1,6.58,18.22,9.82,2.7.76,11.59-.41,14.66-1.04,5.37-1.1,5.51-4.57,8.3-8.42.5-.69,1.28-1.18,1.77-1.84,2.37-3.2,4.61-6.49,7.21-9.51l-1.58-.43c-1.45,2.06-2.94,4.17-4.51,6.14-2.06,2.58-8.45,11.28-10.87,12.42-.56.26-1.69.56-2.3.65-7.69,1.06-14.84.56-21.73-3.02-2.97-1.55-5.88-4.19-9.17-4.76ZM183.63,118.01c2.2,4.27,3.37,9.17,3.94,13.94.43,3.61-.55,5.31,1.7,8.8,1.6,2.48,9.02,8.91,11.64,10.99,2.03,1.61,5.49,4.21,7.97,2.52-4.28-8.19-5.31-17.5-7.85-26.25-.91-3.12-2.22-6.41-3.28-9.51-1.74-5.08-3.82-12.23-6.43-16.86-1.2-2.12-5.05-5.44-6.87-7.56-2.26-2.64-9.61-12.42-12.29-13.3-.95-.31-2.19-.32-3.29-.65-4.26-1.28-8.55-2.72-13.05-3.06-2.73,4.34-6.05,8.48-7.54,13.47,1.04,4.46,3.19,8.47,4.62,12.79,2.21,6.71,1.89,10.77,6.96,16.33.39.43,3.06,3.29,3.45,2.95l2.3-11.98c1.16-.92.33,4.13.27,4.54-.55,4.11-1.8,7.2-1.58,11.53.35,6.92,1.23,12.64,5.3,18.32.32.45.59.99,1.26.87.07-2.42.85-6.57,1.95-8.71.36-.7.37-.94,1.33-.8-.45,3.09-1.95,5.93-2.25,9.06-.42,4.34,2.58,12.12,4.21,16.38.26.68,1.31,3.22,1.64,3.61,1.24,1.49,4.47-1.45,5.8-2.1,3.41-1.67,7.95-3.92,11.37-5.35,2.17-.91,4.48-1.43,6.78-1.91l-.49-.98c-4.34-4.37-9.85-8.93-13.83-13.56-3.13-3.65-1.76-10.43-2.48-14.74-.09-.52-1.64-4.45-1.88-4.68-.22-.21-.6-.34-.67.03-.46,1.61-1.63,3.98-3.6,3.76-.26-1.42,1.02-1.98,1.65-3.11.36-.64,2.31-5.42,3.26-4.76ZM205.6,257.1c4.3-.36,8.98-2.28,13.1-2.81.79-.1,1.45.29,2.39.12.99-.19,2.53-1.25,2.56-2.38.03-1.37-.78-5.89-1.08-7.48-1.67-8.73-3.43-15.86-3.86-25-.62-13.16,1.96-29.81-3.21-42.06-1.56-3.69-4.19-8.29-6.12-11.92-1.4-2.63-2.98-5.18-4.26-7.87l-.97-.34-17.34,6.64c-1.06.6.03,2.57.1,3.72.44,6.91.35,11.61,2.62,18.38,4.09,12.21,9.12,22.41,14.69,33.85.34.69,2,4.42,2.03,4.86.28,4.14-5.31,6.23-7.14,9.88-1.78,3.53-2.69,7.59-4.71,11.36-.54,1.01-2.64,3.65-2.83,4.41-.41,1.69,2.8,7.88,3.22,9.92,3.96-2.48,1.39-7.23,2.12-10.5.32-1.42,2.57-6.27,3.94-6.55,1.52-.3,5.93.76,7.04,1.8.47.44,1.28,2.1,1.62,2.3.45.26,3.99-1.22,3.62.32-1.53.99-3.31,1.46-4.92,2.29-1.01.52-3.91,2.66-4.72,2.49-.6-.77-1.62-6.17-2.65-5.93-2.2,2.54-1.33,6.29-1.83,9.33-.12.71-1.21,2.61-.83,3.15,1.47.61,2.96,1.12,4.36,1.89,3.93,2.18,8.56,6.07,12.56,7.79,2.86,1.24,2.55-2.67,3.61-4.45-3.2-.85-7.46-1.99-10.34-3.6-.46-.25-.95-.28-.8-1,1.07-.88,8.77,3.18,10.91,2.88,2.99-.41,4.83-3.8,4.81-6.62-.19-.81-2.12-.02-2.82,0-.61.02-1.22-.28-1.9-.22-3.96.37-8.13,2.54-12.48,1.98-.45-.06-.96-.18-.48-.65ZM46.9,169.51c-2.74.01-6.28-.53-8.58-2.08-1.43-.97-3.07-4.19-4.54-5.63-1.01-.99-2.53-1.62-3.44-2.78-5.14,7.93-8.33,16.96-12.72,25.32-2.8,13.87-3.06,28.06-4.17,42.08-.71,9-2.29,10.81-6.49,18.11-.95,1.65-4.5,7.34-4.83,8.62-.83,3.2,2.32,7.78,3.28,10.84,2.85.38,10.95,5.85,13.29,4.43.38-.23,1.04-1.53.69-1.98-.7-.9-7.41-3.19-9-4.14-.45-.27-.98-.78-1.19-1.26l11.14,4.26.33-1.3c-.82-.12-3-1.48-3.27-2.15-.25-.63.35-.53.75-.42.57.16,2.95,1.44,3.18,1.24-1.08-1.07-1.98-3.79-2.92-4.7-.81-.77-4.21-.62-4.81-2.83-.26-.95,1-3.65,2.29-3.59.72.18,4.68,7.31,5.63,8.48.31.38.53.79,1.13.68.32-4.92,2.39-8.42.28-13.24-.65-1.48-2.39-3.5-2.75-4.79-.68-2.46,2.35-8.8,3.5-11.28,5.1-11.04,11.29-21.65,16.6-32.59,2.1-9.77,6.2-19.22,6.63-29.29ZM39.36,247.91c-2.14,8.24-7.85,14.72-13.19,21.09l-3.71,13.02c.51,1.21,8.29,6.5,9.9,7.49,3.74,2.31,10.83,6.68,14.64,8.32,3.98,1.71,9.67,2.46,13.99,3.71,8.63,2.49,17.28,5.99,25.16,10.29l.91-.29c3.57-5,8.75-16.1,14.98-17.82,2.97-.82,6.74-.82,9.85-1.3,1.54-.24,3.08-.96,4.72-1.18,4.6-.62,4.39-.02,5.7,4.06,2.18,6.78,1.02,15.4,11.54,11.55.82-.3,1.63-1.05,2.56-1.38,1.62-.57,3.54-.57,5.21-1.35,3.6-1.66,8.41-6.79,12.12-9.2,6.81-4.43,15.63-8.28,23.24-11.19,4.89-1.87,10.06-3.14,14.84-5.17.16-.71-5.54-7.65-6.29-9.12-1.01-1.97-2.96-6.9-3.45-9.01-1.48-6.43,2.02-14.79,1.19-21.53-.56-4.5-5.16-7.14-7.45-10.92-1.83-3.01-2.64-6.52-4.19-9.57-3.12,1.01-6.25,1.01-9.5.96-10.94-.16-21.47-1.53-32.45-.67-9.01.7-15.74-.07-24.59-.99-4.81-.5-9.79-3.12-13.77-3.61-3.14-.39-9.93.2-13.47.32-2.91.1-6.25.61-9.15.68-1.85.05-3.72-.04-5.57-.03l-5.9-3.59c-3.58,6.33-6.3,12.99-10.55,18.99-2.79,3.95-6.6,6.53-6.71,11.68-.04,2.04,1.97,4.41,3.2,6.01,6.27,1.14,13.36.17,19.23,3.07,3.9,1.92,14.1,10.83,16.24,14.58.26.46.45.88.37,1.43-.67.14-.88-.15-1.32-.48-1.7-1.23-3.69-4.53-5.44-6.03-6.17-5.26-14.19-7.42-21.88-9.28-3.75-.9-8.26-.7-11.02-3.56ZM192.41,281.76c-3.65,1.2-7.64,1.97-11.25,3.21-8.53,2.91-18.65,6.22-26.02,11.36-3.28,2.29-6.19,5.56-9.53,7.84,3.79,3.82,6.55,9.62,10.31,13.3,5.11,5,10.68,9.59,15.76,14.74,2.94,2.98,7.25,8.78,10.67,10.98,3.45,2.22,14.96,2.29,19.73,3.22,2.3.45,7.37,2.69,9.2,2.14,1.44-.43,4.09-4.86,4.88-6.27s2.7-4.76,2.5-6.2c-.5-3.57-4.32-10.77-5.76-14.6-1.45-3.84-2.59-7.84-4.09-11.66-3.98-10.11-9.32-19.2-15.67-27.98l-.72-.09ZM71.82,307.94c-4.43-1.63-8.74-3.57-13.27-4.93-3.13-.94-6.58-1.44-9.68-2.45-5.54-1.8-12.07-5.77-17.27-8.64-1.47-.81-4.47-3.05-5.7-3.5-1.61-.59-2.32,1.22-3.2,2.35-9.05,11.62-12.47,23.33-15.41,37.59.12.92,3.2,7.52,3.87,8.28,2.61,3.01,8.54,5.74,11.31,9.03,3.58,1.93,11.67-1.17,15.15-2.91,4.23-2.11,6.26-4.66,8.3-8.91-.35-.36-4.51,3.99-5.42,4.26-.46.14-.58-.03-.48-.48,10.11-9.92,20.31-20.07,31.48-28.86l.32-.82ZM69.2,313.84c1.4.56,2.4,1.14,3.92,1.49,2.03.47,7.19,1.17,9,.45.51-.2,1.97-1.18,1.84-1.76l-10.39-5.03c-.62,0-4.83,4.24-4.36,4.85ZM63.63,336.81c3.36-3.45,12.14-12.75,12.73-17.31.3-2.36-4.33-1.93-6.35-2.68-1.15-.43-1.86-1.2-2.94-1.66l-2.45,2.14,3.28,2.62c1.56,2.42-.57,9.18-1.63,11.82-.72,1.79-1.94,3.28-2.63,5.08ZM67.89,334.84c2.02-.92,3.15-3,4.59-4.43,1.7-1.7,3.51-2.75,4.86-4.98.73-1.21,3.05-6.59,1.72-7.51l-1.66-.15c.33,2.38-.49,4.12-1.58,6.13l-7.92,10.93ZM64.55,332.16c1.13-2.45,2.15-5.27,2.34-7.99.22-3.11-.08-4.67-3.43-5.42-4.56,3.61-8.36,7.76-11.78,12.51-.22.3-1.1,1.34-.85,1.61,4.39-2.54,9.02-.1,13.72-.71ZM177.4,341.4c-1.56-1.11-2.61-2.83-3.92-4.11-3.67-3.59-7.29-7.17-10.84-10.8-2.3-2.35-4.74-4.63-7.53-6.4,1.33,4.05,1.29,7.28,4.74,10.18,3.29,2.76,11.41,8.43,15.14,10.44.72.38,1.58.71,2.41.7ZM63.62,333.86c-2.58.43-5.53-1.09-7.98-.96-2.07.11-5.99,1.69-7.43,3.25,2.05,1.05,4.94,1.37,6.89,2.13,1.32.51,2.03,1.81,4.07,1.49,1.43-.22,3.48-4.72,4.45-5.91ZM50.84,339.1c-.8-1.08-4.88-2.79-4.1-.32l4.1.32Z"/>
        <path d="M170.52,247.59c-.77,1.19-2.45,2-3.72,2.68-6.06,3.24-13.15,5.42-19.55,7.99-3.11,1.25-7.57,3.8-10.58,4.51-1.53.36-1.76-.49-.19-1.18,10.74-4.7,21.42-9.91,32.49-13.75.52-.18.98-.34,1.55-.25Z"/>
        <path d="M172.48,263.66c1.42,1.24-5.55,1.98-5.97,2.06-5.46,1.12-12.27,2.11-17.42,3.58-.59.17-.68.51-1.2-.23.07-1.12,6.84-2.73,8.12-3.02,1.93-.44,15.83-2.94,16.46-2.39Z"/>
        <path d="M67.23,292.52c-.86.24-.95-1.36-1.14-1.97-1.83-5.7-3.44-11.56-4.75-17.38.56.36.98,1.58,1.23,2.21,1.19,3,2.32,6.79,3.19,9.93.65,2.35,1.51,4.76,1.47,7.21Z"/>
        <path d="M71.82,290.88c-.58.53-.68-.41-.8-.66-.73-1.49-4.95-12.85-4.44-13.44.71-.13.77.32.98.82,1.11,2.79,2.22,5.77,3.2,8.61.27.79,1.65,4.14,1.06,4.67Z"/>
        <path d="M161.01,240.69c-.68.15-.74-.35-1.05-.75-2.97-3.75-5.77-8.58-7.47-13.03l8.14,12.35.38,1.42Z"/>
        <path d="M155.1,240.37l-1.31-1.15-6.23-11.32c.55-.56,2.34,2.5,2.56,2.85,1.31,2.13,3.06,5.11,4.17,7.31.37.73.88,1.44.81,2.3Z"/>
        <path d="M163.96,236.43l-1.32-.48-5.89-9.03c1-.17,1.57.69,2.1,1.34,1.85,2.27,3.28,5.77,5.11,8.17Z"/>
        <path d="M136.41,244.3c-1.03,3.2-1.64,7.17-3.13,10.16-.23.46.08.83-.8.66.67-2.98,1.49-6.2,2.61-9.03.1-.26.77-2.46,1.32-1.8Z"/>
        <path d="M149.86,238.72c-.58.12-.81-.3-1.15-.65-.74-.76-4.59-6.65-4.09-7.22.75-.11,1.02.59,1.39,1.07.49.65,4.14,6.5,3.86,6.8Z"/>
        <path d="M60.67,286.94c-.7.13-.76-.33-1-.8-1.09-2.16-1.48-5.45-2.6-7.73.6-.64,1.99,2.63,2.12,2.96.3.74,1.75,5.26,1.48,5.57Z"/>
        <path d="M130.18,254.47l-.6-.43,3.22-8.75c.1,3.29-1.73,6.15-2.62,9.18Z"/>
        <path d="M137.08,252.83c.64-2.16,1.33-4.77,2.2-6.81.17-.4.18-.97.74-1.06.07,2.67-.98,6.08-2.94,7.87Z"/>
        <path d="M167.56,233.48l-1.13-.67-3.46-6.21c1.19.45,5.13,6.29,4.59,6.89Z"/>
        <path d="M76.74,288.58c-.66.73-1.88-2.78-1.98-3.1-.45-1.44-.58-2.99-.97-4.44,1.01.52,3.22,7.24,2.95,7.54Z"/>
        <path d="M128.22,251.85c.18-1.77.74-4.17,2.29-5.25-.55,1.7-.99,4.01-2.29,5.25Z"/>
        <path class="cls-1" d="M83.69,210.13c-.48-1.26-1.74-1.89-2.5-2.92-4.38-5.96-8.34-12.6-12.38-18.78-.52-.79-3.06-3.68-3.17-4.07-.78-2.81,6.81-9.98,4.17-16.94-1.68-4.43-5.22-8.83-6.67-13.67-1.18-3.97.43-12.36.85-16.85.36-3.8,1.3-9.03.91-12.8-.58-5.67-1.03-6.69-.14-12.67.49-3.31,1.04-7.72,1.91-10.89,1.81-6.59,8.03-10.63,11.66-16.22.93-1.43,2.38-7.34,3.82-7.34,1.89,0,4.26,7.76,5.46,9.31,1.38,1.8,5.88,3.13,8.04,4.42,6.65,3.95,13.64,9.88,21.66,11.13,1.59.25,12.83-.05,14.19-.4.69-.18,3.45-1.67,4.09-2.14,1.66-1.23,5.07-5.78,6.4-6.4,1.44-.67,2.6,1.65,3.04,2.86,2.38,6.43,3.43,15.26,6.55,21.33,1.46,2.84,8.57,8.56,8.99,10.64-.3,1.79.35,3.75.46,5.52.04.68-.38,1.35-.36,1.97.16,4.14,1.98,4.6,3.46,7.7s.4,3.34.16,6.08c-.53,5.95-1.35,18.5.4,23.87,2.07,6.36,4.33,8.12,4.49,15.49.03,1.24.65,3.92-.12,5.1-.11.17-2.86,1.52-3.56,2.02-7.75,5.53-14.26,12.47-21.46,18.57-5.15-.88-10.22.37-15.33.72-13.63.92-22.25-3.81-34.79-5.21-3.42-.38-6.85.31-10.23.56ZM135.05,121.38c-1.71.05-5.17.29-5.87,2.02-.34.84-.66,4.83-.66,5.94.01,2.99.89,7.84,2.38,10.43,1.27,2.23,5.91,6.52,8.61,6.12,3.42-.51,7.45-7.34,8.23-10.47.37-1.47,1.56-8.11,1.4-9.27-.3-2.27-2.42-2.88-4.36-3.54-2.91-1-6.65-1.31-9.74-1.22Z"/>
        <path class="cls-1" d="M62.96,191.82c.57,2.92,2.87,5.13,4.4,7.57.88,1.39,1.55,2.99,2.48,4.41,1.68,2.56,3.61,4.79,5.58,7.04-2.95-.22-6.6.61-9.45-.22-2.65-.77-7.7-5.04-7.2-8.06.22-1.31,2.84-9.39,3.46-10.32.2-.31-.04-.59.73-.42Z"/>
        <path class="cls-1" d="M167.47,213.04c-1.35,1.23-4.23.62-5.96.76-3.44.29-6.86.9-10.33.65l16.89-12.79c1.07,2.99,2.07,8.94-.6,11.38Z"/>
        <path d="M38.05,159.67c-.12-.83.45-1.33.85-1.93,1.75-2.62,4.52-5.62,6.69-7.9-1.21,2.83-3.89,6.64-6.06,8.86-.41.42-.81,1.06-1.48.98Z"/>
        <path d="M39.03,147.21c.09.55-.13.96-.37,1.43-.38.71-4.61,6.73-5.03,6.77-1,.08.36-1.94.48-2.14,1.29-2.08,3.12-4.44,4.92-6.06Z"/>
        <path d="M41.98,149.18c.44.45-4.14,6.26-4.75,6.89-.34.35-.58.77-1.15.65-.44-.45,4.25-6.14,4.85-6.79.32-.35.35-.91,1.05-.75Z"/>
        <path d="M35.1,146.88c.18.67-.22.89-.48,1.32-.59,1.01-1.97,2.89-2.73,3.83-.31.39-.37.9-1.05.75-.67-.78,2.52-4.53,3.14-5.22.33-.36.49-.82,1.12-.69Z"/>
        <path d="M126.37,52.2c-.43.38-.55,1.37-1.42,1.19-.16-.78.8-1.29.92-1.88.09-.48-.25-.98-.19-1.49.1-.9,3.24-5.22,4.03-6.15.43-.51,3.2-3.36,3.61-3.27.47.3.46.64.52,1.13.27,2.42-1.91,8.17-4.16,9.32-1.36.7-1.68-.29-3.29,1.14ZM132.81,42.57c-.31-.32-3.1,2.45-3.31,2.79-.31.5-.05.9-.17,1.15-.52,1.05-2.83,2.18-2.74,3.93,4.38.1,5.38-4.41,6.23-7.87Z"/>
        <path d="M129.53,52.41c.14.67-.33.76-.75,1.05-.57.38-4.1,2.24-4.49,1.9-.2-1.36,4.93-3.23,5.24-2.95Z"/>
        <path d="M158.06,93.74c-.82-.91,3.33-4.68,3.93-5.42,1.2-1.49,2.12-3.34,3.45-4.74.71.46.32.79.07,1.37-1.15,2.58-4.37,5.95-6.33,8.11-.33.36-.49.82-1.12.69Z"/>
        <path d="M169.86,86.19c.52.57-2.58,3.99-3.11,4.6-1,1.15-2.88,3.31-3.93,4.27-.36.33-.56.77-1.15.65-.28-.28,1.04-2.11,1.32-2.45,1.61-2.01,3.97-4.4,5.76-6.37.33-.36.49-.82,1.12-.69Z"/>
        <path d="M173.47,88.16c-1.84,3.72-5.27,6.2-8.03,9.18-.87-.46.3-1.55.65-1.97,1.81-2.18,4.26-4.45,6.27-6.53.34-.35.47-.83,1.12-.68Z"/>
        <path d="M182.65,138.68c.09.53-.24.89-.52,1.29-.67.97-6.51,7.26-7.19,7.24-.21,0-.66-.57-.22-.87l7.93-7.65Z"/>
        <path d="M183.63,132.77l-6.75,8.5-1.11.69c-.11-.55.28-.87.53-1.28.92-1.51,3.3-4.26,4.55-5.62.34-.37,2.42-2.64,2.79-2.29Z"/>
        <path d="M161.33,83.57c.67.73-4.45,5.84-5.23,6.41-.45.33-.69.61-1.33.47,1.75-2.08,3.52-4.28,5.41-6.23.34-.35.58-.77,1.15-.65Z"/>
        <path d="M177.08,136.71l.53-1.28,4.87-5.27c.76.58.35.48.04,1.01-.41.7-1.29,1.78-1.85,2.42-.34.4-3.23,3.51-3.6,3.12Z"/>
        <path d="M180.03,151.14c-.49-.4,6.02-5.66,6.55-6.23.63.73-5.87,6.8-6.55,6.23Z"/>
        <path d="M178.39,148.52c-.14-.64.14-.88.47-1.33s5.8-5.87,6.08-5.56c.14.62-.34.78-.65,1.15-1.74,2.07-3.97,3.86-5.9,5.74Z"/>
        <path d="M172.81,95.37c1.39-2.04,2.94-4.06,4.92-5.57-.42,1.22-1.59,2.67-2.45,3.61-.3.33-2.1,2.32-2.46,1.96Z"/>
        <path d="M135.1,29.45l-.17.65c-.87.06-6.3-3-7.47-3.68-.57-.33-1.98-.81-1.87-1.57,3.44.8,6.37,3.08,9.5,4.6Z"/>
        <path d="M133.46,26.49l-2.51-.93-2.4-1.69c1.46-.06,3.01.75,4.15,1.58.41.29.91.34.76,1.04Z"/>
        <path d="M129.2,31.41c-.42.37-3.33-1.27-3.61-1.96.64-.39,4.28,1.37,3.61,1.96Z"/>
      </g>
    </g>
  </g>
</svg>