<?xml version="1.0" encoding="UTF-8"?>
<svg id="Layer_2" xmlns="http://www.w3.org/2000/svg" xmlns:xlink="http://www.w3.org/1999/xlink" version="1.1" viewBox="0 0 343.9 315.7">
  <!-- Generator: Adobe Illustrator 29.6.1, SVG Export Plug-In . SVG Version: 2.1.1 Build 9)  -->
  <defs>
    <style>
      .st0 {
        fill: none;
      }

      .st1 {
        fill: #fff;
      }

      .st2 {
        fill: #ff60df;
      }

      .st3 {
        clip-path: url(#clippath);
      }
    </style>
    <clipPath id="clippath">
      <rect class="st0" width="343.9" height="315.7"/>
    </clipPath>
  </defs>
  <g id="Layer_1-2">
    <g>
      <path class="st1" d="M253.3,77.8l-28.9-4.9,2.6,8.3v8.3l-3.6,6.6-6.7,4.7-5.7.4-8.6-2.4-6.5-5.8-5.2-10.8-6.8-15.2-6.8-16-2.4-1-3.5-5-6.6-7.8-1.9.3-6.4-5.5-20.5-9-15.1-2.8-17.8,2.1-13.6,6.8-27.8,19.4-8.3,11.8-14.6,12.3,4.1,1.3-5.1,7.6-2.8,3.1,1.6,1.6-3.6,7.7-8.6,9.6-4.6,7.1,7.1-1.1-5.1,6.1-19,25.3-.9,5,9.5-6.5,1,2.6,4.1-3.8,8-5.6,14.2-5.1,4.4-1.8v2.2l9.7-5.5,11.6-7.2,4-4.3,1.1,2.3,1.6-1.3,4.6-6,3.2-2.8,14.1,4.1,10.9,1.1-3.5,4.9-20.3,21.6-28,29.2-3.8,4.6v4.1l6.9,3.4,10.2-2.1,50.8,10.1-6.4,62.8-3.3,33.6,1,8.6,8.9,5.6,15.8,8.4,12.6,11.1.5-3.2,3.1-4.5,6.6-5,8.4-2.5-1.9-6v-4.5l2-7.1,1.7-3.9-25.7.3-26.4,3.3,9.8-95.6,56.7,11.7,13.9,2,6,12,2.6,16.4,6.8,3,3.8,4.4-.4-7.1,4.5-11.3.6-1.9-2.4-4.2,5.2-2.9-2.3-2.1-13.4-5.9-16.3-5.7-22.2-4.7-27.6-5.7-15.5-3.7,2.4-24.4,2.9-27.5,2.5-10.9,1.1-5.3h8.3c.2,0,10.5-3.5,10.5-3.5l7.9-6.8,5.6-6.5,5.4-1.2s6.4,4.2,6.8,4.2,6.4,12.8,6.4,12.8l7.1,7.4,11,5,16.1.6,13.2-2.1,7.5-4.6,7.8-7.5,3.8-6.2,3.7-7.6,2.1-5.9,1.3-1.2-3-10.9h.2ZM121.2,143.3l-4.5,34.8-49.3-10.2-4.7-3,.5-3.2,4.8-4.5,12.2-11.4,15.6-15.4,15.6-15,11.3-3.5,1,9.4-2.4,22.1h0Z"/>
      <g class="st3">
        <g id="Group_9282">
          <path id="Path_7701" class="st1" d="M211.4,45.3l.6-3.2h-1.7l2.6-8.2-.9-1.7,4.6-8.6,5.8-7.6,7.7-5.4,8.4-3.4,10.3-1.3,10.5,2.2,9,5.2,4.9,6.5,5.4,5.4,6.6,4.9,5.1,5.1,3.6,7.9,1.7,10.1-2.5,10.3s-8.6,5.5-9,5.3-3.7-10.9-3.7-10.9c0,0-6.8-6.5-7.8-7.1s-6.8-4.2-6.8-4.2l-5.2,3.2h-6.8l-6.8-3.2-4.5-4.6h-5.2l-1,2,1,3.4,2.2,3.4,3,3.8,3.8,5s1.6,5.8,2.5,6.7,2.4,4.1,3,5,2.6,10.6,2.6,10.6l1.8,7.4-1.8,1.3h-28.8l1.7-5.5v-5.1l-1.7-4.6-2.1-2.7-4.2-6.5-2.7-5-2-5.9-2.6-3.6-.6-6.6h0v.2Z"/>
          <path id="Path_7702" d="M255.1,95.5c-.1,1.1-.6,2.4-1.9,1.8-.1,1.1-.5,2.2-1.1,3.1-.3.3-.8,0-1,.3s-.8,2.9-1.1,3.6c-4.4,10.9-16.8,18.3-28.1,20.2-15.8,2.6-30.6.7-40.1-13.3-3-4.3-5-9.6-8.4-13.7-1.8-2.2-2.8-3-5.7-2-1.2.4-5,3.6-6.1,4.7-1.7,1.7-2.9,4.2-4.6,5.9-3.1,2.8-6.8,5-10.8,6.4-4.2,1.3-8.9,1-13.2,1.3-1.4,3.2-2.4,6.5-3,9.9-1.2,6.1-2,13.1-2.5,19.3-.7,8.1-1.4,16.2-2.1,24.3-.3,3.9,0,8-.9,11.9,7.9,2.5,16.1,4.2,24.2,5.9,11.3,2.4,22.6,4.6,33.9,7.2,6.9,1.5,13.8,3.6,20.4,6.3,2.3.9,4.6,1.8,6.9,2.8,4.1,1.7,8.5,3.4,11.9,6.3.2,1-4.7,2.7-5.3,3.5,1.3,1.4,2,3.4,1.8,5.3-1.6,4.5-4.4,9.4-4.7,14.2,0,1.2.3,5.7-.5,6.3-.2.2-.4.2-.6.2-.4-.1-.5-1.2-.7-1.6-1.4-2.9-4-5.1-7.1-6.1-.7-.2-2.7-.4-3-.9l-1-7.9c-.8-2.9-1.5-5.9-2.4-8.8-1.4-3.9-3.2-7.7-5.2-11.3l-18.1-3.2c-13.1-2.6-26.4-4.7-39.5-7.5-3.9-.8-7.8-2.1-11.7-2.8,0,2.1-.9,4.1-1.2,6.1-1.7,11.4-2.2,22.8-3.3,34.2-1,9.6-2.3,19-2.9,28.7-.4,7.7-1.6,15.2-1.6,22.9s-.4.9.2.8c.6,0,1.3,0,1.9-.1,6.3-.4,12.7-1.4,19-1.9,9.7-.7,19.8-1.1,29.5-1.4.5,0,1.5-.5,1.7.1s-2.2,3.5-2.6,4.3c-2.3,4-3,11-1.4,15.4.3.7,1.8,3,1.4,3.5-.2.2-3.7.8-4.4,1-6.8,1.9-12.4,5.4-14.7,12.4-.3.9,0,2-.9,2.6h-.5c-2.7-3.3-5.7-6.1-9.1-8.5-5.6-3.8-11.3-7.2-17.3-10.4-4.7-2.6-13.3-5.9-12.6-12.6,0-.8.5-1.6.6-2.5.8-6.7.4-13.9,1.9-20.6,1.2-14.3,2.3-28.5,3.9-42.7.5-4.6,1.4-8.9,2-13.4.4-3.2.2-6,.4-9.1.2-3.5.8-6.9.8-10.4-2.8-.4-5.5-1.5-8.2-2-6.7-1.4-13.6-2.5-20.3-3.8-9-1.8-14.8-4.3-24.4-3.4-3.2.3-4.3,1.1-8,.6-4.1-.6-8.3-2.4-6.9-7.4.9-3,1.9-3.3,3.9-5.2,4.5-4.4,8.4-8.7,12.7-13.3,7.5-8.2,15.1-16.4,22.7-24.5,5.3-5.7,11.1-11.2,15.4-17.7-6.1-.2-12.2-.5-18.1-2.4-1.7-.6-3.3-1.4-5.1-1.9-4,4.1-7.9,9.1-7.3,15.2-.3,0-.5,0-.7-.2-.8-.7-2.2-3.8-2.5-4.9,0-.4,0-1.4-.4-1.2-5.4,7-14.2,9.4-21.2,14.3-2.1,1.5-4,3.4-6,4.9h-.5c0-.9.2-1.7.4-2.6.2-.7,1.1-1.6,1-2.3-3.7.9-7.3,2-10.8,3.4-3.2,1.3-6.1,3.1-8.9,5.2-4.3,3.2-8.3,6.8-10.7,11.6h-.4c-.9-1.5.1-5.1.6-6.6l-4.5,3.2c-1,.9-4,4.7-4.9,5-2.2.6-1.3-5.4-1-6.6,1.9-7.5,13-20.1,18.4-26.2,1.8-2,3.9-3.8,5.7-5.9l-5.7,3c-1,.5-2.1.8-3.2.9-.9-.9,2.7-5.6,3.4-6.4,4.4-5.3,9.9-9.3,13.1-15.5.8-1.6,1.4-3.2,2-4.8l-1.3-.3c-.7-1.1,1.7-4.2,2.4-5.1,1.2-1.5,2.8-2.7,3.9-4.1.3-.3,2-2.7,2-2.9v-.5c-8.6.2-.6-5,1.5-7.2,2.8-2.9,5-5,7.9-7.7,3.9-3.6,6.4-7.8,10.2-11.5,5.3-4.9,10.9-9.4,16.9-13.4,8.9-6.1,20.9-13.6,31.6-15.6,3.3-.6,7.8-.3,11.2-.3,15.2-.1,25.6,5.1,38,12.9.8.5,2.7,2.1,3.2,2.4.6.2.1-.9.1-1.1,0-.3.1-.6.2-.9.5-.4,3.4,3.2,3.8,3.7.7,1,1.3,2.8,1.9,3.5.3.4.9.6,1.3.9,2,2,3.2,4.4,4.7,6.8l.5-2.4.6-.3c.4.9.6,1.9,1.1,2.8,3.3,6.8,6.9,13.9,9.9,20.8,4.8,10.8,6.7,23.9,18.2,29.8,3.8,1.9,8.4,3.5,12.5,1.4,3.4-1.8,7.5-6,8.4-9.8.7-3.8.6-7.8-.2-11.6-.6-2.2-4.2-7-5.5-9.2-1.8-2.8-3.4-5.8-4.8-8.8-.3-.6-.6-2-.9-2.4-.4-.6-1.1,1.3-1.5.3-1.2-4.4-2.5-8.6-2.1-13.3l-1.3.2-.5-.8,2.4-7.8c.1-.5-.2-.9-.3-1.4,0-1.3,3.5-8.6,4.3-10.2,7.5-14.1,22.3-21.1,38.1-19.1,7.5.9,11.7,3.8,17,8.7,2.6,2.4,3.7,5.1,5.8,7.4.7.8,2.5,1.8,3.4,2.6,6.9,5.8,11.6,8.3,14.9,17.3,4.8,12.9,3,23.1-1.6,35.6-.9,2.4-2,4.7-2.9,7-.2.3-.7.5-1.1.3-.9-1.2-1.7-2.5-2.3-3.9-3.2-6.9-3.1-16-7.6-22.3-2.9-4.1-6.5-5.3-10.3-8.1-.6-.5-1.1-1.1-1.7-1.6-2,.8-3.8,2.1-6,2.6-6.9,1.4-9.9-1.7-15.3-5-1.4-1-2.9-2-4.4-2.9-2.2-.8-3.4.5-3.1,2.7.4,3.1,4.6,6.7,6.5,9.2,5.2,7.2,7.9,14.3,10.4,22.8.9,3,2.5,8.3,2.7,11.3,0,1.4,0,2.8-.2,4.2l-1.8-1.8-.3.5v3.5M253.2,93.4v-6.2h1c-.4-2.7-1.5-5.2-2.2-7.6-1.7-6.1-3.3-13.2-6.7-18.7-2.4-3.8-5.4-7-7.9-10.6-1.8-2.6-4.1-9,.6-9.8,5.2-.9,10.8,6.8,16.3,7.7,3.7.5,7.5-.2,10.7-2.1,0-.3-.9-1.5-1.1-1.9-1.2-2.8-.8-7.9.5-10.6l1.2-1.8c0,2-1.1,3.9-1.2,5.9-.1,1.5.3,5.4,1,6.7,1.6,2.8,5,3.8,7.7,5.3,4.8,2.9,6.2,4.4,8.2,9.7.7,1.8,1.2,4.5,1.9,6,1,1.9,2.8,2,3.9,0,1.5-2.9.2-7.7-.9-10.6-1.9-5.2-9.2-10.8-13.8-13.8-1.6-1-3.7-1.8-5.1-2.9-.2,0-1.3-1.1-1-1.3.3,0,.6,0,.9.2,2.3,1.1,4.8,3.1,7,4.3,5.2,3,9,4.3,13.2,9,1,1.1,3,4.7,3.9,5.2,2,1.3,3-3.6,3-4.9,0-2.5-4-14.1-5.6-15.9-3-3.4-7.5-5.4-10.9-8.5-1.4-1.2-2.4-2.8-4-3.8-1.2-.2-3.8,4.3-4,5.5l-1.1,1.9c.2-2.9,1.5-6.6,4.1-8.1-1.1-2.6-2.9-4.8-5-6.6-8.9-7.7-17.4-9.5-28.8-6.3-6.7,1.7-12.7,5.4-17.3,10.6-3.3,3.5-5.9,7.6-7.8,12.1l1.6-.8v.3c.1,0-3.8,8.9-3.8,8.9.2.3.5,0,.6-.2.2-.2,1.5-2.4,1.9-2-1.4,3.8-1.2,8.1-.8,12.2l.5-.6.7-2.1c.2,1.1,0,2.3.3,3.3,1.3,5.3,3.3,10.5,5.9,15.3,5,8.7,10.2,11.7,7.4,23-3.5,14.2-17.7,18.6-29,9.3-8.5-6.9-11.1-16.8-15.1-26.4-2.7-6.5-5.8-12.8-8.2-19.5l-.4-.3-.7.8c-1.1,0-1.6-2.3-2.1-3.1-.8-1.5-1.7-3-2.7-4.3v1.2c-.5.2-.7.3-1,0-.7-.9-1.3-1.8-1.8-2.8-.6-1.5-1.3-2.9-2.1-4.3l-.4.6c-.5.2-.9-.7-1.4-.9-12.3-7.9-18.9-14.2-34.4-16.2-6-.8-14.5-1.8-20.3-.8-6.7,1.4-13,4.3-18.6,8.4,4.5-1.9,9.2-3.4,14-4.5,7.1-1.3,14.4-1.5,21.6-.5,6,.8,11.5,2.8,15.8,7.2-2.2-.8-4-2.3-6.1-3.3-8-4.1-21.1-4.3-29.9-2.8-13.7,2.3-23.4,8.5-34.1,16.8-6,4.7-11.9,9.9-16.6,15.9l12.7-9.4c15.9-9.9,35-18.7,54.2-17.6,4.8.3,19,3.1,22.4,6.2.2.2.4.5.6.8-2.4-.5-4.6-1.8-7.1-1.8-9.4,0-24.2,4.5-31.8,10.2-4.6,3.7-8.8,7.8-12.6,12.4-.3.3-1.1,1.1-.9,1.5,6.1-4.3,13.1-7.1,20-9.7,1.8-.7,4.1-1.2,5.9-2,1.4-.6,3.4-2.2,4.7-2.6.9-.3-.5,1.1-.6,1.2-2.7,2.4-6.4,4.8-9.4,7.3-8.7,7.2-14.9,13.2-21.3,22.6-.2.3-1.2,1.6-1,1.8,6.1-4.5,12.6-8.4,19.4-11.6,6.6-3.2,14.8-7.6,21.5-10,.2,0,.8-.5.7,0-1,.8-2,1.6-3.2,2.2-7.4,4.2-14.6,7.5-22.3,11.1-6.2,2.9-11.7,7.3-17.6,10.1-.2,0-.4.3-.7.2,0-.6.2-1.2.5-1.7,4.2-8.5,11.1-16,18.1-22.4,2.1-1.9,4.3-3.7,6.6-5.4-1,0-1.9.3-2.8.7-6.6,2.4-14.5,5.8-19.9,10.4-.8.7-2.7,3-3.6,3.2-.3,0-.4,0-.3-.3,3.7-7.1,8.4-13.8,15-18.4,8.3-5.8,17.8-11.5,28.2-11.6l4.5-.8c-11.8-4-23.8-3.1-35.6.4-7.5,2.2-14.8,5.2-21.8,8.8-10.2,5.4-19.1,12.6-27.6,20.2-2.7,2.4-5.5,4.6-8.2,6.8.6,0,1.2,0,1.7-.2,2.6-.6,7-4.7,9.5-6.4,1.8-1.2,3.6-2.4,5.4-3.5,0,0,.2.2,0,.3-.2.5-3,2.3-3.6,2.8-2.6,2.1-6.1,4.9-8.5,7.2-1.1,1.1-1.6,2.4-2.5,3.7-2,2.8-4.4,4.8-6.9,7.1-.2.6,1.2.2,1.4.2,2.1-.9,6.2-4.6,8.5-6,.8-.6,1.7-1.1,2.7-1.4.4,0,.4.3.3.4-.2,0-.3,0-.5.2-3.3,2.9-7.2,5.2-10.5,8.1-2.7,7.4-7.2,13.7-12.6,19.4-.3.3-.7.5-1,.8-.8.8-1.5,2.1-2.2,3,.3.2,1-.2,1.3-.3,1.8-1,5.6-3.8,7.3-4.2h1.3c.2.3.2.6,0,.9-.3.9-2.5,3-3.2,4-8,10.7-18.5,19.5-24.8,31.5-.5.9-1.3,2.2-1.2,3.1,1.7-2.6,4.7-3.8,6.9-5.9l7.8-12.2c.5-.2.1.3,0,.5-1.9,3.7-4.1,7.3-6.4,10.7v.3c.4-.3.8-.4,1.1-.6,1.1-1,2.8-4.5,3.9-6,6.4-8.7,15.8-16.7,23.8-23.8,5-4.3,9-9.6,11.8-15.6h.4c-7,19.4-27.5,27.3-37,45-.8,1.4-1.4,2.8-1.9,4.3l4.2-4.3c1.8-1.5,3.1-3.6,4.8-5.4,4.3-4.8,8.5-9.8,13.4-14l-14.5,16.5c1.1-.6,2.1-1.4,3.2-2.1,2.6-1.6,4.1-2,6.5-4.2,4.1-3.7,7.2-8.4,10.6-12.7.2.3-.3.9-.4,1.2-2.9,4.7-6.5,9.1-10.6,12.8,4.3-1.8,8.9-2.6,13.3-4.1,1.5-3,3.6-5.6,5.3-8.5,4.4-7.8,6.6-16.7,8.8-25.3.4,0,.2.4,0,.7-.5,4.4-1.2,8.8-2.3,13.1-.5,1.9-1,4.3-1.7,6.1-1.8,5-5.7,9.1-7.8,13.9,1.6-.8,3.1-1.7,4.7-2.4,2.8-1.4,3.3-.8,5.1-3.8,1.2-2.1,2-4.4,3.2-6.5-.2,2.8-1.7,5.6-3.2,8,.4,0,.6-.3.9-.4,4.5-3,11.8-10.6,14.5-15.2,2.2-3.8,4.4-10.9,8-13.6.3-.2.9-.6,1.1,0-5.2,6.2-8.8,13.6-10.3,21.6,4.9-6.8,10.9-13.9,18.2-18.2.3-.2,2.2-1.4,2.4-1.4,1.5,0-.9,3.2-1.2,3.7-.3.6-2.1,4.1-1.9,4.3l9.8-6.6,1.3-.2c.4.3-3.9,3.2-4.3,3.5-2.2,1.7-4.4,3.2-6.8,4.5-.4.2-.8.3-1.3.2-.6-.4.9-3.5,1.2-4.2.6-.9,1.1-1.9,1.6-2.9,0-.3,0-.4-.3-.3-2.5,1.7-4.9,3.5-7.1,5.5-1,.8-1.8,1.7-2.7,2.7,0,.2-.3.2-.2.5l13.1,3.7,10.7,1.1.6-.4,2.2-5.3,1-.3c0,2.4-.5,4.8-1.3,7-2.1,5.3-10,11.8-14.1,16-7.2,7.4-13.8,15.6-20.7,23.2-3.4,3.7-6.9,7.3-10.3,10.9-2.2,2.4-4.1,5-6.5,7.1-2.6,2.3-7.4,4.1-2.8,7.7,4.3,3.4,9.2.4,13.8,0,6.9-.6,12.7,1.8,19.2,3.2,8.1,1.8,15.9,3.1,24.1,5,8.8,2.1,17.7,3.6,26.5,5.4,14.3,3,28.6,6.4,43,8.9,4.2.8,11.1,1.1,14.9,2.4,1,.5,1.9,1.3,2.6,2.2,4.4,5.6,6.7,14.3,8.1,21.2.5,2.1.7,4.2.5,6.4,1.6.3,3.2.9,4.7,1.8.8.6,1.6,1.3,2.3,2s.3.4.6.3c.4-.5-1-6.5-1.2-7.5-1.1-4.1-2.6-8.1-4.3-12-.5-1.2-4.5-8.7-4.4-9.2,0-.3.2-.3.5-.1,1.2.8,4.4,7.7,5.1,9.4,1.9,4.6,3.5,9.3,4.7,14.2l4.7-11.4c-3.4-5.4-7.3-11.3-12.8-14.9-3.3-2.2-8.9-3.6-12.8-4.6-22.5-5.6-46-9.9-68.7-14.8-1.4-.3-2.7-.7-4.1-1-16.9-3.7-34.6-6.7-51.4-10.9-4.5-1.1-7.6-2.3-4.5-7.4,2.3-3.8,5.6-5.9,8.7-8.8,9.9-9.4,19.6-19.2,29-29.2,5.6-5.9,7.2-8.2,15.2-11.2,14.1-5.2,29.9,2.1,41.2-10.2,4.4-4.8,8.3-14.2,16.2-8.8,5.4,3.7,8.9,15.1,14.2,20.7,9.9,10.7,31.9,11.4,44.5,5.5,10.6-5,15.6-11.5,19.1-22.5.1-.3.1-.7.1-1l1,.4.4-4.7,1.2,1.7h0v.3ZM122.3,113.4c-3.5.8-6.9,2-10.2,3.5-6.3,3.1-11.2,10.7-16.3,15.7-4.1,4-8.5,8.2-12.7,12.1-5.7,5.2-11.5,9.1-16.5,15.3-.5.6-2.8,3.6-2.7,4.1.1.8,2.3,2.4,3,2.6.9.2,2.2.1,3.2.3,6.1,1.1,12.3,2.5,18.3,3.7,5.5,1.1,11,3.1,16.2,4.2,1.8.4,3.8.4,5.6.8.7.1,4.9,1.4,5.1,1.2.8-5.5,1.6-11,2.5-16.5,1.2-7.5,1.9-14.3,2.7-21.9.7-7.2,1.7-14.5,1.6-21.7v-3.2M128.9,119.4c-.9-.3-3.4-.3-3.9.6-.2,1.1-.4,2.2-.5,3.2-.8,13.5-2.8,27-4.5,40.5-.6,4.5-.9,9.1-1.5,13.6,0,.2,0,.5.2.6.9.3,1.9.5,2.8.7h.7c0-1.4,0-2.8.2-4.2,1.4-12.4,3-24.9,4.1-37.3.4-4.7.3-8.8,1.3-13.6,0-.7,1.2-3.8,1-4.1M121.5,186.6l-3.5-.6c-.8,3.9-.7,7.9-1,11.9-.6,6.4-1.8,12.8-2.5,19.2-1.3,11.9-2.3,23.8-3.5,35.7-1.1,10.8-4.1,22.8-2.2,33.6,1.3,7.8,12.4,8.8,18.2,12.1,3.8,2.1,7.4,4.5,10.9,7.1,2.4,2,4.6,4.2,6.6,6.5,2.2-7.3,8.7-12.4,16.3-12.9l-32.6-10.4c6.8.9,13.4,2.9,20,4.9,4.7,1.4,9.3,3.2,14.1,4.4-.5-1.4-.9-2.8-1.2-4.3-.7-4.1,0-8.4,1.8-12.2.2-.4,1.3-2.2,1.1-2.3-.7,0-1.3,0-1.9-.2-13.1-.8-26.3-.2-39.4,1.7-3.2.4-6.4,1-9.5,1.6-.4,0-.8-.2-.9-.7h0c-.2-2.2,0-4.5.2-6.6,1.4-15.5,3.5-31,4.5-46.6.5-7.7,1.3-15.2,2.3-22.9.8-6.3,2.2-12.5,2.4-18.9M218.8,207.6c-3-2-6.2-3.6-9.7-4.5l5.5,6.8c1.2-1.1,2.7-1.9,4.2-2.3"/>
          <path id="Path_7703" class="st2" d="M250.6,165.3c.7,0,1.5.2,2.1.6,3.6,1.9,7.3,5,10.9,7.1,9.3,5.4,21.6,8,32.2,9.1,1.3.1,4.8-.6,4.6,1.5,0,.5-.4.5-.7.7-2.4,1.2-6.2,1.8-8.9,2.8-13.4,5-31.1,22.3-39.4,33.9-3.5,4.9-4.4,9-6.9,14.1-.3.6-.7,1.1-1.2,1.6-1.8-2.8-.6-6-.4-9,1-13.4-1.2-25-8.2-36.6-.8-1.4-3.1-4.1-3.6-5.3-.4-1.2,1.6-5.9,2.3-7.3,2.4-5.5,7-9.8,12.7-11.8,1.4-.6,2.9-1.1,4.4-1.4"/>
          <path id="Path_7704" class="st2" d="M252.3,162.9c-3.6,1-7.5,1.3-10.7,3.4-1.6,1.1-3.2,2.4-4.6,3.8-4.1,4.1-6.8,9.4-7.8,15.2-2.2-1.5-3.6-4-6.1-5.1-1.9,1.4-3.8,2.9-5.6,4.4-1.2,1-4.2,4.4-5.6,4.4s-9.5-4.9-9.7-5.5.4-1.6.6-2.1c2.1-4.5,6-9.1,8.4-13.6-1.6-9.4,3.6-18.6,12.5-22.1,2.1-.9,5.8-2.1,7.9-1.1,2.4,1.1,5.6,5.2,7.7,7,2.1,1.9,5.3,3.7,7.6,5.5.7.5,6.1,5.1,5.6,5.7"/>
          <path id="Path_7705" class="st2" d="M246.7,236c-.1-2.4,1.1-5.2,2.1-7.4,2.5-5.6,7.8-12,11.9-16.5,1.7-1.8,3.6-3.4,5.3-5.2,1.2,1.1,3,4.1,4.7,3.6,1.1-.4,5.4-4.5,6.4-5.5s1.9-1.9,1.5-2.7c-.3-.7-3.5-3.2-3-4,5.1-3.5,10.1-7.5,16-9.7,3.4-1.2,6.9-2.2,10.4-2.9,3.6,1.6.5,5.9-1,8.1-5.2,7.8-12.9,15.5-20.1,21.5-7.6,6.4-15.8,12.7-24.7,17.3-3,1.6-6.2,2.8-9.5,3.5"/>
          <path id="Path_7706" class="st2" d="M192.2,202.1c2,3.7,3.6,7.7,4.6,11.8.5,1.8,1.6,5.4,1.2,7-.5,1.5-1.2,3-2.1,4.4-2.2,1.4-6.6-2.9-7.9-4.5-.8-1.1-1.5-2.2-2.1-3.4-.3-1.7,1.9-8,2.7-9.9.3-.8,2.1-4.6,2.4-5.1.2-.3.6-.5,1-.3"/>
          <path id="Path_7707" class="st2" d="M273.7,199.9c1.1-.2,2.5,2.1,3.1,2.8-.8.8-6,6.3-6.6,6.2-.5-.6-3-2.6-2.9-3.3l6.4-5.7h0Z"/>
          <path id="Path_7708" class="st2" d="M208.6,194.9c.9.9-1.1,3.6-2.3,3.4-3-1.8-6.2-3.4-9.5-4.6-.6-1,1.1-4.7,2.1-4.6l9.7,5.8h0Z"/>
          <path id="Path_7709" d="M152,55.6v.6c-8.2.4-14.8,6.6-19.1,12.9-2.4,3.4-3,5.7-4.6,9.4-1,2.3-2.7,4.6-3,7.2,8-9,18.5-15.4,30.1-18.3.5.5-2.4,3.9-2.8,4.7-.1.2-.4.5-.1.7,2.3-1.6,4.8-3.1,7.3-4.2.7-.4,1.5-.6,2.3-.6l-10.3,6.2c-1.7.3-.5-1.7-.1-2.4s1.5-1.8,1.7-2.4c.1-.3,0-.3-.3-.3-1.9.6-3.8,1.3-5.6,2.2-6.9,3.1-16.2,8.8-20.9,14.8-.9,1.2-1.8,2.5-2.6,3.8-.8,0,.3-4.2.4-4.7,1.2-4.9,4.9-11.9,7.8-16.2,4.4-6.5,11.6-13.5,20-13.3"/>
          <path id="Path_7710" d="M172.4,89c-2.1.4-4.3.2-6.5.4-9.9,1.1-17.9,8.8-28.3,9.5-.6,0-1.4-.4-.6-.9,4.6-2.9,9.5-5.6,13-9.8.3,0,0,.6,0,.8-1.6,4.1-6,5.5-9.1,8.1,7.8-.9,14.2-6.7,21.6-8.3,2.4-.6,4.9-.8,7.3-.7.3,0,3.1.3,2.6,1"/>
          <path id="Path_7711" d="M256.9,23.3c2.5-.6,5.2,2.3,4.3,4.7-1.6,4.4-7.7,2.2-6.9-1.7.4-1.3,1.3-2.4,2.6-3M257.2,27.6c.5.2,1.5-.1,1.4-.7-.2-.5-.8-.9-1.4-.7v1.4Z"/>
          <path id="Path_7712" d="M221.1,62l-1.4-3c-1.1-4.1-2.9-8.2-2.9-12.5l4.3,15.5h0Z"/>
          <path id="Path_7713" d="M200.7,113.4c-.5.5-4.9-2.2-5.6-2.7-.4-.3-5.3-4.2-4.9-4.5.4,0,.6.3.9.4,1.8,1.2,3.4,2.8,5.3,4,1.1.7,3,1.4,3.9,2.1.2.2.5.3.4.7"/>
          <path id="Path_7714" d="M72.4,65.3c-2.1,2.2-4.5,4.1-6.7,6.2-.8,1-1.7,1.9-2.7,2.7-.2,0-.5.3-.5,0-.2-.9,7.2-7.1,8.4-7.9.4-.4.9-.7,1.5-.9"/>
          <path id="Path_7715" d="M185,82.6l-6.4-14.2c1,1.2,1.9,2.6,2.5,4,1.5,3.3,2.8,6.7,3.9,10.2"/>
          <path id="Path_7716" d="M146.4,63.5l-9.5,7.6c-.2-.2,3.9-4.2,4.2-4.5,1.4-1.2,3.4-2.9,5.2-3.1"/>
          <path id="Path_7717" d="M205.6,113c-3.1,0-6.1-1.2-8.5-3.3l8.1,2.5.4.8Z"/>
          <path id="Path_7718" d="M241.9,100.4c1.8-1.9,3.8-3.9,5.8-5.7.5-.5,1.1-1,1.7-1.4.2,0,.5-.2.6.2-1.3,1.6-2.7,3-4.3,4.3-1.1,1-2.4,1.9-3.7,2.6"/>
          <path id="Path_7719" d="M227.1,66.8c-2.8-3.3-4.7-7.3-5.6-11.5l5.6,11.5Z"/>
          <path id="Path_7720" d="M247.9,77.1c-.3,0-.3-.4-.3-.6-.7-3.3-1.8-6.6-3.2-9.7.7.6,1.2,1.2,1.6,2.1,1.1,2.2,2.6,5.8,1.9,8.3"/>
          <path id="Path_7721" d="M250.6,87.6c-.7,2.7-3.3,5.3-5.4,7.1-.2.2-1.3,1.1-1.4.9l6.8-8h0Z"/>
          <path id="Path_7722" d="M243.4,102.4c-.9,2.9-4.3,4.8-6.8,6.2l6.8-6.2Z"/>
          <path id="Path_7723" d="M70.3,63c-1.7,1.8-3.6,3.4-5.5,4.9,0,0-1.4,1.1-1.3.3,0-.4,5.7-5.4,6.8-5.3"/>
          <path id="Path_7724" d="M233,67.8c-2.2-1.8-3.8-4.1-4.7-6.8.6,0,.9.8,1.2,1.2,1.4,1.8,2.6,3.6,3.5,5.6"/>
          <path id="Path_7725" d="M238,110.9c-2.1,2.1-5.6,2.8-8.5,3.5l8.5-3.5Z"/>
          <path id="Path_7726" d="M185.6,89c-.4,0-.5-.2-.6-.5-1.5-2.5-2.7-5.2-3.5-8l3.7,6.9.4,1.5h0Z"/>
          <path id="Path_7727" d="M219.4,38.1v8.5l-.6-1.6c-.2-2-.2-3.9,0-5.9,0-.3,0-1.1.6-1"/>
          <path id="Path_7728" d="M71.6,69.7c-1.2,1.2-2.2,2.5-3.5,3.6-.2.2-1.9,1.5-2.1,1.3,0-.8.9-1.5,1.4-2,1-.9,2-1.7,3.1-2.4.3-.2.6-.6,1-.5"/>
          <path id="Path_7729" d="M230.8,15.6l-6,4.7,1.8-2.3c1.3-.8,2.5-2.4,4.2-2.5"/>
          <path id="Path_7730" d="M216.9,40.8c-.3,0-.4-.7-.4-1,0-1.8,0-3.5.5-5.2,0-.3.1-1.1.5-1.2l-.6,7.4h0Z"/>
          <path id="Path_7731" d="M245.6,79.1c-.4,0-.4-.4-.4-.7-.3-2.1-.4-4.2-.4-6.3.3,0,.3.4.4.6.4,2.1.6,4.3.5,6.4"/>
          <path id="Path_7732" d="M231,17.5c-.9,1.3-2.1,2.3-3.5,3.1-.4-.4,2.6-3.4,3.5-3.1"/>
          <path id="Path_7733" d="M145,61l-.4.7-3.7,2.4c.3-.7,3.7-3.5,4.1-3.1"/>
          <path id="Path_7734" d="M232,19.1c.4.4-2.2,2.2-2.7,2.1.1-.4,2.5-2.2,2.7-2.1"/>
        </g>
      </g>
    </g>
  </g>
</svg>