<?xml version="1.0" encoding="UTF-8"?>
<svg id="Layer_2" xmlns="http://www.w3.org/2000/svg" version="1.1" viewBox="0 0 146.2 184.3">
  <!-- Generator: Adobe Illustrator 29.6.1, SVG Export Plug-In . SVG Version: 2.1.1 Build 9)  -->
  <defs>
    <style>
      .st0 {
        fill: #fff;
      }
    </style>
  </defs>
  <g id="Layer_1-2">
    <g>
      <g>
        <path class="st0" d="M13.3,124.6l-.5-7.6c.3-2-.4-3.9,0-5.9l-.3-.3c-1.5-.2-3,0-4.5,0-.2,2.2-.2,4.5-.1,6.8,0,1.8.1,3.5.3,5.3,0,.4,0,.8,0,1.2l5.3.5h0Z"/>
        <polygon class="st0" points="61.3 175.9 71.4 175.3 70.9 168.4 58.4 168.6 61.3 175.9"/>
        <path class="st0" d="M72,167.4l14-.7c.3-1.8.7-3.5,1-5.3,0-.4.3-.9.3-1.2.1-1.1,0-2.5.1-3.6l-16,.5.5,10.4h0Z"/>
        <path class="st0" d="M88.5,143.1c-.9-.5-1.7-.1-2.6-.1-3.9,0-7.8.2-11.6.3-.9,0-1.8,0-2.7,0-.4.3-.2,5.5-.5,6.3l.2,6.1c0,0,1.3.2,1.5.3,3.3,0,7.1-.4,10.4-.5,1.4,0,2.9,0,4.3,0l1-12.3h0Z"/>
        <path class="st0" d="M28.5,96.9c-.3.2-.6.5-1,.7l1,.2c4.5.3,7.4,3.6,8.3,7.9.3,1.4.3,2.9.5,4.3.2,1.3.8,2.8.9,4.2.2.2.2,0,.3-.2.2-2,.2-4,.4-5.9.1-1.5.2-3.1.4-4.6.1-1.2,1-2.8,1.6-3.8,1.3-2.2,3.1-4,5.1-5.4,0-.2,0-.3-.2-.4-.5-.3-1.7-.7-2.3-1-3.8-1.9-5.5-4.2-7.4-7.9-.7-1.3-.9-2.5-1.4-3.9,0-.1,0-.4-.2-.4-.3,1,.1,2.3.1,3.4,0,4.7-2.7,9.6-6,12.7Z"/>
        <path class="st0" d="M39.3,79.3l-4.4.4c1.1,2.1,1.4,4.6,3,6.5l1.4-6.9h0Z"/>
        <path class="st0" d="M23.3,110.3h12.4c.2,0,.1-.9.1-1.1-.2-3.7-1.2-8.4-5.2-9.8-1.8-.6-3.7-.3-5.5-1-.5-.8,2.4-2.1,2.1-2.4h-3c0,.1-.9,14.3-.9,14.3Z"/>
        <path class="st0" d="M74.7,63.3c1.5,0,3,0,4.5,0l6.1.4-1.9-10.7h-12c0,.1.2,10.3.2,10.3.2.4,2.5,0,3,0h0Z"/>
        <path class="st0" d="M81.7,44.2l-.9-4c-3.1-.3-6.1-.5-9.2-.4l.3,4s9.9.3,9.9.3Z"/>
        <path class="st0" d="M75,110.6c.4,0,.7-.1,1-.1,4.2,0,8.3.2,12.5-.2l-.9-14.9h-16.5v14.9c.2.4,3.3.3,3.9.3h0Z"/>
        <path class="st0" d="M72.6,126.5c2,.2,4.2-.2,6.2-.1,2.7,0,5.2.4,7.9.3,1.2,0,1.8.2,1.9-1.2.2-2.7.3-9.2-.2-11.9,0-.2-.3-.9-.4-1,0,0-.8-.4-.8-.4-.8-.2-2.4,0-3.3,0-1.7,0-3.4,0-5.1,0s-4.1-.3-5.9-.1c-.6,0-1.3.3-1.9.4l.2,13.7c.1.2,1.1.4,1.4.4Z"/>
        <path class="st0" d="M36.8,123.6c0,.3.2,2.3.3,2.4h14.1c-.3-4.5-.6-8.9-.5-13.3,0-.4.3-1.2,0-1.5h-10.2c0,.1-1.3,6-1.3,6l-.4.4c-.2,0-.3,0-.4-.3-.2-.3-.6-1.8-.7-2.3-.2-.8-.3-1.8-.5-2.5,0-.2,0-.4-.3-.4.1,3.8-.2,7.7,0,11.4h0Z"/>
        <path class="st0" d="M70.2,81.2c0-.8-.3-1.8-.3-2.6-3.7-.6-7.6-.3-11.4-.2-1.1,0-2.3,0-3.3,0-1.2,0-1.3.7-1.6,1.8-.6,2.5-.6,6.4-.7,9.1,0,.9-.1,4.9.3,5.3l16.3-.6c.2-.3.4-.6.4-.9.3-2.2,0-5.3,0-7.7,0-.7.1-1.5.1-2.2s.1-1.3.1-2h0Z"/>
        <path class="st0" d="M70.5,64.7c-1-.1-2-.3-3-.2-.9,0-1.8.3-2.8.4-2.6.2-5.5-.2-8.1,0-.3,1.8-1.2,3.7-1.4,5.5-.1.8,0,1.7-.2,2.5-.2,1.4-.5,2.8-.8,4.2h16.2c0,.1,0-12.4,0-12.4h0Z"/>
        <path class="st0" d="M46.9,60.1c-.5,1.3-.8,2.8-1.3,4.2l10.1-.5,2.4-10.3-8,.8c-.9,2-2.4,3.8-3.2,5.8h0Z"/>
        <path class="st0" d="M52.4,87c0-1.2,0-2.4,0-3.6,0-1.5.5-3.2.7-4.7-4.2,0-8.4-.3-12.6.5l-1.3,8.7c1.2,1.9,3.6,3.2,5.6,4.1.7.3,2.7.9,3.1,1.2.7.6-.4,1.1-.7,1.5h4.4c.1-2.6.6-5.2.8-7.7h0Z"/>
        <path class="st0" d="M26,85.8c-.5,3.2-1.5,6.3-1.6,9.6l4.2-.2c1.8-1.6,3.1-4.2,3.9-6.4,1-2.6,1.3-5.6.6-8.3,0-.2,0-.3-.2-.4-.2-.1-1.6,0-2,0-.4,0-2.8.4-2.9.5l-1.9,5.2h0Z"/>
        <path class="st0" d="M127.8,70.2c-.2,1.7.9,3,1.5,4.4,1,2.3,1.8,4.6,2.9,6.8l6.3,1.2-2.4-5.1c-1.1-1.1-3.2-5.8-4.3-6.2-.4-.2-3.9-1.2-4-1.1Z"/>
        <path class="st0" d="M34,65.8c2.4-.5,4.8-.7,7.2-.8l2.7-.7,5.2-10.1-7.9,1.4c-2.6,3.2-5,6.7-7.2,10.2h0Z"/>
        <path class="st0" d="M52.2,110c.3.2,3.7.2,4.4.2,3.7.2,7.5.6,11.2.5.3,0,1.2,0,1.4-.1.3,0,.5-.2.7-.4.1-1.5,0-2.9.2-4.4.2-3.1,0-5.6-.1-8.7,0-.7.4-1.3-.4-1.4-2.1-.3-4.9.1-7.1,0-2.9.4-6.4-.3-9.3,0-.2,0-.3,0-.4.1-.1.1-.3,1.5-.3,1.8-.2,2.4,0,4.9-.1,7.3,0,1.5-.5,3.1-.3,4.6,0,.2,0,.3.2.5h0Z"/>
        <path class="st0" d="M91.8,44.9l-1.3-3.1c-2.8-1.1-5.8-.9-8.8-1.3l1.1,3.8,9,.7h0Z"/>
        <path class="st0" d="M52.4,131.7c0,1,.3,2.1.4,3,.2,2,.2,4.1.4,6.1l16.7.6c.5-.4.3-2.1.3-2.7.2-3.1.2-6.4,0-9.5,0-.5-.2-1.1-.1-1.7h-17.7c0,1.3,0,2.7,0,4.2h0Z"/>
        <path class="st0" d="M70.5,155.6l-.3-12.7-16.8-.4v.3c.5,4.1.7,8.3,1.7,12.3l15.3.4Z"/>
        <path class="st0" d="M53.8,126.4c4.8.2,9.9.4,14.6.1.4,0,.8-.2,1.2-.1,0-.5.1-1,.1-1.5.2-3.4,0-7.6-.1-11,0-1.1.5-2.2-1-2.3-3.8-.4-8.3.2-12.2,0-.7,0-4-.7-4.2-.3v14.8c.2.1,1.2.3,1.5.3Z"/>
        <path class="st0" d="M87.5,94.1c.5-.7-.7-7.1-.8-8.5,0-.7-.1-1.5-.1-2.1,0-.7.1-4.9-.1-5h-15.3c0-.1,0,15.9,0,15.9,0,0,16.4-.3,16.4-.3Z"/>
        <path class="st0" d="M89.6,105c.2,1.6.6,3.2.4,4.8.5.6,5.3.4,6.2.4,2.6,0,5.3-.3,7.9-.3,1.4,0,2.1,0,2.1-1.7,0-2.8-.8-6.3-1.2-9.1,0-.8-.2-3.8-.5-4.1-.2-.2-.7-.2-.9-.3-2.6-.2-6.2,0-8.8,0-1.4,0-4,0-5.3.4-.2,0-.5.1-.6.3v4.9c.5,1.5.5,3.1.6,4.6h0Z"/>
        <path class="st0" d="M102.3,111.3c-3.4,0-6.5,0-9.9.1-.9,0-1.9,0-2.8,0-.1,1.5.3,3,.4,4.6.1,2.3-.3,4.6-.4,6.9,0,1.3,0,2.6,0,3.9l14.1-.2c.6-2.1.7-4.2,1.3-6.3.3-1,1.1-2.7,1.2-3.6.2-1.7-.2-3.5-.2-5.2-.2-.2-3.2-.1-3.7-.1h0Z"/>
        <path class="st0" d="M107.7,154.3l6.3-1.2,3.9-12.1-6.8.7c-.1.6-.5,1.2-.7,1.8-.6,2.3-.8,4.9-1.2,7.2-.1.8-.6.6-.7,0-.2-.8-.2-1.6-.5-2.4-.5-1.8-1.4-3.6-2.3-5.2l-2.1,11.5h4c0-.1,0-.1,0-.1Z"/>
        <path class="st0" d="M97.2,134.3c-.2,0-.3,0-.3.3.1.2,1.7.4,2.1.5,6.3,1.7,6.9,6.3,9.4,11.5l.4.2c.7-4.2,2.1-8.6,5.4-11.4.9-.8,2-1.2,2.8-2,.1-.1.1,0,0-.3-1.9-.6-4.2-1.9-5.7-3.2-2.2-1.9-3.5-6.9-4.4-9.7,0-.2-.4-1.9-.6-1.7,0,.3-.2.7-.2,1-.3,2.3-1,5.2-1.6,7.5-1,3.6-4.3,5.7-7.4,7.4h0Z"/>
        <path class="st0" d="M120.4,127.6l-9.4.3c.7,1.2,1.9,2,3.1,2.6.8.4,2,.9,2.8,1.2.8.3,1.8,0,2.1,1.1,0,.9-2.2,1.9-2.9,2.3-1.8,1.2-3.3,3.1-4.4,4.9,0,.2-.2.3-.1.5l6.8-.8,2-12.2h0Z"/>
        <path class="st0" d="M103.3,79.9c1.1,3.1,1,6.3,1.8,9.5.2,1.1.6,2.5.9,3.5.1.4.2,1.1.7,1.2h11.8l.3-.8c-1-3.8-1.4-8.1-3.1-11.6-.6-1.4-.6-1.5-2.1-1.7-2.7-.4-5.4-.3-8.2-.4-.5,0-2.1-.5-2,.3Z"/>
        <path class="st0" d="M91,141.9c3.4-.1,7-.6,10.4-.9,1.1,0,2.2-.1,3.4-.1.2-.2-1-2-1.2-2.2-.8-.9-2.8-2-4-2.4-1.2-.4-4.1-.3-3.6-2,.2-.6,2.7-1.8,3.4-2.3,1.6-1.1,3.3-2.6,4.1-4.3l-13.7.2c-.2.2,0,3.5-.1,4.1,0,2.4,0,4.2.1,6.6,0,1.1,0,2.1-.1,3.2.4.2.9.2,1.4.1h0Z"/>
        <path class="st0" d="M104.4,93.4c-.3-1.4-.2-2.8-.4-4.1-.4-3.3-1.4-6.7-1.8-10.1-.4-.5-8.7-.6-9.9-.7-1,0-2.2-.3-3.2-.3s-.9.2-1.4.1c.7,2.8.5,5.8.7,8.7,0,1.7.3,3.4.4,5.1,0,.6,0,1.1,0,1.7l15.6-.4h0Z"/>
        <path class="st0" d="M100.7,65.8l2.5,12.2c3.8,0,7.5,0,11.2.6l-3.7-11.3c-3.3-.9-6.7-.9-10-1.5Z"/>
        <path class="st0" d="M101.9,77.9c-1.2-4-1.1-8.2-2.4-12.1-.1-.2-2.4-.5-2.8-.6-2.3-.3-6.6-.8-8.8-.7-.2,0-1.1.1-1.2.3,0,4.1,1.1,8.1.9,12.3,0,0,14.4.8,14.4.8Z"/>
        <path class="st0" d="M97.6,64.3c.8,0,1.4.5,1.3-1,0-1.2-1.8-7.9-2.4-8.8-.7-1-1.2-.6-2.2-.7-1.6-.1-3.3-.4-4.9-.5-1.3,0-2.6.1-3.9-.1-.2.2.8,6.1.9,6.9,0,.2.2.4.2.7,0,.5,0,2,.5,2.3,1.7.4,3.4.7,5.2.9,1.8.2,3.6.3,5.4.3h0Z"/>
        <path class="st0" d="M83.1,45.4c.6,2,.5,4.3,1.3,6.3l10.8,1.1.3-.2-2.9-6.5c-3.1-.6-6.2-.8-9.3-1,0,0-.2.3-.2.3Z"/>
        <path class="st0" d="M118,67l-5.6-10c-.8-.2-6-1.7-6.4-1.4,2.1,3.3,3.9,6.8,5.5,10.4l6.5,1.1h0Z"/>
        <path class="st0" d="M118.8,95.4h-12.5c0-.1,1.3,14.8,1.3,14.8l13.2.4c0-5.2-1.1-10.2-2-15.3Z"/>
        <path class="st0" d="M116.9,60.4c0,.1,1.9.7,2.2.8,2.2,1,4.1,3.2,5.3,5.3l2.2,4.4c-.3-2.3-1.1-4.7-.5-7,.4-1.8,1.6-3.1,2.6-4.7-1.9-1.2-4.2-2.2-5.7-4-1.5-1.9-2.4-4.6-3.5-6.7,0-.2-.2-.4-.3-.4.4,3.7,1.7,7.6-1,10.8-.4.5-1,.9-1.4,1.4h0Z"/>
        <path class="st0" d="M100.1,46.1l4.1,1.2.2-.2-5.4-2.2c0,0,.9,1.3,1.1,1.3Z"/>
        <path class="st0" d="M104.1,54.2l-1.7-2.7c-.5-.7-2.7-4.1-3.1-4.4-.5-.3-5.1-1.1-5.3-.9.8,2.3,1.5,4.6,2.7,6.7l7.5,1.3h0Z"/>
        <path class="st0" d="M112.8,55.9c.2.2,4.2,1.2,4.7,1.2.3,0,.5,0,.7-.2-.5-.5-.8-1.4-1.3-1.9-.8-.9-3.3-2.6-4.4-3.4-.4-.2-3.2-2.1-3.4-1.9,0,.2,0,.4.2.5,1,1.9,2.7,3.6,3.5,5.6h0Z"/>
        <path class="st0" d="M130.5,110.6c0-.7,0-1.5,0-2.2-.2-2.8-.8-6.2-1.2-9-.2-1-.4-2.1-.6-3.1l-8.8-.8,1.8,15.1h8.8Z"/>
        <path class="st0" d="M132.6,95.4c1.1.1,2.2.3,3.4.4-.2-1.3-.8-2.5-1.1-3.7-.1-.6-.1-1.3-.3-1.8-.6-2.7-1.8-5.1-2.8-7.7l-6.7-.9c-.3,0,0,1.1.2,1.4,1.2,4.1,2.7,8,3.9,12,.3.4,2.6.3,3.3.4h0Z"/>
        <path class="st0" d="M127.1,64.8c-.3,1.4.1,2.8.3,4.2l3.4.7c.1,0-1.3-2.2-1.5-2.5-.6-.8-1.4-1.7-2.2-2.4h0Z"/>
        <path class="st0" d="M137.8,125.7l-5.9,1.1c-.1,4-1.2,7.9-2.2,11.8.8,0,5.9-.8,6.1-1.2l2.1-11.6h0Z"/>
        <path class="st0" d="M131.2,119.9c0-1.2-.1-1.4-.3-2.5-.2-1.8-.2-3.7-.3-5.5-2.9.2-5.9.6-8.8,0v14.1l9-.8c.4-1.8.4-3.5.4-5.3h0Z"/>
        <path class="st0" d="M28.3,79.4l11.1-1.2c.7-2.1,1.3-4.2,2-6.3.4-1.4.9-2.5,1.2-3.9.2-.7.5-1.4.6-2.1-3.3,0-6.5.4-9.7,1.1-1.9,4.2-4.2,8-5.2,12.5Z"/>
        <path class="st0" d="M60.5,176.9l-8-.3,2.9,4.1c0,.1,2.1.5,2.5.5,1.3.2,3.4.6,4.6.7.2,0,.3,0,.4-.2l-2.1-4.6-.3-.2h0Z"/>
        <path class="st0" d="M50,176.2l-5.7-.7c.4.4.8,1.4,1.3,1.7,1,.7,6.6,2.7,7.8,2.9.1,0,.4,0,.5,0l-2.7-3.6-1.1-.3h0Z"/>
        <path class="st0" d="M13.9,101.4c-.2,2.4-.3,4.6-.4,7,0,.4-.3,1.4,0,1.6l8.5.2,1.2-13.9-9,.2c-.3.2-.4,4.2-.4,4.9h0Z"/>
        <path class="st0" d="M67.6,177.1c-1.8,0-3.7-.6-5.5-.3-.2,0-.2,0-.2.2,0,.4,1,2.5,1.3,3.1.3.6.6,1.2.9,1.8,1.1,0,7.3,1,7.7.5l-.5-5.3c-1.2,0-2.5,0-3.8,0h0Z"/>
        <path class="st0" d="M85.9,168l-13.7.2c-.1,0-.1.3-.1.4-.2,1.2,0,3.9,0,5.2,0,.5.2,1,.3,1.5,3.9.6,7.8,0,11.7.1.8-2.4,1.5-4.8,1.9-7.4h0Z"/>
        <path class="st0" d="M95.2,175.9c-.8-.2-3.1.5-4.1.6-2.1.3-4.2.4-6.3.4-.2.5-1.5,4.3-1.3,4.5,3.6-.2,7-1,10.4-2.1l1.4-3.1c0-.1,0-.2-.2-.2Z"/>
        <path class="st0" d="M10.3,138.1c.9,4.2,2.8,8.2,4.6,12.1l4.9.9c-1.7-3.8-2.5-7.8-3.8-11.7l-5.7-1.2h0Z"/>
        <path class="st0" d="M36.1,166l-7.5-1.4c.9,1.4,2.1,2.5,3.2,3.8.5.6,1.1,1.8,1.6,2.2.5.5,2.2,1.6,2.9,1.9,1.7.9,3.5,1.8,5.4,1.9.2-.2-.6-1.1-.8-1.3-1.6-2.4-3-4.9-4.8-7.2Z"/>
        <path class="st0" d="M25.7,140.6l-8.6-1.1c.9,4,2.1,7.9,3.8,11.6l8.9,1.3c-2-3.7-2.7-7.9-4.1-11.8h0Z"/>
        <path class="st0" d="M35.2,164.5c-2-3.4-3.1-7.2-4.9-10.8l-9-1.4c1.4,3.8,4,7.2,6.1,10.7l7.7,1.4h0Z"/>
        <path class="st0" d="M23.6,163.2c.2.6.8.9,1.2,1.2,1.4,1.1,3,2.4,4.4,3.4.1.1.9.6,1,.6l-3.2-4-3.4-1.1h0Z"/>
        <polygon class="st0" points="45.6 167.4 37.6 166.2 39.6 169.5 43.5 174.6 50.4 175.6 45.6 167.4"/>
        <path class="st0" d="M135.5,138.3l-6.3,1.3-4,11.5c2.1-.4,4.2-.8,6.1-1.6.6-1.3.9-2.8,1.4-4.1.3-.8,3-6.8,2.7-7.1h0Z"/>
        <path class="st0" d="M134.5,147.6c2.2-3.1,3.8-6.7,5.1-10.3l-2.9.8-2.3,9.5h0Z"/>
        <path class="st0" d="M119.3,140.9c-1,4.2-3,8.1-4.2,12.2,3-.5,5.9-.7,8.8-1.6,1.8-3.8,3.2-7.8,4.4-11.9l-8.9,1.2Z"/>
        <path class="st0" d="M140.2,111.8c0,1.7.1,3.5,0,5.2-.2,2.3-.8,4.6-1.1,6.9l4.5-.7c.1-.1.6-2.3.6-2.7.2-1.3.5-3.1.6-4.4.1-1.7-.2-3.4-.1-5.1l-4.5.8h0Z"/>
        <path class="st0" d="M103.2,176.2c0,0,.9-.3,1-.4,1.2-.6,3.2-1.4,4.2-2.1.2-.1.5-.3.6-.6l-4.7,1.3s-1.2,1.7-1.2,1.7Z"/>
        <path class="st0" d="M87.2,166.6c2.2,0,4.4-.6,6.7-.7,1.7,0,3.4.2,5.1-.2,1.3-3.2,2.7-6.6,3.4-10l-13.9.8-1.3,10h0Z"/>
        <path class="st0" d="M100,142.8c-2.3.2-4.7.2-7,.3-1.2,0-2.3,0-3.5,0-.2,4.2-1.1,8.3-.9,12.5l14.2-1.1,2-12.4c-1.6,0-3.2.5-4.8.7h0Z"/>
        <polygon class="st0" points="85.2 175.4 95.8 174.2 98.6 166.6 87 167.9 85.2 175.4"/>
        <path class="st0" d="M105.4,172.9c2-.4,3.8-1,5.7-1.8,1.7-.7,1.1-.5,2.3-1.6.6-.5,1.3-.8,1.8-1.4,1-1.2,1.7-3.2,2.6-4.6l-8.6,1.8-3.8,7.6h0Z"/>
        <path class="st0" d="M113.3,157.1c-.2.4-.2.9-.4,1.4-.8,1.7-2,3.5-2.7,5.2,0,.2-.1.3,0,.5,1.7-.3,3.5-.5,5.2-1.1,0,0,0-.2.3-.3.9-.3,2.1-.2,3-.6l4.7-9.2c-2.9.7-5.8,1.1-8.8,1.5-.2.9-.8,1.7-1.1,2.6Z"/>
        <path class="st0" d="M6.2,136.8l2.2,6,3.2,5.3c-.9-3.4-2-6.8-2.3-10.3,0,0-3.1-1.1-3.1-1.1Z"/>
        <path class="st0" d="M56.9,167.1l-2.7-10.8c-2.5-.7-5-.4-7.6-.6-1.6-.1-3.2-.4-4.8-.5.7,3.9,2.4,7.6,4.2,11.1l10.8.7h0Z"/>
        <path class="st0" d="M49.5,172.4c.3.5,2.3,3.3,2.5,3.4.2,0,.8.1,1,.2.5,0,1.3.1,1.8.1,1.7,0,3.5-.1,5.2-.1l-2.8-7.5-10.5-.9c0,.2,0,.3,0,.5.5,1.1,1.9,3.3,2.6,4.4h0Z"/>
        <path class="st0" d="M59.5,52.1l3.9.2c2.4-.4,4.8,0,7.2-.4v-6.4c0-.5-1.9,0-2.3,0-2.2,0-4.5-.1-6.7.2-1.1,2-1.5,4.3-2.1,6.5h0Z"/>
        <path class="st0" d="M60.8,44.7c.4-.2,1.3-3.3,1.6-3.9l-5.6,1.3-1.5,3,5.5-.5h0Z"/>
        <path class="st0" d="M55.4,42.6c-1,.4-2.2.7-3.2,1-1.7.6-3,1-3.9,2.6l5.6-1,1.5-2.8h0Z"/>
        <path class="st0" d="M46.1,154.8l7.8.3c-.8-4-1.3-8-1.5-12.1l-.2-.4-13.3-.8,2.4,12.2,4.7.7h0Z"/>
        <path class="st0" d="M38.8,140.6c3.7.4,7.4,1.1,11.2.9l1.9-.5c.2-.2.2-2.9.1-3.4,0-1.2-.4-2.5-.5-3.7-.1-1.5,0-3,0-4.5,0-.2-.3-2.1-.4-2.1-.5-.6-4.8-.4-5.8-.4-2.1,0-5.3-.4-7.4-.1-1.2.2-1.1,1-1,2,.1,3,.7,7.2,1.2,10.3,0,.4.3,1.3.6,1.5h0Z"/>
        <path class="st0" d="M7.8,129c-.2-1.4,0-2.8-.3-4.3l-4.5-.6c0,0,.3,2.1.3,2.4.4,2.1,1.1,4.7,1.7,6.7.1.5.8,2.7,1.1,2.8,1,0,2,.4,2.9.6-.3-2.6-1-5.1-1.3-7.7h0Z"/>
        <path class="st0" d="M15.7,138.2c-1.2-4.2-1.8-8.6-2.3-12.9l-5.3-.5c-.1,1.4,1.3,11.9,1.9,12.2l5.7,1.2h0Z"/>
        <path class="st0" d="M16.9,138.4l8.4,1.1-1.5-7.4c-.8-1.9-1.2-4-1.2-6.1l-8.2-.8c.9,4.3,1.3,8.7,2.4,13h.2c0,.1,0,.1,0,.1Z"/>
        <path class="st0" d="M26.8,140c2.4.4,4.9.4,7.4.5,1.1,0,2.1.4,3.2.3-.4-3.5-.9-7.1-1.1-10.6l-.6-3.6-12.2-.5c-.1.1-.1.2-.1.4,0,1.3.5,2.9.6,4.2l2.3,9.1c.1.1.3.2.5.2h0Z"/>
        <path class="st0" d="M13.6,116.1c0,1.1.3,8.2.8,8.6l7.9.3c0-4.6-.6-9.2-.3-13.9h-8.6c-.4,1.6,0,3.3.1,5h0Z"/>
        <path class="st0" d="M13.9,76.8c.9-2,2.1-4,3-6,0-.2.1-.3.1-.5-.9.3-2,.5-2.8.8-.9.4-1.3,1.7-1.8,2.5,0,.2-.3.3-.5.6-1.5,2.5-2.7,5.2-4,7.8l4.5-.8c.4-1.5,1-3,1.6-4.4h0Z"/>
        <path class="st0" d="M9,95.6v.3c.1,0,4.6-.2,4.6-.2.4-2.8,1.3-5.5,2-8.2.1-.6.1-1.2.3-1.7.3-1.3,1-2.5,1.2-3.8l-4.3.4c-1.5,4.4-3,8.8-3.8,13.3h0Z"/>
        <path class="st0" d="M3.1,96c.6.4,4.2-.5,5.2-.2.7-3.5,1.5-7.1,2.6-10.5.1-.4,1.2-3,1.1-3.1l-4.2.5c-.2,0-.3.1-.4.3-.4.6-1.5,3-1.8,3.8-.7,2-1.5,4.6-2,6.7-.2.7-.4,1.6-.5,2.2,0,.1,0,.2,0,.3Z"/>
        <path class="st0" d="M7,104.9c.2-2.2.5-4.7.8-6.8,0-.4.2-.8.4-1.2,0-.1-.2-.2-.3-.2-.4,0-2.9.3-3.5.4-.5,0-1,.2-1.5.4l-1.2,6.4v6.4c-.1,0,5.3-.3,5.3-.3,0-1.7,0-3.4.1-5.1h0Z"/>
        <path class="st0" d="M7.2,123.9c-.4-2.7-.2-5.3-.3-8,0-.9-.2-2.1-.3-3,0-.7,0-1.5.1-2.2l-5.4-.3.3,4.8c.3,1.9.8,3.8,1,5.7,0,.6,0,1.9.2,2.3,0,.1,0,.2.2.2.4.2,4,.6,4.1.4h0Z"/>
        <path class="st0" d="M46.4,53.7c1.1-.2,2.6,0,3.5-.8.2-.2,2-3.4,2.3-3.9.1-.3,1.3-2.4,1.2-2.5l-5.9.9c-1.7,2.3-3.7,4.4-5.2,6.9,1.4-.1,2.8-.4,4.2-.6Z"/>
        <path class="st0" d="M26.2,67l6.7-1.1c1.8-3.7,4.7-6.6,6.9-10-2.2.4-4.5.7-6.7,1.5l-3.9,5-3.1,4.7h0Z"/>
        <path class="st0" d="M16.1,88c-.3.8-1.8,7.4-1.5,7.7l8.8-.3c.2-.1.2-2.6.3-3.1.4-3.9,1.4-7.9,2.6-11.6l-7.9,1.1c-.7,1.5-1.1,3.1-1.6,4.6-.2.5-.5,1-.7,1.6h0Z"/>
        <path class="st0" d="M40.6,54.7l5.4-6.9-5.7,1.1c-2.1,2.2-4.2,4.3-5.8,6.8,2.1.1,4.1-.4,6.1-1h0Z"/>
        <path class="st0" d="M24.6,67.3l6.4-9.5c-2.1.5-4.3.7-6.3,1.6-1.1,1.3-1.7,3-2.5,4.5-.7,1.2-1.9,2.9-2.4,4,0,.2-.1.3-.1.5.2.2,4.6-.8,5-1Z"/>
        <path class="st0" d="M28.4,76.3c.2-.4.2-1,.4-1.5,1.1-2.7,2.4-5.2,3.6-7.8-2.3.2-4.7.6-7,1.3-1.2,1.9-2.4,3.8-3.4,5.7-.6,1.2-1.4,2.6-1.9,3.9-.2.4-1.1,2.7-1,2.9l7.9-1.1c.3-1.2,1.1-2.3,1.5-3.4h0Z"/>
      </g>
      <path d="M71.8,38.4c.6.1,1.3-.2,1.9-.1,4.9,0,10.2.7,15.1,1.3,8.5,1,16.6,5.5,23.7,10.1,2.2,1.5,4.5,3.2,6.4,5.1.3,0,.2-.1.2-.3.1-1.4-.3-4-.5-5.5-.1-1-.9-3.2-.2-4,.5-.6,1.2.8,1.4,1.2,1.6,3.3,2.6,7.7,5.7,9.9,1.3.9,2.8,1.6,4.2,2.4,1,.8,0,1.5-.6,2.2-.2.3-1.1,1.5-1.1,1.7,2,2.2,3.1,4.9,4.9,7.3.4.6.9,1,1.3,1.5,2.8,3.7,6.6,12.5,7.9,17,2.4,8.3,4.4,15.2,4.2,24-.2,6.6-1.3,14.5-3,20.9-2.5,9.6-9,19.1-15.4,26.5-3.9,4.4-9.8,10.9-14.9,13.8-6,3.4-12.6,5.9-19.2,7.8-4.2,1.2-8.7,2.5-13,2.8-6.8.5-14.2.4-21-.7-11.3-1.9-21.5-7.2-30.8-13.7-11.3-7.9-19.8-20-24.6-32.8C.6,126.9-.3,116,0,105.5c.5-11.9,6.3-25,12.4-35.1,2.1-3.4,5.8-7.5,8.6-10.5,4.3-4.7,12.1-9,17.6-12.2,8.1-4.7,14.7-7,24-8.8,2.4-.5,4.8-.8,7.3-.7,0-.2-.1-.5-.1-.7-.4-12.1.3-24.3,0-36.5.2-1.6,2-1.1,2-.3v37.6h0ZM80.7,40.2c-3.1-.3-6.1-.5-9.2-.4l.3,4,9.9.3s-.9-4-.9-4ZM90.5,41.7c-2.8-1.1-5.8-.9-8.8-1.3l1.1,3.8,9,.7-1.3-3.1h0ZM62.4,40.8l-5.6,1.3-1.5,3,5.5-.5c.4-.2,1.3-3.3,1.6-3.9h0ZM48.3,46.3l5.6-1,1.5-2.8c-1,.4-2.2.7-3.2,1-1.7.6-3,1-3.9,2.6h0ZM104.4,47l-5.4-2.2c0,0,.9,1.3,1.1,1.3l4.1,1.2s.2-.2.2-.2ZM83.2,45.1l-.2.3c.6,2,.5,4.3,1.3,6.3l10.8,1.1.3-.2-2.9-6.5c-3.1-.6-6.2-.8-9.3-1ZM70.6,51.8v-6.4c0-.5-1.9,0-2.3,0-2.2,0-4.5-.1-6.7.2-1.1,2-1.5,4.3-2.1,6.5l3.9.2c2.4-.4,4.8,0,7.2-.4h0ZM104.1,54.2l-1.7-2.7c-.5-.7-2.7-4.1-3.1-4.4-.5-.3-5.1-1.1-5.3-.9.8,2.3,1.5,4.6,2.7,6.7l7.5,1.3h0ZM53.3,46.6l-5.9.9c-1.7,2.3-3.7,4.4-5.2,6.9,1.4-.1,2.8-.4,4.2-.6,1.1-.2,2.6,0,3.5-.8.2-.2,2-3.4,2.3-3.9.1-.3,1.3-2.4,1.2-2.5ZM46,47.8l-5.7,1.1c-2.1,2.2-4.2,4.3-5.8,6.8,2.1.1,4.1-.4,6.1-1l5.4-6.9h0ZM126.7,70.9c-.3-2.3-1.1-4.7-.5-7,.4-1.8,1.6-3.1,2.6-4.7-1.9-1.2-4.2-2.2-5.7-4-1.5-1.9-2.4-4.6-3.5-6.7,0-.2-.2-.4-.3-.4.4,3.7,1.7,7.6-1,10.8-.4.5-1,.9-1.4,1.4,0,.1,1.9.7,2.2.8,2.2,1,4.1,3.2,5.3,5.3l2.2,4.4h0ZM109.1,49.7c0,.2,0,.4.2.5,1,1.9,2.7,3.6,3.5,5.6.2.2,4.2,1.2,4.7,1.2.3,0,.5,0,.7-.2-.5-.5-.8-1.4-1.3-1.9-.8-.9-3.3-2.6-4.4-3.4-.4-.2-3.2-2.1-3.4-1.9h0ZM83.5,53.1h-12c0,.1.2,10.3.2,10.3.2.4,2.5,0,3,0,1.5,0,3,0,4.5,0l6.1.4-1.9-10.7h0ZM85.4,53.2c-.2.2.8,6.1.9,6.9,0,.2.2.4.2.7,0,.5,0,2,.5,2.3,1.7.4,3.4.7,5.2.9s3.6.3,5.4.3c.8,0,1.4.5,1.3-1,0-1.2-1.8-7.9-2.4-8.8-.7-1-1.2-.6-2.2-.7-1.6-.1-3.3-.4-4.9-.5-1.3,0-2.6.1-3.9-.1h0ZM58.2,53.4l-8,.8c-.9,2-2.4,3.8-3.2,5.8-.5,1.3-.8,2.8-1.3,4.2l10.1-.5,2.4-10.3h0ZM34,65.8c2.4-.5,4.8-.7,7.2-.8l2.7-.7,5.2-10.1-7.9,1.4c-2.6,3.2-5,6.7-7.2,10.2h0ZM118,67l-5.6-10c-.8-.2-6.1-1.7-6.4-1.4,2.1,3.3,3.9,6.8,5.5,10.4l6.5,1.1h0ZM39.8,55.9c-2.2.4-4.5.7-6.7,1.5l-3.9,5-3.1,4.7,6.7-1.1c1.8-3.7,4.7-6.6,6.9-10h0ZM31,57.8c-2.1.5-4.3.7-6.3,1.6-1.1,1.3-1.7,3-2.5,4.5-.7,1.2-1.9,2.9-2.4,4,0,.2-.1.3-.1.5.2.2,4.6-.8,4.9-1.1,0,0,6.4-9.5,6.4-9.5ZM70.5,77.2v-12.5c-1-.1-2-.3-3-.2-.9,0-1.8.3-2.8.4-2.6.2-5.5-.2-8.1,0-.3,1.8-1.2,3.7-1.4,5.5-.1.8,0,1.7-.2,2.5-.2,1.4-.5,2.8-.8,4.2h16.2c0,.1,0,.1,0,.1ZM99.5,65.7c-.1-.2-2.4-.5-2.8-.6-2.3-.3-6.6-.8-8.8-.7-.2,0-1.1.1-1.2.3,0,4.1,1.1,8.1.9,12.3l14.4.8c-1.2-4-1.1-8.2-2.4-12.1ZM130.8,69.7c.1,0-1.3-2.2-1.5-2.5-.6-.8-1.4-1.7-2.2-2.4-.3,1.4.1,2.8.3,4.2l3.4.7h0ZM43.3,65.8c-3.3,0-6.5.4-9.7,1.1-1.9,4.2-4.2,8-5.2,12.6l11.1-1.2c.7-2.1,1.3-4.2,2-6.3.4-1.4.9-2.5,1.2-3.9.2-.7.5-1.4.6-2.1ZM110.7,67.3c-3.3-.9-6.7-.9-10-1.5l2.5,12.2c3.8,0,7.5,0,11.2.6,0,0-3.7-11.3-3.7-11.3ZM32.3,67c-2.3.2-4.7.6-7,1.3-1.2,1.9-2.4,3.8-3.4,5.7-.6,1.2-1.4,2.6-1.9,3.9-.2.4-1.1,2.7-1,2.9l7.9-1.1c.3-1.2,1.1-2.3,1.5-3.4.2-.4.2-1,.4-1.5,1.1-2.7,2.4-5.2,3.6-7.8h0ZM138.4,82.6l-2.4-5.1c-1.1-1.1-3.2-5.8-4.3-6.2-.4-.2-3.9-1.2-4-1.1-.2,1.7.9,3,1.5,4.4,1,2.3,1.8,4.6,2.9,6.8l6.3,1.2h0ZM17,70.3c-.9.3-2,.5-2.8.8-.9.4-1.3,1.7-1.8,2.5,0,.2-.3.3-.5.6-1.5,2.5-2.7,5.2-4,7.8l4.5-.8c.4-1.5,1-3,1.6-4.4.9-2,2.1-4,3-6,0-.2.1-.3.1-.5h0ZM53.2,94.6l16.3-.6c.2-.3.4-.6.4-.9.3-2.2,0-5.3,0-7.7,0-.7.1-1.5.1-2.2s.1-1.3.1-2c0-.8-.3-1.8-.3-2.6-3.7-.6-7.6-.3-11.4-.2-1.1,0-2.3,0-3.3,0-1.2,0-1.3.7-1.6,1.8-.6,2.5-.6,6.4-.7,9.1,0,.9-.1,4.9.3,5.3h0ZM71.1,94.4l16.4-.3c.5-.7-.7-7.1-.8-8.5,0-.7-.1-1.5-.1-2.1,0-.7.1-4.9-.1-5h-15.3c0-.1,0,15.9,0,15.9h0ZM104.4,93.4c-.3-1.4-.2-2.8-.4-4.1-.4-3.3-1.4-6.7-1.8-10.1-.4-.5-8.7-.6-9.9-.7-1,0-2.2-.3-3.2-.3s-.9.2-1.4.1c.7,2.8.5,5.8.7,8.7,0,1.7.3,3.4.4,5.1,0,.6,0,1.1,0,1.7l15.6-.4h0ZM47.2,94.8h4.4c.1-2.6.6-5.2.8-7.7,0-1.2,0-2.4,0-3.6,0-1.5.5-3.2.7-4.7-4.2,0-8.4-.3-12.6.5l-1.3,8.7c1.2,1.9,3.6,3.2,5.6,4.1.7.3,2.7.9,3.1,1.2.7.6-.4,1.1-.7,1.5h0ZM39.3,79.3l-4.4.4c1.1,2.1,1.4,4.6,3,6.5l1.4-6.9h0ZM106.7,94.1h11.8l.3-.8c-1-3.8-1.4-8.1-3.1-11.6-.6-1.4-.6-1.5-2.1-1.7-2.7-.4-5.4-.3-8.2-.4-.5,0-2.1-.5-2,.3,1.1,3.1,1,6.3,1.8,9.5.2,1.1.6,2.5.9,3.5.1.4.2,1.1.7,1.2ZM24.4,95.4l4.2-.2c1.8-1.6,3.1-4.2,3.9-6.4,1-2.6,1.3-5.6.6-8.3,0-.1,0-.3-.2-.4-.2-.1-1.6,0-2,0s-2.8.4-2.9.5l-1.9,5.2c-.5,3.2-1.5,6.3-1.6,9.6h0ZM26.4,80.8l-7.9,1.1c-.7,1.5-1.1,3.1-1.6,4.6-.2.5-.5,1-.7,1.6-.3.8-1.8,7.4-1.5,7.7l8.8-.3c.2-.1.2-2.6.3-3.1.4-3.9,1.4-7.9,2.6-11.6h0ZM46,94.2c0-.2,0-.3-.2-.4-.5-.3-1.7-.7-2.3-1-3.8-1.9-5.5-4.2-7.4-7.9-.7-1.3-.9-2.5-1.4-3.9,0-.1,0-.4-.2-.4-.3,1,.1,2.3.1,3.4,0,4.7-2.7,9.6-6,12.7-.3.2-.6.5-1,.7l1,.2c4.5.3,7.4,3.6,8.3,7.9.3,1.4.3,2.9.5,4.3s.8,2.8.9,4.2c.2.2.2,0,.3-.2.2-2,.2-4,.4-5.9.1-1.5.2-3.1.4-4.6.1-1.2,1-2.8,1.6-3.8,1.3-2.2,3.1-4,5.1-5.4ZM131.8,82.5l-6.7-.9c-.3,0,0,1.1.2,1.4,1.2,4.1,2.7,8,3.9,12,.3.4,2.6.3,3.3.4,1.1.1,2.2.3,3.4.4-.2-1.3-.8-2.5-1.1-3.7-.1-.6-.1-1.3-.3-1.8-.6-2.7-1.8-5.1-2.8-7.7h0ZM17.1,81.8l-4.3.4c-1.5,4.4-3,8.8-3.8,13.3v.3c.1,0,4.6-.2,4.6-.2.4-2.8,1.3-5.5,2-8.2.1-.6.1-1.2.3-1.7.3-1.3,1-2.5,1.2-3.8h0ZM12,82.2l-4.2.5c-.2,0-.3.1-.4.3-.4.6-1.5,3-1.8,3.8-.7,2-1.5,4.6-2,6.7-.2.7-.4,1.6-.5,2.2,0,.1,0,.2,0,.3.6.4,4.2-.5,5.1-.2.7-3.5,1.5-7.1,2.6-10.5.1-.4,1.2-3,1.1-3.1ZM94.8,94.8c-1.4,0-4,0-5.3.4-.2,0-.5.1-.6.3v4.9c.5,1.5.5,3.1.6,4.6s.6,3.2.4,4.8c.5.6,5.3.4,6.2.4,2.6,0,5.3-.3,7.9-.3,1.4,0,2.1,0,2.1-1.7,0-2.8-.8-6.3-1.2-9.1,0-.8-.2-3.8-.5-4.1-.2-.2-.7-.2-.9-.3-2.6-.2-6.2,0-8.8,0h0ZM118.8,95.4h-12.5c0-.1,1.3,14.8,1.3,14.8l13.2.4c0-5.2-1.1-10.2-2-15.3ZM87.6,95.4h-16.5v14.9c.2.4,3.3.3,3.9.3.4,0,.7-.1,1-.1,4.2,0,8.3.2,12.5-.2l-.9-14.9h0ZM62.4,95.6c-2.9.4-6.4-.3-9.3,0-.2,0-.3,0-.4.1s-.3,1.5-.3,1.8c-.2,2.4,0,4.9-.1,7.3,0,1.5-.5,3.1-.3,4.6,0,.2,0,.3.2.5.3.2,3.7.2,4.4.2,3.7.2,7.5.6,11.2.5.3,0,1.2,0,1.4-.1.3,0,.5-.2.7-.4.1-1.5,0-2.9.2-4.4.2-3.1,0-5.6-.1-8.7,0-.7.4-1.3-.4-1.4-2.1-.3-4.9.1-7.1,0h0ZM130.5,110.6c0-.7,0-1.5,0-2.2-.2-2.8-.8-6.2-1.2-9-.2-1-.4-2.1-.6-3.1l-8.8-.8,1.8,15.1h8.8,0ZM27.3,96.1h-3c0,.1-.9,14.3-.9,14.3h12.4c.2,0,.1-.9.1-1.1-.2-3.7-1.2-8.4-5.2-9.8-1.8-.6-3.7-.3-5.5-1-.5-.8,2.4-2.1,2.1-2.4ZM23.3,96.3l-9,.2c-.3.2-.4,4.2-.4,4.9-.2,2.4-.3,4.6-.4,7,0,.4-.3,1.4,0,1.6l8.5.2,1.2-13.9h0ZM6.8,109.9c0-1.7,0-3.4.1-5.1.2-2.2.5-4.7.8-6.8,0-.4.2-.8.4-1.2,0-.1-.2-.2-.3-.2-.4,0-2.9.3-3.5.4-.5,0-1,.2-1.5.4l-1.2,6.4v6.4c-.1,0,5.3-.3,5.3-.3h0ZM6.8,110.7l-5.4-.3.3,4.8c.3,1.9.8,3.8,1,5.7,0,.6,0,1.9.2,2.3,0,.1,0,.2.2.2.4.2,4,.6,4.1.4-.4-2.7-.2-5.3-.3-8,0-.9-.2-2.1-.3-3,0-.7,0-1.5.1-2.2h0ZM13.3,124.6l-.5-7.6c.3-2-.4-3.9,0-5.9l-.3-.3c-1.5-.2-3,0-4.5,0-.2,2.2-.2,4.5-.1,6.8,0,1.8.1,3.5.3,5.3,0,.4,0,.8,0,1.2l5.3.5h0ZM22,111.1h-8.6c-.4,1.6,0,3.3.1,5,0,1.1.3,8.2.8,8.6l7.9.3c0-4.6-.6-9.2-.3-13.9h0ZM144.6,111l-4.5.8c0,1.7.1,3.5,0,5.2-.2,2.3-.8,4.6-1.1,6.9l4.5-.7c.1-.1.6-2.3.6-2.7.2-1.3.5-3.1.6-4.4.1-1.7-.2-3.4-.1-5.1h0ZM36.8,112.2c.1,3.8-.2,7.7,0,11.4,0,.3.2,2.3.3,2.4h14.1c-.3-4.5-.6-8.9-.5-13.3,0-.4.3-1.2,0-1.5h-10.2c0,.1-1.3,6-1.3,6l-.4.4c-.2,0-.3,0-.4-.3-.2-.3-.6-1.8-.7-2.3-.2-.8-.3-1.8-.5-2.5,0-.2,0-.4-.3-.4h0ZM89.6,126.7l14.1-.2c.6-2.1.7-4.2,1.3-6.3.3-1,1.1-2.7,1.2-3.6.2-1.7-.2-3.5-.2-5.2-.2-.2-3.2-.1-3.7-.1-3.4,0-6.5,0-9.9.1-.9,0-1.9,0-2.8,0-.1,1.5.3,3,.4,4.6.1,2.3-.3,4.6-.4,6.9,0,1.3,0,2.6,0,3.9h0ZM69.7,126.4c0-.5.1-1,.1-1.5.2-3.4,0-7.6-.1-11,0-1.1.5-2.2-1-2.3-3.8-.4-8.3.2-12.2,0-.7,0-4-.7-4.2-.3v14.8c.2.1,1.2.3,1.5.3,4.8.2,9.9.4,14.6.1.4,0,.8-.2,1.2-.1ZM88.1,112.5s-.8-.4-.8-.4c-.8-.2-2.4,0-3.3,0-1.7,0-3.4,0-5.1,0s-4.1-.3-5.9-.1c-.6,0-1.3.3-1.9.4l.2,13.7c.1.2,1.1.4,1.4.4,2,.2,4.2-.2,6.2-.1,2.7,0,5.2.4,7.9.3,1.2,0,1.8.2,1.9-1.2.2-2.7.3-9.2-.2-11.9,0-.2-.3-.9-.4-1ZM130.6,111.9c-2.9.2-5.9.6-8.8,0v14.1l9-.8c.4-1.8.4-3.5.4-5.3,0-1.2-.1-1.4-.3-2.5-.2-1.8-.2-3.7-.3-5.5h0ZM117.2,133.1c-1.9-.6-4.2-1.9-5.7-3.2-2.2-1.9-3.5-6.9-4.4-9.7,0-.2-.4-1.9-.6-1.7,0,.3-.2.7-.2,1-.3,2.3-1,5.2-1.6,7.5-1,3.6-4.3,5.7-7.4,7.4-.2,0-.3,0-.3.3.1.2,1.7.4,2.1.5,6.3,1.7,6.9,6.3,9.4,11.5l.4.2c.7-4.2,2.1-8.6,5.4-11.4.9-.8,2-1.2,2.8-2,.1-.1.1,0,0-.3h0ZM7.5,124.8l-4.5-.6c0,0,.3,2.1.3,2.4.4,2.1,1.1,4.7,1.7,6.7.1.5.8,2.7,1.1,2.8,1,0,2,.4,2.9.6-.3-2.6-1-5.1-1.3-7.7-.2-1.4,0-2.8-.3-4.3h0ZM13.4,125.3l-5.3-.5c-.1,1.4,1.3,11.9,1.9,12.2l5.7,1.2c-1.2-4.2-1.8-8.6-2.3-12.9ZM22.5,126.1l-8.2-.8c.9,4.3,1.3,8.7,2.4,13h.2c0,.1,8.4,1.3,8.4,1.3l-1.5-7.4c-.8-1.9-1.2-4-1.2-6.1h0ZM137.8,125.7l-5.9,1.1c-.1,4-1.2,7.9-2.2,11.7.8,0,5.9-.8,6.1-1.2l2.1-11.6h0ZM37.5,140.8c-.4-3.5-.9-7.1-1.1-10.6l-.6-3.6-12.2-.5c-.1.1-.1.2-.1.4,0,1.3.5,2.9.6,4.2l2.3,9.1c.1.1.3.2.5.2,2.4.4,4.9.4,7.4.5,1.1,0,2.1.4,3.2.3h0ZM38.1,126.7c-1.2.2-1.1,1-1,2,.1,3,.7,7.2,1.2,10.3,0,.4.3,1.3.6,1.5,3.7.4,7.4,1.1,11.2.9l1.9-.5c.2-.2.2-2.9.1-3.4,0-1.2-.4-2.5-.5-3.7-.1-1.5,0-3,0-4.5,0-.2-.3-2.1-.4-2.1-.5-.6-4.8-.4-5.8-.4-2.1,0-5.3-.4-7.4-.1h0ZM70.1,127.5h-17.7c0,1.3,0,2.7,0,4.2,0,1,.3,2.1.4,3,.2,2,.2,4.1.4,6.1l16.7.6c.5-.4.3-2.1.3-2.7.2-3.1.2-6.4,0-9.5,0-.5-.2-1.1-.1-1.7h0ZM103.5,127.6l-13.7.2c-.2.2,0,3.5-.1,4.1,0,2.4,0,4.2.1,6.6,0,1.1,0,2.1-.1,3.2.4.2.9.2,1.4.1,3.4-.1,7-.6,10.4-.9,1.1,0,2.2-.1,3.4-.1.2-.2-1-2-1.2-2.2-.8-.9-2.8-2-4-2.4s-4.1-.3-3.6-2c.2-.6,2.7-1.8,3.4-2.3,1.6-1.1,3.3-2.6,4.1-4.3h0ZM120.4,127.6l-9.4.3c.7,1.2,1.9,2,3.1,2.6.8.4,2,.9,2.8,1.2.8.3,1.8,0,2.1,1.1,0,.9-2.2,1.9-2.9,2.3-1.8,1.2-3.3,3.1-4.4,4.9,0,.2-.2.3-.1.5l6.8-.8,2-12.2h0ZM11.6,148.1c-.9-3.4-2-6.8-2.3-10.3l-3.1-1.1,2.2,6,3.2,5.3ZM139.6,137.3l-2.9.8-2.3,9.5c2.2-3.1,3.8-6.7,5.1-10.3h0ZM19.8,151c-1.7-3.8-2.5-7.8-3.8-11.7l-5.7-1.2c.9,4.2,2.8,8.2,4.6,12.1l4.9.9h0ZM135.5,138.3l-6.3,1.3-4,11.5c2.1-.4,4.2-.8,6.1-1.6.6-1.3.9-2.8,1.4-4.1.3-.8,3-6.8,2.7-7.1h0ZM29.8,152.4c-2-3.7-2.7-7.9-4.1-11.8l-8.6-1.1c.9,4,2.1,7.9,3.8,11.6l8.9,1.3h0ZM128.3,139.6l-8.9,1.2c-1,4.2-3,8.1-4.2,12.2,3-.5,5.9-.7,8.8-1.6,1.8-3.8,3.2-7.8,4.4-11.9ZM118,141l-6.8.7c-.1.6-.5,1.2-.7,1.8-.6,2.3-.8,4.9-1.2,7.2-.1.8-.6.6-.7,0-.2-.8-.2-1.6-.5-2.4-.5-1.8-1.4-3.6-2.3-5.2l-2.1,11.5h4c0-.1,6.3-1.3,6.3-1.3l3.9-12.1h0ZM54,155.1c-.8-4-1.3-8-1.5-12.1l-.2-.4-13.3-.8,2.4,12.2,4.7.7,7.8.3h0ZM104.8,142.1c-1.6,0-3.2.5-4.8.7-2.3.2-4.7.2-7,.3-1.2,0-2.3,0-3.5,0-.2,4.2-1.1,8.3-.9,12.5l14.2-1.1,2-12.4h0ZM70.2,143l-16.8-.4v.3c.5,4.1.7,8.3,1.7,12.3l15.3.4-.3-12.7ZM88.5,143.1c-.9-.5-1.7-.1-2.6-.1-3.9,0-7.8.2-11.6.3-.9,0-1.8,0-2.7,0-.4.3-.2,5.5-.5,6.3l.2,6.1c0,0,1.3.2,1.5.3,3.3,0,7.1-.4,10.4-.5,1.4,0,2.9,0,4.3,0l1-12.3h0ZM35.2,164.5c-2-3.4-3.1-7.2-4.9-10.8l-9-1.4c1.4,3.8,4,7.2,6.1,10.7l7.7,1.4h0ZM123.3,153c-2.9.7-5.8,1.1-8.8,1.5-.2.9-.8,1.7-1.2,2.6-.2.4-.2.9-.4,1.4-.8,1.7-2,3.5-2.7,5.2,0,.2-.1.3,0,.5,1.7-.3,3.5-.5,5.2-1.1,0,0,0-.2.3-.3.9-.3,2.1-.2,3-.6,0,0,4.7-9.2,4.7-9.2ZM54.2,156.3c-2.5-.7-5-.4-7.6-.6-1.6-.1-3.2-.4-4.8-.5.7,3.9,2.4,7.6,4.2,11.1l10.8.7-2.7-10.8h0ZM102.4,155.8l-13.9.8-1.3,10c2.2,0,4.4-.6,6.7-.7,1.7,0,3.4.2,5.1-.2,1.3-3.2,2.7-6.6,3.4-10h0ZM87.5,156.5l-16,.5.5,10.4,14-.7c.3-1.8.7-3.5,1-5.3,0-.4.3-.9.3-1.2.1-1.1,0-2.5.1-3.6h0ZM30.2,168.3l-3.2-4-3.4-1.1c.2.6.8.9,1.2,1.2,1.4,1.1,3,2.4,4.4,3.4.1.1.9.6,1,.6h0ZM117.8,163.5l-8.6,1.8-3.8,7.6c2-.4,3.8-1,5.7-1.8,1.7-.7,1.1-.5,2.3-1.6.6-.5,1.3-.8,1.8-1.4,1-1.2,1.7-3.2,2.6-4.6h0ZM41.7,174.5c.2-.2-.6-1.1-.8-1.3-1.6-2.4-3-4.9-4.8-7.2l-7.5-1.4c.9,1.4,2.1,2.5,3.2,3.8.5.6,1.1,1.8,1.6,2.2.5.5,2.2,1.6,2.9,1.9,1.7.9,3.5,1.8,5.4,1.9h0ZM50.4,175.6l-4.8-8.1-8-1.3,2.1,3.3,3.8,5.1,6.9.9h0ZM98.6,166.6l-11.5,1.3-1.8,7.5,10.6-1.3,2.8-7.6h0ZM57.4,168.4l-10.5-.9c0,.2,0,.3,0,.5.5,1.1,1.9,3.3,2.6,4.4.3.5,2.3,3.3,2.5,3.4.2,0,.8.1,1,.2.5,0,1.3.1,1.8.1,1.7,0,3.5-.1,5.2-.1l-2.8-7.5h0ZM85.9,168l-13.7.2c-.1,0-.1.3-.1.4-.2,1.2,0,3.9,0,5.2,0,.5.2,1,.3,1.5,3.9.6,7.8,0,11.7.1.8-2.4,1.5-4.8,1.9-7.4h0ZM71.4,175.3l-.5-6.9-12.4.3,2.9,7.3,10-.6h0ZM109,173.2l-4.7,1.3-1.2,1.7c0,0,.9-.3,1-.4,1.2-.6,3.2-1.4,4.2-2.1.2-.1.5-.3.6-.6ZM51.2,176.5l-1.1-.3-5.7-.7c.4.4.8,1.4,1.3,1.7,1,.7,6.6,2.7,7.8,2.9.1,0,.4,0,.5,0l-2.7-3.6h0ZM93.9,179.2l1.4-3.1c0-.1,0-.2-.2-.2-.8-.2-3.1.5-4.1.6-2.1.3-4.2.4-6.3.4-.2.5-1.5,4.3-1.3,4.5,3.6-.2,7-1,10.4-2.1ZM55.4,180.7c0,.1,2.1.5,2.5.5,1.3.2,3.4.6,4.6.7.2,0,.3,0,.4-.2l-2.1-4.6-.3-.2-8-.3,2.9,4.1h0ZM71.4,177.1c-1.2,0-2.5,0-3.8,0-1.8,0-3.7-.6-5.5-.3-.2,0-.2,0-.2.2,0,.4,1,2.5,1.3,3.1.3.6.6,1.2.9,1.8,1.1,0,7.3,1,7.7.5l-.5-5.3h0Z"/>
    </g>
  </g>
</svg>