<?xml version="1.0" encoding="UTF-8"?>
<svg id="Layer_2" xmlns="http://www.w3.org/2000/svg" xmlns:xlink="http://www.w3.org/1999/xlink" version="1.1" viewBox="0 0 365.9 421">
  <!-- Generator: Adobe Illustrator 29.6.1, SVG Export Plug-In . SVG Version: 2.1.1 Build 9)  -->
  <defs>
    <style>
      .st0 {
        fill: none;
      }

      .st1 {
        fill: #01e486;
      }

      .st2 {
        fill: #fff;
      }

      .st3 {
        clip-path: url(#clippath);
      }
    </style>
    <clipPath id="clippath">
      <rect class="st0" width="365.9" height="421"/>
    </clipPath>
  </defs>
  <g id="Layer_1-2">
    <g class="st3">
      <g id="Group_9267-2">
        <path id="Path_7545" class="st2" d="M53.2,272.5l4.9-26.2-5.8,2.3-12.9,3.4-11.2.3-16.4-7.5-8.3-19.6-.9-19.8,7.2-23.6,6.6-26.5,3.5-26.2,4-30.5,5.2-15.8,7.8-15.2,11.5-12.1,6-6.3,9.8-17.2,11.8-11.2,13.8-8.1,9.2-2.6,15-2.6,14.7.3,8.9-1.4,12.9-2.9,7.2-1.4,13.2,1.4,10.9,4,9.8,6,10.1,13.8,9.5,15.5,10.1,10.3,5.2,13.2,10.1,32.5,3.4,10.3,4.9,12.4,2.3,12.9v5.8l9.8,7.8,10.6,10.4,8.6,9.5,10.6,22.7,7.5,18.1,17,8.6,15,8.3,17.3,13.8,6.8,6,6.7,7.1,3.2,5.2-2.4,1.6,4.3,7,1.8,7.4-.3,3.2-3.8-1.9.2,10.6-1.8,11.4-2.9-2.5-2.6,6.2-4.8,8.8-3.2,4.8h-4.5l-8.3,4-5.2,1.5,1.9-5.7,1.5-3.5.7-4.1-1.7-4.5-1.1-3.8-1.2-2.6-2.2-3.3-1.6-2.7-2.6-2.6-3.8,4.5-3.1,7.2-4.2,5.6-4.2,4.7s11.4,17.4,11.5,17.8,5.6,8,6.2,8.5,8.1,12.3,8.3,12.6,4.3,9.8,4.3,9.8l2.6,5.5,1.1,6.6-.9,4.8-2.9,4.6-6.7,4.3-7.1,5.1-10,3.1-10.5,2.7-7,2.4-9.6.6-9.7.3-9.8-2.7-7.9-7.5-5.5-12.5-1.6-6.2-3.3-8.1-5-5.9-5.8-6.7-6.5-10.3-8.2-6.6-3.5-2.7-5.7-4.1-4.3-4.3-5.2-3.2-4.7-3.5-5.2-3.6-5.7-2.2-5.4-1.8-5.6-.5-8.9,1.9-5,3.3-2.3,6.5,4.8,4.7,1.5,7v15c-.1,0,.1,16.1.1,16.1v12.5c-.1,0-2.4,8.2-2.4,8.2l-4.4,3.4-8,.5-15.2-6.3-8.4-3.6,2.2,18-2.2,9.4-6.9,9.4-4.8,3.8-8.4,2.3-28.8,2.6-24-3.5-14.6-3.5-7.6-8.4-3.6-9.5-2.5-10.5,1.8-11.1,5.8-20.5,3.1-10.3-28.6-12.9-3.5-8.8,3.3-11.2,16.6-40.6,4.9-1.4,21.7,7.4,1.9-2.6h0Z"/>
        <path id="Path_7546" d="M175.7,21.7c1,.9-.4,5-1,6.1-.3.6,0,1-1,.8.3-1.9.2-4.8,1.1-6.4.2-.4.3-1.1.9-.5"/>
        <path id="Path_7547" d="M340.7,290l1-19.5c.6.7,1,1.7,1,2.6.4,5,0,10-1,14.9-.2.7-.2,1.8-1,2"/>
        <path id="Path_7548" d="M348,277c-.5.7-.7,0-.8-.6-.7-5.2-.5-10.7-2.4-15.6,1.4-1.5,3,5.9,3.1,6.4.4,3.3.5,6.6.1,9.9"/>
        <path id="Path_7549" d="M363.1,261.5c-.5.5-2.4-1-2,.2,1,3,2.4,5.9,3.1,9.1.8,3.4,1.3,6.8,1.7,10.2-1,1-3-3.5-4.5-3.2.4,1.7.6,3.4.4,5.1,0,2.1-2.3,17-3.3,17.6-1.4.9-1.8-2.1-2.8-2.4-1.2,3.4-2.7,6.7-4.6,9.9-1.3,2.2-5.3,8.1-7,9.6-.5.4-1,.7-1.6.8-.8-.5-.5-1-.3-1.8l-.9-.6c-4.4,2.3-11.1,5.9-16,6-.5,0-1.1,0-1.3-.5-.1-.5,3.5-7.1,3.9-8.7,1.3-5.6.3-10.4-2.1-15.5-.4-.9-3.7-6.8-4.1-6.9-.6-.2-1.5,1.7-1.8,2.2-4,5.8-7.2,11.9-12.5,16.7-.2,1,3.1,4,3.8,5,1,1.5,1.8,3.6,2.9,5.2,9,13.5,18.6,23.8,23.9,39.5,4.8,14.2,1.9,18.8-9.9,26.7-.9.6-8.1,5.1-8.6,4.6-.2-1.1.5-1.6,1.2-2.2,7-6.9,19.6-10.4,16.1-23-4-14.4-15.7-29.7-24.3-42-10.9-15.6-22.6-25.4-34.7-39.3-3.3-3.8-5.6-8.4-8.9-12.2-3.7-4.2-9.6-10.1-13.8-14.1-6.8-6.6-14.1-12.6-21.1-18.9-1.5-.6-4.4,1.8-6,2.3-7.5,2.5-10.6-2.9-13.2-8.7-4.7-10.7-7.4-22.1-7.9-33.7-.8-.2-.8.3-1.1.7-4.2,4.7-7.2,7.4-14.1,6.6-1.8-.2-3.3-1.2-5-1.5-11.1-1.9-25-1.3-34-8.7-1.2-.9-3-3.5-4.2-3.9-1.1-.4-2.9-.4-4.2-.7-9.7-2.4-19.3-5.2-28.4-9.2l30.5,6.9-4.9-8.7c-6.8-3.8-13.9-6.8-20.6-10.7-4.1-2.5-9.2-4.9-10.2-10.1-.4-2.2-.2-3.8,1.8-4.9,3.2-1.9,6.4-.1,9.7,0,18,.3,25-9.6,33.3-23.6,3.8-6.4,6.8-13.3,10.8-19.7l2.3.3c2.7,3.5,5,7.7,7.9,11,2.8,3.3,6.2,6.6,9.1,10,4.6,5.4,8.2,8.4,15.9,8.9,3.8.2,8.9.5,11.1-3.2,3.9-6.6,2.8-20.3,1.7-27.9-2.8-18.7-6-29.7-20.9-42.1-18.6-15.5-36.8-19.1-58.6-6.6-4.8,2.8-5.8,4.6-9.5,8-1.7,1.6-4,2.8-5.5,4.7-.5,0-.5-.5-.3-1.1.9-2.2,5.1-6.4,7-8.1,11.3-10,30.7-16.7,45.5-12.6,8.9,2.5,21.4,12.3,27.9,18.9l5.1,6.1c0-4.9-1.4-9.9-1.6-14.8,0-.8-.4-2.2.8-1.8,1.3,4.2,3,7.8,3.9,12.2.8,3.8.8,8.3,1.9,11.9.7,2.2,2.2,4.4,3,6.7,2.5,6.8,4.2,20.1,4.6,27.5.2,3.5.5,14.8-.2,17.7-1.2,4.6-6.4,8.4-9.9,11.2,5,5.6,8.4,13.4,7.7,21-.9,9.3-3.6,18.8-6.3,27.7,2.8,12.8,3.7,27.6,11.7,38.6,2.5,3.5,7.9,3.9,11.3,1.3,7.8-6.1,9.9-18.7,11.3-28.1,2.3-16-.7-32.2,0-48.3.6-14.2,4.3-24.6-.4-39-1.5-4.6-4.1-8.6-5.7-13-3.1-8.1-4.9-17.4-7.6-25.7-2.4-7.6-6.4-20.5-10.3-27.1-2.9-4.9-8.6-9.8-12.1-14.8-3.8-5.4-6.6-11.7-10.6-17-11.3-14.8-22.9-20.3-41.7-18.9-6.8.5-13.3,3.7-20.4,4.4-22.5,2.3-42.4.4-60.5,16.7-9.7,8.7-13.5,19.5-21.2,28.8-3.1,3.8-7.2,6.9-10.3,10.8-10.5,13.3-15.3,25.8-17.1,42.7-1,9.2-2.5,16.7-4,25.7-2.8,16.9-4.1,30.9-8.8,47.7-4.3,15.4-11.9,30-5.8,46,8.1,21.1,23.6,29.3,44.9,19.1,13.8-6.6,26.4-18.8,28.9-34.5,1-6.2,1.5-15.4,2.1-21.9,2.4-29.7-7.8-57.3-13.3-85.9-3.6-18.9-3.6-28.2,4-46.1.3-1,.9-2,1.7-2.7.5,4.4-1.4,8.7-2.1,12.9-2.4,15-3,25-.4,40,2.6,15,7.7,29.4,10.9,44.2l2.2-3.7,2.7-8.5c.5.1.7,2.2.7,2.6,0,6.6-3.4,11.8-4,17.1-1.1,9.9.4,22.3,0,32.5-.2,5.7-.6,13.1-1.2,18.7-1.2,10.3-8.3,21.2-15.4,28.5-1.5,1.5-7.1,5.9-7.7,7-.7,1.7-1.2,3.5-1.5,5.4-1.2,5.3-1.7,10.9-3,16.3-1.3,0-2.9-.2-2.9-1.8.5-2,.2-4.1.5-6.1.2-1.4.9-2.8,1.1-4.1.4-2.4,0-5,.8-7.5-6.2,2.6-11.6,5.2-18.5,5.7-15.6,1-26.7-4.6-32.9-19.1-12.1-28.3,4.1-47.4,9-74.3,1.1-5.7,1.4-11.5,2.2-17.3,2-15,3.8-30.1,5.7-45.1,1.6-12.8,10.8-28.3,19.2-38.1,2.6-3,6.6-5.6,8.9-8.6,2.9-3.7,4.8-8.9,7.4-12.9,9.8-15.6,25.8-28.7,44.4-31.6,8-1.3,16.8-1.1,25-2.2,24-3.2,42-12.6,63.4,4.9,10.1,8.2,12.7,16.6,20,26.4,4.8,6.5,10.9,11.7,14.6,19.2,2.8,5.8,3.7,12.3,5.6,18.3,6.8,21.4,18.2,41.8,19.6,64.5,9.2,9.3,20.3,18.3,27.6,29.3,7.8,11.7,11.4,25.2,17.5,37.8,15.1,9.9,31,17,45.1,28.5,7.8,6.4,16.2,14.9,21.7,23.4.7,1.2,1.8,2.3,1.7,3.8M184.6,185.1c-1.3-13.1-5.5-25.9-12.1-37.3-1-1.8-4.8-8.5-6-9.5-.6-.5-.8-.4-1.5-.3-7.3.8-16.3,7.8-20.6,13.6-1.2,1.6-4.9,7.3-5,8.9-.2,5.4,3.4,16.1,5.8,21.1,8.9,19.1,19.1,17.7,37.9,20.6,5.6.9,9.3,3.1,15.1.8,9.7-3.9,12.7-20.2,14-29.5.5-2.8.6-5.6.5-8.5-.9-8.8-16-22.2-23.9-25.3-6.7-2.8-14.1-3.6-21.2-2.5l7.8,11.9c5.3,9.5,11.5,24.5,10.1,35.4,0,.6-.3,1.2-.8.6M251.2,145.8c-.8-.8-2.2-1.7-3.1-2.6.2,3-1.2,5.9-1.6,8.8-2.6,17.4.3,35.4,1.2,52.8.4,6.8-2.9,18.8-6,24.9-1.4,2.7-3.2,5.1-5.4,7.2v.6c1.8,1.1,3.5,2.3,5.1,3.7,9.1,8,17.3,14,25.4,23.4,3.9,4.5,7.4,9.4,11.2,14l2.2-29.7c1.9,10.8,0,21.8.5,32.6,7.1,8.5,14.9,16.2,22.5,24.3l1,.4c3.4-5.8,8.2-10.6,12.1-16.1,1.5-2.1,4.9-6.5,5.5-8.7,3.1-11.7-8.9-28.4-14.4-38.3-10.6-19.1-16.6-39.8-25.3-59.6-6.9-15.8-18.9-25.9-30.8-37.7M357,255.8l-3.9-5.3c-6.4-6.9-13.9-12.4-21.2-18.2l-36.3-21.6c-.7.8,7.1,17.5,8.2,19.6,6.1,12.7,23.3,38.5,21.4,52-.2,1.2-1.5,3.5-1.5,3.7,0,.3,2.8,3.5,3.3,4.5,3.5,6.1,4.5,13,4.8,20,.1,1.7,0,3.4-.4,5.1,6-1,10.4-4.5,15.6-7.3,1.2-1.2,6.5-12.4,6.9-14.3.2-1.1,0-4.6.9-4.8l1.2.8,1.5,4,.4-21.1,4.9,1.4c-1.2-6.6-5.7-12-7.7-18.3-.4-1.3,1.7.1,2-.2"/>
        <path id="Path_7550" d="M50.4,272.4c.6-.3.2-1.3,2.6-1s19.7,6.1,21.1,7.4c.8.8,1,2.1,1.9,2.6,2.6,1.6,9.1,3.6,12.3,4.7,23.3,8.5,48.1,16.7,70.6,27.4,8.1,3.8,9.5,8,9.5,17,0,11-.5,22.3-.9,33.3-.2,5.9.6,16-3.8,20.6-1.4,1.5-3.3,2.3-5.4,2.4-7.6.8-15.6-3.8-22.7-6.5-23.8-8.9-47.6-18.1-71.5-26.4-1.2-.4-8.6-3-9.1-2.8-.2.1-.2.9-.7,1.1-1.4.5-5.9-2-7.5-2.6-2.6-1-6.2-.5-5.7-4.2-.9,0-1.9-.9-2.6-.9-.5,0-.9.6-1.4.6-3-.2-8.7-3.8-12.2-3.9-1.1-.8-.8-2.4-1.8-3.2-2.1-1.9-9.9-3.6-13.1-5.6-5-3.2-7-9-6.5-14.8,4.9-13.7,7.7-29.5,13.9-42.6,7.4-15.5,20.2-5.3,31.8-2.5.4.2.8.2,1.2,0M24.8,284c.5,1.3-1,5.5-1.5,7-1.4,4.2-4.7,14.2-6.8,17.5-2.7,4.1-5.3.4-6.7,3.9-.5,1.2-2.4,8.9-2.3,9.8.6,1.7,1.5,3.4,2.5,4.8,1.6,2,8.3,5,10.9,6.2,19.7,8.8,40.7,15.6,61,22.8,18.6,6.6,36.8,14.5,55.5,21,4.3,1.5,12.3,4.6,16.4,5.2,4.7.7,6.5.6,7.9-4,3.1-10,3.5-25,3.1-35.5-.2-5.1-.4-12.8-1.3-17.8-.6-3.2-1.1-4.5-3.8-6.3-4.4-2.9-13.3-6.2-18.4-8.4-31.9-13.3-65-24.2-97.7-35.2-3.1-1-11.1-4.1-13.8-4.2-6.1-.2-5.9,5-8,9.3,0,.8,1.1.8,1.7,1.6.4.6.6,1.2.8,1.9.1.3.6.3.6.4"/>
        <path id="Path_7551" d="M168,103c-.8.2-1-.3-1.3-.9-.5-.9-1.6-5.6-2-5.9-1.1-.1-2.3-.4-3.3-.9-9.2-4.1-32.4-16.5-19.4-28.6,9.7-9,24.4-12.4,36.5-6,3.6,1.9,7.9,7.4,7.4,11.6-.8,6.7-11.5,19.1-17.2,23,.6,2.7-.2,5.1-.6,7.8M150.1,73.3c1,0,2,0,3,0,4.8-.6,9.5-1.4,14.1-2.5,2-.4,4-1.2,5.6-2.5,0-.7-3.6-1-4.2-1-3.2,0-6.4.3-9.6,1-2.8,1-5.6,2.2-8.3,3.5-.7.5-.8.7-.7,1.6"/>
        <path id="Path_7552" d="M98.8,44.1c3.2.3,6.4,1,9.4,2.1,3.7,1.6,7.8,6.6,8.1,10.6.3,4.7-10.8,12-14.8,13.6-3.1,1.3-14.2,3.5-16.9,2.2-1.3-.6-.7-2.8-.8-4-2.1-12.4,0-24.2,15-24.5M99.2,50.2c-.9.5-1.8,1.2-2.5,2-2.2,3.4,1.9,7.5,5.4,5.4,4.2-2.4,1.4-8.7-2.9-7.4"/>
        <path id="Path_7553" d="M234.1,347.4c-8.3-10.7-18.2-19.5-29.1-27.5-9.3-6.9-20.8-15.2-33-11.9-3.8,1-7.6,4-11.3,2.7.8-3.6,6.3-5.1,9.6-5.6,15.5-2.4,22.7,2.7,34.7,11.2,18.4,13.1,39.6,31.6,47.3,53.5,2.2,6.2,3.7,12.6,8,18,3.6,4.5,9.6,5.9,14.5,8.7,7.2,4,2.4,3.3-2.3,2.3-6.2-1.4-9.5-2-13.8-6.9-7-8.1-7.9-16.7-12.4-25.8-3.4-6.6-7.5-12.8-12.2-18.5"/>
        <path id="Path_7554" d="M188.2,31.1c3.8-.4,8.4,2.5,10.9,5.2,4.7,4.8,6.1,11.9,3.5,18.1-7.2,1.5-14.7.6-21.4-2.6-2.4-1.1-4.1-2.8-6.4-3.7-.2-7.2,5.9-16.3,13.6-17M189.8,39.2c-2.7,1.4-1.5,6.4,1.2,6.7,5.6.7,4-7.4-1.2-6.7"/>
        <path id="Path_7555" d="M61.1,417.6c-4.5.2-8.8-1.2-13.2-1.5-.9,0-1.9.5-3.2.3-3.8-.4-10.3-5-12.7-8.1-2.1-2.8-7.1-18.8-7.1-22.1,0-4,2-15.2,3-19.4,1.2-4.8,2.7-9.6,4.4-14.3,1-2.3,2.9-4.6,3.9-1-2.7,10.3-6.8,19.7-7.3,30.5-.5,9.5.7,16.2,6.9,23.6,6.6,7.9,12.4,7,21.2,10.1,1.2.4,3.2.9,4,1.9"/>
        <path id="Path_7556" d="M123.7,411.1l1.4-4.1c-3,3.5-6.1,7.1-10.2,9.4-.3,0-.3-.3-.2-.6.4-1.4,5.4-5.7,6.8-7.8,1.9-2.9,5.4-10,5.8-13.3.4-4.1-1.8-8.3-.3-12.3,3.1-.9,4,2.3,4.3,4.7.7,6.4-.4,12.8-3.2,18.5-.3.6-3.4,6.6-4.4,5.5"/>
        <path id="Path_7557" d="M94,183.5c-1-.6-1.2-2.5-1.4-3.6-1.2-5.4-2.5-13.9-1.8-19.3.8-6.4,4.5-10.8,7.9-16.1,1.2,0-.1,4.3-.3,5-1.3,4.1-4.7,8.7-5.1,12.8-.8,7,1,14.3.8,21.3"/>
        <path id="Path_7558" d="M71.2,190.4c-1.1-1-1.4-3.7-1.6-5.1-1.1-7.5-1-15.4-2.1-22.9.8.6,1.1,2.4,1.3,3.3,1.8,7.8,2.1,16.7,2.3,24.7"/>
        <path id="Path_7559" d="M165.5,285.1c-5.9-4.1-8.6-13.4-9.3-20.3l9.3,20.3Z"/>
        <path id="Path_7560" d="M109.4,396.9l-9.8-20.7c5.4,5,10,13.1,9.8,20.7"/>
        <path id="Path_7561" d="M27.4,235.1l12.2-21.5c-.3,3.7-2.3,7.6-4,10.8-2,4.1-4.8,7.7-8.2,10.7"/>
        <path id="Path_7562" d="M89.8,37.9c-.1.2-3,2.1-3.8,2.9-1.2,1.2-2.8,3-3.8,4.3-.9,1.1-2.2,3.6-3.1,4.3-.6.5-.7.7-1.2,0-.9-1.3,2.6-5.6,3.5-6.7,2.2-2.6,4.9-5,8.3-5.9.4,0,.2.9.1,1.1"/>
        <path id="Path_7563" d="M197.2,269.2c.2,1.2-.2.7-.9.9-5.6,1.5-14.2-1.8-18.4-5.7-.4-.4-1.1-.4-.9-1.3,6.5,3.1,12.9,6,20.3,6.1"/>
        <path id="Path_7564" d="M137.9,208.7c-.9.9-15.6-9.5-17-10.8-.4-.4-1-.6-.8-1.4.8-.7,10.6,6,11.9,7,1.8,1.2,3.5,2.4,5.1,3.8.4.4,1,.6.9,1.4"/>
        <path id="Path_7565" d="M65.6,198.5c-.6.1-.5-.8-.6-1.2-1.1-4.9-.3-9.6-.6-14.4-.2-2.9-1-5.8-1.2-8.7,1.2.5,1.5,2.1,1.8,3.2,1.8,6.7.8,14.3.6,21.1"/>
        <path id="Path_7566" d="M144,206.6c-.7.7-12-6.6-13.4-7.6-.7-.5-4.1-2.8-3.3-3.8,4.6,2.3,9.1,5,13.3,8,.5.4,4,2.7,3.4,3.3"/>
        <path id="Path_7567" d="M324.1,365.6l-13.8-17.1c1-.9,6.9,5.8,7.7,6.7,2.4,3,5,6.7,6.1,10.4"/>
        <path id="Path_7568" d="M50.1,403.4c-2.7-.2-4.3-2.6-5.8-4.6-1-1.5-6.2-10.4-5.2-11.7.8-.2.9.4,1.3.9,1.7,2.5,2.9,6,4.6,8.8,1.5,2.3,3.2,4.5,5,6.5"/>
        <path id="Path_7569" d="M33.8,234.3l11-19.1c-1.8,5.9-4.5,11.4-8.2,16.4-.3.4-2.2,3.3-2.8,2.7"/>
        <path id="Path_7570" d="M229.8,223.3c-1,.2-.9-.2-.8-1,.4-6.6,1.8-12.8,2-19.9,0-.5-.3-1.5.4-1.4,1.9,7.3.4,15.2-1.6,22.4"/>
        <path id="Path_7571" d="M228.9,107.1l6.9,20.7c-.9.2-1.2-.9-1.5-1.5-2.9-5.6-3.8-13.1-6.2-19,0,0,.8-.2.8-.2Z"/>
        <path id="Path_7572" d="M187.9,276.1c-1.5,1.9-6-.7-7.9-1.7-3.1-1.8-7-4.7-8.4-8,5.1,3.8,10.1,7.8,16.2,9.8"/>
        <path id="Path_7573" d="M176.9,283c-2.9-.5-6-3.9-7.9-6.1-2-2.4-4.4-5.5-5.1-8.5l13,14.6Z"/>
        <path id="Path_7574" d="M161.1,27.8c.8-.2,1,.4,1.3.9.6,1,4.8,10.5,4.8,11.1.1.5-.1,1.1-.6,1.4-1.4.4-3.2-4.2-3.6-5.3-1-2.6-1.6-5.3-1.8-8.1"/>
        <path id="Path_7575" d="M269.2,287.1c-2.5,0-5-1.3-7.3-2.2-2.7-1.1-5.6-2.3-8.3-3.5-1.1-.5-2.7-1.1-3.5-2,6.5,1.3,13.8,3.7,19.1,7.7"/>
        <path id="Path_7576" d="M318,350.1c-.8.2-1-.4-1.4-.8-2.8-2.3-6.5-5.4-9.1-7.9-.6-.6-1.6-1.3-1.6-2.2.9-.8,7.9,4.9,9,5.9,1.4,1.3,3.4,3,3.2,5.1"/>
        <path id="Path_7577" d="M108.6,119.2c-.7,0-.9.2-.8-.6.7-5.8,2.4-12.9,5.1-18.1.2-.5.4-1.1,1-1.2,0,0-5.3,19.9-5.3,19.9Z"/>
        <path id="Path_7578" d="M274.9,293.6c-6.1-.7-12.2-3.9-17.9-6.3.3-.8,2-.2,2.5,0,2,.5,3.9,1.2,5.8,1.9,3.1,1.1,7,2.4,9.5,4.5"/>
        <path id="Path_7579" d="M202.9,121.7c-.6,0-.7-1.5-.8-1.9-.6-5.2-.7-10.6-.5-15.8,0-.7,0-1.3.6-1.8,1.7,6.3,1,13.1.6,19.5"/>
        <path id="Path_7580" d="M146,203c-.6.5-4.1-1.9-4.8-2.3-3.1-2-6.1-4.3-8.6-7,2,0,4,1.6,5.6,2.7,2.1,1.3,4.2,2.8,6.1,4.4.3.3,2.1,1.8,1.6,2.2"/>
        <path id="Path_7581" d="M118.8,408.6c1.1,1-6.2,6.2-6.9,6.7-1.8,1.2-3.9,2.5-6.1,2.7,3.1-2.7,6.3-5.3,9.6-7.6.6-.4,2.9-2.2,3.4-1.7"/>
        <path id="Path_7582" d="M87.9,257c-.2,4.3.5,9.7-1,13.8-.2.5-.4,1.1-1,1.2-.4-2.9-.4-5.8,0-8.7.2-2,.6-3.9,1.1-5.9.2-.5.5-1,.9-.5"/>
        <path id="Path_7583" d="M149.7,264.4l.2,15.9c-.7,0-1.8-6.2-1.8-7.1,0-.7-.4-10.4,1.6-8.8"/>
        <path id="Path_7584" d="M114.7,398.1l-4.1-16.2c2.7.9,3.4,4.8,3.9,7.3.7,2.9.8,6,.2,9"/>
        <path id="Path_7585" d="M267.6,302.5v-1.2c.7-.7,12.6,3.9,14.2,5.1-.8,1.1-2.3.4-3.3,0-3.6-.9-7.2-2.9-10.9-4"/>
        <path id="Path_7586" d="M168.8,23.3c1.8,1.6.9,4.5.8,6.3,0,2.3.5,5.2-1,7.1-.6,0-1.1-4.4-1.1-5.1,0-1.3.3-4.3.5-5.7.1-.9.7-1.7.8-2.7"/>
        <path id="Path_7587" d="M117.6,29.4c2.4,2.7,4.4,8.5,4.5,12,0,2-1.2,2.6-1.8.5,0,0-2.7-12.5-2.7-12.5Z"/>
        <path id="Path_7588" d="M120.8,144.4c-2.9.4-8.7-10.3-7.7-11.4,1.9.4,2.5,3.2,3.5,4.8,1.1,1.7,2.6,3.3,3.6,4.9.3.5.8.8.6,1.6"/>
        <path id="Path_7589" d="M223.2,223.3c-1-.5-1.2-2.2-1.5-3.2-1.3-4.2-2-8.8-3-13.1.9-.9,1.8,2.9,1.9,3.2,1.4,4.2,2.2,8.6,2.6,13.1"/>
        <path id="Path_7590" d="M230.6,131.8c-3.6-3.6-5.1-10.1-6.1-15l2.2,4.1,3.9,11Z"/>
        <path id="Path_7591" d="M99.7,418.4c.7-1.3,7.7-7.3,8.3-7.2l.8.7c.5,1.2-7.2,7.5-9.2,6.5"/>
        <path id="Path_7592" d="M279.8,300.5c.1,1-.1.9-1,.8-2.9-.2-10.2-3.5-12.9-5-.4-.3-1.1-.4-1.2-1l15,5.3Z"/>
        <path id="Path_7593" d="M322,383c.1.8,0,1.1-.6,1.6-2.2,2-4.5,3.9-7,5.6-1.1,1-2.4,1.7-3.8,2.1.9-1.5,10.2-10.5,11.4-9.3"/>
        <path id="Path_7594" d="M54.2,400.9c-.7.6-4.9-3.8-5.5-4.5-1.6-2.1-3.4-5-3.5-7.7l8.9,12.2h0Z"/>
        <path id="Path_7595" d="M226.9,225.3c-.6,0-.7-1.4-.8-1.9-.6-5.6-.6-11.3-1.7-16.8.6.4.9,2,1.1,2.8,1.4,4.9,2.2,10.9,1.3,15.9"/>
        <path id="Path_7596" d="M94.8,275.3c-2.9-3.5-1.2-9.5-1.2-13.8.6,0,.7,1,.8,1.5.7,4.1.8,8.2.4,12.4"/>
        <path id="Path_7597" d="M141.2,275.3l.7-3.6,4.6-11.9c0,5.3-2.3,11.2-5.3,15.4"/>
        <path id="Path_7598" d="M110.3,36.7c-1,.9-8.3-4.8-9.3-5.9-.4-.4-.9-.7-.8-1.4.6-.5,7.6,4.4,8.5,5.1.3.3,2.2,1.8,1.7,2.2"/>
        <path id="Path_7599" d="M285,397.7c-.5.5-12.1-3-12.6-5.3,3.4,1.4,7.2,2,10.6,3.5.8.4,2.2.7,2,1.8"/>
        <path id="Path_7600" d="M103.3,392c-3.1-3.7-5.2-8.6-7.3-13,3.7,3.5,6.2,8,7.3,13"/>
        <path id="Path_7601" d="M107,100.1c0,1.4-7.2,12.5-8.1,11.4,1.6-3.5,3.6-6.7,6.1-9.5.5-.6,1.2-2,2-1.8"/>
        <path id="Path_7602" d="M261.9,344.8c-.5,4-1.3,7.9-2.3,11.7-.1.5-.3,1.7-.9,1.7-.1-4.3.6-8.6,2.2-12.6.3-.6,0-1,1-.8"/>
        <path id="Path_7603" d="M45.2,229.4c1-4.7,2.9-9.1,5.7-13-1,4.4-2.5,9.7-5.7,13"/>
        <path id="Path_7604" d="M319.2,367.2c-1,.2-.7-.3-1-.8-1.5-2-4.3-5.6-5.4-7.6-.4-.7-.7-.7.1-1.3,1.4-.2,6.9,7.8,6.3,9.8"/>
        <path id="Path_7605" d="M125.3,206.6c-.3.4-7.5-4.6-8.1-5.1-.5-.4-1-.6-.8-1.4.8-.7,4.6,1.9,5.4,2.5.7.5,4.3,2.9,3.5,4"/>
        <path id="Path_7606" d="M67.8,418.5c.3.4.9,1.3,0,1.1-3.4-1.1-6.5-2.7-9.5-4.8-.5-.4-1.1-.5-.9-1.3,2.9,1.6,8.1,2.6,10.4,5"/>
        <path id="Path_7607" d="M235,113.6l-5.3-13.8c2.7,3.9,5.3,8.9,5.3,13.8"/>
        <path id="Path_7608" d="M78.2,266l4.1-11.4c0,1.1,0,2.2,0,3.4,0,.6-2.6,9.5-4,8"/>
        <path id="Path_7609" d="M119.2,99.7c.2,2.6,0,5.2-.5,7.8-.2.8-.5,2.7-1.5,2.3-.6-.7.6-8.4,1.1-9.7.2-.6,0-.6.9-.5"/>
        <path id="Path_7610" d="M256.2,275.7c-3.8-1.3-8.2-2.3-11.4-4.9,3.2.5,6.2,1.5,9.1,2.8.3.2,2.9,1.4,2.2,2"/>
        <path id="Path_7611" d="M308.6,387.5c-2.4,3.3-5,6.9-8.9,8.5-.4-.4,6.2-7,6.9-7.5.6-.5,1.2-1.1,2-1"/>
        <path id="Path_7612" d="M24.5,224.1l5.3-15.9c-.4,4.3-2.2,9.1-3.8,13.1-.3.9-.6,2.3-1.5,2.7"/>
        <path id="Path_7613" d="M61.5,183.9c.6,0,.6,1.1.7,1.5.6,3.9.6,7.8,0,11.6,0,.4-.2,1.9-.8,1.9v-15h0Z"/>
        <path id="Path_7614" d="M81.8,87.5c-.3-.3,1.5-2.8,1.9-3.2.5-.8,4.8-6.5,4.2-2.8-.2,1.2-5.3,6.7-6,6"/>
        <path id="Path_7615" d="M263.1,365.1c-.7,0-.5-1.8-.4-2.2.3-3.3,1-6.6,1.9-9.9.2-.5.2-1.2.9-1.3l-2.4,13.4h0Z"/>
        <path id="Path_7616" d="M76.5,420.8c-1,.9-7.1-3.6-7.7-4.9,1.3,0,2.6.4,3.6,1,.5.3,4.9,3.2,4.1,3.8"/>
        <path id="Path_7617" d="M125.3,142c-1,1.1-6.7-6.5-6.1-8.1.9.6,6.5,7.7,6.1,8.1"/>
        <path id="Path_7618" d="M83.4,420.8c-1.4.9-8.1-3.3-6.9-4.5,2.7.7,5.2,2.3,6.9,4.5"/>
        <path id="Path_7619" d="M52.8,392.9c1.4,1.6,2.6,3.2,3.8,4.9.4.5.5,1.2.4,1.8-.7,1-5.1-5.6-5.3-6.7-.2-1,.7-.5,1.1,0"/>
        <path id="Path_7620" d="M206.6,107.9h-.8c.1-.4-.4-.9-.4-1v-8.3h.4c0,.7.8,2.2.8,2.6v6.7h0Z"/>
        <path id="Path_7621" d="M115.9,38.3l-6.1-9.3c.6-.6,3.3,3.3,3.7,3.8,1.2,1.7,2,3.5,2.4,5.5"/>
        <path id="Path_7622" d="M198.1,122.5v-6.7l.8-3.1c.6,2.8.6,5.6,0,8.3-.2.6,0,1.3-.8,1.4"/>
        <path id="Path_7623" d="M104.2,113.5c-1.1-.6.7-2.7.8-3.5l4.5-8.3c-1,4.2-3.6,7.8-5.3,11.8"/>
        <path id="Path_7624" d="M57.4,197.5c0,.4-.3,2.7-1.2,2.2,0-2.7.2-5.6.4-8.3,0-.4.2-1.5.8-1.5-.2,2.4.2,5.1,0,7.5"/>
        <path id="Path_7625" d="M293.6,397.3c-.6-.6,3.1-5,4.1-5.3.4,1.1-3,6.4-4.1,5.3"/>
        <path id="Path_7626" d="M86.7,86.3c.6-2,1.9-3.7,3.7-4.9,1,1.5-2.6,5.7-3.7,4.9"/>
        <path id="Path_7627" d="M55,223.3c-.8,0-.3-.9-.2-1.2.7-1.9,2.3-5,3.3-6.9.2-.5.4-1.1,1-1.2-.7,3.4-2.7,6.3-4.1,9.4"/>
        <path id="Path_7628" d="M235.9,206.4c0,.3-.5,1.2-.8,1v-8.9c.3,0,.8.5.8.6,0,2.1.3,5.4,0,7.3"/>
        <path id="Path_7629" d="M195.2,122.5c-.6.6-.7,0-.8-.6-.2-1.6.3-3.1.4-4.7,2.4.3.8,3.7.4,5.3"/>
        <path id="Path_7630" d="M130.2,139.6c-2.4-.2-3-3.1-4.1-4.9.7-.7,4.6,4.3,4.1,4.9"/>
        <path id="Path_7631" d="M89.5,419.2c-1,.6-5.2-2.1-4.5-2.8,1.7.4,3.6,1.3,4.5,2.8"/>
        <path id="Path_7632" d="M274.9,195.2c-4.2-3.7-7.3-9.3-10.1-14.1-.3-.5-1.9-3.2-1.7-3.4.9,0,1.7,1,2.2,1.6,3.9,4.1,7.2,10.7,9.5,15.9"/>
        <path id="Path_7633" d="M277.7,206.6c-.5.5-4.4-4.2-4.9-4.7-2.5-2.9-4.9-6-7.1-9.2-.3-.5-.8-.9-.6-1.6.9-1.1,10,10.9,10.7,11.9.3.5,2.2,3.3,1.9,3.6"/>
        <path id="Path_7634" d="M276.1,214.4c-.4.5-7.3-7.4-7.9-8.2-.4-.6-1.1-1.2-1-2,.5-.5,3.8,2.8,4.3,3.2.7.7,5.2,6.3,4.7,6.9"/>
        <path id="Path_7635" d="M287.1,220.4c-2.9-2.9-4.4-7.3-6.1-11,.7-.7,3,3.3,3.3,3.8,1.2,2.1,2.6,4.8,2.8,7.2"/>
        <path id="Path_7636" d="M272.8,181.8c-1,.2-1.1-.9-1.5-1.5-1.2-1.8-2.2-3.7-2.9-5.8,2.3,1.7,3.5,4.7,4.5,7.3"/>
        <path id="Path_7637" d="M338.7,254.2l-14.2-16.7c2.9.8,5.9,4.2,7.9,6.5,2.5,2.9,5.5,6.4,6.3,10.2"/>
        <path id="Path_7638" d="M328.9,248.9c-3.7-2-6.7-5.1-9.3-8.3-.3-.4-2.3-2.8-2-3,.8-.2,1,.4,1.4.8,3.3,2.8,6.3,5.9,9.1,9.1.4.5,1,.7.8,1.4"/>
        <path id="Path_7639" class="st1" d="M73.8,332.5c-6.3-6.5,1.1-8.4,6.9-7.5,5.1.7,2.2,4.9,6.4,6.6,1.8.7,9.5-.2,11-1.3,1-.7,0-3.6,2.8-5.5,3.1-2.1,8.8-2.6,11.9-.2,1.3,1,.2,3.5-.4,4.8-6.3,12.6-29.5,12.6-38.6,3.1"/>
        <path id="Path_7640" class="st1" d="M69.6,311.1c-.7-.6,2.6-4.5,3.2-5.1,4.6-4,13.1-4.8,18.7-2.9,1.5.5,5.3,2.9,5.3,4.5,0,2-4.3-2-5-2.3-5.1-2.4-13.2-1.6-17.6,2.1-.9.8-3.6,4.6-4.7,3.7"/>
        <path id="Path_7641" class="st1" d="M94,313.5c-1.8-.2-3-1.8-4.6-2.5-3.3-1.4-8.8.2-11.5,2.5-1.1,1-1.3,2.9-3.4,2.4,2-6.9,12.5-9.2,18-5.2,1.1.8,1.7,1.3,1.5,2.8"/>
        <path id="Path_7642" class="st1" d="M90.8,318.8c-3-1.4-5.6-2.9-8.7-.8-.9.6-2,3.2-2.7,1,1.3-2.8,5.8-4.6,8.7-3.4.6.3,3.5,2.3,2.7,3.1"/>
      </g>
    </g>
  </g>
</svg>