<?xml version="1.0" encoding="UTF-8"?>
<svg id="Layer_2" xmlns="http://www.w3.org/2000/svg" xmlns:xlink="http://www.w3.org/1999/xlink" version="1.1" viewBox="0 0 296 135.7">
  <!-- Generator: Adobe Illustrator 29.6.1, SVG Export Plug-In . SVG Version: 2.1.1 Build 9)  -->
  <defs>
    <style>
      .st0 {
        fill: none;
      }

      .st1 {
        fill: #fff;
      }

      .st2 {
        fill: #ad80f9;
      }

      .st3 {
        clip-path: url(#clippath);
      }
    </style>
    <clipPath id="clippath">
      <rect class="st0" width="296" height="135.7"/>
    </clipPath>
  </defs>
  <g id="Layer_1-2">
    <g>
      <path class="st1" d="M292.8,29.5s-11.6.4-11.8.4-8.5,1-8.5,1l-7.1,1.2-8.7,2.6-4.6,1.6-4.9,1-2.1-.9-2.1-.8-3.5.6-2.3,1.4-.4,1.8-1.3.2-17.4,1-6.4.8-7.5,1.3-6.2,2.7-3.7,2.2.4,1.5,6.8,1.4,14.3-1.8,11.3-3.8,7.1-1.8,3.8-1.6v11.1c0,0-6.3.6-6.3.6l-10.8.9-9.8.9-29.4-4.2,1.6-7v-3.1l-3-2-.7-15.2,17.9,2.6h9.6c0,.1,8.8-.9,8.8-.9l11.1-4.5,2.8-1.7.5-1.1-5.8-.8-8-.7-5,.2-12.6,1.6-16.5,2.8-3,.4-3.7-1.2h-4.7c0,.1-2.4,1.3-2.4,1.3l-7.4-.5h-8.1c0-.1-14-.6-14-.6l-10.4-.6-7.5.5-1.6,1,1.3,3.9,6.7,4.2,10.3,2.8h10.9s10.1-1.9,10.1-1.9l9.2-3.3,2.7-1.1v13.7l-3.2,4-2.9,4.4-1.5.7-9.4.4-12.8.7-9,.8-14.1,2.3-8.2,1.2-12.3,2.5-14,2.7-4.8,1.1-13-.4-5.7.5-.9-13.5,4,.2,7.4,1.6,7.1-.2,9.2-2.3,6.9-3.1,4.3-2.2,1.1-2.2-1-1.9h-4.4c0,0-3.6,0-3.6,0l-4.4.7-5.4.8-5.6,1.4-9.2,2.6-8,2.5.4-1.2-1.9-.9-3.3-.6-3.1,1.2-.9,1.4.2,1.3h-6.3s-4.2.3-4.2.3l-8.1,1-10.2,1.8-9.9,1.9-5.7,1.2-4.1,1.4,1.5,1.6,3.2,2.2,6.7,1.2,4.1-.7,4.5-1.8,9.8-3.6,7.7-2.3,7.6-1.6,3.2-.6,1.4,1.1.3,6.7,1.2,5.8-6.7,5v6.9l2.7,3.3,5.8.6,7.1-.9,16.7-1.2,12.3.3,7.3,2.5,1.7,4.2-.5,2.8-2.8,6.6-2.9,11.1-1,9.9-.6,6.4,1.8,4.4,4.3,2.4,7,.8,30,1h9.7c0,0,.7,3.3.7,3.3l1.2,2.6,3,1.8h6.4c0,0,9.4-.4,9.4-.4l12.1-.7,6.6-.7,8.6-.8,4-.2,4.2-.4h3.8l3.9-.2,2.1-1.1,1.7-1.5.8-1.9v-5c0,0-1-8.1-1-8.1l-1.5-13.9v-14.8c.1,0-.2-6-.2-6l1.3-1.2,2.6-1.8,8.1-4.7,5.2-2.5,5.7-2.1,6.4-.8h5.2c0,0,6.5-.2,6.5-.2l4.3.2,2.4-1.4,1.3-4.7-3-5.3-3.4-1.6-4.7-.7-.6-11.8,11.9.3,12.8-1.4,11.2-2.8,10.9-4.9,1.4-1.1v-1.2s-2-.4-2-.4h0ZM138.4,121.5l-18.2-.9-19.1-.3-2.4-4.8,4.7-19,2.7-8.8,2.3-2.7,6.5,1.1,10.2,4,14,7.4.4,1,.4,15.1,2.2,2,.7,5.3-4.2.5h0ZM205.4,125.7l-4.9,1.8-12,1.6-24.4,1.5h-13l-3.2-3.3,2.6-.8,1.8-1.8,1.5-7.1,27.8-.2v-8.9c0,0-1.4-13.5-1.4-13.5l3.8-.8,4.8-3.4,4.8-3.1,2.6-.8,2.2,2.6,2,5.3,3.1,10.5,2.6,14.2.4,4-1.1,2.1h0Z"/>
      <g class="st3">
        <g id="Group_9057">
          <path id="Path_6998" d="M180.9,24.3c.6,2.1.3,4.2.4,6.2.2,2.6.8,5.1.9,7.6.9.7,1.6,1.6,2.1,2.7.9,2.5-1.2,6.4-1.7,9,3.3.5,6.6,1.1,9.9,1.7,4.7.8,8.6,1.3,13.4,1.8,1.7.2,3.4.7,5.1.8,5.8.1,12.1-1,18-1.5,2.6-.2,5.2,0,7.7-.3l-.6-8.9c-.3,0-.6,0-.9,0-4.9.8-10,3.4-14.8,4.7-6.5,1.8-14.6,3.4-21.4,3.2-1.5,0-3.9-.4-5-1.6-.5-.5-.2-2.1.3-2.5,5.1-3.5,11-5.6,17.1-6.2,4.7-.5,9.4-.9,14.1-1.2,3.4-.2,6.8-.4,10.2-.6h.2c.2-1.7,2-2.8,3.4-3.4,1.6-.7,3.3-.7,4.9-.2.9.3,1.6,1.1,2.6,1.1,5.7-.4,11.4-2.9,16.8-4.3,10.2-2.7,20.8-3.2,31.4-3l.8.4c0,.7-.2,1.4-.7,1.9-1,.9-5,3-6.4,3.7-9.9,4.8-22.4,6.7-33.3,6.8-2.7,0-5.4-.2-8.2-.2l1.1,10.3c1.4,0,2.8.3,4.1.7,1,.3,1.9.7,2.9,1.2,2.6,1.5,4.4,6.8,3.2,9.5-.5.9-1.1,1.8-1.8,2.6-.6.5-1.3.8-2,1-2.3.3-5.5-.3-8-.3-.4,0-.7.2-1,.2-8.6.2-13.9,0-21.7,4.1-1.7.9-3.4,2.2-5.1,3.2-2.7,1.6-5.7,2.7-8.3,4.6-.1.2-.6,3-.6,3.5-.3,2.6-.2,5.9-.3,8.7-.4,10.8,1.9,21.3,2.7,32,.1,1.7.2,5.5-1,6.9-.7.6-1.5,1.1-2.3,1.6-2.2,1-4.4.7-6.6.9-5.8.4-11.3.5-17.1,1.2-10.6,1.2-21.3,1.9-32,1.9-2,0-4.1.3-6.1-.4-2.9-.9-3.7-4.6-4.1-7.3-2.8,0-5.6.2-8.3.2-7.8-.2-15.8,0-23.6-.6-.9,0-1.9-.4-2.9-.4-5.4-.4-15.9.9-17.9-5.8-.7-2.4,0-8.2.3-10.9.9-9.8,3.8-18.3,6.3-27.8.3-2.8-.5-4-3-5.1-5.1-2.2-11.4-1.9-16.9-1.7-5.3.2-10.7.6-16.1,1.1-3.6.3-8.2,1.3-11.7.9-1.1-.2-2.3-.5-3.4-.8-2.3-1.2-2.1-5.3-2-7.5,0-1.6.6-4.3,2.1-5.2.4-.3,2.5-1,2.5-1.1l-1.1-14.6c-.8,0-1.6,0-2.4.2-5.6,1-12.7,3.4-18,5.5-3.8,1.5-7.3,3.7-11.5,4.3-4.8.7-10.7.4-14.5-2.9-2.5-2.2-1.7-2.8,1.2-3.5,4.9-1.1,9.9-2,14.9-3,8.8-1.8,17.6-3.8,26.6-3.7,1.1,0,2.3-.3,3.4-.2,1.6-4.1,6.2-4.4,9.9-3,.7.2,1.4.6,1.6,1.3h.2c6.1-2.1,12.4-3.9,18.7-5.3,5.9-1.3,13.8-2.8,19.7-2,2.1.3,2.7,2.6,1.6,4.3-.6.9-3.8,2.4-4.9,2.9-5.8,2.8-12.7,5.8-19.2,6-5.1.2-9.8-1.7-14.8-2l1.2,11.9c2.1-.5,4.2-.5,6.4-.6.7,0,1.5-.3,2.2-.3,3.8-.2,8.2,1.2,11.8.4,13.8-2.9,27.3-6,41.3-8,12.5-1.8,26.4-3.5,39-3.3.3,0,.6.2.9.1.4,0,2.6-3.7,3.1-4.3,1.1-1.5,2.6-2.9,3.8-4.4-.2-.6,0-1-.1-1.6-.1-3.4-.6-6.7-.4-10.1,0-.2,0-.4.1-.5-3.4,1.6-6.9,2.8-10.5,3.7-4.9,1.2-9.8,1.9-14.8,2.2-7.4.5-10.6,0-17.3-3-3.2-1.4-5.9-2.5-7.7-5.8-1.3-2.3-.9-3.4,1.7-4,5.3-1.2,10.4-.8,15.7-.6,8.2.2,16.4.5,24.6.9,2,.1,4.3.1,6.3.3.4,0,.8.3,1.2.3.4,0,.8-.5,1.3-.7,2.7-1.1,7.7-1.5,9.9.6.6-.3,1.2-.6,1.9-.7,3.2-.7,6.7-.9,10-1.4,8.7-1.5,17.1-3.3,26-3,3.8.7,8.4.4,12.1,1.2,1.6.4,1.6,1.1.3,2-3.8,2.9-11.3,5.9-16,6.9-6.1,1.3-13.2.9-19.4.5-2.9-.2-5.7-1-8.6-1.5-1.9-.3-3.7-.5-5.6-.6M181.1,22.5c1.3,0,2.8,0,4.1.2,2.4.2,4.7,1,7.1,1.4,6.6,1.1,13.3,1.2,19.9.5,3.8-.5,8.4-2.2,11.9-3.7,1.9-.9,3.7-1.9,5.4-3,0-.2-1.4-.3-1.7-.4-5.9-.7-11.4-1.2-17.4-.6-8,.7-15.2,2.7-23,4.2-1.6.3-3.4.4-5,.7-.1,0-1.7.4-1.4.7M172.8,23.9c0-.2-.2-.2-.4-.3-2.6-1.1-7.2-2.2-9.9-2.2-4.6,0-9.3.5-14,.3-3.8-.2-7.6-1-11.4-1.2-3.8-.2-7.6-.3-11.4-.2-.9,0-3.5.3-4.3.5-1.8.6.8,4,1.5,4.7,1.5,1.6,6.8,3.7,9,4.2,9.3,2.1,17.9,1.8,27.1-.5,4.3-1,8.5-3.1,12.5-4.9.4-.2.9-.4,1.3-.4M178.6,21.6c.2-.3-.6-.6-.8-.7-2.6-.9-4.9-.4-7.5.2l5.2,1.8c1.1,0,1.9-1.2,3.1-1.4M177,24.2l.4,2.7h1.4c0,0,0-2.6,0-2.6-.6-.3-1.3-.4-1.9-.1M172.6,27.6l3.7-.7c.2-.9,0-1.8-.2-2.6-.3-.2-3,.4-3.3.8-.4.4.2,2-.1,2.6M175.6,28.1c-.5,0-2.7.2-2.8.7.3,2.9-.3,6,0,8.8,0,.2,0,.4.2.5l3-.4.2-.2c0-1.8,0-3.6,0-5.4,0-.6.2-1.1.1-1.8,0-.2-.1-1.8-.2-1.9-.1-.3-.4-.2-.6-.2M178.9,28.1h-1.6v9.3h1.6s0-9.3,0-9.3ZM294,30.2c-3.1-.1-6.3-.3-9.4-.1-10.5.5-21.6,2.5-31.2,6.7l-8.1,2.4-.2.3c3.4.9,6.9,1.2,10.4,1.1,3.8-.2,8.1-.5,11.9-.9,6.7-.6,13.2-2.7,19.3-5.3,2.5-1.1,5.2-2.2,7.2-4.1M245.8,37.8c-.4-1.1-1.7-1.4-2.8-1.5-1.2,0-2.4.2-3.6.5-.5.2-2.4,1.6-1.6,2.2l8-1.1h0ZM98,37.7c-.3-.2-.6-.3-1-.3-4.3-1-10.7,0-15.1.9-7.7,1.5-15.9,3.6-23,6.6l-2.4,1c2.3.2,4.7.3,7,.6,2.5.3,5.3,1.2,7.8,1.3,5.6.3,12.8-1.5,18-3.6,1.5-.6,2.8-1.6,4.2-2.4,1.5-.8,3.1-1.5,4.5-2.4.5-.4.3-1.4-.1-1.8M256.9,62c.4-2.3-.5-4.6-2.2-6.1-2-1.7-4.1-1.8-6.5-2-10.2-1.1-19.9-.4-30,1.1-11.2,1.6-22.8,8.7-34.1,7.9-4.5-.3-4.9-3.4-4.6-7.3.3-4.3,4.9-11.5,2.2-15.4-.2-.3-.5-.5-.8-.7-2.8-.4-4.9-.7-7.6.4-3.8,1.5-5.2,4.8-7.4,7.9-3.8,5.1-8,8.7-13.9,11.2-5.8,2.5-15.5,3.1-21.6,1.8-.2,0-1.3-.2-1-.6,5.3-.6,11,.5,16.2-.7,4.5-1,12-4.9,15.3-8.1.7-.7,1.3-1.5,1.8-2.3-1.8-.2-3.6.2-5.3.3-9.1.5-18.2.5-27.3,1.8-13.6,2-27.3,5.3-40.9,7.7-2.2.4-4.5.7-6.8,1.1l1.3.3c7,1.2,14.1.9,21.2,1.4,1.1,0,2.3.4,3.4.5,2.1,0,4.3-.3,6.4-.3,0,.2-.2.2-.4.3-2.9,1.2-6.5.8-9.6.9-7.1.3-14.1,0-21.1-.6-4.7-.5-9.2-1.5-14-1.6-3.4,0-6.9-.1-10.3.7-3.1.7-10.1,3.2-12.4,5.3-.5.5-.8,1-1.2,1.5-.2.6,0,5.4.4,5.2,1.5-1,2.9-2.4,4.5-3.3,2.6-1.4,4.2-1.6,7.2-1.2.9.1,4.9,2.5,6,3,.8.4,2.4,1,3,1.5.4.3.9,1.5,1.1,1.6l7.9-.6c6.1,0,12.9-.7,18.6,1.8.6.2,1.2.9,1.7,1,.2,0,.2,0,.2-.2,0-.8-.7-1.2,0-2.1.4-.5,3.6-1.2,4.4-1.3,4.8-.4,9.6,2.1,12.4,5.9.4.6,1.3,1.8,1,2.5-.5.4-1.1.9-1.6,1.2-.4.2-1,.3-1.4.6-.2,0-.3,0-.2.3.5,0,1,0,1.5.3,3.1.9,6.7,2,9.7,3.2,1.6.7,3.1,1.5,4.5,2.4.4-1.1,1.1-2,2-2.7,1.9-1.5,3.7-2.3,6.1-2.2,2.3,0,5.3.3,7.5.6,1.7.3,3.4.7,5,1.2,0-.7-.2-1.5-.3-2.2-.2-1.7-.3-3.8-.6-5.4-.3-1.3-1.2-2.6-1.6-3.9,0-.3,2.2-2.2,2.7-2.4,2.4-1.4,7.6-2,10.2-.9.6.2,3.1,1.8,3.2,2.3.1.3-.6,1.9-.9,2.4-.6,1.4-1.4,2.6-1.9,4.1-.7,2-1.1,4.2-1.1,6.3,3.3.1,6.7.3,10,.2,1.7,0,3.5-.1,5.2-.3,5.7-.6,9.7-3.8,15.8-3,2.6.4,3.6,1.4,5.6,3l1.8-.7c-.6-1.3-1.7-2.1-2.5-3.1-.2-1.1,3.6-4.3,4.4-5,3.3-2.5,8.2-4.3,12.3-3,1.6.5,1.1,1.1,1.1,2.5.3.3,3.2-2.2,3.7-2.5,5.9-3.6,11.4-6.6,18.2-8.5.6-.2,2-.3,2.4-.6.4-.3,1.2-1.8,1.7-2.2,3.6-3.8,7.3-3.7,12-4.6.4,0,.8-.3,1.3-.4,1.4-.2,3.1.5,4.3,1.1l2.8,2h0ZM238.6,39.6c-.1-.1-2.4.4-2.8.5-4.4.3-9,.2-13.4.6-2,.2-3.9.7-5.9.9-7.5.7-13.6.7-20.1,5.5-1,.7-1.5,1.1-.3,2,1.3,1,1.8.5,3.1.5,12.3-.2,20.6-2.5,32-6.6,2.4-.9,4.9-1.2,6.9-2.8.2-.1.4-.2.3-.5M241.7,39.9l-2.2,1.4v1.5c.1,0,2.6-.7,2.6-.7.3-.4-.6-1.5-.4-2.1M244.9,41.9c0-.9-.9-1.2-1.6-1.2l.3,1.3h1.4ZM57.2,43.7c-1.2-.7-3.3-.9-4.7-.8-2,.2-4.3,1.5-.8,1.8,1.7.1,4.2.2,5.5-1M243.1,52.1l-.6-8.6-.2-.2-2.2.5-.2.3.4,8.2,2.9-.2h0ZM245.3,52.2l-.3-8.6c-.1-.3-1.3-.4-1.6-.4l.9,9h1.1ZM52.7,46.2c-.6,0-1.3,0-1.9,0-11.1-.6-21.7,1.5-32.5,3.5-3.9.8-7.9,1.4-11.8,2.2-.6.1-2.9.6-3.2.8-.7.5-.4,1.4,0,2,.8.6,1.7,1.2,2.7,1.5,1,.4,5.4,1.3,6.4,1.2,3.2-.2,6.4-1.9,9.4-3,6.3-2.3,13.3-4.3,19.8-5.9,3.5-.9,7.3-1.2,10.6-2.3.2,0,.5,0,.4-.2M55.8,50c0-.6-.2-1.2-.2-1.7,0-.4.3-1.3,0-1.5-.8-.5-2.8.5-3.6.8l.3,3,3.5-.6h0ZM58.1,50l-.2-2.8-1.1-.4-.2.3.3,2.8h1.2ZM55.8,51.1l-3.1.5v.2c-.1,0-.3,10-.3,10l3.6-.9s-.2-9.7-.2-9.7ZM58.5,60.2l.2-5.3-.5-3.6-.2-.2h-1s-.3,9.4-.3,9.4l1.8-.3h0ZM209.7,55.2l-27.6-3.7c-.3,0-.3.4-.4.6-1.4,3.2-2.2,8.5,2.4,9.2,1.6.2,5,0,6.7-.3,4.1-.5,7.9-2.3,11.8-3.5,2.3-.7,4.7-1.2,7-1.9v-.5c0,0,0,0,0,0ZM255.5,62c-1.3-1-3.8-2.4-5.4-2.3-2.1.2-8.9,1.8-10.6,2.9-1.1.7-2.4,2-2.7,3.2,3.6,0,7.2-.2,10.9-.2,2.4,0,4.3.5,6.7,0,1.3-.3,2-.6,2.3-1.9.2-1.1-.3-.8-.9-1.4-.1-.1-.2-.3-.3-.4M66.5,75.3c0-.2-.1-.4-.2-.6-.8-1.3-8.3-4.7-9.9-4.8-2.9-.3-5.3,1.1-7.6,2.8-.8.6-1.6,1.3-2.2,2.1,1.2,1.8,3.8,1.8,5.8,1.7,2.3,0,5-.3,7.4-.4,2.3-.2,4.5-.6,6.8-.8M97.3,75.9c.3,1.6,1.5,3,1.9,4.6.9,3.7-1.5,7.2-2.7,10.7-1.8,5.2-3.4,11.1-4.1,16.6-.5,3.6-1.2,10-.1,13.4.2.5,1.6,2,2.1,2.4,2.6,2.2,6.2,2.3,9.5,2.5,7.6.4,15.3.5,23,.7,6.2.2,12.8.5,19.1.2,1.3,0,4.2-.3,5.1-1.3,1.1-1.3,1.8-4.9,2-6.5.4-3.6-.3-7.2-.2-10.8.4-8.7,1.4-19,4-27.3.7-2.2,2-4.2,3.2-6.1.1-.2,0-.2,0-.3-.3-.3-2.8-1.6-3.4-1.8-2.9-.9-8.9,0-10.6,2.8.5,1.1,1.2,2.3,1.6,3.5.9,3.6.4,6.6.5,10.1.3,8.3.6,15.6.1,23.8,0,1.9.4,4.2-.5,6-.6,1.2-1.2,1.5-2.4,1.9-1.7.6-3.1.5-4.8.6-7.3.2-14.4-.4-21.6-.4s-5.1,0-7.7,0c-2.8,0-8.3.2-10.8-.7-1.9-.6-2.4-3.2-2.5-4.9,1.9-7.9,3.5-16,6.2-23.7,1.3-3.8,1.8-6.9,5.7-8.9.9-.4,1.9-.7,2.7-1.2-2.5-3.1-5.5-5.6-9.6-6.2-1.9-.3-3.9-.3-5.7.3M144.3,128c.5,1.8.6,3.8,1.8,5.3,1.1,1.4,2.4,1.5,4.1,1.6,4,.2,8-.3,12-.5,6.2-.3,13.1-.2,19.2-1.1,5.2-.7,9.9-1.5,15.2-1.8,3.7-.2,13,.6,14.6-3.8,1.4-4-.6-11.1-1.1-15.4-1.2-11.1-2.2-22.7-.9-33.7,0-.7.2-1.4.4-2.1l-.2-.2c-2-.3-3.4-.7-5.5-.2-3.8.9-7.2,3.2-9.6,6.3,1,1.7,2.4,3.1,3.4,4.8,3.1,5.1,5.1,13.6,6.5,19.5,1.1,4.7,2.6,11.7,2.7,16.5,0,2.6-3,4.1-5.1,4.5-14.2,3.1-31,2.9-45.6,3.4-1.8,0-3.9.4-5.7.1-1.5-.2-2.6-3.4-3-3.4-.1,0-.2.1-.3.1h-2.9,0ZM155.5,94.1c1.6.2,3-.4,4.6-.5,2.2-.1,4.4.1,6.6.2,4.6,0,9.2.2,13.8,0,4-.2,6.3-3.3,9.5-4.9.7-.3,1.5-.4,2-1-.6-1-1.4-1.7-2.4-2.2-.8-.3-5-.7-5.9-.7-2.7.2-3.9,1.6-6.2,2.2-3.4.9-7.2,1.1-10.6,1.1s-3.7,0-5.6,0l-4.6-.3-1.2,6.2h0ZM141.2,115.8c-.5-.3-2-1.1-2.1-1.6,0-1.3-.3-2.7-.3-3.9s0-1.6,0-2.4c0-2.5.3-5.9,0-8.3-.1-1.1-2.6-1.5-3.6-2-6.1-2.7-11.4-7.7-17.6-9.6-1.5-.4-3.3-1-4.8-1.4-1.4-.4-3.2-.2-4.7-.6h-.3c-.4.7-.8,1.3-1.2,2-1.3,2.6-1.8,5.6-2.6,8.4-1.8,6.2-3.8,12.1-4.2,18.7,0,1.4,0,4.5,1.9,4.7,2.3.3,5.1-.2,7.5.3,10.3-.6,20.6,1.2,30.9.9.5,0,1-.3,1.6-.2-.7-1.6-.5-3.4-.8-5.1M147.1,88.1c-4.6-1.3-9.3-1.7-14-2.1-2.2.9-5.2,2.1-6.1,4.5,3,2.4,6.7,4.3,10.6,4.6,1.8.1,3.3-1.6,5.1-1.9l4.4.4c-.4-1.8,0-3.7,0-5.6M153.7,118.6c-.4,2.6-.3,6-2.4,7.9-.6.5-1.3.7-1.9,1.2.5,1.6,1.2,2.4,2.9,2.5.6,0,1-.1,1.5-.2,6.6,0,14,.4,20.6-.3,6.1-.7,12.2-1.1,18.3-1.8,3.6-.4,7.4-.6,10.8-2,1-.4,2.4-1.3,2.5-2.4.1-1.4-.4-2.6-.6-3.9-1.4-9.4-3.7-21.8-8.4-30.2-.2-.3-.7-1.4-1-1.4-.4,0-1.8.7-2.2.9-3,1.7-5.8,4.1-8.8,5.6-1.2.6-2.5,1.1-3.7,1.4,0,.6,0,1.2,0,1.7.1,3.4.9,6.8,1.1,10.2.1,2.4,0,4.8,0,7.2,0,1,.6,2.4-.4,3.2l-28.2.3ZM142.6,94.4l-2.6,1.2c.3,1.2,0,2.4,0,3.5-.1,4.7.3,9.3.2,14,.1.6,2.1,1.3,2.5,2v-20.7c0,0,0,0,0,0ZM179.2,94.7l-23.9.6c-.4,2.7-1.1,5.4-1.2,8.2-.2,2.9,0,5.8.1,8.7,0,1.7,0,3.4-.3,5l26.9-.6c-.1-1.3,0-2.8-.1-4.1-.3-4.4-.6-8.7-1.3-12.9-.3-1.6-.2-3.2-.2-4.8M147.1,116.3c.4-4.5-.4-8.9-.2-13.4,0-1.5.5-3.3.5-4.8s-.3-1.5-.2-2.2l-.2-.3-2.8-.3c-.2,0-.4,1.6-.4,2-.2,4.1.2,9.5.4,13.7.1,1.8.5,3.5.4,5.3l2.4.2h0ZM145.8,118.4c-.5.2-3-1.8-3.1-1.7l.4,3.9c1.5,0,3-.5,2.7-2.2"/>
          <path id="Path_6999" class="st2" d="M21.5,73.1c.2,0,.4,0,.5.2,1.2,2.1,2.1,4.7,3.4,6.7,2.3,3.7,4.6,6.3,8.3,8.6.8.5,2.6,1.2,3.1,1.7.9.8.3,1.6-1,1.1-2.9-1-6.9-3.8-8.9-6.2-2.2-2.6-5.2-8.2-5.7-11.6,0-.2,0-.6.2-.6"/>
          <path id="Path_7000" class="st2" d="M248.6,13.4c-.3,0-.5-.2-.8-.4-1.8-1.4-3.5-3.8-5.2-5.4-2.9-2.6-6.2-4.7-9-7.3.1-.2.3-.3.5-.2.5,0,2.6,1.2,3.2,1.5,4.6,2.6,9.1,7,11.3,11.9"/>
          <path id="Path_7001" class="st2" d="M30.7,74.2c.5-.1,1.5,2.2,1.8,2.7,1.3,2,3.6,5.1,5.6,6.2.7.4,2.3.6,1.5,1.6-.7.6-3.2-.8-3.9-1.2-1.7-1.1-3.8-4-4.6-5.9-.2-.5-1.3-3.2-.5-3.4"/>
          <path id="Path_7002" class="st2" d="M241.6,17.1c-.4,0-.7-.3-1-.6-.8-.9-1.6-2.2-2.5-3.1-1.3-1.2-3.2-2.1-4.4-3.4-.4-.4-.8-.6-.7-1.2.5-.5,4,1.8,4.6,2.2,1.7,1.4,3.9,3.7,4,6"/>
          <path id="Path_7003" d="M174.6,42.2c1.5-.3,3.4.2,4.3,1.5,2.9,4.1-1.1,10.1-6.1,9.7-2.3-.2-3.3-.9-3.5-3.2-.2-2.6,2.6-7.5,5.4-8M175.2,43.1c-.8,0-2.5,1.2-3.1,1.9-.5.6-1.5,2.7-1.6,3.4-.2,1.4-.2,3.8,1.6,4,4,.5,7-2.5,6.5-6.5-.3-1.7-1.8-2.8-3.5-2.8"/>
          <path id="Path_7004" d="M225.2,66.5c-.9,0-1.7-.3-2.6-.7-1.9-.7-3.7-1.4-5.5-2.3-.2-.1-.4-.1-.4-.5.4-.4,7.1,2.6,8,3.1.2,0,.4.2.4.4"/>
          <path id="Path_7005" d="M221.6,67.1c-3-.4-5.8-1.4-8.4-2.9-.2,0-.4-.2-.4-.4l8.9,3.3Z"/>
          <path id="Path_7006" d="M139.8,57.5c-.3.3-3.3-2.1-3.8-2.4-.5-.3-1.1-.6-1.5-.9-.2-.2-.3-.2-.2-.6.4-.4,4.5,2.6,4.9,3.1.1.1.8.7.6.8"/>
          <path id="Path_7007" d="M153.3,55.5l-5.2-3.5c1.2.2,2.5,1,3.4,1.6.3.2,2.2,1.4,1.8,1.9"/>
          <path id="Path_7008" d="M228.2,64.4v.3c0,0-.4,0-.4,0l-6.4-2.2c2.4,0,4.6,1,6.8,1.9"/>
          <path id="Path_7009" d="M216.2,67.8c0,.4,0,.3-.4.3-1.4-.1-5.1-1.4-6.4-2-.2-.1-.4,0-.3-.4l7.1,2.1Z"/>
          <path id="Path_7010" d="M80.3,72.3c-1.6-.7-3.2-1.5-4.8-2.4-.4-.2-.8-.4-1.1-.7,0,0-.6-.2-.3-.4.2-.2,4.1,1.9,4.6,2.2.6.3,1.1.7,1.6,1.2"/>
          <path id="Path_7011" d="M145.3,57.9l-6.3-4c.7-.2,6.6,3.8,6.3,4"/>
          <path id="Path_7012" d="M85.1,72.8l-.7-.2-5.1-3.1c.8-.1,1.5.4,2.2.7,1.3.6,2.5,1.5,3.5,2.6"/>
          <path id="Path_7013" d="M150,57.3c-.1.1-2.4-1.5-2.8-1.7-.9-.6-1.7-1.2-2.5-1.9,1.4.6,2.7,1.3,3.9,2.2.2.1,1.6,1.2,1.4,1.4"/>
          <path id="Path_7014" d="M75.5,72.2l-6.3-3.9c2.3.8,4.5,2.2,6.3,3.9"/>
          <path id="Path_7015" d="M70.6,71.4l-5.1-2.7c1.8.4,3.8,1.4,5.1,2.7"/>
          <path id="Path_7016" d="M212.3,69.7h-.8s-3.7-1.3-3.7-1.3c1.1,0,2.1.3,3.1.7.4.2,1.1.2,1.4.7"/>
          <path id="Path_7017" d="M230.9,63l-1.4-.4-2.9-1.3c1.5.1,3,.7,4.2,1.7"/>
          <path id="Path_7018" d="M87.8,71.9c-.6-.3-1.3-.6-1.8-.9-.2-.2-.6-.2-.6-.6.9.4,1.9.7,2.4,1.5"/>
          <path id="Path_7019" d="M95.7,98.5c.4,0,2.7,4.5,2.7,5.2,0,.8-.2.8-.6.2-.8-1.5-1.6-3.1-2.2-4.7,0-.2-.1-.8.2-.8"/>
          <path id="Path_7020" d="M153.7,82.6c-.3,0-.4,0-.6-.2-.4-.4-1.1-1.7-1.6-2.3-.6-.7-1.5-1.5-1.9-2.3-.1-.2-.3-.3-.2-.6.3-.3,2.2,1.8,2.4,2,.3.4,2.3,3.1,2,3.4"/>
          <path id="Path_7021" d="M97.4,107.6c-.5-.3-.7-.9-.9-1.4-.4-.8-1.1-2.3-1.4-3.2,0-.2-.1-.5-.1-.7.3,0,.5.2.7.5.8,1.1,1.8,3.5,1.7,4.8"/>
          <path id="Path_7022" d="M152.4,83.9c-.3.3-1.2-1-1.4-1.2-.6-.7-1.2-1.5-1.7-2.3-.1-.2-.2-.4-.2-.7.8.2,1.2.9,1.6,1.4.2.3,1.9,2.5,1.7,2.8"/>
          <path id="Path_7023" d="M151,75.9c.5-.5,2.7,2.9,2.8,3.4.1.7-.5.4-.8,0l-2-3.4Z"/>
          <path id="Path_7024" d="M98.6,100.7c-.2,0-.5,0-.6-.3-.3-.3-1.4-2.6-1.6-3.1-.1-.2-.2-.4-.2-.7.2-.3,1.2,1.2,1.3,1.3.2.4,1.3,2.5,1.1,2.8"/>
          <path id="Path_7025" d="M98.5,97.3c-.2,0-.5,0-.6-.3,0-.1-1-2.1-1.1-2.3,0-.2-.1-.5-.1-.7.7.2,2.2,2.8,1.8,3.3"/>
          <path id="Path_7026" d="M96.2,110.2c-.7.3-1.5-2.1-1.3-2.2.8-.2,1.6,1.9,1.3,2.2"/>
          <path id="Path_7027" d="M150.7,84.1c-.4.4-1.4-1.5-1.5-1.7,0-.2-.1-.3.1-.4.6-.1,1.7,1.8,1.4,2.1"/>
          <path id="Path_7028" d="M207.2,87.4c-.2.2-1.5-.9-1.7-1.1-1.5-1.1-2.8-2.3-4.1-3.6,1,.2,1.9,1,2.8,1.7.6.5,2.5,1.9,2.9,2.4.2.2.3.3.2.6"/>
          <path id="Path_7029" d="M206.1,89.6c-.2,0-.4-.1-.6-.2-.4-.3-3.6-2.8-3.6-3,0-.2.2-.2.4-.1.4.1,1.8,1.2,2.2,1.6.3.2,1.9,1.5,1.6,1.8"/>
          <path id="Path_7030" d="M204.9,91.1c-.3,0-.4,0-.6-.2-.8-.6-1.6-1.3-2.2-2,1.1.4,2.1,1.4,2.9,2.2"/>
          <path id="Path_7031" d="M203.7,81.1c.4.2,2.2,1.3,2.1,1.7-.2.4-.4,0-.7,0-.4-.3-.8-.7-1.1-1.1-.1-.2-.4-.2-.3-.5"/>
          <path id="Path_7032" class="st2" d="M166.6,97.5c1.7-.2,3.7-.1,5.2.7,4.6,2.3,6.7,7.3,4.6,12.1-1.7,3.9-7.6,5.8-11.4,4.3-5.2-2-6.9-5.1-6.1-10.6.5-3.6,4.4-6.2,7.8-6.5"/>
        </g>
      </g>
    </g>
  </g>
</svg>