<?xml version="1.0" encoding="UTF-8"?>
<svg id="Layer_2" xmlns="http://www.w3.org/2000/svg" xmlns:xlink="http://www.w3.org/1999/xlink" version="1.1" viewBox="0 0 565.4 407.1">
  <!-- Generator: Adobe Illustrator 29.6.1, SVG Export Plug-In . SVG Version: 2.1.1 Build 9)  -->
  <defs>
    <style>
      .st0 {
        fill: none;
      }

      .st1 {
        fill: #3cbeeb;
      }

      .st2 {
        fill: #fff;
      }

      .st3 {
        clip-path: url(#clippath);
      }
    </style>
    <clipPath id="clippath">
      <rect class="st0" width="565.4" height="407.1"/>
    </clipPath>
  </defs>
  <g id="Layer_1-2">
    <g>
      <polygon class="st2" points="191.6 404.3 203 405.6 246.3 404.7 319.2 405.2 345.4 404.7 449.8 404.5 450.5 363.4 449.8 337 457.4 335.6 509.2 335.6 509.6 229.6 509.6 137.9 512.5 139.9 561 152.5 557.6 146.3 531.4 112.3 522.5 101.1 515.2 91.3 509.3 85.3 503.9 85.2 470.9 83.6 465.6 73.8 462.9 72.1 456.5 74.3 453.3 76.8 452.3 63.3 445 57.4 440.1 61.9 436.8 66.1 429.7 60 424.5 64.4 418.9 71.3 418.1 69 418.4 61.4 417.3 60.2 409.3 63.7 405.7 62.8 400.8 52.9 400 51.3 394.3 53 391.2 56 391.1 62.3 386.8 61.8 381.5 64.6 377.6 66.8 376 59.1 373.7 52.2 370 52.5 362.1 57 352.9 58.2 321.6 52.9 314.7 46.1 308.5 48.7 307.2 44.2 305.2 39.8 302.5 39 295.3 43.2 275.7 15.5 115.3 .6 115 1.8 158.7 39.6 179.2 56.5 177.7 117.8 146.3 118 17.7 117.5 3.2 118.8 1.7 212.7 1.5 277.4 45.3 337.9 135.5 339.7 136.5 343.5 191.6 404.3"/>
      <g class="st3">
        <g id="Group_8920">
          <path id="Path_6102" d="M511.1,338.1c-.1.3-.3.6-.6.9h-58.9c1,.8.4,2,.6,3.2.4,3.6,0,5,0,8.4-.2,10.2,0,20.1-.6,30.3-.4,6.9,1.1,14.8.6,21.7,0,.9-.2,3.3-1.1,3.5-34.9.2-69.8,0-104.7,0-31.5.1-62.9,2.1-94.4,0-13.2.7-26.4.3-39.5.6-5.3.1-10.5.9-15.9.3-2-.2-3.9-.6-5.9-1-.4-.2-1.9-2.3-2.4-2.9-6.3-6.5-12.3-13.3-18.3-20-11.9-13.2-24.1-26.2-36.5-38.9l-.3-3.3c-14.9.2-29.8-.3-44.6,0-10.2.2-20.4,1.1-30.6.9-3.7-.1-7.6-.7-11.2-.9-1.1,0-2,.4-3,.2l-30.9-46.1c-4-5.7-9.4-10.6-12.6-16.9C-.4,230.1-.2,181.9.3,133.9v-11.8c0-2-.9-2.9.7-4.7,1.3-1.4,3.9-.5,5.8-.6,26.5-.8,53.1-.3,79.6-.3h89v-7.7c0-11.5,1.6-23.1,1.7-34.6,0-2.6-.4-5.3-.3-8.1,0-1.7,1.1-8.3.4-9.4L113.6,1.9c-.4-1.2,0-1.9,1.2-1.9l162.1,14.6,18.7,27.1c2.3-1.9,6.4-4.1,9.4-2.9,2.4,1,4.2,5.6,4.5,8.1,2-.8,3.3-2,5.5-1.7,2.6.4,3.2,2.7,5,4.2l35.1,7.2c2.2-1.8,4.9-.4,6.9-.8,1.5-.3,4.5-3.6,6.4-4.3,1.8-.5,3.6-.7,5.5-.5,2.5.6,4.2,6.3,4.4,8.6l6.1,1.7c1.9-.7,2.7-2.9,5.2-1.5l.3-.2c.5-2.5,2.2-8.1,4.9-8.8,1.7-.4,3.9,0,5.7-.4.7.7,1.4,1.5,2.1,2.3,1.5,2,3.7,5.4,4.9,7.5.4.8.8,1.7,1.1,2.5,1.4.9,9.7-7.1,11.7-1.8.9,2.3-.3,4.7-.5,7,1.2-1.8,3.2-2.9,4.6-4.5,1.3-1.4,2.2-3.8,4-4.6,4.6-2.1,5.9,2.7,9.4,4.5,1.9-2.4,4.9-7.5,8.6-6.5,2.6.7,5.4,3.5,6.6,5.8,1.6,2.9,1.6,7.3,2.2,10.6,4.1-.6,10-3.7,13.1.3.9,1.1.9,2.3,1.8,3.1,7.1,1.1,14.2,2.4,21.2,3.9,4.4.9,9.3,2.7,13.8,3.2,1.2.2,2.5,0,3.6,0,1.7.2,2.6,1.8,3.9,2.7l52.8,67.8c0,.6-.4,1.2-1,1.3l-53.2-14.4v196.9h-.1ZM321.2,82.7c-4.5-5.4-7.9-11.7-11.9-17.4-2.8-4-6.3-7.9-9.1-11.9-5.9-8.4-11.4-17-17.3-25.4-2.5-3.5-4.9-7.1-7.1-10.8l-.6-.5L117.5,2.2c-.2.7,0,.5.4.7,6.1,4.7,11,9.5,16.8,14.3,4.5,3.7,9.7,7,14,10.8,2.3,2,4.3,4.6,6.6,6.6,8,7.2,16.7,13.7,24.8,20.8,10.4,1.6,20.7,4.7,30.9,6.6,4.9.9,9.9,1.1,14.9,1.9,11.8,1.8,23.5,4.6,35.3,6.5,4.8.8,9.7,1.1,14.5,1.9,5.5.9,10.7,2.8,16.1,4.1,9.8,2.3,19.6,4.2,29.4,6.2M304.7,41.5c-2-1.9-5,1-7.1,1.5l-.3.6c0,.7,1.3,2.2,1.7,2.9.8,1.5,1.2,3.1,2.9,4.1l23.3,33.2c34.9-.3,69.8-.4,104.7-.3,5.7,0,11.6.3,17.3.3h20.4c0-1.6-.4-3.2-.9-4.7-.1-.3-.6-.6-.7-1-.5-1.2,0-1.7-1.2-3.1-1.8-2.1-2.9-1.2-4.9.2-1.2.9-3.1,2.9-4.5,3.6-.7.3-2.1.7-2.7,0-.8-3.9-.9-7.8-2.4-11.5-1.1-2.4-2.3-4.7-3.7-7-.3-.5-.8-1-1.3-1.3-.6,0-2.5,1.6-3,2.1-1,1.1-2.6,4.5-3.2,5-.3.3-.8.2-1.1.4-.2,0-.2.5-.4.6-1.5.3-1.9-1-2.8-1.7-1.1-.9-2.3-1.8-3.5-2.6-.3-.2-.6-.4-1-.2-1.9,2.5-4.9,3.9-7,6.1-1.4,1.4-2.4,5.1-4.7,4.8-2.1-.3-1.7-3.7-1.6-5.3.1-1.4,1.7-5.9-1.2-5.5-3.3.5-8.1,5.1-11,.7-1.8-3-3.3-6.1-4.5-9.4,0-.4-.1-.8,0-1.2-.4-.4-5.6,1.8-6.2,2.6-1.3,1.8,0,6.4-2.4,7.1-2,.6-3.1,0-5.2,1.4-3.5,2.2-6.5,6.9-11.1,6.7-1.7-.6,0-6.9,0-8.5.1-2.4-.8-6.9-2.9-8.4-2.4-1.7-6.8,3.2-8.9,4.3-2.2,1.1-5.3.3-6.5,1-1.4.8-4.9,9.4-6.4,9.8-2.1.6-4.2-3.2-5.5-3.6-2.4-.6-4.2,2-5.3,3.7-1.4,2.1-2.8,6.9-6,6-.7-.2-1.2-1.2-1.3-1.9-.8-4.3.6-8.1-2.7-12-2.9-3.5-6.5-1.2-8.4-2.9-.7-.6-.7-1.4-1.1-2-1.2-1.8-2.2-3.7-3.5-5.4-.5-.7-1.5-2.3-2.3-2.6-1.6-.6-4.5,2.8-6.2,1.8-.5-.3-2.5-7.5-3.3-8.2M180.1,58.8v55.8c7.8-.7,13.6,3.6,20.1,6.9,11.9,5.9,28.7,12.8,39.2,20.6,2.9,2.2,3.1,3,3.4,6.7,1.1,15.4.6,33.5.3,49.1,0,1.1-.5,2.4-.3,3.6l80,1.2c.4-.1.7-3.5.8-4.2.2-3.7.1-8.1,0-11.9-.6-21.2-1.6-42.3-.6-63.5-1.6-11.4.4-22.9-.3-34.3,0-.8-.2-1.6-.4-2.4l-142.2-27.6h0ZM452,172.7v49.9c9.8-1,19.5.5,29.3.6,2.1,0,4.5.1,6.6,0,3.3-.1,6.4-.9,9.8-.6,1.8.2,4.4,1.3,1.1,2-2.1.4-4-.1-6,0-9.8.7-17.5-.1-27.1-.3-4.6-.1-9.2,0-13.7.3l1.7,109.3,54.3-.3V99.2c.4-4.2.4-8.4.2-12.6l-.6-.3-67.1.3-.6,85.1c4.1,0,8.1.2,12.1.9M418.1,224h-4.8l7.5,3.8v-49.3c-1.8-.3-3.9-.1-5.6-.4-.8-.1-2.7-.7-2.8-1.5l-.5-9.2c.7-7.9,0-16,0-24-.1-13.7.5-27.5.6-41.2v-15.2l-86.3-.3.6,115.7c4.4.1,8.8-.1,13.1,0,6,.2,12.1.6,18.2.9,4.8.2,12.2,0,16.5,1.7,10.6,4.3,21.6,11.8,32.1,15.8,3.8,1.4,8.9.9,12.7,2.4l-1.3.9h0ZM438.1,86.7l-23.7.3.2,89.1,5.6.3c.2-1.5,0-6.1,1.9-6.3.4,0,1.8.7,2.6.8.9.1,1.7,0,2.6,0,3.6.4,7.2,1.2,10.8.9v-85.1h0ZM520.4,99.7l-9.5-11.8c0,1.1,0,3,.6,3.9.4.6,3.5,3,4.4,3.7,1.2,1.1,2.3,2.6,3.6,3.6.3.3.5.7,1,.6M511.1,92.8v4.5c2.7,2.4,5.5,4.7,8.1,7.2,1,1,13.9,13.5,13,14.3-1-.3-2-.9-2.7-1.7-2.2-1.8-4.7-4.2-6.8-6.2-4-3.8-7.7-8-11.5-12v5.6c8.2,6.9,16.7,13.5,23.4,21.9l-23.4-20.6v5.1c6.6,6.6,13.9,12.7,19.9,19.8-.2.2-1.9-1.2-2.2-1.4-6.3-5.1-11.8-11.2-17.8-16.7v4.2c0,.3,3.7,2.9,4.3,3.5,3.9,3.2,7.5,6.8,10.7,10.7l-15-13.1v5.6c4.6,4.2,9.5,8.3,13.3,13.3l-13.3-12.3v4.8l6.8,5.8,5.5,6.2,34.7,7.4-30.6-39.5-16.4-16h0v-.4ZM232.9,144.4c-.4,0-.8-.2-1.2-.4-7.6-4.4-15.6-8.4-23.4-12.4-7.6-3.9-15.3-7.8-22.6-12.3-59.5,0-119,0-178.5-.3l34.8,26.5,2.9-.6,187-.3,1-.3h0ZM24,208.1l18.1-58.6L5.8,121.3l14.8,84.3c0,.8,3,2.9,3.4,2.5M19.4,205l-14.4-76.7c-.9,20.3.2,40.7-.3,61,0,1.7-1.1,4.1.4,5.3l14.3,10.4h0ZM522.1,140.4l-11-10.1c0,1,0,1.9.1,2.9.1.3,4.3,5.3,4.7,5.7,1.2,1,4.5,1.3,6.1,1.6M514.6,138.3c-.9-.9-1.8-2.1-2.6-3-.3-.3-.4-.6-.9-.4v2.6c.1,0,3.5.9,3.5.9h0ZM136,223.7v-17.7c.2-.7.6-1.3,1.2-1.7,1.4-.3,2.8-.4,4.2-.5,22.7,0,45.4.8,68.1.9,9.2,0,18.4,0,27.6-.1l-.3-56.6-190.3-.4.4,76.1h77.6c-.2-1.9.3-4.3,0-6.2,0-.6-.6-.3-.6-.8-.6-4.4,0-11.6-.3-16.5,0-2.7.2-5.4-.3-8.1.7-12.6-.6-26.2.3-38.7,0-.5,0-.9.4-1.3,1.2,0,1,10.8,1,12,.4,11.6,1.1,23.3.6,34.9-.3,6.1.2,12.2.3,18.2,0,2.2,0,4.3-.3,6.5h10.4ZM43.1,222.6v-68.4c0,0-18.4,54.7-18.4,54.7l18.4,13.7h0ZM437.8,174.4l-14.1-1.1v3.2l14.1.6v-2.6h0ZM450.5,173.8c-3.6-.2-7.1,0-10.7.6v5.1c-.1.2-.3.3-.5.4-1.2.4-5.3-.7-6.9-.8-2.8-.2-5.9,0-8.8-.3l-.3,50.3c8.7,5.7,18.8,9,27.1,15.2v-19.6l-6.1.3v.6c-1.8-1.1-4.2-.1-6.5-.3-1.4,0-2.8-.6-4.2-.6l.5-1.5c1.9-.2,3.8.4,5.7.3.4,0,.8.2.7-.4l-13.9-10.2c6,2,10.5,6.8,15.6,10.3l8.1-.5v-48.8h.2ZM4.4,196.6v14.9l14.3,13.1c.4-2.4,2.5-6.3,2.6-8.6-.3-2.8-.9-5.6-1.7-8.4l-15.2-11.1h0ZM195.9,244.2h121.6l-62.5-37.2c-31.2,0-62.5-.9-93.7-1.2-6.6,0-13.2,0-19.8.2,7.3,6.4,15.9,11,23.9,16.5,9.1,6.2,20.6,13.6,28.7,20.6.5.3.9.8,1.1,1.4.2.2.6-.3.7-.3M342.9,244.2l-62.3-36.8-22-.4.8.8,61.7,36.4h21.8ZM348.5,244.2h92.5l-11.7-5.7c-17.8-11.9-37.4-20.6-56.6-30-28.9-.7-57.9-.4-86.8-1.2h-1.3l61.9,36.5c1-.6,1.7.4,2,.4M165.4,370.3v-142.7c0-.2.7-.8-.1-1.3l-18.6-13.4-7.5-4.5.2,133.9,26.1,28h0ZM23.1,210.2l-1.7-.9.6,4c.4,0,.4-.5.5-.8.3-.8.5-1.5.6-2.3M43.1,246.5v-21.2l-18.7-13.9h-.7c-.2,1.6-1.1,3.1-1.2,4.7,0,1.3,2.1,13.6,2.6,14.4l17.9,16h.1ZM4.4,266.1c2.4-7.5,5.1-14.9,8.3-22.2l5.3-17.2-13.6-12.6v51.9h0ZM23.7,229.2c-.7-3.1-.8-7-1.8-9.9-.1-.3-.1-.7-.5-.8l-2,6.7,4.3,3.9h0ZM136,224.9H46.8v21.4l89.2-.4v-20.9h0ZM39.9,327c-.7-7.3-2.6-14.3-3.7-21.5-1.6-10.1-2.4-20.4-3.9-30.5-2.1-14.5-5.6-29-8.3-43.3l-5.5-4.5c-3.5,10.9-6.9,21.9-10.3,32.8-1.1,3.5-4.7,12-4.3,15.1.3,2.3,2,3.6,3.2,5.4,9.3,14.3,18.6,28.6,29.2,42.1,1.1,1.5,1.8,3.4,3.6,4.3M166.9,227.8v144.1l24.8,26.8.9.4v-149c-.1-1.1.8-2.2,0-3.1-8.1-6-16-12.8-24.3-18.4-.3-.2-1.2-1-1.4-.8M43.1,330.8v-81.5c0-.8-3-2.8-3.8-3.5-4.2-3.9-8.2-8-12.6-11.7-.3-.2-1-.8-1.3-.7,1.8,10,3.7,20.1,5.4,30.1,3.1,18.2,6.1,36.5,8.8,54.7.5,3.4.8,6.8,1.3,10.1,0,.3,1.8,2.8,2.2,2.5M196.2,246.8l-.3,156.4h125.4c0,.1,0-156,0-156l-.4-.4h-124.7ZM344.6,246.8h-21.9c.2,15.4.4,30.9.3,46.3,0,.9-.3,1.7-.3,2.6v82.5c5.3,3.2,11.1,6.3,15.6,10.6l-15.6-9.5v23.5c0,.2.5.6.3,1h20.8c.1-33.6-.2-67.2,0-100.9,0-16.8-.5-35.3.3-51.9,0-1.3.5-2.8.6-4.2M448.2,246.8h-102.7l.6,157,102.1-.3v-156.7h0ZM136,248.3l-89.2.3v87.6c.2.2.4.4.7.4,1.7.3,4.7,0,6.7,0,21.2.8,43,0,64.3,0s11.2,1,16.4.3c.3,0,.6,0,.9-.3,0-.4.1-.9.1-1.3v-87h0Z"/>
          <path id="Path_6103" class="st1" d="M484.7,147l.4,44.1-12.1-.3v-43.8c-2.6-.2-5.3-.4-8-.3-.8,0-1.4.5-2,0-.9-.6.2-1.3.5-2.1,2.9-7,5.8-13.9,9.1-20.7.4-.8,2.7-4.5,3.3-4.8.8-.4,1.8-.3,2.4.4,3.4,5.8,7.6,11.2,11.1,16.9,1.4,2.4,3.5,5.8,4,8.4.2.9,0,1.4-.8,1.7-.2,0-2.1.4-2.2.4h-5.8.1Z"/>
          <path id="Path_6104" d="M200.3,97.4h-2.1c-2.1-.3-13.7-4.4-15.1-5.7-.3-.3-.5-.4-.4-.9.7-1,7.2,1.3,8.4,1.8,3.1,1.1,6.7,2.6,9.2,4.8"/>
          <path id="Path_6105" d="M312.3,172.1c-.2.8-1.5.3-2.1.2-5.3-.6-13-3.1-18.2-4.9-.5-.2-1.9-.3-1.6-1.1,7.6.6,15,2.6,21.9,5.8"/>
          <path id="Path_6106" d="M308,162.9c0,.6-1.2.3-1.5.2-6.2-.6-13-3.3-18.9-5.3,1.8-1,4.6,0,6.6.4,4.8,1.1,9.5,2.6,13.9,4.7"/>
          <path id="Path_6107" d="M305.4,150.5c-.1.6-.8.6-1.3.6-2.3,0-11.3-2.3-13.3-3.4-.3-.2-.5,0-.4-.6,5.2.1,10.3,1.3,15,3.5"/>
          <path id="Path_6108" d="M194.3,106.9c-.6.5-7.8-1.9-8.9-2.5s-1.5-1.4,0-1.5c2-.2,6.5,1.8,8.1,3.1.3.3.8.3.6.9"/>
          <path id="Path_6109" d="M195.4,100.8c-2.4-.2-4.8-.8-7-1.8-1.3-.5-2.6-1-3.9-1.6-.4-.2-.8-.3-.7-.9.7-.6,10.7,2.6,11.5,4.3"/>
          <path id="Path_6110" d="M310.6,178.7c0,.5-.9.3-1.3.2-3.5-.6-7-1.6-10.4-2.9-.6-.2-1.6-.5-2-1.1,4.7.7,9.2,1.9,13.6,3.8"/>
          <path id="Path_6111" d="M194.6,87.8c-3.2-.8-6.3-1.9-9.2-3.3-.4-.2-.7,0-.6-.7.4-.3,9.1,2.9,9.8,4"/>
          <path id="Path_6112" d="M192.6,81.8c-2.2-.3-5.1-1.1-6.6-2.6,2.4.2,4.7,1.1,6.6,2.6"/>
          <path id="Path_6113" d="M309.4,185.1c-2.1,0-4.1-.4-6.1-1-.5-.1-1,0-.8-.8,1.7.1,3.4.4,5.1.8.6.2,1.6.2,1.8.9"/>
          <path id="Path_6114" d="M229.1,367.8c-2.1-2.2-2.3-4.1-2.5-7.1-1.3-20.2,1-41.7,0-62,0-2.9,1.4-5.7,3.8-7.5,1.9-1.4,3.1-.5,5-.4,22.4.4,44.9-.3,67.3,0,2.9.3,6.2,4.2,6.5,7.1,1.1,10.4-.8,22.9,0,33.5.7,8.1.3,16.4,0,24.5-.2,5.7,1.3,9.4-3.6,13.4-1.2,1.1-2.7,1.7-4.3,1.7h-63.8c-3.4-.5-5.9-.6-8.3-3.1M239.2,292.2l-8,.6c-1.9,1.6-2.5,3.1-2.9,5.5-2.6,16.2.6,35.6-.6,52.2,1,3.7.6,11.7,2.9,14.7.9.8,2,1.5,3.1,2.1,2.8,1.5,7.9,1.9,11.2,2.1,17.5,1,35.8-.8,53.4,0,4.1-.5,7.3-1.6,9.1-5.6l.2-59.5c-.6-3.6-1.6-11.2-6.2-11.7-6-.6-12.7.7-18.8-.3l-43.5-.2h0Z"/>
          <path id="Path_6115" d="M124.7,333.9c-.8-.3-.8-1.2-.9-1.9-.8-9.3,1.1-18.8.3-28l.4-9.7c.7,3.8.4,7.8.4,11.7v6.6c0,7.1.2,14.2-.3,21.2"/>
          <path id="Path_6116" d="M124.4,269.8c0-.1.4-.4.6-.4.2,3.4,1,7.4.6,10.8,0,1.1-.8.9-.9,1.2,0,.4.3,1.5-.3,1.5,0,0,0-13.1,0-13.1Z"/>
          <path id="Path_6117" d="M271,40.2c-5.1-1.2-10-3.3-14.4-6.2-.3-.2-1.9-1.1-1.5-1.6,5.4,2.2,11.1,4.5,15.9,7.8"/>
          <path id="Path_6118" d="M273.4,37.6c-5.8-2.5-11.5-5.3-17-8.5-.4-.2-.7,0-.6-.7.8-.6,16.3,7.1,17.6,9.2"/>
          <path id="Path_6119" d="M272.5,31.6c-.5.5-10.4-4.8-11.5-5.6-.4-.2-.7-.6-.9-1,3.2.8,6.3,2.1,9.1,3.7.4.2,3.8,2.4,3.3,2.9"/>
          <path id="Path_6120" d="M176.4,38.8v.6c-4-1-7.8-2.3-11.5-3.9-.5-.2-1.5-.5-1.7-1,4.7.3,9,2.6,13.3,4.3"/>
          <path id="Path_6121" d="M184.2,50.6c-2.5-.7-4.9-1.8-7.1-3.1-1-.5-1.9-1.1-2.7-1.8,3.6.9,6.9,2.6,9.8,4.9"/>
          <path id="Path_6122" d="M180.4,44.6c0,.5-.6.2-.9.2-1.7-.6-3.4-1.3-5.1-2.1-.4-.2-1.4-.5-1.5-.9l7.5,2.9h0Z"/>
          <path id="Path_6123" d="M324.7,294.1v-.6c1.1-.1,3.8,1.4,4.8,2,1.5.8,10.1,6.3,10.2,7.4,0,.1-.6.6-.9.3l-14.1-9.1h0Z"/>
          <path id="Path_6124" d="M339.1,277.7l-13.6-8.1c3.3,1.2,6.4,2.8,9.3,4.7,1.3.7,2.5,1.5,3.6,2.4.3.3.7.4.6,1"/>
          <path id="Path_6125" d="M338.6,293l-14.7-8.6c5.3,2.1,10.3,5,14.7,8.6"/>
          <path id="Path_6126" d="M336.3,307.7l-10.7-6.9c1.5,0,3,1.1,4.3,1.9,2.4,1.4,4.5,3.1,6.4,5"/>
          <path id="Path_6127" d="M336.5,269.9l-9.2-4.9c3.5.8,6.6,2.5,9.2,4.9"/>
          <path id="Path_6128" d="M334.2,373.5c-1.9-1-3.8-1.9-5.6-2.9-.5-.3-1.7-.7-1.6-1.4,1.6.6,3.2,1.3,4.7,2.1.4.2,3,1.8,2.5,2.2"/>
          <path id="Path_6129" d="M332.5,397.1c-2.3-.7-4.5-1.9-6.4-3.5,2.3.7,4.5,1.9,6.4,3.5"/>
          <path id="Path_6130" d="M336.8,315.5c-2.1-.7-3.9-1.9-5.5-3.5,2.1.7,4,1.9,5.5,3.5"/>
          <path id="Path_6131" d="M332.8,392.2c-2.1-.9-4.1-2.1-5.8-3.8,2.1.9,4.1,2.2,5.8,3.8"/>
          <path id="Path_6132" d="M362.2,67.4c2.6-.4,3,2.7,4.1,4.4,1.4,0,2.3-.3,3.8,0,1.9.4,6.9,4.6,4.9,6.4-1.6,1.5-3.1-1.9-4.3-2.9-2.8-2.2-3.7.3-5.6-.8-1.2-.7-1.4-3.6-2.7-4.6-1.6-.5-4.3,4.5-5.4,5.2-.4.2-.6.5-1,0-.4-.3-.3-.8-.3-1.1.2-2.2,4.4-6.4,6.6-6.8"/>
          <path id="Path_6133" d="M428.2,70c2.1-.6,3.5,1.6,4.8,2.8.6.5,3.1,1.8,2.7,3-.9,2.9-5.8-3.9-7.3-3.2-2,1.1-2.2,6.9-3.3,7.7-.5.3-1.1.2-1.4-.3,0,0,0,0-.1-.2-.5-1.5,1-6.1,2-7.4.8-.9,1.6-1.7,2.5-2.4"/>
          <path id="Path_6134" d="M434.9,101.1c-.9-.2-1.9-.5-2.7-.9-3.4-1.5-6.7-3.2-9.9-5.1-.4-.2-.8-.3-.7-.9.9-.8,12.2,5.2,13.3,6.9"/>
          <path id="Path_6135" d="M429.8,155.4l-10.7-4.9c3.6.8,7.9,2.4,10.7,4.9"/>
          <path id="Path_6136" d="M430.3,144.1l-11-4.9c2.2.5,4.3,1.2,6.2,2.2,1.7.7,3.3,1.6,4.7,2.6"/>
          <path id="Path_6137" d="M432.1,136.9c0,.6-.9.2-1.2.2-2.2-.6-4.3-1.4-6.4-2.2-.4-.2-1.3-.4-1.4-.8,3.1.3,6,1.8,8.9,2.9"/>
          <path id="Path_6138" d="M430.3,149.3c-3-1.5-6.3-2.7-9.2-4.5-.3-.2-.8-.3-.9-.7,3.5,1.5,7.1,2.9,10.1,5.2"/>
          <path id="Path_6139" d="M432.6,104.6c-2.3-1-4.7-1.9-6.9-3-.3-.2-.8-.3-.9-.7,2.8.8,5.4,2.1,7.8,3.7"/>
          <path id="Path_6140" d="M431.5,93.1v.6c-1.8-.9-4.1-1.1-5.5-2.3,2-.2,3.7,1,5.5,1.7"/>
          <path id="Path_6141" d="M425.4,164.9l-2-.7-3.2-1.9c2,.2,3.8,1.1,5.2,2.6"/>
          <path id="Path_6142" d="M133.4,242.2c-.4.5-2.5-2.3-2.7-2.6-2.4-3.1-4.2-6.6-6.5-9.8.5-.5,3,2.8,3.3,3.2,2,2.6,3.9,5.2,5.6,8,.2.4.5.6.4,1.2"/>
          <path id="Path_6143" d="M127.1,241l-11-12.7c.7-.7,10.8,11.2,11,12.7"/>
          <path id="Path_6144" d="M65.3,232.7l8.4,11.2c-.3.3-1.8-1.3-2-1.6-2.6-2.8-4.6-6.5-6.9-9.5h.6c0-.1,0,0,0,0Z"/>
          <path id="Path_6145" d="M121,241.3c-2.8-2.6-5.4-5.5-7.8-8.5-.7-.7-1.3-1.5-1.7-2.4.2-.2,3.3,3.1,3.6,3.5,1.5,1.7,3.4,3.8,4.7,5.6.5.5.9,1.2,1.2,1.9"/>
          <path id="Path_6146" d="M115.8,241.9c-.4.3-2.6-2.1-2.9-2.5-1.2-1.3-2.6-3.2-3.7-4.7-.8-.9-1.4-1.9-1.8-3l8.4,10.1h0Z"/>
          <path id="Path_6147" d="M67.3,243.9c-.5.1-.7-.3-1-.6-3-2.5-5.7-6.3-7.9-9.5l9,10.1h0Z"/>
          <path id="Path_6148" d="M77.7,241.9c-.3.3-1.3-.9-1.6-1.1-1.9-1.9-3.6-4.6-5.3-6.6.5-.1.7.3,1,.6.9.8,1.8,1.7,2.6,2.6.4.5,3.6,4.3,3.3,4.6"/>
          <path id="Path_6149" d="M61.5,243.6c-1.4-.4-2.2-2-3.3-2.9l-3-4.3,6.3,7.2h0Z"/>
          <path id="Path_6150" d="M55.5,241.6c-.3.3-3.5-2.8-3.2-3.2.6,0,3.5,2.8,3.2,3.2"/>
          <path id="Path_6151" d="M442.7,212.8c-3.4-1.1-6.2-4.4-8.7-6.9,1,.4,1.9,1,2.7,1.7,2.1,1.6,4.1,3.3,5.9,5.2"/>
          <path id="Path_6152" d="M442.2,231.5c-4-1.9-7.8-4.2-11.3-6.9,4,1.8,7.8,4.2,11.2,6.9"/>
          <path id="Path_6153" d="M312.9,230.4c0,.6-1.4.3-1.8.2-2.8-.3-5.6-.8-8.3-1.5-.3,0-.9,0-.8-.5,3.7.4,7.3.9,11,1.7"/>
          <path id="Path_6154" d="M301.9,222.9v.6c-3-.8-6.1-.8-8.9-1.7-.4-.1-.9-.1-1-.6,3.3.3,6.6.9,9.8,1.7"/>
          <path id="Path_6155" d="M327.3,241.1c0,.5-.7.3-1,.3-.9-.2-1.9-.4-2.8-.7-1.4-.4-3.4-.9-4.3-1.9l8.1,2.3h0Z"/>
          <path id="Path_6156" d="M251.1,350.4c.5,4.5-1.1,8.8-1.7,13.2-.9.1-1.8.6-2.7.6-2.4-.1-4.8-.4-7.2-.9-.7-.2-1.2-.7-1.5-1.4-.6-1.4-.6-9.1-.4-10.9,0-.4.2-1.2.6-1.4,1-.6,5.7,0,7.1.1,2,.1,4-.3,5.9.6"/>
          <path id="Path_6157" d="M253.4,304.3c9.4-.2,18.8,0,28.2.2,1.8,0,6.9-.4,8.2.2,1.1.5.6,1.3-.4,1.5-1.8.4-5.2,0-7.2,0-10.6.4-21.1.4-31.7,0-3-.1-6.3.2-9.2-.3-1.1-.2-1-1,.3-1.2,3.9-.4,8-.4,11.9-.5"/>
          <path id="Path_6158" d="M239.5,312c2.2.3,4.4.4,6.6.3.8,0,1.5-.3,2.3-.3,15.4-.3,30.9.1,46.3.1.4.4.4,1,0,1.4,0,0-.2.1-.2.2-.8.5-6.9.4-8.4.3-14.6-.3-30.5-1.1-45-.6-1.1,0-3.1.9-1.7-1.4"/>
          <path id="Path_6159" d="M289.5,321.5h-48.6s-.5-.6-.7-.7l.4-.7h48.5l.4,1.4h0Z"/>
          <path id="Path_6160" d="M294.7,347.8l-8.6-3.9c0-1,3.8.2,4.2.4.5.2,5.2,2.8,4.4,3.5"/>
          <path id="Path_6161" d="M293.3,353c-2.7-1.1-5.3-2.6-7.6-4.4-.4-.3-4.1-2.9-3.7-3.4l11.3,7.8h0Z"/>
          <path id="Path_6162" d="M292.7,358.2c-3-.5-6.1-3.1-8.2-5.2s-1.9-1.7-1.6-2l9.8,7.2h0Z"/>
          <path id="Path_6163" d="M288.1,359.3c-2.1-.7-4.1-1.6-6-2.8-.4-.2-.8-.3-.7-.9,2.2,1,4.9,2,6.6,3.8"/>
        </g>
      </g>
    </g>
  </g>
</svg>