<?xml version="1.0" encoding="UTF-8"?>
<svg id="Layer_2" xmlns="http://www.w3.org/2000/svg" xmlns:xlink="http://www.w3.org/1999/xlink" version="1.1" viewBox="0 0 554.3 176.7">
  <!-- Generator: Adobe Illustrator 29.6.1, SVG Export Plug-In . SVG Version: 2.1.1 Build 9)  -->
  <defs>
    <style>
      .st0 {
        fill: none;
      }

      .st1 {
        fill: #ff5c8a;
      }

      .st2 {
        fill: #fff;
      }

      .st3 {
        clip-path: url(#clippath);
      }
    </style>
    <clipPath id="clippath">
      <rect class="st0" y="0" width="554.3" height="176.7"/>
    </clipPath>
  </defs>
  <g id="Layer_1-2">
    <g>
      <path class="st2" d="M43.4,117.4l1.8-27.6,6.6-17s6-6.8,6.6-6.8,10.1-6.2,10.1-6.2l9.7-2,33.9,4.4,7.9,2.7,6.2,4,5.5,6.4,4.6,11.5,2.7-.6,18-8.2,20.5-8.5,13.7-4.3,8.7-1.8,13.7-1.5,12.8-1.3,19.2-.7h21.5l9.3-.7,3.5-1.9,4.2-3.7,5.6-5.4,3.5-1.9,6.3-1h8.5c0,0,14.8,0,14.8,0l3.6-.8,5.4-2.5,2.3-5.7-6-1.9-.5-4.9,3.2-8.1,1.3-4.4,3.8-3.3,5.2-2.1-.4-5.1-11-.4-1.2-3.3,2.1-1.3h17.2l7.8-.5,5.5,4.3-1.5,3.1-5.6-.2-.5,3.3,12.5,3.5,14,6.7,7.3,3.8.6-6,3.8-1,127.6.5,1.2,6.7s-.8,26.1-.6,26.6,5.4,2,5.4,2l9.7,2.5,6.9,4.2,6.2,9.3,3.5,10.7.7,15.6-1.2,16.2s-6,15.9-6.1,16.2-8.6,10.7-8.6,10.7l-8,3.1s-9.9.6-10.7,1-28.2-.1-28.2-.1l-8-4.3-6.2-9.4-19.6,2.6-16.2,4.4-26.3,6.9-46.1,2-42.6-1.4s-3.5,6.1-3.5,6.4-9.1,13.6-9.1,13.6l-8.2,5.7-14.2,4.7-21.2,1-19.8-4.5-11.9-8.1-7.9-10.1-1.4,1,.4,7.5-26.4,3.1-35.7,3.5-2.8-7.8s-32.9-2.6-33.6-2.5-18-1.9-17.7-1.9-17.4,2-17.4,2l-12.9-2.5-8.8-5.2-13.4-1.6-26.7-4.1-13.5.8-10.5,2.8-5.4.7-1.4-6.2,1.3-6.4,3-4.3,9.3-3.7,10.9-1.8,17.2-9.1h0l.2-.2Z"/>
      <g class="st3">
        <g id="Group_9161">
          <path id="Path_7273" d="M359.6,9.4c2.3-.4,4-3.3,2.7-5.4-.5-.8-4.4-3.5-5.2-3.7C355.7,0,351,0,349.4,0,344.7,0,339.3.3,334.6.5c-1.1,0-7.5.7-7.9,1.2-1.1,1.7,4,5.3,5.3,6.1,2.9.2,5.8,0,8.7-.3-.6,1,.2,1.9-.1,2.8-.7.3-1.6.4-2.4.6-8.1,2.7-8.8,9.2-10.7,16.5-.6,2.2-1.5,3.1-1.1,5.7.5,3.6,3.4,3.3,6,4.1.3,0,.4-.2.4.4-.2,2-3.5,5.4-5.5,5.9-5.5,1.3-13.8,0-19.6.2-4.5,0-11.7.2-15.6,2.2-3.4,1.7-5.7,4.9-8.5,7.3-9.4,8.1-17.8,5.5-29.3,5.5-17.2,0-35,.9-52.1,3.2-17.1,2.4-37.3,11-53.2,17.9-3.8,1.7-7.6,3.5-11.3,5.5-2.4-6.4-5.8-13.5-11.2-17.9-8.7-6.8-26-8.7-36.9-10.2-6.6-.9-11.2-1.1-17.7.5-3.2.8-10.1,3.6-12.9,5.4-6.9,4.5-14.2,20.6-15.6,28.5-1.2,7-1.5,13.1-1.6,20.2,0,1.9,0,3.9,0,5.8-3.1,1.4-6,3.1-9.1,4.2-7.3,2.6-15.6,4.3-22.8,7-2.5.9-5.8,2.9-7.1,5.3-2.3,4.4-3.9,9-1.7,13.8.8,1.7,1.5,2.4,3.4,2.2,6-.7,12.3-3,18.6-3.6,16.7-1.6,33.2,3.6,49.6,5.7,2.1,2.1,3.8,3.6,6.6,4.8,6.5,2.6,15.4,3.7,22.3,2.6,3.9-.6,7.9-2.6,11.9-2.5,5.3.2,11.4,1.6,16.8,2.2,7.5.9,15.5,1.9,23,2.5,3,.2,6.1.3,9.1.3.9.3.4,7,3.5,7.4,4.2.4,10.4-1,14.8-1.5,15.1-1.5,30.2-3,45.1-5.2,3.4-.5,4.6-.8,4.5-4.7,1.2,1.1,1.9,2.5,3,3.7,13.3,15,28.9,15.6,47.9,14.5,5.6-.3,15.3-.4,20.2-2.7,9.9-4.8,17.5-13.6,22.7-23.2.6-1.2,1.1-2.4,1.6-3.6,1.4-.3,2.7.4,4,.5,6.7.7,13.7.4,20.5.5,25.9.4,56.1,1.1,81.1-6.1,5.5-1.6,10.9-4.3,16.4-5.9,7.6-2.2,15.2-2.9,23.1-3.3,1.4,0,3.4-.5,4.7-.5s1.2,1.6,1.7,2.5c4,6.5,6.8,9.5,14.6,11.1,6.3,1.3,12.9.4,19.4.3,6.5,0,15.7,0,21.8-2.1,9.1-3,14.5-15,17.5-23.4,5.2-14.6,6.8-44.1-3.8-56.6-4.9-5.8-10.5-8.6-17.7-10.7-2.1-.6-4.2-.9-6.3-1.6.6-3.6-.4-7.2-.4-10.8,0-6.5.9-11.5.3-18.2,0-1,.3-4-.5-4.4-.9-.2-1.9-.3-2.8-.4-18.2-1.1-37.3-.1-55.6-.2-8.2,0-16.2-.6-24.4-.5-11,.2-22.1.4-33.1.5-4.7,0-9.7-.3-14.3,0-4.2.3-5.3.9-6.5,4.8,0,.3.2.4-.4.4-4.2-2-8.3-4.8-12.5-6.7-3.3-1.5-6.9-2.4-10.2-3.9l-7.5-2.5c1.5-.2,3.6.2,5.1,0M330,2.7l16.9-.2c2.4,0,5.5-.8,7.9-.7,1.3,0,1.1.4,1.8.9.5.4,2.6,1.8,2.8,2.1,1.6,2.1-2.8,1.9-3.9,1.9-4.6,0-9.2-.7-13.8-1-2.8-.2-5.8.2-8.6-.2-1.5-.2-2.5-1.4-3.1-2.7M342.1,7.2l9.9.7c-.9,2.1-.2,4-.2,6.2l-9.4-3-.2-3.9h0ZM353.8,12.6c3.5.9,6.9,1.8,10.3,2.9,15,4.9,32.5,18.2,42.6,30.2l12,16.3c-.2.2-4.7-1.9-5.4-2.2-10.3-4.8-23.5-10.4-34.6-13-6.3-1.5-12.7-2.7-19.1-2.8-1.6-2-2.5-4.4-4.6-6-5-3.8-16.7-2-23.3-3.4-5.1-1-2.1-4.5-1.1-7.6.5-1.7.7-3.5,1.2-5.2,1.3-4,3.9-7.9,8.4-8.3l13.1,3.7c1.7-.2,0-3.3.4-4.4M496.6,19.8h22.1c0,5.1.5,10.3.5,15.4s-.3,1.1-.3,1.7c0,5,.2,10-.2,14.9-9.1.2-18.4,0-27,3.4-2.5-2.3-3.9-5.4-4.1-8.7-.6-8.1.6-16.2,5.6-22.8,1-1.4,2.5-2.5,3.4-4M417.5,19.8h74.1c-.7,1.8-2.1,3.4-3.1,5.2-3,5.4-4.3,11.8-4.6,18h-77.8l-5.6-5.8c4.1-1.8,7.8-3.2,10.9-6.6,2.7-3.2,4.8-6.8,6.2-10.7M415.7,19.8c-1.7,3.5-3.5,7.5-6.5,10.1-2.8,2.5-6.8,4.1-10.1,5.8l-9.5-8c0-2.7.5-5.9,2.3-8h23.8ZM289.3,58c4.3-.9,6.1-5.1,9.1-7.5,2.2-1.8,6.2-4,9-4.1,6.4,0,13.9.6,20.2-.6,3.8-.7,7.4-5.7,8.2-9.3l.3-.2c.8-.2,1.5.2,2.2.2,3.7,0,8.1-.5,11.8,0,1.5.3,2.9,1.1,3.8,2.4l-3.4,4.9h-1.7c.3-.3.6-.6.8-.9.6-.8,2.6-3.5,2.9-4.3.2-.5-.3-.5-.6-.3-1.4.6-4,4.5-4.8,5.9-2.6.8-5.8,1.1-8.3,2-5.6,2-6.2,11.4-11.8,12.4-12.4,0-24.8.3-37.2-.4-.3,0-.7.2-.6-.2M352.3,43.7c.3-.5,2.4-4.1,3-3.7l.6,1.7c-1.3,1.2-1.5,2.4-3.6,2M418.4,45.2l18.2-.5c15,.9,30.1-.8,45.2.2.7,0,1.4.3,2.2.2,1.2,4.2.8,8.7,3.4,12.5,0,.7-1.5,1.5-1.9,1.9-2.9,3.2-4.8,7.1-6.8,10.9l-26.3,5.8c-.5,0-.3,0-.3-.3.2-.9.7-3.3.6-4.1,0-.4-.3-.7-.6-.8l-28.6-7.7c-1-.5-5.1-7-5.1-7.5v-10.7h0ZM285,58.5c-1.4.2-3.2-.2-4.6,0l4.2-3.3c4.3-4.4,8.6-8.4,15.2-8.8.3,0,1.5-.2,1.6.2-1.1.8-2.9,1.7-3.8,2.7-1.7,1.7-2.9,4.2-4.9,5.7-1.2.9-6.2,3.2-7.6,3.5M338.4,51.5c1.5-1.6,1.7-2.7,4.2-2.9,9.6-.8,19.2-1,28.9-.5,11.8.6,22.9,4.9,33.7,9.5,11.5,4.9,20.1,8.4,27.8,18.6,1,1.3,2,2.7,2.9,4.2l-13.2-1.9c-1.7.5-3.4-.2-5.2,0-.3,0-.7,0-.4.5,3.9.9,7.9.9,11.9,1.6,10,1.8,27,7.8,34.3,14.8,6,5.7,3.4,12.4-2.9,16.4-6.6,4.2-15.7,4.8-23.3,6.3-11.9,2.3-25.2,5.8-37.4,5.4-3.9,0-6.1-.3-9.4-2.2-2.9-1.6-5.8-3.7-8.4-5.5-13.8-7.5-28.3-16.2-40.7-25.9-.7-.5-4.1-3.6-4.3-4.1-.3-.9.1-1.3.6-2,4.6-6.6,20.2-11.1,27.9-12.1,4.1-.6,9,0,13-1.1.2,0,.7,0,.7-.4-2.5,0-5-.3-7.5-.2-10.4,0-21.7.4-30.6,6.4-3.8-.3-7.8-.7-11.6-.8-3.5,0-7.9.5-11.4,0-1.5-.2-6-4.4-7.9-5.5-8.5-4.8-23.1-6.1-32.9-6.6-5.8-.3-11.9-.6-17.5,1-4.2,1.2-8.7,4.3-12.7,5.1-6.2,1.2-12.6,1.6-18.8,2.9-6.4,1.3-11.6,3.9-17.7,6-5.6,2-11.4,3.8-16.9,6-2.2.9-6.4,3.3-8.3,3.8-.7.2-2.3-.3-3.3-.2-1.8.2-3.4,1.7-2.9,3.6l-.2.3c-3.5,1.3-6.6,3.5-9.9,5.2-4.6,2.4-9.3,4.4-13.8,7-17.9,10.2-33.7,23.7-52.3,32.9-7.3,3.6-15.6,3.6-23.5,3.4-1.3,0-9,0-9.5-.5-1.1-2,0-5.1,1.2-6.9,1.8-2.8,8.1-6.1,11-8.2,6.1-4.4,11.8-9.4,18-13.9,19.6-14.1,43.8-27,66.4-35.5,11.6-4.3,24.5-9.6,36.7-11.2,22-2.8,44.4-3.4,66.7-3.2,16.1.2,32.4,1.2,48.6,1,.6,0,1.2-.3,2-.3,5.6,0,9.8,2,13.3-3.5,1.7-2.7,2.3-4.3,4.5-6.7M488.7,61.8c1.8-1.7,2.9-3.4,5.5-4,3.8-1,7-1,10.8-1.3,6.8-.5,14.2-1.1,20.9,0,1.5.3,2.9.8,4.4.9,0,.3-.3.3-.5.4-2.7,1.1-4.3,1.2-6.9,3-10.8,7.5-14.6,17.2-17.6,29.6-4.2,17.2-4.1,35.4,8.5,49l4.3,3.2c-6.4-.2-12.8.6-19.1.5-8.1-.1-12.1-.3-17.4-6.8-.5-.6-3.4-4.1-3-4.6,4.6-.5,9.5-.4,14.2-1,.8-.1,3.7-.4,3.8-1.1,0-.5-.3-.9-.7-1.2-1.6-1.3-5-2.9-6.9-3.7-4.3-1.8-8.9-3.2-13.5-4.1-.5-.4-1.4-7.2-1.5-8.3-1.5-13.5,3.4-33.4,10.3-45.2,1.6-2.7,2.2-3.2,4.4-5.3M533.5,58.8c2.9.2,7,3.3,8.8,5.5,10.3,11.8,8.9,33.3,6.9,47.8-1.2,8.6-9.1,25.7-17.8,28.9-18.3,6.7-25.5-14.7-26.9-28.6-1-9.5,1.8-24.4,6-32.9,4-8.1,12.5-21.3,22.9-20.7M44.9,116.2v-3.8c.3-8.7.3-16.3,2.6-24.8,2-7.6,8.6-18.8,15.4-22.9,8.3-5,15.4-5.7,24.9-4.7,4.9.5,9.6,1.7,14.4,2,.2.8-.9.4-1.6.5-11.9,2.8-14.7,6.1-21.9,15.4-6.1,7.8-6.4,19.4-6.4,28.8v4.8c-2.3-.5-4.7-.3-7-.5-2,0-4.1-.8-6.2-.5-3,.4-6,2.6-8.6,3.7-1.7.7-3.9,1-5.6,1.9M74.3,111.5c-.6-6.1-.3-12.2.8-18.3,1.7-9.2,3.9-14.3,10.8-20.8,4-3.8,7.1-5.7,12.4-7.3,7.9-2.5,19.4-1.1,26,4.3,5,4.1,9.6,11,10.8,17.4-2.9,1.9-6.6.9-9.9,1.1-4.5-13.2-23.5-14.7-32.4-5-5.8,6.3-8.1,14.5-7.4,23,.2,2.4.9,4.8,1,7.3l-12.1-1.5h0v-.2ZM227.1,126.1c0-1.5-.1-3,0-4.5.3-3.5,1.3-8.8,2-12.3,3-15.2,6.5-25.6,18.4-36.1,4.2-3.7,15.4-7.7,20.9-7.5,5.6,0,13.2.2,18.7,1.1.3,0,1.2,0,1.2.4-12.3,5.6-21.7,16.3-26.8,28.6-3.5,8.6-4.5,18-4.6,27.3,0,6.8.5,15.8,2.3,22.4,2.4,8.7,11.5,20.4,19,25.4l4.9,2.9c-5.5.3-11.2.9-16.6.2-13.3-1.8-26.5-7.7-33.8-19.3-1-1.5-3.4-5.6-3.7-7.2-.2-1.5,1.1-10,1.5-12,.5-2.7,1.6-5.6,2.4-8.3.1-.5-1.1-1.1-1.3-1.1h-4.6.1ZM429.5,68.1l19.9,5.9c.6.4-.3,3.2-.4,3.9l-10.8,2c-2.1-4.5-5.4-8.1-8.7-11.8M297,68.4c8.5.8,12.9,4.1,18.5,10.2,8,8.8,12.4,22.8,12.1,34.5-.2,7.5-.5,14.3-2.2,21.7-2.8,12-5.9,18.3-13.9,27.5-7.6,8.7-22.1,13.5-32.6,7.2-5.7-3.4-14.7-15.6-16.9-21.9-4.7-13.6-4.2-35.1.3-48.8,4.4-13.1,19.4-31.9,34.8-30.5M187.4,88.6c2.3-.9,4.5-1.9,6.8-2.7,13.3-4.9,27.2-10.1,41.1-13,2.7-.6,5.7-.7,8.4-1.1-5.6,5.6-9.4,12.7-12.8,19.8-8.3-1.7-16.8-2.6-24.9-5.2-2.8-.7-5.1,2.8-2.5,4.4,8.4,2.1,17,3.3,25.6,4.7l-.4.7-25.3-3.7c-5.1-1.7-10.4-2.4-15.6-3.4-.4,0-.4.2-.4-.5M441.2,81.4c12.1-2,24.2-4.3,36-7.4l-2.9,10.1-20.7,2.5c-3.8-2.1-8.2-2.9-12.1-4.7-.3,0-.5,0-.4-.5M88.6,112.9c-.2-.2-1-3.1-1.1-3.7-3-13.5,3.7-27.5,17.6-31,2.6-.7,6.8-.2,9.3.7,3.9,1.4,7.6,4.6,8.8,8.6-6.1,0-12.1.4-18.2.3-2,0-3.8-1.2-4.7,1.5-.6,1.6-.7,3,1.3,3.4,2.7.5,8,0,11.1,0s1.1.2,1.7.3c2.3,0,4.6-.2,6.8,0-4.4,2.7-9,5.1-13.3,8-3.2,2.1-6.7,4.6-9.8,6.8-1.7,1.2-5.2,4.5-6.7,5.2-.7.3-2.3.4-2.8,0M319.7,78.2c5.9,0,11.9-.2,17.8.5-.8,1.4-3.1,2.9-3.6,4.4-.4,1.2.2,3.7,0,4.2-.3.6-3.4,3.3-4.2,4.5-.3.4-1.6,2.4-1.4,2.7,2.6-1.7,4.2-4.5,6.5-6.4,2.7,2.4,5.5,4.6,8.5,6.6,10.2,7.3,20.5,14.5,31.6,20.2l8.5,5.2-52.5-10.2-2-11.9c3.1-2,5.2-5.2,7.7-7.9-.4-.4-.3-.3-.6-.2-1,.6-1.9,1.2-2.7,2-1.8,1.7-3.1,3.9-4.6,5.9-.6-3.3-1.9-6.4-3.1-9.5,0-.2,1.2-.8,1.5-1.1,2.1-2,4-4.2,5.7-6.7.2-.3.5-.5.4-1-.7-.6-2.9,1.7-3.3,2.2-1.7,1.9-3.2,3.9-4.4,6.2l-5.6-9.9h0l-.2.2ZM456.5,88.3c5.8-.2,11.6-.7,17.3-2l-2,10.1-4.2.4c-2.8-3.9-7.3-5.8-11.1-8.5M70.6,142.4c2.9.2,5.8.9,8.8.7,9.4-.4,17.7-.9,26.2-5.4,7.6-4,14.5-9.2,21.6-13.9,17.2-11.3,34.6-22.6,53.7-30.7,15.4,2.6,31.1,4.2,46.6,6.9.2,0,.5.2.6.4-1.4,2.2-1.3,5-2.2,7.4l-9.3,2.5-16.9-9.4c-2.3-1.5-7.7.4-5,3.2,1.9,1.9,6.6,3.7,9,5.1l6.2,3.6c-9.2,3.3-18.6,6.1-27.3,10.6-5.8-.3-11.5-.6-17.3-1.2-3-.3-7.1-1.4-9.9-1.4s-1.4,0-2.1.3c-.6.2-.7,1.8-1,2.4-3.8,8.6-12,11.4-18.9,16.7-3.4,2.6-4.5,4.8-4.3,9.2-3.8,1.2-7.7,2.4-11.6,3.4-13.3,3.3-29.5,5.6-41.2-3.2-2.6-2-4.2-4.2-5.7-7M468.1,98.5l3.4-.3c-.3,2.5-1,5.1-1.2,7.5,0,.8.3,3.6-.4,3.8l-3.5-.5c2-3.3,2.4-6.8,1.8-10.6M220.7,112.5l4.7-1.2-.5,3.7-4.2-2.5h0ZM331,122.9v-10s-.5-.6.1-.6c.2,0,.5.2.7.2,10.7,0,21.5,3.5,31.9,5.6,4.2.8,8.5,1.2,12.6,2.2,4.9,1.1,9.6,2.7,14.6,3.7-3.6.3-7.3,0-11,0-7,0-13.9,0-21-.2s-14.2-.5-21.2-.7c-2.3,0-4.5.2-6.8-.2M458,116l4.3-2.2,8.4,1.2,1.1,5.2c-3.9,0-7.8-.2-11.7.5l-2.1-4.7h0ZM190.8,123.9c2-.7,3.6-2.2,5.4-3.1,3.7-1.7,7.6-3.1,11.5-4.3,1.9-.6,3.9-1,5.7-1.7,2.5,1.2,4.7,2.8,7.1,4.2.7.4,3.3,1.4,3.4,2.1.2,1-.6,3.4-.3,4.6l-.6.4c-10.2.6-20.1-1.6-30.1-1.7l-2.1-.5h0ZM4.6,148.3c-1.6-4.8-3.2-9.4.6-13.6,3.6-4,10.8-3.6,15.9-4.6,3.4-.8,6.8-1.8,10.1-3,8.7-3,16.8-9.1,25.6-11.4,2-.4,4-.7,6-.8-3.8,4.9-9.1,8.3-14.7,10.8-2.5,1.1-5.2,1.8-7.7,3-3.6,1.7-4,3.2-4.9,7-2.8.6-5.8,2.1-8.6,2.4-5.6.5-11.9.2-17.5.8-1.7.2-2.5.7-3.1,2.3-1.2,3.3.5,4.2,3.6,3.9l5.1.9-10.4,2.2h0ZM59.3,122c2.5-1.9,4.8-4.1,6.9-6.4,4.1.8,8.2.4,12.3.6,2.1,0,4.4.5,6.4.7.4,0,.6,0,.8.4-2.7,2.2-5.5,4.4-8.2,6.7-4.9,4.2-11.1,8.8-11.3,15.9-2-.2-4-.7-6.1-1-4.5-.5-9-.5-13.5-.8-2.4-.1-4.6.2-7-.6-1.6-2.2-1.4-3.8.2-6,1-.1,1.9-.3,2.8-.7,5.6-2,12-5.3,16.6-9M328.3,138.4c.7-2.2,1.4-4.4,1.9-6.7.3-1.2.8-6.1,1.2-6.7.8-.9,10.3.7,12.1-.2,15.6.6,31.3.4,46.9.5,9.5,0,17.5.6,27.1-.8,8.6-1.3,17.9-2.9,26.4-4.7,4.1-.8,8.2-1.9,12.1-3.1.7,1.3,1.1,2.6,1.7,3.9.5.9,2,2.8,2.1,3.6,0,.3,0,.4-.3.4-4.2.9-8.3,2.4-12.5,3.6-1.1.3-2.3.4-3.5.7-10.4,3.1-24.8,9.1-35.2,9.9-19.1,1.5-38.4,0-57.5.2l-9.6-.7h-13,0ZM461.2,122.6c8.5-.8,17.1.3,25.1,3.4l4.3,2.3-14.7.2c-10.3,1.2-20.5,2.4-30.5,5.1-5.8,1.6-11.5,3.8-17.3,5.4-22.5,6.3-46.4,5.6-69.5,4.8-7.1-.2-14.2-.2-21.2-1h-10.3l.9-3.2h4.4c23.7.7,47.4,1.6,71.1,1.3,9.1-.1,19.6-4,28.1-6.9l30.5-8.4-1-2.9h.1ZM155,124.1c2.6,0,5.2.7,7.8.9,13.3,1.2,26.7,2.1,40,2.7,4.2.2,8.4,0,12.6.3.3,0,.7-.2.6.2-2.5,1.3-5,2.6-7.4,4.1-6.5,4.1-9.3,7.5-17.2,9.9-6,1.8-15.4,2.5-19.9,6.5-1.5,1.3-2.1,2.9-3.2,4.4-1.2,0-2.4.3-3.7.3s-1.3-.2-1.9-.3c-10.1-.3-20.1-1.4-30.1-2.5-1.4-2.2-1.3-5,.2-7.1,1.5-2,7.6-4.6,10.2-6.4,4.7-3.3,9.4-8,12.2-13.1M223.5,128.1c1.8-.2,3.8.1,5.6,0-3,7.2-5.1,15.9-4.2,23.8.3,2.6,1.3,5.1,1.6,7.5,0,.3.2.4-.1.6l-58.9,6.3c-1.8-3.7.1-8.1,2.1-11.4,4.4-7.1,7.8-6.3,15-8.4,5.1-1.5,12.9-3.5,17.2-6.2,2.1-1.4,4-3.2,6-4.6,3.2-2.2,12.1-7.2,15.7-7.6M8.6,143.3l.9-1.9,15.5-.3c1.2-.6,2.6-.3,3.9-.5,1.5-.3,7.2-2.7,7.9-2.6.6,0,.8.8,1.4,1.1,2.8,1.4,8.3.7,11.5.8,3.2.2,7,.4,10.1.8,1,.1,6.2,1.2,6.5,1.9.3,2.4,1.3,4.6,2.2,6.7-2.6-.8-5.3-1.5-8-1.9-3.7-.7-7.6-1-11.3-1.5-4.6-.7-9.8-1.9-14.3-2.2-8.1-.5-16.5.6-24.7,0-.6,0-1.1-.2-1.6-.3M116,154.4c1.9-.3,3.8-.8,5.7-1.4,1.2-.4,8.1-2.9,8.5-2.8.3,0,1,1,1.6,1.3,2.1.9,7.9,1.3,10.5,1.6,6.4.8,12.8,1,19.2,1.5,1.8.1,3.7.7,5.6.9l-1.5,3.3h-2.8c-7.1-.3-14.4-.9-21.4-1.8-2.9-.4-6.1-1.3-8.9-1.4-4.8-.3-9.6,0-14.6-.5-.5,0-1-.1-1.5-.2-.4,0-.4.2-.4-.5"/>
          <path id="Path_7274" d="M297,88.4c-3.5-.4-7,.5-10,2.4-16.2,10.4-16,41.9-5,55.9,6.9,8.7,18.7,9,26.3.9,10.5-11.3,12.5-27.3,7.7-41.8-2.4-7.3-11-16.5-19-17.5M298.5,89.8c-.4.7-1.3.9-2,.5-.2,0-.3-.2-.5-.4.6-.8,1.6,0,2.5,0M294.1,90.3c.6,0,1.1.4,1.6.7,2.2,1.2,9.3,9.9,10.4,12.3,4,9.5,2.2,27.4-3,36.2-3.1,5.2-9,7.4-14,10.4-1.4,0-5.4-4.1-6.2-5.3-2.7-3.7-4.6-8.1-5.4-12.6-1.6-8.8-1.9-17.1.6-25.9,1.4-4.9,3.3-8.7,7.2-12,2-1.7,6.2-4.1,9-3.8M298,91.3c.8,0,1.5-.8,2.3-.7.4,0,4.1,1.9,3.6,2.4l-3.5,1.2-2.5-2.9h.1ZM308.3,96.7l-4,1.4-2.6-2.8,3.6-1.8c.6.2,3.4,2.7,3.1,3.1M304.6,98.9l4.9-1.2,2.7,4.5-5.2,1.3c-.4-1.7-1.5-3.2-2.5-4.7M307.6,104.6l5.2-1.4c.4.6,2,4.3,1.7,4.6l-5.9,1-1-4.2h0ZM308.8,109.8l6.1-1.3,1.2,5.7-6.9.7-.5-5.1h0ZM309.3,116l6.9-1c.2,1.3.3,2.6.2,3.9l-7.2.7v-3.7h.1ZM309.3,120.9l7.4-1-.2,3.5c-.4.6-6.3.7-7.4,1.2l.3-3.7h0ZM309.1,125.6l7.1-1-.5,4.4c-2.4.1-4.8,0-7.1-.2,0,0,.5-3.2.5-3.2ZM308.3,129.8h6.9l-1.1,4.4-6.8-.3,1-4.2h0ZM305.4,138.4l1.9-3.7,6.5.2-1.6,3.7-6.8-.2ZM304.7,139.2l7.1.3c0,.6-1.8,3.7-2.2,3.9-1.1.5-5.6-1-7.2-.6l2.3-3.7h0ZM297.2,147.3l4.1-3.4,7.5.7c.6.5-3.9,4.1-4.6,4.2l-6.9-1v-.5h-.1ZM291,150.8l4.8-2.2,7.3,1c-1.2,2.3-4.3,2.2-6.6,2.7l-5.5-1.5h0Z"/>
          <path id="Path_7275" d="M239.9,105.3c.7,0,.4,0,.6-.5,1.9-3.8,2.2-9.4,3.2-13.6.6-2.4,1.6-4.7,2.1-7.2-.9-.2-1.4.9-1.8,1.6-3.1,5.2-3.3,13.8-4.1,19.7"/>
          <path id="Path_7276" d="M248.1,142.6c.7,0,.4,0,.5-.4.8-3.2-.6-10.2-1-13.8-.2-1.6-.1-3.5-.2-5.2-.1-1.4-.8-1.5-1.2-.2-.7,2.9,0,8.9.5,12,.3,2.6.8,5.1,1.4,7.6"/>
          <path id="Path_7277" d="M243.1,140.6l.5-.4c0-2.7,0-5.4-.2-8.1-.2-3.4-.6-7.3-1-10.6,0-.4-.2-2.4-.6-2.4-.3.2-.5.5-.6.9-.6,2.9.3,11.7.8,15,.2,1.9.6,3.8,1.2,5.6"/>
          <path id="Path_7278" d="M250.8,124.9c-.1,2.7,0,5.3.2,8,.2,2.3.6,6.1,1.2,8.2,0,.3,0,.8.5.9,1.4-5.4-.3-11.3-.8-16.8l-.3-.4-.8.3h0v-.2Z"/>
          <path id="Path_7279" d="M243.4,104.9c.4.5.9-1.2,1-1.3,1.2-3,1.8-6.6,2.8-9.8.4-1.2,1.4-3.3,1.6-4.3,0-.5.1-.7-.3-1.1-1.2,0-3.1,5.6-3.4,6.7-1,3.2-1.6,6.5-1.7,9.8"/>
          <path id="Path_7280" d="M253.8,168.5c0-1.2-.9-2.3-1.5-3.3-2.1-3.1-5.2-5.8-7.2-9-.5.3-.3.5-.3,1,.4,2.5,5,7.7,6.9,9.6.6.6,1.4,1.2,2.1,1.7"/>
          <path id="Path_7281" d="M239.7,134.7c.4-.3.3-5,.2-5.8,0-1.7-.3-4-.5-5.7,0-.4-.3-2.1-.6-2.1-.3.2-.5.6-.6.9-.6,2.3-.3,9.9.8,11.9.1.2.4.9.6.7"/>
          <path id="Path_7282" d="M237.5,101.4c.9-.5,1.1-1.8,1.4-2.7.3-1.1,2.4-8.8,2.1-9.1q-.6,0-.9.4c-.6.8-1.3,3.2-1.6,4.3-.6,2.3-1.2,4.8-.9,7.2"/>
          <path id="Path_7283" d="M257.7,169.7c.5-.5-1.5-3.5-1.9-4.2-1.4-2.3-3-4.4-4.8-6.4,0,.5,0,1,.2,1.4.4,1.2,4.4,7.2,5.4,8.4.3.3.6.8,1.1.8"/>
          <path id="Path_7284" d="M255,160.4c-.1.8.2,1.4.6,2,1.3,2.5,3.7,5.3,5.6,7.4-.3-2-1.9-4.3-3-5.9-.6-.9-1.3-1.8-2-2.7-.3-.3-.6-.8-1.1-.7"/>
          <path id="Path_7285" d="M258.5,160.6c0,3,2.6,5.3,4.7,7.1-.9-2-2-3.9-3.2-5.8-.3-.5-.8-1.4-1.4-1.4"/>
          <path id="Path_7286" d="M481.9,113.2c.4,0,.3-.4.4-.7.5-1.7.2-3.2.3-4.9.2-2.9.6-5.8.7-8.8-.5-.6-1.2,2.1-1.3,2.3-.9,3.9-1,8.1-.2,12"/>
          <path id="Path_7287" d="M488.1,89.6c.8-.4.9-1.4,1.2-2.2.8-2.7,1.2-5.9,1.8-8.7-.5,0-.6.2-.8.6-.6,1-1.1,2.2-1.4,3.3-.6,2.1-1.2,4.8-.8,7"/>
          <path id="Path_7288" d="M485.1,110.5c.6-.3.7-1.5.7-2.1.3-2.9-.3-5.9,0-8.8-.4,0-.5,0-.7.4-1.4,1.7-.3,8.3,0,10.5"/>
          <path id="Path_7289" d="M497.2,92.8c.5,0,.6-.2.7-.6.4-1.1,1.6-7.6,1.5-8.6,0-1-.5-1.2-1.1-.3-.5,1.6-.9,3.3-1.2,5v4.6h.1Z"/>
          <path id="Path_7290" d="M492.5,90.8c.6,0,.7-.5,1-.9,1-2.2,1.7-4.6,2.1-7,0-.4.3-.6-.3-1-.5,0-3.1,7.8-2.8,8.9"/>
          <path id="Path_7291" d="M479.2,103s-.4-.4-.5-.4c-.5,2.6-1.2,5.3-.2,7.9.4,0,.7-1.8.7-2.1,0-1.3.2-4.5,0-5.4"/>
          <path id="Path_7292" d="M485.6,74.8c.6.4,1-.7,1.2-1.1.6-1.4.9-3.1,1.2-4.6-.5-.6-1.9,2.2-2,2.5-.2.5-.9,2.8-.4,3.1"/>
          <path id="Path_7293" d="M533.3,73.6c-6.2-.2-10,7.5-12.2,12.4-5.1,11.1-6.4,22.8-1.7,34.3,5.5,13.4,17.4,9.5,22.5-1.7,3.7-8.1,4.7-23.4,2.8-32.1-1.2-5.6-5.1-12.8-11.5-13M529.8,75.5c1.6-.8,3.5-.9,5.2-.5-1.1,1-3.2.8-4.6,1.4l-.6-.9h0ZM539.2,78.2l-5.8,1.2-1.6-1.8,5.1-1.5c.5,0,2.4,2,2.3,2.1M526.3,124.8c-2.4,2-4.5-4-5-5.6-4-12.7-2.5-27.8,4.6-39.1,1.2-1.9,2.6-4.4,5-2.2,1.6,1.5,4,5.2,4.6,7.3,2.8,10.2.4,27.1-5.8,35.8-1,1.3-2.1,2.6-3.2,3.8M534.2,80.4l5.8-1.2,1.4,2.5-6,1-1.2-2.2h0ZM535.7,83.4l6-1,1.1,3.1c0,.6-3.2.3-3.8.4-.7,0-1.4.4-2.2.3l-1.2-2.7h.1ZM537.2,87.3l5.9-.7.7,3c-2.1,0-4,.8-6.2.5l-.5-2.7h0ZM537.9,91.5c2,.2,4-.3,5.9-.7l.2,4.7-6.2.2v-4.2h0ZM537.7,97l6.4-.5v3.4l-6.4.5v-3.4ZM537.2,104.4c0-.6,0-2.7.7-2.9.4,0,3,.3,3.9.2.8,0,1.5-.3,2.3-.3l-.2,3c-2.3,0-4.4-.2-6.7,0M537.1,105.4h6.5l-.5,4.4-7.4.3,1.4-4.7h0ZM534,115l1.5-3.6,7.2-.3c.2.2-1.1,4.6-1.4,4.7l-7.2-.7h0ZM533.3,116.5c2.5,0,5.1,0,7.6.6l-2.1,3.8-7-1,1.5-3.4h0ZM529.1,123.8l2.1-2.9c2.2.2,4.6,1.2,6.8.7.4.5-2.4,3.2-3.1,3.3l-5.8-1.1ZM526.6,126.1l1.6-1,4.8,1.1c-1.8,1.5-4.2.8-6.3.4l-.2-.5h.1Z"/>
          <path id="Path_7294" d="M373.3,136.7c.5.4,4-2.1,4.7-2.6.9-.7,3.3-2.5,3.9-3.3.2-.3.5-.5.4-1-.6-.6-4.2,2.2-4.8,2.7-.4.3-4.5,3.9-4.1,4.2"/>
          <path id="Path_7295" d="M341.7,134c.7.6,6.8-5,7.4-5.8.2-.3.6-.4.5-.9-.6-.5-3.5,2-4.1,2.5-.5.4-4.3,3.7-3.8,4.2"/>
          <path id="Path_7296" d="M381.9,137.9c.2.2,1.1-.4,1.3-.5.7-.4,5-4.3,5.3-4.8.2-.3.3-.7.3-1.1-.4-.4-3.3,1.9-3.7,2.3s-3.7,3.6-3.2,4.1"/>
          <path id="Path_7297" d="M366.1,135.2c.5.5,6.3-4.7,6.8-5.4.2-.3.5-.5.4-1-.2-.2-1.5.9-1.8,1-1.2.9-2.3,1.8-3.4,2.8-.3.3-2.2,2.3-2,2.6"/>
          <path id="Path_7298" d="M347.6,133.2c.5.4,5.6-4,6.2-4.6.3-.3.8-.6.7-1.1-.4,0-.8,0-1.2.2-1.3.5-4.3,3.5-5.3,4.6-.2.3-.6.4-.5.9"/>
          <path id="Path_7299" d="M353.3,133.7c.5.5,6.1-3.6,6.7-4.3.2-.3.4-.6.5-.9-.5-.4-5.4,3.1-6.1,3.7-.2.2-1.4,1.2-1.1,1.5"/>
          <path id="Path_7300" d="M379.2,135.9c.2.2,5.3-4.4,4.9-4.7-.5,0-1.1.5-1.5.9-1.1.9-2,1.9-3,3-.2.3-.6.4-.5.9"/>
          <path id="Path_7301" d="M339.4,131.5c.2.2,2.6-1.7,2.2-2.2-.4.1-2.6,1.9-2.2,2.2"/>
          <path id="Path_7302" d="M344,17.1c-3-2.8-6.9-3.1-9,.8-1.9,3.5-2.9,7.8-4,11.6-.3,1-1.2,2.2-.8,3,.5.5,4.6.6,5.6.6,3.4,0,8.4,0,11.6-.3,1,0,1.7-.2,1.6-1.3-.1-4.1-2-11.5-5-14.4"/>
          <path id="Path_7303" d="M150.3,141.6c3.6-.9,5.6-4.9,8.1-7.3-.2-.3-.5-.5-.9-.4-.8,0-5.2,4.5-5.9,5.4-.3.3-1.7,1.9-1.4,2.2"/>
          <path id="Path_7304" d="M155.2,142.1c.5.4,4-2.8,4.4-3.3,1-1.1,2.4-2.6,2.7-4.1-.2-.3-5.5,5.1-5.9,5.5s-1.4,1.7-1.2,1.9"/>
          <path id="Path_7305" d="M165.2,135.8c-.3.8-5,5.9-4.5,6.3,2.8-.8,4.4-3.9,5.7-6.3-.4-.5-.7-.4-1.1,0"/>
          <path id="Path_7306" d="M163.6,142.4c.7.7,4.8-4.3,5.1-5.2.4-1.1-.4-1.1-1-.5l-4.1,5.7h0Z"/>
          <path id="Path_7307" d="M147.1,139.4c1,.1,1.7-.7,2.4-1.1l2.7-2.8c-1-.4-5.8,3.5-5.2,3.9"/>
          <path id="Path_7308" d="M60,91.8l10.6-20.2c-.2-.2-1,.5-1.2.6-1.6,1.2-3.6,4.7-4.6,6.5-2.3,4.1-3.9,8.5-4.8,13.1"/>
          <path id="Path_7309" d="M48.8,107.3l.9-1.9c1.3-4.8,2.3-9.7,3-14.6-.4-.5-1.3,1.5-1.3,1.7-1.8,4.3-2.2,10.2-2.6,14.8"/>
          <path id="Path_7310" d="M66.6,88.3c1.1-.6,1.6-1.9,2.1-3,.8-1.6,3.2-7.3,3.5-8.8,0-.5.2-.9-.3-1.3-1.4,0-5.6,11.2-5.3,13.1"/>
          <path id="Path_7311" d="M58.5,86.1c1-.6,1.5-1.9,2.1-3,1.2-2.2,2.3-4.4,3.2-6.7.2-.4.2-.8.2-1.2-.3-.3-1.4,1.1-1.6,1.2-1.9,2.3-3.8,6.6-3.8,9.6"/>
          <path id="Path_7312" d="M52.5,105.1l3.1-10.3c0-1.3-.9-.6-1.3.2-1,1.5-2.4,7.6-2.3,9.3,0,.4,0,.8.5.9"/>
          <path id="Path_7313" d="M69.8,87.8c1-.6,1.5-1.6,2-2.6,1.1-1.9,2.8-5,3.6-7,.2-.3.3-.7.3-1.1-.7-.7-3,3.1-3.2,3.5-1.2,2.1-2.4,4.7-2.7,7.1"/>
          <path id="Path_7314" d="M57.7,97.2c-1.1,2.7-2.5,5.7-2,8.6.4,0,.5-.5.6-.8.6-1.9,1.2-3.9,1.5-5.9,0-.2.7-2.8,0-2"/>
          <path id="Path_7315" d="M60,104.4c.6.2.6-.4.7-.8.2-.6,1.4-4.6,1.2-4.8-.5,0-.6.2-.8.6-.9,1.4-.9,3.5-1.2,5.1"/>
          <path id="Path_7316" d="M56,83.4l2.5-5.7c-.5-.5-1.7,2-1.8,2.3-.5,1.1-.7,2.2-.7,3.4"/>
          <path id="Path_7317" d="M496,45.9c4.5-5.3,7.2-12,10.6-18-.5-.1-.7.1-1,.4-2.6,1.9-8.3,13.2-9.4,16.5-.2.3-.2.7-.2,1.1"/>
          <path id="Path_7318" d="M501.2,47.6l1.5-1.8,8.3-14.7c-.3-.3-2.2,2-2.5,2.3-3.2,4-5.7,9.4-7.4,14.2"/>
          <path id="Path_7319" d="M506.1,46.9c1.5-.6,7.1-10.9,6.7-11.3-.6,0-.6,0-1,.4-.6.7-1.8,2.7-2.3,3.6-1.3,2.3-2.5,4.8-3.4,7.3"/>
          <path id="Path_7320" d="M509.1,48.1c.5,0,.8-.4,1.1-.7.9-.9,5.5-7.7,4.8-8.4-1.1.2-1.8,1.6-2.3,2.5-.4.7-3.9,6.4-3.6,6.6"/>
          <path id="Path_7321" d="M495,39.2c.9-.5,4.3-6.3,4-6.7-1.2.4-2.1,1.9-2.7,2.9-.6,1.1-1.4,2.4-1.3,3.8"/>
          <path id="Path_7322" d="M330.5,102.4c.4.3,2.6-2.5,3-2.8,1.1-1.3,3.3-3.8,4.1-5.3.2-.3.4-.6.3-1-3,2.5-5.5,5.6-7.4,9.1"/>
          <path id="Path_7323" d="M336.2,105.1c.3.3,2.2-1.4,2.6-1.7,1.5-1.3,2.8-2.8,4.1-4.3.2-.3.6-.4.5-.9-1.5-.4-7.5,6.6-7.2,6.9"/>
          <path id="Path_7324" d="M339.7,106.8c.3.3,2.5-1.6,2.8-2,1.1-1,2-2.1,3-3.2.2-.3.5-.5.4-1-.4,0-.8,0-1.1.2-.9.5-3.1,2.9-3.8,3.8-.2.3-1.5,1.8-1.2,2.1"/>
          <path id="Path_7325" d="M324.4,83.6c.7.7,5.1-3.9,5.7-4.6q-.3-.4-.8-.3c-1.6.4-4.9,2.9-4.9,4.8"/>
          <path id="Path_7326" d="M333.8,103.9l7.4-7.9c-1.7.5-3.6,2.6-4.8,3.9-1,1.1-2.1,2.6-2.6,3.9"/>
          <path id="Path_7327" d="M342.6,109.1c.4,0,.7-.2,1-.4,1.2-.8,3.3-3,4.2-4.2.4-.4.6-.8.8-1.3-.6-.5-3.8,2.8-4.2,3.3-.2.3-2,2.4-1.7,2.6"/>
          <path id="Path_7328" d="M327.6,90.3c2-1.7,3.8-3.7,5.2-5.9-.5-.4-2.7,2-3.1,2.5-.8,1-1.8,2.2-2.1,3.5"/>
          <path id="Path_7329" d="M347.6,109.1s.7-.4.9-.5c.4-.3,3.2-3.2,2.8-3.4-.8,0-1.6.9-2.1,1.5-.2.2-1.7,2.3-1.6,2.5"/>
          <path id="Path_7330" d="M313.3,56c.6.6,5.9-4.3,6.4-5.1.4-.5.8-1,.8-1.6-.5-.5-2.8,1.5-3.2,1.8s-4.4,4.5-4,4.8"/>
          <path id="Path_7331" d="M318,56c.2.2,2.1-1.3,2.3-1.5,1.1-.9,3.7-3.8,4.3-5,.1-.3.3-.6-.1-.6-1,0-7.1,6.6-6.5,7.2"/>
          <path id="Path_7332" d="M321.7,56.8c.2.2,1.9-1.3,2.1-1.5,1.2-1.2,2.2-2.6,3.2-4,.1-.2.9-1,.6-1.2-.5,0-.7,0-1,.4-.7.5-5.5,5.7-4.9,6.3"/>
          <path id="Path_7333" d="M324.4,57.2c.4.3,1.8-1,2.1-1.2.5-.4,4-4,3.6-4.4-.4,0-.9,0-1.2.4-.5.3-5,4.8-4.5,5.3"/>
          <path id="Path_7334" d="M60.9,131.2c.6,0,1.2-.1,1.7-.4,2.2-.8,6.6-4.3,8.3-6s.7-.6.6-1.2c-.5-.5-9.8,6.7-10.6,7.6"/>
          <path id="Path_7335" d="M62.4,124.6c-.6-.5-5.6,2.4-6.2,3.1-.5.5-.8,1.5.3,1.3s4.2-2.3,5-3.1c.2-.2,1.2-1,.9-1.2"/>
          <path id="Path_7336" d="M59,129.8c1.3.5,7.7-5,7.2-5.4-.4,0-.7,0-1,.3-1.6,1-3.1,2.2-4.5,3.4-.5.4-1.5,1.1-1.6,1.7"/>
          <path id="Path_7337" d="M223.9,85.6c.4,0,.8-.2,1.1-.5,1.5-1.1,5.7-6.4,6.5-8.1.2-.3.3-.7.3-1.1-.6-.6-2.9,2.2-3.2,2.6-.6.7-5.2,6.6-4.7,7"/>
          <path id="Path_7338" d="M230.3,86.6c.5,0,.6-.3.9-.5,1.5-1.2,5.5-6.3,6.5-8.1.2-.3.3-.7.3-1.1-2-.4-8.1,9.2-7.6,9.6"/>
          <path id="Path_7339" d="M227.6,86.1c.2.2,3.2-3.1,3.4-3.3,1.1-1.2,3.2-4.1,3.9-5.5.2-.3.3-.7.3-1.1-.5,0-.6.3-.9.5-1.1.9-7.5,8.6-6.8,9.4"/>
          <path id="Path_7340" d="M221.7,83.4c.2.3,1.1-.7,1.2-.9.9-1,1.8-2,2.6-3.1.1-.2,1.6-1.9.8-1.9-2.3,1.2-4,3.4-4.6,5.9"/>
          <path id="Path_7341" d="M402.9,30.6l.8-.5,4.6-6.4c-.3-.3-1.7,1.4-2,1.6-.4.4-3.7,5.1-3.5,5.3"/>
          <path id="Path_7342" d="M401.2,27.6c.9-.2,3.4-4.7,3.2-4.9-.9.1-1.6,1.5-2.1,2.2-.5.8-.9,1.7-1.1,2.7"/>
          <path id="Path_7343" d="M397.5,26.4c.9-.7,1.8-2,1.7-3.2-1.1.3-1.7,2.2-1.7,3.2"/>
          <path id="Path_7344" class="st1" d="M294.1,91.4c-2.2.8-4.7,1.6-6.7,2.9-.5,1.3-.4,2.9-.7,4.2-.6,2.8-2.3,8.4-1.3,11.1.6,1.7,2.4,0,3.2-.7,1.8-1.8,7.5-11.3,8.6-13.8.1-.2.4-.8.3-1l-3.5-2.6h.1Z"/>
          <path id="Path_7345" class="st1" d="M306.6,116.4c-1.6,0-3.3.3-4.9.7-1.6.4-5.6,1.4-6.9,2.2-2.6,1.5-1.9,4,.2,5.6,1.1.8,9.4,4.8,10.2,4.6.3,0,.3-.4.4-.6.8-4,.6-8.4,1-12.4"/>
          <path id="Path_7346" class="st1" d="M294,144.8c3.7-1.6,6.5-4.6,8.6-8-2-2.4-4.6-4.4-7.6-5.3-6.9-2.1-6.3,3.1-4.3,7.8.9,2,2.4,3.5,3.3,5.5"/>
          <path id="Path_7347" class="st1" d="M306.1,110.5c-.6-4.2-2.2-8.2-5.1-11.3-2.2,3.4-5.2,6.8-7.2,10.3s-1.4,4.3,2.5,3.7c3.3-.5,6.6-1.9,9.8-2.7"/>
          <path id="Path_7348" class="st1" d="M284.9,115.3c-5.7-.9-7,11.6-.5,11.2,5-.4,5.7-10.3.5-11.2"/>
          <path id="Path_7349" class="st1" d="M287.3,147.3c0-5.9-3-11.9-8.9-13.8,1.2,4.3,3.4,8.2,6.3,11.6.2.3,2.3,2.5,2.6,2.2"/>
          <path id="Path_7350" class="st1" d="M281.9,99.9c-.5-.6-1.8,2.6-1.9,2.9-.4,1-2.5,7.5-2,8,3.4-.6,3.4-3.5,3.7-6.3,0-.2.1-.5.3-.7v-3.8h-.1Z"/>
          <path id="Path_7351" class="st1" d="M529.8,118.7l3.7-10.1c-1.9-.6-6.7-4.1-8.5-3.7-1.9.5-2.2,2.8-1.8,4.4.4,1.5,4.7,7.9,6,9.1.2.2.2.4.6.3"/>
          <path id="Path_7352" class="st1" d="M524.2,93.7l1.9-.2c1-.5,8.3-4.4,8.4-4.9.7-2.1-2.7-7.3-4.6-8.4-.4,0-.9.7-1.1,1-1.3,2-4.8,9-4.9,11.2,0,.4,0,.9.3,1.3"/>
          <path id="Path_7353" class="st1" d="M535,103.1l.2-10.9c-2.5,1.6-5.1,3-7.6,4.6-1.1.7-4,2.1-2.5,3.7.9.9,9.3,3.1,9.9,2.6"/>
          <path id="Path_7354" class="st1" d="M520.7,112.5c0,1.7,2.8,11.6,4.3,11.6l2-2.1c0-.5-.2-1-.4-1.4-1.3-2.5-2.7-4.9-4.3-7.2-.5-.6-.8-1.1-1.6-.8"/>
          <path id="Path_7355" d="M399.4,98.2h-4.9v-2.3c0-1.1-1-1.9-2-1.9s-1.9.9-1.9,1.9v2.3h-2c-.2-6-.3-12.1-.3-18.1s-3.9-2.5-3.9,0c0,6.7.1,13.3.4,20,0,1.1.9,1.9,1.9,1.9h4.1c0,1.5,0,3,.1,4.5,0,1.1.8,1.9,1.9,2s1.9-.8,2-1.9h0v-4.5h4.7c2.5,0,2.5-3.8,0-3.9"/>
          <path id="Path_7356" d="M419.4,98.2h-4.9v-2.3c0-1.1-.9-1.9-2-2s-1.9.8-2,1.9h0v2.4h-2.1c-.2-6-.3-12.1-.3-18.1s-3.9-2.5-3.9,0c0,6.7.1,13.3.4,20,0,1.1.9,1.9,1.9,1.9h4.1c0,1.5,0,3,.1,4.5,0,1.1.9,1.9,2,1.9s1.9-.9,1.9-1.9c0-1.5,0-3-.1-4.5h4.8c2.5,0,2.5-3.8,0-3.9"/>
        </g>
      </g>
    </g>
  </g>
</svg>