<?xml version="1.0" encoding="UTF-8"?>
<svg id="Layer_2" xmlns="http://www.w3.org/2000/svg" xmlns:xlink="http://www.w3.org/1999/xlink" version="1.1" viewBox="0 0 661.6 648">
  <!-- Generator: Adobe Illustrator 29.6.1, SVG Export Plug-In . SVG Version: 2.1.1 Build 9)  -->
  <defs>
    <style>
      .st0 {
        fill: none;
      }

      .st1 {
        fill: #fff;
      }

      .st2 {
        fill: #ff60df;
      }

      .st3 {
        clip-path: url(#clippath);
      }
    </style>
    <clipPath id="clippath">
      <rect class="st0" width="661.6" height="648"/>
    </clipPath>
  </defs>
  <g id="Layer_1-2">
    <g>
      <path class="st1" d="M365.5,280.9l7.4-7.7,5.8-8.3,1.4-12.4-1.9-6.9-6.1-2.5.5-3,3.9-1.4-2.2-5-33.1-20.7-15.7-44.9-16.5-15.1-24.8-1.9-35.3,3.9,2.8-9.1,8.3-13.8,22.3-10.5,11.3-7.7,5.5-6.9,5-8.3,3.6-13.8,3.3-12.4,1.3-3.2,4.4-5.9,6.8-16.6,3.9-10.4,2.5-6.1,3.1-7.7,4.7-6.8,1-3.4-1-5.8-6.8-5.2-6.9-.3-8.1,3.6-13.1,11.2-16.7,24.7-31.9,38.8-5.6,3.3-21.2,19.8-14.3,11.3-19,12-18.3,7.2-18.3,6.5.5-3.9,1.7-8-3.8-11.9-15.4-14.8-17.4-8.5-15.5-4.6-12-1-4.8-.5-11.7-2.4,2.5-7.8-1-8.5-6.5-12.6.3-16.7-1.6.3-6.8,12.6-5.2,16-2.9,15,3.2,33.7,2.1,29.2v18.7c0,0-6.9,9.4-6.9,9.4l-11.8,14.9-8.7,15.5-5.4,12.8-4.4,15.7-3-7.2-3.2-4.8h-11.2c0-.1-3.9-2.4-3.9-2.4l-2.8,1.6.2,20.9,10.3,23.7-3.8,12.7-2.3,18.8s4.4,11.2,4.5,11.6,16.3,14.9,16.6,15,18.9,2.6,18.9,2.6l14.7-5.9,1.3,7,4.4,12.7,10.1,5.9,13.5,1.7,14-.8,3.2.8-.7-4-4.4-8.5-6.7-5.5-3.3-9.1-9.4-3.7-5.6-4.7,12.6-7.1,8.8-10.9,6.3,4.4,15.7,14.7,13.3,16.6,23.2,9.5,8.9-.8-1.6-7.6-3.1-7.3,2.2-12.1-1.3-12.8-5.4-6.8-15.7-6s3.3-2,3.7-2.1,18.3-10.1,18.3-10.1l7.2-10.9-6-18-9.1-4-12,1-6.3-4.6-8.7-.5-1.8-18.3-1.9-6.6,7.7-9.2,8-3.6,9.2,1.4,6.4,2.1,4.9-15.5,46.7-19.3,73-10.8,40.2,42.5,23.5,29.9,6.6,31.9,14.4,20.5h0l.2.8Z"/>
      <g class="st3">
        <g id="Group_281">
          <path id="Path_1047" class="st1" d="M251.2,476.2l32.3,67.8,23.9,5.2h16.4l-3.4,11-4.6,13.4,1.3,9.7,4.1,13.6,8.2,13.6,8.9,13.1,7.6,5.9,7.5,8,8.5,4.2,10.5,3.8-1.9-21.8-1.3-13.1-4.4-9-3-7.4-15.1-27.7-8.6-19.8,97.1-31.9,6-17.4,4.8-9.4,11.2,10.3,6.7,4.6-5.4,7.4-6.2,9.9-.9,10.5-1.1,16-2.3,9.9-6.8,7.9-11.7,6.8,13.7,5.1,10.4,1.3,19.2-1.3-3.1,19.5,11.7-6.8s6.7-12,7.1-12.7,9.1-14.5,9.1-14.5l9-8.6s1.7-5.9,2.5-6.6,18.7-7.9,18.7-7.9l10.3-5.9,1.9-6.3-.8-7.2h16.6l10.6-5.8,5.3-4.5,6.2,5.8,4.2,5.4,6.1,6.3h4l11.7-4.9s6.4-2.3,7.9-2.3h16.9l6.2-1.6s4.6-2.3,4.5-4.1c0-1.9,1.3-7.8,1.3-7.8l1.3-5.4-17,4.3-12.4-.8-14.9-5.5-9.7-2.7-7.5-3.3,2.5-9.7,3.4-8.7-3.4-12.9s-1.3-9.5-2.5-10.8-8.9-14-8.9-14l-31.7-36.4s-19.8-6.6-20.6-7.4-29.2-39.8-29.2-39.8c0,0-9.6-7.6-10.8-8.4s-19.3-9-19.3-9c0,0-11.5-7.4-12.6-8.3s-10.1-10.5-10.1-10.5l7.1,14.1,3,14.9-5.8,14.4v10.4l-1.7,9.1-2.6,9.8-9.6,6.9-14.5,5.6-2.1,1.9-45.5-124.6-43.4-115.7-29.7-12.8-130.6,25.7,1.9,52.9,20.6,69.4s38.7,106.8,39.7,109.1c1,2.4,26.9,68.9,26.9,68.9h0l.2-.4Z"/>
          <path id="Path_132" d="M253.7,151.2c16.3-2,38-9.3,53.8-3.8,20.6,7.1,30.8,44.3,38.8,62.6,5.3,4.8,11.5,11.4,17.2,15.5,2.5,1.8,5.7,2.7,8.4,4.8,2.5,2,6.7,6.5,6.1,10.1-.3,1.9-3.5.7-2.9,2.8,9.9-.4,6.4,21.2,3.7,26-1.2,2.2-8.6,9.4-8.6,10.7,2.3,5.5,3.7,11.4,5.7,17,10,28.4,21,56.2,31.3,84.5.8,2.1,6.2,16.7,7,17.2,1.5.9,10.7-3,12.5-4,5.1-3,13.1-10.5,12.6-16.9-.4-4.8-1.8-8.3-1.1-13.9.9-7.9,7.6-12.9,7.5-21.5,0-7.9-8.1-17-10.3-24.4-.5-1.7-2.2-7.8,1.1-6.8.8.2,8,9.8,9.5,11.3,11.8,12.4,22.9,13.5,36.2,21,12.7,7.2,24.5,29.6,34.6,40.9,10.2,11.4,19.7,11.4,31,18.7,13,8.4,21.4,23.1,29.5,36,3,4.9,4.3,12.1,6.4,17.6,2.3,6.1,5.1,8.1,4.8,15.9,0,3.8-2.7,7.2-2.9,8.8,0,1,.6,2.4.3,3.8-.4,2.7-1,5.3-1.9,7.9.6.5,9.9,2.2,11.5,2.7,5.4,1.6,12.9,5.8,17.9,6.6,11.5,1.8,22-1,32.5-5.6l15.5-13.1-1.3,3.5,1.3.6c-4.4,5.8-11.1,9.3-17,13.3-3.1,7.1-2.9,14.5-10.5,18.3-9.9,5-17.2.2-27.2,3-4.1,1.2-3.3,2.1-5.8,3.6-2.7,1.7-8.1,3.5-11.2,2.7-9.1-2.1-11.1-11.1-18.5-15.5-9.4,5.7-18.2,12.8-29.9,8.8,2.2,6.5-.8,12-6.5,15.2-7,3.9-15.1,6.2-22.5,9-4.6,1.8-4.4,7-6.6,10.4-1.9,2.8-5.4,3.5-7.6,6.9-7.7,11.6-11.1,27.3-24.2,33.7-18.1,4.7-3.1-10.9-3.7-19.1-2.5.2-4.8,1.4-7.3,1.8-8.3,1.2-16.7.4-24.6-2.3-5-1.7-9.7-5-15.2-4.6,2.6-2.9,6.6-3.3,9.8-5,3.5-1.9,10.7-7.2,12.9-10.4,1.8-2.6,4.9-14.5,5-17.7.2-5.3-1.2-10.8-.3-16.7,1.2-7.3,6.4-13.1,10.9-18.5l-11.8-9.1c.7,17.7-14.4,26.3-28.8,32-11.5,4.5-25.2,8.9-37,12.7-13.2,4.3-26.6,7.7-40,11.3.9,5.9,3.1,11.4,5.6,16.8,5.6,12.4,14.3,23,19.3,35.5s2.5,20.3,4,30.7c.8,4.4,1.2,8.9,1.4,13.4-1.5,1.4-11.9-4.3-13.8-5.4-21.2-12.5-49.4-44.7-45.8-70.9.7-5,3.6-9.5,4.9-14.3-23,7.5-46-1.7-55.2-24.4-2-4.8-2.8-10-4.5-15-29.2-83.9-59.4-167.6-88.8-251.4-2.3,0-2.6,2.7-3.8,4.1-4.6,5.4-14.6,9.1-20.1,13.9,11.7,2.6,20.6,12.9,19.5,25.2-.5,6.1-4.6,11.8-1.3,18.3,1.2,1.9,3.3,7.3,3.2,9.4-.4,9.9-22,1.6-27.1-.6-14.2-6.2-17.6-18.8-27.4-28-1.5-1.4-12.7-10.1-13.9-10.1s-3.3,3.8-4.5,5c-3.8,3.8-10.7,5.3-14.7,9.2,4.9,6,13.1,1.2,15.4,9.7.4,1.5,0,3.1.6,4.4s5.1,4.9,6.5,6.7c1.2,1.7,7.2,12.5,7.1,13.7-.3,3.2-4.7.5-6.6.3-10-.9-27.2,2.5-35-4.7-4.9-4.5-6.7-12.4-8.8-18.6-.8-.6-10.6,2.2-12.3,2.5-6.7.9-24-1.6-29.2-5.9-4.1-3.4-15.6-22.6-16.3-27.8-1.2-8.9,1.7-8.8,4.4-15,.7-1.7,3-11,3-12.6-.1-4.8-7.2-18.4-8.6-24.7-1.1-6.1-1.1-12.4,0-18.6,2.4-11.3,6.3-2.8,10.9-2.4,4,.4,8-2.6,12.2,1.6l3.1,4.7c1.1-16.7,8.6-29.5,18.3-42.5,2.9-3.9,7-7.6,9.7-11.7,10.3-16.2,5-39.7,3.5-57.5-1.9-22.5-3.6-37.4,4.4-59.2.9-2.5,7.9-16.9,9.5-17.6,6.5-3,4.4,10.9,4.4,13.2-.2,12.2,2,9.7,6.2,18.4,2.8,5.8-.4,9.4-.4,15.2,6,2.6,12.8,1.4,19,2,12.9,1.3,22.5,4.8,33.8,10.9,11.2,6.2,26.2,16.3,25.8,30.9,0,3.1-1.8,6.1-1.6,9.1,8.3-5,18-6.9,26.7-10.4,44.6-17.9,83.7-68.1,112.1-105.7,4.1-5.5,6.1-9.9,12.2-14.2,2.7-1.9,7.2-4.7,10.4-4.7-3.8,4.7-10.6,7.6-14.5,12-7.1,7.9-13.8,20.6-20.8,29.6-24,30.9-49.7,65.1-80.2,89.7-4.3,3.5-16.8,13.8-21.4,14.4-2.1.3-4.4.4-5.3-1.8,3.6,1,6.1-1,9.4-2.3,8.7-7.7,18.5-14.1,27.1-21.9,13-11.8,25-26.1,36.5-39.3-1.2-.3-1.5.7-2.2,1.2-4.4,3.7-7.9,8.7-11.9,12.6-14.2,13.9-37.2,30.5-55.7,37.4-2.1.8-4.7.9-7.1,1.7-3,1.1-11.6,4.2-13.7,5.8-.8.7-.7.6,0,1.2,2.5,2.2,6.3,3.5,7.5,7.3-.9.9-7.6-7.4-10.4-7.5-.6,0-10.6,3.5-12.3,4-5.6,2-10.1,4.9-16.7,5.4-4.4.3-8.4-1-12.6-1.3-2.9-.2-16.1.4-17.7-1.9-1.6-2.4.9-3.2,1-4.1.6-4.3-.4-9.9,0-14.5,1.2-14.7,7.2-27.4,16.3-38.7-4.5,0-8-3-11.3,1.2l1.2-3.1c-4.8,0-11.1-3.6-14.8.6-8.8,9.9-8,44.1-2.8,56.4-1.7,2.3-3.1-2.9-3.4-4.1-5.4-16.5-3.1-40.3,6.6-54.8-3,0-5.8.3-8.5-1.1-.8,0-2.9,4.4-3.3,5.4-3.2,8.8-4.6,29-2.5,38,1.3,5.5,6.2,13.8,6.7,18.5.3,2.5-2.9.4-3.9-1.2-9.1-13.4-11.6-33.4-9.2-49.2,1.2-8,7.3-20.3,7.5-27.2,0-4-5.6-9.4-6.2-13.3-.5-3,1-7.9,1.2-11.1v-4.8c-1-1.3-7.5,14.1-7.8,15.1-10.1,26.5-4.8,40.4-2.2,67,1.1,11.7,3.4,28.4,2.6,39.7-.8,9.6-8,12.9-13.6,19.2-5.8,6.6-17.8,27.4-20.1,35.9-1.6,5.7-2.1,12-4.3,17.8-2.3,6-6.6,12.3-9.4,18.3-7.2,16.2-8.5,26.4-7.6,44.2,0,1.1-.7,2.3-.5,3.7,1.1,7.4,13.7,16.1,20.5,17.9,16.1,4.4,23.5-2.8,36.5-9.3,7.2-3.6,18.3-5.3,23.8-12.1,1-1.3,4.5-7.1,4.7-8.5,2.6-16.3-2.1-31.1-14.4-42.1-4.2-3.7-10.7-5.3-12.6-11,10.7,2.7,20.1,11.2,26.1,20.2,1.6,2.4,2.2,5.5,4.5,7.5,1.5.3.9-1.2.9-2.1-.3-3.9-2.2-8-3.5-11.6-.4-1.1-.6-2,.7-.7,5.5,6.5,2.8,14.7,6,22,6.2-6.7,13.5-13.3,17.7-21.6,8.1-16,5.3-26.7.2-43.2-2-6.6-5.8-12.8-7.2-19.5l6.2,8.6,4.8,9.6c5.5-9.2,13.6-13.5,24.2-9.4-.1-14.8,8.4-23.2,21-29.1,15.5-7.1,28.4-6.1,43.4-10.1,9.4-2.5,39.4-36.7,49.2-45.2,12.2-10.5,27.7-16.1,42.2-22.6,0-4.2,1.8-7.9,2.7-11.8.2-.8.4-1.9-.8-1.4-3,1.2-6.9,12.6-10.4,14.5l5.3-12c-5.9,3.5-11.7,7-17.3,11.1-17.8,13-35,27.2-52,41.2-10.5,8.7-23.3,23.2-37.8,24.6-.8,0-3.9.5-4.1-.6,11.1-1.5,20.6-7.9,29-14.8,22.5-18.5,44-38.5,67.8-55.6,7.6-5.5,17.2-8.7,23.1-15.9,6.8-8.3,8.2-16.2,12-25.7.7-1.7,2.4-4,2.8-5.4.3-.9,0-1.1-.9-.9-8.5,6.4-17.1,12.6-25.2,19.5-26.7,22.9-48.5,50.4-73.6,74.9-6.7,6.5-15.8,15.2-24.5,18.3-.7.3-2.3,1.1-2.9.3,15.7-9.2,27.6-22.4,40.3-35.2,23.1-23.4,43.1-48,69.3-68.6,4.3-3.4,16.9-10.9,19.5-13.9,2.9-3.3,4-13.6,8.8-17,.1-.5-.6-.4-.9-.3-11.6,3.7-29.5,20.3-37.8,29.6s-12.2,16.3-18.9,23.9c-17.1,19.5-39.1,42.7-58.2,60.1-6.6,6-19.2,16.9-27.7,18.9-.6.1-2.1.8-1.9-.3,10.9-4.4,21.2-12.8,29.9-20.8,19.4-17.7,40.8-41,57.9-61.1,5.7-6.7,10.5-14.2,16.4-20.8,11.7-13.2,26.2-25.6,42.4-32.8.5-7.5-8.8-10.4-15-10-.1-2.6,3.4-2,5.3-1.8,6.5.7,12.8,5.8,11.7,12.8-.4,2.6-4.8,7.3-6.2,10.2-5.6,11.3-9.2,25.8-14.5,37.2-1.5,3.2-4.4,6.4-5.5,9-6.1,14.6-4.9,28.3-16.1,42.5-9.5,12-18.8,11.8-30.6,18.4-8,4.5-10.2,13-13.4,20.9M104.6,145.5c1.3-18.2,4.4-38.2,18.2-51.3-1.4-1.1-3.7-3-5.3-1.6-.7.6-5.1,7.8-5.9,9.2-2.6,4.2-4.6,8.7-6.1,13.4-2.8,9.8-3.7,20.1-2.8,30.2h1.9ZM219.7,156.8c5.5-.3,9.4-.9,13.8-4.1,8.6-6.3,15.6-16.3,23.6-23.6,13-11.5,27.8-20.7,43.8-27.3l3.7-8.5c-8.4,4.3-17.5,7.2-25.8,11.6-19.6,10.4-34.9,31.3-51.6,46-2.4,2.1-5.3,3.7-7.6,6M137.9,102.7l-12.9-7.4c-14.5,12.4-16.8,32.9-18.6,50.8l4.9-.7c3.7-15.8,12.9-31.8,26.1-41.4l.4-1.3h.1ZM112.7,145.5l3.4-.6c5.6-9.6,13.4-25.2,22.8-31.3,2-1.3,5.7-2.4,7.1-3.6.9-.8.6-.5,0-1.2-.7-.9-6.1-4.6-7-4.4-13.2,10.4-22.4,24.9-26.4,41.3M297.1,106.5c-1.6-1.5-34.1,18.4-36.5,22.6,3-1.2,5.4-3.2,8.4-4.5,10.5-4.5,16.7-3.8,25-13.4.5-.6,3.6-4.2,3.1-4.7M124.1,145.5c5.5-12.9,16.1-23,27.7-30.5l-3.8-4.4c-5,2.5-9.5,6-13.2,10.1-6.4,7.9-11.9,16.4-16.4,25.5,4,0,9.6.4,13.2-1.6,1.6-.9,3.9-5,5.4-6.6,5.5-5.9,12.2-11.6,19.8-14.5.3-.4-1.4-3.5-1.8-4.2-.4-.7-1.3-3.1-2.3-2.7-8.3,6.3-15.6,12.5-22,20.8-.6.9-5.5,9.3-6.7,8.1M136,143.6c10.7-1.9,25.1-2.8,21.4-17.6-8.4,4.2-15.7,10.2-21.4,17.6M248.1,152.4l.9-8.2,7.2-11.3c-8.4,6.7-13.8,16.8-23.9,21.4-.1,1.2,1.2.4,1.9.3,4.6-.6,9.1-2,13.8-2.2M432.9,505.3c4.3-4.3,3.8-14.9,2.3-20.4l-109.7-308.9c-8.3-17.6-22.5-24.4-41.6-18.5,2.7,12.9-5.2,16.4-15.7,19.2-14.4,3.8-46.3,11.3-59.8,7.6-7.8-2.1-12.4-9.4-16.1-16-12.9,1.5-26.3,10.7-24.5,25.1,38,108.9,75.9,217.9,113.8,326.8,5.4,12.6,13.5,17.8,27.2,18.7,8.9.6,14.5-2.5,22.8-4.2,28-6,56.8-12.7,84-21.8,4-1.3,14.6-4.9,17.3-7.6M258.6,163.9c-1.6-1.8-7.2-1.6-9.6-1.4-4.1.2-25.5,4.1-28.2,5.8-2.6,1.5-3.6,5.3-1,7.1,4.4,3.1,21.8-.7,27.3-2.2,2.9-.8,16.1-4.1,11.5-9.2M161.8,241.2l-11.3-36.8c-9.8-8.9-18.7-.2-23.7,8.8,1.3,7,3.9,13.9,3.5,21.1,2.9.4,6.8,1,9.4,2.2,1.6.7,3.7,3.1,4.9,3.4,1.6.3,5-1.7,7.3-1.7,3.3,0,6.7,2.3,9.8,3.1M14.6,251.9c1.3-.8,2.1-2.3,2.2-3.8,0-3.9-2.7-15.2-3.9-19.3-.5-1.7-1.2-3.4-1.8-5.2l-6.6-3.1c-2.1,2.4,10.5,26.7,10.1,31.5M17.6,221.8c-.6-.4-3.2-.2-4.3-.8l5.3,25.2c1.4-2.4,4.5-7,4.5-9.6s-4.4-14.1-5.6-14.8M351.9,227.3c1.4,8.1,7,7.9,13.5,10.1,3.6,1.2,5.6,3.8,9.1.3-3.1-3.5-8.2-4-12.5-5.7-3.4-1.4-6.8-3.1-10.1-4.7M11.4,257.5c1-.2,1.6-1.5,1.7-2.3.9-4.3-4.5-18.3-6.7-22.6-.5-1-.8-2.4-2-2.7-.6,10,5.1,18.2,6.9,27.7M369.5,240.6l-13.8-3.8c.4,1.9.6,4.4,2.3,5.6,4.1,2.9,14.8,3.9,19.5,7,1.7-3.7-7.2-3.5-8.2-5l.4-3.8h-.2ZM136,238.1l-5.7-.6c0,6-2.9,13.3-5.4,18.9-4.4,9.8-6.3,9.7-13.2,16.4-1.1,1-7.9,9.3-8.5,10.4-.6.9-.8,1.9-.6,2.9,16.6-11.6,26-29.4,33.3-47.8M146.7,243.1c-4.3.8-6.4-3.7-10.1-4.4-5.4,14-12,27.9-22.7,38.7-2.8,2.9-9.3,7.3-11.1,9.7-.9,1.3-1.4,2.9-1.5,4.4,1.2.1,2.5,0,3.6-.5,4.2-2.2,8.2-4.7,12.1-7.4,13.4-10.6,21.2-26,29.6-40.5M119.7,283.4c2.4-.9,4.7-2.1,6.9-3.5,8.6-5.9,19.5-15.7,25.7-24,1-1.3,7.7-10.9,7.4-11.5-1.8-2.5-3.5-1.1-5.7-1.2-2.2-.1-4.2-1.3-6.4.1-7.7,14.6-15.5,28.9-27.9,40.1M172.9,242.5c-1.4.4-1.7,2.7-1.7,4,0,4,7,23.1,10.5,24.2,1.5.4,3.4,0,3.8-1.6.7-2.4-3.8-14.3-5.1-17.3-1.2-2.9-3.5-10.6-7.6-9.2M377.6,251.3l-19.5-6.3c-.3.3.7,3,1.3,3.4,1.3,1.1,11.8,4.2,14.6,5.6s2.4,1.4,3.3,2.3l.3-5h0ZM128.5,281.5c6.3-2,11.4-6.8,16.9-10.5,3.1-2,6.5-3.1,9.5-5.6,1.7-1.4,9.1-8.8,9.7-10.4,1.4-3.5-.9-7.3-4.1-8.8-6.6,15.5-19.9,24.6-32.1,35.2M377.7,256.9c-6.2-.7-11.9-3.5-17.6-5.7,0,1.2.3,2.5.8,3.6,1.2,1.2,12,3.9,14.3,5.8-.1,1.2-3.1.6-3.9.5-3.1-.5-6.3-2-9.3-3-1.7,2.2,4.5,3.2,5.5,3.6,2.3,1,4.5,2.2,6.5,3.6l-10.4-2.8c-.7.3.3,2.9.5,3,.4.3,8.6,3.1,9.1,3.2,3.6.3,4.3-9.5,4.6-11.9M166.9,257.6c-1-.2-1,.1-1.5.7-2,2-4.3,5.5-6.4,7.5-6.6,6.1-16.9,9.6-23.7,15.9l-18,8.7c15.7-3.4,32.9-9.9,45-20.8,1.4-1.3,6.7-6.1,6.5-7.7l-1.8-4.2h-.1ZM373.3,269.5l-8.2-1.9,2.5,8.2c1.1,1.1,5.5-5.3,5.7-6.3M189.4,279.8l-1.7-.5c-2.3,1.5-2.1,3.7-1.8,6.2.4,3.6,5.8,19,8.1,21.3,1.4,1.3,4,1.9,4.4-.5,1.2-6.3-6.7-20.3-9-26.6M161.8,302.9c-1.7-7.8-5.5-10.8-12.6-13.5-3.2-1.2-12.5-4.6-14.5-.6,3.6,1,25.5,15.6,27.1,14.1M162.4,304.1c-10.9,0-19.3-9.9-29-14.2l-9.4,1.6c-.3,1.1.3,1.2,1.1,1.8,2.9,2.3,7.8,4.2,11.2,6.4,3.3,2.1,6.2,4.8,9.5,6.8,2.2,1.3,13.4,6.2,14,7.4.4.8,0,1-.9.9-3.9-.7-7.9-3.2-11.5-4.9l-26-16.9-6.3,1c2,2.1,4.9,3.2,7.2,5,6.9,5.4,13,12.4,20.3,17.5,5.5,3.8,11.7,6.3,17.5,9.5-1.8-7.8,3.1-14.3,2.2-22M161.6,329.5c-.8-1-12.9-6.2-15.4-7.6-6.8-4-13-9.8-19.1-14.9-6-5-12.5-14.7-21.4-12.3,4.5,5,11.1,8.9,15.4,13.8,4.9,5.6,7.3,13.6,14.4,17.6,2.6,1.5,13.9,6.9,16.4,7.5,3.3.7,7.6.3,11,1.3.4-.4-1-5-1.4-5.5M77.4,314.9c-.9-.5-3,.6-3.7,1.5,5.3,6.7,11.4,12.6,18.3,17.6l11.9,7.9c-2.6-8.2-12.9-10.6-12-20.1-4.9.3-9.6-1.4-13.3-4.7-.7-.6-1.2-2-1.3-2.1M100.2,344.4c-7.3-5.8-15.4-9.9-21.7-17-1.4-1.5-6.3-9.4-7.5-9.4-5.5-.3-.6,7.3.7,9.4,2.2,3.8,6.6,10.1,10.1,12.5,3,1.7,6.1,3.2,9.3,4.5h9.1ZM70.8,331l-4.6-9c-4.2,0-1.7,6.4-.8,9,3.6,9.7,8.3,13.4,19,12.8l-4.4-2.8c-2.8-3.1-6.9-6.8-9.2-10M451.4,418.7h8.8c0,.9-2.3,1.1-2.9,1.2-3.6.4-7.4-1.1-9.7,2.3,1.9.6,3.9.2,5.9.4.7,0,3.5.3,3.5,1.2h-12.3c-.3,0-3.4,1.8-4.7,2.2-4,1.1-8,1.6-12.1,2.3l-1,1.3,2.5,6.6c5.4.2,10.8,1.5,15.6,3.9,0,1.1.4,1.3-.9,1.2-4.9-.5-9.5-3.1-14.2-3.4.8.8.2,1.4,1.6,1.6,4.2.8,8.8,1.1,12.3,4.1-2,1.8-11.8-3.4-12.6-2.8l2.5,7.5c4.6-.7,10.5.9,14.4,3.5-4.2,1.3-9.1-2.2-12.9-2.9-2-.3-.3,2.7.7,3,2.6.9,7.7.2,10.3,2.9-3.2.4-6.1-1.9-9.2-2.1-2.5-.2-1.5.6-.8,2.4l10,2.6c0,.9.3,1.5-.9,1.2-2.5-.7-5.8-3-8.6-2.1l2,4,6.2,1.4c-.8,1.8-4.7-1.4-5.7-.6,1.2,4.2,6.1,3.2,8.8,6l-6.3-1.6c0,4.8,4.9,4,8.2,5.7l-.3,1.3-6-1.9c-1.5,2.2,3.9,2.9,5.5,3.7,1,.4,1.9,1,2.7,1.7.2,1.4-.5.9-1.4.8-2-.2-3.6-1.4-5.5-1.8-.5,2.7,3,3.5,5,3.8h-4.1c-1,3.9,6.9,3.8,9.1,6.6-2.7.6-5.6-1.6-7.9-2.8-1.5,3.5,3,3.7,5.1,4.9.5.3,8,5,5.5,5.2l-2.8-.6c6.3,5.2,13,11.4,21.3,13,6.8,1.4,13.2.2,20,1.5l-.3-1,2.5-.3-2.5-.6,1-1.1c5.3.2,11.9,2.7,16-1.7-1.9-2.3-4.4-3.3-6.2-5.8-1.9-2.5-5.4-8.4-5.7-11.3-.3-2.4-.5-15.8,2.8-16,1.5.9.5,1.4.5,2.4-.4,8.5-1.6,14.6,3.7,22.4,1.2,1.8,4,4.8,6.2,5.1l-5-22.1.5-5.3c1.3,4.3,1.5,9.1,2.7,13.3.6,2.2,2.9,8.7,3.8,10.7,2.5,5.6,14.8,17.9,20.3,20.6,4,2,3.8.4,6.9.6,3.7.2,8.8,2.1,11.6-1.2-1.3,0-2.6,0-3.9-.2-.7,0-2.5-.2-2.4-1.1,2.5-.2,5.4,1.1,7.9,1,.5,0,2.8-.7,2.8-1.6-.9.7-11.5-.8-10.1-1.9.9-.4,1.8.6,2.2.6h10.7c.4,0,2.7-1.7,2.8-2.5h-6.9l2.5-1.3c-5.7,0-10.1,2.6-15.9,1.7-.6,0-1.9-.3-1.7-1.1,5.3.8,10-1.6,14.8-2.5,1.4-.2,2.9.2,4.3-.1,2.6-.5,5-1.6,7.9-1.5,4.9-6.5,10.5-13.3,10.7-21.9-5.7-2.6-7.5-9.2-6.9-15.2.3-3.2,3.6-8.2,3.7-10.1,0-1-5.3-14.6-6.2-15.8-3.9-4.7-8.8-6.1-14.8-6.6-2.8-.3-5.7,0-8.5.6,3.9-3.9,9.1-1.8,13.8-1.3-.9-2.4-4.8-1.9-6.1-2.7-.5-.3-.5-1.3-2-2-6.7-3-15.4.5-22,1.6-1.5-1.3,5.8-3.9,6.3-4.1,9.4-3,17.4-1.3,25.8,3.4-4.3-10.8-13.7-19.4-23.7-25.1-7.3-4.2-16.3-6.7-22.6-12.7-13.8-13.1-22.9-35-39-46-4.6-3.1-12.5-5.4-17.9-8.5-5.3-3.2-10.3-6.8-15.1-10.7-1.1-1-1.6-2.9-3.2-3.4,1.1,2.8,2.9,5.4,4.1,8.2,1.5,3.7,3.4,9.6,3.5,13.5,0,2-1.1,6.1-.4,7.2,1,1.7,10.7,6.5,13.1,8.3,4.9,3.6,24.7,23.5,27,28.4.6,1.2,2.6,6.5-.1,6.1,0-1.2-.2-2.4-.7-3.4-2.9-6-18.3-21.1-23.9-25.9-5.1-4.3-11.3-7.1-16.7-11l-4.6,10.6c8.1,4,15.3,9.5,22.2,15.2,5.2,4.2,12.3,10,16.3,15.1.8,1.1,1.1,2.8,2,3.7,1,1.1,3.8,1.8,4,2,2.1,3.3-3.6,4.4-6,4.8-5.9,1-14.2-.1-19.5,1.9-1.3.5-12.9,7.9-11.5,9M471.8,400.4h9.8c-10.7-12.5-25-22-38.4-31.5l-.5,6.8c9.7,6.3,18.7,13.6,27,21.8.6.6,1.9,2.7,2.2,2.9M464.3,396.3c-6.5-6.5-14.3-11.9-21.8-17.3,1.2,4.3-2.5,4.9-2.5,8.8,6.2,1.5,12.4,5,17.8,8.3,3,1.8,5.8,5.6,9.5,5.6s-2.3-4.6-3.1-5.4M462,402.9c-6.5-6.3-15.2-9.6-23.1-13.7l-6.5,5.2,19.3,12.2,10.2-3.7h.1ZM449.5,408l-18.1-11.9-7.1,2.4c-.5.6,7.6,6.7,8.6,7.4,1.2.9,9.5,6.2,10.1,6.3,1,.2,7.3-3.2,6.5-4.3M440.6,414.9l-.6-1.5c-6.6-3.6-13.1-7.7-18.2-13.3l-4.4,1.9,17.8,15.6,5.5-2.7h0ZM433.1,418.7c-7.1-3.2-11.6-9.9-16.4-15.8l7.6,19.4,8.4-2.4.4-1.3h0ZM582.3,465.3c-.9-.9-1.1,0-1.2.9-.3,2.5-.7,8.1,1.9,9.1,1.2-3.3-.3-6.7-.6-10.1M633.2,515c-13.4-2.4-23.5-12.1-36-16.5-4.4-1.5-9.5-1.6-13.7-4.3,0,1.2-1.3,2.5,0,3.5,5.6,2.1,11.1,4.6,16.4,7.5,8.6,4.8,17.7,13.7,27.9,12.2l5.4-2.5h0ZM615,516.9l-33-18.8-1.6,3.1c8.5,3.7,15.9,10.8,22,17.6-2,.2-3.5-1.2-5-2.2-6.2-4.2-11.8-10.5-18-14.7-1.2,1.1-2.3,1.9-.9,3.4,1,1.1,4.9,3.2,6.6,4.7,4.2,3.8,8,8,11.4,12.5l8.9-4.2,9.6-1.4h0ZM640.2,502.4c-6.8,1.4-13.3,4.3-20.4,2.5l-5.4.6c7.2,2.3,14,6.6,21.6,7.6l4.2-10.7h0ZM496.7,513.7c-10.7-1.9-22.2-2.2-31.9-7.5l-5.9,6.5c-.2,1.4.4.8.9,1,10.8,5,23,3.8,34.5,3.1l2.3-3.2h.1ZM595.5,523.2c-4.6-4.1-8.4-9-13.2-12.9-1.1-.9-5.1-4.6-6.3-3.8l-1.2,2.2c5.4,3.7,9.9,8.5,13.2,14.2l7.6.3h0ZM480.3,565.3c5.2-11.1,9.5-23.8,15.6-34.4,5.2-8.9,12.7-15.7,20.9-21.9l-2.5-1.9-1.5.4c-7,5.1-13.1,7.9-17.6,15.9-3.4,6.1-3.7,11.5-5.9,17.4-2.5,6.8-7.3,14.8-9.4,21.4-.2.6-1,3.2.3,3.2M521.8,512.5c-1.1,0-1.8-1.2-2.8-1.2s-10.8,8.1-12.3,9.7c-11.2,11.5-15.4,27.9-23.3,41.6l1.2,1.2c-3.3,8.9-8.7,16.7-11.9,25.6,9.4-7.5,11.4-21,18.4-29.8,1.2-1.5,3.8-3.2,4.3-4,2.3-3.4,4.9-11.1,7.2-15.3,5.4-9.9,11.5-19.4,19.2-27.7M519.2,538.1c2.2-7.4,3.4-15.2,6.9-22.2-1.3-1.6-2.5-2.9-4.3-1.3-2,1.9-6.8,9-8.6,11.6-4.1,6.2-7.1,12.9-10.9,19.3,0,1.9.7.4,1.1,0,1-1.2,2.6-3.6,3.9-4.3,2.4-1.2,10.2-1,11.8-3M487.5,520c-4.7.3-9.7,0-14.5,0s-6-1.2-7.7-1.7c-3-.9-5.8-2-8.6-3.3-1.4,2.7-3.1,5.6-2.9,8.8,12.7,1.6,25.5-.4,37.8-3.8-.4-1.8-3.5,0-4.1,0M529.2,533.7l4.5-14.7c-1.6-2-4-2.1-6.2-2.8l-6.3,20.8,8-3.3h0ZM530.7,532.6c6.3-1.3,11.3-9.3,4.1-13.2-.5,4.6-1.2,9.4-4.1,13.2M453.2,538.3c5.2-1.3,10.5-2,15.7-3.5,3.9-1.1,15.9-4.9,18.2-7.5,1.1-1.5,1.9-3.2,2.5-5-11.7,4.1-24.2,5.3-36.5,3.5v12.6h0ZM486,530.1l-16.9,6.1-15.8,3.4c-.2,5.2-1.7,10.1-3.2,15,1,.9,9-4.2,10.5-4.9,5-2.1,9.7-4.7,14.1-7.9,5.1-3.4,10.6-4.3,11.2-11.8M476.9,556.9c4.2-3.7,6.4-12.6,6.2-18-8.4,7.5-17.6,11.8-27.6,16.5-2,.9-5.6,1.6-6.9,2.4-.8.5-4.5,5.3-6.1,6.7-3,2.5-6.6,4-9.5,6.6,4.4-.4,10.1,1.8,14.2,1.9,1.9,0,10.3-3.5,12.4-4.5,3.2-1.6,14.6-9.1,17.2-11.4M366.8,613.3c-3.2-3.8-1.6-2.5-3.3-6.5-3-7.2-8.5-14.2-12.4-21-6.1-10.7-11.8-20.5-13.1-33.2l-3.6,1.5c1.6,6.2,2.1,15.8,4.7,21.6.6,1.4,2.3,2.8,3.2,4.4,6.9,12.6,13.9,25.1,21.5,37.3l.9-1.2,2.8,4.4c-.2-2.1.6-5.7-.8-7.4M365.1,621.4c-7.5-8.3-12.6-18.5-18-28.3-3.1-5.8-5-9.8-8.6-15.3-3.9-5.8-4.7-16.9-6.1-23.8-.4.2-1.7.6-1.8.7-.5.8,1.5,16,2,18.3,2.7,11.9,6.8,24.4,12.7,35.1,7,12.6,15.6,25,25.8,35.2.8-.4.1-1.8,0-2.5-1.1-6.7-3.7-14.2-5.4-20.7l-.6,1.2h0ZM329.2,554.7c-1.3-.2-1.5.6-1.9,1.6-2.6,6.7-3.6,19.7-2.2,26.8,3.8,20.2,18.4,36.3,32.1,50.3,1.2,1.2,7.2,9.8,9.1,8.2-4.7-5.8-9.3-11.4-13.5-17.7-11.3-16.9-19.7-34.8-22.9-55.2-.6-4.6-.9-9.3-.8-14M325.5,555.9h-2.5c-.7,5.4-4.4,10.9-5,16.1-3,26.1,21.6,48.1,37.7,65.3l3.7,1.6c-21.6-21.8-46.2-49.9-34-83.1M475.9,560.9c-5.6,1.9-9.5,6.8-14.8,9.4-3.1,1.6-6.9,1.9-9.1,4.4,5.1.3,17.4,1.5,20.3-3.3.5-.9,4-10.1,3.6-10.5M362,598.7c-2.1-5.1-4.9-10.6-8.8-14.5,2,5.2,5.5,10,8.8,14.5"/>
          <path id="Path_133" d="M71,277.9c7.7-.4,11.7,13.5,5.9,19.6-8.3,8.6-16.8-2.9-13.3-12.1,1-2.5,4.6-7.4,7.5-7.5M71.2,284.6c-1.3-1.1-2.1,2.3-1.8,3.3l3,5.5c1.5-3.4,0-5.8-1.3-8.8"/>
          <path id="Path_134" d="M100,214.3c-2.8-2.9-6.3,3.5-6.7,6-.2.9,1.7,1.3,2.1,2.7,1.1,3.6,0,11.2-4.7,10.7,0-4.3,3.3-13.2-4.1-10.7-3.2,1-4.2,4.3-7.8,3.8-2.8-2.8,9.6-10.1,12.6-7.6-1.2-4.5,5.1-13.7,9.8-9.4,2,1.8,6.4,9.9,2.8,11.7-3.7,1.9-2.6-5.7-3.9-7.1"/>
          <path id="Path_135" d="M92.6,148.7c-.3-10.9,0-21.5,2.1-32.2,1.3-6.3,3.2-13.8,7.4-18.8-4.9,10.1-6.6,20.7-7.5,31.8-.5,5.4,0,11.8-.6,17,0,.9,0,1.9-1.3,2.2"/>
          <path id="Path_136" d="M83,202.3c4.5-.6,7.5,5.5,5.2,9.1-1.9,3-2.6-3.6-2.9-4.1-2.2-4.5-6.3,2.9-7.2,3.4-1.8,1.1-3.5.3-2.7-2,.8-2.4,5-6,7.6-6.4"/>
          <path id="Path_137" d="M38.8,309.8c1.3.1,4.9,1.2,5,2.5.3,2.5-4.5.6-5.7.6-3.3,0-6.1,2-9.9,1.1-3.4-.8-2.5-4.3-1.4-4.3,3.6,0,8.5-.4,12,0"/>
          <path id="Path_138" d="M145.5,185.8l-13.2-17.6c2.1-1.8,14.6,14.1,13.2,17.6"/>
          <path id="Path_139" d="M139.8,185.8l-13.2-16.4c7.4.9,11,10.1,13.2,16.4"/>
          <path id="Path_140" d="M115.9,219.2c-1.7-.8-11.7-12.2-10.7-13.2,5,2,9.7,8,10.7,13.2"/>
          <path id="Path_141" d="M119,227.3c-3.3-3.4-7.7-7.4-10.7-11-.6-.7-1.5-1-1.3-2.2,2-1.8,12.5,10.2,11.9,13.2"/>
          <path id="Path_142" d="M163.7,154.3c-3,.3-4.3-2.5-6.3-4-.9-.7-6.4-3.3-5-4.8,4.5,1,9.8,4.2,11.3,8.8"/>
          <path id="Path_143" d="M117.8,234.9l-11.3-14.5c6.1,2.5,10.4,8,11.3,14.5"/>
          <path id="Path_144" d="M80,170.1c-1.7.4-1.1-.4-1.6-1.2-2.2-3.9-3.7-8.1-4.1-12.6,3.6,3.1,5.2,9.2,5.7,13.8"/>
          <path id="Path_145" d="M129.1,190.8c-1.2,1.4-1.1-1.6-1.9-1.2l-.3,2.5-5.3-7.2c2.5-3.6,8.4,5,7.5,6"/>
          <path id="Path_146" d="M84.8,283c2.5,2.5,3.1,6.5,2.7,9.9l-6.3-10.4c-.8-2.1,3,0,3.6.5"/>
          <path id="Path_147" d="M116.5,237.4l-11.3-11.9c5.3,1,10.6,6.6,11.3,11.9"/>
          <path id="Path_148" d="M158.7,156.2c-.5.5-9.4-5.2-9.4-6,0-3.6,11.3,4,9.4,6"/>
          <path id="Path_149" d="M114,208.4l-6.9-13.2c1.9-2,7.7,11.4,6.9,13.2"/>
          <path id="Path_150" d="M77.5,258.2c.4,1.8-.9,1.3-2.2,1.3-3.2,0-6.7-1.2-10.1-.6l-.9-1.3c4.4-1,9-.8,13.2.6"/>
          <path id="Path_151" d="M110.8,241.2c-.9.8-5.7-3.6-6.5-4.5-3.3-3.3,1.1-2.9,3.7-.5.7.6,3.4,4.5,2.8,5"/>
          <path id="Path_152" d="M134.8,187.1l-10.1-13.2c1.2-.3,1.5.7,2.2,1.2,3.6,3,7,7.2,7.9,12"/>
          <path id="Path_153" d="M74.3,168.2c-1.9-.6-4.2-10.2-3.8-10.7,3.8,1.2,3.8,7.4,3.8,10.7"/>
          <path id="Path_154" d="M149.2,182.6c-1,1.2-1.4-.9-1.6-1.2-2.5-3.8-4.7-7.5-7.9-10.7,3.4-1.1,10.1,11.2,9.4,11.9"/>
          <path id="Path_155" d="M112.7,239.9l-9.4-11.3c1.6-1.4,10,9.1,9.4,11.3"/>
          <path id="Path_156" d="M153,180.1l-6.9-11.9c1.4-.3,1.4.8,2,1.4,2.2,2.4,4.7,7.2,4.9,10.5"/>
          <path id="Path_157" d="M84.4,165c-3.7-2.5-4.6-7.7-6.9-11.3,1-1,3.2,2.9,3.7,3.6,1.5,2.4,2.6,5,3.3,7.7"/>
          <path id="Path_158" d="M69.9,140.5l2.5,10.1c-2.2-1.2-3-5.1-3.5-7.5-.2-1.2-1-3,1-2.6"/>
          <path id="Path_159" d="M54.8,200.9c-.9.1-1-1.1-1.1-1.7-.3-1.3-1.2-9.2-.8-9.6h1.9c-.4.8,0,1.6,0,2.2v9.1h0Z"/>
          <path id="Path_160" d="M90.7,289l-7.5-11.3c4.2,2.1,7.5,6.5,7.5,11.3"/>
          <path id="Path_161" d="M58,261.3l-4.8,1.2-7.2.7c2.5-2.9,8.4-2.9,12-1.9"/>
          <path id="Path_162" d="M131.6,188.3l-8.2-8.2c3.8.2,7.4,4.6,8.2,8.2"/>
          <path id="Path_163" d="M76.1,141.2c.3,1.6.5,3.2.4,4.9-1.3-.6-5.7-8.4-5.3-8.8.6.9,4.7,3.6,4.9,3.9"/>
          <path id="Path_164" d="M157.4,175.7c-.8-.6-6.2-6.4-5.6-6.9,3.3.6,5.7,3.6,5.6,6.9"/>
          <path id="Path_165" d="M77.5,254.4c.2,1.1-1.4.6-2,.5-1.3-.2-2.6-.8-4-1-1.6-.3-5.2.9-4.7-1.3,3.7-.3,7.3.4,10.7,1.9"/>
          <path id="Path_166" d="M58.6,193.4c-2.3-2.2-1.7-7.1-1.9-10.1,1.1.4,1.6,3.3,1.7,4.2.2,1.9.2,3.9.2,5.8"/>
          <path id="Path_167" d="M73.1,178.9c-1.6.4-1.3-.6-1.7-1.8-.5-1.6-1.7-5.7-.5-7.1,1.4,2.7,2.2,5.7,2.2,8.8"/>
          <path id="Path_168" d="M48.5,253.8c-.2-.9,1.2-.8,1.9-1,2.3-.4,4.7-.5,7.1-.1.6,0,2.5.2,2.4,1.1h-11.4Z"/>
          <path id="Path_169" d="M73.7,262.6c.2,1.1-1.5.7-2.2.6-1.6-.1-4.1-.4-5.6-.7-.7-.1-2.3-.2-2.3-1.2,3.4-.2,6.8.3,10.1,1.3"/>
          <path id="Path_170" d="M524.7,460.5c1.5,0,3.2,2.2,3.8,3.5,1.8,4.1,1.8,15.2-.4,19.1-1.6,2.9-5,4-7.4,1.3-3.8-4.1-5.3-15.6-2.2-20.4.9-1.4,4.7-3.6,6.3-3.5M522.5,480.4c4.6-3.4,3-10.2,2.5-15.1-4,3.3-3.5,10.4-2.5,15.1"/>
          <path id="Path_171" d="M499.8,395.4c-1.2.2-1.5-.6-2-1.5-1.7-3-2.9-7.5-4.8-10.9-9.2-16.2-24.6-20.9-37.5-31.7-.9-.8-5.8-5.2-4.7-6.3,3.5.2,5.9,3.9,8.9,5.9,16.9,11.8,36.1,22,40.2,44.4"/>
          <path id="Path_172" d="M473.4,484.8c-3.3,0-5.4-2.1-8.8-1-6.7,2.2,8.2,9.5,8.2,10.7-1.1,2-4.2,1.1-6.2.5-6.5-1.9-12.1-7.5-6.4-13.7,2.9-3.1,5-2.3,8.7-1.1,2.4.8,5.2,1.5,4.5,4.6"/>
          <path id="Path_173" d="M484.7,455.2v2.4c-2.5.7-6.2.1-6.2,3.5s8.7,3.4,7.5,7.9c-2.7.4-5.9-2-7.9.6l-.3,1.5c.1,1.1,2.3,3.1,3.2,3.8,2,1.4,5.5,1.3,5,4.1-7.4.6-17.5-7.6-8.2-13.5-5-5.7.2-11.6,6.9-10.4"/>
          <path id="Path_174" d="M508.6,402.3c2-4.1-.6-7.9-2.9-11.3-9.3-13.4-22.6-22.8-32.7-34.7-.5-.6-3.3-3.9-2.8-4.4,1.1.6,2.2,1.4,3.1,2.2,10.2,8.7,30.2,27.9,36,39.5,1.3,2.6,3.6,7.5-.7,8.6"/>
          <path id="Path_175" d="M564.8,494.1c-.5-4.6-3.9-5.6-8.1-6.1-7.9-.8-6.8,2.5-12.6,6.1-5.3-2.5,1.7-8,4.6-8.6,2-.4,5.9-.3,8.1-.2,3.2.2,9,.9,11,3.5,3.2,4.1-1.5,7-3,5.2"/>
          <path id="Path_176" d="M457.6,468.4c-1.1-1.2.7-3.6.6-3.8-.7-.1-1.3-.5-1.8-1-5.4-7.6.5-15.3,9-12.2,1.8,2.5-6.2,3.2-7.2,4.1-.9.7-.8,2.2-.6,3.1.8,4.8,11.2,1.9,10.1,5.7-.1.5-9.6,4.4-10.1,4.1"/>
          <path id="Path_177" d="M559.3,440.1c.8.1,2.3,1.4,3.5,1.3v.6c-1.4.6-3.4-.6-4.1-.6h-10.7c0,0-1-.9-.9-1.3,3.8.4,8.6-.5,12.3,0"/>
          <path id="Path_178" d="M510.5,502.4c.1,1.1-1.4.6-2.2.6h-5l-9.8-1.9c5.7-.2,11.4.6,17,1.3"/>
          <path id="Path_179" d="M444.4,435.7c0,1.2-2.6.6-3.3.5-2.5-.5-5.8-1.6-8.4-2.4-1-.3-1.9.7-1.5-1.3,4.6,0,8.9,2,13.2,3.1"/>
          <path id="Path_180" d="M457,428.1l-10.4,1.3-3.5-1c4.5-1,9.3-1.5,13.9-.3"/>
          <path id="Path_181" d="M445.7,447.6l-3.3-.2-7.4-2.4c3.5,0,8-.3,10.7,2.5"/>
          <path id="Path_182" d="M562.8,445.1l-6.6.6-6.6-1c.8-1.2,1.5-.9,2.6-.8,3.4.1,7.1,1.2,10.6,1.1"/>
          <path id="Path_183" d="M550.8,449.5c1.1-2,5.2-1.4,7.2-1.2.7,0,3.5.3,3.5,1.2h-10.7Z"/>
          <path id="Path_184" d="M501.7,493c-.4,1.2-3.7.7-4.6.5-2.1-.3-4.2-.7-6.2-1.4-.7-.2-1.9-.2-1.8-1.1l12.6,1.9h0Z"/>
          <path id="Path_185" d="M457,433.2l-2.8.6-7.9-1.2c3.5-1.3,7.2,0,10.7.6"/>
          <path id="Path_186" d="M499.2,490.4c-3.3-1-8.1-.8-10.7-3.1,3.4.7,8,.7,10.7,3.1"/>
          <path id="Path_187" class="st2" d="M355.6,366.4c-4.1,1.4-22,6.4-23.8,9.2-4.5,7.1,8.2,7.5,10.1,12.4,4.5,10.9-20.1,16.6-27,13.2-4.5-2.2-2-5.1-2-8.6-.1-7.4-5.5-5.9-10.6-4.3-5.8,1.8-17.8,9.5-22.8,4.9-1.7-1.5-7.9-13.6-8.9-16.3-1.6-4.3-4.2-10.2,2.4-11.1,4.9-.7,10.9,3.9,15.4-1,5.4-5.8.3-19.2-3.3-25.1-4-6.5-9.1-10.8-16.2-5.1-2.5,2-5.3,9.5-8.2,8.2-3.2-1.4-9.3-20.1-9.5-24-.2-2.5.5-5,2.1-7,4.7-1.2,22.3-5.5,24.1-9.6,3.4-7.9-10.4-6.2-9-12.8.9-4.1,10.6-7.4,14.4-8.3s10.1-2.2,13.2.6c3.7,3.4.5,5,0,8.2-2,13.6,23.3,5,29.2.9,3,4.8,8.5,25.7,13,27.8,9.5,4.5,5.8-13.7,15-6.2,5.3,4.4,10.1,17.7,8.7,24.4-1.6,7.3-7.6-1.2-10.9-1.2s-4.3,4.3-3.3,7.5c1.1,3.5,10.2,20.4,8,23.1"/>
          <path id="Path_188" class="st2" d="M309.7,400.1c1.5,7.1,17.4,4.4,22.4,2.8,15.2-4.8,19-17.6,2.3-23.4-.4-1.8,0-2.4,1.4-3.2,1.8-1.1,12.8-5.2,15.1-5.7.9-.2,1.3-.6,2.4-.1,4.8,2.1,17.4,33.9,19.5,40.3-.1,1.5-4.8-.3-6-.3-3.2,0-7.2,2.2-9.1,4.7-8.8,11.9,8.7,32.1,18.9,22.7,2.9-2.6,3.4-7.2,7.8-1.6,1.7,2.1,8,15.2,7.7,17.3-3.9,5.7-22.9,8.1-22.4,16.3.2,3.4,6,5.2,4.1,11.1-2.1,6.5-18.8,12.5-24.2,7.8-3.3-2.9,3.5-12.6-4.2-13.5-7.1-.9-21.9,12.9-29.5,5.7-1.8-1.7-9.7-16.9-10.9-19.9-.7-1.8-3.6-7.7-.5-7.8,4.8,1.3,10,3.7,14.2-.3,8.4-8-1.6-28.5-13.4-26-3.2.7-6.3,5.7-10,2.7-1.4-1.1-6.6-12-7.6-14.4-1.2-2.8-6.9-16.2-4.2-17.9,9.2-.7,17.1-7.3,26.3-7.7.4,3-.6,7.6,0,10.4"/>
          <path id="Path_189" class="st2" d="M307.2,243.4c-4.8.3-8.4-5.7-13.2-2.2-5.2,3.8-1.8,16,.3,21,2.6,6,7,13.8,14.7,10.3,4.3-1.9,4.8-5.9,6.7-9.7,1.8,0,7.1,14.2,7.9,16.6.9,2.8,1.8,5.6,2.5,8.5-6.1,2.2-12,5.5-18.6,6.2-17.2,1.8-2.3-6.6-8.7-13.8-5.5-6.2-18.8-1.8-25.2,1.3-11.9,5.7-10.6,13.9,1.5,17.7.1.6,0,1.3-.3,1.9-1,2-12.8,5.7-15.6,6.5-3.3,1-6.7,1.8-10.2,2.3-1.8-.5-5.4-21.6-12.1-23.1-6.6-1.5-9.6,8.8-15.6,3-3.8-3.6-11.5-18-7.5-22.7,3.3-3.8,12.5,4.4,13.5-4.1,1-8.9-10.2-22-10.1-31.8,9.6-1.2,26.4-9.2,35.6-7.6,5.1.9-2.1,9.2-2.2,11.7-.3,9.2,14.1,4.8,19,3.2,10.5-3.3,20.2-11.9,6.8-19.6,0-2.1,15.4-8.1,17.9-7.9.5,0,1,.2,1.3.6.9.7,7.9,16.6,8.8,18.9,1.5,4,3.1,8.2,2.8,12.6"/>
        </g>
      </g>
    </g>
  </g>
</svg>