<?xml version="1.0" encoding="UTF-8"?>
<svg id="Layer_2" xmlns="http://www.w3.org/2000/svg" version="1.1" viewBox="0 0 289.2 347.5">
  <!-- Generator: Adobe Illustrator 29.6.1, SVG Export Plug-In . SVG Version: 2.1.1 Build 9)  -->
  <defs>
    <style>
      .st0, .st1 {
        fill: none;
      }

      .st2 {
        fill: #01e486;
      }

      .st3 {
        fill: #fff;
      }

      .st1 {
        stroke: #000;
        stroke-width: 3px;
      }
    </style>
  </defs>
  <g id="Layer_1-2">
    <g>
      <path class="st3" d="M117.9,321.7l11.7,3.1,78.1-128.6,69.6-114.7-6.1-4-3.6.9-2.7,4.9-12-16-12.9-6.8-57.9-7-25-5.9-38.2-21.9L100.5,1.8l-6.2,5.3-41.6,58-25.1,34.3,9,14.8,6.6,7.6s16.2,13.8,16.9,14,21.7,12.4,21.7,12.4l25.3,7.2,36.9,3.9,17.9,3.2,14.7,3.5,9.9,3.4,6.7,6.8,7.2,12.5-4.2,4.9-31.1,55.3-41.4,66.9-5.7,5.9h0Z"/>
      <g id="Group_9060">
        <path id="Path_5774" d="M110.1,11c8.8,9.5,18.3,19.5,29.7,25.8,12.6,7,24.6,12.4,39.1,14.5,13.2,1.9,26.7,2.7,40,3.5,10.2.7,20.9,2.3,29.5,8,6.8,4.4,12.8,10.7,16.5,18,.9-.9,3.5-5.2,4.5-5.3.5,0,4.4,1.7,5,2,.7.4,3.5,2.6,3.6,3.2-3.2,8.3-9,15.2-13.6,22.8-2.8,4.6-5.2,9.5-7.9,14.2-43.9,72.5-87.4,145.3-131.8,217.6-4.9,3.8-12-1.8-11.6-7.4.1-1.8,5.6-8.2,7-10.2,12.8-18.4,23.4-38.1,35.4-57,.9-1.4,2-2.5,2.9-3.9,7.5-11.7,13.2-24.5,20-36.6,6.1-10.8,13-21.1,19.4-31.7-4.6-16.8-22-22.2-37.4-24.9-17.6-3.1-35.3-4.7-53-7.1-24.6-3.4-38.4-12-57.5-26.8-9.8-7.6-17.9-18.5-24-29.1-.7-1.3-.2-2.6.5-3.7,7.1-7.8,13.8-16,20-24.6,16.2-21.9,31.3-44.7,47.7-66.4.9-1.3,1.9-2.6,3-3.8.8-.7,1.6-1.3,2.4-1.8,1.5-.4,2.2.6,3.1,1.6,2.7,2.9,5,6.5,7.6,9.3M99.8,32.2l11.1-15.6c-3.5-3.7-7.3-7.2-10.2-11.5-1.3-1.2-3.2,1-4,2-2.5,3.3-5.2,6.9-7.5,10.4-.8,1.1-1.9,2.1-2.2,3.6,1.2,1.6,3.2,2.9,4.8,4.3,1.2,1.1,2.5,2.3,3.7,3.4.8.7,3.1,3.6,3.8,3.7.2,0,.4,0,.6-.2M138.4,39.8c-2-.7-3.7-2.1-5.5-3.2-.7-.4-1.5-.6-2.3-1-2.2-1.3-3.9-3.2-5.9-4.6l-10.4,15,14.4,9.4,9.7-15.6h0ZM100.1,34.6l-12,16,12.7,12.5,11.9-17.7-12.7-10.7h0ZM64.7,52.6c4.9,2.8,7.6,7.9,11.9,11.4l9.9-14c-.6-.6-1.4-.9-2.1-1.4-2.8-2.3-6.9-7-9.7-8.7-.4-.3-.8-.4-1.3-.4-2.8,4.2-6.2,7.9-8.6,12.4v.7c0,0,0,0,0,0ZM170.9,53.7l-13.6-3.9-9.6,14.7,14.6,3.4,8.6-14.2h0ZM203.4,58l-13.8-1.5-7.8,14.6,14.8,1.7,6.8-14.8h0ZM145.2,65c-5.4-2.1-10.8-4.6-15.9-7.3l-11,17c5.3,3.1,11.3,4.3,17.1,6.2l9.8-15.8ZM247.9,67.3c-3.8-2.1-7.2-4-11.4-5.4-2.9-1-5.9-1.5-8.9-1.4-.8,0-1.6-.5-2.5-.2l-8,16.6c3.5.6,7.2,2.1,10.5,3.5,3,1.2,6,2.7,8.8,4.3.5.4,1,.8,1.5,1.3l9.9-18.6h0ZM116,75.1c-1.6-.3-3-1.4-4.4-2.3-3.6-2.4-7-5.2-10.1-8.3l-10.2,14.9c4.8,3.9,9.8,7.9,15.4,10.5l9.2-14.8h0ZM79.3,95.5l10.8-16.2-13.4-13.4-12.2,16.4s14.8,13.2,14.8,13.2ZM53,96.6c2.9-3.7,6.9-9,9.4-12.9.2-.3.8-1.1.8-1.4l-11.4-12.8-12,16.2c0,.5,2.1,2.3,2.6,2.9,2.2,2.8,4.7,6.4,6.8,9.3.3.4.7,1.7,1,1.7.4.1,1.3-1.8,1.8-2.3.3-.4.8-.6,1-.8M153.5,85.6l16.4,2.7,9.3-16.6c-.1-.2-.4-.4-.6-.4-1.4-.2-3.6,0-5.2-.3-2.1-.3-8.5-2-10-1.3l-9.8,16h0ZM214.9,76.8l-8.7-2.2c-2.8,0-5.6-1-8.4-.4l-7,14.6,16.7,3.9,7.5-15.8h0ZM267.8,83.1c2.1.4,3.8,1.8,5.2,3.3l3.1-4.6c-.7-.7-5.3-3.6-5.8-3.2.3.9-2.7,4.3-2.5,4.5M142.9,100.7l8.1-14.2-14.9-4.1-10.2,15.6c5.6,1.8,11.3,2,17.1,2.7M239,87.9l-8.7,15.7c5.5,2.6,9.5,7.3,13.5,11.7l9.2-16c-3.8-4.6-8.2-9.2-13.9-11.5M187.8,91.7c-2.4-.3-4.8-.9-7.2-1.2-1.4-.2-2.9-.2-4.2-.3-1.7-.2-3.6-1.3-5.3-.4-.9.5-4.8,7.9-5.7,9.4-.4.7-2.2,3-1.8,3.6l16.9,3.5,1-1.1,6.2-13.5h0ZM124.1,98.2c-4.6-1.3-9.7-2.9-13.9-5.1-.7-.4-2.5-1.8-3-1.8l-10.7,16.5c0,.3,3.7,2.3,4.3,2.5,3.9,1.7,7.8,3.2,11.9,4.5.3.1.7.2,1,.2l10.5-16.9ZM228.8,103.3c-6.5-3.6-13-7.4-20.2-9.3l-8,16.4,19.5,9.6,8.7-16.6h0ZM83.8,126.4l11.3-18c-1.7-1.6-3.6-3-5.5-4.3-2.6-1.8-6.8-4.9-9.4-6.2-.5-.2-1-.4-1.5-.5l-11.7,17.1,16.8,11.8ZM58,108.9l-7.8-7.9-10.6,14.2c4.2,5.8,9.6,10.5,15.4,14.7l10.5-15c0-.4-.2-.3-.3-.4-.8-.7-2.5-1.4-3.6-2.2-1.2-.9-2.5-2.3-3.5-3.4M251.4,120.6l10-17c-.1-.8-4.1-2.7-4.7-2.4l-10.1,16.2c-.1.5,0,.3.3.4.6.4,1.4.6,2,1,.4.3,2.2,1.9,2.4,1.7M161.3,103.8l-18.1-2-10.6,17.6,19.1,1.9,9.6-17.5ZM199.3,110.3c-5.9-1-11.8-2.8-17.9-2.7l-7.8,16.5c5.9.7,11.5,2.6,17.1,4.4l8.6-18.3h0ZM121.3,137.2l9.6-16.4c-.1-.2-.4-.4-.6-.4-2.6-.5-5.4-.6-7.9-1.1-2.9-.6-5.8-1.9-8.6-2.6l-11,16.6s18.6,4,18.6,4ZM224,146.3l8.6-13.6c-3.7-4.1-7.5-8.2-11.9-11.5l-8.6,15.7c2.3,1.8,4.9,3.2,7.1,5.2,1.1.9,3.3,3.7,4.2,4.1.2.1.5.2.7,0M172.1,124.7c-1.4-.5-2.9-.9-4.4-1-5-.8-10.1-1.2-15.2-1.7l-10.1,17.8,21.9,2.2,7.8-17.3h0ZM101.2,133.5c-1.6-.2-3.2-.5-4.7-.9-2.3-.6-5.1-1.3-7.3-2-.9-.3-5.3-2.5-5.6-2.3l-8.6,14.7c3.2,1.9,6.8,3,10.2,4.4.9.4,5.4,3.1,6.2,2.5,1.3-3.7,4-6.8,5.6-10.4l4.2-6ZM210.9,137c-6.1-3.7-12.7-5.6-19.5-7.5l-8.4,17.1c6.5,1.6,11.9,5.7,17.4,9.4h.7c0,.1,9.8-19,9.8-19h0ZM241.1,137.3l-4.7-2.5h-.3c0,0-8.8,14.6-8.8,14.6,1,0,1.9.1,2.8.6.7.3,2.2,1.6,2.7,1.4l8.3-14h0ZM140.9,140.5l-19.5-1.7-7.7,14.8,18,2.3c2.1-2.2,3.1-5,4.7-7.5.5-.9,5-7.5,4.6-7.9M182,147.1l-17.6-4c-.3,2.1-1.5,4.1-2.4,6-1.2,2.5-2.6,5.7-4,8.1-.2.4-1.8,2.3-1.6,2.5,2.7,1.4,5.9,1.5,8.9,2.3,2.4.6,5.3,2.1,7.7,2.4,1.9.3,1.9-1.9,2.6-3.3,2-4.1,4.5-8.2,6.2-12.4.2-.5.4-1,.3-1.6M200.6,184.6c.4.1.5-.1.7-.4,1.3-1.8,2.7-4.6,4-6.6,2.2-3.5,4.6-7,6.9-10.5-3.2-3.6-7.1-6.3-10.9-9.2l-8.2,15c0,.7.9.6,1.2.9.1.2.1.6.3.8,2.6,2.9,5.1,6.1,6.1,9.9M220.2,171.5c-1.5-.4-3.4-2.1-4.8-2.4-.3,0-.4-.1-.6.1l-12.7,20.9c2,.5,3.9,1.4,5.4,2.7l.3-.2,12.4-21.1h0ZM122.8,333.5l83.3-138-4.9-3.9c-.4,0-1.2,1.4-1.5,1.8-10.8,16-19.9,33-29.6,49.6-4.4,7.4-9.2,14.6-13.5,22-4.6,7.9-8.9,14.9-13.9,22.6-7.9,12.2-14.6,24.8-22.9,36.7-1,1.5-2.2,2.9-3.4,4.2.1,3.4,2.8,6.1,6.4,5"/>
        <rect id="Rectangle_3883" class="st0" x="25.5" width="252.6" height="336.6"/>
        <path id="Path_5874" class="st3" d="M112.2,320.2l23.6,5.4-3.1,11.7-22.6-1.3-4-10.4,6.1-5.4h0Z"/>
        <path id="Path_5875" class="st2" d="M287.1,346.6l-285.2-1.8,40.9-41.4,88.7,21.1,29.7-15.8,42.2,13.9,47-19.2,36.7,43.2Z"/>
        <path id="Path_5873" class="st1" d="M1,344s42-42.5,43.1-40.3c1.1,2.2,86.7,21.3,86.7,21.3l30.1-16.4,41.3,14.1,47.6-19,38.1,42.8"/>
        <path id="Path_7041" class="st3" d="M214.9,169.1l13.8-22.1,5.6,1.9-17.8,28.5-1.5-8.3h0Z"/>
        <path id="Path_7042" class="st3" d="M235.8,135.2l12.3-20.1,3.3,5.4-11.8,19.2-3.8-4.6Z"/>
        <path id="Path_7043" class="st3" d="M256.3,102l11.5-18.9,5.9,2.3-12.7,19.2-4.7-2.5Z"/>
      </g>
    </g>
  </g>
</svg>