<?xml version="1.0" encoding="UTF-8"?>
<svg id="Layer_2" xmlns="http://www.w3.org/2000/svg" xmlns:xlink="http://www.w3.org/1999/xlink" version="1.1" viewBox="0 0 386.4 433.1">
  <!-- Generator: Adobe Illustrator 29.6.1, SVG Export Plug-In . SVG Version: 2.1.1 Build 9)  -->
  <defs>
    <style>
      .st0 {
        fill: none;
      }

      .st1 {
        fill: #fff;
      }

      .st2 {
        fill: #fd8721;
      }

      .st3 {
        clip-path: url(#clippath);
      }
    </style>
    <clipPath id="clippath">
      <rect class="st0" width="386.4" height="433.1"/>
    </clipPath>
  </defs>
  <g id="Layer_1-2">
    <g class="st3">
      <g id="Group_283">
        <path id="Path_1036" class="st1" d="M79.7,85.8l10.2,3.8,7.5,2.4,6.2-2.4,6.4,1.3s3.6-1.2,4.3-1.3,7.3-5.9,7.3-5.9l12.7,1.3,3.9,5.9v4.4l-2,5.4,5.4,3.7,5.4,5.9,3.7,8.3,6.1,10.6,2.6,1.7,6.1-6.2,9.7-6.1,6.6-1.3h13.6l2.7-7,1.6-8.3s2.9-2.2,2.9-2.5,0-3.3,0-3.3l2-1.1c.8,0,1.6,0,2.4,0,.2.1,1.7,1.5,1.7,1.5.4.4.7.9.8,1.5.2.9.6,1.4,0,2.2-.6.8-1.3,1.5-2,2.2-.5.5-1.6,1.9-1.9,2.3-.5.4-1.1.8-1.6,1.2-.7.5-1.6,1.3-1.6,1.6s-.4.7-.7,1.5c-.3.8-.5,1.6-.5,2.4.1.7.3,1.4.5,2.1,0,0-.2,0,.2.3s-.4.3.9.4c1.1,0,2.1,0,3.1-.4.8-.3,1.6-.8,2.2-1.3.9-.7,1.6-.9,2.2-1.4.6-.5,1.3-.9,2.1-1.2.7-.3,1.1-.3,1.6-.5.6-.2,1.1-.3,1.6-.6.7-.3,1.1-.7,1.5-.8s1.6-2.6,1.9-2.9,1.1-2.1,1.5-2.3c.5-.3,1.1-.5,1.7-.6,1-.1,1.8-.2,2.4-.2s.5-.4,1.3,0,1.2-.2,1.9,1.3c.5.8.8,1.8,1,2.7.3,1.3.5,1.9.2,3.1-.2.9-.5,1.7-.9,2.4-.5.9-8.6.3-8.6.3l-4.9,3.2-5.1,3.6,14.6,11.5,11.2-2.4,2.2,4.8s-1.5,3.7-2,4.3-4.6,1.8-4.8,1.9-3.5.2-3.7,0-5.1-6.2-5.1-6.2l-11.8-5.9-1.4,2.1,7,14,7,3.6-3.7,5.8s-6.8.6-7,.5c-.8-1-1.5-2.1-2.1-3.2,0-.3,1.7-5.6,1.7-5.6l-6.3-12.7-10-2.4-10.8,2.1-5.6,4.9s-4.6,5-5,5.2-4.3,6.4-4.3,6.4c.4,1.1.9,2.1,1.4,3.1.4.4,7.5,7.9,7.5,7.9l11.2,13,4.7,8.1s.8,3.1,1.1,3.6,2.5.8,2.5.8l4-2.1,5.1-1.4,5.9.7,7.7,1.4,8.4.4,4.5-1,4.8,1.3,7.4,7.1,3.9,3.9,7.7,7s4.8,3.1,5.1,3.1,5.6,1.2,5.6,1.2c0,0,6.4.9,6.6.9s4.3-1.7,4.3-1.7l1.9-2.6h2.8l2.1,2.3.5,4.1-1.1,3.8-2.5,1.9-3.2-.5-4.6-1.4-4.6.2-1.7,3.2c.1.8.3,1.7.5,2.5.1.3,2.6,8.8,2.6,8.8l3.2,1v7.1l-3.9,2.9-3.1-1.6-1.8-16.8-2.2,1.4-2.3,11.6,3.6,5.1-10.2,6.2-2.9-2.4-.7-5.2,3.9-3.1,3.5-13.5-1.6-5.6-12.3-10.6-10.8-10.1-6.9-1.1-7.9,2.2s-9.3,4.1-9.6,4.3-18.6,8.1-18.6,8.1l-29.1,9.6s-9,13-9.4,13.4-15.3,17.1-15.3,17.1l7.2-1.8,17.8-.9,14.3,1.8,3.7,3.2s0,5.7,0,6-.9,9.1-.9,9.1l2.2,5.8s2.1,4.4,2.6,4.6,2.9,3.5,2.9,3.5l-2.9,5.8s-3,2.9-3.4,2.8-3.4-1.8-3.6-2.5c-.3-1.5-.5-3.1-.6-4.7,0-.9,1.1-4.5,1.2-5.2s.3-3.3-.2-4.1-2.5-4.2-2.5-4.2c0,0-1.2-.6-1.2.6s-2.1,7.9-2.1,8.1-1.5,9.5-1.5,9.5c0,0-.4,7.5-.4,7.8s-2.5,3.4-2.8,3.4-3.2-.3-3.5-.8-2.1-3.5-2.1-3.5c0,0-.5-3.5-.3-3.9s1.4-2.2,1.5-2.4,2.6-4.6,2.6-4.6v-11.7l-7,10.7-1.6,6.1-.8,6.8s-4.1,2.7-4.2,2.7-6-1.6-6-1.6c0,0-1.1-3.7-1.1-3.9s1.6-5.2,1.6-5.2l4-2.6,2.8-1.4,1.3-4.3-1.9-.9-6.4,2.9s-3.6,2.4-3.7,2.3-3.6-2.1-3.5-2.3.5-3.5.5-3.5l2.7-1.8,2.1-.5,3.2.5,4.7-2.5,9.1-8.6,4.6-4.9s-5.7-1.4-5.9-1.4-16.8,5.1-16.8,5.1l-13.9,7.5-6.9,5.4h-4.4l-3.6-2.6s3.6-5.3,3.6-5.5,1.8-5.7,1.9-6.1.3-14.3.3-14.3l1.9-5.6,7.1-16.2,3.7-4.5,3.9-5.7,3.4-4.4-5.5-4.1-12.4-6.6-5.2-5.4-13.2-12.2-6.8-3.8-8.1,4.9-11.2,12.4s-10.7,7.1-11.5,7.3-18.2,2.9-18.2,2.9l4.4,3s3.8-2.6,4.3-2.4,5.4,2,5.4,2l1.6,5.3-4.1,4.7s-5.3-.8-5.6-1.1-5.2-4.5-5.2-4.5h-3.4l-2.7,5.5-1.2,5.8,1.2,6.4-3,4.2h-5.8l-4.3-2.7-1-5,1.9-4.2,3.4-2.4s.2-6.3,0-6.9-1.5-4.2-1.5-4.2l-9.4,5.4-8.8,9.4-5.5,1.6-6.1-6.4,1.2-6.5h6.9l4.6-.6,9-9.4-6.8-3-8.8,3H2.8l-1.3-7.9,2.8-4.5,3.3-1.4,5,2.3s6.1,2.7,6.5,2.7,11,.9,11,.9h11.4l8.2-.9,7.5-3.6,14.4-9.9,4.9-6.7,6.3-8.4,3.9-7.7,4.4-4.2v-6.6l-3.4-4.7-8-1.8-7.6-6.8-1.8-15.5,2.8-8.7-4.8-3.8-2.2-4.4,2.9-6.9,3.2-4.1,5-3,2.4.8h0Z"/>
        <path id="Path_190" d="M194.8,115.5c1.7-1.7,3.3-11.1,4.4-14.2.3-.8,1-1.4,1.4-2.2.8-2.1-.4-3.6,2.8-4.8,6-2.2,9.1,5.1,4.8,9.3-2.7,2.6-5.3,2.6-6.3,7.6-1.1,5.7,7.5-.9,9.4-1.8,1.4-.7,4.3-1.2,5.4-2.2,1-.8.7-2,1.4-3.1,1.5-2.4,7-3.6,9.3-1.8,1.6,1.2,3.1,6.1,2.2,8,0,.2-1.9,2.6-2,2.7-1.7,1.4-4.5.1-6.4,0-3.3,0-7.6,4.6-11,5.6,3.6,4.5,9.2,6.5,13.4,10.3,5.2-1,13.3-5.5,13.9,3.1.4,5.8-4.7,9-10.1,8.3-4.4-.6-3.8-4.2-5.9-6.2-.8-.7-10.8-6.7-11.4-6.3-1.3,1,1.9,4.3,2.6,5.7,1.3,2.6,2.1,5.9,3,8.7,1.2,1.7,7.9.6,6.7,6.3-1,5.1-7.7,7.4-12.1,4.4s.4-6.9,0-8.9c-.8-2.1-1.8-4.1-2.9-6.1-.6-1-2.2-4-2.8-4.8-.8-.9-1.8-1.6-2.9-2.1-5.8-2-13.6.1-18.7,3.2-3.7,2.2-11.1,8.2-12.1,12.6-.8,3.7,3.3,5.5,5.3,7.5,2.2,2.1,4.3,4.4,6.2,6.8,5.2,6.4,10.5,13.7,13.7,21.3,3.4-.9,7.5-2.9,11-3,5-.1,11.4,2.7,16.1,2.7,2.2,0,5.2-1.2,7.7-1.2,8.5.1,11,5.9,16.3,10.8,7,6.5,15.1,13.5,25.3,13.7,4.6,0,4.3-2.9,7.5-4.2,6.5-2.5,8.8,8.6,4.1,12.2-4.4,3.5-6.4-.4-10.3-.5-7.3-.2-3.9,4.4-3,8.4.3,1.3-.1,2.8.4,4.1.3.7,2.1.8,3.1,1.9,4.9,5.2-1.5,15.3-7.6,9.4-.1-3.4-1.1-6.7-1.6-10.1-.2-1.5.6-4.1-.9-5.1l-2.7,10.5c.1,1.3,3.8,3.3,3.1,5.7-.3,1-8.2,7-9.6,7-2.6,0-5.5-3.9-5.5-6.4,0-4.2,2.9-3.9,4-5.5.6-.9,3.5-12.1,3.6-13.4,0-1.6-.5-2.9-1-4.4-7.6-8-16.5-14.6-24.8-21.8-4.9-1.4-8.2,1.8-12.1,3.5-7.6,3.4-16.6,4.8-24.2,8-3.6,1.6-6.3,4.6-9.9,6.2-6.7,3-15,4-22.1,6.2l-22.9,28.4c7.8-2.2,17.2-2.3,25.3-1.8,2.6.1,8.3.8,10.6,1.5,7.7,2.3,3.7,9.2,3.5,14.9-.3,7,2.8,12.4,7.4,17.3.7,5.5-6.9,14.6-11.3,7.3-1.2-2-1.2-4.2-.9-6.5.3-1.7,1.8-3.4,1.7-4.6,0-1.4-2-3.7-2.5-5.2-1.7,3.4-3.2,6.7-3.4,10.5,0,1.1.5,2.1.4,3.1,0,1.6-1.2,3.6-1.3,5-.2,2.9,1.7,4.8-1.5,7.6-6,5.4-10.6-3.3-7.8-9.4.6-1.4,1.9-2.3,2.4-3.8.9-2.8.6-7,1-10l-4.1,6c-3.3,4.3-2.5,8-3.1,12.6-.6,4.6-3.9,6.1-8.2,5.6-7.7-.9-6.6-8.3-2.7-12.9,2.3-2.6,6.2-1.9,6.5-5.9-5.1,0-8.3,7-13.6,4-4.2-2.4-1-9.6,4.1-9.6,1.8,0,3.8,1.6,5.7.2l14.6-14.3c-9.1-1.6-18.3,2-26.1,6.4-3.4,1.9-13.6,10-15.9,10.6-2,.5-7-.1-8-2.1-1.1-2.4,2.5-7.8,3.1-10.7,1.2-5.5.8-11.9,1.7-17.6,1.1-6.4,3.4-12.6,6.8-18.2,3.6-6.1,9-11.1,12.3-17.3-.1-.5-5.3-2.1-6.4-2.6-4.9-2.1-9.5-5-13.5-8.4-6.4-5.6-12.2-15.3-19.8-18.7-1.4-.6-2.5-1.5-3.9-.6-2.2,1.3-6.4,7.6-8.5,9.9-5.3,5.8-13.1,13.1-21.2,14.2-3.6.5-7.6,0-11.3,1,0,.9.9.4,1.4.3,3-.3,5.3-1,7.8,1.5,5.9,6.1-2.1,14.7-9.5,11.3-1.3-.6-3.6-3-4-3.1-1.1,0-2.1.2-3.2.5-.7.4-3.2,7.1-3.2,8.2-.2,3,2,4,.7,8.2-1.8,6-15.4,5.5-15.9-2.5-.2-2.5.2-4.3,1.8-6.3.9-1.1,2.6-1.8,3-2.8.9-2.1.4-5.4.5-7.7-4.4,2.1-10.6,3.8-14.1,7.2-1.6,1.6-2.5,3.9-4.5,5.4-9.1,6.7-18.1-8.5-10.5-12.7,2.8-1.6,6.5,0,8.9-.9,1.2-.5,3.4-4.2,4.5-5.4,1.3-1.3,2.6-2.5,4-3.6-5.3-4.8-9.3,1.6-13.4,2.3-7.1,1.2-8.6-11.7-2.7-15.7,4.6-3,6,.8,10.1,2.3,6.4,2.4,9.8,1.3,16,1.4,4.4.1,10.6,1.2,14.8.9,11.9-.9,27.1-14.2,33.4-24,1.9-3,3-6.8,5.2-9.6,1.9-2.5,5.3-4.1,6.4-7,1.1-2.9-1.2-6.4-1.4-9.5-4.8-1.6-9-2.7-13.1-5.9-4-3.1-5.3-5.3-6.3-10.3-1.2-6.2.1-12.2,1.9-18.2-2.9-2.5-5.4-5.2-5.2-9.4.2-3.4,4.4-11,7.3-12.9,4.7-2.9,10.6.1,15.2,2,2.1.8,6.1,3.6,8.2,3.5,1.8,0,4.4-2.2,6.8-2.2,2.8,0,6.1,1,9.2.2,2.2-.6,4.8-3.6,6.8-4.8,9.1-5.3,21.3,0,20,11.5-.2,1.7-2,4.8-1.5,5.7.7,1.3,6.2,3.8,7.9,5.6,4.1,4.3,5.9,11.9,9.1,16.9.5.8,3.6,4.6,4.2,4.8,1.7.6,6.3-4.5,8.1-5.7,3-2,9.9-5.6,13.4-5.9,3.3-.3,12.4,1,14.4-1.1M213.3,182.4v6.9c0,.4-.8,1.6-.4,2.5h-.4v-9.4l-3.1-.4c-.1,1.6.4,3.1.5,4.7,0,.5.3,2.1-.5,2l-.9-6.5-2.3-.3c0,1.3.4,2.4.5,3.8,0,.7.3,3.1-.5,3.4l-1-7.1c-1.6-.9-2.2.7-2.4.8-.6,0-1.9-.5-2.9.1l-.5,4.9v-4l-5.3.8c-2-3.2-1.8-10.7-6.8-9.8-2.1,9-6.9,4.3-10.8-.3-.9-1.1-5.4-6.9-4.8-7.8l2.5-1.6c-1.2-2-2-4.2-2.4-6.5-.3-1.5,0-2.9-.3-4.2-.5-2.1-4.9-4.4-4.7-6.3.1-1.1,4.1-7.2,5.1-8.4,1.4-1.7,9.1-8.9,10.8-9.8,3.7-1.9,18.2-3,21.4-.5,1.4,1,7.5,12,7.8,13.7.5,3.2-2.4,5.4-1.4,7.2,2.5,4.3,11.7,1.6,9.2-4.3l-6.1-3c-.8-1.9-1.3-3.9-2.1-5.8-.7-1.5-4.6-8.1-4.6-8.9,0-1.2,2.1-2.5,3.3-2.4.7,0,5.3,2.2,6.3,2.7,1.2.6,5.8,3.2,6.5,3.8,1.2,1,.9,5.2,4.5,5.9,1,.2,4.2-.8,5.1-1.3,1.9-1.1,3.1-3.2,3-5.5-.2-5.8-9.5,0-12.6-.8-2.5-2.2-14.1-8.5-14.6-11.4,0-.9.3-1.8,1.1-2.4.6-.6,8.2-5.7,8.9-5.9,2.8-1,5.9,1.2,7.7.1,3.8-2.2.8-10.5-4.9-7.6-1.9,1-2.4,4.2-3.5,5-.9.6-4.1,1.4-5.5,2.1-3,1.4-9.6,6.7-12.4,3.3-1.2-1.5,1.2-8.2,2.5-9.6,1.1-1.2,2.8-1.4,4-2.3,4.9-3.6-.5-9-3.1-4.9-.8,1.2-.1,2.1-.5,3.1-.4,1.1-1.8,2-2.4,3.1-1.9,3.6-1.7,14.1-6.6,14.9-1.8.3-3.6-.3-5.6.3-1.1.3-3.1,3.1-4.3,3.7-1,.6-1.7,0-2.7.4-2.6.8-7.2,5.7-9.6,5.3-1.3-.2-2.5-1.4-3.8-1.6-5.9-.9-4.9,4-8.9,6.3l-5.1-5.7c-.8-2.8-2.1-5.5-3.9-7.8-.2,1.1-3.6,5.3-4.7,4.5,1-1.5,3.7-4.6,3.6-6.5,0-.9-4.8-9.6-5.5-10.4s-6.7-4.6-7.6-4.5l-4.3,1.7c-.3.3,2.7,3.6,2,4.5l-3.1-4.5v2.7c-.9-.4-.9-1.9-1.4-2.2-.8-.4-3.3-.6-4.6-1.1-6.7-2.8-6.2-13-2.7-18.1-4,1-3.7,4.9-7.7,6.4-4.2,1.5-5.8-.4-9.5-.1-3.5.3-6,2.5-10.1,1.6-5.9-1.3-15.3-10.1-20.6-3.8,9.1-2.6,17,7.9,10.7,15.4-1,1.2-3.8,2.8-4,3.3-.7,1.4-.9,4.7-1.8,6.4-.8.1-.4-1-.3-1.5.3-1.5,1.3-2.8,1.2-4.4-4.4-.6-3.8,6.1-5.9,9.1-1.1,1.6-.4,0-1.3-.2,0,3.2-.7,6.9.4,10.1.9,2.5,5.9,4.4,8.5,4.3.1.6-.9.8-1.2.8-2.3.2-4.1-.9-5.9-2.1,1.6,5.2,5.5,4.7,9.4,6.1,6.8,2.4,12.6,6.5,8.8,14.6-1.7,3.6-7.6,9-8.5,12.5-1.6,6.1,1.8,9.1-3.2,15.7-2.8,3.7-7,8.2-11.5,9.6-3.5,1-5.3-.7-7.2-.5-3,.4-7.4,5.1-13.1,5.7-6.9.7-27.8-.3-34.2-2.4-2.9-1-4.9-4.5-8.1-3.1-.7.3-2.6,2.6-2.9,3.4-1,2.2-.8,4.7.5,6.7,2.5,4.1,5.3-.1,8.1-1.2,4.7-1.8,10.7-.7,14,3.3.2,1.4-5.6,4.6-6.7,5.8-2.6,2.8-3.5,6.6-8.8,6.8-1.5,0-3.5-2.6-5.9-.5-2.8,3.9.8,11.5,6.1,9.3,1.7-.7,4.9-5.8,7.1-7.6,2.3-1.8,9.8-6.3,12.4-7.3,1.5-.6,3.2-.2,4.2,1.1,1,1.3.9,8.9.6,10.8-.5,2.7-2.1,2.1-3.5,3.2-.9.7-2.8,3.2-2.7,4.4.5,6.8,12.8,7.3,11.1-.7-.2-1.2-1.4-2.1-1.6-2.9-.4-1.6,2.5-10.5,3.7-11.8,1.7-1.6,3.9-2.4,6.2-2.2,2.8.5,2.7,4.8,7.1,4.7,5,0,7.7-4.4,3.5-7.7-3.8-3-7.2,3.5-10.8,1.8-1.7-.8-3.6-3.3-1.7-5,1.9-1.7,15.6-2.9,19.2-3.9,7.3-2,12.1-7.1,17.2-12.4,2.7-2.8,9.4-12.4,13-12.6,1.2,0,8.4,4.4,9.7,5.4,2.7,2.1,4.7,5,6.8,7.5,1.2-2.4,2.1-2.9,4.9-2.7,3.5.2,4.5,3.6,7,5.2,2.8,1.8,5.7.3,6.2,5,.4,3.8-2.4,3.8-2.9,6.9,2.6,2.6,13.1,2.9,12.8,7.4-.2,3.2-6.7,8.4-8.5,11.2l3.3-.6c2.6,1.5.3,4.2-.1,6.2,4.6-.5.8,6.2-.4,8.4-1.5,2.8-5.9,8.2-8.6,9.8-1,.6-2.2.9-3.3,1.1-.4,0-.8-2.7-1.9-.1-1.3,3-.7,7.1-1,10.2-.6,5.9-1,11.3-4.9,16.1,0,.6,4.6,2,5.5,1.5,11.2-6.4,23-16.3,36.4-17.4,1.5-.1,8.3-.3,9.3,0,2.2.8.4,5.1-.2,6.6l-.9-3.1c-1.6,4.2-4.9,7.7-7,11.6-1.4,2.5-4.4,11.9-6.5,12.8-1.9.8-2.7-.3-4.7,2-5.7,6.5,1.2,12.6,6.1,7.4,2.7-2.8,1.9-6,2.8-9.3.6-2,1.4-3.9,2.3-5.7.6-1.1,5.2-8.8,5.7-9.3.8-.5,1.7-.7,2.6-.6.4,1.6-.7,2.9-.9,4.3-.3,2.9,0,6.3-.6,9.3-.6,2.9-3.3,4.7-3.5,7.7-.2,3.1,1.9,7.8,5.4,4.9,2.4-2,.4-3.8.4-5.8s1.1-3.4,1.3-5c.4-3,0-5.6.6-8.8.4-2,3.9-14.3,7-9,.2.4,2.7,7.2,2.7,7.6.4,3.6-4.7,6.9-.9,11.1,2.3,2.6,4.3.9,6-1.6,3.7-5.4-.8-5.1-2.5-8.6-1.1-2.6-2.1-5.2-2.8-7.9-1.3-5.6.8-11.3-.6-16.9-7.8-3.5-16.4-4.1-24.9-3.8-2.3,0-5.7.3-7.9.6-.9.1-6.7,1.5-7,1.8-.3.4-.3,1.6-.7,2.2-1.4,2.3-3.1,3.9-4.8,5.9-.9,1.1-1.3,3.3-3.1,3.4-.1-2.5,0-5.6,1.6-7.6,6.2-8.4,13.8-15.4,20.4-23.5.7-.9,5.4-7.4,5.6-7.8.7-2.3-2.6-5.2-5.1-4,.4,1.5,1.1,2.7,1.3,4.3,0,.6.4,2.8-.4,2.9-.2-1.8-.7-5.4-1.4-6.9-.6-1.2-2-.1-1.7-1.6,3.6-.1,6.7.9,10.3.2,2.4-.4,5.6-2.3,8.1-3.1,7.4-2.2,13.8-2.8,20.8-6.5,1.8-.9,3.3-2.5,5.2-3.3,5.4-2.3,12.7-3.6,18.6-5.6,5.9-2,12.7-6.4,19.1-4.6,3.5,1,7.4,5.7,10.3,8,5.4,4.4,17.4,11.9,17.1,19.8,0,1.4-3.3,13.7-3.9,14.5-1,1.1-3.7,2.2-4,4.1-.3,1.9,1.8,4.3,3.7,4.2.8,0,7.7-4.7,7.8-5.2.4-1.4-3.1-2.8-3.1-5.8,1.3-2.2,1.8-12.5,3.9-13.2,1.6-.5,2.8,1.3,3.1,2.6.7,2.9.3,6.5.7,9.1.2,2,1.3,3.9.9,6.1,4.1,2.2,6.3-5.7,3.8-8-.8-.7-2.2-.3-2.7-1.3-.4-.8-.4-2.9-.8-4.1-.9-2.9-3.6-6.4-1-9.3,1-1.1,4.8-2.7,6.3-2.7,2.8,0,3.9,2.6,7.1,2.2,5.4-.7,4.5-9.6.8-10.2-2-.1-3,2.1-4.4,3.1-2.2,1.6-3.7,1.4-6.3,1.3-6.6-.2-13.2-3.7-19.5-5.6-6.7-2-4.6-6.7-7.6-11.2-1.3-1.6-2.6-3.1-4-4.5-5-4.5-8.1-2.4-13.7-2.1-2.2.1-3.9-1.8-4.4,2.3l-.4-2.3-2-.4v2.8c-.1,0-1.3,3.5-1.3,3.5l.7-6.3-5.6-.9h0ZM125.4,85.7c-5.3,1.1-5.7,8.5-3.9,12.6,2.3,5.2,11.3,5.3,14.5.7,5.1-7.4-2.8-14.9-10.6-13.3M74.8,90.6c-1.8.5-3.5,1.4-5,2.6-7.8,7.5,6,19.8,13.3,10.2,4.7-6.1-.9-14.2-8.4-12.8M75.8,108.5l-1.3.3-1.8,8.2,3.1-8.5ZM187.4,117.9c-3,0-6.5.2-9.4,1.1-2.3.7-9,4.2-11.1,5.5-.6.4-1.3.7-1.5,1.4,2.3-.8,4.5,1,6.2,1.3,1.9.3,6.8-4.1,9.1-5.1,1.1-.4,2.1-.1,3.3-.8,1.1-.5,2.6-2.6,3.4-3.5M188.7,173.4c-4.7-6.7-10.1-12.9-16.1-18.4.1,3.6,1.2,7.1,3.1,10.2l-2.6,2.6c.3,1.1,7.4,9.9,8.7,10.6,3,1.8,4.8-2.6,5.2-4.9h1.7q0,0,0,0ZM82.5,173.7c.4-2.3-.3-5.4,0-7.8-3.5,4.2-5.8,9.5-9.4,13.7-2.7,3.2-6.4,5.4-9.4,8.3,3.3,1.4,8.2-.8,10.7-2.9,1.8-1.5,7.7-9,8.1-11.2M126.9,200.3c.3-1.6,2.6-3,2.9-4.4,0-1.4-.4-2.7-1.1-3.9-.7-.8-3.9-1.1-5.4-2.2-1.7-1.2-2.6-3.7-4.4-4.6-1.8-.8-5.6-.4-5.8,2-.1,1.3,6.2,7.2,7.5,8.4.8.7,5.7,5.1,6.3,4.7M254.5,200.3c-1.9-3.3-5.2-5.2-8.1-7.6.9,4.4,2.7,9,8.1,7.6M133.6,226.3l1.8-5.6-1-.6c-1.1.9-2.8.5-3.9,1.5-1.3,1.1-4.2,7-5,8.9-1.5,3.8-2.8,7.6-3.9,11.5,1.7-.2,1.2,1.5,3.3.8.3-.1,4.8-4.1,5.2-4.6,1.3-1.5,6.8-9.8,5.6-11.5l-2.1-.4h0ZM154.1,274.6c1.8-4,4.6-7.6,6.7-11.4.2-.4,1-1.1.3-1.5-.9.8-1.4,1.9-2.2,2.7-2.2,2.1-9.7,9.5-12.2,9.7-2.5.2-7-1.7-7.8,2.6,3.4,5.9,9.8-3.3,15.2-2.1"/>
        <path id="Path_191" d="M144.4,114.7c-3.3,1.5-5.5-1.3-8.3-2.2-6.5-2.2-21.1-5.1-27.7-4.4-5.6.5-8.7,3-13.6,4.8-4.7,1.7-12.4,2.7-15.3,7.1-.8,1.2-2,7.1-4,5.9-1.8-2.4-.8-4.3,1.1-6.1,5.5-5.1,12.5-6.2,19.2-8.6,8-2.9,10.6-5.3,20.2-4.3,5.8.6,13.6,3.8,19,4.2,3.3.2,8.5-1.1,9.5,3.8"/>
        <path id="Path_192" d="M152,152.8l-3.5,1.2c-8.3,1.1-15.5,1.8-22.6,6.5-5.4,3.5-9.6,9.4-16,11.1,2-1.6,4.2-2.7,6.2-4.3,2.6-2,4.8-4.4,7.5-6.4,8.6-6.3,17.9-7.6,28.4-8.1"/>
        <path id="Path_193" d="M113.9,112.1c.2,1.2-.2.8-.9,1.1-3.8,1.6-8.5,1.3-12.5,2.5-1-.9,3.2-2.4,3.6-2.5,3.1-.9,6.7-.9,9.9-1.1"/>
        <path id="Path_194" d="M111.2,141.6h-4.6c0-.1-8.9-2.7-8.9-2.7,4,.4,7.9,1,11.9,1.8.7.1,1.4,0,1.6.9"/>
        <path id="Path_195" d="M122.8,144.8c-.5.8-2,1.5-2.8,1.9-2.1,1.1-4.3,1.8-6.6,2.1,2.6-2,6.2-3.3,9.4-4"/>
        <path id="Path_196" d="M129.1,128.6c1.2-2.7,2.7-5.3,4.5-7.6-.4,3.1-2,5.8-4.5,7.6"/>
        <path id="Path_197" d="M124.2,127.7l3.6-11.7c-.5,3.5-1.3,6.9-2.6,10.1-.2.6,0,1.4-.9,1.5"/>
        <path id="Path_198" d="M149.3,216.9c1.1,1,2,7.7,1.8,9.4l-1.8-7.4-.9-1.8.9-.2h0Z"/>
        <path id="Path_199" d="M127.3,128.2l-.2-1.4,3.8-8.9c-.2,3.7-2.4,6.9-3.6,10.3"/>
        <path id="Path_200" d="M98.7,125l-.2-2.3,2.5-6.2-2.2,8.5h0Z"/>
        <path id="Path_201" d="M128.1,90.6c1.9,0,7.3.2,7.7,2.4,1.3,6.4-13.4,6.6-13.9,1.7-.3-3.2,3.7-4,6.2-4.1"/>
        <path id="Path_202" d="M74.8,95.1c1.8-.3,4.8-.3,6.3.6,2.6,1.5,1.4,4.7-1.2,5.4-1.9.6-8.1,1.3-9.7.5-5.7-2.9,1.4-6,4.5-6.6"/>
        <path id="Path_203" class="st2" d="M361.6,33.8c-15.9,1.5-30.4,3-46.2-.8-18.2-4.4-33.3-15.9-41.1-33-.5-.3-6.7,3.9-7.8,4.6-18,10.5-38.6,20.8-59,25.7-4.5,1.1-9.2,2.1-13.9,2-.7.6,6.4,13.2,7.4,14.8,7.5,11.9,26.8,26.7,39.9,31.7,11.3,4.4,24.3,7.9,36.4,8.4,29.2-16.6,56.9-35.7,85.5-53.2,0-.9-.9-.3-1.3-.2"/>
        <path id="Path_204" class="st2" d="M385.7,173.8c-.6-3.6-1.5-7.2-2.8-10.7-10.2-1.5-20.2-3.1-30.2-5.6-18.2-4.5-37.6-10.1-52.9-21.3l8.6,15.4c8.4,18.4,7.3,33.1.5,51.7-7.2,19.9-19.3,36.6-36.9,48.5,3,1.2,5.6,3.2,8.5,4.7,13.6,7.2,30.9,16.4,45.6,20.2,2,.5,6.3,1.8,8.1,1.8.4,0,.9,0,1.2-.3,1.3-.8,4.8-5.1,6-6.5,6.4-7.6,12.9-16.7,18.5-25,14.8-21.8,30-45.4,25.8-73M315,232.1h0l-4.8-1.8,4.8,1.8ZM307.9,229.4h0l7.2,3.6-7.2-3.6Z"/>
        <path id="Path_205" class="st2" d="M341.4,57.2c-1-1.6-2.3-2.7-3.1-4.3l-4,2s0,0,0,.1l-1.1.6-3,1.7s0,0,0,.1l-2.1,1.3c-.2,0-.3.2-.5.3l-13.7,8.7c-.3.2-.7.4-1,.7l-4.6,3c-1.1.6-2.1,1.2-3.1,2l-1.8,1.2-1.1.6c-.5,0-1,.3-1.3.7l-25.1,13.9h0l-33-7.5c-.5-.1-1.1-.2-1.7-.4l6.2,11c5,11.3,7.4,23.5,9.9,35.6,8.8-6.8,19-10.5,28.8-15.3,6.3-3.1,11.8-6.6,18.5-9.2,12.8-5,25.4-6.9,38.9-9,1.1-12.5,4.8-26.3-2.1-37.8"/>
        <path id="Path_206" class="st2" d="M112.1,337.5c6.2,3.8,12.8,7.1,19.5,10,6.7,2.8,13.7,5,20.8,6.7,7.1,1.6,14.2,2.6,21.5,2.8,7.1.2,14.2-.2,21.3-1.5,7-1.2,13.9-3.2,20.4-5.9,6.4-2.6,12.4-6,18.1-10,5.1-3.8,10.1-7.9,14.7-12.2,4.7-4.4,9.3-8.9,14-13.2,4.6-4.4,9.4-8.4,14.5-12.2,1.3-1,2.7-1.9,4.1-2.8,8-7.1,16.3-13.9,24.4-20.7l-.7-1.1c-7.3,1.8-14.2,5.1-21.4,7.3-14.4,4.3-49.6,10.6-62.8,3.8-1.8-.9-5.8-5-6.4-5.2-1-.3-2,.1-2.9.5-14.1,7.4-28.7,13.9-42.9,21.2-19.6,10-38.3,21.7-58.6,30.3v.8c.8.5,1.7,1,2.5,1.6"/>
        <path id="Path_207" class="st2" d="M304.1,333.3c-2.8-2.1-5.6-4-8.6-5.8-6.5-4-16.5-8.4-22.1-12.9-.5-.4-.9-.6-1-1.2-4,3.4-7.9,7-11.7,10.6-4.7,4.5-9.3,9-14.1,13.2-4.8,4.3-9.8,8.2-15.2,11.7-6,3.8-12.5,6.9-19.2,9.2-6.8,2.3-13.7,3.9-20.8,4.7-7.1.8-14.3,1-21.4.3-7.3-.6-14.5-1.9-21.6-3.9-7-2-13.9-4.5-20.5-7.5-5.7-2.7-11.3-5.7-16.7-9.1h0c0,.1,7.8,30.5,7.8,30.5,35.3,19.3,69.7,40.4,104.9,59.8h1c0,.1,83.6-79.5,83.6-79.5-.8-6.9-2.7-13.6-4.8-20.3"/>
      </g>
    </g>
  </g>
</svg>