<?xml version="1.0" encoding="UTF-8"?>
<svg id="Layer_2" xmlns="http://www.w3.org/2000/svg" xmlns:xlink="http://www.w3.org/1999/xlink" version="1.1" viewBox="0 0 213.2 290">
  <!-- Generator: Adobe Illustrator 29.6.1, SVG Export Plug-In . SVG Version: 2.1.1 Build 9)  -->
  <defs>
    <style>
      .st0 {
        fill: none;
      }

      .st1 {
        fill: #fff;
      }

      .st2 {
        clip-path: url(#clippath);
      }
    </style>
    <clipPath id="clippath">
      <rect class="st0" width="213.2" height="290"/>
    </clipPath>
  </defs>
  <g id="Layer_1-2">
    <g id="Group_9079">
      <g class="st2">
        <g id="Group_9078">
          <path id="Path_7122" class="st1" d="M122.4,27.2l-20.6-1.5-29.4,3-23.5,9.8-16.5,12.4-19.8,25.1s-7,22.2-7.4,23.5c-.4,1.3-2.8,24.7-2.8,24.7l2.8,22.9s2.9,13.1,4,13.7,10.7,14.6,10.7,14.6l26.3,23.9-11,27.7,3.5,1.2,7.4-6.9,41.7,14.6,2.9,23.6-18.4,2-16.3,10.3v7.5l18.8,6.5,15.9,1.2,14,1.8,15.5-3.1,10.8-4.6,2.5-7.2-4.5-5.6-6.6-6.9-14.2-2-4.7-1.3-1.7-23.9h18.4l22.8-7.3s16.5-9.3,17.6-10.3,12.9-11,12.9-11l9.5-10,8-10.3,7.7-13.3,6.8-20.9,5.3-16.7-1.2-32.1-4-19.5s-4.3-9.5-4.5-10.8-6-14.5-6-14.5l-9.9-12.8s-10.4-9-11.6-10-10.2-7.1-11.2-9c-1-1.9-8.4-8.1-8.4-8.1l-11-3.9,1.7-9.5-6.2-1.3-16,24.4h0Z"/>
          <path id="Path_7082" d="M165.3,23.8c17.9,14.3,30.8,29.5,40.2,50.7,1.8,4.2,3.9,7.5,4.7,12.3,3,17.1,3.9,32.7,1.9,50-1.7,14.6-7.1,25.2-13.1,38.2-3.4,7.4-5.8,10.7-10.5,17.1-1.9,2.5-3.7,6-5.7,8.3-1.1,1.2-2.4,1.9-3.5,2.9-9.4,8.8-19.4,17.3-30.7,23.6-5.5,3-12.7,6.9-18.6,8.4-5.7,1.4-11.6,2.4-17.5,2.8-3.7.2-7.4-.3-11.1.3,1.6,6.1,1.8,12.5,2.4,18.8.8,0,1.5,0,2.3,0,9.3,1.1,22.8,4.1,27.5,13.1,1.6,3,1,4.1.6,7.1,0,.5.3,1.1.2,1.8-.4.9-1,1.8-1.6,2.5-3.9,3.7-15.4,8-20.7,8.3-11.7.3-23.3-.4-34.9-2.1-6.4-1-12.5-1.5-18.1-4.9-2.9-1.8-5.2-2.6-5.4-6.5-.4-6.5,8.4-11.7,13.5-14.1,4.1-1.9,8.3-3.3,12.7-4.2,1.1-.2,7.3-.6,7.6-.9l-1.7-19.9-.5-.4c-2.1,0-4.1-.9-6.1-1.2-4-.5-7.9-1.3-11.8-2.4-7.4-2.3-14.5-5.4-21.8-8h-.7c-.9,1.1-2.8,4.8-3.9,5.1-2.8.8-5.5-.9-7.8-2.1-.1-.3-.2-.7-.2-1.1,0-1.3,2.2-6.8,2.8-8.4,2.4-6,5.6-11.7,8.1-17.6,0-.4-3-2.2-3.6-2.8-10.4-8.9-19.7-19.2-27.6-30.4-5.3-7.7-7.6-13.6-9.7-22.7C-2.9,119.8-.5,94.9,13.1,72.4c6.3-10.4,12.3-17,21.6-24.8,13.5-11.2,28.8-17.9,45.7-22.3,6.9-1.8,21.8-3,29-2.6,4.6.2,8.7,1.9,13.3,2.1.4-.1,2.4-5,2.9-5.9,2.6-4.8,6-7.8,9-12,1.1-1.6,3.2-6.3,5-6.8,1.6-.5,2.2.6,3.5,1.1.7.3,1.4.3,2.1.6,5.5,2.5-.7,6.6.3,8.2,6.9,4.2,13.5,8.8,19.8,13.8M143.2,5.2c-1.1,0-2.6-1.1-3.5-.3-.7,2.2-14.5,20.7-13.5,21.6l4.1.6c1-2,2.2-3.9,3.4-5.8,1.3-2.1,4.3-5.6,5.2-7.6.2-.5.2-1,.2-1.5,0-.1.7-.3,1-.6,1.6-1.9,2.6-4,3.2-6.4M48.6,219.4c4.9.4,9.2,3.3,13.7,5,6.8,2.3,13.6,4.3,20.6,5.8,13.7,3.2,24.5,2.9,38.3.7,7-1.1,15.4-3.3,21.6-6.6,21.4-11.5,43.8-31.1,53.9-53.6,2-4.4,2.4-8.2,3.7-12.7.9-3.2,2.6-6.8,3.2-9.9,2.5-12.6,4.7-26.3,3.7-39.1-.4-5.6-1.1-11.2-2.1-16.7-.9-4.3-3.9-10.6-5.4-15.2-.6-1.8-.9-4.1-1.5-5.8-1.5-4-7.9-13.7-10.8-17.1-5.6-6.7-11.5-13.2-17.8-19.3-5.3-5-10.9-9.6-16.7-13.9-3.3-2.5-6.8-4.5-10.3-6.7l-9.4,14c2.1,1.4,4.6,2,6.8,3.3,1.3.8,2.2,1.8,3.3,2.5,15.4,10.2,25.6,18.2,35.8,34,10.8,16.7,12.5,30.9,13.9,50.4.6,8.9-.7,25.2-3.8,33.5-4.9,13.1-12.6,26.2-22.9,35.7-13.2,12.1-25.7,19.7-42.8,24.8-16.2,4.8-27.9,4.5-44.4,1.7-8.6-1.4-17.3-2.9-25.2-7l-5.3,12.1h0ZM98.3,26.8c-5.2,0-10.4.5-15.6,1.4-.4,0-.8,0-1.1.5.3,1.1.9,2,1.8,2.7,6,5.9,12,8.6,20.5,8.7,2.7,0,3.6-.4,6.4.8,6.8,2.9,9.5,5,17.2,6.5,6.1,1.2,10.1,6,16.8,7.1,2.9.5,4.1,0,6.6-.2,1.6.1,3.1.2,4.7.1,1.8-.2,3.4-.9,3.9-2.8.2-.7-2.2-2.5-2.9-3.1-8.5-7.5-26.7-16.4-37.5-19.8-7.2-2.3-13.4-2.1-20.9-1.9M79.2,28.9c-1.1-.8-15.4,6-17.6,6.8,4.3,3.6,14.1,4.5,16.8,9.6.8,1.7.4,3.2,1.1,5,.7,1.7,2.2,2.2,2.5,4.2.3,2.2-.5,10.2-1.8,11.9-1,1.3-3.7,1.3-5.2,1.8-2.8.9-4.1,3.7-6.2,5.6-3,2.6-13.2,8.8-14.5,11.6-1.5,3-1.8,6.6-4.3,9.4-1.6,1.8-11.4,7.8-13.8,8.6-3.3,1.2-4.9.5-8.1-.4-1.1-.3-2-1-3.3-1.2-2.4-.3-4.9.2-7.4-.4-.3,3.4,3.2,4.8,4.8,7.5,1.4,2.3,2,5.3,3.2,7.7.9,1.6,2,3.2,3.2,4.7,1.1.9,6.4,2.4,7.9,2.7,3.4.7,10.8,1,13.2,3.5,1.1,1.7,2,3.6,2.6,5.5.7,2,2.4,9.1,2.4,11,0,2.8-4.5,7.7-6.6,9.6-2.5,2.3-7.2,4.9-9.1,7.3-1.2,1.5-2.2,4.8-3.5,5.9-3.2,2.6-6,1.9-9.5,2.7-1.7.4-3.1,1.6-5.1,1.6,1.3,1.9,2.5,4.1,4.5,5.6,3.5.7,7.5.2,10.7,1.4,5.6,2.2,9.8,6.5,15.3,9,6.4,2.9,20.8,4.9,24.6,10,.4.5.6,1.2,1,1.8,3,4.1,5.9,8.2,8.9,12.3l13.8,2c16.8-.9,33.1-6.1,47.3-15.2,1.9-1.2,3.7-2.8,5.6-4.1,1.5-1,6.2-3.2,7.1-4.1.5-.5,0-.9.3-1.2.6-.9,5.2-4.4,6.5-5.9.4-.5,3.2-3.7,3.3-4,0-.2,0-.5-.1-.4-6.7,5.8-15.3,7.1-22.6,12-2.1,1.4-4.6,3.3-6.7,4.9-1.5,1.1-6.1,5.3-7.4,5.3-1.5-.2-2.7-1.1-3.4-2.4-.9-1.7-2.5-11.5-2.6-13.8-.5-12.1,6.8-18.6-2.1-30.1-.8-1-2.1-1.9-2.9-2.9-2.1-2.9-4.1-13.4-4.1-17.1,0-3,1.8-4.5,4.3-5.6,2.6-1.2,11.5-.8,14.6-.5,4.1.4,9.6,3.4,13.1,3.6,1.8,0,4.4-.9,6.1-.9,1.7,0,2.4,1.1,4.6,0,1.3-.6,1.7-2,2.5-2.9,2.2-2.2,4.1-4.8,5.8-7.4-.3-.2-6.3,0-7.4-.3-1.7-.3-7.4-3.6-8.9-4.7-2.3-1.8-2.4-4.6-6-4.6-3,0-9.7,0-12.3,1.2-4.1,1.8-11.3,8-15.3,8.4-1.5.2-4.7-1.1-6.2-1.7-.7-.3-1.2-1-2-1.1-1.2,0-2.8.7-4,.9-1.6.2-3.2.3-4.8.3-1.1-.7-2.1-1.5-3-2.4-2.4-2.6-1.5-12.2-.2-15.4,1.9-4.5,4.5-5.3,7.2-8.6,1.2-1.4,2.1-3.4,3.3-4.8,1.1-1.1,4.8-3.4,5-4.9.3-2.2-2.7-3.7-3-6-.3-2.4.9-6,1.8-8.2.7-1.8,2.4-3,4.1-3.8,3.1-1.5,6.8-3.2,10.3-2.3,3.2.9,3.5,4.9,5.6,6.9,1.6,1.5,4.1,1.6,6,2.5,1.2.6,3.3,2.7,4.6,2.6,3.1-.9,6.1-2.4,9.4-2.1,7.6,2,11.4-6.5,17.6-7.9.4,0,.6.2.4-.4l-9.6-10.8c-.7,1.3-1.9,2.3-3.2,2.9-3.7,1-7.5,1.4-11.3,1.3-2.6-.4-5.2-.9-7.8-1.6-1.7-.6-4.3-3-6.4-3.9-3.9-1.7-9.4-2.4-13.7-4-3.7-1.3-9.9-5.9-13.5-6-2.4-.1-4.8.7-7.2.4-4-.5-12.9-5.1-15.7-8-1.5-1.6-2.7-3.4-3.7-5.3M34.5,165.3c1.6-1.4,2.2-4.9,4.8-7.2,4.4-3.9,9.4-6.2,12.6-11.6.8-1.2,1.1-2.6.8-4-.5-3-1.2-6-2-8.9-1.6-5-3-6.3-8.2-7.3-5-.9-9.2-1-14-3.3-3.8-1.8-5.8-9.7-7.6-13.1-1.1-2.1-4.2-4.2-4.9-6-.5-1.3-1.2-4.3.8-4.5,1,0,3.7.2,4.8.3,3.6.3,5.2,1.2,8.4,2,5.9,1.3,8.7-2.1,13.2-5,1-.4,1.9-.9,2.8-1.4,1.7-1.7,3.2-3.5,4.6-5.4.8-1.7,1.1-3.7,2-5.3,2.4-4.7,9.2-7.9,13-10.9,2.2-1.8,4.4-4.5,6.7-6.4,1.2-1,5.9-3.7,6.4-4.3.8-2.5,1.4-5.1,1.7-7.7-.2-1.7-1.9-2.7-2.6-4.1-1.3-2.9,0-3.9-2.9-6.5-3.6-3.3-7.6-3.4-11.5-5.5-1.4-.8-2.5-2-3.8-2.9-3.4.6-5.4,3.1-8.1,4.9-5,3.3-11.3,6.5-15.8,10.3-4.9,4.5-9.5,9.3-13.8,14.4-6.5,7.9-13.4,23.8-15,33.9-1.1,7.1-.4,14.7-.2,21.9,0,2.8-.5,7.6,0,10,.3,1.8,4.1,3,5.4,4,2,1.4,2.5,4,3.7,6,.5.8,1.5,1.6,2,2.6,2.6,5.1-.4,14.7-.6,20.3.7,1.5,1.6,2.9,2.6,4.2,1.4,1.1,3.9-.7,5.3-1,3-.8,6.8-.3,9.4-2.6M126.8,64.8c-1.2-1.2-1.6-.2-2.9.1-1.2.3-2.7.5-3.7.8-1.1.5-2.2,1.2-3.3,1.8-.5.6-.8,2.5-1.2,3.4-.8,1.4-1.6,2.9-2.2,4.5,0,.7,1.5,1.4,2.1,2.1,1.5,1.8,2.5,4.4,1.5,6.7-.5,1.2-2.5,2-3.5,2.9-.7.7-2.4,2.3-3,3-1,1.1-1.2,2.9-2.1,3.7-.7.6-1.8.8-2.6,1.4-4.6,3.4-5.9,7.5-6.4,13-.3,3.8-.2,6.7,3.5,8.6.9-.2,1.8-.7,2.8-.8,2.2-.4,4.4-.6,6.6-.7,1.7.2,3.7,3.1,6.1,2.9,1.7-.6,3.3-1.3,4.9-2.1,3.8-2.2,8.9-6.4,13.3-7.3,2.3-.5,5.1,0,7.4,0,2.1,0,3.2-.6,5.6.1,4,1.3,4.1,3.6,6.6,5.6,1,.8,2.9,1.1,4.2,1.6.6.3,1.2,1,1.6,1.1,1.8.5,3.5-.4,5.1-.5,3.1-.3,6.7-.4,4.4,3.7-2.2,3.4-4.6,6.7-7.2,9.8-1.9,2.1-3.8,2.6-6.5,2.6-2.4,0-5.6.7-7.6.6-1.5,0-5.1-1.8-6.9-2.2-5.3-1.2-10.7-1.9-16.2-2-3.7,0-6.7,2.2-6.5,6.2.2,3.7,2.6,12.9,4.7,16,1.8,2.6,4.4,3.6,5.9,6.5,3.8,7.4-1.9,17.1-2.2,24.9,1,3.9.8,9.3,1.9,13,.2.8.8,2.1,1.8,2,1.7-.1,10.2-7.5,12.5-9,8.5-5.4,20.8-9.4,28.2-16.1,3.3-3.1,4.1-7.6,5.9-11.4,2.2-4.8,4.9-9.3,6.1-14.5.6-2.7-.1-2.9-.5-5.2-.6-3.3-1.9-10.6-1.6-13.6.5-4.8,2.7-6.5,6.5-9,.7-2.7-.2-5.4-.4-8.1-.3-3.6-.4-7.1-1-10.6-1.2-7.1-6.6-19.2-10-25.8-1.5-2.8-4.1-5.1-5.4-8.1-1.9.8-3.8.7-5.1,2.6-.3.5-.4,1.1-.6,1.5-1.9,2.7-9.7,4.8-12.9,4.8-1.5,0-3.6-.8-5.1-.6-1.5.2-3.5,1.8-5.4,1.8-1.7,0-3-1.4-4.4-1.9-2.5-1-5.1-.4-7.4-2-2.7-1.8-3.3-5.9-5.1-7.8M187.9,142.7c1.2-6.8,1.9-13.7,2.1-20.6-1.7,1.8-3.7,4.6-3.9,7.1-.2,2,.7,4.6.9,6.7.2,1.9-.2,3.8.3,5.8.1.4,0,.9.6,1.1M6.4,134.5c0,1.8.2,3.5.7,5.2,1.5,7.9,3.6,16,8.5,22.4.5-.3.4-.6.5-1.1.5-3.7,1.7-11.4.7-14.7-.6-1.9-1.9-2.8-2.9-4.4-.7-1.1-1-2.7-1.8-3.7-1.1-1.5-4.3-2.4-5.8-3.8M77.8,203.2c-4.6-5.3-6.1-7.5-13-9.9-6.9-2.4-13.7-4.6-20.4-7.2-2.6-1-5.8-5-9.2-6.3-2.3-.9-5.4-.2-7.9-1.1l7.2,8.8c5.8,4.8,11.9,10.1,18.4,14.1,4.9,2.9,10.2,3.7,15.6,5.3,4.2,1.2,10.5,4,14.8,4,.5,0,.5,0,.5-.5-1.9-2.5-3.9-4.9-5.9-7.2M46.5,203.1c-.2,1-1.2,1.7-1.6,2.5-1.6,3.1-3.5,7.6-4.8,10.9-.5,1.3-2.9,6.9-2.5,7.8.3.7,2.9,2.1,3.7,1.6l10.7-19.6-5.4-3.2h0ZM99.6,238.3l-10-.9c1.5,3.4,1.1,7.2,1.5,10.8.7,6.2,1.9,12.3,2.5,18.5,1.3,1.8,7.7,1.2,8.1-.9l-2.1-27.5h0ZM103.8,261v5.3c0,3-5.8,4.9-8.3,4.7-2.6-.2-6.6-3.4-7.1-6-.1-.6-.2-4.2-.4-4.3-2.2.6-4.3,1.1-6.6,1.5-7.8,1.3-16.2,4.6-22.4,9.8-1.8,1.5-2.9,2.5-1.9,4.9,1.5,3.7,9.3,5.2,12.9,5.9,15.1,2.9,37.6,5.3,52.2.2,4.1-1.5,12.3-5.8,8.6-11.2-1.5-1.7-3.1-3.2-4.9-4.5-.4-.3-6.9-3.6-7.2-3.7-2.4-.6-5.8-.7-8.3-1.1-2.1-.4-4.3-1.5-6.6-1.4"/>
          <path id="Path_7083" d="M94,62.3c1.5-.4,3.4,2.6,3.4,4s-1.4,7.1-2,8.9c-1,3-2.2,5.7-5.6,6.2-2.7.5-5.1,0-8,.8-.7.2-1,.8-1.9.9-3.2.3-4.4-3.8-2.9-6.2,1.2-2.1,8.8-8.6,11.1-10.5,1-.8,2.6-2.2,3.5-2.9.2-.1,2.2-1.3,2.3-1.3M91.3,77.9c1.5-1.4,2.3-5.4,2.7-7.4.4-1.9,1.3-4.7.2-6.4-.7-.1-5.1,3.4-5.9,4.1-2.6,2.2-6.2,5.5-8.5,7.9-1.4,1.4-2.7,2.9-1.2,4.8.9,1.2,3.8-.5,5.1-.9,1.9-.5,6.2-.9,7.5-2.1"/>
          <path id="Path_7084" d="M183.3,99.6c-1.6-.3-2.7-1.7-3.8-2.7-2.9-2.9-5.4-6.3-8.2-9.4-.9-1-2.8-2.5-3.5-3.5-.3-.4-.3-.7.2-.8,1.1.3,2.2.8,3.1,1.4,2.3,1.4,11.4,11.1,12,13.5.1.5.2,1,.1,1.5"/>
          <path id="Path_7085" d="M178.3,100.3c1.9,1.9,4.3,4.3,4.4,7.2-.3,0-.6,0-.9-.2-.9-.5-4.9-5.3-6.2-6.5-1.5-1.5-5-4-6.1-5.4-.3-.4-.6-.6-.4-1.2,3.4,1,6.7,3.7,9.3,6.2"/>
          <path id="Path_7086" d="M181.2,113.5c-.6,0-.9-.3-1.4-.6-1.6-1.2-4.7-4.4-6.4-6.1-.9-.9-2.5-2.1-2.6-3.3.3-.4,5.4,3.4,5.9,3.9.8.7,5.3,5.1,4.4,6.1"/>
        </g>
      </g>
    </g>
  </g>
</svg>