<?xml version="1.0" encoding="UTF-8"?>
<svg id="Layer_2" xmlns="http://www.w3.org/2000/svg" version="1.1" viewBox="0 0 65.9 38.5">
  <!-- Generator: Adobe Illustrator 29.6.1, SVG Export Plug-In . SVG Version: 2.1.1 Build 9)  -->
  <defs>
    <style>
      .st0 {
        fill: #fff;
      }
    </style>
  </defs>
  <g id="Layer_1-2">
    <g>
      <polygon class="st0" points="1.6 11.4 30.2 .6 32.2 .6 65 6.1 64.9 6.9 59.4 10.5 49.5 14.7 51.7 19 52.5 22.5 47 25.6 41.1 30.6 38.2 30.7 22.2 28.9 17.1 28.3 14.7 27.5 14.9 25.5 15.1 23.7 15.5 21.4 16.7 19.2 17 17.8 17.4 16.6 16.9 15.8 12 14.6 3.6 12.4 1.6 11.4"/>
      <g>
        <path d="M16.7,34.2h-.4c-.3.9-.4,2-.7,2.9,0,.2,0,.4-.3.5-.4-.6-.2-1.5-.2-2.2,0-.5-.2-.9,0-1.4l-1.2,1.6c0-1,.6-2.1,1-3,.3-.7.8-1.4,1.1-2,.1-.2.5-1.4.4-1.6,0-.3-.3-.2-.5-.3-1.4-.6-2.1-1-2-2.7.1-1.8,1.6-6,2.3-7.7.1-.2.7-1.2.6-1.4-.6-.2-1.3-.5-1.9-.7-3.8-1.3-7.8-1.9-11.7-3.2-.7-.2-2.4-.8-2.9-1.1-.8-.6.4-.8.7-1,3.5-1.6,6.9-2.7,10.4-4.1,2.4-.9,4.7-1.9,7-2.8,2.9-1.2,5.9-2.2,8.9-3.1,1.7-.5,3.1-1,4.8-.8,2.5.3,5.1,1.2,7.6,1.4,3.3.3,6.5,1,9.8,1.4,1.4.2,2.2.2,3.6.5,2.8.6,5.5.9,8.3,1.1.8,0,3,.5,3.7.8.9.4,1,1.4.3,2.2-.9,1-3.7,2.6-5,3.4-2.1,1.2-4.5,1.9-6.7,2.9-1.1.5-2.1,1.1-3.2,1.6,0,0,0,.1,0,.2.9,1.6,2.8,4.7,2.9,6.6,0,.3-.2.5-.4.6-1.4.9-3,1.5-4.3,2.4-1.1.8-2.5,1.8-3.5,2.6-1.2.9-2.6,2.5-3.9,3.1-2.2.9-8.9-.8-11.6-.9-1.6-.1-3.3,0-5,0-.7,0-1.4-.3-2.1-.4-1.4-.1-2.8-.2-4.2-.4-.8.4-.1,1.2,0,1.8.3,1.4.5,3.6.4,5,0,.3-.1.6-.2.9-.2.3-.6-.9-.6-1l-.2-1.1v1.5c0,.2-.2,1.1-.3,1.4,0,.1-.3.9-.5.7,0-.2-.2-.6-.2-.8v-3.4h0ZM64.2,6.7c-1.4-.2-2.8-.4-4.1-.7-3.2-.6-6.3-1.3-9.5-1.8-6.1-1-12.2-1.5-18.2-2.7-.3,0-1-.3-1.4-.3-.2,0-.8.3-1.1.4-1.9.6-3.8,1.2-5.7,1.9-4.4,1.6-8.8,3.1-13.1,4.8-.3.1-.6.4-.9.5-2.4.9-4.9,1.8-7.3,2.6.5.3,1.2.3,1.8.4,3.1.8,6.2,1.5,9.2,2.2,2.1.5,4.2.9,6.2,1.4.8-1.1,1.9-1.9,3-2.7,1.7-1.2,4.5-3.3,6.3-4,1.1-.4,1.1,0,.4.7-1.2,1.1-3,2.5-4.4,3.4-.9.7-2,1.2-2.8,1.9-.3.2-.7.6-.9.9,0,.2,3.2,1.1,3.6,1.2,3.5,1,7.2,1.6,10.7,2.7,3.4-1.5,6.7-3,9.9-4.6,5.1-2.5,10.4-4.6,15.5-7,.6-.3,1.6-.8,2.2-1.1,0,0,.2,0,.2-.2h0ZM21.5,16.8c-1.6,3.4-2.2,7.2-3.2,10.8,0,.3.8.1,1.1.1,3.7.5,7.4.8,11,1.2,2.2.3,4.4.5,6.6.8,1.7.2,2.4.7,4-.2,2.7-1.5,4.9-4.4,7.8-6,.4-.2,2.8-1.3,2.9-1.5-.9-2.4-1.8-4.9-3.3-6.9-1.8.6-3.5,1.7-5.2,2.5-.9.4-1.9.7-2.8,1.1s-3.4,1.9-4.3,1.8c-.5,0-1.3-.4-1.9-.6-3.2-.8-6.4-1.5-9.6-2.3-1-.3-2-.7-3.1-.8h0ZM15.4,27.2c.5-.1,1.2.5,1.5,0,.7-2.2,1.2-4.5,1.9-6.7.4-1.2.9-2.6,1.2-3.8,0-.1,0-.1,0-.2-.4,0-1.1-.5-1.3-.2-.7,1.6-1.1,3.3-1.6,5-.6,2-1.6,3.9-1.6,6h0Z"/>
        <path d="M45.1,6.5c0,.4-.3.6-.5.8-.9.9-2.2,1.8-3.2,2.6-.3.2-2.3,2.3-2.6,2,0-.1,0-.3,0-.4.3-.9,4.1-4,5.1-4.6.4-.2.8-.6,1.3-.5h0Z"/>
        <path d="M47.9,6.9c0,0-.2.5-.3.6-.8,1.2-4.7,4.7-6,5.5,0,0-.4.3-.5.2,0-.2,0-.2.1-.4.7-1.2,4.6-4.5,5.8-5.4.2-.2.5-.5.8-.4h0Z"/>
        <path d="M50.1,7.6c0,0-.2.5-.3.6-.5.7-2.8,2.8-3.6,3.1-.1,0-.2.1-.4.1,0,0,.2-.4.2-.5.5-.8,2.4-2.4,3.3-2.9.1,0,.7-.5.8-.4h0Z"/>
      </g>
    </g>
  </g>
</svg>