<?xml version="1.0" encoding="UTF-8"?>
<svg id="Layer_2" xmlns="http://www.w3.org/2000/svg" xmlns:xlink="http://www.w3.org/1999/xlink" version="1.1" viewBox="0 0 476.4 386.5">
  <!-- Generator: Adobe Illustrator 29.6.1, SVG Export Plug-In . SVG Version: 2.1.1 Build 9)  -->
  <defs>
    <style>
      .st0 {
        fill: none;
      }

      .st1 {
        fill: #3cbeeb;
      }

      .st2 {
        clip-path: url(#clippath);
      }
    </style>
    <clipPath id="clippath">
      <rect class="st0" x="79.8" y="-20.7" width="316.9" height="427.8" transform="translate(6.5 394.2) rotate(-80)"/>
    </clipPath>
  </defs>
  <g id="Layer_1-2">
    <g id="Group_9032">
      <path id="Path_6793" class="st1" d="M90.9,316.9l-1.5-87.9,1.5-5.7,26.1-1.7,8.5,10.3,9.7,82.2,11.6-1.3-7.2-121.7,28.9-9.5,15,129.6,25-1.7-24.6-157.3,45.7-2.4,3.4,5.4,12.3,149.8,19.2,1.6,3.6-199.8,35.5-11.1,5.3,2.7,8.1,3.2,7,199.7,27-1.8-26-234.2,55.1-6.1,8.1,4,15.6,234.7-308.1,22.6-4.8-3.6h0Z"/>
      <g class="st2">
        <g id="Group_9031">
          <path id="Path_6792" d="M436.5,300l-369.8,23.8L46,51.4l3.3-1.1,1.8,5.5c5.5,77.7,12.2,155.4,18.6,232.8.7,8.6,2.3,17.1,2.4,25.8,1.3,1.2,14.4.8,15.6-.3l-1-91.2c.5-1.3,1.6-2.3,2.9-2.6,2.2-.8,20.3-3.4,22.8-3.3,3.2.2,10.9,8.1,13.9,10.4l10.9,83,7.1.9-7.2-120.3c.8-2.6,10.2-6.2,13.1-7.3,3.3-1.3,15.5-5.6,18.3-5.8.8,0,2.3-.2,2.6.7l12.9,128.8c1,2.1,18.6-.8,21.7-.5l-24.4-153.7c.9-2.2,3-3.2,5.1-3.9,6.5-2,35.6-4.5,41.3-2.5,2,.7,5.9,3.5,6.6,5.5l12.5,151h15.1c0-.1,4.6-197.3,4.6-197.3l.7-1.1,35.4-10.2c2.9.5,14.3,3.8,14.9,6.2l7.5,196.6,1,1.8,22.2-1.5-25.8-232.8,1.6-1.6,55.1-6.3c2.2,2,9.9,3.7,10.5,5.6l15.7,230.1c.4,1,1.2,1,2.1,1.1,6,.8,22.1-3.2,26.7-1.7,2.4.8,1.9,5.3,2.3,7.6M379.2,60.2l-53.4,6.1,26.4,231.7,47.4-3.6,2.7-2-15.7-228.8-7.5-3.4h0ZM322.7,300l-7-197.7-11.9-5.1-34.1,10.5-4.7,195.7,57.7-3.4h0ZM228.5,151.1c-1.6-1.9-36.7,3.5-41.3,3.2l-.7,1.1,22.7,151.6,31.7-2.5,3.5-2.3-12.6-147.9-3.3-3.2h0ZM141.3,198.5l6.8,111.3c.6,1.2,7.5.5,8.6.6,1.7.2,19.8-1.1,20.7-1.5,1.1-.4,4.1.2,4.1-.7,0-3.3-.6-8.2-.9-11.9-1.4-17.1-3.7-34.9-5.2-51.9-1.6-18.9-4.1-32.1-5.7-51-.8-1.5-1.5-11.3-2.2-11.1-6.9,2-19.6,8.3-26.7,9.9M114.4,222.9l-22.3,2.7,1.7,88.5,37.1-2.1,1.6-1.5-10.6-80-7.6-7.7h0Z"/>
        </g>
      </g>
    </g>
  </g>
</svg>