<?xml version="1.0" encoding="UTF-8"?>
<svg id="Layer_2" data-name="Layer 2" xmlns="http://www.w3.org/2000/svg" viewBox="0 0 335.71 451.57">
  <defs>
    <style>
      .cls-1 {
        fill: #fff;
      }

      .cls-2 {
        fill: #ad80f9;
      }
    </style>
  </defs>
  <g id="Layer_1-2" data-name="Layer 1">
    <g>
      <path d="M215.32,34.27c-1.11,1.76-3.25,2.46-4.79,3.78-2.85,2.45-5.01,5.53-7.17,8.57,4.06-.85,7.76-3.14,11.86-3.88,4.98-.9,10.71-.88,15.64-.5.13.12-.21.44-.4.59-1.6,1.25-7.09,2.32-9.16,3.79.29,2.1,3.38,1.4,4.93,1.64,4.81.74,10.38,1.49,15.08,2.45,1.43.29,3.21.66,4.29,1.68.02.52-2.82.94-3.39.99-4.95.44-10.56,0-15.48.46-4.15.38-8.12,2.08-12.2,2.74l.07-1.53,2.4-.99,12.67-2.66c-2.13-.83-11.26-1.3-11.39-4.18-.08-1.78,1.85-1.45,1.23-2.6-7.74.02-14.71,3.99-21.89,6.36l-.64-.98c2.25-3.69,5.29-6.93,8.38-9.96-2.15,0-5.17,1.98-7.06,3.3-4.37,3.04-7.66,7.59-12.67,9.64-1.13-.61.45-1.68,1-2.19,8.35-7.78,15-13.26,26.29-16.35.81-.22,1.58-.24,2.4-.18Z"/>
      <path d="M160.73,54.99c.38.36-2.56,3.89-2.98,4.39-2.05,2.44-4.76,5.48-6.97,7.78-.63.65-1.43,1.75-2.4,1.78-.79-.92,3.35-6.97,4.18-7.97,2-2.42,5.13-5.08,8.17-5.97Z"/>
      <path d="M171.88,37.85c1.54,1.82-4.66,11.53-6.17,13.15-.48.52-1,1.29-1.8,1.19-.56-.62,3.59-6.86,4.19-7.96.91-1.66,1.61-4.09,2.5-5.47.34-.53.48-1.07,1.28-.91Z"/>
      <path d="M148.37,57.38c.83.97-3.34,9.98-4.45,11.29s-2.26,1.46-1.74-.54c.25-.98,4.02-8.78,4.67-9.69.39-.55.72-1.2,1.53-1.06Z"/>
      <path d="M163.92,56.98c-2.01,3.62-4.79,8.35-9.16,9.16.22-1.95,2.29-2.78,3.59-4.17.75-.8,4.47-5.86,5.57-4.99Z"/>
      <path d="M134.83,47.82c.69-.05,1.23-.05,1.82.37,1.33.94,3.92,7.02,4.36,8.79.11.44.94,3.23,0,3.18-.69-.03-4.42-11.16-6.18-12.34Z"/>
      <path d="M175.07,40.24c.93,1.11-2.86,6.93-3.78,7.97-.53.6-1.31,1.61-2.19,1.59-.34-.36,4.1-7.79,4.71-8.64.36-.49.42-1.11,1.26-.93Z"/>
      <path d="M140.01,47.02c1.98,1.39,3.59,4.65,4.45,6.91.36.95,1.27,2.27.13,3.05-.69-.03-4.88-8.42-4.58-9.96Z"/>
      <path d="M165.91,43.83c.47-2.39,1.05-4.92,1.72-7.25.12-.41.17-1.46.86-1.11,1.85.91-.63,7.74-2.58,8.37Z"/>
      <path d="M148.7,47.9c.76.43,2.23,5.75,1.67,6.29h-1.19s-1.6-6.38-1.6-6.38c.36.03.77-.11,1.12.09Z"/>
      <path d="M120.08,55.39c-1.95-1.2-3.45-3.05-4.38-5.18,1.03-.81,5.16,4.12,4.38,5.18Z"/>
      <path d="M179.86,43.83c.69.69-4.02,5.45-4.78,4.78.29-.88,4.05-5.5,4.78-4.78Z"/>
      <path d="M132.43,58.57c-.53.6-3.65-2.98-3.18-3.98.49-.54,3.8,2.87,3.18,3.98Z"/>
      <path d="M146.38,52.19c-1.59.8-2.67-3.27-2.39-3.58,1.33-.41,2.61,3.37,2.39,3.58Z"/>
      <path d="M110.91,59.37c-1.28.64-3.25-2.68-2.79-3.18,1.02-.25,3.23,2.77,2.79,3.18Z"/>
      <g>
        <path d="M250.19,27.49c2.39.33,5.85,2.1,8.4,2.76,1.59.41,9.53,1.66,10.04,2.12.13.12.41.77.39.91-.19,1.29-6.63,2.72-7.87,3.58,2.4,1.83,6.25,3.55,8.38,5.57,1.18,1.12,1.83,2.88,2.77,4,1.54,1.81,3.92,3.24,5.59,5.17,4.56,5.28,5.62,11.56,8.17,17.74,4.05,9.81,11.17,18.26,13.47,28.77,3.57,16.32-3.91,32.67,1.95,49.46,2.68,7.67,7.95,13.57,13.05,19.62-.49.63-.49.58-1.19.41-1.67-.4-3.88-1.29-5.37-2.21-.27-.09-.27.33-.19.59.88,2.8,3.74,8.73,5.11,11.63,4.93,10.44,10.27,19.06,12.71,30.73,1.38,6.62,1.41,13.64,2.6,20.12.1.54,1.86,4.87,1.3,4.68l-4.18-3.58c.68,4.85,2.23,10.44,2,15.36-.39,8.25-4.57,16.63-3.99,25.48.31,4.77,3.33,14.27,6.36,17.95,1.45,1.76,4.31,3.51,5.41,4.95.34.45.72.73.58,1.41-.43.66-.6.48-1.2.45-1.58-.09-6.12-2.1-6.71.05.02,1.82,1.29,3.41,1.75,5.28,1.95,7.99-3.09,13.47-4.49,20.64-.57,2.93-.65,7.27-.52,10.28.6,13.19,8.49,23.96,10.38,36.85l-1.2-.59-2.79-2.59c-.08,1.02.38,1.96.41,2.97.26,8.93-2.73,19.1-5.49,27.62-1.73,5.35-5.82,12.62-5.59,18.1.12,2.94,1.63,6.19,2.69,8.9l-.99.61c-3.11-.72-6.63-10.98-9.14-10.8-.99,1.26-2.13,2.87-3.21,4.02-4.04,4.3-11.87,10.79-12.93,16.57-.96,5.25.07,10.9,2.82,15.45.5.83,3.13,2.89.92,3.08-1.95.16-7.72-6.87-8.88-8.67-.57-.88-1.27-1.73-1.68-2.71-.56-1.32-1.11-5.89-1.84-6.14-1.48-.5-6.61.09-8.71-.06-9.83-.7-20.84-2.74-29.65-7.41-1.43-.76-4.07-3.16-5.42-3.35-.72-.1-.6.01-.61.61-.04,1.86.72,4.7,1.67,6.31.34.57,3.52,3.5,1.72,3.85s-8.9-4.75-10.56-6.17c-7.77-6.69-15.16-18.84-17.35-28.88-1.25-5.73.15-11.96.24-17.74.03-2.28-.07-4.47-.5-6.7l-4.9-3.87c-.95,1.87-1.22,4.05-2,5.97-.35.87-1.65,4.5-2.98,3.81-.68-.35-5.27-6.62-5.98-5.8.03,2.82-1.28,6.29-2.64,8.72-2.25,4.05-6.47,6.15-10.38,8.37-3.11-1.14,2.86-6.68,1.45-8.32-1.35.2-2.84.69-4.19.79-6.13.45-13.68-.56-19.87-1.24-5.15-.56-10.04-2.22-15.39-1.54,1.34,4.99,3.61,10.33,1.79,15.54-1.43,4.08-8.51,8.2-12.77,8.38-2.74.11-9.95-.69-12.28-2.06-7.22-4.21-10.54-15.66-6.32-22.94,2.03-3.49,4.92-5.04,8.05-7.29-3.49-1.78-7.09-3.6-10.33-5.81-.63-.43-1.32-1.56-1.9-1.71-1.64-.43-3.21,3.04-5.3,2.34l1.59-5.98c-.36-.45-5.85,4.33-6.39,4.57-2.59,1.17-1.92-1.97-1.98-3.58-.02-.48.3-1.48-.4-1.39-.66,2.53-1.64,5.97-1.63,8.56,0,2.02,2.48,8.91,1.85,9.79-1.76,2.48-5.68-4.28-6.51-5.48-.24-.34.07-.74-.88-.52-2.2,5.37-3.93,11.59-6.62,16.7-1.74,3.29-7.38,12.39-10.73,13.58-2.43.86-5.37.5-7.86.91-8.6,1.43-12.06,5.87-17.24,12.25-1.87-1.84.9-9.33-.59-10.56-8.96-4.01-18.8-5.89-27.23-11.03-.35-.22-3.42-3-3.04-1.35.4,1.75,2.2,5.38,2.96,7.4.21.55.58.99.99,1.39-1.31,1.48-3.65-.66-4.78-1.59-6.41-5.29-8.38-12.46-11.75-19.73l-1.35,6.54c-.26.43-1.22.34-1.56.15-.43-.25-4.08-7.8-4.47-8.87-3.09-8.49-4.18-23.82-4.77-33.09-.29-4.47-.81-12.45-.35-16.69.95-8.84,12.74-14.62,12.74-23.96,0-7.31-1.02-12.69.88-20.21,2.45-9.67,16.41-18.73,23.01-26.41,3.65-4.25,4.12-8.78,5.37-14.16,1.73-7.41.59-8.6,5.97-14.76,6.89-7.88,15.39-17.13,21.26-25.77,2.81-4.13,4.36-9.62,6.69-14.07.38-2.05-3.68-4.94-4.8-6.81-2.52-4.16-1.88-10.4-3.3-15.04-2.35-7.71-7.95-11.22-6.85-20.96.6-5.38,4.61-10.04,5.37-14.18.4-2.18-.62-3.19.49-5.87,1.4-3.39,6.74-8.18,7.48-10.87.26-.96-.83-2.68-1-3.83-.33-2.22-.42-6.01.15-8.15.73-2.71,4.96-4.69,6.58-6.96-2.21-1.39-4.2-3.78-3.93-6.53,2.7-1.08,7.34-2.32,9.33-4.41.82-.86,3.86-6.98,4.14-8.22s-1.33.02-1.86.13c-1.94.41-4.35.78-6.07-.5,2.26-2.87,5.52-4.72,7.95-7.59,1.65-1.95,6.89-8.98,7.67-11.06.19-.5.41-.91.31-1.48l-4.91-.47-.66-.53.51-.89,11.83-8.3-7.56-7.96c6.36-4.12,13.16-.45,19.32,2.08,4.56-3.76,10.85-5.71,16.52-7.28,1.27-.35,8.71-1.19,8.36-2.75-.08-.34-2.42-2.37-2.94-3.05-2.23-2.91-3.87-6.14-3.42-9.93.84-.93,4.89,5.15,5.56,5.79,1.7,1.62,4.36,3,6.19,4.57.17-2.98-1.35-9.72,2.58-10.36.39,6.75,4.83,3.84,8.95,3.58,3.27-.21,5.95,2.03,5.36-2.54s-7.99-8.63-7.48-10.71c.66-2.71,9.5.03,11.39.83s3.64,2.61,5.7,2.87c.52-.4-4.59-10.27-4.69-11.42-.05-.62.4-1.38.94-1.7,1.37-.33,4.55,4.21,5.52,5.16,1.61,1.58,3.48,2.77,4.98,4.58,2.6,3.13,4.95,7.4,5.99,11.35.67.48,2.19-2.06,2.77-2.6,2.01-1.91,8.19-7.34,10.67-7.7,3.21-.46.23,5.14,1.67,6.14.32.19.67.18,1.02.21,2.29.22,11.98-3.06,15.6-3.57s9.48-1.11,13.1-.84c7.13.53,2.82,2.41,3.39,3.18,1.73.52,12.95,6.17,13.15,6.98l-5.18,4.58c2.56.25,5.68-.34,8.17,0ZM139.21,65.15c.26,2.59-.19,5.53,0,8.17l6.37-1.99c.09.61,0,.93-.37,1.42s-5.2,3.82-5.89,4.08c-3.7,1.4-5.75-.45-8.57-.23-3.15.25-7.62,4.02-11.07,4.31-.12.95-.01.64.55.84,1.46.52,3.44.5,5.03.95,1.22.35,5.14,1.66,6.07,2.2.29.16.75,1.15.7,1.19-5.22-1.38-11.19-1.65-16.36-2.97-.79-.2-1.92-.59-2.64-.94-4.11-2.02-2.31-4.51-7.67-1.04-1.83,1.19-8.41,6.73-10.09,6.48-.86-.13-2.98-1.58-3.63-1.46-.35.07-4.12,3.62-5.57,4.39-2.71,1.43-5.11,1.24-7.42,2.92.72,1.25,2.14,3.1,3.74,2.99.81-.06,5.93-3.16,7.41-3.78,8.87-3.69,27.13-5.64,36.07-2.21.79.3,5.09,2.66,4.17,3.6-2.55-.07-5.23-.36-7.73-.83-4.07-.78-7.93-2.09-12.4-2.35-9.41-.55-23.08,4.65-30.09,10.95-3.51,3.16-4.55,4.97-3.07,9.86.31,1.02,2.9,6.11,3.68,6.29,1.03.22,3.86-5.66,1.53-6.35-1.26-.37-2.23,2.59-2.94.18,1.45-1.72,5.98-5.34,8.17-5.36,2.45-.02,3.97,4.89,3.81,6.97-.23,3.11-4.63,4.96-5.95,7.21-.69,1.18-1.74,4.45-1.49,5.73.33,1.72,3.26,7.37,3.03,8.55-.14.72-.5.49-.99.2-.77-.45-3.85-2.95-4.38-3.6-1.79-2.21-1.52-5.39-2.7-7.67-.74-1.43-2.48-2.83-2.89-4.67-2.42,3.22-5.63,6.82-6.14,11-.19,1.54.12,3.11-.14,4.65-.41,2.46-2.4,5.83-2.97,8.58-1.36,6.54,1.57,10.63,3.27,16.42,1.95,6.64,3.21,13.31,4.7,20.01.86,3.88,5.56,8.08,8.44,11.08s6,5.41,8.57,8.58c4.97-1.58,2.36-6.81,1.1-10.28-.75-2.07-1.93-5.09-3.01-6.95-1.98-3.41-8.2-9.45-6-13.82,2.09-4.13,9.52-9.9,10.28-14.82l.74-10.26c-.55-.96-6.96-5.63-5.89-6.65,4.34.33,5.07,5.1,10.13,4.36,2.78-.41,10.32-8.22,11.46-10.86,1.44-3.34-.48-3.89-1.57-6.15-1.38-2.85-4.49-9.3-4.11-12.27.28-2.16,3.19-3.86,5.35-3.75,3.11.16,6.42,2.44,7.33,5.46.18.61,1.16,7.43-.69,6.08l-1.41-3.98c-.57-.13-2.57,2.14-2.91,2.66-2.74,4.12-.41,5.97.29,9.94.19,1.08.65,5.46.37,6.27-3.18,1.51-11.43,11.05-14.13,11.31-.54.05-1.15-.36-1.74-.28-.46.44,2.34,9.42,3.18,10.56,1.15,1.56,5.73,4.33,7.58,5.97,4.54,4.01,10.75,10.2,14.75,14.74,5.47,6.22,11.02,17.87,19.03,20.42s22.93.82,31.19-.86c2.61-.53,5.95-1.75,8.55-2.6,2.02-.66,12.54-5.04,13.47-4.75,2.84.9.44,9.88-.24,12-1.78,5.51-9.41,13.12-14.03,16.65-1.42,1.09-6.23,3.49-7,4.56-1.1,1.53.19,3.55-.05,4.72-.46,2.25-5.36,5.25-7.35,6.21-6.63,3.2-24.97,10.18-31.82,9.62-1.72-.14-4.33-1.53-5.52-1.47-1.54.08-2.97,1.59-4.25,2.08-5.01,1.91-12.06,2.13-17.01-.13-2.7-1.23-5.27-3.96-7.82-5.34-3.63-1.95-6.98-2.02-10.24-5.3s-3.32-5.57-4.7-9.25c-1.05-2.8-3.73-2.69-3.71-7.09.02-3.78,4.78-7.79,5.21-11.76-2.79,2.79-6.95,7.88-8.09,11.64-1.51,5,.41,11.53-.27,16.85l1.26,14.28c.3.87,6.65,2.57,8.17,3.38,5.15,2.75,4.76,6.4,8.09,10.24,4.03,4.66,11.17,7.58,15.95,11.54,11.09,9.19,14.12,24.18,3.58,35.08,1.57.85,5.8-5.66,6.77-4.58.34,1.94-1.06,3.26-1.61,4.96-.27.83-1.58,5.17-1.58,5.6v7.77c.94.19.64-.12.89-.51.55-.86.8-1.94,1.5-2.87.52-.7,4.51-4.87,5.18-4.18.31,4.07-.67,8.08-.39,12.15.88,13.01,8.69,24.97,16.34,35.07,1.26,1.67,3.25,3.15,4.55,5.02s3.52,7.65,5.12,8.43c1.7.83,8.8,2.39,10.9,2.65,5.79.74,13.99.32,19.83-.4,1.87-.23,8.87-2.27,9.95-1.9,1.84.62,1.31,8.21,1.15,9.83-.04.38-.36,1.24.5.89.68-.28,4.19-5.16,4.66-6.1.68-1.37,2.32-7.81,2.7-8.07,1.08-.76,4.15,1.88,4.96,2.66,1.04,1,1.86,3.8,2.94,2.06.76-1.24,2.73-8.05,3.33-8.43,2.32-.39,3.58,2.23,5.17,3.31.42.28.97.9,1.35.23.59-.97,1.04-2.04,1.23-3.16.84-5.1-3.74-15.08-5.13-20.42-2.11-8.11-3.29-21.78-2.26-30.02.54-4.3,2.11-8.65,2.78-12.95-2.07.15-3.57,1.87-5.77,1.6-.55-.07-.72.18-.61-.61.16-1.14,7.06-10.78,8.3-12.83,3.35-5.54,6.03-10.44,8.05-16.65,1.33-4.08,1.95-8.38,3.58-12.37-.47-.67-.85.13-1.13.47-2.21,2.65-3.49,6.48-5.65,9.09-.27.33-1.99,2.26-2.38,1.8.4-1.62-.42-3.58-.4-4.98.12-7.43,10.37-28.53,14.82-35,3.22-4.68,7.12-7.44,8.5-13.42.58-2.51.63-5.04.99-7.58-.61-.71-3.09,3.65-2.79,4.38-2.24-1.52-1.84-7.17-1.55-9.72.62-5.28,4.3-9.7,6.23-14.49,3.64-9.02,6.47-22.84,6.89-32.56.25-5.79-1.89-14.34-3.47-20.07-.84-3.05-1.92-5.62-3.32-8.44,1.3-1.27,3.63,4.02,3.89,4.68,1.75,4.5,2.49,10.09,3.29,14.85.82-.53,1.11-2.84,1.18-3.79.87-10.88-1.54-15.37-5.51-24.77-.15-.37-.87-1.02-.27-1.33.96.82,1.69,1.76,2.36,2.82,9.34,14.82,7.75,45.45,1.74,61.45-1.96,5.21-5.42,10.43-7.55,15.56-.98,2.35-2.3,5.34-2.12,7.84,1.09-.85,1.81-2.57,3.39-2.39,1.41,7.73-1.18,15.91-5.26,22.44-6.47,10.37-14.36,19.29-16.57,32.06-.1.57-.48,1.47.5,1.3.67-1.15,5.42-6.4,6.58-5.58.1.59.37,1.05.31,1.69-.21,2.59-1.84,9.05-2.59,11.78-.89,3.2-2.59,7.33-3.9,10.44-3.1,7.38-6.9,14.46-12.15,20.53l3.62-1.22c.44.17.87.45,1.12.86,1.24,2.01-.87,9.2-1.15,11.92-.69,6.71-.51,15.15,0,21.91.87,11.63,6.58,20.21,7.19,31.87,1.09,20.86-4.52,33.38,9.21,52.16,1.13,1.55,4.93,5.97,6.51,6.64.84.36.55-.65.58-1,.25-2.41.44-4.38,2.01-6.37,2.73-3.47,3.4,1.16,5.02,2.95,5.45,5.98,26.23,8.21,34.21,8.43,4.15.11,7.08-.79,10.98-2.01-.43,3.43-2.23,6.25-.47,9.84l1.67,2.91c-.02-4.11.54-8.86,2.32-12.63,3.97-8.38,12.94-14.25,15.62-23.24,1.46-1.24,3.45,5.12,4.77,5.58.09-2.78.64-6.01,1.5-8.67,1.05-3.25,3.19-6.15,4.49-9.46,3.72-9.4,5.58-17.74,3.92-27.85-.53-3.22-1.14-5.93-2.73-8.82,1.05-1.47,1.88.53,2.82,1.16.86.58,1.87.92,2.76,1.42-1.52-3.28-3.26-5.92-4.27-9.48-1.89-6.66-5.47-22.41-3.82-28.7.92-3.51,3.4-6.28,4.48-9.47,2.19-6.49,1.23-11.99-2.05-17.83-.82-1.46-5.66-7.65-4.69-9.03,1.99-.82,3.44,2.22,4.98,3.56.54.47,4.15,3.2,4.57,2.8l-6.18-9.16c-5.75-10.61-2.78-16.16-1.39-26.91,1-7.76,2.7-21.25,1.56-28.65-.53-3.44-2.36-6.65-2.35-10.2l1.38.4,2.99,5.17c.21-10.85-5.31-20.58-9.35-30.29-4.34-10.42-8.76-20.6-13.94-30.69-1.02-1.99-2.4-3.77-3.4-5.77.4-.65.88.13,1.2.4,1.17.99,3.31,3.81,4.59,4.18.51.15.78-.08.59-.59-.27-.69-1.78-2.33-2.31-3.27-9.07-16.33-5.09-24.25-4.84-41.35.1-7.07-1.79-16.7-4.11-23.43-1.56-4.5-5.18-8.44-7.25-13.07-5.13-11.45-8.1-18.6-15.6-29.04-.98-1.37-4.34-5.65-5.53-6.42-2.42-1.57-7.28-2.31-10.17-2.39-.79-.74,2.33-3.2,2.78-3.79l3.19-1.78c-4.3.18-8.9-3.9-12.59-4.34-1.91-.23-8.31.87-8.91.57-1.9-.96.28-4.36,1.37-5.42.4-.39,3.21-2.1,3-2.37-2.25-.57-4.25-2.22-6.38-2.99-2.83-1.02-7.42-.51-7.18-4.58-3.61-.04-7.31-.06-10.9.43-4.53.62-16.23,4.92-19.77,3.33-1.41-.63-1.48-2.91-1.8-4.18-3.3,2.25-9.87,7.53-9.8,11.75.06,3.22,2.04,6.57-1.96,8.97-1.31-6.55-.72-13.95-4.31-19.81-1.83-2.98-4.72-5.33-7.25-7.69.17,2.95,2.56,5.13,1.99,8.17-.47,2.46-2.74-.21-3.7-.68-1.16-.56-8.01-3.29-8.65-2.71.26,1.16,1.07,1.89,1.48,3.1.67,2,1.33,7.91-.54,9.24-.45.32-6.23-.04-7.52.02-1.42.07-3.49.82-4.8.8s-2.1-1.12-3.37-1.2c-.31.34.24,5.94.61,6.76.44.98,3.64,3.38,4.57,4.59,2.06,2.67,3.88,9.41,3.99,12.77.03.81.19,1.61-.61,2.17-.76.15-.92-.79-1.11-1.27-1.46-3.73-1.76-7.99-3.93-11.61-1.41-2.35-5.95-6.61-8.5-7.44-.2-.07-.65-.11-.59.19,2.67,3.35-1.84,4.72-4.47,5.49-3.64,1.08-7.4,1.42-11.06,2.88-4.1,1.63-7.53,4.53-11.46,6.51-2.5-.89-4.6-2.79-7.17-3.83s-5.37-1.77-8.07-1.68c1.25,1.8,9.49,6.9,9.11,8.91l-10.7,6.24c-.02,1.52,1.9.65,1.53,2.88l-8.7,14.45,1.82.57c1.19,1.84-4.66,11.05-4.21,11.59l3.58-2.39c-.19.75,1.7,3.29,2.39,2.79.97-3.11,8.3-5.33,8.75-8.19.18-1.15-.11-2.4.03-3.56.51-4.14,4.08-10.11,7.82-12.1,9.46-5.03,19.56-1.4,20.86,9.71.28,2.42-1.1,4.86,2.61,3.82.47-.41.85-.79.97-1.44.72-3.79-.27-10.53-1.79-14.13-.6-1.42-4.56-6.93-3.78-7.98.7.39,1.59.65,2.2,1.19,2.04,1.82,5.5,9.83,5.77,12.56ZM120.19,65.46c-2.88,2.87,1.08,9.76,4.66,6.05,3.12-3.23-1.6-9.1-4.66-6.05ZM130.04,192.48c-1.76-1.86-3.18-4.13-5.21-5.74-2.3-1.81-5.62-3.32-8.14-5.01-3.32-2.22-14.65-10.8-17.53-11.17-.97-.12-2.44-.09-3.39.2,6.19,4.58,13.27,8.24,18.33,14.15l-1.73-.46-19.02-13.3c-.83-.44-1.41.7-1.96,1.24l1.89,2.17,26.79,19.33c.31,1.07-1.55,0-1.86-.13-8.88-3.7-17.95-12.81-26.07-18.17-.49-.32-.9-.75-1.56-.63.52,1.1.55,2.38,1.11,3.46.8,1.54,9.1,7.39,11.11,8.81,5.06,3.56,10.78,6.35,15.27,10.64-1.06.41-2.62-.68-3.59-1.19-6.75-3.57-12.24-7.95-18.36-12.32-.59-.42-1.2-1.08-1.95-1.03-.17.18.9,2.61,1.21,2.97,1.89,2.16,8.27,4.94,10.93,7.4.57.53,1.48,1.09,1.4,1.98-.66.62-9.98-5.8-11.15-6.77.66,3.67,2.21,6.88.41,10.58-1.43,2.95-7.12,6.62-8.39,10.36-.16,1,1.85,9.02,2.45,9.89.64.93,10.92,9.46,12.33,10.39,5.2,3.39,9.87,2.01,15.21,3.52.99.28,1.76.97,2.68,1.3s2.1-.14,2.8.79c.22.98-1.25.63-1.78.58-3.42-.27-7.06-1.69-10.55-1.98-.21,1.05-.77,1.97-1.38,2.83-.33.47,0,.98-1.03.75l.76-3.54c-2.55-1.23-2.51.24-3.75,1.94-1.08-.73.33-2.19-.26-3.12-.76-1.22-3.4-.12-3.92,1.14.47-2.41-.57-3.64-2.79-4.38l-1.98,3.42c2.06,2.87,5.98,3.98,9.16,5.54,4.83,2.38,6.92,4.45,12.95,3.79,3.2-.35,5.61-3.54,8.87-3.91,2.25-.26,5,2.3,7.76,2.22,3.18-.1,12.8-3.29,16.24-4.49,3.65-1.28,17.89-7.09,18.73-10.76.09-.39.18-1.52-.19-1.78-5.16,3.7-11.85,2-17.73,2.79,1.14-5.21,6.52-2.05,10.23-2.14,3.39-.09,13.4-5.81,14.96-8.73,1-1.89.06-4.64-1.97-5-.81-.14-7.65.98-8.96,1.24-2.8.57-7.44,2.01-9.49,4.06-1.47,1.47-1.69,3.76-3.18,5.22-1.31.68-3.91-1.88-6.38-1.24-4.34,1.12-3.22,8.8-8.89,7.81-1.32-.32.99-8.18.96-9.78s-.76-3.55-1.42-4.98c-4.03,3.19-10.23,6.69-12.32,11.59-.7,1.63-.63,5.43-2.24,6.13-.35.15-5.25,1.03-5.75,1.02-1.81-.04-5.61-1.28-6.19-3.2,1.04-.78,7.5,3.12,8.37.2-.29-1.33-6.06-4.13-7.42-4.19-2.06-.09-3.26,5.09-6.01,4.08-3.43-1.26-7.36-5.52-10.68-7.27-3.72-3.19-.37-5.67-.75-8.2-.14-.96-3.69-3.15-3.03-6.74.15-.82,4.29-4.95,5.16-5.22,1.63-.52,4.11.6,4.62,2.2.82,2.57-1.16,3.57-1.84,5.78.86.24,1.09,1.34,1.61,1.61,1.05.54,2.56-.08,3.3,1.51.7,1.49-.99,4.69-.74,5.09,2.73.95,8.24,4.53,10.98,3.36.85-.36,1.53-2.1,1.88-2.19,1.14-.29,4.51.51,6.31.42,5.92-.3,6.33-2.11,10.57-4.97.58-.39,3.96-2.54,4.23-2.56,1.88-.19,2.88,6.17,3.11,7.51,5.99-2.5,11.71-3.45,16.73-7.98,1.65-1.49,2.83-2.75,2.02-5.18-5.68-2.32-12.05-1.15-17.75-3.57l6.18,3.97c.39.49.36.94-.38.78-2.49-.53-8.47-3.59-11.13-4.82-3.13-1.45-8.15-3.62-10.89-5.45-.62-.41-1.44-.75-1.32-1.67,1.1-.93,11.07,5.14,13.15,5.17l-9.56-7.77.79-.2ZM120.48,182.12c.1-.73-.41-1.25-.8-1.79-.88-1.19-4.61-5.63-5.6-6.36-2.72-1.99-6.98-3.89-10.33-3.01l16.73,11.15ZM108.13,315.24c-.51-.39-3.13,1.58-3.18.2-.03-.92,7.63-9.23,8.69-11.23,2.45-4.66,5.67-15.71,3.08-20.47-.8-1.47-9.52-10.35-11-11.32-3.62-2.37-13.78-6.28-15.75-9.76-2.11-3.73-2.03-8.83-7.24-9.9-1.28-.26-5.95.05-6.41-1.16-.95-4.38-.51-9.11-.88-13.47-.66-7.87-3.28-16.44.52-23.8l9.04-16.05c.06-1.68-3.49-3.85-4.57-4.98-3.87,4.32-6.01,9.79-8.9,14.61-5.7,9.52-14.73,15.55-20.71,25.92-4.8,8.32-4.88,13.73-8.04,21.85-3.64,9.35-12.21,14.3-19.33,20.52-5.47,4.78-8.18,12.72-7.78,19.92,1.45-1.02,2-4.3,4.38-3.38-2.18,8.73-1.09,16.02-6.79,23.5-3.72,4.88-8.07,9.62-9.67,15.84-1.28,4.96-.03,18.73.52,24.43.75,7.8,2.77,15.29,4.38,22.92,1.07,1.13,2.25-5.38,4.6-3.61l8.55,18.76c.74.09.33-.84.28-1.28-.09-.8-.97-4.4-.68-4.7,1.16-.24,1.61.79,2.51,1.27,10.74,5.86,22.25,9.94,33.49,14.73,2.24,1.63,1.08,2.84,1.06,5.12,2.37-2.16,3.99-3.96,7.19-4.96,3.93-1.23,12.59-1.58,15.11-4.41,6.85-7.67,15.32-23.75,16.7-33.92.1-.75-.35-5.59,1.25-4.34.87.68.11,3.26,1.58,3,.15-2.15,1.37-3.95,1.21-6.17s-2.2-6.27-2.68-9.29c-.38-2.41-.69-4.45-.11-6.86,1.26.53.67,2.23.84,3.34.55,3.46,1.11,7.63,2.94,10.61.84-3.01,1.97-5.97,2.47-9.08.25-1.52.47-8.11.7-8.47.27-.43.55-.51,1.02-.2.27.18,3.38,4.92,3.97,4.2-2.91-8.65-5.51-19.03-2.39-27.89ZM96.97,211.22c.75.55,4.1-4.82,4.28-5.48.45-1.67-.58-3.55-2.11-2.53-.58.39-3.44,3.42-3.62,4.01-.44,1.42,1.4,2.46,1.45,3.99ZM102.94,214.01c-.82-.73-5.34,1.86-5.77,2.79-.9,1.96,2.05,5.25,3.35,4.34l2.42-7.13ZM86.01,214.81c-.93,1.03-2.24,2.72-.8,3.97,1.12-.89,2.16-2.77.8-3.97ZM87,222.38c.1-.71,2.17-3.24.6-3.58-1.05-.23-2.52,3.15-.6,3.58ZM100.95,223.57c3.49.31,8.27,7.36,8.73.27-2.47-1.76-7.84-5.33-8.73-.27ZM90.18,221.59l-1.2-.23c-1.02,1.41-2.49,2.82-1.58,4.6.85.63,3.34-3.64,2.78-4.37ZM92.18,223.57c-.54-.02-.78-.14-1.21.26-.15.13-2.12,3.16-2.18,3.35-.31.91.6,1.51.62,2.37.93.21.64-.14.89-.51.44-.67,2.33-5.03,1.9-5.46ZM93.39,225.17c-.43,2.94-4.52,5.22-.6,7.17,1.06-2.21,4.22-6.05.6-7.17ZM96.53,233.5c.41-2.4,3.36-4.92-.36-5.94l-2.01,5.36,2.37.58ZM122.47,328.19c-.21-2.09.15-4.45,0-6.58-1.16-.22-.63.34-.9.88-1.63,3.33-1.9,6.43-2.29,10.09-.14,1.35.57,3.48-.8,4.18-3.4-8.34-4.25-17.93-2-26.7-2.27.99-3.15,3.58-3.99,5.77-4.48,11.72,0,21.85.41,33.48.03.92.93,2.54,0,3.21-2.04,1.48-2-4.38-3.99-4.2,0,2.74-2.42,7.36-2.34,9.78.04,1.29,2.08,4.01,1.15,6.16.68.79,11.83-11.02,9.17-1.99,5.35-5.6,7.79-1.11,12.75,1.39,3.02,1.52,8.35,3.77,11.55,4.79.35.11,1.2.46,1.2,0-2.58-5.73-6.99-10.38-10.03-15.87-3.37-6.07-9.22-17.68-9.89-24.38Z"/>
        <path class="cls-1" d="M139.21,65.15c-.27-2.73-3.73-10.74-5.77-12.56-.6-.54-1.49-.79-2.2-1.19-.78,1.05,3.18,6.56,3.78,7.98,1.52,3.6,2.5,10.34,1.79,14.13-.12.65-.5,1.03-.97,1.44-3.71,1.04-2.33-1.39-2.61-3.82-1.3-11.11-11.4-14.75-20.86-9.71-3.74,1.99-7.31,7.96-7.82,12.1-.14,1.15.15,2.41-.03,3.56-.45,2.86-7.78,5.08-8.75,8.19-.69.5-2.58-2.04-2.39-2.79l-3.58,2.39c-.45-.54,5.4-9.75,4.21-11.59l-1.82-.57,8.7-14.45c.37-2.23-1.55-1.36-1.53-2.88l10.7-6.24c.38-2.01-7.86-7.11-9.11-8.91,2.7-.09,5.59.68,8.07,1.68s4.67,2.94,7.17,3.83c3.93-1.98,7.36-4.88,11.46-6.51,3.67-1.46,7.42-1.81,11.06-2.88,2.63-.78,7.15-2.14,4.47-5.49-.06-.3.39-.26.59-.19,2.56.83,7.09,5.09,8.5,7.44,2.17,3.62,2.48,7.87,3.93,11.61.19.48.35,1.42,1.11,1.27.8-.56.63-1.36.61-2.17-.11-3.36-1.93-10.1-3.99-12.77-.93-1.21-4.14-3.62-4.57-4.59-.37-.82-.92-6.42-.61-6.76,1.27.08,2.01,1.18,3.37,1.2s3.38-.73,4.8-.8c1.28-.06,7.07.29,7.52-.02,1.87-1.32,1.21-7.24.54-9.24-.41-1.21-1.22-1.94-1.48-3.1.64-.58,7.48,2.15,8.65,2.71.96.47,3.23,3.14,3.7.68.58-3.04-1.81-5.22-1.99-8.17,2.53,2.37,5.41,4.71,7.25,7.69,3.59,5.85,3,13.25,4.31,19.81,4-2.39,2.01-5.75,1.96-8.97-.07-4.23,6.5-9.5,9.8-11.75.32,1.27.38,3.54,1.8,4.18,3.54,1.58,15.24-2.72,19.77-3.33,3.58-.49,7.29-.47,10.9-.43-.24,4.06,4.35,3.56,7.18,4.58,2.13.77,4.14,2.42,6.38,2.99.21.27-2.6,1.98-3,2.37-1.08,1.05-3.27,4.46-1.37,5.42.6.3,7-.8,8.91-.57,3.69.44,8.29,4.52,12.59,4.34l-3.19,1.78c-.45.6-3.56,3.05-2.78,3.79,2.89.08,7.74.82,10.17,2.39,1.2.77,4.55,5.05,5.53,6.42,7.5,10.44,10.47,17.59,15.6,29.04,2.08,4.64,5.7,8.57,7.25,13.07,2.32,6.72,4.21,16.36,4.11,23.43-.25,17.1-4.23,25.03,4.84,41.35.52.94,2.04,2.58,2.31,3.27.2.5-.07.74-.59.59-1.27-.37-3.41-3.2-4.59-4.18-.32-.27-.8-1.04-1.2-.4,1,2,2.37,3.78,3.4,5.77,5.19,10.09,9.6,20.28,13.94,30.69,4.05,9.71,9.57,19.44,9.35,30.29l-2.99-5.17-1.38-.4c-.01,3.55,1.82,6.76,2.35,10.2,1.14,7.4-.56,20.89-1.56,28.65-1.39,10.75-4.36,16.3,1.39,26.91l6.18,9.16c-.42.4-4.03-2.33-4.57-2.8-1.54-1.34-2.99-4.38-4.98-3.56-.96,1.38,3.87,7.57,4.69,9.03,3.27,5.84,4.23,11.34,2.05,17.83-1.07,3.19-3.56,5.96-4.48,9.47-1.65,6.29,1.93,22.04,3.82,28.7,1.01,3.56,2.74,6.2,4.27,9.48-.89-.5-1.9-.84-2.76-1.42-.94-.63-1.76-2.63-2.82-1.16,1.6,2.88,2.2,5.6,2.73,8.82,1.66,10.11-.2,18.45-3.92,27.85-1.31,3.3-3.44,6.21-4.49,9.46-.86,2.66-1.41,5.89-1.5,8.67-1.33-.46-3.31-6.82-4.77-5.58-2.68,8.99-11.65,14.86-15.62,23.24-1.78,3.76-2.34,8.52-2.32,12.63l-1.67-2.91c-1.76-3.59.04-6.41.47-9.84-3.9,1.22-6.82,2.12-10.98,2.01-7.99-.22-28.76-2.44-34.21-8.43-1.62-1.78-2.29-6.41-5.02-2.95-1.57,1.99-1.76,3.96-2.01,6.37-.04.35.26,1.36-.58,1-1.58-.67-5.38-5.09-6.51-6.64-13.74-18.78-8.12-31.3-9.21-52.16-.61-11.66-6.32-20.24-7.19-31.87-.51-6.76-.69-15.2,0-21.91.28-2.72,2.39-9.91,1.15-11.92-.25-.41-.68-.69-1.12-.86l-3.62,1.22c5.25-6.07,9.05-13.15,12.15-20.53,1.31-3.12,3.02-7.24,3.9-10.44.75-2.72,2.38-9.19,2.59-11.78.05-.64-.21-1.1-.31-1.69-1.15-.82-5.9,4.42-6.58,5.58-.98.17-.6-.73-.5-1.3,2.2-12.76,10.1-21.69,16.57-32.06,4.07-6.53,6.67-14.72,5.26-22.44-1.57-.17-2.3,1.55-3.39,2.39-.17-2.5,1.14-5.49,2.12-7.84,2.14-5.13,5.6-10.35,7.55-15.56,6.01-16,7.6-46.64-1.74-61.45-.67-1.06-1.4-2-2.36-2.82-.6.31.11.96.27,1.33,3.97,9.4,6.38,13.89,5.51,24.77-.08.95-.36,3.26-1.18,3.79-.8-4.76-1.54-10.35-3.29-14.85-.25-.65-2.59-5.94-3.89-4.68,1.39,2.82,2.47,5.39,3.32,8.44,1.59,5.73,3.73,14.28,3.47,20.07-.43,9.72-3.25,23.54-6.89,32.56-1.93,4.79-5.62,9.21-6.23,14.49-.3,2.55-.7,8.2,1.55,9.72-.3-.73,2.18-5.09,2.79-4.38-.35,2.53-.41,5.07-.99,7.58-1.38,5.98-5.28,8.74-8.5,13.42-4.45,6.47-14.7,27.57-14.82,35-.02,1.39.8,3.36.4,4.98.39.46,2.11-1.47,2.38-1.8,2.16-2.61,3.44-6.45,5.65-9.09.28-.33.66-1.14,1.13-.47-1.62,3.99-2.25,8.28-3.58,12.37-2.03,6.22-4.7,11.12-8.05,16.65-1.24,2.05-8.14,11.69-8.3,12.83-.11.79.05.54.61.61,2.2.27,3.7-1.45,5.77-1.6-.67,4.3-2.25,8.65-2.78,12.95-1.03,8.24.15,21.91,2.26,30.02,1.39,5.34,5.97,15.32,5.13,20.42-.19,1.12-.64,2.2-1.23,3.16-.38.68-.93.06-1.35-.23-1.59-1.07-2.84-3.7-5.17-3.31-.6.38-2.56,7.19-3.33,8.43-1.08,1.74-1.9-1.06-2.94-2.06-.81-.78-3.88-3.42-4.96-2.66-.38.27-2.03,6.7-2.7,8.07-.47.95-3.98,5.83-4.66,6.1-.86.35-.53-.51-.5-.89.15-1.61.69-9.2-1.15-9.83-1.08-.37-8.08,1.67-9.95,1.9-5.83.72-14.04,1.14-19.83.4-2.1-.27-9.19-1.82-10.9-2.65-1.6-.78-3.77-6.49-5.12-8.43s-3.28-3.35-4.55-5.02c-7.65-10.1-15.46-22.06-16.34-35.07-.28-4.07.7-8.08.39-12.15-.67-.69-4.65,3.48-5.18,4.18-.69.93-.95,2.02-1.5,2.87-.25.39.05.71-.89.51v-7.77c0-.43,1.31-4.77,1.58-5.6.55-1.7,1.95-3.03,1.61-4.96-.97-1.08-5.2,5.43-6.77,4.58,10.54-10.9,7.51-25.89-3.58-35.08-4.79-3.96-11.92-6.89-15.95-11.54-3.33-3.85-2.94-7.5-8.09-10.24-1.52-.81-7.88-2.52-8.17-3.38l-1.26-14.28c.68-5.32-1.24-11.86.27-16.85,1.14-3.76,5.3-8.85,8.09-11.64-.42,3.97-5.19,7.97-5.21,11.76-.03,4.4,2.66,4.29,3.71,7.09,1.38,3.68,1.59,6.13,4.7,9.25,3.26,3.28,6.61,3.35,10.24,5.3,2.55,1.37,5.11,4.1,7.82,5.34,4.94,2.25,11.99,2.03,17.01.13,1.28-.49,2.71-2,4.25-2.08,1.19-.06,3.8,1.33,5.52,1.47,6.85.56,25.19-6.41,31.82-9.62,1.99-.96,6.89-3.96,7.35-6.21.24-1.17-1.05-3.19.05-4.72.77-1.06,5.58-3.47,7-4.56,4.63-3.54,12.26-11.14,14.03-16.65.68-2.12,3.09-11.1.24-12-.93-.3-11.46,4.09-13.47,4.75-2.61.85-5.94,2.07-8.55,2.6-8.26,1.68-23.3,3.38-31.19.86s-13.56-14.21-19.03-20.42c-4-4.54-10.21-10.73-14.75-14.74-1.85-1.63-6.43-4.41-7.58-5.97-.84-1.14-3.64-10.13-3.18-10.56.59-.08,1.19.33,1.74.28,2.7-.26,10.95-9.8,14.13-11.31.28-.81-.18-5.19-.37-6.27-.7-3.97-3.03-5.82-.29-9.94.34-.51,2.35-2.79,2.91-2.66l1.41,3.98c1.85,1.35.88-5.46.69-6.08-.91-3.02-4.21-5.29-7.33-5.46-2.17-.11-5.07,1.58-5.35,3.75-.38,2.98,2.73,9.42,4.11,12.27,1.1,2.27,3.02,2.82,1.57,6.15-1.14,2.64-8.68,10.45-11.46,10.86-5.06.74-5.79-4.03-10.13-4.36-1.07,1.03,5.35,5.69,5.89,6.65l-.74,10.26c-.77,4.92-8.2,10.69-10.28,14.82-2.2,4.37,4.02,10.41,6,13.82,1.08,1.87,2.26,4.88,3.01,6.95,1.26,3.47,3.87,8.69-1.1,10.28-2.57-3.17-5.75-5.64-8.57-8.58s-7.58-7.21-8.44-11.08c-1.49-6.7-2.75-13.37-4.7-20.01-1.7-5.79-4.63-9.88-3.27-16.42.57-2.75,2.56-6.12,2.97-8.58.26-1.54-.05-3.11.14-4.65.51-4.18,3.71-7.78,6.14-11,.42,1.84,2.16,3.25,2.89,4.67,1.18,2.28.91,5.45,2.7,7.67.52.65,3.6,3.14,4.38,3.6.49.29.85.52.99-.2.23-1.17-2.7-6.82-3.03-8.55-.25-1.29.8-4.56,1.49-5.73,1.32-2.25,5.72-4.1,5.95-7.21.15-2.08-1.36-6.98-3.81-6.97-2.18.02-6.71,3.64-8.17,5.36.7,2.41,1.68-.55,2.94-.18,2.33.69-.51,6.57-1.53,6.35-.79-.17-3.38-5.27-3.68-6.29-1.48-4.88-.44-6.7,3.07-9.86,7-6.3,20.68-11.5,30.09-10.95,4.46.26,8.32,1.57,12.4,2.35,2.5.48,5.18.76,7.73.83.92-.94-3.38-3.3-4.17-3.6-8.94-3.42-27.2-1.47-36.07,2.21-1.48.61-6.6,3.72-7.41,3.78-1.6.11-3.02-1.75-3.74-2.99,2.31-1.68,4.72-1.48,7.42-2.92,1.45-.77,5.22-4.32,5.57-4.39.65-.12,2.77,1.33,3.63,1.46,1.68.25,8.26-5.29,10.09-6.48,5.36-3.47,3.56-.98,7.67,1.04.72.36,1.85.74,2.64.94,5.16,1.31,11.14,1.59,16.36,2.97.05-.04-.41-1.03-.7-1.19-.94-.53-4.85-1.85-6.07-2.2-1.59-.45-3.57-.43-5.03-.95-.57-.2-.67.11-.55-.84,3.46-.29,7.92-4.06,11.07-4.31,2.82-.22,4.87,1.63,8.57.23.68-.26,5.53-3.61,5.89-4.08s.46-.81.37-1.42l-6.37,1.99c-.19-2.64.26-5.58,0-8.17ZM215.32,34.27c-.83-.06-1.59-.04-2.4.18-11.29,3.08-17.95,8.57-26.29,16.35-.55.51-2.13,1.57-1,2.19,5-2.05,8.29-6.61,12.67-9.64,1.9-1.32,4.92-3.3,7.06-3.3-3.09,3.03-6.13,6.27-8.38,9.96l.64.98c7.18-2.37,14.15-6.35,21.89-6.36.62,1.15-1.31.82-1.23,2.6.13,2.88,9.26,3.35,11.39,4.18l-12.67,2.66-2.4.99-.07,1.53c4.09-.66,8.06-2.36,12.2-2.74,4.93-.45,10.53-.02,15.48-.46.57-.05,3.4-.47,3.39-.99-1.08-1.02-2.85-1.39-4.29-1.68-4.7-.96-10.27-1.71-15.08-2.45-1.55-.24-4.64.46-4.93-1.64,2.07-1.47,7.56-2.54,9.16-3.79.19-.15.53-.47.4-.59-4.93-.38-10.66-.41-15.64.5-4.1.74-7.8,3.03-11.86,3.88,2.16-3.04,4.32-6.12,7.17-8.57,1.54-1.32,3.68-2.01,4.79-3.78ZM165.91,43.83c1.95-.63,4.43-7.45,2.58-8.37-.69-.34-.74.71-.86,1.11-.67,2.34-1.25,4.87-1.72,7.25ZM171.88,37.85c-.8-.16-.93.38-1.28.91-.89,1.38-1.59,3.82-2.5,5.47-.6,1.1-4.75,7.34-4.19,7.96.8.1,1.32-.67,1.8-1.19,1.51-1.63,7.71-11.34,6.17-13.15ZM175.07,40.24c-.85-.18-.9.43-1.26.93-.62.85-5.05,8.28-4.71,8.64.88.02,1.67-.98,2.19-1.59.92-1.05,4.71-6.87,3.78-7.97ZM179.86,43.83c-.73-.73-4.49,3.9-4.78,4.78.76.67,5.47-4.09,4.78-4.78ZM140.01,47.02c-.3,1.53,3.89,9.93,4.58,9.96,1.14-.78.23-2.1-.13-3.05-.86-2.26-2.47-5.52-4.45-6.91ZM134.83,47.82c1.75,1.19,5.49,12.31,6.18,12.34.94.04.11-2.74,0-3.18-.43-1.77-3.03-7.85-4.36-8.79-.59-.42-1.13-.42-1.82-.37ZM148.7,47.9c-.34-.2-.75-.06-1.12-.09l1.6,6.37h1.19c.56-.54-.91-5.85-1.67-6.29ZM146.38,52.19c.22-.21-1.06-4-2.39-3.58-.28.31.79,4.38,2.39,3.58ZM120.08,55.39c.78-1.05-3.35-5.99-4.38-5.18.93,2.12,2.43,3.98,4.38,5.18ZM132.43,58.57c.62-1.11-2.69-4.52-3.18-3.98-.47,1,2.65,4.58,3.18,3.98ZM160.73,54.99c-3.04.89-6.17,3.55-8.17,5.97-.83,1.01-4.96,7.06-4.18,7.97.97-.03,1.77-1.13,2.4-1.78,2.21-2.3,4.92-5.33,6.97-7.78.42-.5,3.36-4.03,2.98-4.39ZM110.91,59.37c.44-.41-1.77-3.44-2.79-3.18-.46.5,1.51,3.83,2.79,3.18ZM163.92,56.98c-1.1-.87-4.82,4.18-5.57,4.99-1.3,1.39-3.38,2.22-3.59,4.17,4.38-.81,7.15-5.54,9.16-9.16ZM148.37,57.38c-.81-.14-1.14.51-1.53,1.06-.65.91-4.42,8.71-4.67,9.69-.51,2,.59,1.9,1.74.54s5.28-10.32,4.45-11.29ZM178.26,57.78c-2.43-.32-15.91,11.96-15.14,12.75l15.14-12.75ZM258.76,70.93c-.44-3.91-3.42-8.56-6.37-11.16,1.66,3.81,3.72,8.05,6.37,11.16ZM258.36,78.1c.91-1.03-5.03-9.51-6.05-10.88-1.77-2.39-3.73-5.13-6.3-6.65-.21.82.24,1.08.58,1.61,1.11,1.74,2.89,3.65,4.12,5.44,2.02,2.92,4.18,7.07,6.27,9.67.38.47.65.96,1.37.82ZM253.18,80.09c.93-.98-5.29-10.46-6.29-11.84-.62-.86-4.27-6.11-5.27-5.29,2.23,3.51,4.72,6.87,6.94,10.39,1.12,1.78,2.08,4.24,3.33,5.84.38.48.46,1.08,1.28.9ZM245.21,77.31c.25-1.52-.71-2.4-1.44-3.54-.51-.8-6.96-9.64-7.72-8.81.9,2.11,2.48,4.08,3.83,5.93,1.61,2.23,3.24,4.65,5.33,6.42ZM240.83,76.11c.76-.87-4.94-7.44-5.96-8.19-.55-.4-.8-.75-1.61-.58-.17.8.17,1.06.58,1.61,1.03,1.4,3.18,3.89,4.4,5.17.32.34,2.2,2.44,2.59,1.99ZM179.46,70.93c-.74-.7-4.98,3.86-5.57,4.59-.75.94-2.4,2.44-1,3.37.97.21,7.21-7.36,6.57-7.97ZM186.63,70.93c-.57-.48-6,3.9-6.78,4.57-1.23,1.07-4.11,3.77-4.99,4.97-.4.55-.75.8-.58,1.61.5.5,2.73-1.4,3.19-1.79,2.25-1.88,5.89-5.43,7.96-7.58.21-.22,1.28-1.72,1.2-1.79ZM166.7,83.28c-.96-4.69-6.82-8.9-11.24-10.07-.94-.25-7.1-1.48-7.08-.09,3.71,1.92,8.21,1.84,11.83,4.11,2.26,1.42,3.3,3.73,5.1,5.26.45.38.65.96,1.39.79ZM215.64,74.21c-12.92,1.31-18.73,12.7-14.33,24.49,2.95,7.9,15.39,10.43,22.48,7.19,9.34-4.26,12.83-15.89,7.96-24.89-2.23-4.12-11.64-7.25-16.11-6.8ZM189.42,76.51c-2.25.24-4.4,2.21-6.17,3.59-.79.62-6.24,5.09-5.39,5.96,1.05.12,1.82-.63,2.58-1.2,3.07-2.33,6.26-5.62,8.98-8.35ZM158.73,84.08c.82-3.05-9.63-7.93-10.36-7.17l.4,1.39,9.95,5.78ZM281.87,106.4c-1.55-10.09-6.28-21.13-13.54-28.29l8.71,15.8,4.83,12.5ZM155.15,89.26c-1.43-4.9-6.91-8.27-11.95-8.37-.09,1.55,1.69,1.48,2.53,2.05,3.1,2.09,5.98,4.68,9.42,6.32ZM187.83,84.48c-2.31.58-4.91,2.49-6.38,4.38,2.43-.36,4.85-2.55,6.38-4.38ZM284.66,105.2c-.4-6.72-3.12-13.81-7.17-19.13l7.17,19.13ZM277.49,101.22c-1.05-5-4.08-10.19-7.96-13.55l7.96,13.55ZM287.05,92.05c-.21-.21-.84-.3-.7.5.85,4.9,1.15,9.89,1.12,14.86l-1.21,14.53c1.08-.77,1.25-3.01,1.47-4.3.89-5.24,1.27-11.71.91-17.02-.08-1.13-1.16-8.13-1.6-8.57ZM122.08,112.38c1.97-1.87,1.15-5.63,0-7.78-.89-1.67-9.23-10.77-10.77-9.35-.17.75.42.94.79,1.39,1.37,1.67,3.35,3.12,4.77,4.79,2.84,3.34,4.89,6.43,5.2,10.95ZM99.76,99.23c-.43.43,1.8,2.45,2.18,2.8,1.04.95,5.46,4.29,6.56,4.61.5.14,1.11.11,1.22-.44.22-1.03-8.45-6.34-9.96-6.97ZM133.09,99.27c-.68.34-.69.49-.49,1.18.49,1.72,3.6,4.52,4.06,6.73.59,2.81-2.15,4.43-4.04,5.98-4.23,3.48-7.3,6.11-11.34,9.78-1.09.99-5.39,3.78-5.79,4.57-.3.59.1,1.18.4,1.19.35.01,5.33-2.92,6.15-3.41,4.38-2.64,16.91-9.79,18.83-13.85.42-.89.78-1.34.75-2.45-.09-2.86-5.51-10.66-8.53-9.73ZM105.33,108.79c.46-.4-2.02-2.67-2.38-2.99-2.15-1.9-5.58-4.51-8.37-4.97,1.1,1.29,9.74,8.85,10.76,7.96ZM114.5,106.8c.17-.8-.18-1.06-.58-1.61-.55-.75-5.06-5.09-5.79-4.36-.17.75.42.94.79,1.39.5.61,5.01,5.2,5.58,4.58ZM190.62,117.55c-.68-.97-1.27-2.04-2-2.98-2.55-3.26-6.59-8.57-9.35-11.37-.65-.66-1.1-1.38-2.2-1.19,3.01,4.13,5.84,8.62,9.36,12.36.61.65,3.38,3.81,4.19,3.18ZM191.81,109.59c.89-.98-4.36-7.36-5.97-7.57-.12.66.31,1.07.63,1.56.88,1.34,2.92,3.96,3.98,5.18.4.46.62.98,1.36.83ZM191.01,113.57c.68-.77-3.28-5.7-3.99-6.56-.56-.68-4.32-5.39-5.17-4.59l7.18,9.75,1.98,1.41ZM183.84,117.16c.05-1.42-.94-2.58-1.66-3.71-2.3-3.59-5.64-7.69-8.69-10.64,2.46,5.2,6.35,10.18,10.35,14.35ZM103.34,111.98c.44-.38-1.26-1.9-1.59-2.19-1.52-1.37-6.75-5.12-8.51-5.84-.47-.19-.98-.38-1.05.27s5.29,4.66,6.24,5.31c.77.52,4.15,3.11,4.91,2.46ZM97.76,111.98c.74-.68-4.08-4.01-4.67-4.3-.41-.2-1.15-.78-1.31.12-.11.61,5.38,4.72,5.97,4.18ZM271.91,114.37l-.78.19,7.56,34.88c-.18-7.15-1.41-14.6-2.91-21.59-.42-1.97-2.96-12.63-3.87-13.48ZM266.73,130.71c-1-5.49-3.5-11.72-7.17-15.94l7.17,15.94ZM272.31,135.49c-.74-5.51-2.13-11.49-4.31-16.61-.25-.58-.68-1.91-1.26-2.12l5.57,18.73ZM261.95,131.11c-.84-3.22-2.07-6.72-3.78-9.57-.3-.5-2.25-3.88-3-3.18,2.24,3.75,3.59,8.24,5.78,11.96.3.52-.07,1,.99.78ZM104.54,134.3l-5.01-9.14-1.76-1.22c-.31.32,3.43,7,3.97,7.78.3.43,2.19,3.19,2.8,2.58ZM99.75,134.7c-.13-1.92-1.72-3.79-2.86-5.31-.36-.49-2.86-4.1-3.51-3.46l4.22,6.74,2.15,2.03ZM177.07,150.24c.86-.94-5.52-10.07-6.75-10.98-.54-.4-.83-.74-1.61-.58,2.38,3.17,4.45,7.81,7.01,10.72.4.46.61.98,1.36.83ZM180.65,147.05c.24-1.77-.4-3.13-1.12-4.66-.2-.42-2.15-4.06-2.86-3.31.84,2.41,1.89,4.87,3.01,7.17.28.57-.09,1,.97.8ZM89.79,147.05c.49-1.33-3.9-7.59-4.78-6.77,1.11,1.73,2.16,4.41,3.41,5.95.38.47.65.96,1.37.82ZM170.69,155.02c-.66-6.21-5.57-10.68-10.16-14.34-.87.58-.41.88.03,1.56.85,1.29,2.56,2.75,3.53,4.05,2.17,2.91,3.84,6.37,6.6,8.74ZM87,151.83c.89-1.03-4.01-7.34-4.97-8.37-.57-.61-1.28-1.61-2.19-1.59-.46.52,2,3.83,2.46,4.51.93,1.35,2.35,3.38,3.43,4.54.4.43.41,1.11,1.28.91ZM246.41,153.63c.22,2.21-.16,4.73,0,6.97,1.14.18.66-.24.85-.92,1.12-4.06.13-10.48-1.83-14.24-.44-.84-1.43-3.02-2.61-2.17,1.5,3.09,3.24,6.91,3.59,10.36ZM84.21,156.61c.49-.52-4.52-8.33-5.25-9.3-.37-.5-2.93-4-3.52-3.45,2.57,3.49,4.55,8.4,7.24,11.69.43.52.68,1.21,1.52,1.06ZM264.34,166.58c1.23-5.85,2.72-12.48,1.96-18.49-.1-.76-.37-1.7-.96-2.23.14,5.94-1.07,11.82-1.41,17.72-.04.64-.3,2.73.41,3ZM77.04,153.82c.43-.44-2.1-4.06-3.18-3.98-.4.43,2.58,4.6,3.18,3.98ZM230.07,164.59c.25-2.36-.19-4.28-.89-6.48-.16-.5-2.79-7.1-3.89-5.87l2.99,9.96,1.79,2.39ZM215.72,165.78c.47-.49-4.52-9.72-5.41-10.73-.4-.45-.61-.99-1.36-.83-.38.42,3.46,7.93,4.06,8.89.27.43,2.07,3.33,2.71,2.67ZM217.32,154.23c-.1,1.53,4.18,10.33,4.98,10.35,1.16-.87-.14-3.42-.65-4.53-.89-1.95-2.59-4.56-4.33-5.83ZM238.83,157.42c-.64-.13-.83.17-1.14.64-1.26,1.91.33,8.18.37,10.7.08,5.13-2.03,8.86-4,13.37.81.14,1.06-.09,1.6-.59,1.32-1.22,4.24-5.32,4.97-6.98,2.39-5.37.32-6.55-.89-11.47-.45-1.82-.36-3.85-.91-5.67ZM267.93,166.78c.33-2.93-.24-6.38,0-9.37-.75.15-.73.79-.81,1.38-.65,4.76-.44,9.65-1.59,14.35-.03,1.16.52.42.72-.08.5-1.24,1.54-5.03,1.68-6.29ZM153.15,182.52c-.43-3.44-2.2-6.6-3.64-9.71-2.15-4.67-4.63-9.93-7.91-13.81-.13.68.21,1.16.45,1.74,1.82,4.5,4.6,9.91,6.78,14.34,1.23,2.49,2.4,5.45,4.32,7.43ZM138.01,172.56c.45-.53-2.2-7.5-2.72-8.64-.19-.42-2.49-5.36-3.26-4.51l4.7,12.23,1.27.92ZM143.59,174.95l-.27-1.92-6.5-12.83c.62,3.07,2.15,6.56,3.51,9.43.84,1.77,1.72,4.15,3.25,5.31ZM156.74,175.34c-1.93-4.96-3.43-10.84-7.17-14.74l5.94,14.5,1.22.24ZM161.13,172.95c.76-.85-4.68-10.03-5.77-11.16-.41-.43-.7-.93-1.4-.79l5.64,10.89,1.53,1.06ZM165.91,169.77c.5-.55-2.67-6.43-3.98-6.77.72,1.77,1.67,4.31,2.71,5.86.34.51.45,1.09,1.27.92ZM263.55,186.51c1.15-.96,1.83-2.77,2.46-4.11,2.51-5.37,4.63-11.4,4.31-17.41l-6.77,21.52ZM269.92,192.88l2.39-17.53-1.4,4.37c-.34,3.81-1.55,8.13-1.7,11.9-.02.64-.04,1.08.71,1.27ZM221.31,240.71c2.51-3.37,4.76-10.79,4.34-14.9-1.19-11.67-14.24-18.5-21.68-26.14-.82-4.12-.65-8.38-1-12.55-.04-.48-.15-2.13-.79-2.19l-1.24,12.15c0,4.69,1.56,6.64,4.81,9.57,5.21,4.69,13.78,8.76,16.13,15.75,2.04,6.07.52,12.25-.58,18.32ZM304.99,206.83l-11.95-18.33c1.18,4.48,4.11,9.5,6.85,13.27.39.54,4.41,5.75,5.1,5.05ZM299.81,207.63l-5.92-10.62-3.05-8.11c-1.97-.06,1.17,7.84,1.45,8.5.92,2.15,2.24,4.46,3.6,6.36.34.47,3.26,4.53,3.91,3.86ZM273.51,190.1c-1.11-.19-.67.23-.9.87-2.05,5.75-2.32,13.39-2.29,19.45l1.08-4.3c.38-5.39,2.17-10.62,2.11-16.02ZM233.66,210.02c-.71-3.18-1.43-6.42-2.72-9.43-.24-.56-3.44-7.17-4.45-6.1.44,1.82,1.85,3.53,2.58,5.18,1.31,2.95,2.16,6.94,3.59,9.58.3.56-.03.98,1,.77ZM234.05,201.65c-.11-1.73-.47-4.09-1.99-5.18.07,1.41.42,3.11,1.01,4.39.28.61-.05.98.98.79ZM316.14,233.93c1.77-10.71-.12-21.83-6.61-30.65-1.88-2.56-4.34-5.17-7.33-6.41-.5.51,3.85,4.36,4.37,4.99,7.7,9.29,8.73,19.05,9.18,30.68.02.48-.3,1.48.39,1.39ZM223.89,198.87c-.62-.03-.56,1.06-.42,1.6.23.88,3.16,6.54,4,6.36,1.11-.24.09-2.12-.13-2.66-.35-.9-2.7-5.27-3.46-5.3ZM276.3,216.4c.95-.28.84-1.41.82-2.19-.07-3.27-.97-7.07-1.22-10.36-.12-1.64.25-3.37-.2-4.98-1.86,1.67-1.54,5.06-1.41,7.39.18,3.42,1.2,6.85,2.01,10.15ZM284.26,221.18c-1.32-4.07-2.04-9.05-3.57-12.97-.25-.65-.44-1.55-1.21-1.78.2,4.92,1.67,10.87,4.77,14.75ZM290.24,222.37c.34-.38-3.32-8.4-3.87-9.48-.9-1.77-1.75-1.85-1.45.24.28,1.9,2.01,6.06,3.15,7.63.23.32,1.76,2.07,2.16,1.62ZM216.12,227.96c-.08-3.91-2.75-7.48-5.57-9.96l4.44,8.91,1.13,1.05ZM214.13,230.74c.31-.35-1.22-3.98-1.52-4.65-.44-.96-4.29-8.15-5.65-6.9l5.64,10.49,1.53,1.06ZM207.75,227.56c.47-1.08-2.79-5.99-3.58-5.18l2.46,4.11,1.12,1.07ZM180.25,261.83c.12-4.82,4.03-7.31,6.54-10.8,2.67-3.71,5.94-10.27,5.38-14.88-.15-1.23-1.06-2.41-.77-3.82-.54-.1-.61.71-.69,1.1-1.01,4.83-1.8,8.95-4.14,13.4-1.84,3.51-5.31,6.52-6.64,10.1-.45,1.22-1.88,4.83.31,4.89ZM197.39,235.13c-.71-.14-.99.35-1.37.82-1.04,1.3-5.16,10.81-5.45,12.51-.11.62-.53.9.25,1.41,1.25-1.62,7.33-13.88,6.57-14.74ZM237.25,248.28c2.45-2.15,5.37-5.55,5.97-8.77-.5-.66-6.49,7.41-5.97,8.77ZM246.01,240.31c-.82-.18-.91.43-1.28.91-2.3,2.93-4.89,8.27-5.88,11.85,1.54-1.23,8.06-11.72,7.17-12.75ZM91.38,248.28c0-2.11-1.75-4.45-3.18-5.98l1.38,3.2,1.8,2.78ZM239.64,260.64c2.38-2.47,4.18-6.09,5.78-9.16,1.47-2.81,3.59-6.06,3.77-9.18-3.91,5.57-7.35,11.85-9.56,18.33ZM300.21,264.62c-.24-7.23.98-16.21-3.58-22.32.5,3.29,1.52,6.5,1.94,9.81.5,3.93.38,7.98.85,11.91.07.59.32,1.22.8.59ZM100.16,254.26c-1.51-3.69-3.46-7.25-5.97-10.36.7,2.47,2.19,5.21,3.51,7.44.25.42,1.84,3.54,2.46,2.92ZM108.52,261.83c.14-.7-.18-1.15-.46-1.73-1.43-2.97-4.54-7.83-6.39-10.75-.85-1.35-1.76-3.01-3.11-3.86,1.72,4.15,4.02,8.68,6.45,12.48.28.43,2.81,4.63,3.51,3.86ZM252.78,245.89c-.65-.72-3.16,3.96-3.39,4.37-1.97,3.5-4.08,7.67-4.97,11.57,1.74-1.16,8.97-15.27,8.36-15.94ZM305.38,282.55c.56-1.82,1.05-3.89,1.2-5.78.57-7.39-.12-19.44-2.11-26.58-.29-1.04-.98-2.84-1.87-3.5,1.94,11.39,2.77,22.9,2.39,34.48l.39,1.39ZM183.44,247.89c-.42-.4-5.22,3.51-6.11,4.05-7.13,4.35-16.98,8.93-24.96,11.31-.42.12-1.57.02-1.2.77.71,1.46,5.77-.17,6.99-.58,4.73-1.56,9.62-4.65,14.13-6.79.26.31-1.75,3.75-2.01,4.56-.44,1.37-1.49,4.62.02,5.4,1.23-3.54,3.34-8.73,5.81-11.53,2.22-2.52,6.21-3.67,7.34-7.2ZM114.9,264.22c.51-.54-5.96-10.59-6.84-11.69-.29-.37-1.82-2.36-2.32-1.86l7,11.93,2.17,1.62ZM255.58,276.98c4.22-3.5,7.96-8.48,10.24-13.47,1.34-2.94,3.4-7.83,1.91-10.84l-3.71,10.63-8.44,13.68ZM121.67,265.82c.85-1.13-4.35-8-5.37-9.17-.74-.85-1.67-1.74-2.59-2.39-.11.67.15,1.17.45,1.73.75,1.41,4.95,7.59,5.98,8.77.43.49.92.85,1.53,1.05ZM254.38,254.26c-1.06-.2-.69.22-.97.8-1.18,2.41-2.56,5.37-3.01,7.97,2.36-2.04,3.87-5.67,3.98-8.77ZM147.98,266.61c-.39-1.08-1.19-1.82-1.99-2.59-1.31-1.28-5.77-5.12-7.2-5.95-.8-.47-1.4-.75-2.37-.61.52,2.13,10.3,10.14,11.56,9.16ZM257.57,285.75l11.15-20.14c.48-.39.24-1.43-.2-1.38-1.21.14-12.34,18.37-10.95,21.51ZM132.43,302.48c1.59-6.37,2.12-16.12-1.38-21.93-.99-1.64-1.99-1.62-1.52.32,1.24,5.13,2.28,10.13,2.47,15.48.06,1.67-1.35,4.86.43,6.13ZM266.73,309.26c-2.53-9.78-3.04-19.85.4-29.49-1.21.69-1.95,2.49-2.4,3.77-2.25,6.43-2.16,15.85.11,22.24l1.9,3.48ZM128.05,292.12c.13-2.56-.42-5.2-1.4-7.56-.18-.44-2.13-4.49-2.98-3.59.83,2.53,1.5,5.2,2.48,7.68.43,1.07,1.01,2.75,1.9,3.48ZM179.46,335.96c2.18-12.44,8.6-24.07,11.36-36.27.81-3.59,1.76-7.97.99-11.56-.57-.09-.62,1.1-.68,1.5-.15.99-.05,1.99-.22,2.97-2.59,14.6-10.53,28.18-12.22,42.79-.09.79.08.57.76.56ZM187.43,288.94c-1.04-.26-.95.69-1.19,1.38-.59,1.65-.78,3.42-1.31,5.08-1.69,5.32-3.81,10.52-5.46,15.85,4.67-6.18,6.75-14.73,7.96-22.32ZM274.7,317.23c-1.58-4.36-2.79-8.94-4.48-13.25-.21-.53-.49-1.8-1.09-1.89,1.19,5.07,2.48,10.94,5.57,15.14ZM283.47,322.41l-11.55-19.53c1.8,7.25,6.28,14.34,11.55,19.53ZM295.42,324.8l-13.54-19.13c1.54,4.49,4.75,9.49,7.64,13.28,1.67,2.2,3.49,4.45,5.91,5.85ZM247.2,306.07c-.86-.94-3.46,4.78-3.66,5.31-2.3,6.03-2.62,15.53,1.87,20.6l-1.79-8.97c-.78-6.22,1.75-11.31,3.58-16.93ZM305.78,333.97c-2.24-7.89-7.54-16.04-13.94-21.12l13.94,21.12ZM186.63,345.13c.11-7.08-.45-14.22.93-21.19.55-2.78,1.8-5.12,1.86-7.9-.8.36-1.18,1.49-1.53,2.25-2.82,6.1-3.51,17.23-2.41,23.81.13.79.37,2.63,1.15,3.03ZM255.18,339.15l-5.57-17.13c.21,4.96,1.47,11.02,3.92,15.41.35.62.74,1.95,1.66,1.72ZM309.37,330.38l-1-3.98-2.18-3.99.38,1.81,2.8,6.16ZM191.81,330.78c-1.05-.18-.7.17-.91.86-1.56,5.25-1.43,16.39,2.5,20.66-2.11-7.16-2.39-14.11-1.59-21.52ZM268.72,386.18c2.44-7.3,3.34-15.52,1.81-23.13-1.96-9.75-10.59-16.13-13.48-25.57l-1.47-5.9c-1.3,12.62,10.76,20.15,13.28,31.55,1.67,7.54.18,14.31-.49,21.71-.04.45-.37,1.43.34,1.34ZM201.37,361.07l-4.18-23.91c-.66.45-.57,1.09-.62,1.77-.32,4.23,1.78,17.28,3.79,20.96.24.44.44,1.08,1.01,1.18ZM291.04,337.96c-1.33-.32-.76,1.24-.61,2.01.94,4.93,4.18,12.64,7.4,16.51.31.37,2.34,2.64,2.78,2.2-4.36-6.29-7.62-13.31-9.57-20.72ZM303.39,372.23c3.32-8.19,3.14-18.2-.72-26.18-.21-.42-2.6-4.81-3.26-4.11,2.85,6.27,5.08,13.12,4.8,20.14-.11,2.78-.98,5.95-1.21,8.76-.03.44-.29,1.49.39,1.38ZM275.1,364.26c-.69-3.4-2.05-6.71-3.51-9.83-1.14-2.43-2.58-5.46-4.45-7.3l7.96,17.14ZM294.63,389.77c5.13-4.5,9.49-10.36,12.29-16.6,2.26-5.03,4.36-11.41,3.64-16.88l-4.71,15.41-3.89,7.27-7.33,10.79ZM241.63,392.55h-1.19c-.15,5.37,1.58,12.43,4.18,17.15.19.34,1.58,3,2.2,2.38-2.22-6.33-4.75-12.75-5.18-19.53ZM254.37,416.87c-.53-1.55-1.19-3.2-1.91-4.66-1.33-2.68-3.75-7.42-5.35-9.79-.36-.53-1.05-1.14-1.5-.69-.62.63,6.73,14.36,8.76,15.14Z"/>
        <path class="cls-1" d="M108.13,315.24c-3.12,8.87-.52,19.25,2.39,27.89-.59.73-3.7-4.02-3.97-4.2-.47-.31-.75-.23-1.02.2-.23.36-.45,6.94-.7,8.47-.5,3.11-1.63,6.07-2.47,9.08-1.83-2.98-2.39-7.15-2.94-10.61-.18-1.11.42-2.81-.84-3.34-.58,2.41-.27,4.45.11,6.86.48,3.02,2.51,6.98,2.68,9.29s-1.06,4.02-1.21,6.17c-1.48.27-.71-2.32-1.58-3-1.61-1.25-1.15,3.59-1.25,4.34-1.37,10.17-9.85,26.25-16.7,33.92-2.53,2.83-11.19,3.18-15.11,4.41-3.2,1-4.82,2.8-7.19,4.96.02-2.28,1.18-3.49-1.06-5.12-11.24-4.79-22.75-8.87-33.49-14.73-.9-.49-1.34-1.51-2.51-1.27-.29.3.59,3.9.68,4.7.05.44.46,1.36-.28,1.28l-8.55-18.76c-2.36-1.76-3.53,4.74-4.6,3.61-1.62-7.63-3.64-15.12-4.38-22.92-.54-5.69-1.8-19.47-.52-24.43,1.6-6.22,5.95-10.96,9.67-15.84,5.71-7.48,4.61-14.76,6.79-23.5-2.38-.92-2.94,2.36-4.38,3.38-.4-7.19,2.31-15.14,7.78-19.92,7.12-6.22,15.69-11.18,19.33-20.52,3.16-8.12,3.24-13.53,8.04-21.85,5.98-10.37,15.01-16.39,20.71-25.92,2.89-4.82,5.03-10.28,8.9-14.61,1.08,1.13,4.62,3.3,4.57,4.98l-9.04,16.05c-3.8,7.36-1.18,15.93-.52,23.8.37,4.36-.08,9.09.88,13.47.46,1.21,5.14.9,6.41,1.16,5.21,1.06,5.13,6.17,7.24,9.9,1.97,3.48,12.13,7.39,15.75,9.76,1.48.97,10.2,9.85,11,11.32,2.59,4.76-.63,15.82-3.08,20.47-1.05,2.01-8.72,10.31-8.69,11.23.05,1.38,2.67-.59,3.18-.2ZM37.19,278.17c6.08,1.81,12.28-3.36,16.53-7.18,4.89-4.4,9.98-10.1,10.52-16.98.09-1.19.47-3.23-.74-3.74-.97,3.59-1.08,6.65-2.98,9.98-2.88,5.04-13.34,14.94-18.85,16.61-1.52.46-2.46.33-3.88.51-.55.07-1.16.19-.59.79ZM42.77,273.79c5.56-.71,10.09-7.39,9.96-12.75l-4.39,7.76-5.57,4.99ZM89.79,277.38c.68-.76-5.86-8.76-6.78-9.75-.58-.63-3.16-3.64-3.97-3,.92,1.59,2.06,3.13,3.2,4.57,1.53,1.94,4.12,5.41,5.75,7,.52.51,1.13.91,1.81,1.18ZM91.78,274.98c.92-1.01-4.76-7.13-5.78-7.97-.45-.37-.64-.97-1.39-.79-.58.6,4.95,7.27,5.77,7.97.45.38.65.96,1.39.79ZM84.61,276.58c.81-.89-3.82-5.35-4.58-5.98-.45-.37-.64-.97-1.39-.79-.37.37,2.91,4.29,3.38,4.79.33.35,2.18,2.43,2.59,1.99ZM95.77,314.04c2.2-9.69-.22-21.51-7.17-28.7,1.65,4.11,3.94,7.89,5.14,12.19.96,3.43,1.61,7.97,1.66,11.53.02,1.48-.64,2.83-.44,4.39.07.54.23,1.19.8.59ZM91.38,296.9c.11-3.79-1.89-8.29-4.77-10.76l4.77,10.76ZM67.08,286.55c-3.55-.02-6.52,3.55-8.17,6.37-3.01,5.13-4.04,11.68-4.57,17.54.67-.11.71-.78.9-1.28,2.67-7.01,2.24-15.11,9.08-20.41.9-.7,2.77-.82,2.76-2.21ZM100.95,311.45c.35-1.37,0-5.78,0-7.57,0-3.99-3.3-12.1-5.81-15.31-.2-.26-.97-1.4-1.36-1.03,4.13,7.51,6.41,15.89,6.38,24.51.25.01.76-.46.79-.6ZM97.37,333.17c1.32-.8,1.99-2.93,2.58-4.39,1.13-2.8,2.13-6.21,2.8-9.16,1.21-5.34,2.08-11.33,1.39-16.74-.77.16-.7.8-.8,1.39-.48,2.94-.38,6.19-.84,9.12-1.05,6.73-3.26,13.26-5.13,19.78ZM60.3,303.28c-1.48-.32-1.91,1.27-2.3,2.28-2.19,5.68-1.27,14.01.71,19.63.68.08.44-1.38.41-1.8-.46-6.83-1.77-13.61,1.18-20.11ZM33.6,311.26c-.69-.14-.81.17-1.11.68-.82,1.41-1.17,6.96.11,8.48.66-.98,1.3-8.81.99-9.16ZM65.89,350.31c5.71-5.07,10.97-11.91,14.66-18.61,2.84-5.16,5.83-12.09,1.47-17.25-.21,1.16.49,2.22.59,3.39.74,8.69-6.47,18.08-11.39,24.87-1.76,2.43-4.42,4.65-5.34,7.61ZM35.59,328.39c-.54-3.81,1.25-8.54.82-12.18-.08-.68-.11-1.37-1.01-1.38-.47,0-1.05,8.42-1.02,9.39.03,1.15.15,3.51,1.21,4.17ZM41.97,334.77c.03-4.33-.11-9.38-1.4-13.54-.13-.41-.45-1.61-.98-1.6.37,4.03.44,8.91,1.3,12.84.17.76.21,2,1.08,2.3ZM96.57,342.54c-.22,2.36.16,4.98,0,7.37.58-.06.69-1.76.75-2.24.47-3.72.71-6.52,1.75-10.2.49-1.72,2.71-6.43,2.66-7.71-.02-.47-.55-1.14-.78-.97-1.54,4.42-3.95,9.01-4.39,13.75ZM62.7,345.13c4.48-2.37,8.72-6.5,9.95-11.56l-9.95,11.56ZM29.62,339.95c-4.16,1-7.54,5.6-7.96,9.77-1.05,10.35,5.23,27.08,18.32,23.31-.73-1.27-2.92-.61-4.14-.83-10.52-1.95-16.48-21.11-9.4-28.85.33-.36,3.89-2.74,3.18-3.39ZM68.67,350.31c-.64-.61-5.61,4.48-6.15,5.21-3.82,5.15-3.45,13.46-1.94,19.42.62,2.43,2.3,7.17,5.3,6.66-5.11-5.2-6.22-17.38-3-23.73l5.79-7.55ZM43.96,369.45c-9.12-.44-9.52-8.57-11.67-15.23-.14-.42-.1-1.2-.67-1.11-.33,6.29,2.33,17.04,10.14,17.15.37,0,2.18-.2,2.21-.8ZM77.84,379.41c-5.51.26-9.83-6.46-9.98-11.38-.03-.86.92-2.62.02-2.96-2.96,4.92.92,13.06,5.98,14.93,1.43.53,2.92,1,3.98-.59Z"/>
        <path class="cls-1" d="M130.04,192.48l-.79.2,9.56,7.77c-2.08-.03-12.05-6.1-13.15-5.17-.13.92.7,1.26,1.32,1.67,2.74,1.82,7.76,3.99,10.89,5.45,2.65,1.23,8.64,4.28,11.13,4.82.74.16.78-.29.38-.78l-6.18-3.97c5.7,2.42,12.07,1.24,17.75,3.57.81,2.43-.37,3.7-2.02,5.18-5.02,4.53-10.74,5.48-16.73,7.98-.24-1.35-1.23-7.7-3.11-7.51-.27.03-3.65,2.17-4.23,2.56-4.24,2.86-4.65,4.67-10.57,4.97-1.8.09-5.17-.71-6.31-.42-.36.09-1.03,1.83-1.88,2.19-2.74,1.17-8.25-2.41-10.98-3.36-.24-.4,1.44-3.59.74-5.09-.75-1.59-2.26-.97-3.3-1.51-.53-.27-.76-1.37-1.61-1.61.68-2.21,2.66-3.21,1.84-5.78-.51-1.6-2.99-2.72-4.62-2.2-.87.28-5.01,4.4-5.16,5.22-.67,3.59,2.88,5.79,3.03,6.74.38,2.53-2.97,5,.75,8.2,3.32,1.75,7.26,6.01,10.68,7.27,2.76,1.01,3.96-4.17,6.01-4.08,1.36.06,7.12,2.86,7.42,4.19-.87,2.91-7.33-.98-8.37-.2.58,1.92,4.38,3.15,6.19,3.2.51.01,5.41-.86,5.75-1.02,1.61-.7,1.54-4.5,2.24-6.13,2.09-4.9,8.28-8.4,12.32-11.59.66,1.43,1.39,3.4,1.42,4.98s-2.28,9.46-.96,9.78c5.68.98,4.55-6.69,8.89-7.81,2.47-.64,5.06,1.92,6.38,1.24,1.49-1.46,1.71-3.75,3.18-5.22,2.05-2.05,6.69-3.5,9.49-4.06,1.31-.27,8.16-1.38,8.96-1.24,2.03.36,2.97,3.11,1.97,5-1.55,2.92-11.56,8.65-14.96,8.73-3.7.09-9.08-3.06-10.23,2.14,5.88-.79,12.57.92,17.73-2.79.36.26.28,1.39.19,1.78-.84,3.67-15.07,9.48-18.73,10.76-3.43,1.2-13.06,4.39-16.24,4.49-2.76.08-5.51-2.47-7.76-2.22-3.26.37-5.68,3.56-8.87,3.91-6.02.66-8.11-1.42-12.95-3.79-3.18-1.56-7.09-2.67-9.16-5.54l1.98-3.42c2.22.74,3.25,1.97,2.79,4.38.52-1.25,3.16-2.36,3.92-1.14.59.93-.82,2.39.26,3.12,1.24-1.71,1.2-3.18,3.75-1.94l-.76,3.54c1.02.23.7-.28,1.03-.75.61-.86,1.17-1.78,1.38-2.83,3.49.29,7.12,1.71,10.55,1.98.53.04,2,.4,1.78-.58-.7-.93-1.87-.45-2.8-.79s-1.69-1.02-2.68-1.3c-5.34-1.5-10.01-.12-15.21-3.52-1.41-.92-11.69-9.45-12.33-10.39-.6-.87-2.61-8.9-2.45-9.89,1.27-3.74,6.97-7.41,8.39-10.36,1.79-3.7.25-6.91-.41-10.58,1.17.97,10.49,7.39,11.15,6.77.08-.89-.84-1.45-1.4-1.98-2.66-2.47-9.03-5.24-10.93-7.4-.31-.35-1.39-2.79-1.21-2.97.75-.04,1.36.62,1.95,1.03,6.12,4.37,11.61,8.75,18.36,12.32.97.51,2.53,1.6,3.59,1.19-4.48-4.29-10.2-7.08-15.27-10.64-2.02-1.42-10.32-7.27-11.11-8.81-.56-1.08-.59-2.37-1.11-3.46.66-.12,1.07.31,1.56.63,8.12,5.36,17.19,14.47,26.07,18.17.31.13,2.17,1.21,1.86.13l-26.79-19.33-1.89-2.17c.55-.54,1.13-1.67,1.96-1.24l19.02,13.3,1.73.46c-5.06-5.9-12.14-9.57-18.33-14.15.95-.29,2.41-.32,3.39-.2,2.87.36,14.2,8.95,17.53,11.17,2.52,1.69,5.84,3.2,8.14,5.01,2.04,1.61,3.45,3.88,5.21,5.74ZM142,206.83c1.09-.98-5.99-3.84-6.5-4.05-1.48-.62-3.67-1.67-5.14-2.05-1.84-.48-2.08.61-.31,1.51,1.43.73,11.34,5.14,11.95,4.58ZM161.93,219.59c.37.35,6.35-3.13,6.37-3.78.01-.47-.72-.53-1.21-.43-.86.16-5.99,3.41-5.16,4.22ZM146.19,228.35c-.86.59-.5.84.18,1.41,1.68,1.43,4.16,1.26,5.59-.41l-5.76-1ZM138.81,229.15l-4.51,3.26-6.64,1.72c0,.81,3.48.67,4.19.61,3.03-.23,7.35-1.96,6.96-5.59Z"/>
        <path class="cls-1" d="M122.47,328.19c.68,6.7,6.52,18.31,9.89,24.38,3.05,5.49,7.45,10.14,10.03,15.87,0,.47-.86.12-1.2,0-3.2-1.02-8.53-3.27-11.55-4.79-4.96-2.5-7.41-6.99-12.75-1.39,2.66-9.03-8.49,2.78-9.17,1.99.93-2.15-1.11-4.87-1.15-6.16-.07-2.42,2.34-7.04,2.34-9.78,2-.18,1.96,5.67,3.99,4.2.92-.67.02-2.28,0-3.21-.41-11.64-4.89-21.76-.41-33.48.84-2.19,1.72-4.78,3.99-5.77-2.25,8.77-1.4,18.36,2,26.7,1.37-.7.65-2.83.8-4.18.39-3.66.65-6.76,2.29-10.09.26-.54-.26-1.1.9-.88.15,2.12-.21,4.49,0,6.58Z"/>
        <path class="cls-1" d="M120.48,182.12l-16.73-11.15c3.35-.88,7.62,1.02,10.33,3.01.99.73,4.72,5.17,5.6,6.36.39.53.9,1.05.8,1.79Z"/>
        <path class="cls-1" d="M120.19,65.46c3.06-3.05,7.77,2.82,4.66,6.05-3.57,3.71-7.54-3.19-4.66-6.05Z"/>
        <path class="cls-1" d="M100.95,223.57c.88-5.05,6.25-1.49,8.73.27-.46,7.09-5.24.04-8.73-.27Z"/>
        <path class="cls-1" d="M96.97,211.22c-.04-1.54-1.89-2.57-1.45-3.99.18-.59,3.04-3.62,3.62-4.01,1.53-1.02,2.56.86,2.11,2.53-.18.66-3.54,6.02-4.28,5.48Z"/>
        <path class="cls-1" d="M102.94,214.01l-2.42,7.13c-1.3.91-4.25-2.38-3.35-4.34.43-.93,4.95-3.52,5.77-2.79Z"/>
        <path class="cls-1" d="M93.39,225.17c3.62,1.11.46,4.96-.6,7.17-3.92-1.95.17-4.23.6-7.17Z"/>
        <path class="cls-1" d="M96.53,233.5l-2.37-.58,2.01-5.36c3.72,1.03.77,3.55.36,5.94Z"/>
        <path class="cls-1" d="M92.18,223.57c.44.43-1.45,4.79-1.9,5.46-.25.38.05.72-.89.51-.02-.86-.93-1.46-.62-2.37.07-.19,2.04-3.21,2.18-3.35.44-.4.67-.28,1.21-.26Z"/>
        <path class="cls-1" d="M90.18,221.59c.56.74-1.93,5.01-2.78,4.37-.91-1.78.56-3.19,1.58-4.6l1.2.23Z"/>
        <path class="cls-1" d="M86.01,214.81c1.36,1.2.32,3.08-.8,3.97-1.45-1.25-.13-2.94.8-3.97Z"/>
        <path class="cls-1" d="M87,222.38c-1.93-.43-.45-3.81.6-3.58,1.58.34-.5,2.87-.6,3.58Z"/>
        <path d="M215.64,74.21c4.47-.45,13.88,2.68,16.11,6.8,4.87,8.99,1.38,20.63-7.96,24.89-7.09,3.23-19.54.7-22.48-7.19-4.4-11.8,1.41-23.19,14.33-24.49ZM221.58,81.36c-.56.09-2.86,1.83-3.25,2.33-4.19,5.34,3.74,10.39,6.57,7.37,3.07-3.28,1.64-10.48-3.32-9.7Z"/>
        <path d="M221.31,240.71c1.1-6.07,2.62-12.25.58-18.32-2.35-6.99-10.93-11.06-16.13-15.75-3.26-2.93-4.82-4.88-4.81-9.57l1.24-12.15c.64.06.75,1.71.79,2.19.35,4.18.17,8.43,1,12.55,7.44,7.64,20.49,14.47,21.68,26.14.42,4.12-1.83,11.53-4.34,14.9Z"/>
        <path d="M133.09,99.27c3.02-.92,8.45,6.87,8.53,9.73.03,1.11-.33,1.55-.75,2.45-1.92,4.06-14.45,11.2-18.83,13.85-.81.49-5.79,3.42-6.15,3.41-.31-.01-.71-.6-.4-1.19.4-.79,4.71-3.58,5.79-4.57,4.04-3.68,7.11-6.3,11.34-9.78,1.89-1.56,4.63-3.18,4.04-5.98-.47-2.21-3.58-5.01-4.06-6.73-.19-.68-.19-.83.49-1.18Z"/>
        <path d="M183.44,247.89c-1.13,3.53-5.12,4.68-7.34,7.2-2.47,2.8-4.59,7.99-5.81,11.53-1.51-.78-.46-4.03-.02-5.4.26-.82,2.27-4.25,2.01-4.56-4.51,2.14-9.4,5.23-14.13,6.79-1.22.4-6.27,2.04-6.99.58-.37-.76.79-.65,1.2-.77,7.98-2.37,17.83-6.95,24.96-11.31.89-.54,5.69-4.45,6.11-4.05Z"/>
        <path d="M268.72,386.18c-.71.09-.38-.89-.34-1.34.67-7.4,2.16-14.17.49-21.71-2.53-11.4-14.58-18.93-13.28-31.55l1.47,5.9c2.89,9.45,11.52,15.82,13.48,25.57,1.53,7.6.63,15.82-1.81,23.13Z"/>
        <path d="M179.46,335.96c-.69,0-.86.23-.76-.56,1.68-14.62,9.63-28.19,12.22-42.79.17-.98.07-1.98.22-2.97.06-.4.12-1.59.68-1.5.77,3.59-.17,7.96-.99,11.56-2.76,12.2-9.18,23.83-11.36,36.27Z"/>
        <path d="M238.83,157.42c.55,1.81.46,3.84.91,5.67,1.21,4.91,3.27,6.1.89,11.47-.74,1.66-3.65,5.76-4.97,6.98-.54.5-.78.73-1.6.59,1.97-4.51,4.08-8.24,4-13.37-.04-2.52-1.62-8.79-.37-10.7.31-.48.5-.78,1.14-.64Z"/>
        <path d="M180.25,261.83c-2.19-.06-.76-3.67-.31-4.89,1.33-3.59,4.79-6.59,6.64-10.1,2.34-4.46,3.13-8.57,4.14-13.4.08-.38.15-1.19.69-1.1-.3,1.4.62,2.59.77,3.82.56,4.6-2.72,11.17-5.38,14.88-2.51,3.49-6.42,5.97-6.54,10.8Z"/>
        <path d="M316.14,233.93c-.69.09-.38-.91-.39-1.39-.45-11.63-1.48-21.39-9.18-30.68-.52-.63-4.87-4.48-4.37-4.99,3,1.24,5.45,3.85,7.33,6.41,6.48,8.82,8.38,19.94,6.61,30.65Z"/>
        <path d="M305.38,282.55l-.39-1.39c.38-11.58-.45-23.08-2.39-34.48.89.67,1.58,2.46,1.87,3.5,1.98,7.14,2.68,19.19,2.11,26.58-.15,1.89-.64,3.97-1.2,5.78Z"/>
        <path d="M294.63,389.77l7.33-10.79,3.89-7.27,4.71-15.41c.72,5.47-1.38,11.85-3.64,16.88-2.8,6.23-7.16,12.09-12.29,16.6Z"/>
        <path d="M303.39,372.23c-.68.1-.42-.95-.39-1.38.22-2.81,1.1-5.97,1.21-8.76.28-7.02-1.94-13.87-4.8-20.14.66-.7,3.05,3.68,3.26,4.11,3.86,7.98,4.04,17.99.72,26.18Z"/>
        <path d="M132.43,302.48c-1.78-1.27-.37-4.46-.43-6.13-.19-5.35-1.23-10.35-2.47-15.48-.47-1.94.54-1.96,1.52-.32,3.5,5.81,2.97,15.56,1.38,21.93Z"/>
        <path d="M255.58,276.98l8.44-13.68,3.71-10.63c1.49,3.01-.56,7.91-1.91,10.84-2.28,4.99-6.03,9.97-10.24,13.47Z"/>
        <path d="M247.2,306.07c-1.83,5.62-4.36,10.71-3.58,16.93l1.79,8.97c-4.49-5.06-4.17-14.56-1.87-20.6.2-.52,2.8-6.25,3.66-5.31Z"/>
        <path d="M186.63,345.13c-.77-.4-1.02-2.24-1.15-3.03-1.1-6.58-.41-17.71,2.41-23.81.35-.76.73-1.89,1.53-2.25-.07,2.78-1.31,5.12-1.86,7.9-1.38,6.98-.81,14.12-.93,21.19Z"/>
        <path d="M266.73,309.26l-1.9-3.48c-2.26-6.4-2.35-15.82-.11-22.24.45-1.28,1.19-3.08,2.4-3.77-3.44,9.64-2.93,19.71-.4,29.49Z"/>
        <path d="M122.08,112.38c-.31-4.51-2.36-7.61-5.2-10.95-1.42-1.68-3.4-3.12-4.77-4.79-.37-.45-.97-.64-.79-1.39,1.54-1.42,9.88,7.68,10.77,9.35,1.15,2.15,1.96,5.92,0,7.78Z"/>
        <path d="M271.91,114.37c.91.84,3.44,11.51,3.87,13.48,1.5,6.99,2.73,14.44,2.91,21.59l-7.56-34.88.78-.19Z"/>
        <path d="M166.7,83.28c-.74.17-.94-.41-1.39-.79-1.8-1.53-2.85-3.84-5.1-5.26-3.61-2.27-8.12-2.19-11.83-4.11-.02-1.4,6.14-.16,7.08.09,4.42,1.18,10.28,5.38,11.24,10.07Z"/>
        <path d="M287.05,92.05c.43.44,1.52,7.44,1.6,8.57.37,5.31-.01,11.78-.91,17.02-.22,1.29-.4,3.53-1.47,4.3l1.21-14.53c.03-4.97-.27-9.96-1.12-14.86-.14-.8.49-.71.7-.5Z"/>
        <path d="M281.87,106.4l-4.83-12.5-8.71-15.8c7.26,7.17,12,18.21,13.54,28.29Z"/>
        <path d="M257.57,285.75c-1.38-3.14,9.74-21.37,10.95-21.51.44-.05.67.98.2,1.38l-11.15,20.14Z"/>
        <path d="M153.15,182.52c-1.93-1.98-3.1-4.94-4.32-7.43-2.18-4.44-4.95-9.85-6.78-14.34-.23-.58-.58-1.06-.45-1.74,3.28,3.88,5.76,9.14,7.91,13.81,1.43,3.11,3.21,6.27,3.64,9.71Z"/>
        <path d="M201.37,361.07c-.57-.1-.77-.73-1.01-1.18-2.01-3.68-4.11-16.73-3.79-20.96.05-.68-.04-1.32.62-1.77l4.18,23.91Z"/>
        <path d="M299.81,207.63c-.65.67-3.57-3.39-3.91-3.86-1.36-1.9-2.69-4.21-3.6-6.36-.28-.66-3.42-8.56-1.45-8.5l3.05,8.11,5.92,10.62Z"/>
        <path d="M305.78,333.97l-13.94-21.12c6.4,5.08,11.7,13.24,13.94,21.12Z"/>
        <path d="M258.36,78.1c-.72.14-.99-.35-1.37-.82-2.1-2.6-4.26-6.75-6.27-9.67-1.24-1.79-3.01-3.71-4.12-5.44-.34-.53-.79-.79-.58-1.61,2.56,1.52,4.53,4.26,6.3,6.65,1.02,1.38,6.96,9.85,6.05,10.88Z"/>
        <path d="M170.69,155.02c-2.77-2.36-4.43-5.82-6.6-8.74-.97-1.29-2.68-2.76-3.53-4.05-.44-.67-.89-.98-.03-1.56,4.59,3.66,9.49,8.13,10.16,14.34Z"/>
        <path d="M241.63,392.55c.43,6.78,2.97,13.19,5.18,19.53-.62.62-2.01-2.04-2.2-2.38-2.6-4.72-4.32-11.78-4.18-17.15h1.19Z"/>
        <path d="M187.43,288.94c-1.22,7.59-3.29,16.14-7.96,22.32,1.66-5.33,3.77-10.53,5.46-15.85.53-1.66.72-3.44,1.31-5.08.25-.69.15-1.64,1.19-1.38Z"/>
        <path d="M291.04,337.96c1.95,7.41,5.21,14.43,9.57,20.72-.44.44-2.47-1.83-2.78-2.2-3.22-3.87-6.46-11.58-7.4-16.51-.15-.77-.72-2.33.61-2.01Z"/>
        <path d="M155.15,89.26c-3.44-1.64-6.32-4.23-9.42-6.32-.84-.57-2.62-.5-2.53-2.05,5.04.1,10.52,3.47,11.95,8.37Z"/>
        <path d="M276.3,216.4c-.81-3.3-1.84-6.73-2.01-10.15-.12-2.33-.45-5.72,1.41-7.39.45,1.61.08,3.33.2,4.98.25,3.29,1.15,7.1,1.22,10.36.02.78.13,1.91-.82,2.19Z"/>
        <path d="M295.42,324.8c-2.42-1.4-4.23-3.65-5.91-5.85-2.89-3.79-6.1-8.79-7.64-13.28l13.54,19.13Z"/>
        <path d="M300.21,264.62c-.48.63-.73,0-.8-.59-.46-3.94-.35-7.98-.85-11.91-.42-3.31-1.44-6.53-1.94-9.81,4.57,6.11,3.34,15.08,3.58,22.32Z"/>
        <path d="M253.18,80.09c-.82.18-.91-.42-1.28-.9-1.25-1.59-2.21-4.06-3.33-5.84-2.22-3.52-4.71-6.88-6.94-10.39,1-.82,4.65,4.43,5.27,5.29,1,1.38,7.22,10.86,6.29,11.84Z"/>
        <path d="M263.55,186.51l6.77-21.52c.32,6-1.8,12.04-4.31,17.41-.63,1.34-1.31,3.16-2.46,4.11Z"/>
        <path d="M191.81,330.78c-.79,7.41-.52,14.36,1.59,21.52-3.93-4.27-4.06-15.41-2.5-20.66.21-.69-.14-1.04.91-.86Z"/>
        <path d="M239.64,260.64c2.2-6.48,5.65-12.77,9.56-18.33-.18,3.12-2.31,6.36-3.77,9.18-1.6,3.07-3.41,6.69-5.78,9.16Z"/>
        <path d="M190.62,117.55c-.81.63-3.58-2.53-4.19-3.18-3.52-3.73-6.35-8.22-9.36-12.36,1.09-.19,1.55.53,2.2,1.19,2.76,2.8,6.8,8.11,9.35,11.37.73.94,1.32,2.01,2,2.98Z"/>
        <path d="M273.51,190.1c.06,5.4-1.73,10.63-2.11,16.02l-1.08,4.3c-.04-6.06.23-13.7,2.29-19.45.23-.64-.21-1.07.9-.87Z"/>
        <path d="M264.34,166.58c-.71-.27-.45-2.36-.41-3,.34-5.89,1.55-11.78,1.41-17.72.6.53.87,1.47.96,2.23.76,6.01-.73,12.65-1.96,18.49Z"/>
        <path d="M252.78,245.89c.61.67-6.62,14.78-8.36,15.94.88-3.9,3-8.07,4.97-11.57.23-.41,2.74-5.09,3.39-4.37Z"/>
        <path d="M147.98,266.61c-1.26.98-11.04-7.03-11.56-9.16.97-.14,1.57.14,2.37.61,1.43.84,5.88,4.67,7.2,5.95.79.78,1.6,1.51,1.99,2.59Z"/>
        <path d="M304.99,206.83c-.7.7-4.71-4.51-5.1-5.05-2.74-3.77-5.66-8.8-6.85-13.27l11.95,18.33Z"/>
        <path d="M246.41,153.63c-.35-3.44-2.09-7.27-3.59-10.36,1.18-.85,2.17,1.33,2.61,2.17,1.96,3.75,2.95,10.18,1.83,14.24-.19.68.29,1.11-.85.92-.16-2.25.22-4.76,0-6.97Z"/>
        <path d="M186.63,70.93c.08.07-.99,1.57-1.2,1.79-2.07,2.15-5.71,5.7-7.96,7.58-.47.39-2.69,2.29-3.19,1.79-.17-.81.18-1.06.58-1.61.88-1.2,3.76-3.9,4.99-4.97.78-.68,6.21-5.05,6.78-4.57Z"/>
        <path d="M197.39,235.13c.76.86-5.32,13.12-6.57,14.74-.78-.52-.36-.79-.25-1.41.29-1.7,4.41-11.21,5.45-12.51.38-.47.66-.96,1.37-.82Z"/>
        <path d="M254.37,416.87c-2.03-.78-9.38-14.52-8.76-15.14.44-.45,1.14.16,1.5.69,1.6,2.37,4.03,7.11,5.35,9.79.72,1.47,1.38,3.11,1.91,4.66Z"/>
        <path d="M108.52,261.83c-.7.77-3.23-3.43-3.51-3.86-2.43-3.8-4.73-8.33-6.45-12.48,1.35.85,2.26,2.52,3.11,3.86,1.85,2.92,4.96,7.78,6.39,10.75.28.58.6,1.03.46,1.73Z"/>
        <path d="M284.66,105.2l-7.17-19.13c4.05,5.32,6.77,12.41,7.17,19.13Z"/>
        <path d="M189.42,76.51c-2.72,2.74-5.91,6.02-8.98,8.35-.76.58-1.53,1.32-2.58,1.2-.85-.87,4.6-5.34,5.39-5.96,1.76-1.39,3.91-3.35,6.17-3.59Z"/>
        <path d="M178.26,57.78l-15.14,12.75c-.77-.79,12.71-13.06,15.14-12.75Z"/>
        <path d="M283.47,322.41c-5.27-5.19-9.75-12.28-11.55-19.53l11.55,19.53Z"/>
        <path d="M158.73,84.08l-9.95-5.78-.4-1.39c.73-.76,11.18,4.12,10.36,7.17Z"/>
        <path d="M230.07,164.59l-1.79-2.39-2.99-9.96c1.1-1.23,3.73,5.37,3.89,5.87.7,2.2,1.14,4.12.89,6.48Z"/>
        <path d="M233.66,210.02c-1.03.21-.7-.22-1-.77-1.43-2.63-2.28-6.63-3.59-9.58-.73-1.66-2.14-3.36-2.58-5.18,1.01-1.07,4.22,5.55,4.45,6.1,1.28,3.02,2,6.25,2.72,9.43Z"/>
        <path d="M183.84,117.16c-4-4.17-7.89-9.15-10.35-14.35,3.05,2.95,6.39,7.04,8.69,10.64.72,1.13,1.72,2.29,1.66,3.71Z"/>
        <path d="M255.18,339.15c-.91.23-1.31-1.1-1.66-1.72-2.44-4.39-3.71-10.44-3.92-15.41l5.57,17.13Z"/>
        <path d="M103.34,111.98c-.75.65-4.14-1.94-4.91-2.46-.95-.65-6.31-4.65-6.24-5.31s.58-.46,1.05-.27c1.76.73,7,4.47,8.51,5.84.33.3,2.03,1.82,1.59,2.19Z"/>
        <path d="M114.9,264.22l-2.17-1.62-7-11.93c.5-.5,2.03,1.49,2.32,1.86.88,1.1,7.35,11.15,6.84,11.69Z"/>
        <path d="M275.1,364.26l-7.96-17.14c1.87,1.85,3.31,4.87,4.45,7.3,1.46,3.13,2.82,6.43,3.51,9.83Z"/>
        <path d="M156.74,175.34l-1.22-.24-5.94-14.5c3.74,3.91,5.24,9.78,7.17,14.74Z"/>
        <path d="M177.07,150.24c-.75.16-.96-.37-1.36-.83-2.55-2.92-4.63-7.56-7.01-10.72.78-.17,1.07.18,1.61.58,1.24.9,7.62,10.03,6.75,10.98Z"/>
        <path d="M191.01,113.57l-1.98-1.41-7.18-9.75c.85-.8,4.61,3.91,5.17,4.59.71.87,4.68,5.79,3.99,6.56Z"/>
        <path d="M214.13,230.74l-1.53-1.06-5.64-10.49c1.35-1.24,5.21,5.94,5.65,6.9.3.67,1.84,4.3,1.52,4.65Z"/>
        <path d="M290.24,222.37c-.4.45-1.93-1.3-2.16-1.62-1.14-1.56-2.87-5.72-3.15-7.63-.31-2.08.55-2,1.45-.24.55,1.08,4.21,9.1,3.87,9.48Z"/>
        <path d="M246.01,240.31c.89,1.04-5.63,11.52-7.17,12.75.99-3.58,3.58-8.92,5.88-11.85.38-.48.46-1.08,1.28-.91Z"/>
        <path d="M284.26,221.18c-3.1-3.87-4.58-9.82-4.77-14.75.77.23.96,1.13,1.21,1.78,1.52,3.92,2.25,8.9,3.57,12.97Z"/>
        <path d="M245.21,77.31c-2.1-1.77-3.72-4.19-5.33-6.42-1.34-1.86-2.93-3.83-3.83-5.93.76-.82,7.21,8.01,7.72,8.81.72,1.14,1.68,2.02,1.44,3.54Z"/>
        <path d="M138.01,172.56l-1.27-.92-4.7-12.23c.77-.85,3.06,4.09,3.26,4.51.52,1.13,3.17,8.11,2.72,8.64Z"/>
        <path d="M215.72,165.78c-.64.66-2.44-2.24-2.71-2.67-.6-.96-4.44-8.47-4.06-8.89.75-.16.96.37,1.36.83.89,1.01,5.88,10.24,5.41,10.73Z"/>
        <path d="M105.33,108.79c-1.02.89-9.66-6.68-10.76-7.96,2.8.46,6.22,3.07,8.37,4.97.36.32,2.84,2.59,2.38,2.99Z"/>
        <path d="M161.13,172.95l-1.53-1.06-5.64-10.89c.7-.14.98.36,1.4.79,1.09,1.13,6.54,10.31,5.77,11.16Z"/>
        <path d="M121.67,265.82c-.62-.2-1.11-.56-1.53-1.05-1.03-1.18-5.23-7.36-5.98-8.77-.3-.56-.56-1.07-.45-1.73.92.65,1.85,1.54,2.59,2.39,1.02,1.17,6.22,8.04,5.37,9.17Z"/>
        <path d="M143.59,174.95c-1.53-1.16-2.41-3.54-3.25-5.31-1.37-2.87-2.89-6.36-3.51-9.43l6.5,12.83.27,1.92Z"/>
        <path d="M99.76,99.23c1.5.62,10.17,5.93,9.96,6.97-.12.55-.72.58-1.22.44-1.1-.31-5.52-3.66-6.56-4.61-.38-.35-2.61-2.37-2.18-2.8Z"/>
        <path d="M217.32,154.23c1.74,1.27,3.44,3.87,4.33,5.83.5,1.11,1.8,3.66.65,4.53-.8-.02-5.08-8.82-4.98-10.35Z"/>
        <path d="M84.21,156.61c-.84.15-1.1-.54-1.52-1.06-2.69-3.28-4.67-8.19-7.24-11.69.59-.55,3.15,2.95,3.52,3.45.72.97,5.74,8.78,5.25,9.3Z"/>
        <path d="M179.46,70.93c.64.6-5.6,8.17-6.57,7.97-1.4-.93.25-2.44,1-3.37.59-.73,4.83-5.29,5.57-4.59Z"/>
        <path d="M128.05,292.12c-.89-.73-1.47-2.41-1.9-3.48-.98-2.48-1.65-5.14-2.48-7.68.85-.89,2.8,3.15,2.98,3.59.97,2.37,1.53,5.01,1.4,7.56Z"/>
        <path d="M267.93,166.78c-.14,1.26-1.18,5.05-1.68,6.29-.2.5-.75,1.24-.72.08,1.15-4.7.94-9.6,1.59-14.35.08-.6.05-1.23.81-1.38-.24,2.99.33,6.44,0,9.37Z"/>
        <path d="M87,151.83c-.86.2-.88-.48-1.28-.91-1.08-1.17-2.5-3.19-3.43-4.54-.47-.68-2.93-3.99-2.46-4.51.91-.02,1.63.98,2.19,1.59.96,1.03,5.86,7.34,4.97,8.37Z"/>
        <path d="M266.73,130.71l-7.17-15.94c3.67,4.22,6.16,10.45,7.17,15.94Z"/>
        <path d="M261.95,131.11c-1.06.22-.69-.27-.99-.78-2.19-3.72-3.54-8.21-5.78-11.96.75-.7,2.7,2.68,3,3.18,1.71,2.85,2.94,6.35,3.78,9.57Z"/>
        <path d="M240.83,76.11c-.4.46-2.27-1.64-2.59-1.99-1.22-1.28-3.36-3.77-4.4-5.17-.4-.55-.75-.81-.58-1.61.81-.17,1.06.18,1.61.58,1.02.75,6.71,7.32,5.96,8.19Z"/>
        <path d="M269.92,192.88c-.74-.19-.73-.63-.71-1.27.14-3.76,1.36-8.09,1.7-11.9l1.4-4.37-2.39,17.53Z"/>
        <path d="M277.49,101.22l-7.96-13.55c3.88,3.36,6.91,8.54,7.96,13.55Z"/>
        <path d="M104.54,134.3c-.61.61-2.5-2.15-2.8-2.58-.54-.77-4.28-7.46-3.97-7.78l1.76,1.22,5.01,9.14Z"/>
        <path d="M272.31,135.49l-5.57-18.73c.58.21,1.02,1.54,1.26,2.12,2.18,5.12,3.57,11.09,4.31,16.61Z"/>
        <path d="M258.76,70.93c-2.65-3.1-4.71-7.35-6.37-11.16,2.95,2.6,5.93,7.25,6.37,11.16Z"/>
        <path d="M223.89,198.87c.75.03,3.1,4.4,3.46,5.3.21.54,1.24,2.42.13,2.66-.84.18-3.77-5.48-4-6.36-.14-.54-.2-1.63.42-1.6Z"/>
        <path d="M274.7,317.23c-3.09-4.2-4.39-10.07-5.57-15.14.6.09.88,1.36,1.09,1.89,1.69,4.31,2.9,8.89,4.48,13.25Z"/>
        <path d="M237.25,248.28c-.52-1.36,5.47-9.43,5.97-8.77-.6,3.22-3.52,6.62-5.97,8.77Z"/>
        <path d="M216.12,227.96l-1.13-1.05-4.44-8.91c2.82,2.48,5.49,6.06,5.57,9.96Z"/>
        <path d="M99.75,134.7l-2.15-2.03-4.22-6.74c.65-.64,3.15,2.97,3.51,3.46,1.14,1.52,2.73,3.39,2.86,5.31Z"/>
        <path d="M254.38,254.26c-.11,3.09-1.62,6.73-3.98,8.77.44-2.59,1.83-5.56,3.01-7.97.28-.57-.09-1,.97-.8Z"/>
        <path d="M191.81,109.59c-.74.15-.96-.37-1.36-.83-1.06-1.23-3.1-3.84-3.98-5.18-.32-.49-.75-.9-.63-1.56,1.61.21,6.87,6.59,5.97,7.57Z"/>
        <path d="M180.65,147.05c-1.06.2-.69-.22-.97-.8-1.12-2.3-2.17-4.75-3.01-7.17.72-.75,2.67,2.88,2.86,3.31.72,1.53,1.36,2.89,1.12,4.66Z"/>
        <path d="M114.5,106.8c-.57.62-5.08-3.97-5.58-4.58-.37-.45-.97-.64-.79-1.39.74-.72,5.24,3.61,5.79,4.36.4.55.75.81.58,1.61Z"/>
        <path d="M100.16,254.26c-.62.62-2.21-2.5-2.46-2.92-1.32-2.23-2.81-4.97-3.51-7.44,2.51,3.11,4.47,6.67,5.97,10.36Z"/>
        <path d="M89.79,147.05c-.72.14-.99-.35-1.37-.82-1.25-1.54-2.3-4.22-3.41-5.95.88-.82,5.27,5.44,4.78,6.77Z"/>
        <path d="M97.76,111.98c-.59.54-6.08-3.57-5.97-4.18.16-.9.9-.32,1.31-.12.58.29,5.41,3.62,4.67,4.3Z"/>
        <path d="M165.91,169.77c-.82.17-.93-.41-1.27-.92-1.04-1.55-1.99-4.08-2.71-5.86,1.31.34,4.48,6.23,3.98,6.77Z"/>
        <path d="M187.83,84.48c-1.52,1.83-3.94,4.02-6.38,4.38,1.46-1.89,4.06-3.8,6.38-4.38Z"/>
        <polygon points="309.37 330.38 306.57 324.22 306.19 322.41 308.37 326.4 309.37 330.38"/>
        <path d="M207.75,227.56l-1.12-1.07-2.46-4.11c.79-.81,4.05,4.1,3.58,5.18Z"/>
        <path d="M234.05,201.65c-1.03.19-.71-.19-.98-.79-.58-1.28-.94-2.98-1.01-4.39,1.52,1.09,1.87,3.45,1.99,5.18Z"/>
        <path d="M77.04,153.82c-.61.62-3.58-3.55-3.18-3.98,1.08-.08,3.62,3.54,3.18,3.98Z"/>
        <path d="M91.38,248.28l-1.8-2.78-1.38-3.2c1.43,1.52,3.17,3.87,3.18,5.98Z"/>
        <path d="M29.62,339.95c.7.65-2.85,3.03-3.18,3.39-7.08,7.74-1.12,26.9,9.4,28.85,1.22.23,3.41-.43,4.14.83-13.09,3.77-19.38-12.96-18.32-23.31.42-4.17,3.81-8.77,7.96-9.77Z"/>
        <path d="M37.19,278.17c-.57-.59.04-.72.59-.79,1.41-.18,2.36-.05,3.88-.51,5.52-1.67,15.97-11.58,18.85-16.61,1.9-3.32,2.01-6.38,2.98-9.98,1.21.5.83,2.54.74,3.74-.54,6.88-5.63,12.58-10.52,16.98-4.24,3.82-10.45,8.99-16.53,7.18Z"/>
        <path d="M65.89,350.31c.92-2.95,3.58-5.17,5.34-7.61,4.92-6.79,12.13-16.18,11.39-24.87-.1-1.17-.81-2.23-.59-3.39,4.36,5.16,1.37,12.1-1.47,17.25-3.69,6.71-8.95,13.54-14.66,18.61Z"/>
        <path d="M68.67,350.31l-5.79,7.55c-3.22,6.35-2.11,18.54,3,23.73-3,.51-4.68-4.22-5.3-6.66-1.51-5.96-1.88-14.27,1.94-19.42.54-.73,5.51-5.81,6.15-5.21Z"/>
        <path d="M97.37,333.17c1.87-6.52,4.08-13.04,5.13-19.78.46-2.93.37-6.18.84-9.12.1-.59.02-1.23.8-1.39.7,5.42-.18,11.4-1.39,16.74-.67,2.95-1.67,6.36-2.8,9.16-.59,1.46-1.26,3.59-2.58,4.39Z"/>
        <path d="M95.77,314.04c-.56.59-.72-.05-.8-.59-.21-1.56.46-2.91.44-4.39-.05-3.56-.7-8.09-1.66-11.53-1.21-4.29-3.49-8.08-5.14-12.19,6.94,7.19,9.37,19,7.17,28.7Z"/>
        <path d="M67.08,286.55c0,1.4-1.86,1.52-2.76,2.21-6.84,5.31-6.41,13.41-9.08,20.41-.19.51-.23,1.17-.9,1.28.53-5.86,1.56-12.41,4.57-17.54,1.66-2.82,4.63-6.39,8.17-6.37Z"/>
        <path d="M60.3,303.28c-2.95,6.5-1.64,13.28-1.18,20.11.03.43.27,1.88-.41,1.8-1.99-5.62-2.9-13.95-.71-19.63.39-1.01.82-2.6,2.3-2.28Z"/>
        <path d="M43.96,369.45c-.02.6-1.84.81-2.21.8-7.82-.1-10.47-10.86-10.14-17.15.57-.09.54.69.67,1.11,2.16,6.66,2.56,14.79,11.67,15.23Z"/>
        <path d="M100.95,311.45c-.03.13-.54.61-.79.6.03-8.62-2.26-17-6.38-24.51.39-.38,1.16.77,1.36,1.03,2.51,3.21,5.81,11.32,5.81,15.31,0,1.79.35,6.2,0,7.57Z"/>
        <path d="M77.84,379.41c-1.06,1.58-2.55,1.12-3.98.59-5.06-1.87-8.94-10.01-5.98-14.93.9.34-.04,2.1-.02,2.96.15,4.92,4.47,11.65,9.98,11.38Z"/>
        <path d="M96.57,342.54c.44-4.74,2.84-9.33,4.39-13.75.23-.17.76.5.78.97.04,1.27-2.17,5.99-2.66,7.71-1.04,3.68-1.29,6.48-1.75,10.2-.06.48-.17,2.18-.75,2.24.16-2.39-.22-5.02,0-7.37Z"/>
        <path d="M89.79,277.38c-.68-.27-1.28-.67-1.81-1.18-1.63-1.6-4.22-5.06-5.75-7-1.14-1.44-2.28-2.98-3.2-4.57.81-.65,3.39,2.37,3.97,3,.92.99,7.46,9,6.78,9.75Z"/>
        <path d="M42.77,273.79l5.57-4.99,4.39-7.76c.14,5.36-4.4,12.04-9.96,12.75Z"/>
        <path d="M62.7,345.13l9.95-11.56c-1.23,5.06-5.47,9.18-9.95,11.56Z"/>
        <path d="M41.97,334.77c-.87-.3-.91-1.54-1.08-2.3-.86-3.93-.93-8.81-1.3-12.84.53-.01.85,1.19.98,1.6,1.29,4.16,1.43,9.21,1.4,13.54Z"/>
        <path d="M35.59,328.39c-1.06-.66-1.18-3.02-1.21-4.17-.03-.97.55-9.4,1.02-9.39.9,0,.93.69,1.01,1.38.43,3.64-1.36,8.37-.82,12.18Z"/>
        <path d="M91.78,274.98c-.74.17-.94-.41-1.39-.79-.82-.7-6.36-7.37-5.77-7.97.75-.17.94.42,1.39.79,1.02.84,6.69,6.96,5.78,7.97Z"/>
        <path d="M33.6,311.26c.3.35-.33,8.19-.99,9.16-1.28-1.52-.93-7.07-.11-8.48.3-.51.42-.82,1.11-.68Z"/>
        <path d="M91.38,296.9l-4.77-10.76c2.89,2.47,4.89,6.97,4.77,10.76Z"/>
        <path d="M84.61,276.58c-.41.45-2.26-1.63-2.59-1.99-.47-.49-3.75-4.41-3.38-4.79.75-.17.94.42,1.39.79.76.63,5.39,5.09,4.58,5.98Z"/>
        <path d="M142,206.83c-.61.55-10.52-3.85-11.95-4.58-1.77-.91-1.53-1.99.31-1.51,1.46.38,3.65,1.42,5.14,2.05.51.21,7.59,3.07,6.5,4.05Z"/>
        <path d="M138.81,229.15c.39,3.64-3.92,5.36-6.96,5.59-.71.05-4.19.2-4.19-.61l6.64-1.72,4.51-3.26Z"/>
        <path d="M161.93,219.59c-.83-.8,4.29-4.05,5.16-4.22.49-.09,1.22-.04,1.21.43-.02.66-6,4.14-6.37,3.78Z"/>
        <path d="M146.19,228.35l5.76,1c-1.42,1.67-3.9,1.85-5.59.41-.68-.57-1.03-.82-.18-1.41Z"/>
        <path class="cls-1" d="M221.58,81.36c4.95-.78,6.38,6.42,3.32,9.7-2.83,3.03-10.76-2.03-6.57-7.37.39-.5,2.69-2.24,3.25-2.33Z"/>
        <path class="cls-2" d="M153,382.54c1.58,8.49,4.22,14.38-3.05,20.79-5.89,5.19-13.47,4.87-20.55,2.2-8.79-3.32-12.1-13.89-9.25-22.56,1.29-3.9,5.32-5.75,7.52-8.91l-12.64-10.23c-.49-.7,4.22-4.62,4.88-4.8,1.83-.51,10.45,4.66,12.81,5.71,4.62,2.07,9.34,4.22,13.87,6.25,10.16,4.54,23.28,6.59,34.39,5.75,2.76-.21,10.92-2.92,12.55-2.43.47.14.89.56,1.03,1.04.21.77.96,6.61.94,7.4-.05,1.57-1.48,1.85-2.8,2.17-5.59,1.4-17.63.74-23.57.1-5.39-.58-10.72-1.95-16.13-2.49Z"/>
      </g>
    </g>
  </g>
</svg>