<?xml version="1.0" encoding="UTF-8"?>
<svg id="Layer_2" xmlns="http://www.w3.org/2000/svg" version="1.1" viewBox="0 0 46.7 47.6">
  <!-- Generator: Adobe Illustrator 29.6.1, SVG Export Plug-In . SVG Version: 2.1.1 Build 9)  -->
  <defs>
    <style>
      .st0 {
        fill: #fff;
      }
    </style>
  </defs>
  <g id="Layer_1-2">
    <g>
      <polygon class="st0" points="2.2 40.3 13.8 46.8 28.1 46 35.7 45.8 45.4 44.7 44.3 17.2 28.3 4.9 13.8 .2 12.4 1.8 8 7.1 1.8 15.4 .5 16.9 2.6 18.1 2.3 21.4 2.2 40.3"/>
      <g>
        <path d="M44.8,19.6c0,.3.2.6.2.8,0,.6,0,.9,0,1.5.5,5.3.3,10.8.5,16.2,0,2.1.3,4.3.4,6.5,0,.3,0,.5-.3.7-.7-.1-1.2.2-1.9.4-1,.2-2,.3-3,.4-4.6.4-9.3.4-14,.7-3.1.2-6.3.8-9.4.9-.8,0-2.1,0-2.8-.1-3.8-1.2-7.7-3.9-11-5.9-.6-.4-1.8-.7-1.9-1.5-.1-1.4.2-3.3.2-4.8s-.2-3.1-.3-4.6.4-2.9.3-4.4c-.1-2-.1-3.5,0-5.4,0-.9,0-1.8-.2-2.6C1.4,17.9,0,17.4,0,17.1c0-.1,1.1-1.4,1.2-1.6C4.4,10.9,8.2,5.6,12.1,1.5c.5-.5,1.1-1,1.6-1.5h.2c.9.2,1.7.3,2.6.5,1.5.4,3.3.9,4.9,1.4,3.2,1,6.6,2,9.4,3.9,2,1.3,3.7,2.9,5.6,4.3,2.1,1.6,4.7,3.2,6.6,4.9.4.3.7.8,1,1.1.8.7,1.8,1.4,2.5,2,1,1.1-.9,1.3-1.6,1.4h0ZM13.6.8c0,0-.9,1.2-1.1,1.4-3.2,3.7-5.9,7.4-8.9,11.3-.8,1.1-1.4,2.3-2.4,3.2l11.3,4.9c.2,0,.6-.9.8-1.1,3.4-4.8,7.8-9,11.8-13.3.3-.3,1.9-1.8,2-2,0-.2-.6-.5-.8-.5-2-.9-4.4-1.4-6.6-2.1-1.8-.5-3.9-1.5-5.7-1.8-.1,0-.4,0-.5,0ZM34.9,45.2c1.9,0,3.7-.6,5.5-.5,1.4.2,2.7-.2,4.1-.4.2,0,.2-.7.2-.9,0-.7,0-1.4,0-2.1,0-3.4,0-6.9-.3-10.3-.2-3.1-.3-6.3-.5-9.4,0-1.3,0-2.7,0-4,0-.3-1-.9-1.3-1.1-3.2-2.7-6.4-5.1-9.8-7.5-1.4-1-2.7-2.1-4.2-3l-7.5,7.5c-1.6,1.9-3,3.8-4.5,5.8-.3.4-1.6,1.8-1.6,2.1-.2.7,0,1.6,0,2.3,0,1.9-.3,3.8-.3,5.7,0,3.8.2,7.7.3,11.5,0,1.3.1,2.6,0,3.8,0,.5-.1,1.1-.2,1.6.9,0,1.8.2,2.7,0,1.3,0,2.6-.5,3.9-.5,2-.1,4-.2,5.9-.3.2,0,.8.1.9,0,.4-.2,0-1.8,0-2.2,0-1.4,0-2.8,0-4.3,0-.9-.4-2.2.3-3,.6-.7,1.9-.5,2.7-.7.7-.1,2.3-.8,2.7.1.5,1.1.2,2.2.3,3.4,0,1.3.3,2.6.3,3.9,0,.8,0,1.6,0,2.4h0ZM2.9,18.9v21.1c3.4,2,6.6,4.2,10.2,5.8h.3c.5-1.7,0-3.4,0-5.2-.2-3.2.2-6.4.2-9.6,0-2.7,0-5.5,0-8.2-1.1,1.3-1.6.2-2.6-.3-1.6-.8-3.3-1.4-5-2.2-1-.5-2-1.1-3-1.5h0ZM33.3,36.1l-4.2.6.4,9c.3.3,3.7-.2,4.3-.2h.2c0-.1-.8-9.4-.8-9.4h0Z"/>
        <path d="M23.3,27.1c.2.2,0,1.4.1,1.8.1,1.6.3,3.2.4,4.8,0,.7.4,1.1,0,1.8-.3.5-.4.2-.7.3-1.2.3-2.3.6-3.5.8-.2,0-1,.3-1,.2-.7-.2-.3-1.5-.3-2,0-1.7-.2-3.5-.3-5.2,0-.8-.1-1.8.8-2s2.2-.4,3.1-.5c.3,0,1.2-.1,1.4,0h0ZM21,31h1.6c.3-.3,0-.8,0-1.2,0-.5,0-1.3,0-1.8,0-.1,0-.1-.1-.2-.2-.2-1.6,0-1.7.2,0,.2.1,1,.2,1.2,0,.6,0,1.1,0,1.7ZM20.5,28l-2,.3c.3.8.4,1.6.5,2.4,0,.2,0,.8.1.8.3-.2,1.1-.1,1.2-.5l.2-3h0ZM22.7,31.9c-.5-.2-1,0-1.6,0l.3,2.9,1.4-.2s0-2.7,0-2.7ZM20.3,32c-.2,0-1.2,0-1.3.2.1,1,0,2.1,0,3.1l1.6-.4s-.3-3-.3-3Z"/>
        <path d="M40.2,25.8c1.2-.1,1.1.2,1.4,1.2.4,1.8.5,3.9.6,5.7,0,.6.2,1.3-.4,1.5-1.7.6-3.8.5-5.6.6-.2-.2-.2-2.5-.3-2.9,0-.4-.2-.9-.2-1.3-.1-1.4-.2-2.8,0-4.1,0-.1,2.7-.4,3.1-.4.5,0,1-.2,1.4-.2h0ZM40.9,26.3l-2.2.4c.3.8.5,1.7.6,2.6,0,.2,0,.8.2.8l1.8-.2-.3-3.5h0ZM38.6,30.1l-.3-3.3c-.2-.2-1.9,0-2.2,0l.5,3.7,2-.4h0ZM41.5,33.6l-.2-3.2c0-.1-.7,0-.8,0-.2,0-.2.2-.3.2-.2,0-.5,0-.8.1l.3,2.9h1.8c0,0,0,0,0,0ZM38.9,33.8c0-.5,0-1.1,0-1.6,0-.2-.2-1.1-.2-1.2-.2-.2-1.6.2-2,.2v2.9c0,0,2.2-.3,2.2-.3h0Z"/>
        <path d="M14.8,16.8c-.6-.3-.9-1.2-1.1-1.8-.8-1.8-1.7-3.8-2.3-5.6,0-.1-.4-1.1-.1-1.1,1.7,2.5,2.9,5.5,3.6,8.5h0Z"/>
        <path d="M13.8,4c.2,0,1,1.5,1.1,1.8.9,1.8,1.4,3.8,2.1,5.7v.3c-.6.1-1-1.1-1.1-1.4-.5-1.2-.8-2.5-1.2-3.7-.2-.7-.9-1.8-1-2.5,0-.1,0-.3,0-.3h0Z"/>
        <path d="M12.6,16.5c-.2,0-.2,0-.3-.2-.6-.6-2.4-4.6-2.7-5.6,0-.1-.3-.6,0-.7s.4.3.5.5c.6,1.1,1.3,2.6,1.8,3.8.3.7.7,1.4.7,2.1h0Z"/>
        <path d="M14.9,11.2c-.1,0-.3,0-.4,0-.2-.2-.9-2.1-1.1-2.5-.1-.3-1.3-2.6-1.1-2.7.2,0,.3,0,.4,0,.1,0,.7,1.1.9,1.3.3.5,1.7,3.6,1.4,3.9Z"/>
        <path d="M9,17.6c-.2.2-.7-.6-.7-.8-.5-.9-.7-1.9-1.2-2.9,0-.6.3-.4.6,0,.3.3,1.5,3.6,1.3,3.7h0Z"/>
        <path d="M8.6,12c.2.1,1.5,3.6,1.6,4.1,0,.1.2.7,0,.7-.5,0-1.8-4.1-1.9-4.8h.2s0,0,0,0Z"/>
        <path d="M32.1,40c1.4-.4.7,2,0,2-.8,0-.5-1.9,0-2Z"/>
      </g>
    </g>
  </g>
</svg>