<?xml version="1.0" encoding="UTF-8"?>
<svg id="Layer_2" xmlns="http://www.w3.org/2000/svg" xmlns:xlink="http://www.w3.org/1999/xlink" version="1.1" viewBox="0 0 263.6 195.5">
  <!-- Generator: Adobe Illustrator 29.6.1, SVG Export Plug-In . SVG Version: 2.1.1 Build 9)  -->
  <defs>
    <style>
      .st0 {
        fill: none;
      }

      .st1 {
        fill: #fff;
      }

      .st2 {
        fill: #ff60df;
      }

      .st3 {
        clip-path: url(#clippath);
      }
    </style>
    <clipPath id="clippath">
      <rect class="st0" width="263.6" height="195.5"/>
    </clipPath>
  </defs>
  <g id="Layer_1-2">
    <g>
      <path class="st1" d="M117.8,97.5c.4-.1,28.5-19,28.5-19l44.4-29.3,51.6-35.9,19-11.7.5,1.5-23.3,42-29.7,52.8-23.5,39.2,4.2,1.6,4.1,5.6,1.1,8.5-.3,9.4,4.6-.3,6.2.4,4.9,1.9,3.6,4.5,1.2,5.6-1.9,4.9-5.7,2.1-16.3,2-11.8,1.5-6.4,2.1-2.8,2.8-3.3,3.2-4.1,1.1-10.3.5-14.2.3-7.6-.3-6.6-3.3-7.7-4-30.6,2.2-40.3,2.9h-4.5c0,.1-3.3-1.6-3.3-1.6l-2.5-4.1.3-5.4h-3.3l-17.5-.8-8-1.7-6-5,1.7-4.8,4-3.8,8.1-2.5,29.7-1.2,4.5-2.1,1.3-3.2-4.6-1.9-2.9-3.1.7-2.9,1.5-2.5,4-2.4,10.1-2,17.8.8-.3-6.5,7.8-11.4,4.6-3.3-1.9-7,4.8-6.8,13-9.9,8.2-2.2,5.2,2.7h0Z"/>
      <g class="st3">
        <g id="Group_8946">
          <path id="Path_6311" d="M22.9,175.5c-.5.5-2.9-2-3.3-2.5-.9-1.1-1.7-2.3-2.6-3.4,1.7.1,2.9,2.3,3.9,3.5.3.3,2.3,2,1.9,2.4"/>
          <path id="Path_6312" d="M18,174.9c-.9,0-1.7-1-2.3-1.6-.9-1-1.5-2.1-1.9-3.3l4.2,4.9h0Z"/>
          <path id="Path_6313" d="M8.6,172.4c.3.2,2.5,3,2.2,3.2-.9,0-2.7-2.4-2.8-3.2,0-.4.3-.2.5,0"/>
          <path id="Path_6314" d="M30.6,175.3c-1.6-.6-2.9-1.7-3.8-3.1l3.5,2.3.4.8Z"/>
          <path id="Path_6315" d="M13.4,174.8c-.3,0-.4-.2-.6-.4-.7-.8-1.3-1.7-1.8-2.6-.1-.2-.4-.4-.3-.7.4,0,.6.3.8.5.4.4,2.3,2.7,1.9,3.1"/>
          <path id="Path_6316" d="M75.1,137c.5-4.2,4.3-9.3,6.9-12.5.7-.9,3.1-3.2,3.3-4.2.2-.8-.2-2.9-.2-4,.2-5,2.6-6.7,5.6-10.1,6.7-7.8,16.1-16.1,27.2-11.4.6.3,1.6,1.1,2.2.9,3.5-2.4,6.7-5.3,10.2-7.7,2.2-1.5,4.5-2.8,6.7-4.3,9.2-6.3,17.9-13.4,27.4-19.2,5.4-3.4,10.9-6.8,16.3-10.2,9.7-6.1,19.1-13.3,28.9-19.6,7.7-5,15.1-10.6,22.8-15.6,9.5-6.3,19.4-11.9,28.7-18.5l1.8-.5c2.2,1.8-.2,4.1-1.2,5.9-6.1,11.3-12.1,22.6-18.6,33.7-7.2,12.5-14.5,25-21.7,37.5-6.7,11.7-12.8,23.6-19.2,35.4-1.4,2.6-2.6,5.6-4.1,8.2-1,1.7-2.3,3.2-3.3,4.9-2.1,3.5-3.7,7.4-6,10.8v.4c2.6.6,4.3,2.7,5.5,5,1.8,3.4,2,8.8,2.2,12.6.1,2.3,0,4.6-.6,6.9,1-.2,2-.2,3-.2,8.1.2,16.9,2.2,17.6,11.8.7,9.4-9.6,8.8-16.1,9.6-2.4.3-4.8.8-7.2,1.1-5.2.6-14.9.6-19,3.8-2,1.5-3.1,3.7-5.4,5-2.5,1.4-6.4,2.1-9.2,2.3-6.6.5-13.3.3-19.9.4-4.3,0-8.3.9-12.4-1-4.6-2.1-5.9-4.9-11.6-5.3-3.9-.2-7.1.7-10.8.9-2.1.1-4.3-.2-6.2-.2-16.1.2-32.2,2-48.3,3.1-5.2.4-11.8,2.2-14.9-3.4-1.5-2.6-.2-3.2-.6-5.2-.4-1.9-1.6-2-3.3-2.2-3-.3-6-.3-9-.6-6.5-.5-21.2.1-22.4-8.7-1.5-11.6,17.5-11.2,24.8-11.6,2.8-.2,5.6-.4,8.4-.6,4.7-.2,9.9.3,14.3-1.6.6-.3,1.9-1.6,1.5-2.4,0,0-1-.7-1.1-.8-2.1-1.3-5.3-1.6-6.4-4.2-1.6-3.7,3.3-7.2,6.2-8.4,7.3-2.9,15.2-3,23-2.8.4,0,4.3.4,4.3.2,0-1.2-.1-2.6,0-3.8M260.3,3.5l-15.4,10.2c1.4,1.9,2.4,3.9,3,6.2.5,1.6.1,3.6,2.1,3.8,3.6-6.6,7.5-13.1,10.2-20.1M247.7,22.6c-.5-3.1-1.6-6-3.4-8.6l-11.1,7.4c1.4,0,2.9-.5,4.3-.5,1.1,0,2.2,0,3.3.2,2.2.3,4.6,1.2,6.9,1.5M236.9,36.5l4.5,1.2.4-.2,5.9-10.1c0-.8.3-3.3-.3-3.8-.2-.2-4.6-1.2-5.2-1.3-2.3-.4-9.1-.8-11,.4-.1.1-.3.2-.4.4,3.5,3.5,5.1,8.6,6.1,13.4M230.3,23.6l-15.3,10.3c0,.6,2.6,0,3,0,4.6-.1,8.6,0,13.1,1,1.6.3,3.2,1,4.9,1.2-.6-4.9-3.2-8.5-5.7-12.6M232.7,53.5l4.4-7.8c0-2.8-.3-5.5-.8-8.3-6.7-1.5-13.6-2.9-20.6-2.4,1.8,2.3,2.7,4.9,4,7.4.5.9,1.2,1.7,1.6,2.7.6,1.4.9,2.9,1.5,4.2,3.5.8,6.6,2.5,9.8,4M221.3,49.2c.2-.2-1.4-3.2-1.6-3.7-1.2-2.9-2.3-6.1-4.1-8.6-.8-1-1.4-2-2.9-1.5-.9.3-3.6,2.5-4.7,3.2-2.7,1.7-5.4,3.4-8.1,5.1l2.1,3.1c3.4.2,6.8.5,10.2,1,3,.4,6,1,9.1,1.4M238.1,43.8l2.9-5c0-.2-3.3-1.1-3.8-1.2l.6,6.1h.4ZM200.7,46.8l-1.7-2.3-3.4,2.2v.4c.3,0,.4-.2.4-.2h4.7ZM209.1,63.2c-2-5.4-4.5-10.5-7.7-15.3-2.6-.5-5.3-.3-7.9.6-1.5.5-2.2,1.4-3.4,2.2-1.4,1-2.8,1.9-4.3,2.9,1.8,1.8,3.1,4,3.9,6.5,6.6.2,13,1.6,19.4,3.1M221.8,50.7c-2.5-.6-5.2-1.4-7.8-1.8-2.9-.5-6.5-.9-9.5-1.2-.6,0-1.3,0-1.9,0,1.5,2,2.2,4.5,3.3,6.7.8,1.6,1.9,3.1,2.7,4.8.6,1.4,1,3,1.7,4.4,2.7.7,5.5,1.4,8.2,2.2,1.1.3,4.4,1.8,5.1,1.8s1.9-2.6,2.1-3.3l-3.9-13.6h0ZM226.5,62.9l5.3-8.3c-.2-.8-7.1-3.1-8.2-3.4l2.9,11.7h0ZM185.1,54.1l-11.5,7.5c4.9-.8,9.9-1.3,14.8-1.5,0,0-3.3-6-3.3-6ZM188.8,60.9c-2.7-.3-5.3.4-7.9.7-2,.2-4,.3-6,.6-1.6.2-2.8.3-4.1,1.3l4,5.6,3.3,6.7c6,.4,12.1.6,17.9,1.9-2-5.8-4.7-11.2-7.2-16.8M190.2,60.9c-.3.4,1.4,3.5,1.7,4.1,1.9,4.3,3.6,8.7,5.5,13l17.3,5c.8,0,.8-.9.7-1.4-.3-1.7-1.6-4.5-2.2-6.2-1.2-3.7-2.2-7.4-3.8-11-5-1.2-10-2.4-15.1-3-1.4-.2-2.7-.1-4.1-.4M176.9,75.8c-1.8-4.2-3.9-8.4-7-11.8l-13.8,9.4,1.9,3,18.9-.6ZM216.4,80.8l6.6-11.4c-3.9-2.1-8-3.8-12.2-4.8l5.3,16,.4.3h0ZM155.3,74h-.5c0,0-4.8,3.4-4.8,3.4l6.4-.8c.2-.2.1-.2.1-.5-.2-.7-1-1.4-1.2-2.2M177.6,77.2h-9.7c-2.2.2-4.5.5-6.8.7-.6,0-1.3,0-1.8,0-.2,0-.3,0-.3.3l4.8,11c6.1,0,12.2.4,18.3,1.2-1.1-4.5-2.6-8.9-4.4-13.1M196.6,79.2c-5.9-1.5-12-1.9-18.1-2.1,1.8,4.3,3.3,8.8,4.6,13.3,6.3.7,12.3,2.8,18.4,4.5.4,0-1-4.5-1.1-4.9-1.1-3.6-2.4-7.2-3.8-10.8M162.3,89c-1.2-3.8-2.7-7.6-5.1-10.9-3.4.2-6.5,1.3-9.9,1.2l-7.1,5.3c1.7,1.1,2.1,3,3,4.7,6.4-.4,12.7-.5,19.1-.2M214.4,83.9c-5.4-1.7-10.7-3.6-16.3-4.4l5.2,15.9,4.2,1.7,6.9-13.2ZM140.9,89.6c.3-.3-1.6-3.7-1.9-4.2l-7.6,5.3s9.5-1.1,9.5-1.1ZM162.6,90.1c-1.4,0-2.9,0-4.3,0-3.7-.2-7.4-.6-11.1-.2-1.1.1-2.3.4-3.4.6,1,2.6,2.1,5.2,3,7.9.7,2.3,1.6,5.3,2.1,7.6,0,.4.1.7,0,1.1,1.9,0,3.7-.5,5.6-.7,2-.2,4.4-.4,6.4-.6,2.3-.1,4.6.2,6.9-.2l-5.1-15.5h0ZM186.6,108.4l-4.2-17.1c-3.4-1-7.2-.7-10.7-1.2h-7.6l5,15.5c6,0,11.9.7,17.5,2.8M147.6,107.5c-.5-2.1-.7-4.5-1.3-6.5-.6-1.8-1.3-3.6-2.1-5.3-.3-.6-2.3-4.8-2.7-4.8-.9.3-1.8,0-2.6,0-2.1.2-10.1,2.3-12.1,3.1-.7.3-1,.7-1.5,1-1.8,1-3.6,1.9-5.4,2.9.1.4.6.5.9.6,1.3.4,2.7.7,4.1.9,1.1,0,2.9-.8,4.1-1.1,4.4-.9,7.5-.9,11.2,1.8,2.7,2,4.2,4.7,5.8,7.6l1.4-.3h0ZM199.9,111.3l4.2-7-2.1-8.2c-.4-.5-3.7-1-4.6-1.3-.9-.3-1.7-.7-2.5-.9-3.7-1.1-7.5-1.9-11.4-2.4,1.8,5.7,3.2,11.5,4.2,17.3,4.1.5,8,2.4,12.2,2.6M205.1,102.4l1.8-4.3c0-.3-2.8-1.4-3.3-1.6.5,1.8.8,3.7,1.1,5.6,0,.3-.1.3.4.3M154.5,182.6c-1,0-2,0-3,0,.5.5.9,1.1,1.4,1.6.3.4,1,.4.8,1.1-.4.4-2.5-1.4-2.9-1.7-2.4-2.2-3.6-5.2-6.1-7.8-3.1-3.1-5.7-6.2-10.2-6.6-5.7-.4-11.4,0-16.9,1.5-3.5.9-6.2,2.8-10.1,2.5-3-.2-8.9-3.5-11.5-5.1-1.8-1.2-2.9-2.7-5.2-3.2-.3,0-3.2-.2-2.8-.8,3.9-1.1,6.5,2,9.4,3.8,4.4,2.6,8.7,5.3,13.9,4,7.6-2,11.2-5.5,20-4.8,8.9.7,14.1,6.7,18.5,13.7,1.6.6,3.2.8,4.9.5,9.4-1.4,14.1-7.5,21.7-12,5.2-3.1,8.5-3,14.1-4.3,2.4-.6,2.4-1.5,2.7-3.9.9-6.6.8-13.8-3.1-19.4-1.2-1.8-1.9-2.4-4.1-3-2.6-.8-4-.8-6.5-2.2-3.7-2.1-4.5-3.8-6-7.7-1.7-4.4-1.6-8.9-5-12.8-5.3-6-9.8-8-17.8-7.6-.5,0-3.6.3-3.8.4-.7.4,1,1.7,1.1,2.2.1.4-.3.3-.6.2-1.5-.4-5.1-7.6-6.7-9.2-6.5-6.4-12.4-1.7-19.7-.7-2.1.3-4.1.5-6.2.4-.6,0-1-.3-1.6,0l-.3-.4c.9-.9,2.3-.2,3.4-.3.5,0,1.6-.1,2.2-.2.3,0,.6-.1.8-.2-3.1-3.2-6.2-4.9-10.7-3.3-5.1,1.8-18.5,11-19.5,16.5-.5,2.7,1.7,4,1.2,6.5-.5,2.4-4.7,5-6.5,6.7-4.7,4.2-6.9,10.6-5.8,16.8.4,2.5,3,9,4.4,11.2.6,1,1.7,1.6,1.8,2.9-1.9-.9-3.3-2.9-4.2-4.8-1.6-3-2.5-6.4-3.2-9.7l-.3-.4c-8.8-.5-18.1-1.5-26.7,1.2-4.4,1.4-8.1,4.1-3.7,8.5,1.7,1.8,6.8,2.4,4.5,6-2.9,4.6-15.2,3.4-20,3.6-3.4.1-6.8.7-10.2,1.1-5.6.6-10.2.6-14.6,4.6-3.1,2.9-4.6,7.7.3,9.5,1.7.6,5.8,1.2,7.8,1.6,2.6.4,6.3,1,8.9,1,3.6,0,7.7-.9,11.3-.1,3.5.8,2.5,3,2.7,5.7.9,9.5,14,5.5,20.2,4.9,5.6-.6,11.4-1,17-1.5,11-.9,22.2.2,33.2-1.3,3.3-.4,6.9-1.8,10.2-1.2,4,.8,8.1,4.6,12.1,6.2,4.2,1.8,5.6,1.4,10,1.3,6.4-.1,12.8.2,19.2-.1,2.7-.2,5.7-.8,7.9-2.4.9-.6,1.6-1.7,2.4-2.4,7.4-6.3,25.9-6.1,35.7-7.6,4.8-.8,8.4-1.8,8.7-7.4.2-2.8-.4-5.2-2.2-7.5-4.1-5.1-10.2-3.9-16-3.4-.3.1-.4.9-.7,1.4-1.2,1.8-6.5,2.4-8.7,3-7,2-10.2,4.3-16,8.4-3.4,2.4-11.1,6.5-15.2,6.9M170.7,117.3c-.4-3.4-1.2-6.8-2.4-10-3.9-.3-7.8-.2-11.7,0l3.9,1.1c4,2.2,7.4,5.1,10.2,8.7M189.5,123.9l-2.6-13.7c-5.6-1.7-11.4-2.6-17.3-2.7l4,15c2.6-.3,4.9.4,7.4.7,2.8.3,5.7.7,8.5.8M188.2,110.4c1.3,4.4,2.1,9,2.2,13.6l.8.3,7.8-11.8-10.8-2.1h0ZM189.5,125.1c-1.8-.3-14.9-2-15.5-1.5.7,2.5,1.2,5.2,2.1,7.6.6,1.6.9,2.6,2.6,3.2.7.3,4.6,1.2,5.2,1.2.6,0,1.1-.8,1.4-1.3.8-1.1,4-6,4.1-7,0-.7,0-1.6,0-2.3"/>
          <path id="Path_6317" class="st2" d="M109.4,143.3c-.7.5-1.6.8-2.3,1.2-.7.5-2.1,2.1-2.7,2-.7-.2-1.9-2.7-2.2-3.5-.8-2.3-.6-5.1-.7-7.5.6-.9,5.1,1.1,5.8,1.9.6.6,2.6,5.2,2.2,5.9"/>
          <path id="Path_6318" class="st2" d="M123.3,114.7c.7.7,2,5.8,1.3,6.3-1.2,0-9.1-1.2-9.4-1.7-.1-.3-.1-.5,0-.8,0-.8,2-5.8,2.6-6.1.9-.4,4.9,1.6,5.6,2.3"/>
          <path id="Path_6319" class="st2" d="M151.3,123.2c2.3,1.3,4.2,3,5.8,5,1.2,1.6,2.2,2.2.5,3.9-1,1-4.4,2.8-5.7,1.8-1.6-1.3-1.4-8.8-.6-10.8"/>
          <path id="Path_6320" class="st2" d="M157.6,160.1c-.9,0-3.8-.9-4.5-1.4-1.3-1.1,0-2.3.6-3.4.3-.5.7-1.9,1.1-2,1.7,1.1,3.5.5,5.3.9-.2,1.9.5,3.8.6,5.6-.1,0-.4.2-.4.2-.9,0-1.9,0-2.7,0"/>
          <path id="Path_6321" class="st2" d="M132.5,145.1c-.4-.4.3-4.3.5-5.1.2-.8,1.3-4.2,2.3-4,.9.1,3.1,3.9,3.4,4.7.5,2.2-4.4,4.2-6.1,4.4"/>
          <path id="Path_6322" class="st2" d="M186.8,157c-.2-.2-.9-2.9-1.2-3.6-.4-.8-1-1.5-1.4-2.3,0-.4,2.9-2.7,3.6-2.9.6,0,1.4,2.2,1.7,2.8.5.9,1.2,1.6,1.4,2.5,0,.3-.2.4-.4.6-.2.3-3,2.9-3.2,3-.2,0-.4,0-.5-.1"/>
          <path id="Path_6323" d="M200.7,165.2c.4,0,.6.2.9.4,2.3,2,4.5,4.2,6.5,6.5.7.9.4,1.5-.6.9-.6-.3-3.1-3.1-3.7-3.8-.7-.8-1.7-1.9-2.4-2.8-.2-.2-1-1.1-.7-1.4"/>
          <path id="Path_6324" d="M204.7,174.2c-.5,0-.8-.2-1.1-.4-2.2-1.9-4.3-3.9-6.2-6-.2-.2-.4-.3-.4-.6.3,0,.6,0,.8.2.9.5,2.9,2.4,3.8,3.2.4.4,3.6,3.3,3.1,3.8"/>
          <path id="Path_6325" d="M199.4,174c-.3,0-.5-.1-.8-.2-.4-.2-4.3-3.7-4-4,.6.2,1.2.6,1.6,1,.4.3,3.5,2.8,3.1,3.2"/>
          <path id="Path_6326" d="M208.8,167.7c.3.2,1.4,1.6,1.2,1.9-.2,0-.4.1-.6,0-.6-.2-1.8-2.4-2.6-2.7.6-.3,1.5.3,1.9.7"/>
          <path id="Path_6327" d="M194.1,175.3c-.2.2-.9-.6-1-.7-.5-.5-1.3-1.4-1.7-1.9-.2-.2-.4-.3-.4-.6.4-.4,3.2,2.5,3.1,3.3"/>
        </g>
      </g>
    </g>
  </g>
</svg>