<?xml version="1.0" encoding="UTF-8"?>
<svg id="Layer_2" data-name="Layer 2" xmlns="http://www.w3.org/2000/svg" viewBox="0 0 269.98 347.44">
  <defs>
    <style>
      .cls-1 {
        fill: #ff5c8a;
      }

      .cls-2 {
        fill: #fff;
      }
    </style>
  </defs>
  <g id="Layer_1-2" data-name="Layer 1">
    <g>
      <polygon class="cls-2" points="9.38 311.98 17.53 317.36 14.01 323.66 8.08 327.36 2.89 326.99 .85 321.81 4.56 314.39 9.38 311.98"/>
      <polygon class="cls-2" points="15.3 341.63 18.27 339.04 20.49 338.3 22.9 342.19 21.6 345.52 17.71 346.45 14.75 344.23 15.3 341.63"/>
      <polygon class="cls-2" points="31.61 323.29 31.61 326.44 36.24 327.18 41.43 324.96 42.73 322.92 39.58 320.32 34.35 318.91 31.61 323.29"/>
      <polygon class="cls-2" points="177.62 11.86 185.71 13.53 187.96 16.74 184.04 19.71 177.74 18.76 178.57 23.39 177.62 27.08 172.86 21.14 170.84 23.63 166.92 28.03 164.9 25.54 164.3 19.11 157.64 20.3 151.46 19.95 153.24 15.67 162.16 12.46 159.78 9.13 157.76 3.42 161.81 2.59 169.53 6.39 172.86 9.01 186.66 2.35 187.49 5.2 177.62 11.86"/>
      <polygon class="cls-2" points="75 48.67 68.94 56.36 69.76 58.92 70.45 64.28 69.06 66.73 63.82 64.75 62.3 67.89 58.11 72.2 54.03 72.2 53.57 66.61 56.36 58.92 51.01 56.13 44.72 52.87 46.93 48.91 58.23 54.03 59.51 51.93 59.16 44.37 61.6 39.01 66.73 46.34 76.39 46 75 48.67"/>
      <polygon class="cls-2" points="32.68 308.83 77.48 280.7 139.2 251.37 160.01 237.7 191.78 226.98 223.02 215.17 240.59 209.48 254.45 207.68 267.8 198.19 268.31 190.23 266.77 173.03 268.05 162 268.31 152.5 263.18 140.7 259.33 125.04 261.89 114 263.69 105.02 260.61 92.96 258.91 82.18 258.44 69.12 255.14 59.36 249.94 51.8 238.92 45.5 232.31 43.77 223.49 42.82 212.47 40.94 207.75 40.31 198.3 41.41 194.05 41.72 189.95 35.27 179.72 34.32 149.33 41.41 144.61 25.03 132.8 33.38 118.48 45.66 106.98 46.29 96.75 49.44 80.85 69.59 67.46 75.26 63.53 75.73 58.49 82.34 54.71 95.72 45.11 108.16 35.5 122.96 29.84 132.88 27.16 140.44 31.88 146.26 34.09 148 36.92 163.11 36.45 176.02 35.03 212.07 35.98 218.37 31.57 224.04 30.78 236.16 31.1 243.72 30.31 276.94 32.04 296.78 31.41 304.34 32.68 308.83"/>
      <g>
        <path d="M136.34,28.2v4.31l-1.57,1.7h1.57s0,2.35,0,2.35c-3.01-.17-6.21,1.27-8.6,3.03-.25.19-1.9,1.41-1.59,1.67,1.75.05,3.33-.33,5.1-.27s3.83.74,5.71.52l.68,1.84c-3.99.21-7.96-1.22-11.75.65-1.15.57-3.95,4.2-4.16,5.5-.35,2.19.32,8.24,3.51,7.95.63-4.89,5.62-7.81,10.05-8.76.97-.21,4.56-.82,5.23-.51.4.19.89,1.01,1.31,1.3-3.92,1.8-12.05,2.03-14.14,6.48-1.07,2.27-.02,3.44,1.4,5.22,1.3,1.63,2.12,2.12,4.28,2.51,3.85.68,7.63-.92,11.31-1.83.05-.62-.01-1.2.14-1.82,1.17-4.7,10.83-6.2,14.77-7.42,3.44-1.07,6.69-2.59,10.31-3.27.35.13-.31.54-.42.63-5.42,4.48-11.86,4.42-18.06,7.01-1.6.67-4.84,1.92-4.92,3.99-.06,1.57,3.05,3.31,4.45,3.66,2.83.7,6.32.56,8.99-.69,1.16-.54,4.73-3.25,5.39-4.28s.46-2.29,1.08-3.36c3.13-5.38,15.74-8.22,16.63-13.16.26-1.45-.86-1.69,1.22-2.93.83,1.62.49,4.05-.34,5.66-2.76,5.33-10.09,5.37-14.14,8.84-1.18,1.01-.97,2.93-1.83,4.17.02.4,4.93,1.12,5.61,1.17,5.47.37,10.77-1.35,14.88-4.97,6.61-5.82,2.31-11.42-1.1-17.66l1.24-5.84c.33-.24,1.81,1.38,2.09,1.69,2.05,2.29,3.12,4.73,4.55,7.38,1.74-.54,3.61-.68,5.38-1.09,5.45-1.28,8.75-2.34,14.55-.73,2.69.75,5.27,2.6,8.06,2.91,3.76.42,8.61-.47,12.18.09,3.11.48,13.7,5.57,16.01,7.76,9.68,9.23,8.64,23.23,8.71,35.4.03,4.37,3.31,9.41,3.92,13.6.76,5.26.2,11.93-.84,17.14-.58,2.9-2.14,6.56-2.02,9.49.33,8.37,4.41,15.32,7.26,22.78,1.64,4.28,1.67,10,1.37,14.56-.2,2.98-1.32,6.03-1.56,8.89-.41,4.94-.12,10.45.55,15.37.71,5.28,3.04,10.09-1.74,14.26-3.44,3-11.86,7.67-16.26,8.81-6.7,1.74-11.85.44-18.43,3.51-8.18,3.82-16.53,5.94-25.11,8.84-2.29.77-4.5,1.82-6.78,2.62-12.6,4.43-27.55,9.19-39.41,15.18-3.19,1.61-6.05,4.02-9.06,5.82-7.28,4.36-14.83,8.38-22.52,11.95-15.01,6.96-31.04,14.2-45.59,22.06-4.63,2.5-8.9,5.7-13.61,8.07-2.15,1.08-4.44,1.63-6.45,2.69-4.3,2.26-7.27,5.93-11.34,8.51-5.06,3.22-10.45,5.99-15.74,8.81-1.49.79-1.95,2.37-4.07.85-3.38-2.41-2.69-11.49-2.89-15.39-.72-14.02-.96-28.52-.49-42.58.1-3.15-.01-6.47.24-9.66.07-.85.73-2.58.67-3.14-.03-.3-1.63-2.79-1.86-4.03-.56-3.06,1.78-9.65,3.07-12.62.43-.99,2.49-3.84,2.56-4.25.18-1.13-.93-4.21-1.05-5.74-.34-4.32.45-8.76.78-13.06.73-9.64,1.67-19.3,1.32-29-.15-4.11-.8-6-1.71-9.78-.85-3.54-1.55-7.14-1.42-10.81-5.34-1.96-7.52-7.46-6.01-12.81,1.13-4.02,8.35-15.02,10.95-19.09,3.69-5.78,8.79-14.2,13.32-19.07,1.1-1.18,2.3-2.23,3.53-3.26.18-5.69,1.29-11.96,6.05-15.64l2.7,1.41c-2.67,1.74-4.17,4.7-4.96,7.71,1.46-.87,2.74-2.15,4.26-2.92,1.68-.85,9.77-3.03,11.57-3.06,1.19-.01,2.55.57,3.76.62-5.28,2.86-12.59,1.2-16.71,6.02-2.63,3.08-3.32,6.76-3.63,10.73-.15,1.96-.32,4.93,1.14,6.36.85-3.99,1.76-9.62,5.27-12.23,1.28-.95,5.24-2.64,6.89-3.3,4.18-1.69,9.26-2.81,13.23-4.8,2.24-1.12,4.64-3.7,6.73-4.5,1.26-.48,3-.55,4.32-1.03.11.49-.28.62-.52.91-4.89,5.93-13,8.61-20.11,10.71-3.01.89-4.97.58-7.48,3.09-2.86,2.86-4.78,9.78-3.43,13.56.16.44,1.35,2.78,1.57,3,.11.1,2.51,1.09,2.7,1.11,1.28.13,5.72-2.04,6.26-3.14.29-.59-2.36-3.99-1.91-6.33,1.6-8.31,21.37-15.73,27.63-22.26,1.2-1.25,2.07-3.68,4.17-3.4-1.59,2.75-3.78,5.59-6.26,7.58-6.66,5.32-18.99,9.13-22.94,16.76-2.15,4.16,1.12,7.14,4.78,8.7,2.22.95,3.17,1.38,5.61.65,4.15-1.25,6.06-4.86,9.16-7.55.66-.75-.15-1.39-.26-2.12-.71-4.66,4.47-7.79,7.3-10.69,4.12-4.22,11.02-10.6,11.94-16.52.27-1.76-.46-3.27-1.5-4.64-.49-.65-2.72-2.36-2.82-2.54-.22-.39.03-1.28-.06-1.77.48-.06.82.27,1.17.53,14.31,10.35-8.1,24.09-13.45,31.99-1.63,2.41-.37,4.09,1.31,6,4.27.46,9.6-.45,13.57-2.09,2.88-1.19,7.42-5.96,7.59-9.15.07-1.35-1.64-3.1-1.81-5.25-.63-8.19,9.14-12.1,3.73-19.93-2.75-3.97-7.14-5.93-11.82-6.59l-.04-1.53c2.62-.03,5.31.96,7.58,2.22,2.97,1.65,7.33,3.86,10,5.67,11.22,7.56,8.55,24.02-5.53,25.59-2.79,8.37-8.24,12.15-16.89,13.02-2.67.27-5.74.77-8.1-.71-3.08,3.29-4.15,6.02-8.68,7.7-5.69,2.11-8.52.97-12.99-2.81-1.33,3.33-7.01,5.43-10.14,3.88-1.56-.78-2.57-2.87-3.35-4.36-5.28,1.64-5.33-5.85-5.19-9.32.02-.53.58-1.77.01-1.95-4.05,5.99-9.06,11.36-13.01,17.42-3.02,4.64-8.71,13.66-10.72,18.53-1.07,2.59-1.53,5.29-.09,7.86,2.53,4.5,5.87-1.84,8.03-3.58,1.84-1.48,4.06-2.15,5.96-3.45,4.42-3.03,8.51-9.02,14.41-9.12,3.56-.06,7.42,3.04,10.85.42,2.42-1.85,3.39-4.35,6.71-5.57s5.49,1.53,8.94-.2c2.93-1.47,4.33-4.57,7.33-5.72s6.39-1.06,9.53-2.22c2.83-1.05,5-3.35,8.09-3.66,1.99-.2,4.17.17,6.2-.07,3.26-.38,13.55-4.81,15.99-6.99,1.42-1.26,2.03-3.22,3.52-4.57,4.12-3.75,7.15-1.63,11.75-3.14,4.98-1.64,8.13-6.2,13.92-5.28,3.09.49,5.91,5.18,9.46,2.55,3.33-2.47,1.52-8.78,6.33-9.6,1.36-.23,4.02.25,5.03-.2,1.73-.78,2.85-5.01,4.07-6.38,1.64-1.84,5.58-2.08,7.89-2.81,4.4-1.4,8.6-3.33,12.98-4.78,2.68.22,3.19,3.01,3.55,5.2.13.11,1.12.07,1.37-.02.2-.07,2.19-2.67,2.78-3.22.76-.71,3.66-3.05,4.51-3.32,3.37-1.1,5.42,1.47,8.79-.61s4.75-5.67,9.87-3.55c10.2,4.23,5.69,23.39,5.81,31.54.09,6.02,1.18,12.71,1.58,18.8.23,3.58.94,9.1.46,12.47-.64,4.41-7.58,7.81-11.42,9.08l-.71-3.02c.08-.53,7.79-3.1,8.82-5.71,1.31-3.32-.12-9.47-.54-13.08-.79-6.73-2.56-15.04-2.09-21.67.21-3,.89-7.08,1.37-10.12.2-1.26.81-2.47.94-3.76.42-4.28-1.82-7-3.93-10.37-.79-1.27-.57-2.24-2.66-2.18-3.87.11-5.67,4.6-9.24,5.34-2.37.49-3.12-1.61-5.74-.52-3.67,1.53-5.5,8.26-10.26,6.45-2.5-.95-2.34-2.53-2.88-4.69-.09-.36.21-.43-.39-.4-1.01.04-3.87,2.1-5.17,2.67-3.45,1.52-12.06,2.5-14.13,4.93-1.16,1.36-1.59,4.15-3.35,5.53-2.26,1.77-5.4.23-7,1.62-.76.66-1.75,4.1-2.46,5.38-1.26,2.29-4.02,5.09-6.8,4.97-3.29-.13-6.49-4.89-10.12-4.14-1.72.36-5.35,3.22-7.43,4.06-3.41,1.37-6.9,1.4-10.32,2.21-2.05.49-3.98,4.08-5.44,5.53-4.42,4.41-13.49,8.1-19.68,8.53-1.96.13-4.05-.39-5.89.12-2.12.58-4.16,2.42-6.39,3.27-2.83,1.09-5.23,1.05-7.92,1.74-3.82.97-5.79,5.68-10.09,6.89-2.79.78-6.7-.54-8.82.32-.89.36-2.72,2.18-3.6,2.93-1.29,1.1-1.91,2.33-3.85,2.94-4.37,1.37-5.86-.98-9.33-.99-5.06-.02-12.37,7.79-16.61,10.83-2.1,1.51-5.37,2.9-6.72,5.03-3.08,4.84,1.42,14.79,1.8,20.32.3,4.53-.79,8.02-1.05,12.29-.41,6.75-.58,13.66-.77,20.37-.12,4.24-.96,12.95-.22,16.65.4,1.99.89,3.73,3.22,3.84s7.06-4.21,9.62-4.7l.69,2.47c-3.38,1.46-6.31,3.82-9.93,4.74-1.23.31-4.44.43-5.25,1.28-.88.91-2.14,5.99-2.47,7.45-.26,1.14-.83,3.08-.85,4.13,0,.3-.03.75.34.83.41.09,2.55-2.39,3.18-2.83,4.92-3.47,9.29.41,14.37-1.04,5.2-3.95,14.57-14.38,21.36-14.41,1.51,0,3.41,1.05,4.7,1.04,2.11-.02,4-2.18,5.7-3.18,3.65-2.14,7.91-3.64,11.48-5.75,3.27-1.93,5.67-4.47,9.27-6.14,5.25-2.45,12.27-5.12,17.75-7.07,3.73-1.32,9.22-2.28,12.58-3.88,3.04-1.44,6.03-5.17,9.17-6.5,3.4-1.45,5.75-.77,9.01-1.17,2.34-.29,6.46-4.95,9.43-6.24,3.28-1.42,6.06-.97,9.41-2.87,4.89-2.77,7.94-7.81,14.06-8.4,2.35-.23,4.74.54,7.03.24,4.04-.54,6.44-4.27,10.08-5.32,2.07-.6,4.22.1,6.32-.73,3.01-1.19,5.6-4.54,8.56-5.8,4.18-1.79,8.29-1,12.61-3.58,4.54-2.71,4.5-3.99,10.5-4.65.87-.1,2.03.17,2.82-.06.38-.11,2.01-1.91,2.82-2.41,4.14-2.58,7.62-1.39,8.52,3.45,1.03,5.49.37,11.82.08,17.44-.07,1.4-.59,2.69-.55,4.18.13,3.99,2.18,7.87,1.84,12-.27,3.26-2.61,6.64-3.06,9.74-.58,3.94.98,5.95-1.06,10.43-1.64,3.6-4.18,4.79-7.1,7.13,3.83.16,7.09-2.15,10.57-3.4,2.3-.82,6-1.38,7.9-2.29,1.39-.67,4.65-4.83,5.16-6.33.79-2.33-.34-4.7-.62-6.94-.75-5.99-1.54-13.03-1.07-19.04.28-3.57,1.74-6.83,1.82-10.72.15-7.14-1.39-8.43-3.96-14.32-1.84-4.23-5.12-13.38-5.45-17.8-.43-5.81,2.06-9.88,3.28-15.29,2.68-11.87-2.36-16-3.76-26.28-.7-5.13.51-10.12-.36-15.31s-2.64-11.29-6.6-14.82c-3.8-3.39-16.48-9.96-21.44-10.42-2.71-.25-5.86,0-8.58-.3-2.88-.32-5.5-1.79-8.4-2.05-5.25-.48-9.44,1.37-14.33,1.53-1.63.05-3.19-.44-4.83-.26,1.44,4.02,2.07,7.27-.32,11.05-4.86,7.68-17.14,10.17-25.11,6.17-2.42,3.47-5.65,7.34-10.23,7.6-2.12.12-6.35-.48-8.28-1.37-1.54-.71-2.85-2.46-3.72-3.85-2.63,1.33-7.23,3.15-10.19,3.13-1.78-.01-5.79-2.12-7.16-3.28-.64-.54-1.32-1.91-1.59-2.07-.74-.44-2.38-.02-3.91-1.32-3.25-2.74-3.46-7.94-2.88-11.87-4.33-.05-8.7-.11-12.9,1.03l-1.22-3.74c.11-.69,11.53-1.37,12.81-1.34,1.71-2.24,5.5-3.98,7.2-5.86.69-.77,1.23-2.12,1.95-3.01,2.18-2.69,6.28-5.2,9.4-6.67ZM122.24,66.85c1.8,4.01,3.04,7.09.57,11.15-1.59,2.61-3.61,3.45-3.97,7-.44,4.36.67,5.16,4.77,3.73,6.74-2.36,8.34-9.13,5.8-15.35-1.36-3.32-3.87-5.24-7.18-6.53ZM33.19,305.05c.65.55,4.35-2.36,5.13-2.81,6.74-3.9,12.92-8.28,19.49-12.11,15.55-9.07,32.9-17.68,49.11-25.59,12.97-6.33,26.11-12.47,38.99-18.99,4.91-2.49,9.38-5.49,14.1-7.84,7.32-3.64,16.85-7.12,24.58-10.15,14.31-5.6,29.3-9.97,43.48-15.54,2.14-.84,7.13-2.76,8.8-4,.94-.7,1.76-2.08,2.77-2.98,2.08-1.85,6.05-3.71,7.68-5.38,2.32-2.37.82-8.03,1.07-11.21.22-2.84,1.43-4.88,1.97-7.43.68-3.19-.16-5.17-.4-8.24-.59-7.48,2.09-17.82.41-24.7-.09-.35-1.19-3-1.31-3.13-.6-.62-2.49-.16-3.19.22-.92.49-1.08,1.27-1.78,1.88-1.83,1.61-3.61.84-5.74,1.05-5.35.52-6.07,3.57-10.4,5.53-3.14,1.42-4.92,1.31-8.08,1.85-5.46.94-8.83,6.92-14.2,7.48-1.38.14-2.98-.18-4.29.15-2.15.55-4.76,3.31-6.97,4.26-4.29,1.85-6.15.36-10.14.57-5.21.27-9.05,5.4-13.36,8.05-3.59,2.21-7.61,2.82-11.03,4.91-1.32.8-2.56,2.26-4.03,3.03-4.85,2.53-13.17,2.52-16.63,5.31-2.37,1.91-2.74,3.48-6.01,4.69-8.57,3.19-19.51,4.52-27.77,8.79-3.6,1.86-7.38,5.16-11.05,7.23-3.35,1.89-7.16,3.05-10.44,4.97-2.09,1.22-5.74,4.72-8.03,4.47-1.2-.13-2.69-1.05-3.94-1.05-4.25,0-12.86,7.41-16.19,10.21-1.68,1.4-4.83,5.22-6.98,5.16-2.7-.08-5.34-2.26-8.63-1.7-1.04.18-4.35,2.63-5.16,3.45-.96.97-1.37,2.07-1.56,3.41-2.36,17.19-.86,34.71-.25,51.96.17,4.76-.61,9.53,0,14.24Z"/>
        <path class="cls-1" d="M62.32,73.27c.71-.66,1.54-1.2,2.12-2,2.56.27,3.84,1.97,6.62,1.46,1.95-.36,4.22-3.28,4.81-5.11.91-2.82.45-6.34-.81-9,1.43-1.97,3.17-3.52,4.46-5.64s2.86-4.98,2.04-7.48c-.61-1.86-4.93-4.76-6.76-5.52-2.01-.84-4.56-.92-6.09-2.52,2.62-2.39,8.67-5.77,12.17-5.85,11.7-.28,18.51,5.83,21.7,16.63,2.4,8.13,6.86,20.75-2.27,26.06-7.16,4.16-22.79,6.45-30.93,5.31-3.38-.47-6.78-1.96-9.04-4.54.56-.71,1.33-1.21,1.98-1.81Z"/>
        <path class="cls-1" d="M153.02,6.55l1.57,3.7c-2.78,2.35-5.96,5.69-6.47,9.48-.57,4.18,1.45,3.55,4.76,3.67,1,.04,2.49.12,3.43.11s3.9-1.01,4.29.16c.16.48-.02,1.27.15,1.94.56,2.22,2.71,7.52,4.91,8.41,2.43.98,6.75-3.19,8.2-4.98,1.46.62,4.56,2.35,6.09,1.65s2.63-5.75,2.62-7.44c1.88-.27,2.05,2.15,2.32,3.56.98,5.09.78,8.14-2.59,12.24-6.2,7.56-21.13,9.89-30.41,10.07-3.6.07-8.18-.57-10.44-3.69-3.85-5.34-3.05-21.75-1.07-27.92,1.9-5.92,5.77-11.26,12.63-10.93Z"/>
        <path class="cls-1" d="M227.23,140.51c-.81-5.2-6.07-7.13-10.56-4.72-2.13-2.72-4.85-2.75-7.93-1.88-6.6,1.88-16.07,8.86-18.61,15.34-.73,1.87-1.62,4.46-1.04,6.4-2.06.18-6.85,3.54-8.62,2.74-1.47-.67-2.3-6.39-1.91-7.91.43-1.7,3.1-4.48,4.39-5.8,4.7-4.81,9.8-9.7,14.63-14.36,11.48-11.07,27.34-13.91,34.09,3.52.22.57.76,2.12.74,2.63-.06,1.8-3.92,3.13-5.19,4.04Z"/>
        <path class="cls-1" d="M94.03,197.45c-.48-5.08-5.21-7.88-9.99-5.94-.55.22-2.3,1.45-2.69,1.42-.19-.02-.99-.89-1.45-1.08-2.48-1.04-7.17.58-9.2,2.24-1.81,1.48-2.78,3.61-2.79,5.96-5.18-.88-9.36,4.17-7,8.96.22.45,2.01,2.66,1.91,2.8-2.03.85-6.93,3.67-9.01,2.74-1.01-.46-1.25-2.39-1.32-3.38-.62-8.38,4.4-19.66,11.68-24.12,5.11-3.13,14.89-4.82,20.81-4.2,3.53.37,10.4,3.94,12.55,6.78,3.57,4.73,1.04,6.15-3.5,7.81Z"/>
        <path class="cls-1" d="M158.02,168.98c.38-2.72-3.31-6.69-5.9-6.76-1.73-.05-3.5,1.18-4.94,2-4.89-5.01-13.11-.56-13.73,5.79-2.75-.59-4.41-.06-5.94,2.28-2.13,3.28-1.77,5.8.74,8.7-1.62.47-2.9,1.58-4.44,2.22-3.28,1.35-4.41,1.31-5.4-2.42-1.14-4.28,2.64-12.99,5.3-16.49,9.31-12.28,32.4-14.28,42.82-2.63,2.3,2.58,2.14,3.55-1.18,4.83-2.37.91-4.99,1.33-7.31,2.49Z"/>
        <path d="M181,11.22c3.19.42,6.67.9,8.75,3.65,1.15,1.52.63,1.91-.68,2.99-2.66,2.18-6.18,3.48-9.64,3.29,0,1.31.26,6.55-1.23,7.01-2.61.8-3.81-3.38-4.96-4.85-.17-.21,0-.48-.6-.33.49,2.73-5.48,7.92-7.65,7.27-.83-.25-1.55-3.94-1.69-4.86-.25-1.7-.28-3.33-.07-5.03-1.93.93-12.08,1.89-12.76-.18-.39-1.17,2.16-4.85,3.09-5.71,1.69-1.55,4.53-2.46,6.8-2.74-.41-.49-.96-.77-1.44-1.3-1.27-1.42-4.43-6.61-3.4-8.36.49-.84,4.96-.84,6.01-.78,4.99.31,8.82,2.17,12.01,5.96,3.25-1.94,6.39-4.15,9.79-5.84,1.23-.61,2.61-1.62,4-1.38.68.21,2.38,4.37,1.88,5.18-.11.19-3.13,1.78-3.77,2.24-.41.29-4.64,3.53-4.46,3.76ZM153.45,19.06h4.96c1.4,0,4.49-1.57,6.08-1.78,2.17-.3,1.36,2.39,1.35,3.47-.02,1.93-.34,4.12,1.18,5.61,1.22-.67,2.19-1.94,2.86-3.13.55-.97,1.54-4.73,2.83-4.4.96.25,2.62,4.37,3.32,5.32.15.21,1.05,1.19,1.3.92,1.09-2.99-1.29-5.05-1.27-7.79,1.09-.69,1.72.33,2.82.63,1.89.51,3.61.33,5.42-.36,2.88-1.09,2.68-1.62,0-2.71-2.91-1.18-6.05-1.22-9.15-.76-.49-.15-.51-.68-.39-1.1.25-.88,9.75-7.59,11.18-8.68.39-.27.41-.48-.12-.38-.85.15-6.47,3.22-7.62,3.88-1.96,1.13-3.76,2.54-5.7,3.69-1.24.04-2.09-2.32-2.88-3.12-1.99-2-6.94-4.01-9.79-3.92.37,2.38,1.92,4.77,3.65,6.4.65.61,1.75.67,1.82,1.8-3.96,2.32-9.28,1.57-12.13,5.9l.27.52Z"/>
        <path d="M64.52,66.85c-.59,3.87-6.14,7.4-9.81,7.28-.97-.03-1.41-.87-1.67-1.67-.87-2.73-1.07-9.33.14-11.85.18-.38,1.49-2.01,1.41-2.11-2.61-.97-8.01-2.16-10.06-3.92-1.86-1.59,1.52-7.05,2.93-7.27s7.87,4.96,10.26,4.65c-.99-3.88-.85-8.63,1.36-12.09.83-1.3,1.97-3.04,3.75-2.02,1.6.92,3.78,4.98,5.15,5.57,1.77.18,3.69-.25,5.54-.07,2.47.25,5.88,1.89,4.31,4.83-.58,1.08-2.87,3.74-3.78,4.83-.48.57-3.74,3.77-3.74,4.04,3.23,3.31,3.5,8.29-.03,11.51-1.62,1.47-4.27-.78-5.76-1.71ZM73.4,47.53h-4.31c-.53,0-2.3,1.21-3,.92-.81-.71-3.26-6.57-4.28-6.39-.75.48-1.41,1.62-1.46,2.49-.13,2.06.7,5.52.78,7.79.03.77.21,2.54-.54,2.9-1.08.52-10.34-3.78-12.53-3.95-.92-.07-1.97.87-1.31,1.58,1.03,1.13,7.79,4.03,9.53,4.59.89.29,1.8.55,2.75.52-2.14,3.26-4.4,7.14-3.54,11.24.34,1.62,1.32,2.66,2.89,1.55,2.57-1.81,3.09-6.29,3.79-9.14.28-.31,2.05,1.41,2.42,1.62.7.4,4.03,1.97,4.51,1.26s-.17-3.4-.46-4.27c-.65-1.89-1.99-3.12-3.06-4.72l7.82-8Z"/>
        <path class="cls-1" d="M224.27,137.98c.58.68,1.73,3.19.71,3.82-11.27,4.99-22.74,9.6-34.58,13.08-.3-.31,1.12-4.77,1.44-5.48,2.09-4.72,9.21-10.42,13.88-12.5,2.58-1.15,6.3-2.81,8.81-.79.68.55.64,1.57,1.64,1.73,2.46-1,6.02-2.32,8.11.15Z"/>
        <path class="cls-1" d="M92.45,198.47l-27.08,12.26c-1.3.37-3.1-2.28-3.34-3.33-.35-1.49.35-3.55,1.45-4.59,1.68-1.59,4.95-.4,5.9-1.15.63-.5.27-1.72.39-2.48.63-3.71,4.03-5.42,7.48-5.84,2.7-.33,2.73,1.61,3.85,1.66.93.04,2.95-1.53,3.98-1.93,4.05-1.55,7.12,1.41,7.37,5.4Z"/>
        <path class="cls-1" d="M145.9,165.43c.14.09.15.45.6.57,2.41.64,3.96-3.52,7.21-1.2,1.61,1.15,2.69,2.95,2.74,4.96-5.23,1.62-10.23,3.97-15.34,5.95-1.91.74-3.9,1.31-5.81,2.03-1.11.42-4.7,2.43-5.48,2.09s-1.98-2.54-2.01-3.44c-.03-1.06,1.19-3.45,1.99-4.15,2-1.76,4.25.77,5.17-.18.37-.38.44-3.11.92-4.18,1.13-2.52,5.25-4.87,7.87-3.83.67.27,1.5.97,2.14,1.39Z"/>
        <path d="M7.52,310.87c2.52-.43,8.2,1.94,9.73,3.99.79,1.06,1.48,3.11,1.29,4.42-.51,3.63-7.34,8.47-10.69,9.42-8.3,2.35-9.2-6.29-6.45-11.94.98-2,3.83-5.5,6.12-5.89ZM7.78,313.74c-1.17.31-3.36,3.09-3.9,4.2-.95,1.96-1.58,5.65-.44,7.59,1.08,1.85,5.57-.18,6.99-1.04,1.1-.67,4.97-4.13,5.21-5.26s-1.6-3.27-2.47-3.95c-1.05-.81-4.09-1.89-5.38-1.54Z"/>
        <path d="M35.21,317.65c3.24-.25,11.03,4.26,8,7.76-1.38,1.6-6.24,3.02-8.33,2.89-4.17-.26-5.44-1.99-4.51-6.07.53-2.3,2.4-4.39,4.85-4.58ZM34.93,320.53c-1.11.25-2.56,3.34-2.53,4.27.03,1.17,3.9,1,4.77.83.59-.11,4.11-1.74,4.1-2.16-1.41-1.59-4.13-3.45-6.34-2.95Z"/>
        <path d="M19.52,336.98c1.34-.31,2.86.01,3.58,1.27.68,1.19,1.41,4.98,1.14,6.32-.62,3.02-6.15,3.53-8.28,2.14-3.49-2.28-2.46-5.92.53-8.07.34-.24,2.77-1.6,3.04-1.66ZM19.53,339.85c-3.14.63-4.91,5.86.66,4.85,2.79-.51.83-2.85.59-4.64l-.53-.27c-.24-.03-.48.02-.72.07Z"/>
        <path d="M201.84,105.06c.43-.04.73-.09,1.19-.05,3.86.3,11.12,9.32,5.14,10.57-1.48.31-9.73-.62-11.57-1-2.28-.46-3.59-1.96-2.95-4.38s5.9-4.93,8.18-5.14ZM202.36,106.6c-1.91.22-7.43,2.53-7.18,5.01.13,1.34,3.11,1.58,4.25,1.73,2.04.27,5.94.82,7.83.81,2.79-.01,1.65-2.51.52-3.94s-3.53-3.83-5.42-3.61Z"/>
        <path d="M57.67,177.67c2.43-.24,3.84.75,3.07,3.34-.26.87-3.62,5.16-4.45,5.73-3.32,2.3-4.49-1.77-3.54-4.59.76-2.23,2.52-4.25,4.92-4.49ZM57.73,180.21c-2.79.09-3.36,2.29-3.13,4.7.68.8,3.35-4.5,3.13-4.7Z"/>
        <path d="M115.17,186.72l-12.66,5.71-1.4-2.43c4.06-2.77,8.74-4.12,13.16-6.13l.89,2.84Z"/>
        <path d="M207.84,96.94c3.58-.49,7.78,7.11,3.47,8.45-5.3,1.65-8.76-7.72-3.47-8.45ZM211.23,103.62c2.03-2.03-4.91-8.54-4.38-2.68.18,1.99,3.01,4.04,4.38,2.68Z"/>
        <path d="M90.03,169.33c1.15,1.2.63,3.37-.77,4.14-2.52,1.39-8.58,1.14-6.6-2.94.3-.61,1.84-2.25,2.42-2.54,1.54-.75,3.86.2,4.94,1.34ZM88.74,170.62c-1.61-1.85-4.39-.97-4.88,1.34.24,1.14,6.46.47,4.88-1.34Z"/>
        <path d="M170.81,124.84l-1.96-.78-10.76-9.74-.05-1.46c.43-.12.85-.06,1.26.11.83.36,5.31,4.54,6.28,5.47.59.57,5.91,5.75,5.22,6.4Z"/>
        <path d="M169.25,129.8c-1.3.07-2.45-.91-3.48-1.61-2.26-1.57-4.42-3.69-6.58-5.43-.57-.46-3.86-2.62-3.78-3,.57-.96,1.35-.5,2.22-.15,2.32.93,9.86,7.1,11.2,9.17.21.32.49.59.41,1.02Z"/>
        <path d="M197.55,95.42c1.97-1.72,4.45,1.61,4.62,3.43.36,3.82-6.46,5.97-6.55,1.29-.02-1.27.97-3.89,1.93-4.73ZM198.53,96.66c-.31.18-1.36,2.99-1.35,3.5.01,2.07,3.42.81,3.43-.79,0-.69-1.24-3.2-2.08-2.72Z"/>
        <path d="M64.44,173.08c-1.59,1.42-7.41,1.58-6.79-1.69.21-1.08,2-2.77,3.11-2.91,2.29-.29,5.49,2.99,3.68,4.61ZM61.03,170.33c-.08.02-1.3.92-1.35.99-.74,1.12,3.14,1.02,3.27.39.03-.6-1.53-1.46-1.92-1.39Z"/>
        <path d="M156.1,129.82c.31-.1.59.01.88.1.92.26,7.65,5.62,8.35,6.54.31.41.48.89.78,1.31-.42.59-.98.43-1.57.27-1.28-.35-7.94-5.64-8.62-6.79-.29-.48-.49-1.22.18-1.43Z"/>
        <path d="M58.85,162.11c-.8-.95-1-4.31-.86-5.54.78-6.8,5.63,1.55,5.48,3.9-.11,1.79-3.38,3.11-4.62,1.64ZM59.3,155.66c-.35,1.49-.4,2.81.01,4.29.25.9.53,1.89,1.62,1.67,3.03-.61-.63-4.87-1.63-5.97Z"/>
        <path d="M75.15,165.12c2.8-.84,5.82,3.68,3.62,5.18-1.09.74-4.64.79-5.49-.28-.91-1.14.57-4.51,1.88-4.9ZM74.44,169.24c.71.09,3.68.48,3.67-.65-1.7-2.79-3.36-3.05-3.67.65Z"/>
        <path d="M94.75,159.09c.78-.15,1.22.29,1.6.91.51.84,1.53,2.87,1.23,3.76-.42,1.26-3.54,1.27-4.61.92-2.28-.76.5-5.34,1.78-5.59ZM95.86,163.23l-.79-1.83-1.56,1.7c.6.83,1.53.02,2.34.13Z"/>
        <path d="M175.45,158.33c1.81-.28,3.25.61,1.63,1.89-.23.18-5,2.01-5.46,2.11-.64.14-1.44.32-1.99-.13-1.42-2.01,4.57-3.68,5.82-3.87Z"/>
        <path d="M172.9,119.09c-.37,0-.75.04-1.12-.05-.81-.2-5.54-4.91-5.41-5.55.07-.33.52-.39.85-.35,1.64.18,5.43,4.16,5.68,5.96Z"/>
        <path d="M134.71,208.2c2.19-.37,4.78,3.84,4.77,5.84-.02,3.37-5.54,4.9-8.22,5.1-6.81.51-5.76-3.93-1.83-7.32.83-.72,4.46-3.48,5.28-3.62ZM128.77,216.77c.77.83,7.16-.85,8.23-1.82.88-1.24-1.55-4.13-2.55-3.88-.82.2-6.4,4.93-5.68,5.71Z"/>
        <path d="M214.85,176.72c1.82-1.86,2.96-2.19,5.41-.9,3.35,1.77,4.62,6.7,4.03,10.21-.82,4.9-6.56,0-8.42-1.64-3.03-2.69-4.26-4.36-1.02-7.66ZM217.76,176.87c-1.36.13-3.56,2.19-3.22,3.61.25,1.03,4.09,4.11,5.14,4.8,1.69,1.13,3.22,2.34,3.27-.72.04-2.74-1.73-8.02-5.19-7.69Z"/>
        <path d="M198.42,181.05c1.92-.59,7.97,2.73,8.89,4.58,1.19,2.39-3.02,4.2-4.89,4.65-6.11,1.46-7.61-3.49-3.93-7.58l-.76-.82c-.06-.34.39-.73.69-.82ZM199.59,183.4c-2.39,3.78-2.01,6.55,3.14,5.1.69-.19,2.93-1.22,3.05-1.92.16-.9-5.24-3.74-6.2-3.18Z"/>
        <path d="M70.27,262.74c-1.72.15-3.37-.52-4.88-1.25-4.98-2.44-9.57-6.11-14.52-8.66l-.45-1.32c1.55.05,3.02.82,4.35,1.52,2.98,1.56,6.53,3.88,9.47,5.68,2.03,1.25,4.12,2.59,6.03,4.02Z"/>
        <path d="M214.86,189.72c.9.47,2.05.95,2.95,1.61,1.52,1.13,2.15,2.18,1.83,4.14-.52,3.21-7.89-.07-8.46-1.43-.87-2.05,1.28-5.59,3.68-4.33ZM218.09,195.1c.3-2.36-3.05-3.27-4.93-3.37-1.94,2.15,4.65,3.66,4.93,3.37Z"/>
        <path d="M73.92,259.61c-.35.32-7.13-3.38-8.01-3.87-2.74-1.54-6.97-3.89-9.31-5.84-.29-.24-1.04-.7-.96-1.13.09-.47.4-.29.69-.18.87.31,2.1,1.03,2.97,1.48,3.43,1.79,10.78,5.58,13.44,7.98.23.21,1.48,1.28,1.18,1.56Z"/>
        <path d="M126.35,222.82c.78-.14,3.16,1.15,3.41,1.98.91,3.05-6.37,6.22-5.79,1.96.15-1.08,1.22-3.72,2.38-3.94ZM125.37,227.22c1.35.23,2.28-.81,3.13-1.7,0-.25-1.7-1.04-2.09-.8l-1.04,2.5Z"/>
        <path d="M77.32,254.13l-9.68-4.29-.24-.93c.87-.84,8.62,2.57,9.52,3.67.38.46.45.97.41,1.55Z"/>
        <path d="M85.41,250.21c-1.65-.29-2.91-1.02-4.35-1.78-1.89-1-4.83-2.69-6.53-3.92-.32-.23-.73-.27-.61-.83.96-.84,9.12,3.9,10.31,4.97.24.21,1.48,1.27,1.18,1.56Z"/>
      </g>
    </g>
  </g>
</svg>