<?xml version="1.0" encoding="UTF-8"?>
<svg id="Layer_2" data-name="Layer 2" xmlns="http://www.w3.org/2000/svg" viewBox="0 0 416.84 275.48">
  <defs>
    <style>
      .cls-1 {
        fill: #01e486;
      }

      .cls-2 {
        fill: #fff;
      }
    </style>
  </defs>
  <g id="Layer_1-2" data-name="Layer 1">
    <g>
      <polygon class="cls-2" points="4.38 71.07 36.99 59.04 90.17 40.65 105.71 34.53 112.27 32.99 117.3 33.65 121.02 37.15 123.65 42.62 168.73 143.51 204.19 222.3 203.09 228.64 200.47 232.58 192.81 236.08 94.33 274.16 90.6 273.94 83.6 272.63 75.94 264.53 70.25 252.72 1.53 81.58 1.97 74.57 4.38 71.07"/>
      <path class="cls-1" d="M180.5,187.4c-4.12,3.22-6.3,8.17-10.34,11.49-4.52,3.7-12.71,5.99-17.33,1.29-2.68-2.72-.68-6.66.78-9.51,2.62-5.13,6.05-8.46,10.37-12.1,4.67-3.94,9.57-7.66,14.48-11.28-.28-1.9-.29-3.85-.24-5.77.02-.89.48-2.18.27-2.96-.03-.11-.96-.7-1.26-1.07-2.92-3.59-2.42-7.33-2.52-11.61-.05-2.37-.37-4.27.02-6.77.8-5.15,2.35-4.43,6.66-4.7,16.27-1.04,39.32,3.1,55.16,7.44,12.5,3.43,24.45,9.06,36.1,14.64,7.52,3.6,14.32,5.07,22.32,6.96,7.72,1.83,15.07,3.57,22.99,3.99,13.48.72,26.94,1.73,40.36,3.34,1.79.21,3.65.51,5.42.89,9.9,2.16,19.72,3.83,29.48,6.61,6.55,1.87,14.53,3.71,20.01,7.75.69.51,1.73,1.21,1.98,2.06,1.17,4.02,1.86,9.66,1.59,13.83-.04.68-.2,2.34-.37,2.91-.25.81-3.91,2.69-4.92,3.41-1.42,1.02-4.72,3.27-5.81,4.29-.19.18-1.5,2.59-1.51,2.76,2.57,8.01,5.3,15.84,6.26,24.27.63,5.48-.9,14.08-4.41,18.5-2.66,3.36-5.08,1.98-7.68-.35-4.86-4.36-6.46-8.65-7.54-14.92-.13-.73.24-1.61-.41-2.11-2.14,1.07-3.54,2.99-5.49,4.35-10.43,7.22-24.15,4.79-35.73,2.04-9.11-2.16-19.06-3.82-27.95-6.89-7.78-2.68-11.27-7.23-14.38-14.65-4.03-9.58-2.75-20.51-5.87-30.48-.53-1.7-2.35-5.64-3.84-6.5-1.57-.91-5.32-1.58-7.02-1.21-.8.17-6.68,3.59-7.39,4.24-2.79,2.54-6.17,9.73-8.47,13.24-3.58,5.47-7.74,10.55-12.61,14.9-1.23,1.1-.91,1.45-2.84,2.21-15.21,6.02-34.76-.35-49.59-4.8-8.49-2.54-18.77-4.62-23.78-12.82-2.85-4.67-4.57-11.45-4.95-16.89ZM203.41,150.36c-6.7.77-13.26,6.06-14.76,12.75-1.64,7.29-.83,23.62,1.77,30.65,3.18,8.61,15.4,11.39,23.15,14.46,1.54.61,3.06,1.72,4.55,2.26,11.11,4.07,27.17,7.99,38.56,3.99,10.19-3.58,18.07-20.84,17.48-31-.22-3.91-3.57-10.55-5.97-13.72-10.34-13.64-34.22-16.7-50.24-18.42-3.73-.4-11.11-1.37-14.55-.98ZM332.66,176.37c-4.89.03-12.12.64-14.89,5.3-6.5,10.93-7.47,21.32-6.51,33.86.51,6.65,2.88,13.27,8.83,16.66,9.3,5.31,21.98,8.38,32.55,10.36,8.9,1.67,23.92.26,31.19-5.69.99-.81,6.88-8.23,7.5-9.41,1.07-2.03,5.13-11.56,5.44-13.49.5-3.13,1.37-10.66.44-13.43-2.09-6.22-4.63-10.31-10.39-13.59-9.47-5.38-17.73-5.49-28.18-7.16-8.65-1.38-17.1-3.47-25.97-3.42Z"/>
      <path d="M171.42,153.07l-3.07-6.14c-6.61-16.98-14.95-33.15-22.47-49.72-8.67-19.11-15.59-39.13-25.75-57.54-1.57-2.85-2.11-4.41-5.64-4.71-4.19-.36-8.89,1.64-12.87,3.02-14.7,5.11-29.19,10.96-43.8,16.27-15.88,5.77-32.37,10.43-48.01,16.86-2.83,1.16-5.46,2.25-5.93,5.68-.85,6.17,5.2,18.33,7.62,24.3,16.86,41.58,32.36,83.86,49.49,125.41,2.64,6.39,5.33,12.79,8.16,19.1,3.37,7.52,7.87,19.81,14.71,24.41,5.28,3.56,7.92,3.34,13.81,1.49,7.19-2.26,14.83-6.31,21.84-9.21,14.06-5.81,28.46-10.82,42.58-16.48,10.12-4.06,20.45-7.79,30.54-11.87,1.62-.66,6.73-3.01,7.54-4.33.49-.8,1.72-4.56,1.8-5.52.14-1.67-.32-3.56-.75-5.17l3.28,1.19c.97,4.21,2.02,7.45-.91,11.15-2.04,2.58-9.96,5.99-13.23,7.46-18.26,8.23-38.39,14.69-57.18,21.83-11.4,4.33-22.99,9.46-34.51,13.45-14.75,5.11-21.59-3.95-27.5-15.8-5.84-11.72-10.82-24.36-15.74-36.5-5.16-12.74-9.97-25.63-15.13-38.37-8.44-20.81-17.16-41.48-25.5-62.33-4.82-12.06-10.17-24.3-13.64-36.84-1.01-3.67-2.1-8.8.27-12.1,2.02-2.81,8.46-5.18,11.73-6.44,13.88-5.33,28.72-9.23,42.78-14.26,7.11-2.54,14.19-5.37,21.26-8.02,8.95-3.36,17.83-7.71,26.88-10.47,9.02-2.75,15.49-2.54,20.1,6.53,2.22,4.37,4.36,9.53,6.39,14.06,9.59,21.45,18.51,43.17,28.43,64.44,2.9,6.22,6.09,12.35,8.92,18.59.67,1.48,3.79,8.59,3.76,9.63,0,.34-.27.66-.27.76v6.18Z"/>
      <path d="M112.43.73c1.5-1.3,3.5-.57,5.33-.07,19.34,5.29,37.39,18.69,54.5,28.8,4.19,2.48,8.61,4.6,12.77,7.17,1.88,1.16,3.56,2.7,5.5,3.84,4.58,2.69,9.54,4.63,14.19,7.52,11.13,6.9,22.15,14.01,33.11,21.16,10.16,6.63,20.34,12.28,30.35,19.37,7.13,5.04,16.56,11.43,22.52,17.61,3.89,4.03-1.19,12.22-6.3,11.6-1.53-.19-3.86-1.73-5.07-2.71-3.55,3.28-6.96,2.49-10.9.5-6.77-3.41-13.69-8.18-20.3-12-9.62-5.56-19.58-10.72-28.98-16.71-2.72-1.74-8.67-5.5-9.09-8.83-.17-1.34.49-1.9.48-2.51,0-.74-4.41-3.43-5.27-4.06-4.85-3.58-9.55-7.33-14.59-10.65s-10.92-6.21-15.81-9.68c-11.38-8.07-22.39-16.75-33.92-24.64-8.25-5.64-17.63-10.93-25.19-17.47-1.1-.95-4.45-4.09-4.83-5.28-.3-.97.81-2.35,1.5-2.95ZM139.36,13.01c-7.33-3.35-14.03-7.43-21.75-9.93-1.34-.43-3.09-.66-4.5-1.18l-.02,1.14c2.03,1.4,3.81,3.72,5.7,5.17,1.05.8,2.58,1.47,3.74,2.32,4.17,3.05,8.38,6.06,12.42,9.29.36-2.01.8-4.05,2.27-5.55l2.14-1.26ZM143.65,15.29l-1.84-.7c-2.08.84-3.71,1.74-4.69,3.89-1.39,3.05.97,2.83,2.99,4.38-.2-2.04.38-4.38,1.77-5.93.48-.53.96-.68,1.45-1.06.21-.16.46,0,.32-.57ZM148.19,18.31c.17-.25-2.66-1.93-2.96-1.98-2.4-.38-4.74,5.34-3.99,7.28l3.03,2.01c.33,0,.58-2.2.77-2.76.51-1.56,1.52-3.93,3.14-4.56ZM154.5,21.09c-3.12-.96-4.89-3.99-6.86.33-.33.73-1.69,4.97-1.42,5.43l3.99,2.32c.26-2.36,1.3-5.76,3.16-7.32.4-.33,1.03-.33,1.14-.75ZM159.3,24.12l-3.79-2.16c-1.24.53-4.51,7.44-4.18,7.96l3.42,2.02c1.09-2.47,1.89-6.01,4.39-7.3l.15-.52ZM162.33,37.24c.71-3.3,2.2-6.56,5.3-8.2l-5.88-3.1c-.66.48-1.57.27-2.2.82-.49.43-3.02,5.51-3.01,6.07,0,.35,2.32,2.4,2.79,2.75.37.28,2.75,1.9,3.01,1.66ZM245.63,77.11l-.52-.86c-17.03-10.45-33.49-21.78-50.75-31.78-1.85-1.07-4-1.91-5.85-2.98-5.92-3.45-11.66-7.27-17.61-10.67-1.62-.56-3.83,1.92-4.57,3.23-.57.99-1.91,4.52-1.21,5.35,14.41,10.61,29.53,20.09,44.35,30.1,3.48,2.35,6.78,5.02,10.29,7.38,6.31,4.23,12.86,8.08,19.45,11.85.38.12.4,0,.33-.33-.96-4.82,1.77-9.28,6.1-11.28ZM268.85,107.65c-.74.03-1.37-.35-2.02-.62-7.15-3.05-15.12-8.42-21.93-12.39-6.8-3.96-13.87-7.8-20.55-12.01-2.42-1.53-5.26-4.06-7.57-5.3-1.68-.9-2.51-.92-3.69.72-.05.28,3.25,3.84,3.78,4.24,3.62,2.72,9.64,4.97,13.69,7.26,3.43,1.94,6.51,4.52,9.78,6.62,7.55,4.85,15.36,9.32,22.87,14.23l11.33,4.1c1.15-.01,2.88-2.63,3.81-2.73,1.34-.14,3.65,2.16,4.82,2.41,2.92.64,6.04-2.81,5.88-5.62-.13-2.29-1.83-2.69-3.29-4.04-8.9-8.29-19.63-14.93-29.75-21.74-2.49-1.68-5.22-3.04-7.77-4.62-.74-.32-2.7,1.11-3.34,1.65-1.69,1.39-3.22,4.1-3.31,6.3-.04,1,.41,1.88.5,2.8.05.55-.38,1.21-.13,1.6,4.14,2.39,8.09,5.07,12.18,7.52,3.97,2.38,8.78,4.59,12.52,7.16.86.59,2.09,1.33,2.19,2.47Z"/>
      <path d="M116.56,56.5c3.21.1,4.78,5.37,5.82,7.93,1.12,2.75,2.68,6.64,3.42,9.45.33,1.25.89,3.39.67,4.61-.44,2.34-6.38,4.19-8.44,4.94-27.48,9.99-55.63,18.29-83.17,28.15-1,.18-3.31.31-4.15-.17-1.64-.94-5.58-10.33-6.41-12.52-.59-1.56-1.98-5.08-2.01-6.57-.06-3.63,5.95-5.67,8.77-6.74,9.72-3.67,19.83-6.37,29.66-9.71,13.92-4.73,27.52-10.33,41.38-15.16,2.88-1,11.94-4.28,14.44-4.2ZM122.89,78.31c.18-.17.72-1.57.74-1.86.16-2.2-3.61-10.71-4.84-12.97-1.36-2.52-2.16-4.44-5.52-4.27-2.23.11-9.55,3.11-12.16,4.02-25.44,8.91-50.6,18.7-75.99,27.75-.9,1.34,1.92,6.05,2.53,7.58.9,2.25,2.73,8.73,4.44,9.95.43.31,1,.65,1.56.6l89.23-30.81Z"/>
      <path class="cls-1" d="M354.68,166.7c.06.44-.57.24-.88.25-4.97.2-10.99-1.3-16.15-1.52-8.23-.36-16.52.18-24.72-.77-13.14-1.52-27.07-5.11-39.19-10.28l-8.67-4.58c1.75.03,3.69.07,5.42.25,20.31,2.14,40.54,4.43,60.26,9.91l23.92,6.75Z"/>
      <path d="M111.26,43.37c.56.45,2.83,4.66,2.99,5.46.2.97.29,2.05-.71,2.6-9.9,3.72-19.91,7.16-29.85,10.79-2.64.97-5.45,2.42-8.14,3.21-2.16.64-2.42.38-3.43-1.48-.62-1.14-2.02-4.6-1.49-5.71.4-.84,5.15-2.57,6.32-3.02,7.06-2.76,14.19-5.57,21.27-8.26,2.81-1.07,8.85-3.56,11.55-3.86.56-.06,1.03-.1,1.5.28ZM113.1,50.6c.35-.4-2.1-6.12-2.76-6.43l-6.07,2.15,3.05,6.03,5.77-1.75ZM106.29,53.13l-2.78-6.56-7.06,2.9c1.2.42,2.87,5.79,3.39,5.87l6.45-2.21ZM98.46,55.91l-2.93-6.04-7.16,2.63c1.27,1.89,1.81,4.09,2.64,6.18l7.45-2.77ZM87.61,52.63l-7.82,3.15c1.29,1.74,1.86,3.89,2.52,5.93l7.56-2.9c-1.11-1.86-1.96-4.02-2.27-6.19ZM79.28,55.91l-7.21,2.76c-.33.41,1.64,5.04,2.42,5.45.91.49,5.48-1.98,6.81-1.91-.68-2.07-2.09-4.05-2.02-6.31Z"/>
      <path d="M149.45,193.2c-.38,2.44-4.08,2.85-6.05,3.66-1.02.42-1.94,1.07-2.99,1.42-1,1.61,2.79,9.03,3.54,10.89,2.19,5.51,4.24,11.16,6.65,16.57.66,1.48,2.22,5.13,3.58,5.76,2.18.99,3.44-.28,5.5-.96,2.29-.76,6.65-1.93,8.45-3.41.7-.58.82-1.02.66-1.89-.39-2.11-2.58-7.44-3.49-9.65-1.35-3.27-3.41-6.27-4.23-9.77l2.51-.5,7.07,20.08c.08.82-.05,1.1-.49,1.74-1.23,1.79-8.49,4.92-10.79,5.86-1.78.73-2.63,1.33-4.6.69-1.53-.5-2.77-1.87-3.58-3.23-1.87-3.13-3.86-8.94-5.37-12.55s-3.09-7.23-4.55-10.85c-.85-2.11-2.69-6.57-2.34-8.64.09-.54.39-1.35.85-1.67l9.69-3.56Z"/>
      <path d="M96.89,234.63c1.33-.14,2.33.95,2.88,2.06,1.24,4.4,3.59,9.04,4.82,13.35.23.8.57,1.71.39,2.54-.17.76-1.51,2.43-2.21,2.85-1.65.97-10.75,5.01-12.25,5.16-1.99.2-2.57-.61-3.79-2.02-1.89-2.17-3.4-5.14-4.63-7.74-.99-2.1-3.77-7.11-1.39-8.88,5.22-2.83,10.58-5.34,16.19-7.31ZM96.88,236.64c-2.04.87-14.92,6.14-15.3,7.46-.05.8.44,1.68.76,2.44,1.2,2.8,3.38,7.07,4.88,9.76.52.94,1.18,1.85,2.08,2.48,2.06-.65,13.21-5.21,13.66-6.71.46-1.52-2.27-6.25-2.36-8.14l-3.31-7.31-.4.02Z"/>
      <path d="M118.33,226.58c.94.01,2.32,1.61,2.81,2.37.76,1.17,4.75,10.99,4.83,12.1.36,5.29-7.39,8.15-11.54,9.62-2.25.8-3.5,1.12-5.87.19-1.85-.73-3.14-3.92-3.91-5.68-1.01-2.33-3.35-8.3-2.79-10.6.43-1.78,1.3-2.28,2.82-2.98,1.87-.86,4.45-2.04,6.33-2.76,1.13-.43,6.47-2.27,7.32-2.26ZM116.59,229.1c-2.84.23-9.79,2.89-12.05,4.62-1.07.82-1.39,1.97-1.28,3.27.1,1.19,4.16,10.26,5,11.41,1.39,1.92,5.36.19,7.19-.49,1.51-.56,6.59-2.66,7.51-3.59.71-.71,1.12-2.5.96-3.47-.24-1.48-3.06-8.91-3.85-10.3-.75-1.33-2.05-1.55-3.47-1.44Z"/>
      <path d="M54.96,126.92c.51.46,1.09,1.61,1.4,2.26.86,1.84,3.17,7.6,2.99,9.39-.23,2.26-2.82,2.94-4.63,3.7-2.37,1-9.99,4.03-12.18,3.75-.91-.12-2.14-.9-2.58-1.71-.87-1.6-2.91-6.9-3.23-8.64-.4-2.17,0-3.28,1.82-4.51s10.37-4.56,12.61-4.81c1.18-.13,2.9-.25,3.8.57ZM39.47,132.96c-1.36,1.65,1.23,8.07,2.26,9.83.63,1.08,1.15,1.03,2.33.95,1.64-.12,9.88-3.3,11.74-4.17,1.53-.71,1.54-1.16,1.14-2.9-.27-1.19-2.25-6.12-2.85-7.24-1.34-2.46-6,.1-7.93.75-1.05.36-2.32.45-3.4.89-.47.19-3.08,1.63-3.29,1.89Z"/>
      <path d="M132.48,199.82c2.4-.28,3.22,2.25,4.06,4.14.87,1.96,2.44,6.38,2.71,8.41.18,1.39-.46,2.27-1.6,2.97-1.93,1.18-12.05,5.21-14.08,5.36-1.58.12-3.19-.66-4.16-1.89-1.3-1.65-4.08-9.59-3.77-11.59.1-.65.49-1.37,1.06-1.71,1.31-.78,4.35-1.81,5.92-2.41,2.12-.8,7.94-3.06,9.85-3.28ZM133.52,201.81c-.92-.66-13.98,4.23-15.76,5.26-.25.38-.13,1.14-.06,1.59.22,1.33,2.6,7.73,3.36,8.75.47.63,1.12,1.26,1.97,1.26,2.71,0,9.29-2.75,11.94-3.97.5-.23,2.04-.9,2.24-1.31l-3.71-11.58Z"/>
      <path class="cls-1" d="M284.5,148.79c.05.47-.53.21-.81.18-3.3-.36-6.59-1.38-9.92-1.69-5.18-.49-10.45-.04-15.58-1.08l-17.61-6.99c5.93.14,11.87.38,17.68,1.63,5.43,1.17,10.66,3.35,15.95,5,3.4,1.05,6.93,1.76,10.29,2.96Z"/>
      <path d="M58.66,124.13c.33-.36,1.67-.97,2.2-1.21,3.2-1.44,8.61-3.46,11.98-4.43,1.89-.54,3.56-1.11,5.19.38,1.2,1.09,4.37,8.72,4.44,10.4.01.36-.12,1.62-.21,1.93-.37,1.17-4.54,3.11-5.76,3.58-2.38.91-7.74,2.93-10.02,3.36-2.11.4-3.3.05-4.61-1.58-1.23-1.53-3.53-7.9-3.77-9.86-.1-.8,0-1.94.56-2.55ZM74.09,119.64c-1.23.09-5.84,1.85-7.32,2.39-1,.36-6.08,2.19-6.4,2.68s-.3.92-.26,1.46c.12,1.68,1.56,5.94,2.4,7.46.88,1.59,1.57,2.65,3.59,2.39,1.78-.23,6.14-1.9,8.01-2.61s5.76-1.8,5.94-3.92c.13-1.5-1.67-6.5-2.49-7.87-.8-1.35-1.86-2.08-3.47-1.97Z"/>
      <path d="M96.39,109.48c1.58-.18,3.22-.45,4.31.85,1.55,1.85,4.11,8.29,4.47,10.67.33,2.2-.44,2.46-2.24,3.34-2.86,1.39-7.1,3-10.13,4-3.78,1.25-6.4,2.72-8.72-1.39-.8-1.42-2.97-7.89-3-9.37-.04-1.72.96-2.49,2.25-3.26,2.72-1.62,10.01-4.5,13.07-4.85ZM96.64,111.5c-4.14.5-8.08,3.12-11.99,4.42-1.33.79-.83,3.81-.51,5.17.22.94,2.63,6.84,3.22,7.13.81.4,4.26-.69,5.29-1.02,2.39-.77,6.9-2.43,9.01-3.61,1.01-.56,1.95-1.31,1.81-2.62-.09-.78-1.13-3.76-1.51-4.57-.31-.66-2.19-3.84-2.6-4.21-.81-.73-1.68-.82-2.71-.69Z"/>
      <path d="M112.03,146.57c2.07-.33,3.35-.15,4.57,1.62.72,1.05,2.5,4.94,2.89,6.19.28.88.97,4.06.55,4.74-.2.33-2.31,1.72-2.81,1.99-2.99,1.63-10.62,4.65-13.87,5.06-1.78.22-3.16-.39-4.03-1.98-.81-1.47-3.28-8.29-3.32-9.77-.04-1.88,2.03-2.84,3.46-3.49,2.59-1.17,9.95-3.95,12.55-4.36ZM112.8,148.09c-1.93.17-10.41,3.27-12.45,4.22-1.56.72-2.31,1.67-2.37,3.45-.04,1.1,2.5,7.31,3.42,7.88,1.31.82,6-.67,7.61-1.17s8.2-2.78,8.76-4.11c.66-1.55-1.48-7.18-2.35-8.75-.75-1.34-1.01-1.68-2.62-1.53Z"/>
      <path d="M180.5,204.04c-3.92,1.05-7.7,2.54-11.11,4.72.54,5.06,3,10.32,6.24,14.18.33.08,5.61-1.8,6.39-2.11,1.57-.63,4.8-1.82,5.66-3.18,1.18-1.85-.22-3.02-.1-5.02,1.49,1.01,2.2,1.36,2.78,3.14.85,2.59-.3,3.87-2.62,4.98s-8.03,3.73-10.26,4.13-3.1.05-4.41-1.67c-1.67-2.18-5.35-10.44-6.03-13.15-.52-2.08.1-2.69,1.79-3.67,3.43-1.98,7.46-2.72,11.04-4.35l.62,2Z"/>
      <path d="M146.1,173.07c1.58-.33,2.31.4,3.05,1.63,1.68,2.8,2.7,6.69,4.23,9.64l-2.73,4.38c-1.59,1.05-10.19,4.47-11.92,4.5-2.38.05-1.91-.74-2.8-2.02-1.55-2.23-3.73-6.3-4.13-9-.45-3.08,2.31-4.24,4.69-5.37,3.1-1.48,6.55-2.19,9.61-3.76ZM147.36,175.61c-.38-.3-.82-.35-1.28-.32-1.72.12-10.16,3.14-11.51,4.16-.56.43-1.03,1-1.03,1.75,0,.95,3.26,8.75,3.95,9.19.3.19.63.26.99.29,1.53.13,6.92-1.63,8.59-2.28,2.46-.95,5.03-1.93,4.03-5.05-.42-1.33-1.56-4.14-2.17-5.4-.22-.45-1.25-2.11-1.56-2.35Z"/>
      <path d="M140.04,156.18c2.11.09,5.03,7.53,5.31,9.45.2,1.35.02,2.89-1.22,3.71-1.16.76-5.1,2.47-6.55,3.04-1.23.49-4.34,1.59-5.53,1.78-1.55.25-1.7-.03-2.64-1.17-.89-1.07-3.84-7.62-4.13-8.99-.61-2.88,2.83-3.8,5-4.74,2.01-.87,7.85-3.16,9.77-3.08ZM139.54,158.45l-11.63,3.75c-1.28.72-.44,2.4-.03,3.49.33.89,2.86,5.93,3.41,6.18.47.21.84.17,1.32.07,2.21-.43,8.04-2.93,9.95-4.19.56-.36,1.3-.77.99-1.57-.92-1.57-1.8-7.72-4.02-7.74Z"/>
      <path d="M95.62,173.32c2.24-.33,2.85.15,4.05,1.88s3.81,7.7,3.71,9.55c-.13,2.59-5.59,3.71-7.62,4.62-2.73,1.23-8.55,4.91-11.44,3.7-.36-.15-.95-.99-1.15-1.37-1.03-1.89-3.16-6.58-3.78-8.59-.68-2.2-.21-3.71,1.9-4.67,3.44-1.56,10.78-4.6,14.32-5.12ZM80.59,180.12l-.25,1.28c.48,1.28,4.06,10.34,4.66,10.51.52-.06,1.17-.13,1.65-.3,2.44-.85,5.53-2.53,8.04-3.57,1.16-.48,6.77-2.33,7.03-3.08.06-2.07-3.36-9.89-5.2-10.39l-15.93,5.56Z"/>
      <path d="M95.85,168.88c-1.32,1.57-6.49,3.64-8.57,4.43-2.61.99-5.35,1.62-7.94,2.68-2.15.41-3.77-3.37-4.47-5-.76-1.75-2.61-6.7-2.1-8.4.18-.59,2-1.35,2.64-1.65,2.42-1.16,5.5-2.41,8.04-3.32,2.19-.79,6.76-2.72,8.73-1.15,1.1.87,4.08,7.88,4.24,9.38.13,1.14.19,2.14-.57,3.04ZM74.55,162.73c-1.16,1.24.55,4.77,1.15,6.16.38.89,1.69,3.77,2.2,4.37,1.14,1.35,3.57.4,5.03,0,2.33-.66,9.68-3.81,11.26-5.4.28-.28.64-.68.7-1.07.17-1.18-2.24-6.36-3.02-7.48-1.24-1.77-2.49-2.31-4.64-1.7-2.06.59-5.12,1.84-7.18,2.67-.72.29-5.29,2.24-5.49,2.46Z"/>
      <path d="M122.76,99.38c.32-.33,2.38-1.18,2.97-1.44,1.76-.77,4.03-1.67,5.85-2.23,1.98-.6,5.12-1.9,6.56.14.86,1.22,4.25,9.24,4.47,10.67.28,1.83-.03,2.36-1.49,3.27-2.12,1.33-9.1,3.71-11.53,3.89-1.36.1-2.59-.83-3.37-1.88-1.11-1.48-3.95-9.59-3.79-11.36.03-.34.08-.82.32-1.07ZM137.27,97.11l-1.1-.49-11.58,3.95c-.83,1.39,2.5,9.9,3.82,10.82s3.05.34,4.49.01c2.8-.64,5.38-1.83,7.85-3.26.3-.47-.83-4.18-1.08-4.99-.65-2.1-1.53-4.04-2.4-6.05Z"/>
      <path d="M140.32,217.99c1.82-.17,2.53.49,3.43,1.98,2.35,3.89,3.78,8.68,5.61,12.84.52,3.45-2.73,4.66-5.28,5.86-2.1.98-8.41,3.59-10.45,3.93s-3.38.21-4.71-1.48c-1.18-1.49-5.82-12.67-5.95-14.49-.08-1.06-.05-1.98.92-2.61,1.26-.82,4.59-2.04,6.16-2.68,2.67-1.09,7.57-3.1,10.29-3.35ZM142.07,219.51c-.19-.22-.76-.29-1.07-.32-2.25-.21-7.2,1.97-9.46,2.91-2.45,1.01-4.74,2.43-7.29,3.18-.69,1.07,1.65,6.39,2.19,7.71.74,1.82,3,7.51,4.66,8.22.41.18.56.17.99.14,1.34-.12,5.19-1.45,6.65-1.96,1.16-.41,8.32-3.42,8.72-3.97.25-.35.7-2.14.62-2.61l-6-13.31Z"/>
      <path d="M92.06,217.77c1.18,1.25,3.95,7.51,4.27,9.24.39,2.15.13,4.1-1.53,5.56-1.55,1.35-11.73,6.28-13.65,6.55-3.19.45-4.12-.63-5.61-3.18-1.06-1.82-3.48-8.1-3.77-10.11-.49-3.35.55-3.51,3.12-4.82,2.77-1.41,9.55-4.87,12.34-5.08,1.92-.14,3.5.45,4.83,1.85ZM73.78,223.29c-.23.24-.59,2.17-.57,2.59.04,1.25,3.01,9.15,3.75,10.41.35.6,1.33,1.65,2,1.79,1.68.36,7.69-2.63,9.5-3.52,1.69-.82,6.05-2.68,6.61-4.49s-2.28-10.55-3.79-11.64c-.1-.07-2.17-.91-2.34-.94-2.69-.56-10.26,3.74-13.02,5.04-.51.24-1.9.53-2.13.77Z"/>
      <path d="M123.89,181.9c2.91-.55,4.07.66,5.48,2.98,1.04,1.71,3.28,6.84,3.41,8.73.07.97-.24,1.65-.86,2.37-1.16,1.34-6.45,2.96-8.38,3.73-2.41.97-8.36,4.77-10.4,1.65-1.2-3.53-4.12-7.96-4.53-11.64-.09-.83.41-1.85,1.15-2.27l14.14-5.55ZM126.41,183.19c-.3-.22-.82-.29-1.19-.22-1.77.35-4.84,2.11-6.75,2.85-2.85,1.1-5.82,1.89-8.54,3.34-.29.46,1.08,3.75,1.36,4.46.75,1.86,1.96,4.74,2.88,6.46.43.81,1.33,1.38,2.28,1.15,3.64-1.73,7.87-2.98,11.47-4.7.89-.42,3.19-1.7,3.49-2.59-.27-1.04-.66-2.4-1.1-3.44-.42-1.02-3.39-6.94-3.91-7.32Z"/>
      <path d="M66.22,143.05c.29-.28,3.83-1.94,4.48-2.21,2.61-1.08,9.59-3.77,12.11-4.07,1.12-.13,2,.27,2.78,1.04,1.53,1.52,3.85,8.2,4.23,10.4.28,1.57.15,2.56-1.22,3.45-1.76,1.15-12.61,5.18-14.8,5.64-3.89.82-5.18-3.06-6.32-5.94-.71-1.79-2.77-6.84-1.26-8.32ZM70.27,155.02c.44.48,2.3,1.08,2.95.97,1.53-.26,5.85-2.11,7.57-2.79,1.16-.46,6.53-2.52,7.08-3.02.26-.24.49-.77.71-1.08-.63-2.57-1.75-5.68-2.86-8.14-.47-1.05-1.15-2.73-2.39-2.92l-15.48,5.76c-.57.31-.92.64-.97,1.32-.05.77,2.15,7.1,2.6,8.28.14.38.56,1.38.78,1.62Z"/>
      <path d="M102.69,190.24c2.1-.3,3.02.32,4.15,2.03,1.14,1.72,3.71,8.21,3.74,10.16.05,2.95-4.39,4.9-6.76,5.86-1.94.79-8.71,3.05-10.48,2.78-1.26-.19-1.67-.76-2.31-1.73-1.37-2.08-4.5-7.89-4.69-10.2-.24-2.74,1.21-3.19,3.36-4.21,2.89-1.38,10-4.26,12.99-4.68ZM103.69,191.25c-1.75.01-4.58,1.7-6.24,2.32-1.55.58-9.2,3.11-9.72,4.17-.73,1.5,2.3,7.37,3.21,8.91,1.03,1.76,1.7,3.61,4.06,3.14,1.11-.22,3.96-1.38,5.23-1.84,1.75-.63,8.03-2.95,8.65-4.48.16-.38.19-.66.21-1.07.08-1.46-1.79-5.84-2.5-7.37-.51-1.1-1.56-3.81-2.9-3.8Z"/>
      <path d="M110.72,208.22c2.2.17,3.81,3.56,4.62,5.33.68,1.48,2.18,4.83,2.54,6.29.27,1.07.47,1.89-.04,2.96-.77,1.58-6.7,4.09-8.53,4.84-2.7,1.12-7.25,3.65-9.58,1.01-1.47-1.66-5.23-9.75-5.32-11.85-.06-1.39.27-2.59,1.52-3.3,2.12-1.2,6.46-2.88,8.85-3.77,1.66-.62,4.2-1.65,5.94-1.52ZM96,214.96c-.3.46-.35,1.03-.32,1.57.1,1.77,3.73,10.04,4.94,11.48.22.26.53.58.86.66.62.15,5.55-1.88,6.57-2.29,2.66-1.08,5.23-2.4,7.91-3.45.74-.49.79-2.02.66-2.84-.14-.95-3.43-8.16-4.07-9.06-1.67-2.36-4.61-1-6.9-.17-3.23,1.16-6.38,3.04-9.65,4.1Z"/>
      <path d="M109.23,128.93c1.27,1.32,4.42,8.59,4.61,10.41.07.64.07,1.34-.37,1.86-.38.44-7.1,3.46-8.2,3.92-2.01.83-7.59,3.13-9.48,3.17-1.3.03-3.19-1.93-3.79-3.02s-2.95-8.17-2.91-9.22c.15-3.33,5.75-4.29,8.34-5.31s5.66-2.67,8.27-3.09c1.32-.21,2.61.35,3.51,1.29ZM108.74,130.18c-.61-.38-1.06-.75-1.82-.84-2.38-.26-10.68,3.06-13.25,4.18-1.71.74-3.59,1.12-3.18,3.41.22,1.24,2.19,6.61,2.79,7.81.56,1.12,1.71,2.62,3.1,2.36,2.42-.46,5.9-2.41,8.21-3.41,1.08-.47,6.73-2.6,7.11-2.99.61-.62.38-2.26.32-3.09l-3.3-7.43Z"/>
      <path d="M64.57,165.5c.8-.13,2.36-.18,3.11.05,1.7.52,4.44,5.75,4.91,7.45.43,1.56.57,4.98-.8,6.02-1.91,1.46-11.25,4.68-13.63,4.82-1.25.07-2.4-.68-3.08-1.67-.95-1.39-3.52-9.01-3.49-10.6.02-.82.31-1.24,1-1.64.98-.58,10.87-4.26,11.98-4.43ZM64.07,167.01c-.95.18-9.78,3.94-10.41,4.48-.24.2-.59.55-.7.84-.47,1.18,2.07,7.38,3.1,8.37,2.06,2,5.88.53,8.32-.26,2.22-.72,7.54-2.38,7.03-5.48-.12-.71-2.9-6.73-3.37-7.25-.86-.94-2.8-.93-3.97-.71Z"/>
      <path d="M119.1,163.99c2.6-.32,3.82.98,5.07,3.13.71,1.22,2.32,5.2,2.75,6.59,1.14,3.72-1.64,4.44-4.48,5.73-3.92,1.78-8.16,3.07-12.1,4.81-3.52,1.01-5.47-4.34-6.44-6.95-.96-2.58-2.16-5.5.26-7.56,1.75-1.49,12.5-5.45,14.95-5.75ZM119.35,165.24c-2.64.44-10.16,3.4-12.81,4.62-1.82.84-2.4,1.06-2.29,3.28.08,1.59,2.32,7.56,3.24,8.88.51.73,1.2,1.21,2.14,1.03.83-.16,2.95-1.06,3.9-1.42,2.14-.81,4.71-1.86,6.81-2.78.87-.38,5.56-2.56,5.75-3.06-.15-1.17-.57-2.45-1-3.54-.68-1.7-2.86-6.5-4.6-7.02-.4-.12-.74-.06-1.14,0Z"/>
      <path d="M65.22,204.89l15-6.58c1.1-.3,2.1.33,2.69,1.23.84,1.27,4.03,8.32,4.36,9.77s.58,2.05-.32,3.31c-1.4,1.97-10.98,5.46-13.67,6.27-1.46.44-2.22.93-3.61-.06-1.72-1.22-4.46-7-5.05-9.08-.48-1.69-.27-3.34.6-4.86ZM80.22,199.81l-14.56,6.41c-.23.38-.29.8-.29,1.24,0,1.45,2.79,7.26,3.68,8.71,1.76,2.89,2.13,1.97,4.61,1.06,3.53-1.3,8.36-2.58,11.26-4.9,1.61-1.29,1.25-1.49.68-3.37-.4-1.31-3.38-8.4-4.16-8.97-.42-.31-.73-.29-1.22-.19Z"/>
      <path d="M161.23,148.37c1.33,1.2,4.12,8.3,4.36,10.15.23,1.83-.22,2.58-1.73,3.53-1.98,1.24-10.97,5.26-13.02,5.41-3.94.3-4.71-5.5-5.74-8.39-.53-1.51-2.1-3.56-1.07-5.23.15-.24,2.95-1.57,3.49-1.81,3.6-1.63,7.51-2.62,11.08-4.34.85-.17,1.99.11,2.63.68ZM159.24,148.83c-4.7,2.24-9.95,3.22-14.3,6.17,1.14,2.55,2.09,5.76,3.38,8.17.44.82,1.81,2.8,2.76,2.76.44-.02,1.25-.41,1.73-.57,3.47-1.14,6.62-3.19,10.11-4.27,1.39-1.21,1.25-1.71.91-3.34-.38-1.86-2.16-7.45-3.53-8.58-.31-.26-.64-.42-1.06-.35Z"/>
      <path d="M153.91,131.2c1.16,2.96,4.9,7.16,5.37,10.15.38,2.45-.53,2.62-2.34,3.69s-9.27,4.49-11.18,4.72c-3.47.42-3.96-.69-5.36-3.41-.97-1.88-2.41-4.95-2.57-7.02-.18-2.33,0-3.31,2.02-4.56,1.89-1.17,8.4-3.64,10.6-4.04,1.28-.24,2.41-.47,3.46.47ZM139.17,136.73c-.27.28-.34.92-.32,1.31.05,1.43,2.62,7.31,3.49,8.64.83,1.27,1.82,1.76,3.39,1.54,1.65-.23,9.67-3.45,10.92-4.48s1.38-2.14.81-3.6-2.96-5.64-3.87-6.99c-1.01-1.48-1.24-1.44-2.99-1.01-2.32.57-6.33,2.07-8.53,3.08-.39.18-2.79,1.39-2.91,1.51Z"/>
      <path d="M44.77,151.38l10.65-4.12c2.96-.56,4.98-2.65,7.3.28.78.99,3.91,7.35,4.13,8.49.52,2.74-.73,3.88-2.97,4.98-1.74.86-11.48,4.56-13,4.67-1.17.09-1.7.1-2.46-.82-1.34-1.64-4.03-8.9-4.38-11.04-.17-1.03.18-1.62.72-2.46ZM49.56,164.36c.73.71,3.83-.63,4.8-1,1.61-.62,3.27-1.49,4.92-2.15,2.93-1.17,7.26-1.23,5.81-5.68-.34-1.05-2.92-6.82-3.47-7.39-.85-.87-1.46-1.11-2.58-.8-4.51,1.24-8.94,3.84-13.52,5.04-.95,1.95.31,2.93.99,4.56.55,1.31,2.42,6.81,3.05,7.42Z"/>
      <path d="M73.42,181.89c.79-.22,1.47.66,1.95,1.22,1.72,1.99,4.48,7.98,4.86,10.54.33,2.21-.6,2.34-2.29,3.14-2.28,1.08-5.47,2.32-7.86,3.24-1.6.62-5.38,1.74-6.94,1.12-1.43-.57-3.56-4.92-4.17-6.43-.34-.82-1.7-4.8-1.64-5.4.12-1.23,1.33-2.2,2.35-2.72,4.1-2.13,9.38-3.19,13.75-4.71ZM58.64,188.46c-.58.48-.09,2.24.14,2.9.34.97,3.85,7.85,4.36,8.26s1,.42,1.61.4c2.03-.08,10.15-3.36,12.26-4.42,1.03-.52,1.87-1.52,1.72-2.71-.17-1.29-3.16-7.79-4.03-8.86-1.59-1.94-4.63.37-6.46,1.04-3.19,1.16-6.39,2.3-9.6,3.4Z"/>
      <path d="M117.1,101.15c.44-.03.57-.1,1.04.07,1.98.71,4.13,6.57,4.82,8.57,1.1,3.19,2.27,4.72-.89,6.95-1.37.96-9.33,4.35-10.97,4.68-1.1.22-2.58-.12-3.4-.92-1.35-1.31-4.16-9.06-4.2-10.96-.05-2.42.96-3.17,2.88-4.21s8.77-4.05,10.72-4.19ZM108.61,119.71c.3.17,2.3.08,2.79,0,1.92-.32,9.25-3.52,10.51-4.88.38-.41.79-1.05.68-1.62-1.01-1.92-1.14-4.3-1.87-6.22-.15-.39-1.78-3.44-1.95-3.6-.07-.06-1.47-.96-1.56-.98-.48-.13-2.71.85-3.35,1.11-2.1.83-6.39,2.56-8.16,3.71s-.73,4.72-.19,6.39c.26.8,2.66,5.86,3.09,6.12Z"/>
      <path d="M125.41,119.31c1.95-.3,2.76,1.13,3.56,2.63,1.05,1.97,3.29,7.23,3.33,9.31.03,1.7-.98,2.7-2.36,3.44-2.04,1.09-7.51,3.2-9.75,3.88-1.28.39-2.98.05-3.93-.88-1.28-1.25-4.32-8.44-4.42-10.24-.1-1.71.99-2.65,2.3-3.51,1.67-1.09,9.41-4.34,11.28-4.63ZM125.67,120.31c-1.71.83-11.93,4.71-12.44,5.76-.21.44-.17,1.15-.13,1.64.09,1.05,3.03,7.32,3.74,8.38,1.64,2.43,3.86.59,5.79-.11,2.23-.82,6.11-1.54,7.52-3.34.51-.65.91-1.16.78-2.03-.17-1.15-2.27-6.22-2.88-7.49-.4-.83-1.43-2.91-2.38-2.81Z"/>
      <path d="M131.98,138.75c2.43-.33,2.98.08,4.05,2.12.94,1.79,3.66,7.82,3.6,9.55-.06,1.82-1.03,2.19-2.46,2.86-2.23,1.05-5.59,2.41-7.92,3.19-3.04,1-4.88,1.9-6.92-1.15-.92-1.37-3.62-8.2-3.68-9.71-.06-1.35.61-2.17,1.77-2.77,1.77-.91,9.74-3.85,11.55-4.1ZM137.52,151.74c.29-.41.53-.79.59-1.31.17-1.54-2.24-8.05-3.11-9.53-1.22-2.09-4.25-.56-6.06.12-1.04.39-2.1,1.08-3.08,1.46-1.91.75-4.46,1.02-5.9,2.44-.39,1.28,2.22,6.88,3.02,8.24,1.56,2.68,2.13,3.01,5.15,2.19,3.23-.87,6.23-2.54,9.39-3.62Z"/>
      <path d="M150.39,125.49c-.47.59-3.17,2.33-3.95,2.73-1.77.9-6.93,2.96-8.75,3.12-1.01.09-1.88-.13-2.62-.86-1.24-1.23-4.47-9.39-4.55-11.12-.04-.97.05-1.37.84-1.94,1.59-1.15,10.67-4.92,12.55-5.14,1.97-.24,3.87,3.68,4.59,5.28.63,1.4,2.36,5.79,2.21,7.09-.03.31-.12.58-.31.83ZM144.84,114.03c-.61-.49-1.22-.32-1.9-.16-3.55.84-7.56,3.55-11.12,4.66-.07.83-.11,1.68.08,2.5.29,1.21,2.47,6.24,3.12,7.48.18.34.78,1.34,1.05,1.47,1.78.87,7.52-1.84,9.35-2.77s3.9-1.66,3.74-3.98c-1.38-1.94-2.69-7.89-4.32-9.2Z"/>
      <path d="M171.41,168.46l-1.38.77c-.37-.09-.92-2.38-2.34-2.73-1.03-.25-6.73,2.09-8.05,2.68-1.15.51-5.06,2.34-5.76,3.07-2.03,2.14,2,6.17,2.61,8.5.02.21-.89,1.32-1.11,1.58-.26.3-.21.35-.49,0-.65-.79-1.67-3.4-2.09-4.48-.5-1.29-1.89-4.65-1.39-5.8.13-.31,1.16-1.6,1.45-1.84,1.29-1.07,12.75-5.73,14.4-5.81,1.96-.09,3.33,2.44,4.15,4.04Z"/>
      <path d="M179.74,201.26c-4.83,1.35-9.45,5.13-14.64,3.79-.31-.44,2.13-1.73,2.52-1.89,1.24-.49,2.6-.52,3.86-.94,2.46-.82,5.12-2.22,7.38-3.47l.88,2.51Z"/>
      <path d="M22.99,71.81c.52.53-3.93,5.92-4.5,6.73-1.55,2.21-3.08,5.11-4.74,7.12-.17.21-1.1,1.33-1.37,1.03-.08-.56.23-.97.46-1.43,1.61-3.15,6.51-10.6,9-12.96.37-.35.56-.6,1.14-.49Z"/>
      <path d="M109.82,100.08c-.41-.41,3.19-5.8,3.68-6.54,1.1-1.66,2.14-3.5,3.64-4.82-.03.86-.56,1.7-.96,2.44-1.22,2.24-3.03,4.99-4.48,7.13-.21.31-1.3,2.35-1.87,1.79Z"/>
      <path d="M110.33,89.73c-.44,1.35-4.82,10.85-5.43,10.85-.9,0,.49-2.71.67-3.11.86-1.94,2.56-5.42,3.8-7.06.26-.34.43-.77.96-.67Z"/>
      <path d="M25.51,74.34c.09.43-.22.66-.4.98-.94,1.69-2.84,4.2-4.04,5.8-.2.27-1.74,2.46-2.12,2.05-.09-.44.12-.73.29-1.09.67-1.39,4.12-6.55,5.25-7.37.35-.25.51-.48,1.02-.37Z"/>
      <path d="M124.71,85.19c.07.35.14.59.09.96-.17,1.31-2.65,6.34-3.43,7.68-.16.27-.31.5-.57.69-.36-.25-.39-.45-.39-.87,0-1.08,2.93-6.47,3.67-7.71.09-.15.45-.91.63-.75Z"/>
      <path d="M106.54,90.49c.08.5-.17.85-.37,1.27-.44.94-3.04,5.21-3.66,5.86-.27.28-.61.48-1.02.44-.04-.72.4-1.33.71-1.93.57-1.11,2.58-4.41,3.36-5.22.34-.35.36-.53.97-.41Z"/>
      <path d="M27.53,77.87c-.2-.18.49-1.01.66-1.24.48-.67,3.56-4.66,4.01-4.57.33.07.37.43.28.77-.2.72-4.17,5.75-4.94,5.03Z"/>
      <path d="M99.47,266.89c-.28-.28,2.93-6.19,3.78-6.56-.36,1.88-1.45,4.35-2.56,5.89-.34.48-.53.78-1.22.67Z"/>
      <path d="M99.47,261.09c-.07,2.02-1.26,4.39-2.39,6.06-.89,1.32-1.35.73-.82-.57.49-1.21,1.86-3.55,2.57-4.75.16-.27.25-.69.63-.75Z"/>
      <path d="M103.77,264.11c-.53-.54,2.07-4.39,2.77-4.79,0,1.17-.62,2.46-1.22,3.45-.36.6-.68,1.53-1.56,1.34Z"/>
      <path d="M96.44,263.11c.22.23-1.61,3.61-1.94,3.98-.31.34-.21.4-.83.31-.49-.5,2.24-4.84,2.77-4.29Z"/>
      <path class="cls-2" d="M245.63,77.11c-4.33,1.99-7.06,6.46-6.1,11.28.07.34.05.45-.33.33-6.59-3.77-13.14-7.62-19.45-11.85-3.51-2.36-6.81-5.03-10.29-7.38-14.82-10.01-29.95-19.5-44.35-30.1-.7-.83.64-4.35,1.21-5.35.75-1.3,2.95-3.79,4.57-3.23,5.95,3.41,11.69,7.22,17.61,10.67,1.85,1.08,4,1.91,5.85,2.98,17.27,10,33.72,21.33,50.75,31.78l.52.86Z"/>
      <path class="cls-2" d="M268.85,107.65c-.1-1.14-1.33-1.88-2.19-2.47-3.75-2.58-8.55-4.79-12.52-7.16-4.1-2.45-8.05-5.13-12.18-7.52-.25-.39.18-1.05.13-1.6-.09-.92-.54-1.8-.5-2.8.1-2.2,1.62-4.91,3.31-6.3.65-.53,2.61-1.96,3.34-1.65,2.55,1.58,5.28,2.94,7.77,4.62,10.12,6.81,20.85,13.45,29.75,21.74,1.46,1.36,3.16,1.76,3.29,4.04.16,2.81-2.95,6.27-5.88,5.62-1.17-.26-3.48-2.56-4.82-2.41-.93.1-2.66,2.72-3.81,2.73l-11.33-4.1c-7.51-4.91-15.32-9.38-22.87-14.23-3.27-2.1-6.35-4.69-9.78-6.62-4.05-2.28-10.07-4.54-13.69-7.26-.53-.4-3.83-3.96-3.78-4.24,1.19-1.64,2.01-1.62,3.69-.72,2.31,1.24,5.16,3.78,7.57,5.3,6.68,4.21,13.75,8.05,20.55,12.01,6.81,3.97,14.78,9.34,21.93,12.39.65.28,1.28.66,2.02.62Z"/>
      <path class="cls-2" d="M139.36,13.01l-2.14,1.26c-1.47,1.5-1.91,3.54-2.27,5.55-4.04-3.23-8.25-6.24-12.42-9.29-1.16-.85-2.69-1.52-3.74-2.32-1.89-1.44-3.68-3.77-5.7-5.17l.02-1.14c1.41.52,3.16.75,4.5,1.18,7.73,2.5,14.42,6.58,21.75,9.93Z"/>
      <path class="cls-2" d="M162.33,37.24c-.26.24-2.63-1.38-3.01-1.66-.47-.35-2.79-2.39-2.79-2.75,0-.56,2.52-5.64,3.01-6.07.62-.54,1.54-.33,2.2-.82l5.88,3.1c-3.1,1.64-4.59,4.9-5.3,8.2Z"/>
      <path class="cls-2" d="M154.5,21.09c-.1.42-.74.42-1.14.75-1.86,1.56-2.9,4.96-3.16,7.32l-3.99-2.32c-.27-.46,1.09-4.7,1.42-5.43,1.98-4.31,3.75-1.29,6.86-.33Z"/>
      <path class="cls-2" d="M159.3,24.12l-.15.52c-2.5,1.29-3.31,4.83-4.39,7.3l-3.42-2.02c-.33-.52,2.94-7.44,4.18-7.96l3.79,2.16Z"/>
      <path class="cls-2" d="M148.19,18.31c-1.62.62-2.63,2.99-3.14,4.56-.18.56-.44,2.76-.77,2.76l-3.03-2.01c-.75-1.94,1.59-7.67,3.99-7.28.3.05,3.13,1.73,2.96,1.98Z"/>
      <path class="cls-2" d="M143.65,15.29c.15.58-.11.41-.32.57-.49.38-.97.53-1.45,1.06-1.4,1.55-1.97,3.88-1.77,5.93-2.02-1.55-4.38-1.34-2.99-4.38.98-2.15,2.61-3.04,4.69-3.89l1.84.7Z"/>
      <path class="cls-2" d="M122.89,78.31l-89.23,30.81c-.56.05-1.13-.29-1.56-.6-1.7-1.22-3.54-7.7-4.44-9.95-.61-1.53-3.43-6.25-2.53-7.58,25.39-9.06,50.54-18.85,75.99-27.75,2.6-.91,9.92-3.91,12.16-4.02,3.37-.17,4.16,1.75,5.52,4.27,1.22,2.26,4.99,10.77,4.84,12.97-.02.29-.56,1.69-.74,1.86Z"/>
      <path class="cls-2" d="M87.61,52.63c.3,2.16,1.16,4.32,2.27,6.19l-7.56,2.9c-.66-2.04-1.24-4.19-2.52-5.93l7.82-3.15Z"/>
      <path class="cls-2" d="M98.46,55.91l-7.45,2.77c-.83-2.09-1.38-4.29-2.64-6.18l7.16-2.63,2.93,6.04Z"/>
      <path class="cls-2" d="M106.29,53.13l-6.45,2.21c-.52-.08-2.2-5.45-3.39-5.87l7.06-2.9,2.78,6.56Z"/>
      <path class="cls-2" d="M79.28,55.91c-.06,2.25,1.34,4.23,2.02,6.31-1.34-.07-5.9,2.4-6.81,1.91-.78-.41-2.75-5.05-2.42-5.45l7.21-2.76Z"/>
      <path class="cls-2" d="M113.1,50.6l-5.77,1.75-3.05-6.03,6.07-2.15c.65.31,3.11,6.03,2.76,6.43Z"/>
      <path class="cls-2" d="M96.88,236.64l.4-.02,3.31,7.31c.09,1.89,2.83,6.62,2.36,8.14-.45,1.49-11.6,6.06-13.66,6.71-.9-.63-1.56-1.54-2.08-2.48-1.49-2.69-3.67-6.96-4.88-9.76-.32-.75-.81-1.64-.76-2.44.38-1.32,13.26-6.59,15.3-7.46Z"/>
      <path class="cls-2" d="M116.59,229.1c1.43-.11,2.72.11,3.47,1.44.79,1.39,3.61,8.82,3.85,10.3.16.97-.25,2.77-.96,3.47-.93.93-6.01,3.03-7.51,3.59-1.83.68-5.8,2.41-7.19.49-.83-1.15-4.89-10.22-5-11.41-.11-1.3.21-2.45,1.28-3.27,2.27-1.73,9.21-4.4,12.05-4.62Z"/>
      <path class="cls-2" d="M39.47,132.96c.21-.25,2.81-1.7,3.29-1.89,1.09-.44,2.35-.53,3.4-.89,1.93-.65,6.59-3.22,7.93-.75.61,1.12,2.58,6.05,2.85,7.24.4,1.74.39,2.19-1.14,2.9-1.86.86-10.09,4.05-11.74,4.17-1.18.09-1.7.13-2.33-.95-1.03-1.76-3.62-8.18-2.26-9.83Z"/>
      <path class="cls-2" d="M133.52,201.81l3.71,11.58c-.2.4-1.74,1.07-2.24,1.31-2.65,1.23-9.24,3.97-11.94,3.97-.85,0-1.49-.62-1.97-1.26-.76-1.02-3.14-7.42-3.36-8.75-.07-.45-.2-1.21.06-1.59,1.78-1.03,14.84-5.92,15.76-5.26Z"/>
      <path class="cls-2" d="M74.09,119.64c1.61-.11,2.67.61,3.47,1.97.81,1.38,2.62,6.38,2.49,7.87-.18,2.12-4.16,3.24-5.94,3.92-1.87.71-6.23,2.38-8.01,2.61-2.02.26-2.71-.79-3.59-2.39-.84-1.52-2.28-5.78-2.4-7.46-.04-.54-.04-.98.26-1.46.32-.5,5.4-2.32,6.4-2.68,1.48-.54,6.09-2.3,7.32-2.39Z"/>
      <path class="cls-2" d="M96.64,111.5c1.04-.13,1.9-.04,2.71.69.42.37,2.29,3.55,2.6,4.21.38.8,1.43,3.79,1.51,4.57.15,1.32-.79,2.06-1.81,2.62-2.12,1.18-6.63,2.84-9.01,3.61-1.04.33-4.48,1.42-5.29,1.02-.59-.29-3-6.19-3.22-7.13-.31-1.36-.81-4.37.51-5.17,3.9-1.3,7.85-3.92,11.99-4.42Z"/>
      <path class="cls-2" d="M112.8,148.09c1.61-.14,1.87.19,2.62,1.53.87,1.57,3,7.2,2.35,8.75-.56,1.33-7.14,3.6-8.76,4.11s-6.3,1.99-7.61,1.17c-.91-.57-3.45-6.79-3.42-7.88.06-1.78.81-2.73,2.37-3.45,2.04-.95,10.52-4.05,12.45-4.22Z"/>
      <path class="cls-2" d="M147.36,175.61c.3.24,1.34,1.91,1.56,2.35.62,1.25,1.75,4.07,2.17,5.4,1,3.12-1.57,4.1-4.03,5.05-1.67.65-7.06,2.41-8.59,2.28-.35-.03-.68-.09-.99-.29-.69-.44-3.95-8.24-3.95-9.19,0-.75.47-1.32,1.03-1.75,1.35-1.03,9.78-4.05,11.51-4.16.46-.03.91.01,1.28.32Z"/>
      <path class="cls-2" d="M139.54,158.45c2.22.02,3.1,6.17,4.02,7.74.31.79-.43,1.2-.99,1.57-1.92,1.25-7.74,3.75-9.95,4.19-.48.09-.86.14-1.32-.07-.54-.25-3.07-5.29-3.41-6.18-.41-1.09-1.25-2.78.03-3.49l11.63-3.75Z"/>
      <path class="cls-2" d="M80.59,180.12l15.93-5.56c1.84.5,5.26,8.32,5.2,10.39-.25.75-5.87,2.6-7.03,3.08-2.51,1.04-5.6,2.72-8.04,3.57-.48.17-1.14.24-1.65.3-.61-.17-4.18-9.23-4.66-10.51l.25-1.28Z"/>
      <path class="cls-2" d="M74.55,162.73c.21-.22,4.77-2.16,5.49-2.46,2.05-.83,5.12-2.08,7.18-2.67,2.16-.61,3.4-.08,4.64,1.7.78,1.12,3.2,6.29,3.02,7.48-.06.39-.43.79-.7,1.07-1.57,1.6-8.92,4.74-11.26,5.4-1.46.41-3.88,1.36-5.03,0-.5-.59-1.81-3.48-2.2-4.37-.6-1.4-2.32-4.92-1.15-6.16Z"/>
      <path class="cls-2" d="M137.27,97.11c.87,2.01,1.75,3.95,2.4,6.05.25.81,1.38,4.52,1.08,4.99-2.47,1.43-5.06,2.62-7.85,3.26-1.45.33-3.14.93-4.49-.01s-4.65-9.43-3.82-10.82l11.58-3.95,1.1.49Z"/>
      <path class="cls-2" d="M142.07,219.51l6,13.31c.08.47-.37,2.25-.62,2.61-.39.55-7.56,3.56-8.72,3.97-1.45.51-5.31,1.84-6.65,1.96-.43.04-.59.04-.99-.14-1.66-.71-3.91-6.4-4.66-8.22-.54-1.32-2.88-6.63-2.19-7.71,2.55-.75,4.84-2.17,7.29-3.18,2.26-.94,7.21-3.12,9.46-2.91.31.03.88.09,1.07.32Z"/>
      <path class="cls-2" d="M73.78,223.29c.23-.24,1.63-.53,2.13-.77,2.77-1.29,10.34-5.6,13.02-5.04.18.04,2.24.87,2.34.94,1.5,1.08,4.37,9.75,3.79,11.64s-4.93,3.67-6.61,4.49c-1.81.89-7.82,3.88-9.5,3.52-.68-.15-1.65-1.19-2-1.79-.74-1.26-3.7-9.16-3.75-10.41-.01-.42.35-2.35.57-2.59Z"/>
      <path class="cls-2" d="M126.41,183.19c.52.38,3.49,6.3,3.91,7.32.43,1.04.83,2.4,1.1,3.44-.3.88-2.6,2.16-3.49,2.59-3.6,1.72-7.83,2.97-11.47,4.7-.95.23-1.84-.34-2.28-1.15-.92-1.72-2.13-4.6-2.88-6.46-.29-.71-1.65-4-1.36-4.46,2.72-1.45,5.69-2.24,8.54-3.34,1.91-.74,4.98-2.5,6.75-2.85.37-.07.89,0,1.19.22Z"/>
      <path class="cls-2" d="M70.27,155.02c-.22-.24-.63-1.24-.78-1.62-.45-1.18-2.65-7.51-2.6-8.28.04-.69.39-1.01.97-1.32l15.48-5.76c1.23.2,1.91,1.87,2.39,2.92,1.1,2.46,2.22,5.57,2.86,8.14-.21.32-.44.84-.71,1.08-.55.5-5.91,2.56-7.08,3.02-1.72.67-6.04,2.52-7.57,2.79-.66.11-2.51-.49-2.95-.97Z"/>
      <path class="cls-2" d="M103.69,191.25c1.33,0,2.39,2.7,2.9,3.8.71,1.53,2.58,5.91,2.5,7.37-.02.41-.05.68-.21,1.07-.62,1.52-6.9,3.85-8.65,4.48-1.27.46-4.12,1.62-5.23,1.84-2.36.46-3.02-1.38-4.06-3.14-.9-1.54-3.94-7.41-3.21-8.91.52-1.06,8.17-3.58,9.72-4.17,1.66-.62,4.49-2.31,6.24-2.32Z"/>
      <path class="cls-2" d="M96,214.96c3.28-1.06,6.43-2.94,9.65-4.1,2.29-.82,5.24-2.19,6.9.17.64.9,3.92,8.11,4.07,9.06.12.82.08,2.35-.66,2.84-2.68,1.05-5.25,2.37-7.91,3.45-1.02.41-5.95,2.45-6.57,2.29-.33-.08-.64-.4-.86-.66-1.21-1.45-4.84-9.71-4.94-11.48-.03-.54.02-1.11.32-1.57Z"/>
      <path class="cls-2" d="M108.74,130.18l3.3,7.43c.06.83.28,2.48-.32,3.09-.38.38-6.03,2.52-7.11,2.99-2.31,1-5.79,2.95-8.21,3.41-1.39.26-2.54-1.23-3.1-2.36-.6-1.21-2.57-6.58-2.79-7.81-.41-2.29,1.46-2.67,3.18-3.41,2.57-1.11,10.87-4.44,13.25-4.18.76.08,1.21.46,1.82.84Z"/>
      <path class="cls-2" d="M64.07,167.01c1.17-.22,3.11-.23,3.97.71.47.52,3.26,6.54,3.37,7.25.51,3.1-4.81,4.76-7.03,5.48-2.43.78-6.25,2.26-8.32.26-1.03-1-3.57-7.19-3.1-8.37.11-.28.46-.63.7-.84.64-.54,9.46-4.3,10.41-4.48Z"/>
      <path class="cls-2" d="M119.35,165.24c.4-.07.74-.13,1.14,0,1.73.52,3.91,5.32,4.6,7.02.44,1.09.86,2.37,1,3.54-.19.51-4.88,2.68-5.75,3.06-2.1.92-4.67,1.97-6.81,2.78-.95.36-3.07,1.26-3.9,1.42-.94.18-1.62-.3-2.14-1.03-.92-1.32-3.16-7.29-3.24-8.88-.11-2.23.47-2.45,2.29-3.28,2.64-1.22,10.17-4.18,12.81-4.62Z"/>
      <path class="cls-2" d="M80.22,199.81c.49-.1.8-.12,1.22.19.77.56,3.76,7.66,4.16,8.97.57,1.88.92,2.09-.68,3.37-2.9,2.32-7.73,3.6-11.26,4.9-2.48.91-2.85,1.83-4.61-1.06-.89-1.46-3.68-7.26-3.68-8.71,0-.44.07-.86.29-1.24l14.56-6.41Z"/>
      <path class="cls-2" d="M159.24,148.83c.42-.08.75.09,1.06.35,1.37,1.13,3.15,6.72,3.53,8.58.33,1.62.48,2.13-.91,3.34-3.5,1.09-6.65,3.13-10.11,4.27-.49.16-1.3.55-1.73.57-.95.04-2.32-1.94-2.76-2.76-1.29-2.42-2.23-5.63-3.38-8.17,4.35-2.96,9.6-3.93,14.3-6.17Z"/>
      <path class="cls-2" d="M139.17,136.73c.11-.12,2.51-1.33,2.91-1.51,2.2-1.01,6.21-2.51,8.53-3.08,1.75-.43,1.99-.47,2.99,1.01.91,1.34,3.31,5.56,3.87,6.99s.44,2.57-.81,3.6-9.27,4.25-10.92,4.48-2.56-.27-3.39-1.54c-.87-1.33-3.45-7.21-3.49-8.64-.01-.39.05-1.03.32-1.31Z"/>
      <path class="cls-2" d="M49.56,164.36c-.63-.61-2.5-6.12-3.05-7.42-.69-1.63-1.95-2.61-.99-4.56,4.58-1.2,9.02-3.8,13.52-5.04,1.12-.31,1.73-.07,2.58.8.55.56,3.13,6.34,3.47,7.39,1.45,4.46-2.88,4.51-5.81,5.68-1.65.66-3.31,1.53-4.92,2.15-.97.37-4.07,1.71-4.8,1Z"/>
      <path class="cls-2" d="M58.64,188.46c3.21-1.1,6.41-2.24,9.6-3.4,1.82-.66,4.87-2.98,6.46-1.04.87,1.07,3.86,7.57,4.03,8.86.16,1.19-.69,2.19-1.72,2.71-2.1,1.07-10.22,4.34-12.26,4.42-.62.02-1.11,0-1.61-.4s-4.02-7.29-4.36-8.26c-.23-.65-.71-2.41-.14-2.9Z"/>
      <path class="cls-2" d="M108.61,119.71c-.44-.26-2.84-5.31-3.09-6.12-.54-1.67-1.55-5.27.19-6.39s6.06-2.88,8.16-3.71c.64-.25,2.86-1.23,3.35-1.11.09.02,1.49.91,1.56.98.17.16,1.8,3.21,1.95,3.6.73,1.93.86,4.31,1.87,6.22.11.57-.3,1.22-.68,1.62-1.27,1.36-8.59,4.56-10.51,4.88-.49.08-2.5.18-2.79,0Z"/>
      <path class="cls-2" d="M125.67,120.31c.96-.1,1.98,1.98,2.38,2.81.61,1.27,2.71,6.34,2.88,7.49.13.87-.27,1.38-.78,2.03-1.41,1.8-5.28,2.52-7.52,3.34-1.93.71-4.15,2.54-5.79.11-.71-1.05-3.65-7.33-3.74-8.38-.04-.49-.09-1.2.13-1.64.51-1.06,10.73-4.93,12.44-5.76Z"/>
      <path class="cls-2" d="M137.52,151.74c-3.15,1.08-6.16,2.74-9.39,3.62-3.01.82-3.59.49-5.15-2.19-.8-1.37-3.41-6.96-3.02-8.24,1.43-1.42,3.99-1.69,5.9-2.44.98-.39,2.04-1.07,3.08-1.46,1.81-.68,4.84-2.21,6.06-.12.87,1.48,3.28,7.99,3.11,9.53-.06.52-.3.9-.59,1.31Z"/>
      <path class="cls-2" d="M144.84,114.03c1.63,1.31,2.94,7.25,4.32,9.2.16,2.32-2.01,3.1-3.74,3.98-1.82.93-7.56,3.64-9.35,2.77-.27-.13-.87-1.13-1.05-1.47-.65-1.24-2.83-6.27-3.12-7.48-.2-.82-.15-1.67-.08-2.5,3.56-1.11,7.57-3.81,11.12-4.66.68-.16,1.29-.33,1.9.16Z"/>
      <path class="cls-1" d="M373.36,185.63c1.38-.56,2.49-.11,3.78.38,2.78,1.04,9.02,3.67,10.98,5.68,1.05,1.07,5.08,8.61,5.51,10.14.92,3.26.16,8.95-.83,12.2-1.18,3.87-3.3,7.86-6.7,10.19-.36-.21-.49-.49-.62-.87-.82-2.24-1.08-5.75-1.64-8.2-.67-2.91-1.43-6.2-2.33-9.03-2.24-7.03-5.81-13.51-8.15-20.49Z"/>
      <path class="cls-1" d="M222.64,154.1c.13.54,0,1.07-.49,1.36-8.51,3.47-15.64,8.43-22.83,14.02-2.18,1.7-6.01,5.63-8.3,6.6-.27.11-.25.35-.55-.04-.2-4.06-.35-8.18.46-12.17.57-2.83.49-3.07,2.77-4.8,3.88-2.93,8.73-5.38,13.2-7.25,5.27.63,10.56,1.12,15.74,2.28Z"/>
    </g>
  </g>
</svg>