<?xml version="1.0" encoding="UTF-8"?>
<svg id="Layer_2" xmlns="http://www.w3.org/2000/svg" xmlns:xlink="http://www.w3.org/1999/xlink" version="1.1" viewBox="0 0 236 357.4">
  <!-- Generator: Adobe Illustrator 29.6.1, SVG Export Plug-In . SVG Version: 2.1.1 Build 9)  -->
  <defs>
    <style>
      .st0 {
        fill: none;
      }

      .st1 {
        fill: #fff;
      }

      .st2 {
        fill: #fd8721;
      }

      .st3 {
        clip-path: url(#clippath);
      }
    </style>
    <clipPath id="clippath">
      <rect class="st0" width="236" height="357.4"/>
    </clipPath>
  </defs>
  <g id="Layer_1-2">
    <g class="st3">
      <g id="Group_8979">
        <path id="Path_6687" class="st1" d="M86.4,341.5l6.4,9.2,14.3,3.9,14.6-3,11.3-6,6.8-6.2,8.4-5.6v-8.7l-1.6-7.6,1.6-6.6,1-3.1-3.6-6.4,3.6-3.2-1-6.4-2.6-4s1.9-2.5,3.6-3.2,3.2-5.8,3.2-5.8v-6.1l8.3-13.3,7.3-22.3,4.8-7.3,33.4-31.1,9.9-16.3,5.3-13.5,3.7-23.3s-.1-12.4,0-13.2-5.9-18.3-5.9-18.3l-16.2-38.2-33.5-28.3-33.2-8.7-39.2,5.2-28.3,16.2-25.8,27-7.7,13.3-6.4,19.9v29l1.8,19.4,4.6,15.5,7.7,10.7,12.5,15.4,7,19.3,2.7,19.1s0,8.7,0,10.5,3.4,7.4,3.4,7.4l3.6,5.9-1.4,6.1,1.4,4.8,1.6,6-1.6,8.6v6s.1,4,0,6.7c-.1,2.6-1.3,8.2-1.4,9.6s-.4,5.7,0,6.6,1.4,6.7,1.4,6.7l13.8,7.8h0Z"/>
        <path id="Path_6662" d="M139.4,342c-.4.4-.4,1.1-.9,1.6-12.9,14-34.8,20-49.5,5-1.8-1.9-4.7-6.4-6.2-7.6-1.6-1.2-5.3-2.5-7.3-3.6-1.5-.8-2.9-1.7-4.3-2.5-1.4-3.6-.9-7.6-1.2-11.2-.4-4.8-1.9-9.9-.7-14.7.4-1.5,1.9-4.2,1.7-5.4-.2-1.2-3.2-2.9-3.2-5.3,0-4.2,5.1-6.8,5.3-9.8.3-3.6-4.9-4.2-5.3-8-.2-1.6,2.7-8.7,2.4-9.1-1.9-.9-4.1-3.2-5.2-5-4.6-6.7-3.6-11.7-4-19.3-.6-10.7-1.3-22.6-6.9-32-4.5-7.6-11.3-13.8-16-21.1-8.3-12.9-12.5-25-13.1-40.4-.8-19.9,2.5-43.9,11.7-61.7,2.9-5.6,6.4-8.9,10.4-13.4,4-4.4,8.4-10.1,12.7-14,5-4.7,18-13.6,24-17,18-10,41.6-11.8,61.7-9.2,9.4,1.2,24.6,6.7,32.1,12.4,7.9,6.2,15.5,12.9,22.6,20,4.3,4.4,8.2,9.2,11.5,14.4,8.8,13,12.5,28.5,15.4,43.7,2.8,14.4,0,33.9-5.3,47.7-1.7,4.5-3.9,7-6.3,10.9-1.4,2.3-2.5,4.9-4.2,7.2-6.9,9.5-16.4,17.4-24.9,25.5-5.4,5.2-11.7,9.9-14.5,17-2.1,5.4-3.6,11.8-5.6,17.4-2.7,7.5-5.4,14.8-12.4,19.4l.2,8.9-4.7,6.1c1.4,1.4,2.4,2.1,2.6,4.2.4,4.1-1.8,5.6-3.7,8.7,1.1,2,4.3,5.2,4.4,7.5.2,2.5-4.2,5.2-4.2,6.6,0,.8,2.5,3.8,3,4.9,1.8,4.1.5,5.3-.6,9-.3,1.1-.3,3.2-1,4-.9,1-3.9,2.2-5.1,3.1-.9.6-4.9,4.2-5.5,5M214.7,180c1.4-2,3.9-11,4.2-13.5,2.2-17.4,3.3-33.1-1.2-50.3-3.1-12.1-9.7-21.4-15.6-32-1-1.8-1.8-4.2-2.9-5.8-.8-1.1-2.1-2-3-3.1-3.7-4.3-6.5-8.1-10.9-11.9-6.4-5.5-15.5-12.9-23.2-16.2-3.6-1.6-16.4-5.2-20.2-5.3-12.1-.2-25.6,0-37.2,3.3-9.5,2.6-15.6,6.7-23.5,12.2-17,11.9-29.1,24.1-40,41.8-6.4,10.5-7.6,21-8.2,33.1-1,18.3.5,40.7,9.8,56.9,4,6.9,9.5,10.5,13.8,16.9,4.2,6.3,8.1,14.8,8.9,22.4.8,7.8,0,20.7,2.9,27.5,1.8,3.5,3.9,6.8,6.2,10,1.1,1.1,2.3,2.1,3.7,3,6.4,4.4,15,5.2,22.2,7.9.2-1.4.3-2.7.3-4.1-.1-7.4,0-14.9.2-22.2.5-23.5,1.2-47,2.1-70.5.2-3.9.2-7.8.5-11.6,0-.8-.2-3,.3-3.4l2.1-.9c-.1,3.8-.1,7.7-.2,11.5-1.1,31.5-3.2,63.6-2.7,95.1.2,2.2,0,4.5-.6,6.6,5.3,1.4,11,1.1,16.3.4l.4-.7,17.2-108.4c.2-.2,3.7,2,3.7,3,0,1.5-.8,3.8-1,5.4-1.6,10.9-3.7,21.7-6,32.4-2.2,9.8-2.7,19.9-4.4,29.8-1,5.9-2.8,11.8-3.8,17.6-1,5.7-1,11.2-1.7,16.9-.2,1.5-.6,2.9-.8,4.4,3.2-.3,6.3-.9,9.3-1.7,15.3-4.4,24.3-8.8,28.1-25.4,1.4-5.9,1.5-14.1,6.3-18.6,5.9-5.6,12.9-10.1,18.8-15.6,1.9-1.8,3.3-3.8,5-5.6,6.3-6.4,13-12.3,18.1-19.8,2.5-3.6,4.3-7.6,6.7-11.2M98,325.5h-4.9c-2.6,0-9.3-2.6-11.9-3.7l-6.8-3.7.3,13.6c.1.3,3.3,1.6,3.9,1.9,10,4.3,17.6,5.5,28.4,6,11.1.5,19.5.3,30-3.4,1.1-.4,6.2-2.4,6.8-3,1-1,.3-3.2.4-4.4.2-3.5,2.7-4.4.9-8.9-.6-1.5-1.7-2.2-2-3.7-5.8,0-12,.2-17.4-2.3.6-.2,1.3-.4,2-.4,4.8-.3,10.5.6,15.1,0,1.8-.2,3.6-3.5,3.6-5.2,0-2.9-1.8-4.6-3-7-7.3,1.5-14.7,2.1-22.1,1.6-2.2,0-4.3-.4-6.4-1-.4-.1-.7.1-.6-.6l10.7-.5c5.6-1,11.3-1.1,17-1.9,2.4-.3,5.2-1,5.2-4.1,0-3.2-3.6-4-3.2-7.1.3-2.2,3.5-2.3,4.1-4.1.5-1.7-.9-4.9-.4-6.9-2.3.7-4.3,1.9-6.6,2.5-17.7,4.9-34.3,5.2-51.8-.9-5.3-1.7-10.3-4.2-14.8-7.4-.3.2-.3.4-.4.7-.5,2.1-1.6,6.3-1.6,8.2,0,2.3,2.1,2.9,3.2,4.2.4.5,1,2.1,1.1,2.2.2.1.9,0,1.3.2,3.4,1.2,7.5,2.5,10.1,5.2l-4-.9-7.3-3.6c-.3,2.4-.8,4.7-1.7,7-.4,1.3-1.6,2.8-1.4,4.2.9,1.7,14.9,6.2,17.5,7.4.6.3,2.4,1,2.5,1.8-2.1,1-5-.2-7.2-.8-4-1.2-7.6-3.1-11.4-4.6.9,1.8-.4,3.2-.5,4.9-.2,2.5.1,5.4,0,7.9.5,1.6,12.7,6.7,14.8,7.5,2.2.8,4.7,1.2,6.9,2.1.2.1,2.1.8,1.6,1.2M128.2,344c-10.6,1.2-21.3,2.1-31.9.5-2.7-.4-5.2-1.1-7.9-1.5,5.3,8.8,16.6,10.4,25.9,8.3,5.5-1.2,9.4-3.8,13.8-7.3"/>
        <path id="Path_6663" d="M6.7,255.8c1.1-2.5,3.4-4,5.2-5.8,6.6-6.8,13.9-14.5,21.8-19.8.8-.6,2.7-2.1,3.7-1.4,1.7,1.3.6,2.4-.4,3.6-5.2,6.2-13.6,11.5-20.1,16.2-3,2.1-6,4.9-9.1,6.8-.3.2-.6.5-1,.4"/>
        <path id="Path_6664" d="M201.5,8.7c-2.1,4.4-5.3,8.2-7.9,12.4-1.5,2.4-2.9,4.9-4.3,7.3-.9,1.6-3,8.1-5.9,6.2-1.1-.7-.6-2.1-.2-3.1,1.2-2.7,5.6-9.2,7.5-11.8,2.4-3.3,5.2-6.3,8.1-9.1l2.6-2h0Z"/>
        <path id="Path_6665" d="M221.1,26.5c-4.9,4.8-10.9,9.1-16.6,12.9-2.7,2-5.6,3.7-8.6,5l-1.5-1.7.4-1.2c5.2-2.9,9.9-6.4,15.1-9.3,2-1.1,4.2-2,6.2-3.1,1.7-.9,3.3-2.4,5.1-2.7"/>
        <path id="Path_6666" d="M0,221.9c-.3-.3,1.3-1.8,1.6-2,3.9-3.6,11.8-8.4,16.6-10.9,1.6-.9,3.4-2.2,5-.6.2.3,0,.8-.2,1.1-.7,1.4-5.5,4.3-7,5.2-5.1,2.9-10.4,5.4-16,7.2"/>
        <path id="Path_6667" d="M180.9,0c-.3,1.2-.7,2.5-1.3,3.6-2.7,6.3-6.2,13.6-9.4,19.7-.6,1-3.1,6-4.4,5.7-2.1-.6-.2-3.8.4-5.2,2.6-5.5,5.6-9.6,8.7-14.6C176.8,6.2,178.2,2.6,180.9,0"/>
        <path id="Path_6668" d="M215.8,237c-3.2-1.8-5.4-5-7.8-7.6-1.1-1.2-2.6-2.3-3.8-3.6-1.6-1.9-3.1-3.9-4.4-5.9-.4-1.6,1.2-2.9,2.9-1.8,1.8,1.1,4.9,6.9,6.4,8.9,1.7,2.4,5.7,6.4,6.5,8.8.2.4.2.8.2,1.2"/>
        <path id="Path_6669" d="M156.3,2.9c.3,3.9-1.2,7.4-2.1,11.1-.4,1.7-1.1,8.2-2.9,8.8-.7.2-1.5.2-1.7-.6-.9-5.1,3.6-15,6.6-19.2"/>
        <path id="Path_6670" d="M229.6,218.2c-.5,0-1-.2-1.5-.5-4.2-2.2-8.3-4.9-12-7.8-1.2-1-2.3-2.1-3.4-3.3-.4-1,1.5-1.9,2.2-1.4l12.6,9.9c.7,1,1.8,1.9,2,3.2"/>
        <path id="Path_6671" d="M29.1,219.1c2.2,2.2-4.3,5.9-5.9,6.5l-8.3,3.5c-.8-.8,5.6-5.6,6.3-6,1.1-.8,6.1-4.3,7.1-4.3.3,0,.6.1.9.3"/>
        <path id="Path_6672" d="M222.9,196.8c.4-.1.8.2,1.1.4,3.5,1.7,6.8,3.7,10,5.9.7.5,2.4,1.5,1.8,2.5-.4.5-1.5,0-1.9-.2-3.6-1.6-7.5-3.3-10.5-5.9-1-.9-2.7-.9-.5-2.6"/>
        <path id="Path_6673" d="M223.8,49.8c-1.5,1.7-3.3,3.1-5.3,4.1-1.3.7-7.3,3.6-8.4,3.6-1,0-1.2-.7-.8-1.6.6-1.4,5.5-2.8,6.9-3.4,2.4-1,4.7-2.8,7.5-2.7"/>
        <path id="Path_6674" class="st2" d="M145.1,129.2c.4,0,.9,0,1.2-.2,2.9-1,6.5-3.3,9.4-4.6,8.7-4,17.1-8.3,25.9-12.3.8-.3,1.9-.2,1.4.9-.8,1.3-1.7,2.6-2.6,3.8-2.9,3.7-7.4,7-10.8,10.3-4.5,4.4-8.6,9.3-13.4,13.4,5.1,5.8,11.7,10.3,16.8,16,1.5,1.7,2.7,3.6,4.2,5.3,2.4,2.6,5.7,4.9,7.3,8,0,.2.4.2.4.2.3.6,0,1.2-.6,1.3-1.4.2-5.4-2-6.9-2.6-6.4-2.3-12.9-4.3-19.2-6.8-4.6-1.8-8.9-4.1-13.6-5.5l3.3,12.4c.1.7.2,2-.7,2.2-1.9.5-7.4-4.6-9.1-5.9l-5.8-3.9c-1.9,5.4-4,10.8-5.8,16.3-3.2,9.5-6,19.1-9.4,28.5-.6,1.6-1.3,3.1-2.1,4.5-1.5,1.8-2.7-2.2-2.9-3.2-2.4-10.2-1.5-23.8-1.7-34.3l-1.6-14.9c-2.7.9-5.3,2.3-8.1,3.2-1.8.6-8.2,3.5-6.8-.7.6-1.8,2.9-5.1,3.9-6.9,1.4-2.7,2.7-5.5,4.1-8.2-6.7-.8-13.4.4-20,1.1-1.8.2-3.8,0-5.6.3-1.8.2-7.9,1.6-9,.8-.5-.5-.8-1.2-.6-2,.2-.7,4.2-1.6,5-1.9,6-2.3,11.6-5.4,17.5-7.9,2.7-1.1,20.7-7,21.3-8.1,0-2.2,0-4.5-.5-6.7-1.9-11-5.3-21.9-7.5-32.8-.2-.8-1-4.5-.4-4.9.5-.3.8-.1,1.2.1,2.9,1.8,8.4,13.4,10.5,17.1,2.7,4.6,5.6,9,8.6,13.4,2.8-3.6,5.8-7,8.5-10.6,8.6-11.5,16.7-24,25.7-35.2,1.1-1.4,2.3-2.8,3.6-4.1,2.1-1.8,1.4,2.4,1.3,3.4-1.6,12.3-5.2,23.3-8.6,35.1-2.5,8.9-4.6,18-7.8,26.8"/>
        <path id="Path_6675" d="M55.4,188.8c-.6.6-3.4-2.1-3.8-2.6-4.9-5.5-7.5-14.3-8.6-21.5.5-.6,1.9,2.8,2.1,3.1,2,4.4,3.3,9.1,5.7,13.3.5,1,5.2,7.1,4.6,7.7"/>
        <path id="Path_6676" d="M197.4,98.3c3.1,4.3,5.8,8.9,7.9,13.8,1,2.3,2.9,6.2,1.4,8.4-1,.2-2.5-4.9-2.9-5.8-2-4.7-5-10-6.4-14.8-.1-.5-.6-1.2,0-1.6"/>
        <path id="Path_6677" d="M208.5,108.5c-1.1-1-2-4.4-2.7-5.9-1.2-2.6-2.4-5.2-3.6-7.8l.3-.8c1.2,0,4.9,6.7,5.5,8,.5,1.3,2.1,5.4,1.4,6.5-.2.4-.7,0-.9,0"/>
        <path id="Path_6678" d="M51.1,172.2c.5-.1.6.3.9.6,1.1,1.2,5.1,6.8,5.3,8.2,0,.3,0,.7-.3.8-1.5.3-6.1-7.8-6-9.5"/>
        <path id="Path_6679" d="M62.3,179.3c-1.6.4-3.5-4.4-2.9-5,.5-.1.6.3.9.6,1.1,1.2,2.2,2.8,2,4.5"/>
        <path id="Path_6680" d="M114.2,288.2c0,0,.9.5,1.1.7,1.8,1.9,3.5,4,5,6.1.5.7,1.3,1.4.3,2.1-.9.5-2.9-2.3-3.4-3-.6-.8-3.6-5-3-5.9"/>
        <path id="Path_6681" d="M82.1,332.4c-.5.1-1,0-1.3-.4-1.4-2.4-2.6-4.9-3.6-7.5,0-.4.3-.6.6-.9.6,0,5.3,7.3,4.4,8.7"/>
        <path id="Path_6682" d="M134,296.1c-.7.7-2.8-2.6-3.1-3.1-1.1-1.9-1.9-4-2.4-6.2,1.8,2,3.4,4.2,4.7,6.5.6.8.9,1.8.8,2.7"/>
        <path id="Path_6683" d="M87.2,334.5c-1.2.1-1.5-.7-2.1-1.5-.6-.8-3.2-5.3-2.6-6,.7,0,1.4,1,1.8,1.5.6.7,3.8,5.3,2.9,6"/>
        <path id="Path_6684" d="M128.7,297.2c-.8.8-2.8-2.2-3.2-2.7-1.4-2-2.4-4.2-3.1-6.5,1.8,2.4,3.8,4.8,5.5,7.3.5.5.8,1.2.8,1.9"/>
        <path id="Path_6685" d="M109.9,290.5c.6-.1.7,0,1,.4.7.7,3.5,5,3.5,5.8,0,.4,0,.7-.4.9-1,0-4.4-6.9-4.1-7.1"/>
        <path id="Path_6686" d="M92.7,334.2c-1.2.2-1.4-.6-1.9-1.4-.8-1.2-1.2-2.7-1.3-4.1,1,.4,4,4.8,3.2,5.6"/>
      </g>
    </g>
  </g>
</svg>