<?xml version="1.0" encoding="UTF-8"?>
<svg id="Layer_2" xmlns="http://www.w3.org/2000/svg" version="1.1" viewBox="0 0 32.2 44.7">
  <!-- Generator: Adobe Illustrator 29.6.1, SVG Export Plug-In . SVG Version: 2.1.1 Build 9)  -->
  <defs>
    <style>
      .st0 {
        fill: #fff;
      }
    </style>
  </defs>
  <g id="Layer_1-2">
    <g>
      <path class="st0" d="M5.2,3.5l4.7-2.1,4.5-.7,4.7,2,4.9,6.4s3.6,10.2,3.6,10.4,4.1,4.8,4.1,4.8l-.7,2.3-2.5,2.1-.2,10.1-.4,4.2-1.3,1-1.8-1.5-.6-6.1v-3.6s-1.1-2.5-1.1-2.5l-1-.5-1.1,1.4-.4,4.6-1.4,1.9-2.3-.9-1.7-3-.2-3.6-.5-1.7-1.5-1-1.3,2.5-1.2.6-1.6-.6-1.8-2.9-4-1.5-2.2-2.9-.3-5.1.5-6,1.2-4.5,2.8-3.7h0Z"/>
      <g>
        <path d="M31.3,27.1c-.4.4-.8.7-1.1,1.1-1.6,2.1-1.3,3.7-1.2,6.2,0,1.1.1,2.2.1,3.2,0,1.8.3,4.4-.5,6.1,0,.1-.1.2-.2.3,0,0-.9.5-1,.5-.2,0-.8.1-1,0-.5,0-1.3-.7-1.6-1-.8-.9-1.2-4.2-1.4-5.4-.2-2.3.3-4.9-.4-7.1,0-.2-.2-.5-.5-.6-.4,0-.7.9-.7,1.2-.2,1.8.1,3.4-.9,5.1-.5.7-1.8,1.5-2.6,1.3-1.5-.2-2.5-1.5-3.1-2.8-.7-1.6-.6-3.9-1-5.6,0-.2-.3-1.1-.6-1-.5.2-.5,1-.7,1.4-.7,1.4-2.5,2.1-3.8,1.1-.9-.7-1.3-1.9-1.9-2.8-.6-.8-1.4-.8-2.2-1.1-2.2-.9-3.6-1.8-4.4-4.1-.8-2.1-.5-4.1-.4-6.3,0-.8,0-1.2.1-2C.7,10.8,1.2,5.9,4.7,3.2,6.9,1.4,11.7-.5,14.6.1c4.9,1.1,7.1,4,9.4,8.1,1.5,2.8,2.4,5.9,3.6,8.9.3.7.7,1.8,1.1,2.5.2.4.6.5.9.8,1.7,1.8,4.1,4.3,1.8,6.7h0ZM12.7,1.5c-2.2,0-3.7.8-5.5,1.9-2.9,1.8-3.5,2.9-4.5,6.1-.9,3-1.3,6.1-1.4,9.2,0,1.9.3,4.9,1.8,6.2,1.6,1.4,2.7,1.1,4.5,1.7.9.3,1,1.3,1.3,2,.3.6,1.4,2.1,2.1,1.1.3-.4.5-1.3.8-1.8.3-.6.9-1,1.6-1,2.3,0,2.3,3.9,2.6,5.5.1.9.6,2.8,1.2,3.4.5.5,1.9.9,2.4.3,1.4-1.5.3-4.6,1.3-5.9.7-.9,2.6-1.1,3.2-.1,1.4,2.2,1.1,7.5,1.2,10.1,0,.5,0,2.1.4,2.4.4.3,1,.2,1.4,0,.5-.3.6-.9.6-1.4.1-1.8,0-4,0-5.9,0-1.4-.2-2.9-.1-4.3.1-1.7.3-2.5,1.5-3.7.7-.6,1.5-.9,1.7-1.9.2-1.1-.1-1.4-.7-2.2-1.1-1.4-2.5-2.4-3.3-4-1-2-1.5-4.4-2.2-6.5-.9-2.8-2.3-5.7-4.4-7.6-2-1.9-4.5-3.6-7.4-3.5h0Z"/>
        <path d="M18.9,10c.7-.2.3.8.2,1.1-.4,1.2-1.5,3.1-2.1,4.2-.2.4-1.1,1.7-1.1,2.1,0,.1.2.3.2.5s0,.2,0,.4c.1.4,5.3,2.8,6.1,3.2,2,1.1,3.9,2.8,4.1,5.2,0,.4-.2,1.2-.5.6s-.3-1-.4-1.4c-.5-1.3-.8-1.7-1.9-2.5-2.4-1.8-5.3-2.6-7.6-4.5-.2-.1-.6.2-1.2,0s-.5-1.6,0-1.8c.2,0,.4,0,.5-.1.1,0,.4-1,.6-1.2.7-1.4,1.6-2.7,2.3-4.1.2-.3.6-1.5.8-1.6h0Z"/>
        <path d="M12.6,4.5c.7-.5,1.3,1.7.3,1.8-.5,0-.8-1.4-.3-1.8Z"/>
        <path d="M23.2,14c.3.2.7,1.7,0,1.8-.6,0-.8-1.4-.5-1.8.2,0,.4,0,.5,0h0Z"/>
        <path d="M4.2,16.8c.7,0,.7,1.7-.1,1.6-.6,0-.4-1.5.1-1.6Z"/>
        <path d="M6,9.2c.7-.2.6,1.4.3,1.6-.8.5-.7-1.5-.3-1.6Z"/>
        <path d="M18.7,34c-.3.3-.7-.2-.8-.4-.2-1,.6-1.4.8-.5,0,.2,0,.8,0,1Z"/>
        <path d="M16,26.1c.7-.2.8,1.5.2,1.5s-.5-1.4-.2-1.5Z"/>
        <path d="M6.6,21.9c.5,0,.6,1,.5,1.3,0,.2-.3.2-.5.2-.4-.1-.5-1.4,0-1.5h0Z"/>
        <path d="M28.5,23.8c.6,0,.7,1.2,0,1.3-.5,0-.6-1.3,0-1.3Z"/>
      </g>
    </g>
  </g>
</svg>