<?xml version="1.0" encoding="UTF-8"?>
<svg id="Layer_2" xmlns="http://www.w3.org/2000/svg" xmlns:xlink="http://www.w3.org/1999/xlink" version="1.1" viewBox="0 0 370.8 232.4">
  <!-- Generator: Adobe Illustrator 29.6.1, SVG Export Plug-In . SVG Version: 2.1.1 Build 9)  -->
  <defs>
    <style>
      .st0 {
        fill: none;
      }

      .st1 {
        fill: #fff;
      }

      .st2 {
        clip-path: url(#clippath);
      }
    </style>
    <clipPath id="clippath">
      <rect class="st0" width="370.8" height="232.4"/>
    </clipPath>
  </defs>
  <g id="Layer_1-2">
    <g id="Group_9086">
      <g class="st2">
        <g id="Group_9085">
          <path id="Path_7125" class="st1" d="M81.5,146.9l11-11.1,10.4-5.1,17.5-10.1s34.4-11.3,36.7-11.8,60.9-7.1,60.9-7.1l85.5,8.8,26.8,11.8,38.2,42.2s-2.9,24.4-4,24.9-24.4,29.2-25.8,29.8-35.2,8.8-35.2,8.8c0,0-40.6,3.3-41.4,3.2s-33.2-4.8-35.5-5-47.2-4.3-47.2-4.3c0,0-34.6-2.5-34-2.7s-22.4-4.3-22.4-4.3l-15-17.1-18.7-23-7.8-17.6v-10.2h0Z"/>
          <path id="Path_7110" d="M80.3,163.5c-4.2-10.4-2.9-16,5.1-23.4,31.8-29.2,92-39.8,133.9-39.1,29.6.5,63.4.4,91.9,9.4,18,5.7,50.5,33.5,57.6,51.1,3,7.4,2.5,11.3.1,18.9-3.2,10.3-11.6,22.2-18.8,30.3-18.9,21.1-65.7,22.9-92,21.3-23.3-1.4-48.4-6.4-71.7-6.5-6.4,0-11,.8-18,0-14.5-1.6-28.7-5.6-43.2-7.7-3.8-1.1-8.9-5.3-11.9-8-12.6-11.4-20.8-26.6-30.3-40.4-6.2,0-12.4,1-18.8.7-37.7-1.9-71.1-53.4-60.3-92.3C13.9,42.6,50.5,24.5,84.8,29c25.8,3.4,56.7,25.1,82.1,18.7,16.9-4.3,24.8-21.6,14.8-36.5-1.1-1.6-5.8-5.9-6-6.5-.5-1.7,1.4-1.8,2.7-1.3,4.1,1.7,9.9,11,10.5,15.4,4.9,36.7-35.1,37.4-60.2,28.8-25.4-8.7-43.3-20.8-71.7-14-22.7,5.5-43.8,23.3-49.2,46.7-6.5,28.2,7.8,62.7,38.9,81.9,10.8,3.7,22.5,4.2,33.5,1.4M363.7,176.8c1-1.2,1.3-10.1.8-11.9-2.5-9.7-18.2-25.9-25.9-32.3-9.4-7.8-21-16.8-33-19.7-26.2-6.2-55.6-7.6-82.5-8.1-2.5,0-15.5-.1-16.7.9l-13.6,17.3,1.9,2c6.3-.1,6.8,3.1,5.5,8.6-4.3,1.5-8.9,2.2-13.4,2.1,15.9,15.5,29,34.5,36,55.7,1.5,1.7,19.6,4.5,22.9,4.8,27.2,3,50.6,4.1,77.2-3.3,9.6-2.7,21.6-6.4,30.6-10.5,2-.9,9.1-4.4,10.2-5.8M201.9,105.7c-5,.6-10.5.3-15.4,1-3,.4-6,1.6-8.9,2.1-23.1,4.1-45.6,7.1-66.6,18.1-5.5,2.8-10.7,6.2-15.4,10.3,7.6-2.5,15.2-4.6,23-6.4,2.6-.5,5.2,0,8.1-1.2,1.7-.7,3.1-1.9,5.2-2.7,4.5-1.5,19.5-3.5,23.4-1.6,1.7.8,1.4,1.8,3.9,1.7,4.6-.1,6.9-1.4,10.7-2.3,5.1-1.2,11.1.2,16.2-.9,4.9-6.4,10.2-12.4,15.9-18.1M192.2,125.6l-21.4,1.4-.7.7v2.9c0,0,22.6-.9,22.6-.9l-.5-4.2h0ZM150.1,127l-5.1.5c.1,2.8-.2,5.6-.9,8.3l4.4-.9,1.6-7.9h0ZM143.2,127.4l-4.6.5c1.2,2.7,0,5.6-.5,8.3l3.6-.5,1.5-8.2h0ZM151.1,134.4c1.1.1,5.7-.7,5.9-1.6.5-1.9-2.9-5.7-5-5.3,1,2.1-.2,4.9-.9,6.9M198.2,127.4h-3.2v4.1c-3.7.9-7.6.2-11.3.5-3.9.2-11.2,1.6-14.8.9-2.3-.4-1.5-3.4-2.5-4.9-1.3.4-7.1.4-7.4,1.5.5,1.2,0,3.9,1.6,4.2,5.1-.2,35.8,1.2,37.9-1.7l-.3-4.7h0ZM137.2,128.4l-3.6,1-.5,7.8c4.4.9,3.2-5.9,4.2-8.8M131.7,130.2c-2.3-.9-7,6.4-6.5,6.9h5.5l.9-6.9h0ZM124.3,132.1c-5.6,1.3-11.5,2-17.1,3.5-4.4,1.2-16.1,4.9-19.4,7.4-3.1,2.3-3.7,5.6-5.1,9,11.9-6.6,24.9-11,38.4-13.2l3.2-6.7h0ZM213.1,180.1c-5.7-13.6-15.6-24.4-24.3-36.1-2.7-3-5.9-5.6-9.4-7.8-5.9-.6-11.7.5-17.5.8-24.2,1.4-49.6,2.9-71.8,13.3-1.1.5-7.3,3.4-7.5,4.1.6,2,1.4,4,2.3,5.9,1.9,3.5,6.9,9.9,9.6,13,1.8,2.1,10.1,10.5,12.3,10.9,10.9-1.3,22-4.4,32.9-5.5,16.1-1.5,32.4-1.5,48.5,0h8.3l16.4,1.4h0ZM98.8,183.4c6,9.1,11.8,18.6,20.3,25.7,1.4,1.3,3,2.3,4.8,3.1,6.1,2.2,20.2,4.5,26.9,5.4,16.2,2.1,31.4,3.2,47.6,3.8,23.6.8,48.4,6.4,72.1,7.9,16.4,1,47.7-5,62.6-11.8,13.9-6.3,21.9-22.8,27.8-36.1l-6.5,3.7c-15.3,8.2-32.4,12.1-49.4,15.3-13.7,2.6-23.5,2.3-37.3,1.5-13.7-.8-27.7-1.3-40.9-5.3-2-.6-8.1-2.1-8.9-3.6-.9-1.7-1-6.3-3-7.2-9.2-.9-18.4-2.6-27.6-3.4-21.9-1.8-44.4.7-66.1,3.8-4.1.6-12.4,3.2-16,2-1.2-.4-6.1-5.2-6.5-4.8"/>
          <path id="Path_7111" d="M320.8,184.3c.2,1.4-.3,1.8-1.6,1.9-4.9.4-18.4-5.1-23.1-7.5-.4-.2-4.9-2.4-4-3.2,9.6,2.6,18.5,8.2,28.7,8.8"/>
          <path id="Path_7112" d="M309.2,173.2l23.8,5.6c2,.5,1.4,1.7-.4,1.9-3,.3-19.1-4.4-22.2-6-.7-.3-1.3-.4-1.1-1.4"/>
          <path id="Path_7113" d="M300.9,186.6c-3.4.2-6.5-1.6-9.7-2.6l-14.3-7.2c5.9,1,11.5,4.1,17,6.4,1.8.7,4.4,1.1,5.9,1.9.7.3,1.3.4,1.1,1.4"/>
          <path id="Path_7114" d="M338.4,171.4c-.4,2.9-6.2,0-8.4-.6-1.7-.4-3.5-.6-5.2-.8-.8-.1-.8.2-.7-.9,5-.8,9.6,1,14.3,2.3"/>
          <path id="Path_7115" d="M181.4,186.3c2.7,0,11.4,0,13.3,1.3,1.1.7,2.2,3.7,1.2,4.8-1.7,1.9-9.5,1-12.3,1.1-9.4.2-18.8,1.1-28.1,2.6-6.9-1-6.9-6.8-.4-8.5,6.6-1.7,19.2-1.4,26.3-1.3M194.1,190.8c0-1.9-2.9-2.2-4.4-2.3-5.9-.5-14.4-.2-20.4,0-3.5.1-10.1.3-13.3,1.1-2.3.6-2.2,2.5-.6,3.9,12.7-2.4,25.7-2.8,38.6-2.6"/>
        </g>
      </g>
    </g>
  </g>
</svg>