<?xml version="1.0" encoding="UTF-8"?>
<svg id="Layer_2" xmlns="http://www.w3.org/2000/svg" version="1.1" viewBox="0 0 491.7 177.9">
  <!-- Generator: Adobe Illustrator 29.6.1, SVG Export Plug-In . SVG Version: 2.1.1 Build 9)  -->
  <defs>
    <style>
      .st0 {
        fill: #fff;
      }

      .st1 {
        fill: #fd8721;
      }
    </style>
  </defs>
  <g id="Layer_1-2">
    <g>
      <path d="M320.4,10.2c2.1,0,3.4-2.1,5.6-2.6,4.8-1,8.1.9,10.4,5.1,3.1-2.3,10.8-6,14.6-6.1,4.8,0,8.8,2.6,11.4,6.5,5-3.7,10.3-6.7,16.4-3.5,3,1.6,3.6,3.7,5.4,6.3,2.1-1.7,4.4-4.2,7.3-4.4,5.3-.4,11,3.8,11.1,9.3,2.2-.3,3.8-1.8,6.2-1.5,3.7.4,5.7,2.4,8.5,4.3,6-4.4,15-2.8,17.8,4.4l12.2.6c11,5.3,13.4,17.7,17.4,27.9,6.6,16.8,14.4,33,21.8,49.4,5.9,13.2,9.7,23.1-3.7,32.7-6.7,4.9-18.7,9.3-26.7,12.2-17.8,6.4-36,10.3-54.3,14.9-32.2,8.1-60.9,12.8-94.5,12-39.3-.9-83.4-6.2-121.1-17.7-11.9-3.6-23.5-8.5-35.1-13.1-.5,0-3.2,3.2-4.7,3.7-2,.6-3.8-.2-5.5.9-2.5,1.6-.5,5.4-5.3,7.3-3.1,1.2-11.2,2-14.8,2.2-1.3,0-5.7.3-6.5-.4-.6-.5-2.1-5-2.2-5.9-.2-2.4,2.3-6.9,4-8.4s4.1-1.6,5.3-2.8c.8-.9,1.4-2.9,2.1-4,.5-.8,2-1.7,2-2.5s-5.4-4.6-6.5-5.7c-5.2-4.7-6.4-7.8-5.5-15.2,3.6-7.1,7.7-13.9,11.4-21,8.2-15.9,16-32,24.8-47.6,1.3-2.2,5.9-10.5,7.4-11.6,5.8-4.3,24.9-8.3,32.1-7.9,1.2,0,2.5.7,3.6.7,4.7.1,8.1-3.7,12.9-2,.8-1.1,1-2.3,1.7-3.6,3.9-6.8,12.2-10.4,19.8-7.7,2.7,1,3.6,3,5.7,4s2.5-.7,4.5-1.1c1.4-.2,3.6.4,4.1.1.6-.3,2.8-3.6,4.1-4.4,3.6-2.4,8.7-1.9,10.5,2.2h.6c4.7-5.4,12.3-6.6,19-5.2,4.1-6.1,11.7-7.1,17.8-3.3,4.5-5.2,10.7-8.7,17.8-7.6,3.7.6,7.5,6.9,9.2,10h0ZM316.2,13.1c.6-1.1-4.7-8.9-6-9.4-1.9-.8-7.8.6-9.6,1.7-2.2,1.3-4.8,5.7-6.9,6.1-1.7.3-3-1.5-4.6-2.1-3.4-1.2-4.9-1-7.6,1.1-1.2.9-3.9,4.9-4.3,5-2.1.7-5.1-1.3-7.3-1.4-1.8,0-4.4,1.1-5.9,1.9-3.2,1.9-4.6,3.3-5,7.1,0,.9.8,1.9-.4,2.6-1.8-1.3-5.6-8.1-7.4-8.4-2.5-.4-6.4,6.3-7.7,6.7-2.2.7-4.1-1.8-6.4-1.5-1.9.2-3.3,2.5-5.3,2.8-.7-.2-1.2-2.4-1.7-3.2-1.1-1.6-4.3-3.2-6.1-3.6-5-.8-8.9-.3-12.2,3.8-2,2.5-2.6,5.1-3.2,8.1-.5.4-6.5-2.1-8.5-1.2s-4.5,6.3-6.7,6.3c-.8,0-.6-.8-1.2-1.2-.7-.5-3.6-2.1-4.3-2-1.7.2-6.1,5-6,6.6,3.9,9.1,15.4,10.9,23.9,13.6-.6-7.3,7.8-10.5,13.8-8.1,2.2-11.5,14.4-12.6,19.9-2.8,4.4-3.6,10.8-1.3,11.3,4.5,6.5-1.8,9,1.3,11.2,6.8.2.6,1.7,4.5,1.7,4.8,0,.5-.1,1.3-.6,1.4-1.8.4-4.8-10.3-9.3-10.6-2.4-.1-4.2,3.9-5.2,3.7-1.8-.4.1-8.4-4.4-8.9-3.3-.4-3.6,3-5.4,2.2-1.6-.7-2.6-7.1-7.2-7.5-6.2-.4-8.6,7.3-9.1,12.2-.9.6-3.4-2.3-4.4-2.7-4.4-1.4-8.8,2-9.3,6.3,2.9.4,5.6,1.6,8.5,2.2,24.1,5.8,51.1,10.9,75.9,10.5,21-.3,42.2,0,63.2-2.3,19.8-2.2,50.9-7.7,68.3-17.1.6-.3,3-2,3.1-2.5-.8-3.3-2.1-5.5-5.8-4.2-1.5.5-3.1,2.9-4.2,2.3-1-.6-2.1-5.8-4.8-6.9-.6-.2-2.8-.7-3.4-.6-3.8.2-6.2,6.1-7.4,6.4-2.1.6-2.1-2-3.2-2.7-1.9-1.2-6.1-.7-8,.4-2.1,1.2-2.9,4.2-5.5,4.8-1-2.7,2.5-6.5,4.7-7.6,4-2,7.9-1.5,11.6.7,5.4-6.8,13.2-6.5,17.5,1.2,5.4-2.5,9-1.5,11,4.3h.6c3.3-2.1,8.1-3.8,6.6-8.8-1.1-3.6-3.8-4.1-6.4-5.7-2.3-1.5-2.1-2.7-5.8-3.1-4.4-.5-3.6,1-6.2,1.8-3.7,1.1-3.6-2.6-5.4-3.8-.2-.1-3.4-.9-3.8-.9-2.3-.2-3.6,1.4-5.6,2-5.5,1.5-3.8-2.8-5.9-5.8-.8-1.2-3.7-3.2-5.2-3.4-4.6-.5-5.1,4.2-8,4.4-4.1.3-3.1-3.6-5.4-5.9-3.7-3.8-8.2-3.1-12.4-.7-2.5,1.4-2.9,4.2-5.6,4.2-2.5,0-3-2.9-4.4-4.4-4.5-4.7-11.4-1.1-16,1.7-2.4,1.4-3.7,3.7-6.6,2.9s-3.2-5.6-5.3-5.4c-1.8.1-10,4.2-12,5.3s-5.9,4.6-7.9,4.2c-1.6-.3.2-2.6.8-3.2,1.5-1.7,4.3-3.6,6.2-4.9h0ZM152,144.5c26.6,13.1,55.1,19.1,84.2,23.7,30.2,4.8,62.3,7.6,92.8,6.3,43.7-1.8,81.3-13.5,122.5-26.5,6.5-2,17.4-6.1,23.4-9,2.1-1.1,10-5.7,11.5-7.1,1.4-1.4,2.8-4.6,2.8-6.5,0-1-.4-4.6-.6-5.5-1.2-4.9-5.6-13.8-7.8-18.9-2.9-6.7-6.2-13.3-9-20.1-5.4-12.9-10.2-29.5-16.5-41.4-3.2-6.1-8.3-7-14.6-7.8-.4,3,1.1,5.1-.4,7.9-1.3,2.5-4,3.7-6.2,5.1-21.5,13.2-45.8,17.9-70.6,20.9-18.7,2.3-35.9,3.3-54.6,3.3-7.2,0-14.3.4-21.5.4-26.4.2-49.4-5.8-74.5-12.2-8.3-2.1-16.7-3.3-24.6-6.5-2.6-1.1-12.3-6-13.1-8.4-1.1-3.4,1.6-4.1,3.1-5.9.6-.8,1.4-2,2-2.8.2-.3.9-.7.2-1-4.8,1.2-10.1,1.6-14.9,3-3.8,1.1-4.5,2.2-7,5.2-11.8,21.8-24.4,43.3-35.9,65.2-2.8,5.3-8.3,13.1-4.8,19.1.7,1.1,9.8,8.9,10.8,8.9s1.5-.9,2.5-1.1c7.8-1.2,19.7,2.9,20.9,11.6h0ZM146.1,139.5c-3.7-3.1-7-3.8-11.8-3.4-4.3.3-6.5,1.7-8.9,5.3-.8,1.2-2,4.8-2.4,5.2s-3.1.4-4.4,1.3c-2.7,1.7-5.3,9-1.7,10.8,5.8-1.2,11.7-.8,17.4-2.4,1.7-2.6,3.4-7.6,7-8.1.9-.1,1.6.3,2.3.3,2.5-.1,5.5-3.1,5.1-5.6-.1-.8-1.9-2.8-2.5-3.3h0Z"/>
      <path d="M94.1,117.1c5.2-.2,8.7,1.9,9.6,7.2,1.2,6.9-1.4,13.7-7.1,17.9-4.8,3.5-9.7,6.3-15.7,5.7-8.2-.7-9-8.3-10.3-15-4.2,1.1-6.6,2-10.8,0-8.8-4-5.3-16.8,1.7-20.7,1.5-.9,3.3-.9,4.5-1.6,1.4-.8,3.7-4.1,5.6-5.4,9.9-7,19.9,2.3,22.6,11.8h0ZM98.8,134c.2-.3,2.1-6.8,2.2-7.4,0-1.6-1.3-5.6-3.1-5.9-1.5-.2-3.4,1.1-4.9,0-1.1-.8-2.9-6.1-3.7-7.6-2.3-4.2-9.7-8.6-14.4-6.2-2.1,1.1-4.2,5.4-5.9,6.2s-6.3,1.7-7.6,2.9c-.4.4-3.5,5.2-3.6,5.7-.9,4,.5,7.3,4.3,8.9,3.4,1.4,8.7-2.7,10.9-1.1,1.9,1.4.8,13.6,6.5,14.9,3.3.8,9-1.7,11.9-3.3,1.8-1,6.2-5.5,7.6-7.2h0Z"/>
      <path d="M18.2,120.4c2.9-.5,9.9.5,12,2.8,4,4.3,4.7,16.1,0,20.2-2.4,2.1-15.4,8.9-18.4,9.5-9.1,1.8-12.5-6.1-11.8-13.8.6-6.8,11.4-17.7,18.1-18.7h0ZM5.1,148.6c1.2,1.1,6.7.4,8.4-.1,6-1.9,8.7-4.4,13.4-8.1,2.2-1.7,3.1-.7,3.6-4.5.7-5.5-1.2-11.6-7.4-12.3-5.2-.6-10.5,2.2-13.8,6.1-.7.9-5.8,8.2-5.9,8.7-.4,1.9.3,8.9,1.7,10.2h0Z"/>
      <path class="st0" d="M152,144.5c-1.2-8.8-13.1-12.9-20.9-11.6-.9.1-1.9,1.1-2.5,1.1-.9,0-10.1-7.8-10.8-8.9-3.5-6,2-13.8,4.8-19.1,11.5-22,24.2-43.4,35.9-65.2,2.5-2.9,3.1-4.1,7-5.2,4.8-1.3,10.1-1.8,14.9-3,.6.3,0,.7-.2,1-.6.8-1.4,2.1-2,2.8-1.5,1.8-4.1,2.5-3.1,5.9.8,2.3,10.5,7.3,13.1,8.4,8,3.3,16.4,4.4,24.6,6.5,25.1,6.4,48.1,12.4,74.5,12.2,7.1,0,14.2-.4,21.5-.4,18.7,0,35.9-1,54.6-3.3,24.7-3,49.1-7.8,70.6-20.9,2.3-1.4,4.9-2.7,6.2-5.1,1.5-2.8,0-4.9.4-7.9,6.3.8,11.5,1.7,14.6,7.8,6.3,12,11,28.5,16.5,41.4,2.8,6.8,6.2,13.3,9,20.1,2.2,5.1,6.6,13.9,7.8,18.9.2.9.6,4.5.6,5.5,0,1.9-1.4,5.1-2.8,6.5-1.5,1.4-9.4,6.1-11.5,7.1-6,2.9-16.9,7-23.4,9-41.1,13-78.7,24.7-122.5,26.5-30.5,1.2-62.6-1.6-92.8-6.3-29.1-4.6-57.6-10.6-84.2-23.7h0ZM180.6,84.3c.3-2.4-.7-4.5-1.8-6.5-.7-1.3-1.8-3.3-3.4-3.6-.5.6,3.5,8.3,4.2,9.3.3.5,0,1,1.1.8h0ZM178.6,90.8c.7-.7-3.3-8.3-4-9.6-.8-1.5-2.7-4.9-3.8-5.9-.5-.6-.6-.8-1.6-.7-.1.7,0,1.3.3,1.9.6,1.7,6.3,12.8,7.4,13.7.6.4.9.7,1.6.6h0ZM175.4,102.5c-.4-4.4-2.4-9-4.2-13-1.2-2.5-5.6-11-7.1-12.7-.5-.6-.6-.8-1.6-.7l12.9,26.3ZM313.2,83.7c-1.9,0-3.3,1.3-3.5,3.2.9,5.1-.2,12,1.9,16.8,1,2.2,6.2,7.3,8.3,8.7,1.2.8,4.1,2.6,5.4,2.2,4.9-6,4.8-15.9,0-22.2-1.6-2.1-7.4-6.9-9.7-8.1-.7-.3-1.6-.7-2.4-.7h0ZM299.2,84c-4.8.6-11.4,11-12.6,15.4-1,3.6-1,13.5,3.6,14.4,3.8.7,11.7-6.1,13-9.4,1.7-4.2,1-10.8-.2-15.2-.5-1.9-1.5-5.5-3.9-5.2h0ZM168.5,102.1c.2-1.2-.1-2.2-.5-3.3-.8-2.5-3.2-7.3-4.6-9.6-.3-.5-3.5-5.7-4.3-4.8-.1.7.2,1.2.5,1.8,1.5,3.7,3.9,9,5.8,12.4.2.4,2.5,4.3,3,3.6h0ZM455.5,92.8c-2.7-3.2-7.2-6.1-11.3-6.5l9.5,6.1,1.8.4h0ZM166.5,111.8c-.2-3-1.7-5.9-2.9-8.6-1.5-3.3-3.4-7.5-5.1-10.6-.4-.7-2.4-4.3-3.1-4.2-.9.2-.3,1-.2,1.4.8,3,3.5,8.3,4.9,11.3,1.7,3.6,3.5,8.2,6.4,10.8ZM456,100.5c.2-1-.1-1-.7-1.6-.6-.7-9.5-6.7-10.4-7-.6-.3-1.2-.4-1.9-.3-.2,1,0,.9.5,1.3,1,1,3.7,3,5,3.8,1,.7,6.8,4.4,7.4,3.7ZM159.6,112.7c.9-1-2.5-9.3-3.2-10.8-.2-.5-3.2-7.3-4.1-6.2-.1.8,0,1.6.3,2.3.8,2.9,3.1,8.1,4.4,11,.2.4,1.8,4.6,2.6,3.7h0ZM464,117.1c-1.1-1.5-3-2.7-4.6-3.7-4.9-3.3-10.6-7.2-15.7-10.2-1.3-.8-4-2.6-5.2-2.9-.8-.2-1.1-.4-1.6.4,9,5.6,17.2,12.7,27.1,16.4h0ZM337.4,128.4c2.5.5,3.8-1.2,5.1-3,3.6-5.1,3.7-10.5,2.9-16.5-.5-3.9-6.3-11.4-9.6-6.1-1.1,1.8-3.6,7-4.3,9.1-2.6,8,2.1,10.3,5.9,16.5ZM273.2,103.4c-3.4.8-6.1,8.3-6.4,11.4-.4,4.4.6,17.5,7.8,13.5,2.3-1.3,7.1-5.4,7.8-8,1-3.7-2.3-10.7-4.3-13.9-1.3-2-2.1-3.7-4.9-3h0ZM467.3,126.4c-4.3-3.1-9.2-5.5-13.7-8.3-5-3.1-9.8-6.9-14.9-9.8-.8-.4-4.4-2.7-5-2.1l.5,1.3c6.6,3.9,12.7,8.8,19.2,12.7,4.2,2.5,9,5.7,13.9,6.2h0ZM312.9,112.4c-1.8-1.2-7.2-1.9-9.1-.2-6.9,6.6-15,11.7-20.1,19.9-1.5,2.5-5.1,9.1-4.6,11.8.6,4,5.2,7,8.7,8.3,8.6,3.2,12.4-1.6,20.5-1.9,9-.4,17.1,8.2,24.5-1,9.7-12.1-7.6-27.2-16.4-34.2-.9-.7-2.7-2.2-3.5-2.7h0ZM438.5,117.1c-1.2,1.2,3.5,2.9,4.2,3.3,3,1.9,6.3,4.5,9.3,6.1.4.2,3.2,1.7,3.1.5,0-1-12.7-9.2-14.6-9.7-.7-.2-1.3-.3-2-.2h0Z"/>
      <path class="st0" d="M316.2,13.1c-2,1.3-4.7,3.2-6.2,4.9-.5.6-2.3,2.9-.8,3.2,2,.4,6-3.1,7.9-4.2s10.3-5.2,12-5.3c2-.2,2.5,4.7,5.3,5.5s4.3-1.5,6.6-2.9c4.6-2.8,11.5-6.4,16-1.7,1.4,1.5,1.9,4.3,4.4,4.3,2.7,0,3.1-2.7,5.6-4.2,4.2-2.4,8.7-3.1,12.4.7,2.3,2.3,1.4,6.2,5.4,5.9,2.9-.2,3.4-4.9,8-4.4,1.5.2,4.3,2.1,5.2,3.4,2.1,3,.4,7.4,5.9,5.8,2.1-.6,3.4-2.1,5.6-2,.4,0,3.6.8,3.8.9,1.8,1.1,1.7,4.9,5.4,3.8,2.6-.8,1.8-2.3,6.2-1.8,3.6.4,3.5,1.7,5.8,3.1,2.6,1.6,5.3,2.1,6.4,5.7,1.5,4.9-3.2,6.7-6.6,8.9h-.6c-2-6-5.6-7-11-4.4-4.3-7.7-12.1-8-17.5-1.2-3.7-2.2-7.6-2.6-11.6-.7-2.3,1.1-5.7,5-4.7,7.6,2.6-.6,3.4-3.6,5.5-4.8,1.9-1.1,6.1-1.7,8-.4,1.1.8,1.1,3.3,3.2,2.7,1.1-.3,3.6-6.3,7.4-6.4.7,0,2.8.4,3.4.6,2.7,1.1,3.8,6.3,4.8,6.9,1.2.6,2.8-1.7,4.2-2.3,3.7-1.3,5.1,1,5.8,4.2-.1.5-2.5,2.2-3.1,2.5-17.4,9.5-48.5,15-68.3,17.1-20.9,2.3-42.2,2-63.2,2.3-24.8.4-51.7-4.8-75.9-10.5-2.9-.7-5.6-1.9-8.5-2.2.5-4.3,5-7.7,9.3-6.3,1.1.3,3.5,3.3,4.4,2.7.5-4.9,2.9-12.6,9.1-12.2,4.6.3,5.6,6.8,7.2,7.5,1.8.8,2-2.6,5.4-2.2,4.6.5,2.7,8.5,4.4,8.9,1.1.2,2.9-3.8,5.2-3.7,4.5.2,7.5,11,9.3,10.6.5,0,.6-.9.6-1.4,0-.2-1.5-4.2-1.7-4.8-2.2-5.4-4.8-8.6-11.2-6.8-.5-5.8-6.9-8-11.3-4.5-5.4-9.8-17.7-8.6-19.9,2.8-6-2.4-14.4.8-13.8,8.1-8.5-2.7-20-4.5-23.9-13.6-.1-1.6,4.3-6.3,6-6.6.7,0,3.6,1.6,4.3,2,.6.4.5,1.2,1.2,1.2,2.2,0,4.7-5.4,6.7-6.3s8,1.6,8.5,1.2c.7-3,1.2-5.7,3.2-8.1,3.3-4.1,7.3-4.6,12.2-3.8,1.9.3,5.1,1.9,6.1,3.6.5.8,1,3,1.7,3.2,1.9-.3,3.4-2.6,5.3-2.8,2.3-.2,4.2,2.2,6.4,1.5,1.3-.4,5.2-7.1,7.7-6.7,1.8.3,5.6,7.1,7.4,8.4,1.1-.7.3-1.7.4-2.6.4-3.7,1.8-5.2,5-7.1,1.5-.9,4.1-2,5.9-1.9,2.1,0,5.1,2.1,7.3,1.4.4-.1,3.1-4.1,4.3-5,2.7-2.1,4.3-2.4,7.6-1.1,1.6.6,2.9,2.4,4.6,2.1,2.1-.3,4.6-4.8,6.9-6.1,1.8-1.1,7.7-2.5,9.6-1.7,1.3.6,6.6,8.3,6,9.4h0ZM349.5,19.6c-3.2-.9-8.6,1.6-10.5,4.3-1.2,1.7-2.5,6.8-2.5,8.9,0,.7,1.5,4,1.9,4.3h1.7c-.3-2.4-1.1-4.2-.8-6.7.3-2.4,2.2-5.8,4.3-7,1.8-1.1,5.2-1,5.8-3.7h0ZM307.5,38.8c-.4.4-.6,1.1-1.1,1.5-1.3-1.5-1.4-3.6-2.6-5.1-2.8-3.4-8.2-3.5-11.1-.2-1.8-1.6-3.1-3.8-5.7-3.9-2.4,0-8.5,3.4-10.1,5.2-.8.9-.3,2.4.7,2.2,2.1-.5,5.4-4.6,8.3-4.6,3.2,0,4.5,5,6.1,5.2,2.1.3,3.7-3.8,6.3-3.1,1.8.5,4.1,4.6,4.6,6.3.4,1.3.5,5.3,2,5.3s3.6-4.5,4.6-5.5c3.3-3.3,7.6-4.7,11-.5,2.9,3.6,4.1,8.3,5.9,12.3,1.2,2.7,3.2,3.2,2.8-.4-.5-5.8-4.2-11.6-8.4-15.5-4.5-4.2-9-3-13.2.8h0Z"/>
      <path class="st0" d="M146.1,139.5c.7.6,2.4,2.6,2.5,3.3.4,2.5-2.6,5.5-5.1,5.6-.7,0-1.5-.4-2.3-.3-3.5.4-5.3,5.5-7,8.1-5.7,1.6-11.6,1.3-17.4,2.4-3.6-1.9-1-9.2,1.7-10.8,1.3-.8,3.8-.7,4.4-1.3.4-.4,1.7-4.1,2.4-5.2,2.3-3.6,4.6-5,8.9-5.3,4.8-.4,8.1.3,11.8,3.4h0Z"/>
      <path class="st0" d="M98.8,134c-1.4,1.7-5.8,6.2-7.6,7.2-2.9,1.6-8.6,4.1-11.9,3.3-5.7-1.3-4.6-13.5-6.5-14.9-2.2-1.5-7.4,2.6-10.8,1.1-3.8-1.6-5.2-4.9-4.3-8.9.1-.5,3.2-5.4,3.6-5.7,1.3-1.2,5.8-2,7.6-2.9s3.8-5.1,5.9-6.2c4.7-2.4,12.1,2,14.4,6.2.8,1.5,2.7,6.8,3.7,7.6,1.5,1.1,3.3-.3,4.9,0,1.8.3,3.1,4.3,3.1,5.9,0,.6-1.9,7.1-2.2,7.4h0Z"/>
      <path class="st0" d="M5.1,148.6c-1.4-1.4-2.1-8.3-1.7-10.2,0-.5,5.1-7.9,5.9-8.7,3.2-3.8,8.6-6.6,13.8-6.1,6.2.7,8.1,6.8,7.4,12.3-.5,3.9-1.4,2.8-3.6,4.5-4.7,3.6-7.4,6.1-13.4,8.1-1.7.5-7.2,1.2-8.4.1h0Z"/>
      <path class="st1" d="M312.9,112.4c.8.5,2.6,2,3.5,2.7,8.7,6.9,26.1,22.1,16.4,34.2-7.4,9.2-15.5.6-24.5,1-8.2.4-11.9,5.1-20.5,1.9-3.5-1.3-8.1-4.3-8.7-8.3-.5-2.8,3.1-9.3,4.6-11.8,5.1-8.3,13.2-13.3,20.1-19.9,1.8-1.7,7.2-1,9.1.2h0Z"/>
      <path class="st1" d="M313.2,83.7c.8,0,1.7.3,2.4.7,2.3,1.2,8.2,6,9.7,8.1,4.7,6.2,4.8,16.1,0,22.2-1.3.4-4.2-1.4-5.4-2.2-2.1-1.4-7.3-6.5-8.3-8.7-2-4.7-1-11.7-1.9-16.8.1-1.9,1.5-3.2,3.5-3.2h0Z"/>
      <path class="st1" d="M299.2,84c2.4-.3,3.4,3.3,3.9,5.2,1.2,4.3,1.9,10.9.2,15.2-1.4,3.4-9.2,10.2-13,9.4-4.7-.9-4.6-10.8-3.6-14.4,1.2-4.4,7.8-14.8,12.6-15.4h0Z"/>
      <path class="st1" d="M273.2,103.4c2.8-.6,3.6,1,4.9,3,2,3.2,5.3,10.2,4.3,13.9-.7,2.6-5.5,6.7-7.8,8-7.2,4.1-8.2-9.1-7.8-13.5.3-3.1,3-10.6,6.4-11.4h0Z"/>
      <path class="st1" d="M337.4,128.4c-3.8-6.2-8.6-8.5-5.9-16.5.7-2,3.2-7.3,4.3-9.1,3.4-5.3,9.1,2.1,9.6,6.1.8,6,.7,11.4-2.9,16.5-1.3,1.8-2.6,3.5-5.1,3Z"/>
      <path d="M467.3,126.4c-4.9-.5-9.7-3.6-13.9-6.2-6.6-4-12.6-8.8-19.2-12.7l-.5-1.3c.6-.6,4.2,1.7,5,2.1,5.1,2.8,9.9,6.7,14.9,9.8,4.5,2.8,9.4,5.2,13.7,8.3h0Z"/>
      <path d="M175.4,102.5l-12.9-26.3c1-.2,1,0,1.6.7,1.6,1.6,6,10.2,7.1,12.7,1.9,4,3.8,8.6,4.2,13Z"/>
      <path d="M464,117.1c-9.9-3.7-18.2-10.8-27.1-16.4.6-.8.8-.6,1.6-.4,1.3.3,3.9,2.1,5.2,2.9,5.1,3,10.8,6.8,15.7,10.2,1.5,1.1,3.5,2.3,4.6,3.7h0Z"/>
      <path d="M166.5,111.8c-2.9-2.6-4.7-7.2-6.4-10.8-1.4-3-4.1-8.3-4.9-11.3-.1-.4-.7-1.2.2-1.4.8-.1,2.7,3.4,3.1,4.2,1.7,3.2,3.7,7.3,5.1,10.6,1.2,2.8,2.7,5.6,2.9,8.6Z"/>
      <path d="M178.6,90.8c-.8.1-1.1-.1-1.6-.6-1-.9-6.8-12-7.4-13.7-.2-.7-.4-1.2-.3-1.9,1-.2,1,0,1.6.7,1.1,1.1,2.9,4.5,3.8,5.9.7,1.2,4.7,8.8,4,9.6h0Z"/>
      <path d="M168.5,102.1c-.5.7-2.8-3.2-3-3.6-1.9-3.4-4.3-8.7-5.8-12.4-.2-.6-.6-1.1-.5-1.8.8-.9,4,4.3,4.3,4.8,1.4,2.3,3.8,7.1,4.6,9.6.4,1.2.7,2.1.5,3.3h0Z"/>
      <path d="M159.6,112.7c-.8,1-2.4-3.2-2.6-3.7-1.3-2.8-3.6-8.1-4.4-11-.2-.8-.4-1.5-.3-2.3.9-1.1,3.9,5.7,4.1,6.2.7,1.5,4,9.8,3.2,10.8h0Z"/>
      <path d="M438.5,117.1c.7,0,1.4,0,2,.2,1.8.5,14.5,8.7,14.6,9.7,0,1.1-2.7-.3-3.1-.5-3-1.6-6.3-4.2-9.3-6.1-.7-.4-5.4-2.2-4.2-3.3h0Z"/>
      <path d="M456,100.5c-.6.6-6.4-3.1-7.4-3.7-1.3-.9-4-2.8-5-3.8-.5-.5-.7-.3-.5-1.3.7,0,1.3,0,1.9.3.9.4,9.7,6.4,10.4,7,.5.5.9.5.7,1.6Z"/>
      <path d="M180.6,84.3c-1,.2-.7-.3-1.1-.8-.8-1.1-4.7-8.8-4.2-9.3,1.6.3,2.7,2.3,3.4,3.6,1.1,2,2.1,4.1,1.8,6.5h0Z"/>
      <path d="M455.5,92.8l-1.8-.4-9.5-6.1c4.1.4,8.7,3.3,11.3,6.5h0Z"/>
      <path d="M307.5,38.8c4.2-3.8,8.8-4.9,13.2-.8,4.2,3.9,7.9,9.7,8.4,15.5.3,3.5-1.6,3.1-2.8.4-1.8-4.1-3-8.7-5.9-12.3-3.4-4.2-7.7-2.8-11,.5-1,1-3.7,5.5-4.6,5.5-1.5,0-1.6-4-2-5.3-.6-1.7-2.8-5.8-4.6-6.3-2.6-.7-4.2,3.4-6.3,3.1-1.6-.2-2.9-5.2-6.1-5.2-2.9,0-6.2,4.1-8.3,4.6-1,.2-1.5-1.2-.7-2.2,1.6-1.8,7.7-5.3,10.1-5.2,2.6,0,4,2.3,5.7,3.9,2.9-3.3,8.3-3.2,11.1.2,1.2,1.5,1.4,3.6,2.6,5.1.6-.3.8-1.1,1.1-1.5h0Z"/>
      <path d="M349.5,19.6c-.6,2.6-4,2.6-5.8,3.7-2.1,1.2-4,4.6-4.3,7-.3,2.5.5,4.3.8,6.7h-1.7c-.5-.2-1.9-3.5-1.9-4.2,0-2,1.3-7.1,2.5-8.9,1.9-2.7,7.3-5.2,10.5-4.3h0Z"/>
    </g>
  </g>
</svg>