<?xml version="1.0" encoding="UTF-8"?>
<svg id="Layer_2" xmlns="http://www.w3.org/2000/svg" xmlns:xlink="http://www.w3.org/1999/xlink" version="1.1" viewBox="0 0 229.3 321.4">
  <!-- Generator: Adobe Illustrator 29.6.1, SVG Export Plug-In . SVG Version: 2.1.1 Build 9)  -->
  <defs>
    <style>
      .st0 {
        fill: none;
      }

      .st1 {
        fill: #ff5c8a;
      }

      .st2 {
        fill: #fff;
      }

      .st3 {
        clip-path: url(#clippath);
      }
    </style>
    <clipPath id="clippath">
      <rect class="st0" width="229.3" height="321.4"/>
    </clipPath>
  </defs>
  <g id="Layer_1-2">
    <g>
      <path class="st2" d="M38.9,186.7l-15.2,19.1,4.9,1.3,10,3.7,5.6,5.3,3.9,7.1,3.1-2.9,8.7-12.4-.4,4.8,5.7,9.8,10.3,8.2,9.4,4.7,4.8,2.9,5.9,3.2s10.3,5.9,10.8,6.1,15.6,6.6,16.1,6.6,8.9,4.2,8.9,4.2l15.6,6.4,5.8-.5,6.8-4-.5,4.2-5.4,13.3v7.2c-.1,0,13.2,3.3,13.2,3.3l10.8,8.1,3.3-4.1,5.6-22.1,1.7-1.2,12.1,6.5,2.2-16.2,3.1-30.1.7-31-1.1-8.9,3.3-9.6,5.4-25.8,4.6-24.9,6.5-31.8,2.6-14.9-.6-7.4-4.7-2.8-2.6.5v-4.1c.1,0,5.3-18.4,5.3-18.4l1.8-12.4.5-13.6-1.2-12.6-3.2-10.6-3.8.7-20.4,15.3-17.3,17.1-13.8,16.4-5-5.5-6.3,1.9-5.8,5.3-11.9,14.1-13.2,15.4-22.1,26.4-6.1,7.1-10.5,12.7-8.6,9.6-17.9,12.9-34.2,26.1-2.4,3.5,14.7,6.9h0Z"/>
      <g class="st3">
        <g id="Group_9054">
          <path id="Path_6961" d="M153,282.1c1.2-.4,2.3-1.2,3.7-1.3,7.4-1,18.1.8,21.2,8.7,1.2,3.2-.6,4.5-.8,7.5,1.7-.4,3.3-1.3,4.6-2.6,1.6-1.7,2.3-7.1,3-9.6.4-1.5,1.1-3,1.5-4.5.9-3.1,1.4-6.3,2.4-9.4.5-.5,5.1,2.6,5.9,3.1,1.6.9,3.2,1.8,4.7,2.7,1.4.8,2.4.9,3-.9.4-1.3.9-4.5,1.2-6,1.3-7.5,1.6-15.1,2.2-22.7.6-8,1.4-15.9,1.9-23.9.4-8,.3-15.9,0-24,0-1.3-.5-2.8-.4-4.1.2-3.8,2.1-9.9,3-13.8,2.7-11.4,5.6-24.3,7.6-35.8.6-3.4.7-6.9,1.3-10.3.6-3.8,1.9-7.6,2.7-11.3,1.1-5.5,1.8-11.1,2.9-16.6,2.1-9.9,5.8-20.9,4.6-31.2-.2-1.7-1.2-7.6-2.2-8.8-.3-.4-.5,0-.8.1-1.7,1.1-3.2,2.9-4.9,4.1.2-2.5,1.2-4.9,1.8-7.3,3.4-13.4,6.5-28.7,5.8-42.5-.2-4.2-1.2-7.6-1.9-11.6-.5-2.7-.1-10.6-4.5-9.8-2.4.5-7.9,4.6-10.1,6.1-9.7,6.7-18.7,14.8-27.2,23l-15.2,16.2.6-4.9c-.3,0-.7,0-1,0-1.8.3-10.1,4.1-12,5.2-6.3,3.6-11.2,11.4-15.9,16.8-5.5,6.4-11.4,12.4-17,18.6-2.4,2.7-4.5,5.9-6.9,8.7-8.8,10.4-17.7,20.8-26.5,31.2-6,7.1-11.5,14.6-19,20.3-3.4,2.6-7.4,4.6-10.8,7.1-4,2.9-7.5,5.5-11.7,8.3-7.7,5.2-14.2,10.7-21,16.9-2.2,1.9-4,4.2-6.3,6-.3.2-.3.6-.1.8,0,0,0,.1.1.1l13,7.4c-1.9,2.9-3.8,6-5.9,8.8-1.4,1.9-8.1,9.4-7.8,11.2.1.2.3.3.5.3,3.9.6,7.2.7,11,2,6,2,10.9,5.4,13.1,11.5.7,1.8.9,2.7-.3,4.4.5.4,5.3-2.8,5.7-3.7l6.9-10.5c0,.4,0,.8.1,1.2,1.8,6.5,9.1,13.1,14.5,16.9,2.7,1.9,3.5,2.1,5.9,4.6,2.8,2.9,6.7,5.5,10.8,5.9.8,0,2-.3,2.5-.2,1.7.4,6.1,3.6,7.9,4.6,4.4,2.4,8.8,4.7,13.3,6.6,1.2.5,2.2,2.1,3.2,2.9,3,2.2,8.3,2.7,11.6,3.7,3.1,1,6.6,3.5,9.7,4.7,4.5,1.8,12.4,3.4,16.9,1.5,1-.4,1.6-1.2,2.6-1.7-1,3.6-2.5,7.2-3.6,10.8-.3,1-1.1,3.7-1.1,4.5v4.1h0ZM166,56.8c3.6-5.8,8.2-10.7,12.6-15.9,2.5-3,5.2-7.3,8-9.9,1.1-1.1,2.8-2,4.1-3.1,2.2-1.9,4.2-4.6,6.4-6.4,1.5-1.2,3.5-2.2,5.1-3.5,2.9-2.2,5.5-4.8,8.3-7.1,3.9-3.2,8.1-6,12.5-8.3l2.2,7.9c2.6,11.3,1.3,22.8.5,34.2l-9.2,36.3c-.4,0-.4-.1-.7-.4-3.5-4-6.2-6.8-10.6-9.9-.9-.7-6.9-4.2-7-4.6-.6-1.2.6-6.1.6-7.8,0-.4-.2-.8-.2-1.2,0-.9.3-4.5-.6-4.7-.6-.2-5.3,2.9-6,3.5-.9.8-4.3,4.8-4.9,4.9-4.2-1.4-8.7-2.2-13.1-3-2.6-.5-5.3-1.1-7.9-1M153,51.9c1.5-1.4,5.9-5.4,7.8-5.4,1.4.2,2.7.7,3.8,1.5,1.4,1.4,1.1,5.6.4,7.3-.7,1.5-2.5,3.4-3.6,4.6-.1-4.8-3.1-9-8.4-8.1M129.8,78.6c1.9-2.2,3.6-4.6,5.5-6.8,4.5-5.3,9-10.8,13.7-15.8,2.1-2.3,2.9-3.6,6.4-2.6,2.7.8,4.4,3.3,4.7,6,.1,1,0,2,0,3-.2.7-3.2,4.3-4,5.3l-13.7,20.6c-.6-.3-.4-1.5-.6-2.1-.6-2.4-2.2-5.3-4.6-6.4-.7-.3-3.5-1.3-4.1-1.3h-3.4,0ZM116.5,153.5c1.7-.2,2.6-1.6,3.5-2.9,3.2-4.5,5.8-10.1,8.7-14.8,2.4-3.9,5.4-7.6,7.9-11.4,3.6-5.6,6.8-11.6,10.7-16.9,7.5-10,16.6-17.5,24.9-26.8,2.9-3.2,5.7-6.5,8.6-9.8,4.4-4.9,9.1-11.2,14.2-15.3.3-.2,1.8-1.3,2-1.2.1.4.2.8.2,1.3-.2,7.7-1.4,14.3-2.3,21.9-1.5,11.7-2.9,23.2-4.2,34.8-1.4,12.7-5.3,25.6-8.6,37.9-1.2,4.5-2.4,8.1-3.8,12.5-1.5,4.5-2.9,9-4.4,13.6l.7-.3c4.2-10.1,8.2-20.5,10.9-31.2,1.5-5.8,2.4-12.6,4.4-18.2,0-.2,0-.5.3-.5.1,2.2,1.3,4.3,1.9,6.3,4,13.2,7.4,24.9,9.5,38.6,1,6.7,2.8,14.8,3.2,21.4.2,3.1-.3,6.5-.2,9.8.2,8.6,1.1,16.9,0,25.5-.3,2.5-1,5-1.3,7.5-1.1,8.1-2,16.1-2.1,24.3-.3,0-.6,0-.9-.2-2.4-.9-7.1-3.8-9.5-5.1-5.1-2.8-10.1-6-15.2-8.8-6.9-3.8-12.8-6.1-18.9-11.5-2.9-2.6-4.9-5.3-7.4-8.1-1.1-1.3-2.5-2.3-3.7-3.6-.2-1,.1-2,0-3.1-.1-1.8-1-7.7-2.5-8.7-3.2-2.2-10.4,2.7-13,4.8-5.5-4.3-11.8-7.4-18.5-9.3.5-2.6,2.1-11.1-.6-12.6-.9-.4-1.9-.6-2.8-.9-1.7.3-3.3.8-4.8,1.5-1.1.7-2.1,1.5-3,2.3-2.7,2.4-4.3,6.2-8.2,5.9-11.4-.7-20.7-8.8-30.3-14.1l-28.6-14.4c4.4-3.4,8.3-7.5,12.8-10.9,2.8-2.1,5.8-3.8,8.6-5.8,4.8-3.4,9.2-7.2,14-10.6,15.9-11.2,33.5-21.2,51.5-28.8,6.3-2.6,12.5-5,18.6-8.1,1.9-.9,3.7-2.1,5.5-3.1l-27.8,46.7h0ZM154.2,73.5c3.1-5.3,6.5-10.3,10.4-15.1,3.4,0,6.8.2,10.1.7,3.6.6,7.3,2.1,10.9,3l-12.9,15.6c-5.9-2.1-12.3-2.9-18.4-4.2M197.9,67.9c.2,0,.5,0,.7.1,1.5.6,5.7,3.5,7.1,4.5,2.9,2.2,5.7,4.7,8.1,7.4.8.9,2.2,2.4,1.9,3.6l-5.1,19.9c-1.8-1.7-3.2-3.7-5-5.4-3.1-2.9-6.7-5-10.1-7.4.2-7.7,2.6-15.1,2.3-22.9M217.9,82.1c.6-1.3,1.6-7.1,2.6-7.8,1.1-.8,3.5.1,4.6.8,2.9,1.7,1.8,6.1,1.7,8.9-2.8-2.1-5.4-2.7-8.8-1.9M126.3,113.3l27.2-38.7,17.9,4.1-.2.8c-10.4,11.4-22,22-35.7,29.4-3,1.6-6.2,2.9-9.2,4.4M126.6,82.2c5.7-3.7,12-.3,13.1,6.2.2,1.2.4,2.6,0,3.8-1,1.6-2,3.2-3.2,4.7-3.1,4.3-6.4,8.5-9.5,12.8-.6.9-3.5,4.6-4.1,4.9-.8.4-1.7.6-2.6.8-2.3-3.3-5.4-6.7-9.4-7.8-1.6-.4-3.2-.1-4.7-.6,1.7-2.7,4.2-4.8,6.2-7.1,4.9-5.8,9.6-11.8,14.4-17.6M208.4,117.5c.9-4.1,2.4-8,3.4-12,1.7-6.4,2.9-12.9,4.8-19.2,2.5-3.9,8.7-3.5,9.7,1.3-2.6,11.3-4.1,22.8-6.9,34.1,0,.3,0,.7,0,1-.5.1-.4,0-.5-.3-.5-.8-.8-1.6-1.4-2.5-2.6-3.2-5.1-3.2-8.9-2.3M198.6,145.6l-6-21.1c-1.1-9.4.9-18.8,2.2-28.1,0-.6.1-3.5.6-3.6,5.7,3,10.5,7.6,14.7,12.4l-11.5,40.4h0ZM83,134.4c1.3-1.8,3.1-3.3,4.6-5,4.6-5.2,8.9-12.2,13.6-17.1,5.7-5.9,13.6-2.4,17.3,3.6l-8.1,3.5-27.4,15h0ZM200.2,147.7c1.8-7.1,3.5-14.2,5.4-21.2.4-1.5,1.2-5.1,1.9-6.3.8-1.4,5.2-1.6,6.6-1.2,2.9.9,4.3,4.6,4.3,7.4l-5.1,27.6c-.6,0-.4,0-.5-.3-.2-.6-.3-1.6-.6-2.2-1.8-4.6-7.8-5.7-12-3.7M200.8,149.6c3.2-3.8,9.2,0,10.6,3.8,1.1,3.2.3,5.1-.1,8.1-.7,5.2-1.5,10.5-2.7,15.7-.5,2.1-1.2,4.2-1.8,6.3l-3.3-18.9c-.8-2.8-1.2-5.7-1.9-8.6-.5-2-2.3-4.6-.7-6.4M27.4,179.1c0-.4,0-.4.2-.6.3-.3,3.7-2.9,4-3.1.7-.3,4.8,2.7,5.8,3.3,2.1,1.2,4.5,1.9,6.6,3,10.5,5.4,20.6,11.5,30.7,17.4,5.4,3.2,10.7,6.1,17.2,5.8.3,0,.9,0,1.1.1-.7.7-2.6,3.7-3.4,3.8-.8,0-1.5,0-2.3,0-2.5-.2-4.9-.5-7.4-1-4.1-.9-8-4.4-11.6-6.6-12.1-7.3-24.5-14.1-37.1-20.5-1.2-.7-2.5-1.2-3.8-1.7M26.3,205.8l14.1-16.9c2.9,1.8,6.5,2.8,9.5,4.4,3.8,2.1,7.4,5.5,11.3,7.5l-12.5,20.6c-1.6-4-3.8-8.1-7.5-10.7-4.3-3-9.7-4.9-15-4.9M80.2,226.3l6.6-11.1c4.9-5.4,13.1-19.6,20.9-20.2.5,0,2,0,2.4.3,0,0,.9,1.6.9,1.7.7,2.8-.5,9.5-1.6,12.3-2.2,5.9-6.4,14-9.4,19.6-1.2,2.2-2.7,4.4-3.8,6.6l-2.3-3.9c-3.6-4.6-7.9-6.3-13.7-5.2M77.2,230.3c-.2.2-2.4-1.5-2.8-1.8-1.7-1.3-4.2-3.1-5.7-4.5-1.7-1.7-7.5-8.8-8-10.9-.7-3.5,2.5-7.8,6.2-6.6-.9,1.9-2.6,3.8-2.3,6.1h.7c0-.1,2.5-5.7,2.5-5.7.4-.3,3.7.9,3.7,1.2-.6.9-4.2,6.8-3.7,7.3.5,0,.7,0,1-.5.8-1.1,2.9-6.1,3.4-6.4.4-.3,3.2,1,3.2,1.2-1.3,1.5-2.4,3.1-3.3,4.8-.3.6-1.2,1.8-.5,2.2.9.2,3.6-6.1,4.2-7l2.7.8c0,.5-1.4,2.5-1.8,3.1-.7,1.1-1.9,2.1-1.7,3.5,2-1.5,3.3-3.9,4-6.3l3.9,1.1-2.6,4.4c1.3-1,2.2-2.6,2.8-4.2l3.2,1c-2.2,2.6-3.7,5.8-5.5,8.7-1.6,2.7-3.7,4.7-3.8,8.2M108.6,215.1l2.4-6.7c5.4,1,10.2,3.8,14.7,6.9.6.4,3.1,2,3.1,2.4-.1,1-3.8,4.5-4.1,6-.4,0-2.5-1.8-3.1-2.2-1.8-1.1-4.2-2.5-6-3.5-2.1-1.1-4.6-2.5-7-2.9M123.4,229.8c.1-.1,0-.8.2-1.1.1-.2.8-.8,1.1-1.3,3.2-5.2,9.7-15.6,16.4-15.9,1.6,0,2.5,2.4,2.6,3.8.8,6.9-2.1,14.1-3.7,20.7l-7.2,16.9c-.3.2-2.4-2.8-2.9-3.2-3.5-3.2-7.1-3.6-11.6-3.4-1.7,0-3.2,1-4.8,1.3,2-4.3,4.1-8.6,6.5-12.7.5-1,2.2-4.3,2.8-4.8.2-.2.6-.1.7-.2M94.7,239.8c1.7-1.5,3.1-3.6,4.4-5.5,2.8-4.3,4.8-9,7.4-13.3l1.3.8-4.2,8.7c.6.6,2.1-1.9,2.3-2.2,1-2,1.9-4,2.6-6.1l3.5.9c-.7,1.2-3.5,4.2-3.5,5.5,0,1,.4.9,1,.3.8-.9,2.5-4.8,3.2-5.2l3,1.4c-1,.6-5.7,9.1-5.3,9.4.9.1,1.2-.7,1.6-1.3,1.5-2.4,2.8-5.4,4-8l3,1.8c-1.5,2.7-3.3,5.4-4,8.5.5,0,.6,0,.9-.4,1.4-1.8,2.2-5.3,3.8-7.2.4-.3,1.7.8,2.1,1.2-4.6,5.6-7.2,12.5-9.9,19.2-5.6-3-11.2-6-17.1-8.4M199.8,273.5c-11.1-4.8-21.1-11.4-31.5-17.5-3.2-1.9-6.4-4.1-9.5-5.8-3.1-1.8-9.3-3.7-11.7-6-1-.9-4.7-6.2-4.8-7.3,1.2-4,2.6-8,2.8-12.2l2.4,3.3c4.4,3.8,7.7,8.8,12.5,12.1,6.4,4.5,13.7,7.9,20.5,11.8,2.1,1.2,4.2,2.9,6.2,4,4.4,2.4,9.4,4,13.8,6.7l-.8,10.9h0ZM133.2,257.7c-.3-.4,1.6-1.9,2-2.3.8-1.3,1.6-2.7,2.2-4.1,1.4-3,2-6.4,3.4-9.4l2.2,1.9c-.6.7-3.7,6-3.2,6.4.5,0,.7,0,1-.5.6-.7,2.4-5.2,2.7-5.3l2.3,1.5-3.7,7.3c.9.7,2.9-3.5,3.2-4.1.4-.7.6-1.6.9-2.3,0-.2-.1-.4.4-.3,1.3.7,2.4,1.8,3.8,2.1.3.4-2.7,5.4-2.3,6.5.7.1.8-.2,1.1-.7.9-1.3,1.6-3.6,1.9-5.1.4-.3,1.6.8,1.6,1.2,0,.7-2.4,4.2-1.8,4.8.3,0,.4,0,.7-.1.5-.4,1.8-4.5,2.1-4.3l1.3,2.2-1.6,4.1c1.1.2,1.8-2.8,2.2-2.8,1.8,2.6,1.9,4.2-.1,6.6-1,1.2-2.5,2-4.1,2.2-6.6.8-12.3-3.5-18.2-5.6M163.5,256.3l22.2,12.3-5.5,21.9c-.6,0-.4,0-.5-.3-2.9-9.6-12.5-12.5-21.7-12.2-.6,0-3.1,1.2-3.1.1,0-.1.9-1.5,1.1-1.9.6-1.4,1.1-2.9,1.8-4.3l5.7-15.6h0Z"/>
          <path id="Path_6962" class="st1" d="M10,224c-.9,1.7-1.8,3.4-2.8,5-1.3,2.3-7.1,10.7-7.2,12.6-.3,3.4,5.1,0,6.3-.6,3.1-1.8,6.1-3.7,9.1-5.8,2.7-1.9,5.2-4.3,7.8-6.2-.7,2.1-1.6,4.3-2,6.5-.1.6-.6,3.4-.4,3.8.7,1.4,4.2-1,5.1-1.7,1.8-1.3,3.4-2.9,5.3-4.1l-1.6,11.1v.8c.1,0,1.4.2,1.4.2l10.8-14.4c.2-1.6,3.2-4.7,3.2-5.9s-1-3.3-1.3-4.1c-1.9-4.3-6.7-7.4-11-8.7-2.6-.8-7.9-2-10.6-2.2-.6,0-2-.1-2.5.1-3.4,3.1-7,6-10.1,9.4-1.4,1.4-2.6,3-3.8,4.6-.3.5-1.3,2.1-.4,2.4.9.3,4.5-2.8,4.7-2.6"/>
          <path id="Path_6963" class="st1" d="M149.5,298.4l-3,10.8c0,.3,0,.7.4.8,1.4.5,4.8-3.8,5.7-4.9-1.1,5.4-2.2,10.8-2.2,16.3,1.9-2.9,4.1-5.6,5.9-8.5,2.7-4.4,5-9,7.7-13.3.4,0,.2.3.2.6,0,1.6,0,3.5,0,5.1,0,1.7-.6,3.4.2,5.2.9.2,1.4-.6,1.9-1.2,1.8-2.2,2.9-5.2,4.7-7.4v3.7c1,.2,1.4-.9,1.8-1.7,1-1.9,3.9-10.7,3.6-12.5-.4-3.2-5.2-7.1-8-8.3-3.5-1.4-12.1-2.1-14.9.8-1.1,1.2-4.4,6.9-5.2,8.6-.4.9-1.8,4.8-1.8,5.6.2,2.1,2.8.2,3,.4"/>
          <path id="Path_6964" d="M170.7,91.9c-2.8-.3-4.7,1.4-5.6,4,.2,2.1,5.2.9,6.8,1.1,3.6.3,6.2,2.3,8.5,5,1,1.1,3.9,6.4,5,2.9,2.3-7.1-9.1-12.4-14.7-13"/>
          <path id="Path_6965" d="M163.5,141.6l4.8-1.6,5.6-2.8c-3.1.8-6.1,1.9-9,3.2-.2,0-1.9.8-1.5,1.2"/>
          <path id="Path_6966" d="M160.7,149.3l13-6.5c-1.7.4-3.4,1.1-5,1.9-2.7,1.2-5.8,2.7-8.1,4.6"/>
          <path id="Path_6967" d="M164.6,167.2c0-.4.1-.5-.4-.5-1.4,0-3.2,1.5-4.6,2.1-.8.3-1.7.2-2.2,1,.6.7,1.8.2,2.6,0,1.7-.6,2.9-2.1,4.7-2.7"/>
          <path id="Path_6968" d="M165.6,162.6c-.1-.4-.4-.5-.8-.4-1,0-6.9,2.7-6.9,3.4,0,.5.8.2,1.1.1,2.2-.6,4.3-2.6,6.6-3"/>
          <path id="Path_6969" d="M157.9,173.5v.5c1.3.2,5.3-1.8,6.5-2.4.3-.2.6,0,.4-.6-2.5.2-4.8,1.5-7,2.6"/>
          <path id="Path_6970" d="M166.5,134.2c1.9-.4,3.7-1.9,5.3-2.9,0-.9-2.5.4-2.7.5-1,.6-1.9,1.4-2.6,2.4"/>
          <path id="Path_6971" d="M165.8,137l1.3-.2,5.2-2.8c-2.2.6-4.9,1.5-6.5,3"/>
          <path id="Path_6972" d="M160,177.5c1.9-.5,3.8-1.7,5.4-2.8-2,.5-3.8,1.4-5.4,2.8"/>
          <path id="Path_6973" d="M209.1,45.6c4.1-1.1,8.9-2.8,12.6-4.9.4-.2,1-.3.9-.9-4.5,1.7-9.6,3-13.5,5.8"/>
          <path id="Path_6974" d="M208.4,52.8c3.8-.7,7.4-2.8,11.1-4.1l2.2-1.2c-4.5.9-9.5,2.7-13.2,5.3"/>
          <path id="Path_6975" d="M208.4,56.3c2.4-.6,4.7-1.5,7-2.5,1.6-.7,3.6-1.4,4.9-2.4-3,.7-6,1.7-8.8,2.9-1,.5-2.4,1-3,2"/>
          <path id="Path_6976" d="M211.6,40.5c3.5-.3,6.9-2.3,10.2-3.6-.3-.5-.5-.2-.9-.2-1.3.1-3.1.8-4.4,1.2-1.6.6-3.8,1.3-5,2.6"/>
          <path id="Path_6977" d="M212.1,37.5c1.6,0,3.3-.9,4.8-1.6,1.5-.7,3.3-1.5,4.5-2.6-3.2.8-6.8,2-9.3,4.2"/>
          <path id="Path_6978" d="M207.4,60.2l11.4-4.4c-3.9.6-8.2,1.9-11.4,4.4"/>
          <path id="Path_6979" d="M213.5,34c2.6-1.1,5.3-2.2,7.9-3.4.3-.1.6.1.5-.5-2,.2-3.9.8-5.7,1.7-.3.1-3.2,1.8-2.7,2.3"/>
          <path id="Path_6980" d="M210.9,47.9c2.5-.7,5-1.6,7.4-2.8.2,0,2.4-1,1.9-1.4-3.2,1-6.8,2-9.3,4.2"/>
          <path id="Path_6981" d="M213,31.2c2.6-.9,5.1-2,7.5-3.3.4-.2,1.4-.6,1.3-1.1-3.1.9-6.5,2.1-8.8,4.4"/>
          <path id="Path_6982" d="M209.3,62.8c2.7-.7,5.4-1.6,8-2.6.7-.3,1.7-.5,2-1.1-3.4.7-7.2,1.6-10,3.7"/>
          <path id="Path_6983" d="M212.5,28.4c2.4-.9,5.4-2,7.4-3.4.3-.2.6,0,.5-.6-2.7,1-6,1.6-7.9,4"/>
          <path id="Path_6984" d="M212.3,25.8l1-.3,6-4.1c-2.8.3-5.3,2.3-7,4.4"/>
          <path id="Path_6985" d="M210.9,66.1c1.7-.3,3.4-.8,5-1.4.7-.3,1.8-.5,2.2-1.2-2.3.4-5.5.9-7.2,2.6"/>
          <path id="Path_6986" d="M213,69.3c.8.3,4.6-1.2,4.4-2,0-.3-.4-.3-.7-.2-.3,0-4.4,1.6-3.7,2.2"/>
          <path id="Path_6987" d="M204.1,113.3c-.4,0-7,2.3-7.8,2.7-.4.2-.7.4-.9.7,0,.8,2.6-.1,3-.2.9-.3,5.4-2.1,5.8-2.5.3-.3.1-.6-.1-.6"/>
          <path id="Path_6988" d="M194.6,124.4h.9c.9,0,7.4-2.3,7.4-2.7-.3-.4-.6-.4-1-.4-1,0-5.7,1.8-6.7,2.4-.2,0-.8.5-.6.6"/>
          <path id="Path_6989" d="M196,113.7c1.3,0,2.5-.3,3.6-.9,1.6-.6,3.1-1.3,4.6-2.1.3-.2.1-.4.1-.7-.4-.4-7.7,2.6-8.4,3.7"/>
          <path id="Path_6990" d="M196,119.1c-.3.3,0,.4.4.5,1.1.1,4.4-1,5.5-1.5.3-.1,1.2-.3,1.1-.8-.2-.5-1.6,0-2,.1-1.7.4-3.4,1-5,1.6"/>
          <path id="Path_6991" d="M201.5,124.7c-.7.2-4.5,1.4-4.5,2,.3.4.4.3.8.3.6,0,4.1-1.3,4.1-1.7l-.4-.6h0Z"/>
          <path id="Path_6992" d="M201.1,88.4c.4,0,.9,0,1.3-.2,2.5-1,4.9-2.2,7.2-3.5.3-.2.7-.4.8-.7-2.4.5-4.7,1.3-6.8,2.4-.4.2-3.1,1.4-2.5,2.1"/>
          <path id="Path_6993" d="M208.1,81.7c-.5-.4-4.7,1.5-5.4,1.9-.6.3-2,.9-1.8,1.7.1.3.5.4.8.3.6,0,5.2-2.6,5.9-3.2.3-.2.6-.2.5-.7"/>
          <path id="Path_6994" d="M201.6,90.2c.2.5,1.5,0,1.9-.1,2.7-.9,5.2-2.8,7.9-3.7-.2-.6-1.7,0-2.1.2-2.7.9-5.1,2.4-7.6,3.7"/>
          <path id="Path_6995" d="M205.6,90.8c-.4.4-.3.9.4.8,1.6-.5,3.1-1.1,4.6-1.9.4-.2.8-.3.7-.8-1.1,0-5.1,1.2-5.7,1.9"/>
          <path id="Path_6996" d="M207.7,93.5c.5,0,1-.1,1.4-.4.3,0,1.1-.3.9-.7-.4-1-2.9.4-2.3,1"/>
        </g>
      </g>
    </g>
  </g>
</svg>