<?xml version="1.0" encoding="UTF-8"?>
<svg id="Layer_2" xmlns="http://www.w3.org/2000/svg" xmlns:xlink="http://www.w3.org/1999/xlink" version="1.1" viewBox="0 0 134.6 189.4">
  <!-- Generator: Adobe Illustrator 29.6.1, SVG Export Plug-In . SVG Version: 2.1.1 Build 9)  -->
  <defs>
    <style>
      .st0 {
        fill: none;
      }

      .st1 {
        fill: #01e486;
      }

      .st2 {
        clip-path: url(#clippath-1);
      }

      .st3 {
        fill: #fff;
      }

      .st4 {
        clip-path: url(#clippath);
      }
    </style>
    <clipPath id="clippath">
      <rect class="st0" width="134.6" height="189.4"/>
    </clipPath>
    <clipPath id="clippath-1">
      <rect class="st0" x="22.6" y="28.5" width="54.2" height="78.9" transform="translate(-25.2 106.3) rotate(-81)"/>
    </clipPath>
  </defs>
  <g id="Layer_1-2">
    <g>
      <path class="st3" d="M11.3,119h1.3l3.4-2.1,2.2,2.2,8.2,8.3,14.4,7.3,7.4,6.6.6,4.8-1.8,6-2.4,1.5-7.1.9-4.6,1.2-1.8,1,1.6,3.5,5.9-2.1,1.3,1.5-4.3,2.4-2.2,1.9-.7,3.8,2.1.6,3.3-2.7,2.1-1.9,2.6.6-2.1,4.8-.4,3.3,2.3,1.6,2.3-1.7,2.3-4.1,5.6-4,1.6-2.9,1.6-4.1,4.3-3.4,4.9-5.1,3.5-2.6,2.6.5,1,2.7v6s-.6,6.9-.6,6.9l-1.6,2.1-4.4,3.1-1.9,2.7,1.2,5.2h2.2l3.8-3.9,2.8-1.2-.2,2.7.3,4.5,2.6,3.2,2.5-1.1,1.1-1.6,2.2,1.1h3.3s1.9-.2,1.9-.2l.8-1.4-3.6-9.1-1.7-2.1.7-1.2,2.9-2.4h.9c0,0,2.1,3.4,2.1,3.4l5.3,9,5.3,5.7,5.9,3,3.2-1.1,3.1,1.6,3.8.5,3.6-1.9s2.2-2.2,2.2-2.4,2.8-7.4,2.8-7.4l4.7,2.8,3.1-.4,1.6-3.6-.4-6-2.4-9.1,2-4.9-1.1-12.8-3-10.6-5.5-14.7-1.3-2.6,3.1.5,1.7-1.3-8.3-9.4-8-18.8-4.8-8.4-5.4-6.7-16.5-16.4-15.3-15.4-.8-2.7h1c0,0-1.7-4.7-1.7-4.7l-1.3-2.3,2.1-1.5-7.3-7.7,1-2.1,3.8-4.4-1.5-6.8-4.3,5.5-1.3-3.5-3.7,3.1-6.5-1.8-12.2-.2-17.6,2.2-7.3-3.2-.3.8,1.7,2.7-3.4-.4L.5,3.9s3.2,11.5,3.6,11.6,4.9,3.4,5.3,3.4-3.8-.5-3.8-.5l-.4,1,1.5,3-1.8.8,2.4,2.1-.4,2.1-3.1,8.7,1.9,1.6-.2,2.3,3.2,4.8-3,2.5-4.1,12.3,1.8,3.1-.2,3.4,1.3,5.6.7,5.2-1.4,8.5-.2,6.1,3.9,17.1,4.1,10.3h0Z"/>
      <g>
        <g id="Group_8960">
          <g class="st4">
            <g id="Group_8959">
              <path id="Path_6354" d="M88.6,186c-.9.5-1.2-.6-1.8-1.2-1.7-1.7-3.7-3.2-4.9-5.4l-2-.9c-.7,1.4-.3,2.4-.3,3.8-.1,2.2-1.7,4.1-1.9,6.4-.2.4-.5.7-.9.6-.5-.8-.8-1.6-1-2.4-.7-2.9-.4-4.8-1.8-7.6-1.4-2.9-1.6-5-.8-8.1l-.2-.4c-.5-.1-2,1.2-2.5,1.6-1.4,1.2-3.8,4.8-5.9,3.1-.3-.3-.3-.8-.5-.8-1.5-.4-4.8,2.2-5.9,3.2,0-2.6,1.7-6.5,4.6-6.9-.1-2.1,2.2-4.6,3.8-5.8.8-.6,3.6-1.9,3.8-2.6.2-.8-.1-1.5-.1-2.2,0-1.1.4-2.6.5-3.8.3-3.3.6-5.3-.2-8.6,0-.3-.3-1.2-.6-1.4-1.1-.3-1.6.3-2.4.9-3.1,2.6-6.2,6.3-9.1,9.1-.6.5-1.6,1.1-2,1.7-1.3,1.5-1.6,4.4-2.8,6-1,1.4-2.7,2.2-3.9,3.4-1.9,1.9-3.5,4.7-5.7,6.4-.6.4-1.1.5-1.6.9-1.8,1.1-2.5,5.5-3.4,7.4s-1-1.3-1-2.1c0-1.5.8-7.2,1.4-8.4,0-.2.4-.2.4-.3,0-.6-.2-1.2,0-2.2.3-1.6,1.1-3.4,1.5-4.9-2.5.8-3.8,3.4-5.8,4.8-.9.6-1.6.5-2.3.9-1.1.7-2.2,3.5-3.7,3.9-.2,0-.4-.1-.5-.3-.5-1,1.2-6.2,1.9-7.2.3-.4.7-.7,1.1-1.1.1-.6-.2-1.2.2-1.9.7-1.1,4.7-2.6,5.7-3.8l-5.4,1.4c-1.1,0-1.3-1.2-1.5-1.2-.4-.2-2.3-.6-2.8-.5-1.2.2-1,3.1-2.4,2.8-.2-2.3.4-7.3,3.6-7.1.6,0,1.8.6,2.1.5.4,0,.9-.7,1.4-1,1.4-.7,5.9-1.1,7.7-1.4,1.4-.2,3.6.2,4.7-.8,2.4-2.3,2.4-5.6,1.9-8.6-.5-3.3-2-4.3-4.5-6.3-4.5-3.8-7.9-4.5-12.9-6.9-3.4-1.6-6.9-5.1-9.7-7.7-1.5-1.4-2.9-2.9-4.2-4.4-.9-.4-1.9,1.4-3,1.6-2,.4-2.4-.6-3.2-2.2-2.6-5-4.4-12.4-5.7-18-1.8-7.6-1.8-14.7-1.2-22.3.1-1.6.8-4.2.7-5.7,0-.5-.7-1.3-.9-1.8-.8-2.1-.4-4.7.2-6.8-3.1-1-2.2-4.4-1.5-6.8.5-1.7,1.7-3.4,2.3-5,.4-1.2.6-2.9,1.1-4,.4-.9,1.9-1.8,2.5-2.6,0-.6-3-3-3.2-3.6-.2-.6.7-2.3,1-2.9-.6-.3-2.3-1.6-2.3-2.3,0-.3.6-1.6.7-2.1.6-2.8.7-6,3-8l-2.6-2.1c-.3-1.2,2.1-1,2.1-1.4-.9-.8-2.1-4-.4-4.3.4,0,.8.3,1.1,0-1.1-.8-2.6-.9-3.1-2.4L0,3.5c0-.2.1-.4.3-.4.4-.1,3.7,1.8,4.4,2.2,2,1,4.1,1.9,6.2,2.6.1,0,.3,0,.3,0-.5-.6-1.8-3.6-.4-3.6l7.7,3.5c11.7-2.3,24-4,35.6-.5l4.7-3.3c.6,0,.9,1.5,1,1.9,1.7-1.6,3.3-3,2.9-5.7.5-.5,1.5,1.3,1.8,1.7.9,1.7,2.1,5.4,1.8,7.2-.2.9-1.5,2.8-2.1,3.6-1.3,1.6-3,2.1-1.4,4.1,1.5,2,3.6,4.1,5.2,6.1.5.6,1.3.6.9,1.6l-1.4.7c.5,2.2,2.1,4.7,2.1,6.9,0,.7-.3,1.5,0,2,.2.3,1.4,1.1,1.8,1.4,1.1,1,1.8,2.2,2.7,3.3,2.3,2.4,4,3.6,6.1,6.5,3.3,4.5,7.5,7.7,11.4,11.7,1.1,1.2,2.2,2.4,3.4,3.5,5.9,5.9,11.7,11,15.5,18.7,3.5,7.1,5.1,14.6,9.2,21.4,2,3.3,3.8,4.4,6.2,7.1,1,1.1,3.1,3,1.3,4.3-.9.7-1.7.5-2.7.4-.3,0-.3,0-.3.3,1.9,2.4,2.3,5.4,3.2,8.1,3.1,8.8,5.4,15.7,6.2,25.2.3,3.5.5,6.3-.5,9.7-.2.6-.8,1.5-.8,1.9,0,1.7,1.4,5.5,1.8,7.4.7,3,1,5.5.6,8.6-.8,6-6.5,2.2-9.7.5-.2-.1-.4-.1-.6,0-.2.2-1.7,4.9-2,5.8-.6,1.4-2.1,3.9-3.3,4.9-2.9,2.3-6.8,1.4-9.1-1.3-1.5,1.4-3.8,1.3-5.6.7-3.7-1.1-5.7-3.2-8.2-6-3.9-4.5-7-9.6-9.7-14.9l-2.9,2.6c2.2,2.2,3.4,5.4,4.2,8.3.3.8.8,2.4.8,3.2,0,.7-.5,1.2-.5,1.7,0,.6.7,1.8.7,2.7v4.3h0ZM11.2,5.8c.2.5.4.9.7,1.3.2.3,2.7,2.3,1.5,2.6-3-.6-5.9-1.6-8.6-2.8-1.1-.5-2.2-1.2-3.3-1.8l3.4,9.8c1.7.5,3.4,1.2,5.1,1.8,2.5.8,5.3,1.2,7.8,2,4.8,1.5,9.5,3.7,14.4,4.9,3.3,2.2,5.3,5.6,7.9,8.5v.5c-.1,0-.7-.2-.7-.2l-2.6-2.5c1.3,5.9-8,8.8-12.1,6-2.6-1.8-2.8-6.2-1.5-8.9.6-1.2,1.4-1.8,2.4-2.5-.3-.2-.5-.6-.8-.8-.6-.5-5.3-2.9-6.1-3.1-2.1-.6-4.6,0-6.8-.3-2.2-.2-3.9-1.5-6.1-1.4,0,1.1.8,2.2,1.4,3,.3.4.9.5.4,1.3l-1.6.3c1.3.9,2.5.9,2.5,2.9,0,1.1-1.8,3.9-2.3,5.1-.5,1.3-.6,2.7-1.4,3.9,0,.5,2.6,1.7,2,3-.1.3-.8.4-.8.9,2.1,4.2,5.4,6.3,9.9,7.5,3,.8,5.4,1.3,8.3,2.3,1.6.5,2.9,1.2,4.7,1.2,3-.1,5.1-1.1,8.2-.3,1,.3,1.9.9,3.1.9.7-.1.8-3,2.5-.5.5-.3,1.4-1.8,1.8-1.8,1,0-.2,2.1-.6,2.4-.5.4-1.5.2-1.6.3-.1.1-.2.6-.6.9-.4.4-1.3.9-1.8.8-1.8-.5-3.9-1.7-5.7-1.9-2.2-.3-4.4.5-6.7.3-2.3-.2-4.5-1.6-6.6-2.2-3.5-1-7.2-1.2-10.6-2.5-.5-.2-.8-.7-1.3-.5-1.9.4-3.1,5-3.8,6.7-.9,2.2-4,6.8-1,8.6.5.3,1.1,0,1.3.7-.7,2.1-2.3,8.4.9,9,.7.1,1.4-.4,2.1,0,.5.3,1.2,2.8,1.6,3.5,1,1.7,1.6,1.5,3.4,1.3.2,1.4-1.8,1.6-2.8,1.3-1.4-.4-3-3.1-3-4.5-1.9.2-1.2,2.2-1.2,3.6-.2,3.2-1.1,7.4-.2,10.5.5,1.8,1.5,3.8,2.2,5.5.4-.2,0-1.1,0-1.5,0-.6-.1-1.6.1-2.2.1-.2,0-.3.4-.2.6,5.7,1.9,11.5,5.8,15.8-.1-2-.6-4-.9-5.9,0-.3,0-.2.3-.2,1.2,2.9,1.5,6.7,2.8,9.5,1.2,2.8,4.1,5.2,6.2,7.2,5,4.9,9.5,10.4,14.8,15.2,3.4,3.1,7.4,6,10.6,9.2,2.1,2.1,2.7,3.8,1.9,6.7-.4,1.5-2.2,6.2-3.3,7.2-1.4,1.4-2.1,1.1-3.8,1.4-3.4.5-6,.6-9.1,1.9-.5.2-1.5.1-1.7.8-.2.4,0,1.2-.3,1.8,1.4,0,2.6-.8,4-1,1.5-.2,3.5-.2,4.9.4.8.3.5.7,0,1.1-1.2.9-2.9,2-4.2,2.8-.6.4-2,.9-2.4,1.4-.6.7-1.3,3.4,0,4,1,.5,1.4-1.5,2.1-2.1.5-.5,3.3-2.1,4-2.2,3.5-.5,3,1.6,2,4-.5,1.2-1.3,2.3-1.7,3.5,0,.4,2.1,2.5,2.5,2.4,1.5-2.1,3-4.8,4.8-6.7,1.2-1.3,3.2-2.3,4.2-3.7,1.3-1.8,2.3-4.4,3.5-6.1.5-.7,2-1.7,2.8-2.4,1.5-1.5,2.8-3.2,4.2-4.6.7-.7,4.2-3.5,4.9-3.8,1.3-.5,4.4-.5,5.4.6,1.3,1.5.3,6.1,0,8.1-.3,3.1-.2,5.7-1.4,8.7-.8,1.9-4.3,4.1-5.9,5.6-.7.6-1.5,1.2-1.2,2.3.1.4.6.4.7.9.2.8-.6,2.2.4,2.3,1.4.1,1.6-.8,2.3-1.5.8-.8,1.6-1.6,2.4-2.4l3.6-1.7c.5.1,0,1.9,0,2.4,0,1.9-.3,5.1.8,6.6.7.9,2.7,1.2,3.8.8.5-.2.9-3.2.9-3.9.1-1.6,0-3.3,0-5,0-.6.1-1.7.4-2.2.8,0,.8,5.5.8,6.3,0,.9-.4,1.7,0,2.7.1.3,1.3,1.6,1.6,1.6.7.2,2-.1,2.8-.1s1.1.3,1.7.2l.3-.4c-.4-1.6-.8-3.2-1.4-4.8-.6-1.7-1.4-3.4-2.3-5-.7-1.1-1.5-1.1-1-2.8.6-2,3-2.8,4.3-4.4,3.3-3.9,5.2-8.3,9.8-11.3,1.4-.9,3.2-1.6,4.5-2.6,1.3-1.1,3.3-3.8,4.2-5.3,2.4-3.9,3.8-8.4,5.8-12.5v-.2c-2.1-1.8-4.1-3.8-6.4-5.4-1.6-1.2-3.4-2-4.8-3.3-1.2-1-2.2-2.5-3.3-3.5-.6-.6-1.7-1.1-2.4-1.7-.4-.3-1.2-1.3-1.4-1.4-.3-.1-.5.9-.7,1.2-.6,1-3.1,1.5-4.1,1.1-.6-.2-2.8-2.8-3.6-3.5-2.4-2.2-5.8-4.6-7.4-7.5-1-1.9-1.8-4.1-2.8-6.1-2.2-4.5-4.3-8.6-6.1-13.4-1.3-3.5-2.3-7.1-3.8-10.5-1.3,1.1-3.3.4-4.7-.3l-1.3-1-4.5,9.7c-1.3,1.6-2.6,1.7-4.4,1-.5,2-2.4,6.3-4.9,6.2-.8,0-2.1-1-2.7-.6-.4.3-.7,2.6-.9,3.2-.7,1.9-3.5,6.4-5.9,4.7-1.2-.8-3.4-6.3-3.4-7.6,0-.2,0-.3.2-.4,1.5,1.1,1.7,2.9,2.4,4.5.3.6,1.2,2.8,1.9,2.7,2.4-.4,3-5.8,3.9-7.8,1.1-2.3,3.4,0,5.1-.7,1.8-.7,2.3-3.7,3-5.3.7-1.5,1.7,0,2.5-.1.7,0,1.3-.4,1.9-.8,1.5-2.8,2.5-6.2,4.1-9,1.3-2.2,1.8-.9,3.3,0,1,.6,2.9,1.3,3.9.2.3-.3,1.3-2.9,1.5-3.5.3-1,.4-3.1.9-3.7.7-1,3.4-1,4.6-1.6,1.9-1,.9-2.4.8-4-.1-1.7-.1-3.5-.2-5.2,1.5-.3,1.9.5,3.5-.3,3.8-1.8-.9-5-.7-6.5,0-.9,1.4-.6,2-.7,2.9-.5.3-2.8-.6-4-2.6-2.7-5.3-5.2-8.2-7.5-.7,1.3-1.4,2.5-2.3,3.7-1.2,1.5-2.5,3-3.8,4.5-.9,1-5,3.6-6.2,4-.4.1-.8.2-1.2.1.6-.9,1.6-1.2,2.4-1.7,1.1-.7,3.4-2.2,4.2-3,1.1-1.2,2.5-3.8,3.5-5.3.7-.9,2.9-3.1,2.9-4.2,0-1.1-1.8-3.4,1.1-2.4.2-.2-1.5-4.2-1.8-4.6-.6-.9-1.9-1.7-1.7-3l2.5-.6-3.3-2.4-3.7-3.4-2.7,4.2c2.8.1,5.4,1,6.5,3.9,1.4,3.8-1,8.8-5.2,9.1-3.9.3-7.3-1.6-7-5.9-.7.4-1,1.4-2,1.2l5.1-8.3c1.8-2.6,4.5-4.7,5.6-7.7.4-1.1.3-2.2.6-3.3,0-.3.3-.8.6-.5.5.6,0,1.7.5,1.9,1.2-1.5,2.3-5.6,1.4-7.3-.2-.3-.3,0-.4.1-.6.7-2.7,4.2-3.5,4.3-1.1,0-1.1-2.8-1.3-3.7-.3,0-.3.1-.5.3-.5.4-1.7,1.9-2,2.1-.8.5-4.9-1.2-6-1.4-3.2-.7-8.3-.9-11.6-.8-6.6.1-13.1,1.6-19.6,2.5l-7.2-3h0ZM56.8,23.7c-1.2.3-2.8,2.5-3,3.8-.3,2.4.3,4.9,3,5.4,1.9.4,3.4.2,4.9-1.2,1.2-1.2.8-3.5.3-5-.6-1.8-3.3-3.3-5.2-2.9M25.9,34.6c1.6,1.6,6.4,1,7.8-.7,1.6-2,1-4.2-.1-6.1-.5-.9-1.8-2.2-2.8-2.3-4.4-.5-7.3,4.3-5.5,8.1.2.4.4.7.7,1M125.1,149.8c1.4.1,1.5,2,2,3.1.4.9,1.7,3.4,2.9,3.2.5-.3.8-.8.9-1.4,1.7-5.8.6-10.1-.5-15.8-.8-3.7-1.6-7.7-2.7-11.3-1.8-6.1-4.5-11.9-7-17.8l.3-.4c1.1-.4,3.3,1.8,4.3.4-3.6-4.2-7.3-8.3-9.6-13.4-1-2.3-1.7-4.8-2.7-7.2-2.7-6.5-6.4-12.3-10.1-18.2-7.5-7.2-14.6-14.8-22.1-21.8-.3-.3-1.2-1.7-1.7-1.5-.6.3-1.5,1.4-2.5,1.3.8,1.8,1.5,3.2,1.2,5.2-.2,1.8-3.5,2.6-5,2.4.2,1.9.9,4,.7,5.9,0,.7-.9,2.8-1.4,3.3-1.2,1.1-3.4,1-4.8.7,0,2.2-.3,4.3-1.2,6.3,2.6,7,4.2,14.7,7.7,21.3,3.5,6.7,8.4,14.8,14.1,19.8,1.4,1.2,3,.9,3.2-1.1.4-3.6-3.4-9.7-5-13.1-1-2.2-4.1-8.3-4.4-10.3,0-.4-.2-.7.3-.6.9,2.3,2.3,4.3,3.3,6.5,3.2,6.5,5.9,14,10.9,19.3,3,3.2,6.3,6.1,9.9,8.6,1.3,1,2.8,1.6,4.1,2.7,2.1,1.8,4,4.2,6,6.1,0-.3,0-.6,0-.9-.7-3.4-2.7-5.3-4.4-8.2-2.3-3.6-5.6-8.7-7.1-12.6,0-.3-.9-2.1,0-1.8.3.1,2.4,4,2.8,4.6,1.6,2.9,3.2,5.7,5,8.4,1.4,2.1,3.1,4.1,5,5.7.4-2.4-.8-4.7-.6-7.1,1.2,1.7,2.7,6.6,1.4,8.3-.7.9-1.6.3-1.7.4.2,1.7,1.2,3.2.9,5-.2,0-.5,0-.6-.2-1.5-1-2.9-2.9-4.4-3.9-.2-.1-.2-.2-.4-.2-2.1,6.2-4.2,13.6-9.5,17.9-2.4,2-5.6,3.3-8,5.3-2.5,2.2-4.2,5.2-6.3,7.7-.2.2-.2.5-.1.8.3,1.3,2,4.1,2.8,5.4,3,5,7.8,11.6,12.9,14.6.9.5,2.4,1.5,3.2.6.8-.9.7-2.3.3-3.3-1.2-3.4-3.5-7.2-5-10.6-.4-.9-.9-2-1.2-2.9,0-.2-.3-.5,0-.6,1.3,2.1,2.6,4.3,3.7,6.6,1.8,3.5,4,10.5,7.9,12,1.6.6,4.2.3,4.3-1.8,0-1.2-2.3-5.4-3-6.8-1.4-2.9-3.4-6.2-4.7-9.1-.4-.9-.7-1.9-.8-3,1.1.7,1.2,2.1,1.7,3.1,2.5,4.9,5.4,9.5,7.6,14.6.5.7,1.5.9,2.2.4.2-.1.3-.3.4-.4.7-1,1.4-4.3,1.9-5.7.3-.8.8-1.6,1.2-2.4-1.9-4.5-3.3-9.2-5.1-13.8-1-2.4-2.1-4.8-3.1-7.2-.2-.2-.2-.5-.2-.8,2.2,3,3.6,6.5,4.9,9.9,1.8,4.5,2.9,11.2,7.6,13.3,2.7,1.2,5.7-1,5.7-3.9,0-1.2-.6-4.4-.9-5.7-.4-2.1-1.2-3.9-1.4-6-1.7.2-2.5-.2-3.5-1.5-1.3-1.8-2.1-4.6-2.3-6.8M24.6,119.4c-.6-.6-2-1.1-2.9-1.8-1.8-1.6-3.5-3.4-4.9-5.4-.6-1.1-1.1-3-1.7-3.8-.4-.5-1.6-1.2-2.1-1.8-1.4-1.6-3.1-4.5-3.8-6.5-.6-1.5-.8-3.4-1.3-4.7-.6-1.4-2.6-3.2-3-5l-.6-1.8c0,3.9.5,7.7,1.4,11.5,1.4,6.1,3.4,12.1,5.8,17.9,1.2,1,1.9-.6,2.7-1.3.8-.6,2.3-1.5,3.3-.8.1.1,0,.4.2.5,4.1,4,8.2,9.2,13.3,12.1,1.2.7,2.6,1.2,3.8,1.9.5,0,.1-.2,0-.3-.5-.5-1.3-1-1.8-1.5-1.6-1.6-3.4-3.3-4.9-5.1-1-1.1-2.4-3.3-3.3-4.2"/>
              <path id="Path_6355" d="M44.8,32.7c.6-.2,1,.2,1.4.5,3.2,2.5,5,9,4.7,12.8-.2,2.4-1,5.4-2.4,7.3-.4,0-.2-1.5-.3-1.8-.1-1-.5-3.2-.9-4.1-.8-1.9-4.6-3.1-6.1-5.1-3-3.9,1.4-7,3.6-9.7"/>
              <path id="Path_6356" d="M27.2,69.1c.4.3.8,2.7,1.1,3.4.1.2.6,1,.9.8.5-1.4.7-3,1.9-4.1,1-.3,1.8,2.6,3.1,2.5.3-.3-.9-3.9.8-3.3.7.2.7,4,.1,4.5-1.3,1.2-2.6-.5-3.5-1.3-.5,1.1-1,4.2-2.4,4.2-1.5.1-2.6-2.5-2.9-3.7-.3-.3-.7.8-.9,1-1.2,1.4-3,3-4.8,1.4-1.6-1.4-1.4-4.5-1.2-6.5-.4,0-.7.4-1.1.5-3.9,1.3-7-.8-6.2-5,.1-.8,2.2-5.5,3-5.5.3,0,.3.7.3,1-.1,1-1.6,3-1.9,4.3-.9,3.4,1.5,4.4,4.3,3.3.9-.4,2.6-2,2.9-.1.2,1.4-.1,6.1.9,6.9,1.5,1.1,2.9-1.9,3.6-2.9.5-.6,1.4-2.1,2.1-1.4"/>
              <path id="Path_6357" d="M15.6,30.6c.1,1-1.2,1.4-1.9,2-.5.4-1.8,1.5-1.2,2s3.6.7,4.6.9c1.6.2-.7,1.3-1.2,1.8-.6.6-1.8,1.8-1.3,2.6.8.5,2.9-1.2,3.9-.8.7.2-.1,2.4.7,2.9,1.3,1,3.9-2.6,5.5-2.2.9.3-.1,3.9,1.6,4.2.6,0,1.8-1.6,2.2-2.1.3-.4.7-1.8,1.3-1.6.5.1.8,1.5,1.4,1.8.5.2,1-.2,1.2,0,.5.8-.5,1.1-1.1,1-.5,0-.8-.6-1.2-.5-2,4-6.1,4.7-6.3-.7-.9.8-4.1,2.3-5.2,1.7-.9-.5-.6-2.7-1.1-2.8-1.2.3-4.1,2.1-4.6,0-.4-1.6.7-3.1,1.6-4.3-1.9-.2-3.6-.8-3.3-3.1.2-1.5,3.2-3,4.6-3"/>
              <path id="Path_6358" d="M81.7,119.7c-.2,2,1.3,3.7-1.7,3.6-1.6,0-3-.9-4.3-1.6,0,.7-.7,3.7-1.2,4-2.3,1.1-6.8-3.9-6.7-6,0-.4.4-.4.7-.2.1,0,1.4,2.1,1.8,2.5.4.4,1.6,1.8,2.2,1.7,1.4-.3,1.2-5,2.2-5.6.3-.2,2.3,1.4,2.9,1.7.4.2.8.4,1.3.5.6,0,.8-1.6,1.4-1.9.8-.5,3.3-.2,3.1-1.6-.1-.8-1.3-1.5-1-2.5.5-1.5,2.2,1.8,2.4,2.2,1.3,2.8-.5,3.3-2.9,3.4"/>
              <path id="Path_6359" d="M36.4,113.8c.1.1.5.4.7.4,1-.6,1.8-1.4,2.4-2.4.5-.8,1.2-3.1,2.3-2.1.4.4,2.1,3.6,2.8,3.4,1.8-1,2.2-3.4,3.2-5.1h.5c.4,1.7-.5,3.8-1.5,5.2-1.1,1.5-1.5,2.2-3.3,1.2-1.1-.7-1.6-1.7-2.4-2.6-.7,1.6-3.4,5.2-5.4,3.9-1.5-.9-2.5-5.5-2.8-5.7-.2,0-1,0-1.4,0-.5-.2-1-.6-1.4-1.1-.1-.2-1.1-3.8-1.1-4.1,0-.9.6-.5,1,0,.8.9.9,3.4,1.3,3.6.9.5,2.2-.6,2.6,0,.1.2.6,1.8.8,2.2.3.7,1.3,2.9,1.7,3.4"/>
              <path id="Path_6360" d="M58.1,56.5c.6,1.7,0,5.1-2.2,5.2-1,0-1.7-.5-2.6-.9.3,2,.7,3.8-.3,5.7-2,4.2-5.1.3-6.4-2.2-.3-.5-1.5-3.2-1.3-3.5.2-.2.7-.2.9,0,.8.8,3.2,5.6,3.9,5.8.9.2,1.9-1.8,2-2.6.2-1.1-.7-4.2-.4-4.7.8-1.3,3.4,1.5,4.5.7,1.5-1.1,0-4.1.5-4.8.9-.5,1.8.7,2.9.3.6-.4-.9-3.9.9-3.3.5,2.2.8,5.2-2.5,4.2"/>
              <path id="Path_6361" d="M24.6,92.2c.1.8-.4,1.5-1.2,1.6-1.5,0-2.8-3.5-3.4-4.6-.6-.1-4.1,4.2-5.2,1-.9-2.7-.7-6.4.2-9,.1-.4.4-.9.8-.6.6.4-.1,2.7-.2,3.4,0,1-.1,4.5.4,5.2l.4.2c1.3,0,3.2-2.6,4.4-2.3.6.2,1,2.3,1.3,3,.1.3,1,2,1,2.1.4.4.9,0,1.3,0"/>
              <path id="Path_6362" d="M46.6,131.4c-.3,0-.4-.2-.6-.4-1.6-1.4-5.1-5.2-6.1-7-.2-.3-.3-.3,0-.6l6.6,8h0Z"/>
              <path id="Path_6363" d="M42,129.3c-.2.3-3.5-3.4-3.8-3.7-.3-.4-2.2-2.5-1.9-2.8.4,0,.7.4,1,.7,1.2,1.2,2.7,3,3.7,4.2.2.2,1.1,1.4,1,1.6"/>
              <path id="Path_6364" d="M102.2,137.3v-8.9c1,2.8.6,6,0,8.9"/>
              <path id="Path_6365" d="M50.7,21.7c-.3-.1-.2-1-.2-1.3.2-1.9.7-3.8.6-5.8,1,2.1.1,4.9-.4,7.1"/>
              <path id="Path_6366" d="M49.4,21.2c-.3,0-.3-.6-.3-.8-.2-2.1,0-4.2-.3-6.3.3,0,.4.4.5.7.7,1.9.4,4.5.2,6.4"/>
              <path id="Path_6367" d="M28.9,19.9l-1.6-.7-3.3-2.4c.2-.4.3-.2.6-.1.7.2,3.3,2,4,2.6.2.2.5.3.4.6"/>
              <path id="Path_6368" d="M100.1,136.7c-.3,0-.3-.5-.3-.6-.2-1.5,0-3.3-.2-4.8,0-1.1-.4-2.2-.5-3.3.3,0,.4.6.4.9.7,2.5.6,5.2.6,7.8"/>
              <path id="Path_6369" d="M49.1,130.4c-.5.6-3.2-4.7-3.4-5.1l.6.3,2.7,4.8Z"/>
              <path id="Path_6370" d="M31.9,18.5c-.2.2-1.6-.9-1.9-1.1-.7-.5-1.3-1.1-1.9-1.7-.2-.2-.4-.3-.4-.6.3-.3,1.7,1,2,1.2.6.5,1.2,1,1.7,1.5.2.2.4.3.4.6"/>
              <path id="Path_6371" d="M48,19.6c-.3,0-.2-.3-.3-.5-.3-1.1-.5-2.7-.7-3.9,0-.4-.2-.5.2-.7.6,0,1.3,4.4.8,5.1"/>
              <path id="Path_6372" d="M20.7,63.7c-.3,0-.4,0-.4-.3,0-.8,1.3-4.4,1.7-5.2.1-.2.2-.5.4-.5,0,0-1.8,6-1.8,6Z"/>
              <path id="Path_6373" d="M22.7,64.8c-.3,0-.2-.4-.2-.6,0-1.2.5-3.2,1-4.3,0-.2.2-.5.4-.5l-1.2,5.5Z"/>
              <path id="Path_6374" d="M30,19.1c-.2.2-1.7-1.1-2-1.3-.5-.4-1-.9-1.4-1.4-.2-.2-.4-.3-.4-.6.6.3,1.2.6,1.7,1.1.3.2,2.3,2,2,2.3"/>
              <path id="Path_6375" d="M21.3,56.8l-2.4,5c-.5-.2.3-1.8.5-2.2.1-.2,1.5-3.2,1.9-2.8"/>
              <path id="Path_6376" d="M97.6,133l-.5-4.2c.4-.5.8,1.7.9,1.9,0,.6.2,2-.3,2.4"/>
              <path id="Path_6377" d="M33.3,18.2c-1.4-.7-2.5-1.8-3.2-3.2.3-.2,2.7,2.1,2.9,2.5.2.2.3.4.3.7"/>
              <path id="Path_6378" d="M52.8,20.6h-.3c0,0,.8-3.9.8-3.9.7,1.1,0,2.7-.5,3.9"/>
              <path id="Path_6379" d="M54,20.5c0-.9.3-1.8.6-2.7.3-.9.6-.6.5.2,0,.8-.5,2-1.1,2.5"/>
              <path id="Path_6380" d="M105.1,100.2l-1-1.3c-4.8-8.3-8.8-16.9-13-25.5.3-.3,1.2,1.2,1.4,1.4,3.3,4.6,7,13.1,9.6,18.4,1.1,2.3,2.2,4.6,3,7"/>
              <path id="Path_6381" d="M86.1,81.3l4.3,11c-.4,0-.4-.2-.6-.4-1.2-1.9-3.7-8.1-4.2-10.3,0-.4.2-.3.5-.2"/>
              <path id="Path_6382" d="M87.3,91.2c-.5-.2-.7-.8-.9-1.3-1.2-2.4-2.2-4.9-3-7.4-.1-.3-.2-.6-.1-.8.4,0,.6.3.8.6.5,1,.9,1.9,1.3,3,.8,2,1.5,4,2,6"/>
              <path id="Path_6383" d="M115.2,104.5c-.3,0-.4-.2-.6-.3-.6-.6-1.1-1.3-1.5-2-.8-1.2-1.8-2.7-2.1-4,.5.5,4.5,6.1,4.2,6.4"/>
              <path id="Path_6384" d="M113.2,105.7c-.4,0-.4,0-.6-.2-.8-.9-1.5-1.8-2.1-2.8-.2-.3-1.4-2-1.2-2.3.3,0,.4.2.6.4.3.4,3.5,4.8,3.3,4.9"/>
              <path id="Path_6385" d="M93.2,93.5c-.3-.1-.5-.4-.6-.7-.7-1.5-1.2-3.5-1.7-5.1,1.3,1.5,1.9,3.9,2.3,5.8"/>
              <path id="Path_6386" d="M29.7,28c2.5-.6,4.5,2.4,2.3,4.2-1,.8-2.4.7-3.3-.3-.4-.4-.6-1-.5-1.6,0-.8.7-2.2,1.5-2.4"/>
              <path id="Path_6387" d="M57.2,26.2c2.3-.5,3.5,3,1.5,4.4-2.8,2-4.4-3.8-1.5-4.4"/>
            </g>
          </g>
        </g>
        <g id="Group_9105">
          <g id="Group_9103">
            <g class="st2">
              <g id="Group_9102">
                <path id="Path_7136" class="st1" d="M17.1,52.8l-5.2,1.7v1.3c0,0,12.5,35.5,12.5,35.5,0,0,16.3-7.7,27.3-5.5s12.4-1.2,16-1.6c3.6-.4,14,.6,17.1-.4s2.6-1.9,2.6-1.9l-13.7-32.3-56.5,3.2h0Z"/>
                <path id="Path_7137" class="st1" d="M17.2,54.3l-3.7.9,12.2,34.1s7.6-4.3,15.1-4.6,9.8.5,13.9,1,6.8,0,8.9-1.2,4.6-1.7,9.2-1.5,10.5,1.2,13.3-1.2c-3.2-6.3-8.5-16.1-8.5-16.1l-60.3-11.5h0Z"/>
                <path id="Path_7138" class="st1" d="M19.9,46.1l-2.9,1.1-1.9,7.5s10.5,27,11.3,32.2c5.7-2.8,15.5-9.5,24.8-4.3,4.8,2.7,9.2,1.4,11.3-.2s7.4-1.4,10.3-.6,8.2,1.7,11.9,0c.6-1.8.3-4.3.3-4.3l-11.7-22.5-53.4-9h0Z"/>
                <path id="Path_7139" class="st1" d="M73.3,55l-53.4-9-2.9,1.1,12.3,33.6s12.4-9.9,26.9-1.8c5.8-3.1,11.8-4.3,18.5-2.8,5.2,1.2,7.9,2.2,10.2,1.2l-11.6-22.4h0Z"/>
                <path id="Path_7140" class="st1" d="M48.4,48.6s-4.1-8.6-18.3-6.1c-9.6,1.7-12.1,2.3-12.1,2.3l12,34.4s4.9-3.6,9.9-4.3c5.9-.8,12.2.1,16.4,3.6,4.8-3.3,13.9-4.8,20-2.8,6.1,2.1,9.4-.2,9.4-.2l-13.5-31.5c-1.8,1-3.8,1.2-5.8.7-3.2-.9-14.9-3.2-18.1,3.9h0Z"/>
                <path id="Path_7141" class="st1" d="M48.5,49.9l7.8,27.7s-1.1-13.2-7.8-27.7"/>
                <path id="Path_7142" class="st1" d="M23.3,48.1c-.2-.1,1.2-1.8,4.7-2.6,2.2-.5,4.4-.6,6.7-.4h0c2.3.1,4.5.5,6.7,1.2,3.2,1,5,2.4,4.9,2.5s-2-1-5.1-1.8c-2.1-.5-4.3-.8-6.5-1h0c-2.1-.2-4.3,0-6.4.3-3.2.6-4.8,1.9-4.9,1.8h0Z"/>
                <path id="Path_7143" class="st1" d="M25.2,51.6c0-.1.8-.8,2.6-1.3,2.4-.6,5-.8,7.5-.5h0c2.5.3,4.9.8,7.4,1.4,1.8.5,3,.8,2.9,1s-1.2,0-3.1-.3c-1.6-.3-4.7-.9-7.3-1.1h0c-2.4-.3-4.8-.2-7.2.2-1.8.3-2.8.8-2.9.6h0Z"/>
                <path id="Path_7144" class="st1" d="M27.6,56.2c-.1-.2,3.6-2.1,8.8-2.1,5.2,0,9.3,1.3,9.3,1.6s-4.2-.6-9.2-.6-8.7,1.3-8.8,1.1h0Z"/>
                <path id="Path_7145" class="st1" d="M29.8,61.8c-.1-.1.6-.8,2.3-1.5,2.2-.8,4.5-1.1,6.9-1h0c2.3.2,4.6.5,6.9,1.1,1.7.4,2.8.8,2.7.9s-1.1,0-2.9-.2c-1.6-.2-4.3-.7-6.8-.8h0c-2.2-.2-4.4,0-6.5.6-1.6.4-2.5.9-2.6.8h0Z"/>
                <path id="Path_7146" class="st1" d="M32,66.5c-.1-.2,3-2,8-2.1h0c2,0,4.1.3,6,1.1,1.4.6,2.1,1.2,2,1.3s-.9-.3-2.3-.7c-1.8-.5-3.7-.8-5.6-.8h0c-4.5,0-7.9,1.3-8,1.1h0Z"/>
                <path id="Path_7147" class="st1" d="M31.9,71.2c0-.1.8-.7,2.5-1.2,2.2-.6,4.6-.9,6.9-.8h.2c1.8,0,3.6.2,5.4.6,2.7.6,4.1,1.7,3.9,1.9-.1.1-1.6-.7-4.1-1.1-1.7-.3-3.4-.4-5.1-.4h-.1c-2.2,0-4.5.1-6.7.5-1.7.3-2.6.7-2.7.5h0Z"/>
                <path id="Path_7148" class="st1" d="M52,49.6c-.1,0,.6-1,2.2-1.9,2.3-1.2,4.9-1.7,7.5-1.5h0c6.1.3,10.6,2.8,10.5,3.1-.1.2-4.6-1.8-10.5-2.1h0c-2.4-.1-4.8.3-7.1,1.2-1.7.7-2.5,1.4-2.6,1.3h0Z"/>
                <path id="Path_7149" class="st1" d="M54.3,53.2c0,0,1-1.4,3.8-1.8,1.5-.2,3.1-.2,4.7,0,0,0,0,0,.1,0,2.1.3,4.2.8,6.2,1.5,1.6.5,2.5.8,2.5.9s-1.1,0-2.7-.2-3.8-.8-6.2-1.2h-.1c-1.5-.2-2.9-.3-4.4-.2-2.4.2-3.8,1.1-4,1h0Z"/>
                <path id="Path_7150" class="st1" d="M56.5,57c0-.1.7-.6,2.2-.9,2-.4,4-.4,6,0h0c1.9.3,4.8,1,5.8,1.2,1.5.3,2.4.5,2.4.7s-1,.2-2.5,0-3.6-.6-5.9-1h0c-1.9-.3-3.8-.4-5.7-.3-1.4.1-2.3.4-2.4.2h0Z"/>
                <path id="Path_7151" class="st1" d="M57.1,62.8c0-.1.8-.6,2.3-1,2.1-.5,4.2-.5,6.3-.2h0c2.1.3,4.1.8,6.1,1.3,1.5.4,2.4.8,2.4.9s-1,0-2.6-.2-3.7-.7-6-1h0c-2-.3-4-.3-6,0-1.5.2-2.4.4-2.5.3h0Z"/>
                <path id="Path_7152" class="st1" d="M59.3,68.9c-.3,0,.2-1.5,2.5-2.3,1.7-.6,3.4-.9,5.2-1h0c1.8-.2,3.7,0,5.5.2.7.1,1.4.3,2.1.6,1,.4,1.3.9,1.2.9s-.5-.2-1.4-.4c-.7-.2-1.3-.2-2-.3-1.7-.1-3.5-.1-5.2,0h0c-1.7,0-3.4.4-5,.8-2,.7-2.7,1.6-2.9,1.6h0Z"/>
                <path id="Path_7153" class="st1" d="M59.4,72.9c0-.1,1-.9,3.3-1.7,2-.6,4-1,6.1-1.2,5.7-.5,10.1.8,10.1,1s-4.5-.5-9.9,0c-2,.2-4,.5-6,1-2.1.5-3.5,1.1-3.6.9h0Z"/>
              </g>
            </g>
          </g>
          <g id="Group_9104">
            <path id="Path_7154" class="st3" d="M48.5,49.9l7.8,27.7s-1.1-13.2-7.8-27.7"/>
            <path id="Path_7155" class="st3" d="M23.3,48c-.2-.1,1.2-1.8,4.7-2.6,2.2-.5,4.4-.6,6.7-.4h0c2.3.1,4.5.5,6.7,1.2,3.2,1,5,2.4,4.9,2.5s-2-1-5.1-1.8c-2.1-.5-4.3-.8-6.5-1h0c-2.1-.2-4.3,0-6.4.3-3.2.6-4.8,1.9-4.9,1.8h0Z"/>
            <path id="Path_7156" class="st3" d="M25.2,51.6c0-.1.8-.8,2.6-1.3,2.4-.6,5-.8,7.5-.5h0c2.5.3,4.9.8,7.4,1.4,1.8.5,3,.8,2.9,1s-1.2,0-3.1-.3c-1.6-.3-4.7-.9-7.3-1.1h0c-2.4-.3-4.8-.2-7.2.2-1.8.3-2.8.8-2.9.6h0Z"/>
            <path id="Path_7157" class="st3" d="M27.6,56.2c-.1-.2,3.6-2.1,8.8-2.1,5.2,0,9.3,1.3,9.3,1.6s-4.2-.6-9.2-.6-8.7,1.3-8.8,1.1h0Z"/>
            <path id="Path_7158" class="st3" d="M29.8,61.7c-.1-.1.6-.8,2.3-1.5,2.2-.8,4.5-1.1,6.9-1h0c2.3.2,4.6.5,6.9,1.1,1.7.4,2.8.8,2.7.9s-1.1,0-2.9-.2c-1.6-.2-4.3-.7-6.8-.8h0c-2.2-.2-4.4,0-6.5.6-1.6.4-2.5.9-2.6.8h0Z"/>
            <path id="Path_7159" class="st3" d="M32,66.4c-.1-.2,3-2,8-2.1h0c2,0,4.1.3,6,1.1,1.4.6,2.1,1.2,2,1.3s-.9-.3-2.3-.7c-1.8-.5-3.7-.8-5.6-.8h0c-4.5,0-7.9,1.3-8,1.1h0Z"/>
            <path id="Path_7160" class="st3" d="M31.9,71.2c0-.1.8-.7,2.5-1.2,2.2-.6,4.6-.9,6.9-.8h.2c1.8,0,3.6.2,5.4.6,2.7.6,4.1,1.7,3.9,1.9-.1.1-1.6-.7-4.1-1.1-1.7-.3-3.4-.4-5.1-.4h-.1c-2.2,0-4.5.1-6.7.5-1.7.3-2.6.7-2.7.5h0Z"/>
            <path id="Path_7161" class="st3" d="M52,49.6c-.1,0,.6-1,2.2-1.9,2.3-1.2,4.9-1.7,7.5-1.5h0c6.1.3,10.6,2.8,10.5,3.1-.1.2-4.6-1.8-10.5-2.1h0c-2.4-.1-4.8.3-7.1,1.2-1.7.7-2.5,1.4-2.6,1.3h0Z"/>
            <path id="Path_7162" class="st3" d="M54.3,53.2c0,0,1-1.4,3.8-1.8,1.5-.2,3.1-.2,4.7,0,0,0,0,0,.1,0,2.1.3,4.2.8,6.2,1.5,1.6.5,2.5.8,2.5.9s-1.1,0-2.7-.2-3.8-.8-6.2-1.2h-.1c-1.5-.2-2.9-.3-4.4-.2-2.4.2-3.8,1.1-4,1h0Z"/>
            <path id="Path_7163" class="st3" d="M56.5,57c0-.1.7-.6,2.2-.9,2-.4,4-.4,6,0h0c1.9.3,4.8,1,5.8,1.2,1.5.3,2.4.5,2.4.7s-1,.2-2.5,0-3.6-.6-5.9-1h0c-1.9-.3-3.8-.4-5.7-.3-1.4.1-2.3.4-2.4.2h0Z"/>
            <path id="Path_7164" class="st3" d="M57.1,62.7c0-.1.8-.6,2.3-1,2.1-.5,4.2-.5,6.3-.2h0c2.1.3,4.1.8,6.1,1.3,1.5.4,2.4.8,2.4.9s-1,0-2.6-.2-3.7-.7-6-1h0c-2-.3-4-.3-6,0-1.5.2-2.4.4-2.5.3h0Z"/>
            <path id="Path_7165" class="st3" d="M59.3,68.9c-.3,0,.2-1.5,2.5-2.3,1.7-.6,3.4-.9,5.2-1h0c1.8-.2,3.7,0,5.5.2.7.1,1.4.3,2.1.6,1,.4,1.3.9,1.2.9s-.5-.2-1.4-.4c-.7-.2-1.3-.2-2-.3-1.7-.1-3.5-.1-5.2,0h0c-1.7,0-3.4.4-5,.8-2,.7-2.7,1.6-2.9,1.6h0Z"/>
            <path id="Path_7166" class="st3" d="M59.4,72.9c0-.1,1-.9,3.3-1.7,2-.6,4-1,6.1-1.2,5.7-.5,10.1.8,10.1,1s-4.5-.5-9.9,0c-2,.2-4,.5-6,1-2.1.5-3.5,1.1-3.6.9h0Z"/>
          </g>
        </g>
        <path id="Path_6434" d="M44.8,32.7c.6-.2,1,.2,1.4.5,3.2,2.5,5,9,4.7,12.8-.2,2.4-1,5.4-2.4,7.3-.4,0-.2-1.5-.3-1.8-.1-1-.5-3.2-.9-4.1-.8-1.9-4.6-3.1-6.1-5.1-3-3.9,1.4-7,3.6-9.7"/>
      </g>
    </g>
  </g>
</svg>