<?xml version="1.0" encoding="UTF-8"?>
<svg id="Layer_2" xmlns="http://www.w3.org/2000/svg" xmlns:xlink="http://www.w3.org/1999/xlink" version="1.1" viewBox="0 0 614.3 375.5">
  <!-- Generator: Adobe Illustrator 29.6.1, SVG Export Plug-In . SVG Version: 2.1.1 Build 9)  -->
  <defs>
    <style>
      .st0 {
        fill: none;
      }

      .st1 {
        fill: #3cbeeb;
      }

      .st2 {
        fill: #fff;
      }

      .st3 {
        clip-path: url(#clippath);
      }
    </style>
    <clipPath id="clippath">
      <rect class="st0" width="614.3" height="375.5"/>
    </clipPath>
  </defs>
  <g id="Layer_1-2">
    <g class="st3">
      <g id="Group_8936">
        <path id="Path_6283" class="st2" d="M153.7,15.1l132,18.7,63.3,8.2h15.3l45.5-4.5,8.2,2.3,129.1,19.8,63.8,10.4-42.3,24.6-15.8,5.4h-19.4l-50.9,107.1-112.2-64.2-61.8-37.4-7.3,5.5-71.8-46.8-82.6-47.7,7-1.2h0Z"/>
        <path id="Path_6256" d="M534.9,101.6c-12,26.9-25.9,52.8-38.2,79.5-2.5,5.5-4.3,11.3-6.9,16.8-1.8,3.8-4.3,7.1-5.4,11.1h-1.1c-5.4-3.3-10.8-6.7-16.2-9.9-52.5-30.5-105.8-59.4-158.1-90.2-2.5-2-5.1,4-7.6,3.2-1.5-.5-8.2-6-10.4-7.4-40.7-25.9-81.9-51-123.6-75.4-7.9-4.6-16.3-8.5-24-13.5-.6-.4-6.7-4.6-6-5.1,71.6,11.8,143.7,20.4,215.6,30.6,18.5-1.2,40.2-6,58.6-5.4,2.5,0,6.8,1.8,9.6,2.3,51.5,9.2,103.2,16.2,154.8,24.4,12.5,2,24.7,6,37.5,5l.8,1.2c0,.6-.4.8-.8,1.2-2.4,2.7-14.7,10.1-18.4,12.2-10.2,5.7-20.7,10.8-31.4,15.5-9.8,4.2-18.4,4.2-28.9,3.9M344.2,42.3c-16.6-3-33.4-3.7-50-6-23-3.1-45.8-7.8-68.8-11.2-22.9-3.4-45.9-6.1-68.8-9,.3.7,2.2,1,3,1.2,43.7,11.5,87.8,21.5,131.6,32.3,16.1-2.4,34.3-2.3,50.1-6,1-.2,2.5-.2,2.9-1.3M340.8,64.6l-7-.9-22.8,8.2-32.4-22.8-125.4-30.3c19.2,12.8,39.7,23.8,59.9,35.1,4.7,2.6,9.6,4.7,14.3,7.4,10.6,6.2,20.5,14.2,31,20.8,14.1,8.9,28.9,16.8,43.2,25.5.6.1,1.2,0,1.7-.3,1.9-.8,7.2-7.4,8.9-9.4,8.4-10.1,17.7-19.5,26.2-29.6.5-.5,2.8-3.3,2.5-3.7M403.5,38.4l-85.1,9.9c-8,1.7-16.9,2.4-24.8,4.4-.6.2-1.3,0-1.7.8,7.2,5.4,15,10.5,23.9,12.6l81.6-25,6-2.6h0ZM605.9,70.5c-27.5-4-54.8-9.4-82.3-13.7-27.1-4.3-54.2-8-81.3-11.5-12-1.5-24-3.5-36.1-4.9-20,6.4-40.5,12-60,20,32,6.7,64.1,13.5,96.2,19.8,33.9,6.7,68,12.9,102,18.9,16.5,1,31-9.8,44.5-17.7,5-2.9,11.8-5.9,16.1-9.6.5-.4,1-.5.8-1.4M531.3,101.1l-183.9-38c-1.5.2-3.3,3.7-4.5,4.9-9.7,10.5-19.2,21.3-28.4,32.3-.9,1.1-3.7,3-3.5,4.4,16,11.9,33.7,20.9,50.5,31.5,28.2,17.7,56.7,33.4,86.1,49.2,9.9,5.3,19.4,11.7,30,16,1.2.5,4.2,2,5.2,1.3,8-12.5,12.5-26.8,18.9-40.1,3.4-7.1,7.9-13.8,11.2-20.9,4.9-10.4,8.1-21.3,13.6-31.8.7-1.3,5.4-8.2,4.7-8.9"/>
        <path id="Path_6257" class="st1" d="M94.5,155.1c1.8-1.8,6.9,1.1,8.5,2.4,5.5,4.2,10.2,10.6,15.3,14.8,2.9,2.3,15.1,8.6,15.9,11.2.6,1.5-.2,3.3-1.7,3.9-.8.3-1.7.3-2.5-.1-9.6-7.5-21.1-14.1-30-22.3-1.9-1.7-8.2-7.1-5.6-9.8"/>
        <path id="Path_6258" class="st1" d="M343.9,254c-.6-1.1-1.7-2.4-.4-3.3h4.1c10.8,5.2,21.2,11.5,31.9,16.9,2.7,1.4,10,2.5,8,6.8-1.4,2.8-6.4.4-8.5-.4-11.8-4.8-23.5-14.2-35.1-20"/>
        <path id="Path_6259" class="st1" d="M214.7,254.2c2.6-.5,3.5,1.1,3,3.5-.5,2.4-4.7,4.3-6.6,5.8-5.8,4.7-11,10.1-15.5,16.1-1.2,1.7-2.2,4.6-3.5,5.9-2.6,2.4-4.9,1.5-4.9-2,0-2.5,5.1-11,6.9-13.3,2.4-3,17.4-15.3,20.6-15.9"/>
        <path id="Path_6260" class="st1" d="M191.1,209.4c1.4,2.8.8,4.8-2.6,4.8-6.1,0-25.3-7.3-31-10.5-1.3-.7-10.6-6.4-5.5-7.3,2.3-.4,13.9,5.3,17.2,6.4,7.1,2.5,14.6,4.3,21.9,6.5"/>
        <path id="Path_6261" class="st1" d="M268.8,256.2c4.2-2.2,5.3,1.3,7.5,3.4,7.7,7.1,12.4,12.9,17.1,22.3,1,1.9,8,15.9,1.7,14.1-1.4-.4-3.5-7.2-4.4-9-5.1-10.8-8.1-14.4-16.7-22.3-1.6-1.5-7.3-6.3-5.3-8.5"/>
        <path id="Path_6262" class="st1" d="M43.9,83.5c-2.7-2.6-9.2-15.9-10.5-19.8-.9-2.7-3.5-11.4-2.9-13.7.4-1.4,2.3-1.7,3.5-1.2,1.3.4,5.1,13.8,6.3,16.4,1.9,4.1,7.7,11.1,8.6,14.6.9,3.3-2.1,6.6-5,3.8"/>
        <path id="Path_6263" class="st1" d="M24.1,29.3c-4.9-3.6-4.4-4.5-7.8-9.2-3.4-4.9-7.4-9.4-12-13.2C2,5-1.4,4.8.6.7c2.4-1.7,4.6,0,6.6,1.3,6.2,4.3,19.4,19.4,20.7,26.7.3.9-.1,2-1.1,2.3-.1,0-.2,0-.3,0-1.8.2-1.7-1.4-2.4-1.9"/>
        <path id="Path_6264" class="st1" d="M414.5,289.5c-.9-.9-.9-2.3,0-3.1,0,0,.1-.1.2-.2,1.9-1.4,15.5,3,18.9,3.7,3.8.8,20.5,2.5,22.2,4,.6.5.9,1.1.9,1.9l-1.6,1.8c-8.9,0-17.8-1.2-26.4-3.2-2.2-.5-13.2-3.7-14.2-4.8"/>
        <path id="Path_6265" class="st1" d="M212.5,221.5v-1.4c1.8-2.1,14.8,2.6,17.3,3.6,6.6,2.5,18.9,8.4,23.8,13.2,1.1,1.1,3.9,5.4,1,5.4-2.7,0-9.5-5.9-12.2-7.6-9.7-6.1-19.3-9.4-30-13.2"/>
        <path id="Path_6266" class="st1" d="M559.6,271.5c-3.6,3.9-7.2,8-11.9,10.6-2.4,1.3-8.3,4.3-8-.6.1-2.2,5.9-5,7.8-6.5,3.4-2.4,6.6-4.9,9.7-7.6,2-1.9,7.2-9.3,8.8-10,.9-.4,1.6-.4,2.1.6,1.7,3.6-6.2,11.1-8.5,13.5"/>
        <path id="Path_6267" class="st1" d="M283.3,234.5c2.4-.7,8,.5,10.6,1.1,4.9.9,10.6,2.4,15.4,3.8,2.1.6,7.5,2,9,2.8,3.7,2.1,1.3,4.1-2,4-4.7-.2-9.3-2.7-13.5-3.8-5.8-1.4-14.6-1.6-20-3.7-.7-.3-1.3-.7-1.3-1.5.3-1,.6-2.4,1.7-2.7"/>
        <path id="Path_6268" class="st1" d="M183.6,354.8c2.6-.8,4.6,2.1,6.7,3.5,4.4,3,9.2,5.3,14.3,6.9,2.7.8,9.8.7,7.5,5.3-1.4,3-9.8.2-12.2-.6-3.8-1.3-16.5-7.8-17.5-11.6-.3-1.3-.3-3,1.2-3.5"/>
        <path id="Path_6269" class="st1" d="M175.8,308.6c1.6,1.6-1.4,9.6-1.7,12.1-.3,1.9-.6,3.9-.7,5.8,0,2.2,2,13.1.5,14-3.6,1-4.8-2.4-5.2-5.2-1-6.2-.8-12.6.7-18.8.7-3,2.1-10.2,6.4-7.9"/>
        <path id="Path_6270" class="st1" d="M572.7,171c-2.5,2.5-5.2-2.9-6.5-4.3-3.2-3.5-6.6-6.9-10.1-10.1-2-1.7-9.2-5.7-9.8-7.5-.4-1.5.5-3.1,2-3.6,0,0,0,0,.2,0,2.1-.2,8.1,4.9,9.9,6.4,2.3,2,14.8,15.1,15,17.1,0,.7-.2,1.5-.6,2.1"/>
        <path id="Path_6271" class="st1" d="M299.1,310c1.1-.5,2.4,0,2.9,1.1,0,.2.1.4.2.5.8,4.4-1.2,16.3-2.2,21-.7,3.3-2.2,12.1-6.9,8.4-1.1-1.9,1.2-6.5,1.6-8.8,1.3-7.1,1.8-14.6,3.6-21.6.2-.3.5-.5.9-.6"/>
        <path id="Path_6272" class="st1" d="M580.5,196.9c1.4-.4,2.1.4,2.7,1.6,2.2,4.3,1.5,20.5.8,25.7-.2,1.8-.4,5.4-2.7,5.6-4.1.4-1.7-7.9-1.6-10,.1-3.5.1-7.4,0-10.9,0-2.4-2.3-11.1.8-12"/>
        <path id="Path_6273" class="st1" d="M275,357.9c7.5-.4,1.1,6.1-1.7,8.2-2.5,2-15.5,8.5-18.4,9.2-1.9.5-4.6.2-3.9-2.4.5-1.6,5.2-2.9,6.7-3.7,6-3.4,11.8-7.2,17.3-11.3"/>
        <path id="Path_6274" class="st1" d="M511.5,293.9c-.6.6-9.7,2.9-11.3,3.2-3.2.7-17,3-19,1.4-1-.8-1.1-3,.1-3.4,4.7-.5,9.5-.9,14.1-1.7,2.6-.5,15.3-4.5,16.5-2.9.4,1.1.3,2.4-.4,3.4"/>
        <path id="Path_6275" d="M472.6,188.4l7.9-12.8c.2,1.7-1,3.1-1.8,4.4-1.7,3.1-3.7,5.9-6.1,8.4"/>
        <path id="Path_6276" d="M481.5,182c-.5,2.6-2.5,5.9-4.1,7.9-.4.5,0,1.2-1.3.9,1.4-2.6,2.7-5.3,4.2-7.9.4-.6,0-1.2,1.2-1"/>
        <path id="Path_6277" d="M469.6,185.9c1.4-3.4,2.9-7.3,5.4-9.9-1.3,3.5-3.1,6.9-5.4,9.9"/>
        <path id="Path_6278" d="M315.6,106c1.8-2.2,3.5-4.7,5.9-6.4-.8,1.6-1.9,3.1-3.2,4.4-.4.4-2.2,2.5-2.7,2"/>
        <path id="Path_6279" d="M351.6,68c-.3.9-4.6,6.7-5.4,5.9l1.7-2.5s3.7-3.4,3.7-3.4Z"/>
        <path id="Path_6280" d="M235.6,46.3l-6.9,7.4c.3-2.2,3.4-5,5.2-6.4.6-.5.8-1.2,1.7-1"/>
        <path id="Path_6281" d="M241,45.3c-.8.6-5.6,7.2-6.4,6.4,1.2-2.1,2.8-3.9,4.7-5.4.6-.5.8-1.2,1.7-1"/>
        <path id="Path_6282" class="st1" d="M53,99.1c2.2-1.2,6.2,3.1,7.5,4.7,4.1,5.7,6.7,13.2,10.3,18.6,2.1,3.1,12,12.6,12,15.4.1,1.6-1.1,3.1-2.8,3.2-.9,0-1.7-.3-2.3-.9-7-10-16-19.6-22.2-30.1-1.3-2.2-5.8-9.2-2.5-11"/>
      </g>
    </g>
  </g>
</svg>