<?xml version="1.0" encoding="UTF-8"?>
<svg id="Layer_2" xmlns="http://www.w3.org/2000/svg" xmlns:xlink="http://www.w3.org/1999/xlink" version="1.1" viewBox="0 0 319.4 304.7">
  <!-- Generator: Adobe Illustrator 29.6.1, SVG Export Plug-In . SVG Version: 2.1.1 Build 9)  -->
  <defs>
    <style>
      .st0 {
        fill: none;
      }

      .st1 {
        fill: #fff;
      }

      .st2 {
        clip-path: url(#clippath);
      }
    </style>
    <clipPath id="clippath">
      <rect class="st0" width="319.4" height="304.7"/>
    </clipPath>
  </defs>
  <g id="Layer_1-2">
    <g>
      <path id="Path_6697" class="st1" d="M244.9,69s31.6-33.6,32.6-34.6S310.9,1,310.9,1l6.8,4.7-10.2,23.1-8.6,12.9-2.2,4.2-9.9,20.7-19.3,25.2-5.8,7.6-8.2,10.8-7.3,3.9-23.9,27.2-38.6,47.4-18.1,17.6-8.2,23.1-38.8,21.2,9.7-40.4,18.3-11.4,13.4-18.5,3.7-5.8,47.6-61.3,33.7-44.3h0Z"/>
      <g class="st2">
        <g id="Group_8982">
          <path id="Path_6688" d="M245.7,115.2c-1,.8-4.4,5.2-5.5,6.6-6.3,7.9-12,16.3-18.2,24.3-13.2,16.7-27.2,32.6-41.7,48.2-5.5,5.9-11.3,10-14.4,17.8-1.2,3-4.3,15.3-6,16.7-4.8,2.8-10,5.3-14.6,8.2-8,5-16.2,12.4-24.8,16.1-8.2,3.6-14.6,7.8-22.4,12-4.9,2.6-14.1,8.1-19.6,7.2-2.7-.4-2.6-3.1-3.3-3.6-2.3-1.6-11.2,2.4-13.7,3.6-2.9,1.4-7.9,5-10.5,5.6-2.9.7-5.9-.4-7.7-2.7l-2.5-7.1c-3.9,4-7.3,8.5-11.1,12.6-5.2,5.7-12.6,14.6-18.2,19.3C9.3,302.2.1,308.4,0,301.7c0-4.5,6.6-20.2,10.9-21.9.5-.2,1.5-.5,1.2.4-.4,1.1-2.5,2.6-3.2,4.1-1.4,2.8-4.2,9.9-4.4,12.8-.1,1.8.3,4.1,2.6,3,1-.4,5.7-4.9,6.7-5.9,6.8-7,12.4-15.3,18.7-22.6,1.1-1.2,6.8-7.1,7.9-7.4.8-.3,1.7-.3,2.6-.1,1.7,2,3,9.9,5.6,10.3s14.3-7.4,18.3-8.5c3.3-1,6.8-1.3,10.2-.9,1.3.6,0,3.6,3.3,4.3,2.9.6,9.3-3.4,12.1-5,8.3-4.8,16.2-10.4,24.7-14.9,3.3-9.6,7.7-20.2,8.9-30.3.3-2.4-.1-8.2,1.2-9.8.7-.6,1.4-1.2,2.2-1.8,3.7-2.7,12.2-6.3,14.9-9,1.1-1.1,4.1-5.3,5.5-7,10.7-13.2,20-27.9,29.9-41.6,5.4-7.5,11.4-14.7,16.7-22.3,10.5-15,21.8-29.6,33.4-43.9,12.1-14.9,25.9-28.1,38.9-42.3,12.1-13.3,26.1-25.3,37.7-38.8.7-.8,2.3-2.7,3.5-2.3,2.2,1.1,4.3,2.3,6.4,3.6,1,.6,3.3,2,3.1,3.2-2.4,6-4.5,12-7.5,17.8-2,3.8-4.6,8.8-6.8,12.3-2,3.2-4.9,5.9-7,9.1-.3,1.1.7,2.4.7,3.4,0,1.9-6.7,10.6-8.2,12.7-6.4,8.9-13.3,17.3-19.8,26.1-4.7,6.3-14.3,22.7-21.1,25.6-1.1.5-3.2.7-3.9,1.2M315.6,6.4c-1.7-.3-5.5-3.9-6.8-3.3l-34.7,35.4v.7c3.4,6.6,9.1,9.9,15.8,12.6l.7-.3c3.7-5.6,8.7-10.9,12.1-16.6,3.9-6.5,10.5-19.4,12.6-26.5.2-.5.6-1.6.3-2.1M271.1,42c-.8.2-9,10.4-10.4,11.9-18.3,19.7-35.8,39.8-52.2,61-1.6,2.1-11.9,15.1-11.9,16.4,2.5,6.1,7.3,11.1,13.3,13.9,1.7.8,6.9,3.1,8.3,2.1l69.7-91.5-.2-1.3c-4.9-2-9.9-4.4-13.4-8.4-.6-.7-2.6-4.1-3.2-4M247.9,112.8c1.9-.5,3.6-1.6,4.8-3.1,5.9-6.2,11.5-16.1,16.7-23.1,8.5-11.4,17.2-22.3,25.4-33.9,1.1-1.6,2.7-1.9,2.1-4.6-2.8,2.7-4.9,6-7.3,9-12.7,15.5-23.3,32.2-35.6,47.8-.5.6-6.6,7.5-6.1,7.8M215,151c-6.1-1.4-13.3-6.5-17.2-11.3-1-1.4-1.9-2.9-2.8-4.5-.2-.4-.3-.8-.9-.7-3.4,4.6-7.3,8.8-10.7,13.4-6.2,8.4-12.6,17.6-18.5,26.2-3.1,4.4-7.4,10.4-9.9,14.9-.4.7-2,3.2-2,3.8,1.3,3.7,4.2,6.2,7.5,8.2,2.1,1.2,6.3,3.6,8.5,2.2,4.5-5.3,8.9-11.2,13.6-16.2,3.1-3.4,6.8-6.2,10-9.6,3.7-3.9,7.1-8.1,10.4-12.3l-5.2-10.3c2.9,2,3.8,5.8,5.4,8.5.2.4.3.8.9.6l10.9-13h0ZM163.7,211.5c-6.9-1.2-11.4-7-15.9-11.8-.8-.1-3.2,2.2-4.1,2.7-2.7,1.5-10.9,4.4-12.5,6.2-.8.9-.3,4.9-.4,6.4-1.1,11.3-5.7,21.1-9.5,31.6,4-5.9,8.3-11.6,13-17,.6-.6,2-1.4,2.1-1.7.5-.8-1.1-2.9.6-3.6.9-.4,3.3,1.3,3.4,2.3.3,2.2-1.1,1.3-1.8,1.8-.1,0-1,2-1.5,2.6-2.2,2.8-4.5,5.4-6.6,8.3l-3.9,6.2c.2.3,5.3-3.8,6-4.1,3.6-2,6.5-3.7,10-5.7,4.8-2.7,10.1-4.6,14.2-8.3l6.9-15.8h0Z"/>
          <path id="Path_6689" d="M168.3,193.1c-1.1.9-3.1-2.8-3.5-3.6-1.4-2.4-2.9-5.6-3-8.3,2.8,3.3,4.5,8,6.5,11.9"/>
          <path id="Path_6690" d="M171,187.8c-1,1-3.3-3.2-3.6-3.8-.7-1-1.2-2.2-1.3-3.4,1,.2,2,1.8,2.6,2.6.5.6,2.8,4.2,2.4,4.7"/>
          <path id="Path_6691" d="M200.1,167.1c-.9.2-1.2-1.1-1.6-1.7-1.2-2-2.3-4.1-3-6.4,2.3,1.9,4.4,5,4.6,8"/>
          <path id="Path_6692" d="M170.2,177.8c1.1-.9,3.2,2.8,3.5,3.6.1.4.4.9-.3,1-1.1.2-3-3.6-3.2-4.6"/>
          <path id="Path_6693" d="M161.4,193.5c-1.3-.7-2.1-2.4-2.6-3.7-.2-.6-1.2-2.1-.2-2.4,1.2,1.9,2.9,3.8,2.9,6.1"/>
          <path id="Path_6694" d="M158.7,192.8c-1.1,1.1-2.9-3.6-2.7-3.8,1.5-.7,3,3.5,2.7,3.8"/>
          <path id="Path_6695" d="M197.4,168.6c-1.5-1.3-2.4-3.1-2.7-5,1.4,1.3,2.4,3.1,2.7,5"/>
          <path id="Path_6696" d="M192.4,166.7c1.3,0,2,1.5,2.3,2.5.2.7.6.8-.2,1.3l-2.1-3.8Z"/>
        </g>
      </g>
    </g>
  </g>
</svg>