<?xml version="1.0" encoding="UTF-8"?>
<svg id="Layer_2" data-name="Layer 2" xmlns="http://www.w3.org/2000/svg" xmlns:xlink="http://www.w3.org/1999/xlink" viewBox="0 0 425.54 334.36">
  <defs>
    <style>
      .cls-1 {
        fill: none;
      }

      .cls-2 {
        clip-path: url(#clippath);
      }
    </style>
    <clipPath id="clippath">
      <rect class="cls-1" width="425.54" height="334.36"/>
    </clipPath>
  </defs>
  <g id="Layer_1-2" data-name="Layer 1">
    <g class="cls-2">
      <g id="Group_9123" data-name="Group 9123">
        <path id="Path_7243" data-name="Path 7243" d="M0,.53l424.96-.53c-.23,11.17.61,22.29.58,33.46-.12,51.12-.59,102.82-.61,153.69-.01,48.89.27,97.85-.22,146.69l-.67.42-413.82.1c-3.35-.94-7.63.4-10.23-1.87V.53ZM7.76,3.69l17.59,13.03,373.32.15,19.63-11.87c.06-1.31-9.31-.69-10.79-.79-27.98-1.92-59.07-2.29-86.99.53-5.57.56-12.46,2.68-17.73,2.68-9.97,0-21.4-3.08-31.55-3.23-37.45-.57-75.12,2.02-112.48,2.68-10.71.19-20.1-1.46-30.5-2.12-28.26-1.79-54.88-1.4-83.08-.51-4.52.14-9.08-.16-13.6-.02.74,1.72,11.23,5.76,9.41,7.89l-10.92-7.9c-5.56-.77-11.16,0-16.47.02-1.66,0-3.89-1.05-5.84-.54M22.16,292.21c.24-89.59-.29-179.21-.02-268.8,0-1.32.63-2.64.56-3.63-.13-1.95-3.66-4.23-5.26-5.54-4.2-3.44-8.74-6.45-13.56-8.97.52,2.74-.61,5.6-.61,8.16,0,7.06-.32,15.83.03,22.67.4,7.83,2.59,15.64,1.76,23.6.28.75,12.82,6.64,13.23,9.54-1.22.35-3.09-1.28-4.06-1.93-3.17-2.12-6.1-4.59-9.24-6.75-.45,5.2.98,10.35.57,15.55-.63,7.95-1.59,13.76-1.66,22.12-.09,11.49-1.16,24.38-.6,35.8.25,5.02,1.64,10.66,1.71,15.75.16,12.14-2.12,24.58-1.71,37.43.68,21.22,1.08,42.48,1.15,63.66.03,9.37-1.23,19.03-1.18,27.93.03,4.27,1.5,9.66,1.73,14.18.5,11.51.13,23.05-1.12,34.51.96.24,1.11-.38,1.66-.79,2.45-1.79,5.29-4.82,7.75-6.85,2.2-1.83,8.57-5.44,8.9-7.86.25-1.81.24-16.95-.28-17.68-5.05-2.13-10.59-3.16-15.7-5.11-.84-.32-1.5.31-1.22-1.18,5.97.13,11.48,2.82,17.17,4.21M401.13,122.68v191.38l14.98,12.62,5.52,1.34c-.96-10.72-1-21.11-1.08-31.88-.06-8.38,1.15-16.84.56-25.27-.28-4.03-1.47-8.07-1.73-12.08-.37-5.79.52-13.35.58-19.51.15-16.8-.13-33.62,0-50.55.06-7.51-.48-17.1,0-24.22.26-3.76,1.44-7.75,1.68-11.57.3-4.72-.24-9.51.04-14.23l-.36-.83-15.74-6.52c2.57-1.66,15.49,5.6,16.06,5,0-6.45-1.64-12.79-2.21-19.22-.75-8.5-1.72-19.51-1.71-27.89.01-8.08,2.37-17.09,2.81-25.29.63-11.72.16-23.55,1.11-35.27l-1.66-20.8c-.86-.86-7.11,3.76-8.25,4.53-2.13,1.44-8.69,5.79-10.02,7.32-.44.38-.66.96-.6,1.54l.04,100.33c1.64-.16,2.93.27,4.42.8,4.29,1.57,8.5,3.37,12.59,5.41.56.3,1.45.6,1.27,1.42l-1.68.57-16.6-7.14ZM395.59,22.64H28.53l-.83.79v288.79h367.61l.27-289.58ZM413.32,328.01c-.17-.64-.89-1.13-1.4-1.56-1.68-1.42-11.92-8.83-13.25-9-124.58-.59-249.52-1-374.05,0l-14.65,11.87,55.96-.79-9.98-7.62-1.09-1.85c4.83,2.59,9.59,5.78,13.11,9.91,11.72.6,25.38,2.8,37.02,2.19,10.51-.55,16.45-1.02,27.13-.5,6.99.34,15.89-.46,23.27-.53,19.64-.18,38.17-1.89,57.62-2.68,10.5-.42,20.83,1.2,31.06,1.08,21.26-.25,40.96,2.35,62.02,2.08,6.67-.09,13.36-.39,19.95-.53,6.92-.14,13.88.16,20.8.02l-4.7-5.79,7.75,5.86,4.71-.85c-2.13-2.52-5.94-4.52-6.92-7.64,6.38,3.3,8.48,10.31,17.45,7.64l-7.47-7.64c3.78,1.56,7.05,4.9,9.53,7.91,8.62-.32,17.34.39,25.95.01,2.17-.09,4.5-.92,6.64-1.07,4.48-.31,9.08.04,13.56-.54"/>
        <path id="Path_7244" data-name="Path 7244" d="M415.54,121.1l-13.29-5.26c3.37-.05,7.88,1.59,10.9,3.06.98.48,2.59.82,2.39,2.2"/>
        <path id="Path_7245" data-name="Path 7245" d="M405.01,112.14c-.18-1.27.09-1.18,1.27-.94,1.23.25,6.97,2.24,7.03,3.31-.85,1.11-1,.72-2.05.38-2.01-.65-4.02-2.42-6.25-2.75"/>
        <path id="Path_7246" data-name="Path 7246" d="M418.31,142.16c-.41.37-9.4-3.11-9.97-4.73,2.47.77,6.57,1.85,8.7,3.05.76.43,1.49.64,1.27,1.68"/>
        <path id="Path_7247" data-name="Path 7247" d="M21.05,82.66c-.44.4-2.2-1.02-2.71-1.37-2.8-1.91-7.88-5.93-10.03-8.37-.52-.59-1.34-.85-1.1-1.84.48-.49,10.18,7.34,11.08,8.15.5.45,3.37,2.87,2.76,3.43"/>
        <path id="Path_7248" data-name="Path 7248" d="M21.61,55.28c-.37.39-3.61-2.23-4.14-2.64-2.74-2.12-5.36-4.39-8.12-6.51-.25-.2-2.03-.61-1.04-1.37.88-.67,6.42,3.44,7.46,4.22,1.02.77,6.88,5.19,5.83,6.3"/>
        <path id="Path_7249" data-name="Path 7249" d="M20.49,298.56v1.55c-.53.53-13.19-3.45-13.27-4.47-.07-1,1.6-.51,2.1-.43,3.67.51,7.49,2.72,11.17,3.35"/>
        <path id="Path_7250" data-name="Path 7250" d="M19.31,285.44c.23.36.03,1.02.08,1.5-.57.58-10.8-3.69-12.2-4.48-.71-.4-1.4.1-1.09-1.31,1.76.76,12.68,3.47,13.21,4.28"/>
        <path id="Path_7251" data-name="Path 7251" d="M18.28,45.28c-.87.74-7.84-4.78-8.86-5.78.94-.17,1.61.24,2.4.61.68.32,7.43,4.35,6.46,5.18"/>
        <path id="Path_7252" data-name="Path 7252" d="M17.73,86.87c-.41.4-3.33-1.93-3.88-2.36-.48-.37-4.38-3.49-3.87-3.96,1.13.33,8.71,5.39,7.75,6.32"/>
        <path id="Path_7253" data-name="Path 7253" d="M14.96,60.03c-.22.23-4.89-3.06-5.47-3.48-.42-.31-3.04-1.62-2.27-2.31.89.46,8.96,4.56,7.75,5.79"/>
        <path id="Path_7254" data-name="Path 7254" d="M77.01,329.59c-.38.38-3.08-1.72-3.58-2.12-1.07-.85-8.39-6.91-7.49-7.88,1.54.57,12.24,8.86,11.07,10"/>
        <path id="Path_7255" data-name="Path 7255" d="M81.44,327.49c-.31.33-6.47-4.96-7.15-5.58-.59-.54-1.41-.76-1.15-1.8,1.34.49,9.7,5.9,8.3,7.37"/>
        <path id="Path_7256" data-name="Path 7256" d="M55.4,325.91c-.44.46-5.57-4.03-5.54-5.26.67-.57,6.14,4.63,5.54,5.26"/>
        <path id="Path_7257" data-name="Path 7257" d="M372.32,15.8c-.78.74-7.02-3.38-8.15-4.09-2.36-1.48-6.31-4.05-8.31-5.79-1.38-1.2-1.87-2.54.43-1.99,1.71.41,14.06,8.37,15.25,9.74.62.71.98,1.13.79,2.14"/>
        <path id="Path_7258" data-name="Path 7258" d="M382.29,14.74c-.81.97-13.2-8.43-13.28-9.21-.13-1.25,1.41-.3,1.82-.17,1.74.57,9.5,5.89,10.67,7.24.61.7.97,1.17.79,2.14"/>
        <path id="Path_7259" data-name="Path 7259" d="M358.47,15.27c-.97.89-10.07-6.5-11.08-7.63-.53-.59-1.33-.86-1.1-1.84,1.06-.92,10.02,6.41,11.08,7.63.52.59,1.35.85,1.11,1.84"/>
        <path id="Path_7260" data-name="Path 7260" d="M348.87,12.81c.52.5.79,1.21.73,1.93-.76.7-9.13-3.97-8.3-6.31.81-.76,6.85,3.57,7.57,4.38"/>
        <path id="Path_7261" data-name="Path 7261" d="M33.8,13.69c-4.28-.54-6.64-4.98-10.52-6.57.96-1.26,1.3-.66,2.39-.17,2.64,1.17,6.22,4.62,8.14,6.75"/>
      </g>
    </g>
  </g>
</svg>