<?xml version="1.0" encoding="UTF-8"?>
<svg id="Layer_2" xmlns="http://www.w3.org/2000/svg" version="1.1" viewBox="0 0 49.4 55.5">
  <!-- Generator: Adobe Illustrator 29.6.1, SVG Export Plug-In . SVG Version: 2.1.1 Build 9)  -->
  <defs>
    <style>
      .st0 {
        fill: #fff;
      }
    </style>
  </defs>
  <g id="Layer_1-2">
    <g>
      <polygon class="st0" points="4.1 7.2 6.8 4.3 8.9 2.6 12.7 1.1 16.3 .5 21 1.3 24.2 4.2 27 7 30.8 11.6 33.8 15.3 36.8 19.1 38 22.7 37.5 27.9 36.8 31.8 36.8 36.4 38.6 38.6 43.2 44.2 47 47.9 49 51.6 46.9 54.1 44.4 55.2 40.4 51.4 37.1 46.5 33.8 41.7 31.1 39.2 26.5 38.5 20.1 38.1 18.1 40.3 14.2 40.8 10 40.8 7.2 38.3 5.9 34.5 6 32.3 7 29.4 7.3 27.5 3.2 22.2 1.6 15.7 1.6 10.4 4.1 7.2"/>
      <g>
        <path d="M37.7,36.8c1.7,1.9,3.3,3.9,4.9,5.8,2.1,2.4,4.8,4.8,6.3,7.7.1.3.4.9.4,1.2,0,.9-1.6,2.3-2.3,2.9-1,.4-1.7,1.4-2.8,1-1.5-.5-3.2-2.7-4.3-3.9-1.8-2.2-3.3-4.5-5-6.7-1-1.3-2.3-2.5-3.1-4.1-.4,0-.7.1-1,.2-1.1,0-2.1-1-3.1-1.3-2.3-.6-4.7,0-7.1,0-.2,0-.5-.1-.7,0-.1,0-1,.9-1.3,1.1-2.4,1.6-6.5,1.6-9,.4-3.9-1.8-5.3-7.4-3.6-11.2.1-.2.6-.9.5-1-1.4-1.9-2.9-3.8-3.9-6C1.6,20.7.4,18.3.1,15.9c-.2-1.8-.1-2.6.4-4.3C2.6,4.2,7.9,2.7,14.4,0c1.8,0,5-.2,6.6.6,2.3,1.2,6.6,5.6,8.2,7.8,1.2,1.6,2.3,3.3,3.6,4.8,3,3.8,5.4,5.3,5.8,10.5.3,3.1-.6,5.3-.8,8.2,0,1-.1,2-.2,2.9,0,.6,0,1.1-.2,1.7,0,.2.2.2.2.2h0ZM5.5,22c0-.5.3-1,.6-1.4,1.5-3.1,3.5-5.5,5.9-8,.8-.8,1.7-1.5,2.4-2.2,1.3-1.5,2.8-3.8,3.8-5.6.3-.5.5-1.2.8-1.7.2-.3.7-.9.8-1.1,0-.1,0-.1,0-.2,0,0-1.4-.5-1.6-.5-1-.1-3,.1-3.9.4-2.3.6-6.2,2.2-7.7,4-2.1,2.8-4.2,6.4-3.5,10,.3,1.7,1.3,4.9,2.3,6.3,0,0,0,.2.2.1h0ZM8.4,26.9c.3.1.4-.1.6-.2,1.3-.5,2.5-.7,3.9-.4h.1c.9-.9,1.4-2.1,2.1-3.1,2.1-3,5.3-5.3,7.6-8.1,1.6-2,3.1-4.1,4.4-6.3v-.4c-1.7-2.3-3.9-4-6-5.8-.2,0-.1,0-.1.1-.1.2-.2.5-.3.7-.9,1.5-2,3.5-3,4.8-1,1.3-2.2,2.3-3.2,3.5-.4.5-.8,1.2-1.3,1.7-.9,1-2,1.8-2.8,2.8-1.2,1.4-3.3,4.9-3.9,6.7,0,.2-.1.5-.2.7.6,1.2,1.5,2.3,2.2,3.4h0ZM21.4,37.2c.5,0,.9.1,1.3.2,2.1.2,5.8-.2,7.6.7.4.2,1.5,1.2,1.7,1.2.1,0,1.8-.8,2-1,.5-.3,2.2-1.5,2.3-2,0-1,0-1.9-.2-2.9,0-.2-.2-.4-.2-.6-.2-2.8,1.5-5.4,1.4-8.2-.2-4.5-1.9-6.3-4.6-9.6-1.1-1.3-2.2-2.7-3.3-4.1-.5-.6-1.1-1.1-1.6-1.7-.4.7-.7,2-1.2,2.6-1.4,1.8-2.9,3.6-4.4,5.3-1.3,1.6-2.8,3-4,4.7s-1.9,3.4-2.8,5.2h0c.5.3.9.5,1.3.8,1.3.9,2.7,2.4,3.4,3.8.8,1.8,1.3,3.7,1.1,5.6h0ZM10.8,27.8c-1.1.1-1.4.3-2.2,1.1-.6.6-1.4,1.8-1.6,2.6-.4,2,.9,6.9,2.8,8.1,1.5.9,6.4.8,7.9-.2.2-.2,1.7-1.7,1.8-2,1.1-1.9.4-4-.7-5.7-.7-1.1-2.8-2.6-4-3.2-1.1-.5-2.8-.8-3.9-.7h0ZM37,37.4c-.2-.1-1.2,1.1-1.3,1.3-.8.7-2,1.2-2.9,1.7l2.5,3.1c.5,0,2.2-1,2.6-1.3.4-.3,1.6-1.2,1.4-1.7-.8-1-1.6-2-2.2-3.1h0ZM35.8,44.2c0,0,.7,1.1.8,1.2.1.2.7.9.8.9,1.6-.8,2.9-1.9,3.8-3.5l-1.3-1.3c-1,1.3-2.6,2.4-4.2,2.7h0ZM37.8,46.7c0,0,0,.2,0,.2,0,.2,1,1.2,1.1,1.2.4,0,2.1-1.2,2.5-1.5.3-.2,1.6-1.7,1.5-1.9l-1.3-1.4c-.9,1.5-2.1,2.9-3.9,3.4h0ZM39.5,48.7c0,.1,0,.1,0,.2.2.2.8,1,1,1.2,0,0,.1.1.3.1s2.1-1.5,2.3-1.8c.2-.2,1.4-1.7,1.4-2l-1.3-1.5c-.8,1.6-2.1,3.1-3.8,3.7h0ZM41.5,50.8c0,.1,0,.2,0,.3,0,0,1,1.1,1.1,1.1.3.1,1.3-.3,1.6-.5.4-.3,2.2-2.2,2.3-2.7,0-.1,0-.2,0-.3,0-.3-1.1-1.1-1.3-1.5-.9,1.5-2.1,3-3.8,3.7h0ZM47,49.4c-.6,1.1-1.2,1.6-2.1,2.4,0,0-.1.2-.3.3l-1.4.8c.4.5,1.4,1.7,2,1.5.4,0,1-.5,1.3-.8.4-.3,1.8-1.6,1.9-2,0-.2-.4-1-.5-1.2,0-.2-.7-1.2-.8-1.1h0Z"/>
        <path d="M30.3,20.4c.2,0,.4.2.5.3,1.1,1.4,2.2,4.7,2.7,6.5.2.5.5,1.5.6,2,0,.2,0,.3-.1.4-.3,0-.6-.7-.7-.9-.8-1.8-1.3-4-2-5.9-.3-.8-.7-1.6-1-2.4h0Z"/>
        <path d="M29,22.3c.1-.2.8.8.8.9.8,1.3,2.5,5.6,2.5,7,0,.1,0,.2,0,.2-.2,0-.3-.3-.4-.5-.7-1.3-1.2-3.2-1.7-4.6-.1-.4-1.3-3-1.2-3.1h0Z"/>
        <path d="M28.6,24.6c0,0,.5,1,.6,1.2.3.7.6,1.5.9,2.2.1.3.8,2.1.6,2.3-.3,0-.5-.5-.6-.8-.5-1.3-1.3-3.1-1.7-4.4,0-.2-.2-.7.2-.5h0Z"/>
      </g>
    </g>
  </g>
</svg>