<?xml version="1.0" encoding="UTF-8"?>
<svg id="Layer_2" xmlns="http://www.w3.org/2000/svg" xmlns:xlink="http://www.w3.org/1999/xlink" version="1.1" viewBox="0 0 475 356.8">
  <!-- Generator: Adobe Illustrator 29.6.1, SVG Export Plug-In . SVG Version: 2.1.1 Build 9)  -->
  <defs>
    <style>
      .st0, .st1 {
        fill: none;
      }

      .st1 {
        stroke: #000;
        stroke-width: 1.8px;
      }

      .st2 {
        fill: #fff;
      }

      .st3 {
        fill: #fd8721;
      }

      .st4 {
        clip-path: url(#clippath);
      }
    </style>
    <clipPath id="clippath">
      <rect class="st0" x=".8" width="474.2" height="356.8"/>
    </clipPath>
  </defs>
  <g id="Layer_1-2">
    <g>
      <g>
        <polygon class="st2" points="208 322.3 230.9 291.2 252.6 261.6 249.2 258.1 195.5 243.5 185.7 249.5 152.7 271.9 141.8 260 0 309.5 2.7 312.9 89 356.8 106.2 347.8 165.2 318 202.8 321.2 208 322.3"/>
        <path class="st2" d="M287.2,53.1l.4-6.5-3.8-7.2-4.9-5,2.5-9-1.9-10-6.2-9.9-14.1-4.7-11.8,2.1-15.4,15.5-8.8,14.4s-2.4,7.5-2.2,7.8,0,7.9,0,7.9c0,0-2.8,10.5-2.7,11s.4,9.5.9,9.2-2.2,9.8-2.2,9.8l-2.4,18.4-8.5,19.8-12.7,17.2v4.8l-1.9,8.1s-.1,4.4-.1,4.7,2.6,4.7,2.6,4.7l.4,6.1-1.1,8.5v13.9c.1,0,7.2,17.2,7.2,17.2l4.2,5.6,4.4,8.5,5.4,3.4,9.6,14.7,26,15.6,10.4,10.5,9.9,17.7,3.9,6.8,5.3,2.2,1.9,5.8s2.5,1.9,2.6,1.5,3-7.4,3-7.4l6.6-3,7.1-9.9,2.3,2,1.6,6.7,3.7,10.1,2.6-1.1,1-4s2.3,3.3,2.6,3.3,9.8,1.1,9.8,1.1l6.7-9.3,7.2-19.5,3.7-9.4,14.9-13.8,5,3.9,5.1,5.4s14.8,10.9,15.1,10.9h4.7l4.4-2.5.5-3.1,8.3,5.1,15.4,9,9.2,2.4,6.3-1.5,2.2-2.8,4,2.2,5.2,4.5,5.1.9,3.9-1.9.2-2.9,5.2,1.3,6.3,4,6.8,1.9,1-3.6-1.4-9.2-6.5-7.6-18-17.6,1.2-1.4-1.9-4.6-13.2-7.5-3.3-4.9-3.6-7.3-11.7-14.6-12.3-11.2-6.5-10.1-17.5-20.2-15.4-17.3-12.3-12.1-15.8-12.8-15.8-9.9-10.9-2.7-3.6,1.1-6.2-6-10-7.3.3-1.2,8.3,4.1,30.3-20.1,6.2-2.6.2-2.6-26.7-20-15.3,3.9-2.6,2.3v-.5c0,0,0,0,0,0Z"/>
        <g id="Group_8992">
          <g class="st4">
            <g id="Group_8991">
              <path id="Path_6705" d="M385.7,164.6c4.3,4.6,9.5,8.8,11.6,14.9,12.4,13.4,26.6,26,34,43.1,5.7,3.1,14.7,7.8,17.1,14.1.2.6,0,1.2.4,1.9.9,1.5,5,5.2,6.5,6.7,5.9,6.1,17.6,16.8,19.3,25.1.6,2.9,1,7.7-3.1,7.8-3.7,0-8-2.1-11.3-3.8-2.4-1.3-4.7-3-7.2-4.2-1.9,5-4.4,6.6-9.7,5.1-3.5-.9-5.7-3.7-8.1-6.1-.4,0-2.4,2.2-2.9,2.6-3.2,2.4-7.8,2-11.4,1-8.9-2.6-16.2-7.5-23.7-12.8-1.5-1-3-2.2-4.4-3.5-1.5,2.3-3.6,5.2-6.6,5.1-6.5-.2-15.5-8.1-20.2-12.3-1.5-1.3-2.9-3.2-4.4-4.4-1.4-1.1-3.5-1.9-4.8-3.2-3.7,3.9-8.1,7.1-11.4,11.4-8.4,10.1-8.6,27.1-16.9,36.6-1.5,1.8-4.9,4.5-7.4,3.4l-4.1,10,5.2-1.4c6.1.7,12.2-.3,18.3-.5.9,0,4.3-.4,4.2.9-.1.4-.3.7-.6.9-1.2,1-10.5,3.4-12.5,3.7-4,.7-7.9-.1-11.8.9-1.9.5-3.9,1.5-5.9,2-3.1,3.9-6.1,7.9-9.2,11.9-.6.8-2.1,3.8-3,2.9-2.1-2.3,3.5-12.4,4.8-14.9-3.7,1.6-7.2,4-11.2,5-.7.2-4,.8-4.3.3-.9-1.2,3.9-5.7,3.5-6.1l-9.4,1.9c-6.7,2.9-13.2,6.4-20,9.1-2.7,1.1-7.3,3.6-9.6,1.3.2-.2.4-.4.6-.6,2.4-1.9,7.8-5,10.6-6.6,2.9-1.6,5.9-3,8.8-4.5.1-1.1-.5-1-1.3-.9-3.7.5-9.1,2.2-12.9,3.1-1.8.4-3.8.6-5.6,1s-7.6,2.8-8.8,2.6c-.7,0-1.1-.3-.8-1,.1-.3,5.2-3.2,6-3.7,2.9-1.6,5.8-3,8.9-4.2,0-.4-.6-.3-.9-.2-3.3.3-6.5,1.7-9.8.5.2-.8.9-1,1.5-1.4,3.5-1.8,11.4-5,15.2-5.6,4-.7,8,.2,12,.7v-12c-.2-.4-4.5-2.2-5.4-2.8-4.9-3-5.3-7.1-7.4-11.9-4.1-9.5-16-21.9-25-27.1-9.7-5.5-17.8-10-24.2-19.7-1-1.6-2.3-4.9-3.2-5.9s-3.4-2.2-4.7-3.4c-4.1-3.9-4.9-6.9-7.1-11.7-.4-.9-2.3-2.6-3-3.6-5.7-8.2-7.7-25.3-7.5-35.1,0-3.2,1.1-7.4,1-10.4,0-.9-1.3-3.4-1.6-4.8-1.1-4.9-.8-10.2,1.9-14.6-1.7-.7-.1-4,.5-5.4,2.9-6.6,10.1-14.2,13.6-20.9,2.6-5,6.9-18.8,7.4-24.3.3-2.7,0-5.8.3-8.6.4-3.8,1.7-7.5,3.7-10.7-1.7-5.8-1-11.6.2-17.3.2-1.2,1-2.7,1.1-3.7.6-3.8,0-6.5,1.3-10.7,2.9-9,15.8-27.1,23.9-32,5.3-3.2,15.5-4.8,21.3-2.8,11.8,4.1,17.1,12.8,16.5,25.1,0,1.7-1.3,7.8-1,8.8.1.4,2,2.4,2.4,3.1,1.1,1.8,4.2,7.8,4.4,9.6.1,1.3-.4,6.8-1.5,7.4h-.6c-1.7-.7-2.4-2.6-3.5-4.1l-5.9-.9c-5,2.5-6.5,7.8-6,13.1.3,2.8,2.9,7.3,4.4,9.8,6,10.2,13.7,17.2,23.1,24.1,1.1.8,4.9,3.7,5.8,4.1,1.1.4,5.6-.3,7.5,0,4.9.5,12.6,6.7,16.9,9.5,9.1,5.9,20,12.4,27.1,20.6,3.5,4.1,6.6,9.1,10,13.1,2.6,3.1,6.6,6.2,9.5,9.3,3.6,3.7,7,7.5,10.5,11.2M222.4,42c-.1,1.2,0,2.7,0,3.9,1-.5,1.2-2.1,2-2.7.4-.2.6-.2.5.3-.4,1.3-1.5,3-2.1,4.3-2.4,5.5-2.9,8.7-2.2,14.8,0,.4,0,.8.4,1.1.1-.3,1.7-5.6,2.1-5.1.3,5.7-2.6,11-3.5,16.5-.5,3.2-.3,6.4-.6,9.5-1,9.9-9.1,31.4-15.5,39.1-2.9,3.5-6.7,6.4-9.1,10.4.9.1,1.5-.7,2.4-.9.4,0,1.2-.2,1.1.4,0,.4-1.7,2.9-2.1,3.8-1.2,2.5-2.6,6.3-3,8.9-.2,1.4.1,2.8-.3,4.2.6.2.4-.1.6-.3,1.3-1.5,2.2-3.4,3.7-4.6l.7.2c.6.6.2,4,.4,5.1.3,2.7.8,5.4,1.5,8,1.2-1,2.3-2.1,3.3-3.2.7-.7,1.1-2,2.3-1.9-.9,2.4-2.2,4.7-3.9,6.6-.7.8-2.3,2.6-3.3,1.8l-1.6-2.6c-.8,4.1-1.1,8.2-1,12.3.2,4.3.7,9.6,1.3,13.9.6,4.6,2.6,9,4.7,13.1.2-2.3-.9-4.4-1.1-6.7,0-.3-.2-1.4.2-1.4,1.6,3.7,2.1,7.9,3.7,11.7,1.5,3.5,4.5,10.1,7.4,12.4.3.2.4.6.9.5l-1.8-7.9.8-.2c.9.5,3.6,9.9,4.4,11.6,1.7,3.5,10.5,13.4,13.6,16.1,10.3,8.8,28.2,12,34.9,24.3,1.8,3.4,3.3,7.1,5,10.5,1.7,3.5,3.5,6.9,5.3,10.3l.6-3.3c.5-.4,1.2-.4,1.6,0,0,0,0,0,0,0l6.6,14.6c.6.1.4,0,.5-.4.5-1,.7-2.3,1.2-3.4.4-.9,1.8-4.7,2.9-4.4l1.5,1.1c6.1-2.7,8.5-9.9,9.4-16,.5-3.3.7-6.6.6-9.9-5.3-7.2-10.6-14.4-16.8-20.8.2-.4.6,0,.8.2,5,2.8,14.8,13.2,17.6,18.1,3.5,6.1,4.3,18.5,6,25.7.5,2.1,1.8,6.8,2.9,8.5.2.3,0,.4.6.3.2-.8,1.2-5.1,1.7-5.3,1.5-.5,2.3,2.2,3.1,3.1.2.2.2.2.5.2.4-.9,2-4.2,3.1-3.8.5.2,2.7,5.1,3.9,5.1,1.2-.7,2.3-1.4,3.3-2.3,6.2-6,6.9-18.5,10.1-26.5,2.5-6.5,7.6-12.8,12.8-17.4,5.2-4.7,11.6-8.3,15.6-14-2.5-2.6-5.1-5.1-7.6-7.6-4.3-4.4-8.7-9-12.8-13.6-1.6-1.8-4.6-6.2-6.2-7.5-.6-.5-1.7-.4-2.5-.8-4.6-2.1-9.8-7.3-13.3-11.1-3.4-3.5-6.3-7.4-8.6-11.6-.7-.1-.4,0-.5.4-.9,2.3-1.7,3-4.4,2.6-5.7-.7-11.9-12.7-14.5-17.5-.1-.3-.9-2.3-1.1-2,0,5.4-5.3,1-7-1-2.4-2.9-4.5-6.8-6.8-9.9l-1.6,3.6c-1.8,1.3-4-2.1-4.8-3.3-.5-.8-4.5-7.5-4.2-7.8.6,0,1.1.7,1.5,1.1,1.5,1.7,4.4,7.2,6.2,7.7.7.2.3-1.6.6-1.9,0-.7,0-4.9,1.2-4.7,1.4,2.2,3.2,4.1,4.7,6.3,1.4,2.1,4.8,8.6,6.8,9.5.6.2.4-.8.4-1.1,0-1.6-1-4.8-.8-6.1,0-.3.1-.5.4-.6,1.6-.5,2.8,3.7,3.4,4.7,3.1,5.9,8.1,16.2,13.9,19.3.8.4,2.8,1.4,3.5.6.4-.8.7-1.6.9-2.4.4-3.6-4.8-14.9-6.8-18.3-1-1.8-2.4-3.4-3.5-5.1-.4-.6-2.9-4.7-2.9-5,0-.3,0-.7.4-.9.4,0,.7.2,1,.5,2.2,2.1,4.4,6.1,6.5,8.5,4,4.6,8.3,8.2,12.9,12.2,3.2,2.8,5.8,5.9,9.8,7.7,3.6,1.6,9.2,2,8.4-3.6-.6-3.8-7-17.5-9.5-20.5-3.8-4.6-9.6-9.4-12.8-14.6-1.4-2.3-.2-3.1,1.9-1.7s4.9,5.1,7,7c1.6,1.5,3.5,2.8,5.1,4.3,5.9,5.4,9,10.2,17.7,11.5,2.5.4,4.4.4,6.6-1,.2-1.7-.4-3.3-1-4.9-3.1-7.8-6.5-11.1-12.5-16.4-1.2-1.1-9-7.7-9-8.5l.4-.6c2.5.6,4.3,1.9,6.4,3.2,6.6,4.4,13.1,11,20.4,13.9,1.3.5,2.9,1.1,4.3,1-3.1-3.8-6.2-7.6-9.8-11.1-8.9-8.5-25.4-22.7-36.6-27.4-7.5-3.1-13.5,1.3-19,5.8-.7.6-3.3,3.2-3.7,3.4-.9.4-1.1-.2-1-.9.3-1.9,3.4-6.1,4.8-7.7.5-.6,4.2-3.9,3.8-4.4-.3,0-.6-.1-.8-.3-12-7.5-32.6-25-31.9-40.4.2-4.5,3.1-9.4,6.3-12.3-2.5-.2-4.2-2.1-4.7-4.6l-.3-.2c-1.8,0-3.9,1.3-5.4-.2v-4.3c0-1,2.5-5,3.3-5.8,3.9-4.3,7.2-2.7,11.7-.4l1.5-7.8c-1.1-10.7-5.7-19.5-17-21.6-10.8-2.1-18.4,1.4-25.1,9.8-5.7,7.2-14.9,19.3-15.9,28.5M276.7,35c.3-.5-1.3-1.2-1.6-1.3-3.5-1.2-7.3.7-8.5,4.1-.3,1-.4,2-.3,3l5,.3c.4-2.8,2.8-5.2,5.4-6.1M275,42.8c.9.7,4,1.6,5.5,2.5,2.5,1.5,3.2,3.3,5.1,4.8.3.2.3.6.6.1.5-1.2.5-2.5.1-3.7-.3-1-4.1-7.9-4.8-8.5-2.9-2.5-6.4.5-7.9,3.1.5.3,1,1.3,1.3,1.6M271.9,42.7c-.3,0-1.5-.3-1.2.3l2.9,4,7.8,1c-2.1-2.7-6.7-1.9-8.9-4.2-.3-.3-.5-.7-.5-1.1M377.9,160.7c-3.5-3.6-6.8-6.8-10.6-10.1-.5-.4-1.9-2.1-2.3-2.3-.4-.1-1,.2-1.6.1-3.1-.3-7.1-3.6-10.1-4.6.4,1.2,1.2,2.3,1.7,3.5.8,1.8,1.7,5.9,2.3,7.1.8,1.4,4.9,5.5,6.2,7,8.4,8.9,18,15.9,28.5,22,3.1.8,1.5-2.7.7-4.3-3-6-10.2-13.5-15-18.4M345.9,175.7c6.9,7,14,13.9,21.7,20.1,2.3,1.8,11.8,7.9,14.3,7.7,1.2-.1,2.8-1.3,3-2.6.7-5.8-1.7-10.9-4-16-3.7-8.1-8-10.7-14.1-16.6-3.4-3.3-6.7-6.8-10.1-10.1-1.5,1.4-3.9,3.3-6,3.3-4.1-.1-6.2-2-9.6-3.7-2.5-1.2-5.1-2.3-7.6-3.7,1.3,2.9,3.2,5.4,4.4,8.4.8,2.1,1.3,5.9,2,7.3.6,1.2,4.8,4.7,6.1,6M337.1,179.7c-6.7,2.2-12-3.9-16.6-7.6-3.7-3-7.5-5.5-10.8-9.1l5.6,11.5c4.8,7.4,10.1,13,16.7,18.8,1,.9,4.2,3.9,5.1,4.3.8.1,1.7,0,2.4-.4.2-.2,3.5-3.9,3.9-4.5.3-.4.5-.8.7-1.3-2.6-3.8-5.4-7.5-7-11.8M373.4,210.3c.5-3-1.9-6.1-3.7-8.3-3.9-5-8-8-12.5-12.1-5.7-5.2-11.2-10.8-17.3-15.6,0,.8-.2,1.5-.4,2.3-.2.8-1,1.9-1.1,2.2-.2.7,1.8,3.8,2.4,4.6,5.4,7.6,11.8,14.4,18.9,20.4,2.5,2.1,5.6,4.6,8.5,5.9,1.8.8,3.1,1.5,5.1.5M406.6,195.3l-8.8-8.1c-.7-.3-1.7.6-2.7.6-2.7,0-8.1-3.8-10.7-5.1-.3.5.4,1.3.6,1.6,2.9,4.1,8.4,9.3,12.2,12.7,8.1,7.2,17.9,15.8,26.8,21.9.4.3,2.9,2.1,3.1,1.8-.7-2.3-2.2-4.3-3.5-6.3-4.8-7.2-11-13.3-17.2-19.2M444.8,235.8c.5-.7-2.6-3.1-3.2-3.5-2.3-1.6-5-2.4-7.4-3.8-8.9-5-18.3-11.8-26.5-18-7.4-5.7-13.8-12.5-20.3-19.1.4,3.8,1.7,7.8.5,11.6l.2.5c2,1.1,3.6,2.7,5.4,4,11.4,7.9,23,16,35.3,22.6,5.1,2.7,10.4,4.3,15.9,5.8M374.9,213.7c-7,2.2-12-3.4-17.2-7l-11.9-12.5c-.4-.1-.5,0-.7.2-1.2,1.1-2.3,4.3-3.6,5.5l.2.7c5.9,5.6,11,11.8,16.9,17.4,1.2,1.1,2.8,2.1,3.9,3.2,4.2,3.9,8.7,9,13.2,12.4,2.8,2.1,6.6,3.8,9.6,5.6,2.1,0,2.2-1,2-2.8-.5-8-6-13.2-10.4-19.3-.8-1.1-1.5-2.2-2.1-3.4M458.5,255.5c-5.6-6.2-12.2-11.6-18.2-17.5-11.4-4.1-21.9-10.2-32-16.7-7.5-4.8-14.4-10.5-21.6-15.7-1.9-.1-3.6,1.1-5.6.4,4.4,4.8,9,9.4,13.1,14.5,2,2.4,4,6.1,6.1,8.1,2.1,2.1,8,5.8,10.8,7.5,11.8,7.1,26.1,12.8,39.2,17.2,2.7,1,5.5,1.7,8.3,2.3M391.3,243.1c-1.3.3-4.3,0-5.8,0s-.7-.6-.9-.1c2.2,2.4,4.7,4.6,7.1,6.9,7.9,7.4,16,13.2,26.3,16.8,4.1,1.5,4.6,1.9,8.8,0,.6-.3,4.5-2.2,4.5-2.6-3.7-3.4-6.7-7.6-10-11.3-7.2-8-14.8-15.7-23.1-22.6-.8-.6-1.8,0-2.5,0-2.3-.1-4.2-1.5-6.2-2.2,2.1,3.6,6.1,9.3,4,13.6-.5.8-1.2,1.4-2.1,1.7M367.3,233.5l-7.3,5.7v.6c-.1,0,7.1,6.2,7.1,6.2,3.8,4.8,9.1,9.1,14.8,11.4,4.4,1.7,6.3,1.8,8.7-2.6v-.5c-8-6.6-14.9-14.6-23.3-20.8M469.6,274.6c.4-5.2-3.7-10.2-6.9-14.1-7.3-2.2-14.8-4.1-21.9-6.8-8.5-3.3-17.1-7.5-25.3-11.6-.1.5.3.6.5.9,2.4,2.9,5.6,5.7,8.3,8.5,13.4,7.6,26.8,15.4,40.9,21.8.6.3,4.1,1.6,4.4,1.3M429.5,257.6l9.5,11.2c3,3.2,9.8,6.6,10.7-.1l-20.2-11h0ZM307.5,293.8c-2.4-5.1-4.4-10.4-5.8-15.9-3.4,4.7-7.9,8.4-13.2,10.7v13.7c3.4-.6,6.8-.5,10.1,0,.8.1,1.9.7,2.6.7s3-1.4,4.3-1.5c1.1-.1,2,.2,3.1.2.5-2,1.9-3.7,2.7-5.6.6-1.4,2.4-4.9.9-5.8-.5,2.3-2,4.8-4.8,3.5"/>
              <path id="Path_6706" class="st3" d="M139.9,260.4l-3.3,15.9c-6,4.2-12.5,7.3-18.4,11.5-9.2,6.6-18.4,13.3-27.7,19.8-2.6,1.8-5.4,3.1-7.7,5.5-2.7-.1-5.3,0-8-.1-20.9-1-42-1.8-63-3-3.7-.2-7.3-1-11-1l139.1-48.5Z"/>
              <path id="Path_6707" class="st3" d="M87.4,315.2l105.8-71.5c.4,0,1.2,1.2,1.4,1.6,4.1,5.7,7.9,11.6,11.2,17.7,5,9.4,5.5,12.5-4.5,17.3-13.2,6.3-28.3,9.7-42.3,13.8-16.5,4.9-32.9,10-49.4,14.8-3.4,1-6.8,2.1-10.3,3.2-3.9,1.2-7.9,2.2-11.9,3.2"/>
              <path id="Path_6708" class="st3" d="M204.9,321.8c-1.2,0-2.5,0-3.7,0-8.6.2-17.5-.7-26.1-1.3-24.9-1.6-50-2.8-74.9-3.8-.3,0-.9.2-.9-.2l36.6-11.8,50.1-13.6c.5,0,1.6,2,2,2.6,5.2,7.8,11.2,17.3,15.7,25.4.2.3,1.4,2.6,1.2,2.7"/>
              <path id="Path_6709" class="st3" d="M209.7,320.3c-.4.3-1.2-1.1-1.5-1.4-5.7-7.6-11.4-17.2-16.5-25.4-1.1-1.7-1.9-3.6-3.1-5.3,4.1-1.9,8.5-3.5,12.5-5.5,2.4-1.2,6-2.9,7.8-4.9,2.6-2.8,2.1-4.1,1.4-7.5-.2-.8-1.3-3.5-.6-4l42.7-3.9-42.6,57.9h0Z"/>
              <path id="Path_6710" class="st3" d="M77.7,316.2c0,1.1-2.2,1.7-1.8,2.9.4,1.1,4.3.5,5.3.7l7.8,37c-1-1-2.7-1.3-3.9-2-20-11.3-41.3-20.4-61.8-30.9l-21.8-11.8,76.2,4.1Z"/>
              <path id="Path_6711" class="st3" d="M155.1,323.1l-61.7,32.2-5.8-35,67.5,2.8h0Z"/>
              <path id="Path_6712" class="st3" d="M194.7,242.9c6.2,2,12.6,3.2,18.8,4.9,11.6,3.1,23.2,6.7,35,9.2,1,.5,2.3,1.2,2.8,2.3-.1.5-4.4.8-5.2.9-6.6.5-13.2.5-19.8,1-4.8.4-9.5,1.2-14.2,1.5-.9,0-2.6.3-3.3-.3l-14.1-19.5h0Z"/>
              <path id="Path_6713" class="st3" d="M140.9,272.3l2.2-11.2,6.5,5.7-8.6,5.5Z"/>
              <path id="Path_6714" d="M300.3,203.8c2,3.6.9,8.3-4,6.7-3.3-1.1-5.9-3.7-8.4-6,1.2,3.2,2.7,11.4-2.9,10.6s-13.4-11.4-15.9-16.2c.3-.3,2.2,1.8,2.5,2.1,3.2,3.4,6.1,7.9,10.4,10.2,4.8,2.5,5.6-1,4.5-5-.4-1.6-2.5-5.3-2.2-6.7,0-.3.1-.5.4-.6.4-.1.9,0,1.2.2,2.5,1.4,5.1,5.3,7.8,7,.7.5,4.1,2.3,4.7,1.4,1.2-1.8-3-7.1-1.7-8,1.6-1.1,7.5,4.1,9.7,3.7-.4-2.8-2.8-6-5.2-7.4-1.6-.9-5.2-1.6-5.1-3.8,2,1,4.7,1.5,6.6,2.5,2,1,5.9,6.5,5.9,8.8s-2.6,2.5-4.4,2.1c-.8-.2-3.6-2-4-1.7"/>
              <path id="Path_6715" d="M250,19.6c2-.2,5.3,1.3,6.8,2.7,4.4,4.3,2,13.7-5,13.2-2.6-.2-7.4-2.7-8-5.5-.9-4,1.7-9.8,6.2-10.4M254.8,28.1c1.3-1.6-.6-3.8-2.5-3.6-1.3,1.2-1.6,4.2.6,4.2.7,0,1.3-.2,1.8-.6"/>
              <path id="Path_6716" d="M260.5,221.3l.6-.2c.6,0,1.6,4.9,1.6,5.7.5,5.4-1.8,9.6-7.1,5.3l-2-3.6c-.2,1.6-2.3,6.3-3.7,6.8-.8.2-1.6.3-2.5.3-2.4,0-5.2-3.3-5.7-5.6-3.8,4.5-7.4.7-8.7-3.6-1-3.2-.7-7.9-.4-11.2,0-.2-.1-.9.4-.6.9.5,1.7,8.5,2.1,10,.3.9,2.4,4.6,3.2,4.9.4.2.3-.2.4-.3.6-.8,2.3-4.5,3.3-4.2,1.3.3,2.4,6.6,5.3,7.7,1.6.6,2.5-1.6,3-2.8.6-1.6,1.4-6.4,2.1-7.3,1.5-2.1,3.9,3.7,4.5,4.6.9,1.3,1.9,2.5,3,3.6.4.2.6-.8.6-.9v-8.5h0Z"/>
              <path id="Path_6717" d="M232.1,195.4c-.5,3-.2,8.6-4.6,7.6-1.5-.4-4.1-5.3-4.9-6.8-2.3-4.5-4.2-9.6-3.8-14.7.2-.3.3-.3.6-.1.8.4,2.3,6.9,2.9,8.3.9,2.4,3.3,8.2,5.3,9.7.2.1.3.4.6.3,3.2-.3.7-10.8,1.9-11.1,1.3-.3,1.8,1.4,2.5,2.3,1.3,1.6,4,5.3,5.7,6,.3.1.7.2,1,.1-.3-3.6,0-7.2-.2-10.8,0-1.9-.8-3.8-.5-5.7l.4.2c.3,2.3,1.8,4.3,2.3,6.6.6,2.9,1.3,10.1-1.7,11.8-2.5,1.4-5.5-2.3-7.3-3.7"/>
              <path id="Path_6718" d="M334.6,217.2c.6,2.2,1.8,7.4-.6,8.6-2.4,1.2-3.8,0-5.5-1.5-.2,1.6-1.1,8.1-2.5,8.8-2.9,1.3-6.5-5.8-6.4-8.1,0-.6.2-1.4.9-1.4,1.4,0,3,6,3.6,5.5.4-1.5,1-2.9,1-4.4,0-2.6-1.1-5.8-1-8.1,0-.3,0-.6.2-.8,1.7-1.3,2,1.4,2.8,2.6,1.2,1.5,2.5,2.9,3.9,4.2.2.2,1.7,1.4,1.9,1.3.4-1.2.2-2.8,0-4.2-.2-1.1-1.3-4.5-1.2-5.1.4-2.4,3.1.8,3.2.6,0-.6,0-1.3,0-1.9,0-1.2-1.3-5.3-.4-6,1.7-1.3,2.1,1.6,2.4,2.7.8,2.9,2.1,7.7-2.5,7.2"/>
              <path id="Path_6719" d="M249.3,112.8c-.2,1.9-1.8,9.8-5,6.9-.9-.9-3.5-5.8-3.9-7.1-.3-.8-.2-1.4.8-.9.5.2,3.2,5.2,4,5,2.6-2.9,1.8-7.7,2.9-11,0-.4.3-.7.6-.9,2.7,2.1,5.2,4.5,8.4,5.8.3,0,.6-.2.7-.4,1.5-1.8-.3-9-1-11.2-.2-.7-1.5-3.3-1.4-3.6.4-1.3,2.6,1.4,3.2,1.8.9.6,2.4,1.4,3.4,1.4.7-.5-.6-5.6-.7-6.6,0-.9,0-1.8,0-2.6,1.1,1.3,2,3.8,2.5,5.4,1,3.1.9,8-3.6,6.2.6,3.4,3,8.1-.7,10.6-2.1,1.4-3.8,1.4-5.9-.2l-4.4-3.4c-.1,1.5.1,3.2,0,4.7"/>
              <path id="Path_6720" d="M247.5,79.2c-1.6,1.4-2.4,3.6-4.1,4.9-.5.4-1,.9-1.5.2-1.3-1.5-.5-7.7,1.3-8.9.3,1.9-1.7,5.2.5,6.2.6-.2,2.7-3.7,3.4-4.4.4-.4.6-.8,1.3-.8.5.1.8,4.3,1,5.1.1.5.9,3.8,1.7,3.2l5.2-11.2c1.5-1.1.8,4.1,1.5,4.1.9-.6,1.7-1.4,2.2-2.4.3-.6,1-2.9,1.3-3.1.7-.5.8.6.8,1,0,1.6-2.4,6.6-4,6.9-1.3.3-1.4-1.2-2.4-1.7-.7,1.9-1.3,4.2-2.2,6-1.1,2.1-3.6,3.5-5.1.9-.3-.7-.6-1.5-.8-2.2v-3.9h0Z"/>
              <path id="Path_6721" d="M237.6,159.4c-.4,2.9-1.6,6.8-4.9,7.1-1.8-.5-6.4-9.3-5.8-11.6l1.5.9c.9,1.6,1.6,3.4,2.6,5,.3.5,1.9,3.3,2.4,3.2l3.2-7.2c1.6-.7,1.9.7,2.8,1.3.8.5,3.5,1.3,4.2.4.8-1.2-.7-4.9-.1-5.7.5-.5,1,.1,1.2.5.6,1,2,5.5,1.8,6.5-.5,3.6-6.9.1-8.9-.4"/>
              <path id="Path_6722" d="M323.4,128.7l-19.3-12.6c.2-.8,2.2.1,2.7.3,3.8,1.5,13.7,7.8,16.1,11.1.2.3.6.7.5,1.1"/>
              <path id="Path_6723" d="M229.1,116.4c-1.4-1.2-3.3-4-4.4-5.6-.5-.7-4-6.3-3.6-6.7.8-.2,1.4,1,1.9,1.5,2,2.5,6,7.5,7.5,10.1.3.5.9,1.2.2,1.6-.4,0-1.2-.6-1.6-.8"/>
              <path id="Path_6724" d="M322.7,122.1c-.6.6-6.2-4-7.2-4.6-2.2-1.4-4.6-2.7-6.7-4.2-.3-.2-.7-.3-.6-.8,1.3-1.1,11.2,5.8,12.6,7.1.3.3,2.2,2.3,1.9,2.5"/>
              <path id="Path_6725" d="M217.8,110.1l10.3,13.2.3,1.3c-4.8-3.6-8.1-9.2-11.2-14.3h.5c0-.1,0-.1,0-.1Z"/>
              <path id="Path_6726" d="M319.4,129.9c-.4.4-8.3-4.7-9.3-5.3-1-.7-2.1-1.3-3-2-.5-.4-1.5-1.1-1.6-1.8,4.2,2.6,9.7,5,13.4,8.3.3.2.7.3.6.8"/>
              <path id="Path_6727" d="M290.6,101.8c.2.2,1.5,1.7.5,1.7-3.7-3.1-7.9-5.7-11-9.4.9.2,1.7.8,2.4,1.3,2.2,1.5,6.6,4.6,8.2,6.4"/>
              <path id="Path_6728" d="M205.3,169.6c1.5,1.4,3.3,8.9,3.4,11.1-2.4-3.1-2.4-7.6-4.3-11,.3-.5.6-.4.9,0"/>
              <path id="Path_6729" d="M288.1,145.1c-.3,0-.5-.4-.7-.7-1.4-2.2-2.7-4.4-3.9-6.8-.5-1.1-1.3-2.2-1.2-3.5.5-.1.7.3,1,.7.8,1,4.4,7.3,4.7,8.5.2.6.2,1.1.2,1.7"/>
              <path id="Path_6730" d="M205.7,183.2c-.7,0-1-.9-1.2-1.5-.9-2.1-1.3-4.9-2.1-7.2.4,0,.8,0,1,.4.7.8,2.9,7.6,2.3,8.3"/>
              <path id="Path_6731" d="M285.3,102.6c.5.6,1.3,1.4,1.1,2.2-.5.5-5-4-5.5-4.6-.2-.3-.5-.5-.4-.9.3-.3.3-.5.8-.3.5.2,3.5,3,4,3.5"/>
              <path id="Path_6732" d="M249.3,40.3c-.1-.7.1-.5.5-.6,1.2-.6,2.6-.7,3.9-1.5,1.5-.8,2.7-2,4-3-.9,3.3-5.2,5.1-8.4,5.1"/>
              <path id="Path_6733" d="M209.5,168.2c.7,1.4,1.6,2.8,2.2,4.2.2.4,1.9,4.2.7,4.1l-3.4-8,.5-.3h0Z"/>
              <path id="Path_6734" d="M209.2,140.1c.5.3,1.7,4.9,1.7,5.7,0,.9-.5,1.2-1,.3-.3-.6-1.7-5.8-1.5-6,.2,0,.5,0,.7,0"/>
              <path id="Path_6735" d="M215.8,146.2h-.8l-1.3-7.4c.5.2.7.6.8,1.1.3.8,1.5,6,1.2,6.3"/>
              <path id="Path_6736" d="M222.2,122.1c-.8.6-5-4.8-5.5-5.5-.2-.3-.6-.6-.6-1.1.4-.4,5.9,5.8,6.1,6.6"/>
              <path id="Path_6737" d="M289.9,140.1c-.5.1-.6-.3-.8-.6-1.2-1.7-2.9-4-3.2-6l3.6,4.9.4,1.8h0Z"/>
              <path id="Path_6738" d="M282,139.1c.4.2,2.8,4.3,2.3,4.8-.3.1-.7,0-.9-.3-.3-.2-2.4-4.4-2.2-4.6.2,0,.5,0,.7,0"/>
              <path id="Path_6739" d="M230.3,108.1c0,0-.6-.3-.8-.4-.9-1.2-1.8-2.4-2.6-3.6-.2-.3-.5-.6-.4-1,.5-.1.6.3.9.5.8.6,3.7,3.5,2.9,4.6"/>
              <path id="Path_6740" d="M288.2,132.2c.2-.2,2,1.4,2.3,1.7.9.9,1.7,1.9,2.4,2.9.2.4,0,.8-.3.8-.4,0-4-4.6-4.4-5.3"/>
              <path id="Path_6741" d="M244.5,16.5c-1.1.9-2.1,2.1-3.2,3-.3.2-.4.6-.9.5-.6-.7,2.9-4.1,4.1-3.5"/>
              <path id="Path_6742" d="M244.8,18.3c-1.4,1.8-2.5,3.9-4.3,5.3.3-1.2,1.5-2.7,2.3-3.7.2-.3,1.7-1.9,2-1.7"/>
              <path id="Path_6743" d="M287.6,96.9c-.4.3-3.8-2.7-4.1-3.3.7,0,4.6,2.8,4.1,3.3"/>
            </g>
          </g>
        </g>
        <g id="Group_8993">
          <path id="Path_6744" class="st3" d="M230.8,62.3l73.1-15.6c.2,0,.4.9.4,1.2,1,4,1.7,8,2.2,12.1.6,6.2.2,8-6.2,8.4-8.5.6-17.5-1-26-1.8-10-1-20.1-1.8-30.1-2.8-2.1-.2-4.2-.3-6.3-.5-2.4-.2-4.8-.6-7.1-.8"/>
          <path id="Path_6745" class="st3" d="M293.1,91.7c-.7-.2-1.3-.6-2-.8-4.7-1.8-9.3-4.2-13.9-6.4-13.2-6.3-26.5-12.5-39.8-18.5-.2,0-.6,0-.4-.3l22.4,1.7,30.2,3.6c.3.2.4,1.4.5,1.8,1.1,5.4,2.3,11.8,2.9,17.2,0,.6.1,1.2,0,1.7"/>
          <path id="Path_6746" class="st3" d="M296.1,91.9c-.3,0-.4-.9-.5-1.1-1.4-5.4-2.4-11.8-3.4-17.4-.2-1.2-.2-2.4-.5-3.5,2.7-.1,5.4,0,8-.2,1.6-.1,3.9-.3,5.3-1,2-.9,2-1.8,2.4-3.8,0-.5,0-2.2.5-2.3l24,7.2-35.8,22h0Z"/>
          <path id="Path_6747" class="st3" d="M304.9,46.6c2.9,2.5,6.1,4.5,9.1,6.8,5.6,4.2,11.1,8.7,17,12.6.4.5,1,1.1,1,1.8-.2.3-2.6-.5-3-.7-3.7-1.2-7.3-2.6-11-3.8-2.7-.8-5.4-1.4-8-2.3-.5-.2-1.5-.4-1.7-.9l-3.4-13.7h0Z"/>
        </g>
      </g>
      <path id="Path_6749" class="st2" d="M283.7,49.2l2.8,3s1-3.5,1-3.8-.5-.7-.5-.7l-3.2,1.5Z"/>
      <path id="Path_6748" class="st1" d="M283.2,49.1l3.9,4.4s.6-4.1.4-5.7"/>
    </g>
  </g>
</svg>