<?xml version="1.0" encoding="UTF-8"?>
<svg id="Layer_2" data-name="Layer 2" xmlns="http://www.w3.org/2000/svg" viewBox="0 0 383.87 239.02">
  <defs>
    <style>
      .cls-1 {
        fill: #3cbeeb;
      }

      .cls-2 {
        fill: #fff;
      }
    </style>
  </defs>
  <g id="Layer_1-2" data-name="Layer 1">
    <g>
      <path class="cls-2" d="M172.04,8.94l8.55-7.36,3.18-.99,48.82.34,7.85,7.77,6,3.93,7.77,13.62,15.93-1.08.54-3.16,18.86.77,1,2,19.47-.31,3.08-8.7,22.55-.08,9.78.77,6.23,2.77,3,9.39,6.62,6.7,12.16,12.85s3.93,14.7,4.16,14.86,1.46,11.78,1.46,11.78l.23,5.93-.31,7.39,3.54-1.92-.08,8.31-.08,41.1-2.77.31-.15,6-.46,27.48v34.41s-.54,3.62-.54,3.62l-6.7,8.62-5.93,3.23-28.48-.23-71.89-.15-6,4.23-10.08,6.77-31.56,8.08-30.63-2.92-27.56-12.47-7.62-5.23-9.16.46-108.03-.05-11.17-.21-11.38-5.33-5.74-13.16-.52-9.5.1-52.21-4.59-1.78.1-29.86h5.43l.42-5.74-.1-30.18,7.31-13.16,12.43-12.53,15.25-9.71,10.23-5.22,28.82-.52,8.35-5.74,70.48-.63,5.01-7.41,6.8-5.95Z"/>
      <g>
        <path d="M359.91,176.44c.45.46-2.55,3.19-3,3.57-.9.77-8.02,6.04-8.56,5.59l.98-1.61,10.58-7.55Z"/>
        <g>
          <path d="M6.25,69.84c.22-1.09,4.26-9.16,5.09-10.45,4.63-7.14,14.84-15.97,21.97-20.68,3.36-2.22,16.21-10.24,19.37-10.52,8.37-.75,17.73.77,26.25-.07,3.08-1.29,6.39-5.91,9.64-6.3l71.31-.46c1.78-1.75,2.3-4.19,3.84-6.12,2.88-3.61,10.23-10.06,13.96-13.14.99-.81,2.23-1.86,3.49-2.09l51.98.08c3.79,4.3,10.3,7.36,13.91,11.59,3.1,3.64,4.65,8.43,6.99,12.54h15.35l.04-3.15c3.17-1.17,6.66,0,9.72,0,2.66,0,8.93-1.35,11.1.33.61.47.09,1.7,1.67,2.01,1.74.35,13.68.28,15.46-.09.31-.06.79-.16.99-.39.48-1.97,2.06-7.44,4.29-7.87,5.45-.06,10.9.04,16.35,0,7.19-.04,14.62-.66,21.73,1.36,2.89.82,4.66,4.18,5.39,6.96.32,1.2-.1,2.3.55,3.44,2.6,4.56,9.39,10.23,13,14.11,7.28,7.81,10.57,23.23,11.34,33.69.23,3.17-.16,6.56,0,9.76l1.99-.22c1.56.73.41,3.79.38,5.18-.34,15.63,1.27,31.29-.15,46.87l-2.23.6.02,68.53c-3.49,8.9-8.4,15.04-18.53,15.75-10.06.7-21.67-.07-31.93-.03-21.7.07-43.57.02-65.37.02-6.86,5.32-13.05,9.2-21.24,12.24-9.29,3.45-18.25,5.72-28.22,5.7-12.81-.03-19.73.37-32.19-4.09-10.65-3.82-20.83-8.8-30-15.44-40.39-.52-80.86.48-121.22.41-15.06-.03-26.45-7.15-28.04-22.98.06-18.85-.23-37.71-.07-56.55.01-1.31,1.08-2.32-.48-3.07-1.36-.65-3.39.11-3.45-2.11.55-8.84-.86-18.79-.06-27.49.47-5.11,3.23-1.27,6-3.17v-34.67ZM236.31,7.08c.6-.54-3.96-5.79-5.36-5.2l-48.66.03c-1.31.26-2.94,3.61-3.79,4.77l57.81.4ZM261.03,48.12c-.23-1.44-.86-3.01-1.4-4.38-2.92-7.43-9.57-23.4-13.98-29.47-3.12-4.29-7.1-6.18-12.35-6.02-17.52.51-36.19-.64-53.43.4-1.44.09-4.68.38-5.87.91-1.06.47-6.06,4.67-7.08,5.68-2.97,2.95-6.94,12.45-8.84,16.67-2.4,5.34-4.48,10.81-6.71,16.21h109.65ZM314.08,16.66l-1.96,6.88c1.34,1.8,3.25,3.3,5.5,3.69,8.19,1.42,15.59.82,23.75.18,3.66-.29,7.62.57,10.87-1.78-.65-1.92-1.12-4.99-2.73-6.36-1.39-1.19-9.43-2.08-11.72-2.24-5.86-.42-11.56.47-17.16.41-1.01,0-6.29-.98-6.56-.78ZM288.54,23.42h-16.75l.06,4.12.93.67,15.75-.41v-4.39ZM158.56,23.82h-67.98c-.36,0-5.23,3.52-5.91,4.05-.45.35-.82.4-.67,1.13h72.57l1.99-5.18ZM269.37,26.24c-2.63-.08-5.5-.19-8.14-.03-1.39.09-4.01.19-5.19.39-.47.08-.71.21-.99.6l5.04,10.18,101.41-.42-9.83-8.7c-2.57,1-5.22,1.88-7.97,2.28-10.33,1.51-23.15,1.11-32.84-2.94-1.05-.44-1.99-1.58-3.01-1.77-2.29-.43-13.04-.35-15.55-.04-.43.05-.92-.02-1.2.39-.32,1.28-.2,4.21-1.73,4.63-2.27.62-12.95.4-15.8.19-.81-.06-3.54-.38-3.98-.81-.99-1.19.12-2.57-.22-3.96ZM155.37,30.59H53.5c-.74,0-12.36,5.78-13.35,6.58-.19.15-.55.49-.4.59l3,.4,108.37-.09c.48-.09.78-.19,1.1-.58.45-.57,3.45-6.64,3.17-6.89ZM377.46,78.41c-.37-10.52-1.34-23.41-7.25-32.4-1.71-2.6-4.73-6.21-8.08-6.27-31.22,1.04-63.2-1.4-94.13,0-1.97.09-4.07.75-6.16.42l15.8,38.2,89.06.06-1.59-17.53c.69.11.69.79.9,1.29,1.99,4.62,2.85,11.26,3.08,16.25h8.37ZM150.59,40.55H38.35c-.14,0-.47-.38-.83-.38-4.22-.04-15.75,10.92-18.71,14.32-3.81,4.38-9.17,12.81-9.7,18.65-.05.59-.07.62.33,1.07.43.49,7.45,4.09,8.38,4.39,16.76,5.34,40.93,1.73,58.41,3.39,1.23.12,2.17.82,3.39.8.2-.15-2.36-3.81-2.81-4.16-5.6-4.43-27.26-2.53-35.27-3.41-3.94-.43-8.26-.72-9.66-5.09-.29-.91-1-4.71-.92-5.47.05-.51.44-1.12,1-.99l4.74,8.44c2.4.88,4.84.5,7.22.73s4.93.72,7.16.81c7.27.3,24.18-1.88,29.14,3.55.71.78,1.08,2.44,2.05,2.73,3.47,1.05,9.91-.85,13.68-.32v-6.58c0-1.56,6.77-.91,8.19-.98,3.67-.18,7.47-.7,11.13-.83,1.52-.05,3.9-.35,5,.61v8.17l14.56-.79,15.74-38.66ZM262.58,52.16l-112.52-.06c-4.03,7.1-6.14,14.72-8.85,22.32-1.87,5.24-4.56,10.33-5.37,15.95,4.15-4.04,8.19-8.18,12.79-11.72,22.51-17.32,39.8-23.1,68.74-20.95,10.86.81,19.32,3.24,29.18,7.5,8.99,3.88,15.85,9.93,22.86,16.6,2.76,2.63,5.26,5.5,7.96,8.17l-14.79-37.81ZM288.93,179.22c2.32-7.36,4.81-14.35,5.59-22.11,3.03-29.84-4.52-50.83-25.5-71.73-8.08-8.06-14.92-14.3-25.82-18.43-2.72-1.03-10.73-3.99-13.17-4.38-2.26-.35-4.78.07-7.08-.1-9.46-.69-20.12-2.82-29.4-1.48-1.89.27-16.34,3.57-16.87,4.27l3.19,5.84c3.87-.29,7.56-2.43,11.22-3,21.16-3.33,51.54,1.46,67.94,16.09,23.8,21.22,36.23,50.78,26.91,82.69-.48,1.64-3.09,8.03-3,8.96.13,1.32,5.48,3.73,5.97,3.38ZM175.67,66.08c-1.09.05-2.31.08-1.9,1.3.08.24,2.48,4.12,2.7,4.4.3.38,1.14.33,1.22.25.59-.59-1.91-4.93-2.03-5.95ZM175.3,73.22c.52-.68-2.6-8.03-4.32-4.57l3.12,4.81,1.2-.23ZM170.93,74.82l1.94-.99c-.68-.79-2.26-5.11-3.26-4.94l-1.47.94,2.79,4.98ZM285.35,140.97c.06-2.55-.09-5.16-.5-7.67-2.11-12.91-6.47-21.33-14.09-31.75-26.28-35.96-79.8-42.35-113.81-13.39-13.63,11.61-19.59,22.4-22.99,39.98-.81,4.18-1.88,8.58-1.52,12.82,5.1-3.98,12.55-5.4,18.12-1.37.69.5,5.12,5.5,5.61,4.95-.73-14.86,5.86-26.24,16.54-35.87,13.72-12.38,28.54-15.67,46.65-13.93,18.47,1.77,31.9,12.44,40.63,28.34,3.44,6.27,6.37,13,6.63,20.27l3.72-2.86c4.36-2.4,10.83-2.24,15.01.46ZM169.72,75.62c.45-.44-2.18-5.34-2.96-5.16l-1.02.98c1.33.95,1.84,2.4,2.68,3.68.37.56.94.85,1.3.5ZM165.75,77.61c3.3-.64-.1-3.7-.8-5.4l-1.99.23c-.6.87,2.82,3.93,2.8,5.17ZM98.75,79.21h18.94c.98-.77.87-6.12.02-6.27l-18.72,1.05-.23,5.23ZM161.97,73.33c-.54.17-2,.46-1.81,1.28.07.29,3.42,4.67,3.76,4.59l.97-1.07-2.93-4.8ZM160.56,81.2c3.58-.81-.41-4.01-1.21-5.8-4.02-.11,1.15,3.79,1.21,5.8ZM159.76,81.99l-3.39-5.17c-.81.66-.68.61-.2,1.39.52.84,1.61,2.14,2.31,2.87.39.41.4,1.13,1.28.91ZM9.04,79.01v25.5c0,1.03,3.99-.2,3.99,1.2v31.88c0,1.57-5.15-.78-5.53.83.12.65.36,1.26.37,1.94.35,17.02-1.16,35.48-.04,52.24.28,4.12,1.51,8.86,3.41,12.54h67.18c-.04-13.39.36-26.67.42-40.07.05-11.6.14-23.38,0-35.07-.04-3.08-1.39-6.83.58-9.74.93.01,1.75,8.54,1.81,9.74.23,4.55-.45,9.04-.43,13.58.08,17.63.47,35.52.44,53.4,0,2.65-.86,5.3-.02,8.15h2.79c-.25-1.44.35-2.79.41-4.16.1-2.16-.43-4.12-.43-5.98.04-18.37.16-36.72,0-54.99-.12-13.84,1.08-30.3-.83-43.8-.53-3.72-1.89-8.24-5.33-10.23-.74,0-4.47,3.57-5.76,4.22-5.4,2.71-18.54.77-24.92.56-7.17-.24-10.69,1.37-17.23-2.31-2.91-1.64-5.54-4.63-8.24-5.72-3.91-1.57-8.49-1.12-11.68-4.28l-.95.56ZM154.89,78.51c-.4-.26-1.44-.27-1.11.5l3.78,4.98c.82-.61.52-.62.13-1.31-.29-.52-2.59-4.03-2.8-4.17ZM156.17,85.18c.41-.45-3.06-5.73-3.78-5.57-.44.09-.69.66-.41,1.2.12.23,2.51,3.03,2.91,3.47s.42,1.11,1.28.91ZM304.09,86.38h72.77l.53-.66.47-5.32c-5.65.09-11.32-.1-16.97-.02-1.14.02-2.12.42-3.15.43-17.61.23-35.24-.21-52.84-.01l-.8,5.58ZM118.29,81.2h-18.54c-.12,0-.57-.55-1-.4v5.58l18.96-.1c1.06-.19.41-4.09.58-5.08ZM282.16,81.2c-1.98-.77-2.82.17-2.79,2.19.01.88.49,2.74,1.29,1.28.57-1.04.74-2.47,1.5-3.47ZM284.48,86.29c.22-.13,2.39-4.28,2.42-4.57.09-1.23-2.51-1.17-3.15-.74-.69.46-1.01,4-1.97,4.8.03.62,2.14.83,2.7.51ZM289.68,86.31c.26-.16,2.82-4.99,1.4-5.45-3.1-1.01-2.8,1.14-3.65,3-.36.79-2.13,2.33-.68,2.52.52.07,2.66.11,2.94-.07ZM296.08,86.34c.76-3.78,3.16-6.29-2.71-5.5l-1.63,5.54,4.34-.04ZM299.17,80.86l-1.78,4.94c.16.94,3.85.65,4.75.41l1-5.02-3.96-.33ZM152.99,87.17c3.22-.11-1.93-6.06-2.55-5.95l-1.02,1.31,3.56,4.64ZM95.96,87.18c-.25-1.77.62-4.2-.6-5.58h-12.96l2.19,5.58h11.36ZM120.29,81.6c.17.99-.48,4.9.58,5.08,2.93-1.05,8,.44,10.71-.37,1.35-.41,1.26-2.89,2.1-3.89l-.43-.81h-12.96ZM74.43,85.58l-47.84-2.39,6.1,4.85c4.07,2.05,12.41.97,17.23,1.11,5.28.15,11.95,1,17.1.79,1.08-.05,8.62-3.28,7.4-4.36ZM152.18,88.77c.35-.31-3.47-4.9-3.79-5.57-1.04.6.09,1.64.51,2.28s2.45,4.03,3.28,3.29ZM149,90.76l1.18-.98c-.94-.37-3.26-5.71-4.38-4.59-.7.7,3.3,4.33,3.19,5.57ZM144.87,88.91c.83.92,1.67,2.36,2.73,3.05.51.34.88.42.99-.21l-3.6-5.37c-2.96,1.38-1.18,1.36-.13,2.53ZM98.75,92.36h18.94c.76-.51.62-1.37.62-2.19,0-.51.02-1.03-.09-1.53l-.53-.66h-18.94v4.38ZM131.45,88.37h-11.16v24.11c-6.05,2.3-14.22,2.78-20.51.97-.93-.27-3.81-1.12-3.81-2.17v-22.12h-10.17c-.38.31-.46.33-.45.82.04,1.04.91,2.83,1.04,4.16.59,6.2.22,12.9.39,19.14.78,30.08.3,60.31.39,90.46l.62,1.37h50.04c-.93-2.83-3.85-4.78-5.57-6.98-4.91-6.27-12.2-25.59-13.84-33.59-4.26-20.75.05-40.97,7.04-60.46,1.89-5.28,4.23-10.4,6-15.73ZM285.75,99.53h68.38c1.07,0,.51,2.39-.8,2.39h-66.79c1.83,5.15,5.28,10.41,7.09,15.43,8.47,23.57,4.18,54.51-7.68,76.23-2.3,4.22-5.31,8.08-7.38,12.34h98.48l.42-2.57v-67.37c-.15-1.13-1.49-1.03-2.39-1.61-2-1.28-6.53-3.98-6.81-6.35.57-10.41-.74-21.57.01-31.88.06-.81.38-3.67.6-4.18.6-1.37,3.24-1.23,3.78-2.79l-91.3-.4,4.38,10.76ZM142.07,88.8c-.58.17-1.15,1.48-1,2.08.08.3,3.8,4.72,4.1,4.65.73-.17,1.62-1.6,1.37-2.49-.15-.52-3.67-4.48-4.48-4.25ZM381.45,88.77l-10.77,6.17c-1.13,1.27-.01,6.2.02,7.96.17,8.47-.23,16.97.06,25.44.33,1.08,4.55,2.72,5.78,3.39,1.49.81,2.91,2.54,4.91,2.47v-45.43ZM139.68,91.59l-1.42,1.71c.9.6,3.88,4.73,4.51,4.62.52-.09,1.16-1.07,1-1.69-.14-.51-3.63-4.72-4.09-4.64ZM117.69,94.35h-18.94v4.39s19.17-.18,19.17-.18l.31-.48c.08-.86.37-3.45-.54-3.73ZM137.28,94.38l-1.45,1.75,4.98,3.79c.48-.43.77-.5.41-1.19-.28-.54-3.55-4.42-3.94-4.35ZM261.83,133c-4.72-15.38-17.29-29.95-33.09-34.47-13.07-3.74-24.22-3.64-36.68,1.6-.67.28-2.07.76-2.4,1.39,6.36-1.38,14.39-4.02,20.94-3.18.55.07,1.18.23.59.79-8.16.64-15.73,2.65-23.33,5.58-8.46,3.26-12.64,6.55-18.07,13.82-11.59,15.52-8.9,33.82-2.37,50.85,2.45,6.4,13.24,19.13,19.08,22.78,4.21,2.63,15.16,5.89,20.11,6.2,8.57.53,17.09-.58,25.31-2.78-1.8,1.98-6.79,3.61-9.41,3.94-1.31.16-2.66-.09-3.94.05-4.91.54-9.55,1.14-14.55.8.54.85,2.81,1.02,3.84,1.14,2.37.28,6.5.84,8.72.88,4.98.08,19.05-3.98,23.12-6.81,5.71-3.97,12.97-11.76,16.57-17.71.51-.84,3.46-6.01.86-4.51-2.3,3.48-4.97,7.08-8.05,9.87,1.8-5.79,7.54-11.02,9.37-16.73,5.25-16.33,3.31-30.48-5.86-44.77-1.52-2.36-3.84-4.46-5.11-7.04.85-.75,4.97,4.24,5.57,4.99,3.17,3.95,5.5,8.51,7.24,13.28l1.54.06ZM139.75,100.39c-.16-.28-4.81-3.53-5.52-3.07-.48.31-2.78,3.59-3.25,4.33-9,13.97-13.13,43.66-9.8,59.74,5.21,25.13,23.01,51.1,45.74,63.47,6.94,3.78,26.39,10.26,34.15,10.9,4.73.39,18.84.21,23.38-.44,5.29-.76,22.22-5.14,26.34-7.94,1.72-1.17,3.24-3.29,5.27-4.3l.52-.94-3.35-5.86c-6.4,4.18-12.84,7.5-20.21,9.69-10.2,3.03-26.57,3.5-37.19,2.27-16.32-1.88-43.37-20.04-52.52-33.59-9.98-14.79-16.26-33.11-15.49-51.1.65-15.06,4.1-29,11.89-41.93.11-.39.24-.84.02-1.22ZM117.69,100.33h-18.94v4.39s19.16.23,19.16.23c.64-.47.65-4.35-.22-4.62ZM2.27,106.7v28.69l8.77.8c.2-8.02-.27-16.1-.02-24.13.04-1.1,1.2-4.88-.24-5.33-.56-.17-2.48.42-3.53.39-1.71-.05-3.27-.56-4.98-.42ZM117.69,106.7h-18.94v4.39c2.3-.41,4.84.4,6.96.41.66,0,1.35-.43,2.04-.43,3.25,0,6.59.12,9.89-.04l.48-.32.11-3.35-.53-.66ZM141.32,140.68c-3.12.39-6.53,1.72-8.48,4.27-1.65,2.15-1.59,3.93-1.38,6.58,1.28,15.84,8.81,34.26,18.74,46.62,11.52,14.33,37.52,27.95,56.01,27.7,4.29-.06,10.44-.45,14.69-.82,11.18-.99,24.45-5.45,33.15-12.73,8.24-6.9,22.73-24.33,25.61-34.57.83-2.94,1.06-6.16,1.91-9.25,1.99-7.19,4.7-11.51,3.79-19.73-.66-5.93-4.93-8.11-10.53-7.33-1.76.24-2.65.95-3.81,2.17-2.55,2.69-3.99,5.09-4.02,8.77-.16,23.76-22.01,50.56-46.82,52.4-20.48,1.52-30.1-2.47-45.46-15.17-7.74-6.41-12.56-14.97-16.51-24.15-3.77-8.75-2.89-26.52-16.89-24.75ZM282.37,178.03c-.49.11-1.25,2.22-.83,2.79l5.2,3.19,1.23-2.8-5.61-3.18ZM286.15,187.2c.25-.26-.05-1.34-.41-1.78-.28-.34-4.91-3.63-5.17-3.39l-.37,2.76c1.16-.08,5.33,3.06,5.95,2.42ZM278.2,188.77l5.75,2.81.99-2.22-5-4.14c-.94-.21-2.05,2.73-1.75,3.55ZM282.14,195.55l.64-2.76-5.2-3.58-1.23,2.39c1.14.5,4.95,4.54,5.79,3.96ZM275.19,192.78c-.56.15-.79,1.01-.42,1.6.15.24,4.19,3.44,4.46,3.52.53.15,1.23-.09,1.33-.54.13-.58-3.59-3.11-3.97-4-.34-.41-.87-.72-1.41-.58ZM271.8,197.95l5.38,3.59c.21,0,1.78-1.75,1.03-2.19l-4.62-4.18-1.79,2.78ZM274.93,204.68l1.2-1.81-.14-.93c-2.71-1.36-4.06-5.51-6.62-1.8-.28.41-.52.44-.21,1.02.34.61,5.11,3.9,5.76,3.52ZM268.07,201.98c-.36.35-1.34.62-.67,1.37.25.28,4.14,3.46,4.4,3.58.79.37,1.08.27,1.59-.4l-5.32-4.55ZM266.07,203.96c-.72.44-1.4,1.15-.86,1.97l4.8,3.96,1.4-1.76-5.33-4.17ZM264.02,206.33l-.99.99,4.58,4.97.96-1.05-.14-.54-4.41-4.38ZM24,215.49h123.6l.4-.8c-1.48-1.59-3.4-2.74-4.99-4.18-.97-.87-2.27-2.91-3.03-3.35-2.16-1.24-8.09-.07-10.7-.02-15.66.27-31.53-.29-47.05,0H11.83c.94,2.09,3.46,4.34,5.44,5.5.84.49,5.98,2.73,6.72,2.85ZM375.47,207.92h-97.09c-.21,0-.81-.68-1.34-.36-1.22,1.94-2.72,3.82-4.23,5.55-1.22,1.39-3.23,2.62-3.79,4.38h96.69c.29,0,4.31-2.71,4.8-3.17.89-.83,2.53-2.8,3.36-3.81.29-.35,1.9-2.32,1.61-2.58ZM262.09,208.75l-1.42,1.7,4.15,5.03,1.7-2.19c-.97-.63-3.63-4.68-4.43-4.54ZM258.91,211.55c-.42.11-.83.63-1.01,1.04-.28,1.1,3.29,5.32,4.13,6.49l1.69-2.19c-1.33-1.14-2.53-3.95-3.69-4.97-.41-.35-.5-.53-1.12-.37ZM260.63,220.27l-3.98-6.19-2.62,1.41,3.81,5.81,2.79-1.03Z"/>
          <path d="M338.39,169.67c-.29-.32.91-1.82,1.2-2.18,5.62-7.03,13.61-12.51,19.92-18.94-.46,2.52-3.18,4.64-4.97,6.39-1.85,1.8-4.3,3.58-6.2,5.36-.82.77-9.49,9.88-9.96,9.37Z"/>
          <path d="M361.51,156.12c.17.8-.18,1.06-.58,1.61-.98,1.34-3.66,3.72-5,4.97-4.4,4.12-9.28,7.97-13.96,11.75-.58-.65,3.75-4.79,4.38-5.39,3.26-3.09,7.02-5.76,10.38-8.76.54-.48,4.3-4.71,4.78-4.19Z"/>
          <path d="M359.91,167.28l-1.18,2.21-13.57,10.94c-.11-1.04.59-1.84,1.24-2.54,2.27-2.5,8.04-6.79,10.94-8.99.4-.3,2.28-1.91,2.57-1.61Z"/>
          <path d="M357.52,144.96c.62.64-2.65,3.68-3.18,4.19-.66.63-8.77,7.8-9.17,7.37-.17-.75.42-.95.79-1.4,2.55-3.03,7.04-6.77,10.17-9.36.45-.37.65-.96,1.39-.79Z"/>
          <path d="M19.02,187.2c-.21-2.1,1.47-4.2,2.62-5.94,3.48-5.28,8.33-10.44,12.92-14.78l-15.54,20.72Z"/>
          <path d="M22.99,194.37l-.8-.2c-.24-3.31,11.72-17.33,14.75-20.12l-13.96,20.32Z"/>
          <path d="M31.77,152.93c.38.38-.31,1.24-.58,1.61-2.65,3.65-7.31,8.87-10.42,12.3-.4.44-.59,1-1.36.83-.12-.68.16-1.16.46-1.73,1.19-2.29,8.26-10.26,10.37-12.35.35-.35,1.03-1.15,1.53-.66Z"/>
          <path d="M19.41,177.63c-.61-.69,2.25-4.25,2.8-4.97,2.93-3.79,6.94-7.6,10.35-10.97-1.21,3.47-4.64,6.03-6.98,8.76-1.67,1.95-3.23,4.47-4.89,6.27-.4.43-.42,1.11-1.28.91Z"/>
          <path d="M31.77,190.78c-.15-1.18.7-2.02,1.27-2.91,2.49-3.9,6.3-7.69,9.09-11.43-.37,1.95-1.89,3.91-3.02,5.54-1.59,2.29-4.22,5.9-6.06,7.89-.4.43-.42,1.11-1.28.91Z"/>
          <path class="cls-1" d="M211.99,130.41c-.19,1.4-1.58,4.73-2.24,6.13-.48,1.02-3.93,6.64-4.53,7.03-.39.26-.76.22-1.2.19l-1.6-6.77c-2.51,6.86-4.57,14.1-5.54,21.37-.84,6.34-1.01,14.26-.4,20.62.13,1.4.88,5.4,1.34,6.64.4,1.1,1.1,1.16,2.2,1.18,2.77-19.53,15.02-35.52,27.91-49.62-.42-.67-.87.18-1.19.4-2.57,1.79-5.35,4.01-8.11,5.44-.36.19-1.65,1.16-1.86.13-.51-2.49,10.93-11.63,13.06-13.53-1.51-2.16-1.29-5.06-3.52-6.76-1.05-.8-2.8-.62-2.35-2.19,2.9-1.13,7.58,1.66,9.56,3.74.56.59,2.08,3.51,2.77,3.01.27-1.38,1.21-2.46,1.58-3.81.41-1.48.23-3.3.72-4.46.24-.57.11-.6.89-.49.59,1.93,2.08,3.62,2.02,5.76-.07,2.39-2.06,4.08-2.81,6.19,3.35-1.34,5.28.98,7.38,3.18,3.45,3.61,8.95,10.15,8.77,15.15-3.96-3.54-6.76-9.77-12.56-10.36,1.61,4.37.41,10.03-.91,14.43-.41,1.36-2.15,6.7-3.67,6.28-1.91-.53-.46-15.57-3.6-17.53.23,2.78-7,16.02-9.17,15.93-.73-.5-.62-.97-.56-1.73.28-4.18,2.77-8.37,2.96-12.61-8.67,8.33-14.64,19.68-17.22,31.4-.76,3.46-2.2,11.25-1.14,14.44.94,2.85,7.62-.02,8.19,3.56-10.1.39-22.14-1.65-29.91-8.56-.53-.47-3.48-3.12-2.78-3.79,1.57-.3,2.42,1.04,3.59,1.8l.79-.41c-.76-4.99.43-10.81,1.31-15.82,2.77-15.76,7.75-30.56,16.23-44.15-1.01-.77-16.06,6.7-18.74,5.97-.96-.97,3.15-4.62,3.98-5.38,2.66-2.44,5.71-4.65,9.17-5.78l-7.57-3.77c5.26-2.73,11.11-3.42,15.35,1.38,2.94-3.66,7.81-4.03,12.16-3.18v1.17c-3.83.47-6.89,2.34-9.57,5.01-.18.95.43.48.98.6,5.82,1.26,9.45,3.43,6.79,9.96-.34.83-3.08,5.51-3.6,5.96s-.69.51-1.38.41l-.68-7.09-1.32-3.27c-.2,2.07.27,4.57,0,6.58Z"/>
          <path d="M58.21,52.23c2.92-2.43,14.44-2.38,18.43-2.13,3.4.21,7.96.55,10.15,3.41,3.84,5.02,1.52,8.69-3.99,10.36-4.46,1.35-17.2,1.19-22.02.5-3.46-.5-5-2.42-5.33-5.87-.21-2.27,1.05-4.84,2.75-6.26ZM71.16,52.23c-2.21.04-8.29.1-9.98.78-.55.22-3.41,2.82-3.5,3.28-.92,4.71,2.42,6.6,6.58,6.61,1.15,0,2.2-.5,3.19-.47,4.87.15,13.35,1.5,17.32-1.78,2.5-2.07,1.38-6.46-1.18-7.54-.98-.42-6.4-.94-7.77-1-1.57-.07-3.11.09-4.66.11Z"/>
          <path d="M345.56,50.12c1.53,1.69-10.15,13.07-11.96,14.34.75-3.25,4.07-5.56,6.18-7.96,1.5-1.71,2.94-3.92,4.42-5.55.4-.44.59-1,1.35-.83Z"/>
          <path d="M349.15,52.91c.2.18-1.93,3.52-2.23,3.95-.9,1.3-8.46,10.66-9.73,9.6l10.34-12.97,1.62-.57Z"/>
          <path d="M341.57,50.12c.91.9-4.56,6.05-5.39,6.76-.78.67-2,1.75-2.98,2-.43-.41,6.18-7.45,6.84-8.1.35-.35,1.03-1.15,1.53-.66Z"/>
          <path d="M351.94,56.49c.92.98-3.81,5.64-5.18,5.57-.56-.55,3.2-4.3,3.79-4.78.45-.37.64-.97,1.39-.79Z"/>
        </g>
      </g>
    </g>
  </g>
</svg>