<?xml version="1.0" encoding="UTF-8"?>
<svg id="Layer_2" xmlns="http://www.w3.org/2000/svg" xmlns:xlink="http://www.w3.org/1999/xlink" version="1.1" viewBox="0 0 183.4 256.6">
  <!-- Generator: Adobe Illustrator 29.6.1, SVG Export Plug-In . SVG Version: 2.1.1 Build 9)  -->
  <defs>
    <style>
      .st0 {
        fill: none;
      }

      .st1 {
        fill: #3cbeeb;
      }

      .st2 {
        fill: #fff;
      }

      .st3 {
        clip-path: url(#clippath);
      }
    </style>
    <clipPath id="clippath">
      <rect class="st0" width="183.4" height="256.6"/>
    </clipPath>
  </defs>
  <g id="Layer_1-2">
    <g>
      <polygon class="st2" points="1.8 31 17 21.1 46.1 8.3 69.4 3.5 88.7 1.6 102 1.3 118.8 2 132.5 3.9 149.9 7.3 177.4 118.9 180.9 134.7 181.6 144.8 182.4 158.8 181 171.6 178.8 185.8 175.7 195.2 172.6 204.4 168 216.4 161 229.8 155.6 237.1 147.2 247.7 141.5 253.4 137.8 254.9 129.2 254.9 113.8 249.9 93.1 238.6 70.6 220.2 52.4 200.5 41.3 183.2 32.8 161.5 26.3 135 15.2 90.7 7.6 56.7 2 34.5 1.8 31"/>
      <g class="st3">
        <g id="Group_9115">
          <path id="Path_7198" d="M150.9,6.8c2,4.1,2.4,8.6,3.5,13,1.1,4.6,2.5,9.2,3.6,13.8,7.9,35,17.2,69.8,24.8,104.9,1.9,22.5-.5,45.5-9.1,66.4-3.4,8.2-7.6,19.4-12.7,26.5-4.4,6.1-8.7,12.4-14,17.9-6.9,7.2-8.6,8.7-18.8,6.5-30.7-6.6-62.9-35.2-80.7-60.2-16.6-23.3-20-53.8-28-80.8-5.4-22.7-10-45.6-15.4-68.2-1-4.4-3-9-3.8-13.3-.1-.6-.2-1.2-.2-1.8.6-.7,1.2-1.4,1.8-2.1,8.6-7.1,26.9-15.2,37.5-19.3C70.5-2,115.5-2.9,147.6,5.7c1.1.3,2.2.7,3.4,1M171.9,104.6l-23.4-96.5c-.9-.3-1.9-.7-2.9-.9-17.1-3.6-34.5-4.9-52-4.6-3,0-5.7.5-8.5.7-2.4.2-4.8,0-7.2.2l24.2,100.2c2.6-.4,5.3-.8,8-1.1,9.6-.9,19.1-1.9,28.8-1.9,7.7,1.1,15.8.8,23.5,1.9,3.2.5,6.4,1.4,9.6,1.9M74,4.1c-.4-.2-2.9.2-3.6.3-22.1,3.3-42.4,11.6-61.5,23.1-.9.5-5.8,3.7-5.9,4.3.2,1.6.5,3.2.8,4.8.5,2,1.3,3.8,1.7,5.6,3.5,13.9,5.6,28.2,9,42.1,1.3,5.4,3.3,10.6,4.7,16,1.9,7.6,2.9,15.5,5,23,1.1,3.8,2.7,7.5,3.5,11.4l4.7-3.2c10-7.7,21-13,32.9-17.2,10.9-3.9,22.1-7.1,33.5-9.5l.4-.3L74,4.1ZM149.2,243.2c19.3-24.2,33.4-59.1,32-90.5-.7-14.3-2.8-28.4-7.4-42.1-.4-1-.8-2.1-1.2-3-.1-.3-.4-.4-.7-.5-1.8-.7-6.7-1.4-8.7-1.5-6.6-.6-13.3-1.1-19.9-1.4-10-.5-19.7-.7-29.7.5-3.6.4-7.2,1.4-10.8,1.7.5,3.8,1.7,7.4,2.5,11.2,3.7,16.8,8.4,33.4,12.4,50.1,1.6,6.9,3.2,13.6,5,20.4,2.1,8.1,3.6,16.4,5.6,24.6,1,4.2,2.5,8.2,3.6,12.4,2.2,8.7,3.4,16.3,6.2,25,.3.8.5,2.8.9,3.4.5.7,3.4-1.7,3.9-2.2,2.5-2.2,4.3-5.1,6.4-7.8M132.1,254c1.2.1,2.5,0,3.7,0l-36.2-147.1c-4.8.8-9.3,2.7-13.9,4.1-10.3,3.2-19.9,5.8-29.7,10.4-9.7,4.5-19.5,9.9-26.8,17.9l-.2.6c1.1,3.7,1.9,7.4,2.9,11.2,3.2,12,7.8,26.4,14.1,37,11.7,19.6,27.1,34.6,45.6,47.7,8.8,6.2,18.9,11.1,29,15,2.7,1,8.8,2.9,11.6,3.1"/>
          <path id="Path_7199" d="M50.7,148.6c-.4.4-3.7-3-4-3.4-1.3-1.5-3.9-4.9-4.8-6.6-.5-1,.7-.4,1.1-.1,1.2.8,5.7,6.8,6.7,8.2.2.3,1.2,1.8,1,2"/>
          <path id="Path_7200" d="M55,147.1c-.5.4-2.6-1.8-3-2.1-1.7-1.7-3.6-4.1-5.1-6.1-.7-.8-1.2-1.6-1.7-2.5.2-.1,1.7,1.1,1.9,1.3,2.5,2.5,4.9,5.2,7.1,8.1.2.2.9,1.1.7,1.3"/>
          <path id="Path_7201" d="M46.2,152.4c-.2.2-1.6-1-1.8-1.2-2.1-2.1-4-4.3-5.7-6.7-.2-.3-.4-.5-.4-.9.4-.4,2.4,1.8,2.7,2.1,1.2,1.3,2.8,3.1,3.9,4.4.3.3,1.5,1.9,1.2,2.2"/>
          <path id="Path_7202" d="M42.2,154.5c-.3.4-5.1-5-5.4-5.6-.2-.3-.3-.7-.3-1,.5,0,.8.4,1.1.7.9.9,2.2,2.4,3.1,3.3.3.4,1.9,2.2,1.5,2.6"/>
          <path id="Path_7203" d="M58.1,143.3c-.6,0-.9-.4-1.3-.7-.5-.4-5.9-5.9-5.6-6.2.6,0,1.1.6,1.5.9.5.4,5.7,5.6,5.3,5.9"/>
          <path id="Path_7204" d="M105.8,23.1c-1.8-1.6-3.1-3.7-4.5-5.6-2-2.7-3.7-5.6-5.3-8.6,1.9,1.6,3.3,3.7,4.7,5.6,1.9,2.6,4,5.6,5,8.6"/>
          <path id="Path_7205" d="M110.4,21c-1.2,0-1.6-1.4-2.3-2.1l-4.8-8.2c.5-.4,2.7,2.1,3.1,2.5,1.7,2.3,3.1,4.9,4.1,7.7"/>
          <path id="Path_7206" d="M100.2,23.8c-4.1-3.8-7-8.9-10-13.5.4,0,.6.2.8.5,2.2,2.2,5.7,7.5,7.5,10.3.7.9,1.2,1.8,1.6,2.8"/>
          <path id="Path_7207" d="M88.2,13.4l6.9,10.6c-.5.6-4.9-5.7-5.2-6.3-.5-.8-2.2-3.4-2.4-4.1-.1-.5.3-.4.7-.3"/>
          <path id="Path_7208" d="M115.3,19.5c-.9-.4-5.3-6.8-5-7.1.6,0,1.2.8,1.6,1.2,1.3,1.4,3.1,4.1,3.4,5.9"/>
          <path id="Path_7209" d="M86.6,17.2c.4,1,5.2,7.1,4.8,7.6-.4,0-.6-.2-.8-.5-.7-.8-4.2-5.7-4.3-6.6,0-.1,0-.3,0-.4h.5c0-.1,0-.1,0-.1Z"/>
          <path id="Path_7210" d="M118.7,17.6c-.5.5-2.3-2.8-2.1-3.3.8-.7,2.3,3.1,2.1,3.3"/>
          <path id="Path_7211" d="M79.9,64.1c.2.2.4.6.7.9.4.4,1.4.6.8,1.5-.4.6-4.5,2.5-5.1,2.5-.4,0-.5,0-.8-.4-.9-.8-3.4-5-3.8-5.3l-4.3,1.4c-.8.6.7,5.6-.2,6.9-1.2.6-2.3,1.2-3.6,1.7-2.5.7-1.7-1.4-1.9-2.9-.7-6-1.8-11.9-2.5-17.9,0-.8-.4-4.5,0-5,.4-.6,4.1-1.5,4.9-1.5,1.9,0,3.4,2,4.5,3.4,4,4.9,6.9,9.8,11.4,14.6M69.8,60.5c.2-.3-3.7-5.9-4.5-6.4l1.4,7.6,3.1-1.2Z"/>
          <path id="Path_7212" d="M45.1,79.9c-2.5-8.3-6.1-16.4-7.6-25,1-.5,2-.8,3-1.1,6-.9,11.3-.7,14.8,4.9,2.5,4.1,3.3,12.1.1,16-2.2,2.8-6.9,4.6-10.3,5.2M48.6,73.5c5.4-1.1,5-8.3,2.7-12.1-1.3-2.2-2.3-2.9-5-3.1-.8,0-1.5.4-2.2,0l4.5,15.2h0Z"/>
          <path id="Path_7213" d="M35.3,66.7c-.5.4-1.1.8-1.8,1.2-2.6,1.2-2.1-.3-3.4-2-.5-.7-1.8-2-2.7-1.8-.5.3-.9.6-1.2,1-.5,1.2-.1,6.7.1,8.3.2,1.5,1.1,6,3.1,5.9,1.5,0,2.3-1.3,2.7-2.6.4-1.2,0-3.1,1.5-3.5.5-.2,3.1.1,3.4.4,1.5,1.1-.3,7.7-1.3,9.1-1.5,2-3.6,2.8-6,3-7.6.4-9.3-8.9-9.6-14.6-.3-6,.5-15.7,9.2-13.2,2.1.6,5.6,5.6,6.2,7.6.1.4,0,.8-.2,1.1"/>
          <path id="Path_7214" d="M53.1,90.8c-1.8,2-2.9,4.1-5.6,5-3.9,1.3-11.9,2-11.2-4.1.1-1,.8-2.7,1.9-3.1,2.4-.8,5.3,1.4,8.3.2,2.2-.9,4.2-5.3,5-7.5.4-.3,3.6,1.3,4.3,1.5,3,1,5.3,1.4,8-.6,2-1.5,3.3-7.1,6.8-3.7,1.9,1.8,1.4,5.9.1,8-2.8,4.4-6.5,4.2-11.1,2.8,2.8,3,8,8,4.5,12.2-2.9,3.5-7.6,2.2-9.3-1.6-.3-.8-1.6-4.6-1.6-5.3v-3.9h0ZM67.8,81.2c-1.7.3-3.1,2.3-4.5,3.1-4,2.1-7.3-.2-10.9-1.7-.7.1-1.6,3.8-2.1,4.6-.7.9-1.5,1.8-2.4,2.6-2.7,2-7.5-.5-8.8.9-1.2,1.4-.4,2.8,1.1,3.4,4,1.7,7.9-.2,10.5-3.2.5-.6,2.3-3.8,2.7-3.7,1.3,1.9.6,4.3.9,6.5.4,2.7,2.7,8.3,6.1,7.4,2.8-.7,3-3.1,1.8-5.3-1.5-2.9-4.2-5.9-6-8.7,0-1.1,3.5.7,3.7.8,3.3,1,7.6.8,9-3,.4-1.1.6-4.1-1.2-3.8"/>
          <path id="Path_7215" d="M40.9,40.7c.5.2.4-.1.5-.3,2.8-3.3,4.3-5.6,9.3-5.4,2.8,0,8.4,2.6,6.2,6-1.1,1.7-2.2,1.1-3.6,1.1-4.5,0-5.8-.5-8.5,3.4-.4.7-2.3,4.5-2.5,4.6-3.8-1.1-8.3-4.3-11.9-1-1.4,1.3-2.7,5.2-5.2,4.5-2.9-.8-3.1-4.3-2.7-6.7.4-2.2,3-4.9,5.1-5.6,2.5-.8,5.3.3,7.7,1.2l-3.5-3.5c-2.6-3.2-4.7-7.6-.5-10.4,6-4,11,7.3,9.5,12M39.9,43.4v-5.2c0-1.8-1.2-4.9-2.6-6.2-1.6-1.5-5.5-1.9-5.9,1-.6,4.2,3.3,6.8,5.7,9.5.2.2,1.4,1.6,1.2,1.8-4.4-.6-8.2-4.2-12.3-.8-1.7,1.4-2.9,3.7-1.7,5.9,2.1,3.5,5-1.4,6.9-2.2,3.9-1.8,7.2.5,10.7,2,1.6-2.5,2.8-7.1,6-8,1.3-.3,6.2,0,6.7-.8.6-.9-1-3.6-2.1-3.9-1.6-.5-3.7-.3-5.3.2-3.5,1.1-4.9,4.5-6.7,7.3l-.6-.4h0Z"/>
          <path id="Path_7216" class="st1" d="M176.4,176.3c-.2.2-1.4-.7-1.6-.9-13.7-9.4-26.8-20.3-40.4-29.9-8.1-5.7-16.7-10.6-24.5-16.7l-2.4-10.9,70.3,50.1-1.4,8.4h0Z"/>
          <path id="Path_7217" class="st1" d="M169.5,199.6c-.2.2-1.3-.8-1.5-1-11.8-8.9-23-18.6-34.8-27.4-4.8-3.6-10.6-6.7-14.7-11.2l-3.1-11.5,14.7,9.9c8.3,5.9,16.3,12.4,24.5,18.5,6,4.5,12.4,8.6,18.2,13.4l-3.3,9.3h0Z"/>
          <path id="Path_7218" class="st1" d="M177.8,147.4c-.1,3.1.4,6.1.7,9.2,0,.3.4.6-.2.5l-65.2-50.4,11.4-1.1c17.6,14.1,34.7,29.1,53.4,41.8"/>
          <path id="Path_7219" class="st1" d="M121.8,173.5l19.7,15.5,25.4,18.6v.4c.1,0-3.6,7.7-3.6,7.7l-20.6-14.8c-5.8-4.1-11.9-7.8-17.4-12.3l-3.6-15.1h0Z"/>
          <path id="Path_7220" class="st1" d="M129.4,204.6l7.5,5.7c4.9,4,9.6,8.4,14.8,12.1.9.6,5.9,3.7,6.1,4.1.2.4-1.2,2.4-1.6,2.9-.5.8-4.1,5.8-4.5,6-.4.2-.7,0-1-.2-1.8-.8-5.5-3.8-7.3-5.1-3.2-2.4-6.3-5-9.2-7.7-1.8-5.9-2.7-12-4.9-17.8"/>
          <path id="Path_7221" class="st1" d="M177.1,136.2l-36.1-29.2,12,.5,22.5,19.3,1.6,9.5h0Z"/>
          <path id="Path_7222" class="st1" d="M140.8,248.8l-3.8-15.9,10.2,8.7-5.6,7.1h-.7c0,.1,0,.1,0,.1Z"/>
          <path id="Path_7223" class="st1" d="M171.9,109.2c.2,1.6.9,3,1.3,4.5,0,.3.4.5-.2.4l-7.7-5.7c2.2,0,4.4.3,6.6.8"/>
        </g>
      </g>
    </g>
  </g>
</svg>