<?xml version="1.0" encoding="UTF-8"?>
<svg id="Layer_2" data-name="Layer 2" xmlns="http://www.w3.org/2000/svg" xmlns:xlink="http://www.w3.org/1999/xlink" viewBox="0 0 219.52 133">
  <defs>
    <style>
      .cls-1, .cls-2 {
        fill: none;
      }

      .cls-2 {
        stroke: #fd8721;
        stroke-miterlimit: 10;
        stroke-width: 3.5px;
      }

      .cls-3 {
        clip-path: url(#clippath);
      }
    </style>
    <clipPath id="clippath">
      <rect class="cls-1" width="219.52" height="133"/>
    </clipPath>
  </defs>
  <g id="Layer_1-2" data-name="Layer 1">
    <g id="Group_8874" data-name="Group 8874">
      <g class="cls-3">
        <g id="Group_8873" data-name="Group 8873">
          <path id="Path_5749" data-name="Path 5749" class="cls-2" d="M100.6,54.21l2.72,11.85c.99,4.31,3.67,8.04,7.44,10.35l16.45,10.09c2.66,1.63,3.49,5.11,1.86,7.77-.11.18-.23.36-.36.52l-4.47,5.73c-.94,1.2-.72,2.93.48,3.87.48.38,1.08.58,1.7.58h11.35c2.26,0,4.3-1.34,5.19-3.42l28.86-66.95c2.01-4.67-.14-10.1-4.81-12.11-1.15-.5-2.39-.75-3.65-.75-5.09,0-9.21-4.12-9.21-9.21s4.12-9.21,9.21-9.21c.51,0,1.02.04,1.52.13l17.45,2.91c9.03,1.51,16.51,7.82,19.51,16.47l13.01,37.51c4.01,11.54-1.17,24.26-12.1,29.72l-37.94,18.97c-2.43,1.22-4.5,3.04-6.01,5.31-3.15,4.72-8.6,7.36-14.26,6.9l-2.35-.19c-4.33-.35-8.62,1.12-11.82,4.06l-.47.43c-5.83,5.35-14.75,5.5-20.75.33l-4.84-4.16c-2.06-1.77-4.54-2.97-7.2-3.49L9.09,101.09c-3.85-.75-6.37-4.49-5.62-8.34.18-.9.53-1.76,1.03-2.53l23.03-35.2c1.76-2.69,1.01-6.3-1.68-8.06-.09-.06-.18-.12-.28-.17-2.79-1.61-3.74-5.17-2.14-7.95.13-.23.28-.44.44-.65l8.55-11.07c1.96-2.54,5.33-3.52,8.35-2.44l49.35,17.71c5.28,1.89,9.24,6.35,10.49,11.82Z"/>
          <line id="Line_175" data-name="Line 175" class="cls-2" x1="81.2" y1="32.11" x2="76.39" y2="45.06"/>
        </g>
      </g>
    </g>
  </g>
</svg>