<?xml version="1.0" encoding="UTF-8"?>
<svg id="Layer_2" xmlns="http://www.w3.org/2000/svg" xmlns:xlink="http://www.w3.org/1999/xlink" version="1.1" viewBox="0 0 546.1 468.2">
  <!-- Generator: Adobe Illustrator 29.6.1, SVG Export Plug-In . SVG Version: 2.1.1 Build 9)  -->
  <defs>
    <style>
      .st0 {
        fill: none;
      }

      .st1 {
        fill: #ff5c8a;
      }

      .st2 {
        fill: #fff;
      }

      .st3 {
        clip-path: url(#clippath);
      }
    </style>
    <clipPath id="clippath">
      <rect class="st0" width="546.1" height="468.2"/>
    </clipPath>
  </defs>
  <g id="Layer_1-2">
    <g>
      <path class="st2" d="M536.7,372.1l-17.8-10.3-11.7-9.5-45.7-53.1-14.4-18.6-38.6-29.1-26.7-23.8h3.4l14.3,1.2,9.5-4.3,7.7,6.4h7.2c0,.1,4.6,7.4,4.6,7.4l7.2,6.1h4.6l-.8-10.3h3.1l16.1,4.1,9-3.7-1.7-9.1-5.4-8.6-16.4-9.2-11.4-3.5-8.9-8-2.1-4.6-10.4-8.1-15.5-9.2,2.9-19,1.7-19.6-1.2-9.7-2.1-10.9-4.5-10.4-6.8-10.1-10.1-9.4-13.6-5.5-17.3-.5-16,5.1-9.8,8-5.2,8-1.4,3.8-8.9-16.6-16.1-10.1-18.9.5-19.3,8.7-8.7,8.4-2.1.5-9.1,6.6-3.5,5.7-1.4,7.1,3.1,8.1,2,3.1,5.8,2.9,1.4,3.8,2,7.7-4-1.7-8.6-6.3-20.6-8-13.5-8.6-11.7-10.9-6-6.1-5.8-2.8-4.8-.5-2,1.5-7.2-3.5-5.8-.9-8.4-12.9-4.4-2.2-5.7,7.4-2.6,1.2-15.5-5.2-7.8,2.8-3.4,6.6,4.1,6,13.8,9.2,17.3,6.9,7.7.3-.5,4,.9,4.1,4.4,4.1,7.8,4,1.1,11.5s.3,5.1.8,5.4,2.8,4.4,2.8,4.4l9.7,5.4,13,2.8,12.1,4.9,14.3,7.2,10.9,6.1,12.4,11.4-1.4,3.4-9.4,11-6.3,14.4-1.4,17.8,3.7,15.8,7.1,12.6,12.4,11.2,10.4,4.5s20.4,4.3,20.9,4.3,12.9-2.6,12.9-2.6l11.7-4.9,4.5,5.5,10.9,11.4,9.7,10,10.4,14.3,15.3,21.2,13.2,13.3s15.3,17.9,15.8,18.2,22.4,18.1,22.4,18.1l21.8,19.3,17.3,7.5,9.8,6.1,8.6,21.2,8.1,19.3,5.6.2,19-13,5.2-27.9-4.8-7.5-34.3-35-20.9-19.7-36.9-27.2c.3-.2-3.9-7.9-3.9-7.9l3.2-2.5,4.8,5.2,77,46.8,42.2,21.2,15-6.9,4.3-10.3-.9-4.6h0v.2ZM275.6,269l-11.5.4-9.8-2.5s-13.1-7.5-13.4-7.6-8.8-12.5-8.8-12.5l-1.1-14.1,1.9-11.6,4.9-11,6.7-8,2.4,3.1,8.4,22.3,10.1,17.9,13,14.7,6.7,5-9.3,3.9h-.2ZM365.1,154.9l-5.7-2.7,1-12.6-.6-9.4-9.8-2.2v-4.6c-.1,0-25.4-8.4-25.4-8.4h0l-.6-.2.6.2,3.4-10,6.2-8,9.8-5.2,10.8-.7,9.5,2.3,8.6,4.6,6.9,6.2,6.6,11.9,3.1,13.3v9.6c.1,0-.7,10-.7,10l-4,11.6-1.4,4.7-3.6-1.7-14.9-8.6h.2Z"/>
      <g class="st3">
        <g id="Group_289">
          <path id="Path_288" d="M141.4,114.5c-1.4,9.8,7.8,12.2,13.9,17.3.4,2.9-.1,5.9.3,8.8.4,2.6,1.7,8.1,3.5,10,6.1,6.4,26,10,34.8,13.4,5.4,2.1,12.5,5.8,17.7,8.4,7.8,4,15.5,10.1,20.2,17.4-1.7,1.3-3.2,2.9-4.4,4.6-9.2,12.6-14.6,24.7-13.4,40.8,2.9,37.1,38.9,57.3,73.1,45.7,2-.7,5.6-3.5,7.4-2.4.9.6,2.5,3.3,3.5,4.5,12.2,13.1,25.7,27.5,36.1,42.1,3.1,4.3,5.2,9.2,8.4,13.6,10.6,14.8,25.8,26.9,39,39.2,11.4,10.7,25,23.4,38.5,31.7,7.5,4.6,16.9,6,23.4,12.3,6,11.1,9.4,24.4,15.3,35.4,3.6,6.7,9.8,14,18.2,9.6,9.4-4.9,23.4-34,19.9-43.9-2.5-7.4-16-17.6-21.8-23.6-11.6-11.9-22.3-24.9-34.7-36-12.4-11.1-27.6-20.1-39.9-30.7-2.8-2.4-5.6-4.8-6.7-8.4,5.6,1.8,10,5.5,14.9,8.5,23.3,14,47.9,29,69.8,45.1,7.2,5.3,14.9,13.7,22.7,17.3,7.4,3.4,22.8,7,30.7,5.4,9.8-2,18-10.1,13.1-20.5-5.6-12-17.3-15.2-27.5-21.9-6.9-4.5-16-14.8-21.8-21.2-12.8-14.1-21.6-28.8-33.3-43.3-15.2-18.9-34.3-29.3-52.7-44-7.5-6.1-14.4-13.2-22.2-19l13.7.2c3.5-.6,6.2-1.9,9.1-3.6,2.5,3.6,8.9,8.4,13.4,6.1,2.5,4.8,6.6,9.9,11.4,12.5,7.9,4.3,8.2-6,5.3-10.6,8.4,5.1,15.3,7.6,25,3.3s2.6-16.9-2.9-21.8c-9.2-8-18.9-9.3-28.7-14.3-.9-.4-7.5-5.7-7.8-6.2-.3-.7.4-1.8.2-2.8-.4-2.5-6.8-6.2-9.1-7.6-6.3-3.9-13.3-6.8-19-11.6,1-12.2,3.8-23.6,3.9-36,.1-19.8-9.2-43.9-26.6-54.7-13.3-8.3-36-6.5-48.8,1.7-5.8,3.7-9.9,9.4-13.4,15.2-2.1-5.6-5.3-10.8-9.4-15.2-16.2-17.3-45.1-10.6-60.3,4.8-.9.9-2.1,3.4-3,3.9-2.5,1.5-4.9,2.1-7.8,4.3-8.7,6.6-12.1,18.9-4.8,28,3.1,3.9,6.9,4.3,8.4,9.7.2.6.9,1.8,0,1.9-6.3-8-16.3-9.3-24.9-13.1-4-1.8-17.3-9.3-20.6-11.9-2.5-1.9-5-5.8-7.5-8.3-4.6-4.5-11.6-11.4-18.6-10-1.1.2-1.7,1.4-3.2,1.2-.9,0-2.9-2.1-4.1-2.7-2.4-1.2-4.8-2.4-7.5-2-3.2-4.1-8.1-16.4-14.4-15.3-4.6.8-2.8,7.2-6.5,7.9-2.9.5-9.9-3.4-13.5-3.8-1.6-.2-8.4,0-9.7.4-4.1,1.4-6.8,8.9-4.9,12.6,3.9,7.5,21,15.8,28.9,18.6,4.1,1.5,7.6,2.7,12,2.8M117.4,103.4c-2.4-1.2-10.7-6.6-11.8-8.6-5.8-10.5,4-12.8,12.4-10.7,2.5.7,9.8,4.5,11.4,4.4,3.9-.3,2.3-1.9,3.4-4.6,4.5-11,13.9,7,14,12.5,0,1.1-5.4,13.3-6,13.9-1.3,1.2-3.9.7-5.5.2-3.8-1-14.1-5.3-17.8-7.2M151.4,96.7l.6-2.3,8.1,3.9-1.5,2.4c-1.6-2.5-4.3-4-7.2-4M148.4,103.6l2-5.5,8.1,4.6-1.6,4.6c-2.8-1.3-5.3-3.6-8.5-3.7M184.3,157.5c-.4.7-13.6-4-14.9-4.6-2.4-1.1-7.1-3.4-8-5.7-3.9-9.2-2.8-30.8-.5-40.7.5-2.2,2.2-8.1,4.3-8.8,5.9-2.2,13,7.2,16.5,10.8,2.2,2.3,5.1,3.8,6.6,6.7-3.6,4-9.2,11.8-9.2,17.4s1,7.2,1.5,9.8c.9,5,2.6,10.3,3.8,15.2M147.1,106.2l8.5,3.9-1.1,4.5-8.2-4.7.8-3.7h0ZM153.6,125.9c-.4.5-7.6-4.8-8-5.4-1-1.6-.4-4.7-.4-6.5l8.6,5.1-.2,6.9h0ZM294.8,83.1c6.4,3.7,15.9,16.8,16.5,24.1.1,1.6-1.5,1.8-2.5,2.9-6.6,7.9-7.5,27,.8,34-4.8,8.1-16.9,14.3-26.1,15.9-12,2.1-31.6-5.6-39.1-15.1-10.6-13.3-11.8-39.5.8-52.1,11.8-11.8,34.2-18.8,49.5-9.9M233.9,127.4c-7.8-3.8-8.5-12.7-5.7-20.1,1.9-5.1,5.7-7.1,9.7-10.3l-4.4,14.1c-.9,5.5-.2,10.8.3,16.3M184.8,125.1c1.4-3,3.2-5.9,5.2-8.5,4.3,3,8.8,6.8,13.4,9.2,3,1.5,10.9,3.2,12.6,4.5,2.3,1.8,4.2,10.6,5.3,13.6,2.3,6.2,5,12.4,7,18.8-14.8-10.6-29.8-21-45.9-29.5-1.6-2,1.3-6.2,2.2-8M344.6,89.7c-1.4.3-2.8.8-4.2,1.3-1.6.7-7.7,4.8-8.1,4.8-.8,0-2.6-1.7-3-2.3-5.1-8.5,7-10.8,12.8-12.5-.2,3.6.1,5.8,2.5,8.7M344.9,80.9l13.1-.5c.8,1.3-.6,1.2-1,2.2-1,2-1.1,4.4-.4,6.5-5.2-1.1-10,2.4-11.8-4.1-.4-1.3-.4-2.8,0-4.1M326.7,104.8c-.9,1.2-9-4.7-8-8.5.4-1.4,5.8-8.2,6.7-7.7-.3,3.8,1.6,7.4,4.9,9.4.1.5-4.3,5.2-3.5,6.8M368.9,93.3l-9.8-3.6c-.8-2.6.1-7.9,3.2-8.2,1.2-.2,10.5,2.9,10.9,3.8-1,2.9-4.7,4.2-4.3,8.1M182.6,135.9c1.1-.7,1,.1,1.3.3,1.6.8,3.1,1.7,4.6,2.8,13.5,9.8,25.9,21.2,41.4,27.9,3.8,6.4,4.1,13.8,6.9,20.6l-18.4-13.9c-10.1-4.9-19.6-11.7-30.6-14.3-2-7.7-4.1-15.4-5.1-23.3M321,110.5c-1.1-.6-5-1.9-5.5-2.8l1-7.7,3.5,4.1,5.2,3.6-1.6,4.6c-.8.6-1.8-1.3-2.6-1.8M353.9,128c2.5-7.6-4.9-8.7-10.5-10.2-2.4-.6-16.1-2.8-16.8-3.9,3.5-19,20.9-26.1,38.1-18.8,13.4,5.6,19.6,15.2,22.5,29.2,2.6,12.5.4,27.1-4.8,38.7l-19.8-10.2-.4-21.9c-.7-1.9-6.5-3.1-8.4-2.9M241.8,191.5c-3.2-6.7-4.1-14.2-6.6-21.1-3.4-9.5-8.1-20.9-12.1-30.2-1.2-2.9-3.1-5.6-4.1-8.6.2-.6,10.3,4.8,11,5.4s5.9,7.1,6,7.7c0,4.8-1,11-.4,15.6.7,5.4,2.1,13.6,3.2,19,.7,3.4,2.1,6.8,2.9,10.2.1.6.9,1.8,0,1.9M372.3,90.9c.8-1.5,3-3.4,4.9-2.7,1.2.4,8.7,7.9,8.3,8.7-1.5.2-2.4-.5-4.1,0-1.5.5-3.6,3-4.5,2.7-3.1-3.3-7.5-3.3-4.5-8.8M312.1,142c-6.7-3.7-6-23.2-1.5-28.7s11.2.7,12.9,5.6c1.5,4.4.6,19.6-3.5,22.4-2.2,1.5-5.6,2-7.9.7M385.6,110.7l-6.4-8.9c1-2.7,7.2-3.2,9.1-1.8.9.7,3.9,6.2,4.1,7.4.1.8.5.8-.5,1-2.5.4-4.3.2-6.3,2.4M326,117.7c.3-.7,13.6,2.9,14.8,3.3,1.2.4,4.5,1.5,5.1,2.5,1.3,2.2-2.6,17.5-3.1,20.9-5.7-2.8-11.5-5.3-18.1-4.2,2.7-7,3.9-15.3,1.3-22.5M248.4,197.3c-.5-4.2-3.6-7.9-5-11.6-2.9-7.6-6.8-29.7-5.8-37.6,0-.6,0-1.3.7-1.6l9.5,12-2.6,13.6,3.2,25.2h0ZM394.9,112.2c1.2,2.3,1.4,6.4,2.6,8.9-3.1-.4-5.3-1.4-8.1.7-.2-2.1-2.9-7.4-2.1-9.1,1-2.4,6.4-2.8,7.7-.5M264.5,164.5c.4-.6-9.4-3.9-10.3-4.4-.5-.2-1.7-.4-1-1.3,7.4,1.8,14.6,5,22.3,5.7,10.7.9,19.6-3.2,28.9-8.1l-8.2,10.1c5.1-2.7,8.2-8.3,11.6-12.7.4-.2.5.4.5.7-.6,4.7-5.3,9.2-8.7,12.2l.3,1,2.3-1.5c-2.8,4.2-6.6,7.9-11.4,9.6-7.7-1.1-16.4.5-24-.4-4-.3-7.5-2.7-9.2-6.2.2-.5,9.1,3.9,10.6,2.2-3.8-1.9-11.2-1.5-12.8-6,3.4.9,7.4,4.4,10.9,3.3-4.6-2.3-11.3-3.1-13.9-7.9l12.2,3.7h0ZM355.8,132.5c.2,0,2.7-.1,3.4.2l-.5,18.4-4.7-2.3,1.8-16.3-2.8,14.6-1,1.4c-1.1-5.5,1.6-11.3,1.2-16.9,1.8-1.2,2.1.8,2.5.9M249.8,161.6c.9,4.3,4.8,7.6,6.5,11.2,4.8,10.4,6.9,22,12.9,31.8,6.4,10.5,15.2,16.5,24.1,24.2,5.7,4.9,3.4,4.5,5.4,10.4.5,1.6,2,3.1,2.3,4.3.6,2.2-4.8,9.1-6.4,11-1.6,2-6.9,8.1-9.2,7.8-3-.5-13.9-12.1-16.2-15-2.4-2.9-4.6-5.9-6.5-9.1-2.1-3.6-7.3-13.7-8.5-17.3-1.1-3.3-.3-9.4-.6-13.2-1.2-13.2-7.3-30.4-4.9-43.2.2-1,.4-2.3,1.3-2.9M390.2,124.4c8.4-4.3,8.9,3.1,8.7,9.6-2.8-1.4-5-2.6-8.4-2.1l-.4-7.5h0ZM320,174.2c-1.4-4-3.4-8.1-4-12.4-.3-1.7,1.3-15.2,2-16.1.5-.6,5.8-2.4,6.8-1.7l-4.3,20.2-.4,9.9h-.1ZM329,180.2c.4,2.4,1.6,5,2.1,7.4l-4.5-4.7c-4.7-7.5-3.4-17.5-2.1-25.9.3-1.9,1.9-11.9,3-12.6l10.1,1.8c-3.8,9.6-10.3,23.4-8.6,34M335.5,193.6c-.7-5.1-3.2-10.2-3.8-15.2-1.2-10,2.8-22.4,7.5-31.1h.7c2.8,1.8,7.8,1.9,10.3,3.2s.8.3.9,1.1c-2.7,2.3-5.1,4.9-7.2,7.9-3.2,4.8-7.7,15.1-8.3,20.8-.5,4.1.2,7.8.3,11.8,0,.6.3,1.6-.5,1.7M390.2,144.2l.6-9.4c1.9-.7,4-.5,5.8.6,4.3,2.9,1.4,7.1,2.1,11.3-1.4.4-2.1-1.1-3.6-1.6-1.5-.6-3.2-1-4.9-.9M262.1,177.4c10.4,1.6,21.1.7,31.6,1,2.5-2,5.6-3.8,7.8-6,2.7-2.6,4.4-6.7,7.6-8.9.1,10.9,11.2,19.5,14.9,28.7,4.7,11.9,6,24.8,10.6,36.7,2.2,5.8,6.3,14.3,9.1,20,2,4.2,7,12.9,9.9,16.2,3.3,3.7,12.2,3,16.9,3.7,7.9,1.3,15.6,3.1,23.2,5.6,2.1.7,7.6,3.8,8.6,5.6.5.9-2.1,8.4-2.7,9.9-1,2.8-2.7,5.7-3.7,8.7-2.4,7-3.5,14.3-5.6,21.4-16.5-8.3-34.5-12-52.8-13.7-1.8-1.7.6-24.3-.9-29.4-1.2-4.4-14.2-22.8-13.6-24.1,8.1-2.4,11.9-13,7.4-19.9-3.8-5.9-12.8-12.3-20-11.3-4.6.7-9.9,3.1-11.6,7.7-3-3.2-6.9-5.2-10.2-8-8.7-7.2-16.7-17.8-21-28.2-2.1-5.2-3.2-10.9-5.6-15.8M353.8,152c.5,0,7.7,2.5,8.7,2.9,7.5,3.3,14,8.1,20.6,12.6,4.3,3,8.6,6.2,13.1,9l-5.6,6.7-10.3-5.1c-2.8,1.9-5.8,2.7-8.3,5.2s-1.4,2.2-2.2,3.1c-1.6,1.7-6.1,4.4-5.4,6.9.1.4,3.2,2.6,3.9,3,1.2.8,6.8,2.7,6.3,4.3-.7,2.3-14,8.1-16.6,9.6l-18.3-13.5c-2.8-4-1.6-14.5-.5-19.2.9-4.2,4.3-13.5,6.5-17,.8-1.3,7.1-8.5,8.2-8.6M388.4,155.3l1.7-8.8c1.5-1,6.9,1.6,7.7,3.2.9,1.9-1,6.9-.6,9.2-2.7-1.6-5.4-3.8-8.8-3.6M229.4,196.7l5.2-5.1c1.4.2,7.8,8.5,7.5,9.8l-2.8,3c-1.9-3.8-4.9-6.7-9.4-6.7l-.6-1h.1ZM223.5,207.2c-.7-.6,2.8-5.9,3.4-6.5,3.2-3.4,11.1,2,11.3,5.8,0,.7-3.8,7.5-4.5,7.2-1.7-4-6-6.1-10.2-6.5M387.5,157.2c9.8.9,9.4,6.8,7,14.5-.5.2-8.6-6.1-9-7.1-.5-1.4,1.6-5.8,2-7.4M219,218.5c-.4-.2,2.1-7.4,2.5-7.9,2.6-3.7,10.7,2.4,11.4,5.9l-1.8,6.3c-3.4-3.4-7.1-4.9-12.1-4.3M281.6,264.8l-8,2.3c-9.7,2.8-29.7-5.3-35.7-13.4-11.2-15.4-5-36.3,6.2-49.6,2.3,6.3,4.4,12.6,7.1,18.7,4.3,9.6,9.5,19.9,16.4,28l13.9,14.1h.1ZM390,269.3c-6.5-1.1-13.6-3.9-20-4.7-3.5-.4-11,.6-13.5-2.2-6-6.8-10.2-17.9-13.9-26.2-4.3-9.6-8.8-18.6-10-29.4l-6.4-18.4,6.9,7.4c10.6,6.8,19.8,16.2,29.5,23.7,3.6,2.8,7.9,4.5,12,6.3-3.9,7-9.3,16.2-5.8,24.4.9,2,4.8,6.9,6.5,8.5l14.6,10.6h0ZM218.2,221c1.9-2,10.6.8,11.9,3.6l-1,9.8c-4.2-1.6-7.9-.8-12,.6-.6-.3.5-13.4,1.1-14M374.5,186.3l5.6-3.6,19.1,10.6-5.7,5c-7-2.8-12.8-7.9-19-12M362,214.2l8.5-2.4,10.6-7.5c1.6-.3,5.3,3,6.6,4.1l1.2-.2c1.7-2.9,15.3-13.3,15.3-15.3s-3.6-2.7-5.5-3.9c-.6-.4-4-3.1-3.8-3.6,2.5-.6,4-6.6,6.4-5.8,3.2,2.2,6.5,4.4,9.9,6.4.9.5,2,.6,2.8,1.1,4.4,2.7,7.1,3.3,7.2,8.7.1,8.4-8.7,25.8-16.4,29.6-9.1,4.5-23.8-.5-32.4-4.6-3.7-1.8-7.4-3.9-10.2-6.8M391.6,201.4l-3.1,3.6c-6.6-4.5-12.7-9.6-20-12.8,1-1.6,2.9-3.6,5-2.8l18.1,12h0ZM217.5,237.8c.9-2,8.8-2.7,10.6-1.3,1.5,1.1,1.4,7.4,2.7,9.5-4.3.1-7.6,1.3-10.3,4.6-1-2.2-3.9-10.9-3-12.8M309.4,224.2c.7-1.1,4,1.5,4.7,2,3.4,2.5,5.6,6,9.1,8.4.6-.5-.4-1.4-.7-1.9-2.6-3.3-6-5.9-9.2-8.6,6.4.5,14.1,6.8,15.9,12.9.3,1.2.4,3.6-1.2,2.1-1.2-1.1-2-3.3-3.7-3.8,2.1,4.6,6,4,3,9.6-1.2,2.4-3,3.6-5.7,4.4-.6-1.5-2-3.4-2-5.1s2.5-3.5,1.3-5.2c.6-.4.7.4,1,.8,1.2,1.7,1.8,3.4,3.2,5,.8.9,1.1,1.1.6-.2-1.3-3.2-4.1-6.8-6.3-9.6-1.1-1.4-10.5-10.3-10.1-11M304.9,226.1l3.5-1.3,5.7,6.4-5.2.4-4-5.5h0ZM305.7,234.7l-3-5.5c0-.6,1.2-2.8,1.9-2.4l3.8,5.5-2.6,2.4h0ZM221.8,253.1c2.5-2.9,5.4-4.7,9.4-4.5l5.6,8.4-4,3.1-2.4,5.3-8.5-12.4h-.1ZM302.8,239.9c-2-3.5-2.4-6-.9-9.7l3.4,5.3-2.5,4.4h0ZM424.8,202.9l.7-3.2c1.6,2.2,5.2,3.2,4.5,6.2l-3.2-2.4-2.1-.5h.1ZM313.2,246c-1.8-.7-6-2.8-6.5-4.7-.2-.8,1.5-4.2,2-4.7,3.1-3.2,9.6.9,8.7,4.6-.2.7-3.5,3.6-2.8,5.3-1.2.8-1-.3-1.4-.5M422.7,211.3l1.3-5.8c1.9.8,3,2.9,5.4,2.3l-1.6,5.4-5.1-1.9h0ZM241,274.1c-1.9-.6-8.1-5.2-8.5-6.7-.7-2.4,3.6-10.5,6.4-8.4,2.1,1.6,4.2,4.1,6.6,5.5-3.1,1.9-5.6,5.8-4.5,9.6M434.6,242.6c-1.3-.5-5.3-4.5-6-5.8-3.5-6.7-.5-17.1,2.4-23.7.4-.9,2.2-5.1,2.5-5.5,2.1-2.4,9,.6,11.6,1.7,5.3,2.2,16.7,9.8,18.9,14.8,4.4,10.1-5.5,13.2-13.7,11.4-2.5-.6-9.3-4.2-10.9-3.7-2.5.9,2.1,13.6-4.8,10.7M304.5,243.9c.8-1,2.9,1.7,3.7,2.3,1.5,1,3.1,1.7,4.9,2.2l-2.4,6.4c-2.9-.3-8.2-3-7.8-6.4.2-1.6,2-2.8,1.6-4.5M424,221.5c-.7-1.8-2.6-1.7-4-2.5l1.8-4.6c4.8,1,6.5,3.6,2.2,7.1M389.4,264.2c-3.4-2.3-7.4-4.2-10.6-7-2.1-1.9-7.1-7.4-7.8-9.8-1.5-5.1,1.8-16.6,6-20.2l34.3,29.7c-1.2,6-5.6,11-7.6,16.8-.5.3-3.6-1.9-4.3-2.4-3.4-2.3-6.7-4.8-10-7.1M254.4,268.7l.2.8c-2.3,2.9-1.6,5.8-2.1,9.2-.4.2-8.5-2.8-8.9-3.4-2.1-3.1.5-7.7,3-9.8l.6-.2c1.5,1.9,4.8,3,7.1,3.5M320.7,250.3c-3.6,1.4-3.8-1.6-1.9-3.9.8.3,2.1,3.5,1.9,3.9M309.2,256.4c1.1.9-4.5,7.9-5.6,8.7-2.8.3-8.2-3.5-7.1-6.5.2-.5,4.7-6.5,5.1-6.7,1.9,2.3,4.5,4.8,7.7,4.5M412.8,225.2l4.7-3.5,5.7,3.9-2.5,4.5c-3.1-.7-5.5-2.9-7.9-4.9M304.6,267.6c4.7-3.6,7.4-9.3,10.7-14l4.1.9c3.4,6.2,8.1,12.3,11.3,18.4,1.8,3.5,2.7,5.6,2.9,9.6.1,3.8-1.2,7.9-.3,11.7-1.2-.2-2-2.6-2.5-3.6-5.1-10.4-6.6-18.7-20-21.5-1-.2-6.8,0-6.2-1.6M265.1,280.5c-.2.5-9,.2-9.8-1.5-.7-3.1-.6-6.3,1.6-8.8l7.8,1.3c-1.7,2.9-.6,6.1.4,9M286.7,266.7l7.8-5.6c.6,1.5,1.6,2.8,2.9,3.8,1,.8,3.9,1.6,3.9,2.3l-9.1,7.8c-3.5-1.4-4.9-4.8-5.4-8.3M266.5,271.9l9.6-1.1c-.9,3.3.2,6,1.5,9-.3.6-8.8,1.5-9.6.9-2.1-1.3-2-6.6-1.5-8.8M278.3,270.3l6.4-2.5c.7,3.7,2,6.4,5.2,8.5-2.5.3-6.8,3.5-9.2,2.9s-3.3-6.8-2.5-8.9M323.8,305.2c-6.4-9.6-15.7-16.8-23.2-25.3-.8-.8-3.4-3.7-3-4.7,4.5-6.3,15.1-2.9,20.2,1,5.9,4.4,6.7,10,9.5,16.1,2.1,4.5,5.4,8.6,6,13.7l-9.5-.8h0ZM409.4,277l6.3-17.8,16.1,12.8-9.7,9.6c-3.6-3-8.1-4.6-12.8-4.6M406.1,282.6c1.9-2.9,10.2.5,12.6,2l-21.4,27.9,8.8-30h0ZM429.1,289.7l-4.3-6c.1-.6,8.5-8.1,9.5-8.6s2.6.5,3.7,1.2c1.8,1.4,3.6,2.9,5.2,4.6.7.9-.1.7-.5,1-4.5,2.6-9.3,4.6-13.5,7.7M327.1,309.4l8.5,1,1.3,10.1-7-7.2-2.8-3.8h0ZM405,308.2c1.8-4.5,5-8.4,8-12.1,1.2-1.5,8-9.7,9.1-9.3.6,1.6,4.5,4.2,3.4,5.9-.7,1.2-10.2,6.7-12.2,8.3-2.9,2.3-5.3,5.1-8.3,7.2M340.5,324.9l-2.2-14.3c14.6,3.9,30.3,5,43.8,12.4l-41.6,1.9h0ZM411.8,330.8c-3.6-2.2-10.6-5.1-13.6-7.7-.5-.4-1-.2-.3-1,7-5.5,13.4-14,20.4-19.2,5.3-3.9,10.8-7.4,16.5-10.6,4.3-2.3,8.9-4,13.2-6.2l9.7,12.4-3,12.5c-10,1.1-20.4,8.4-19.8,19.2-2.6,1-5.7-.5-8.2.2-2.2.6-5.3,3.5-7.5,4.7l-7.3-4.2h-.1ZM341.7,327.3c1-.4,2.1-.6,3.2-.8,9.8-1.3,34-2.1,43.7-1,.6,0,1.3,0,1.5.7l-29.7,25.1c-2.8-2.8-20.2-21.4-18.8-24M461.8,303.1c5.7,8.3,11.9,16.3,18.4,23.9,9.7,11,24,27.6,36,35.3,3.2,2.1,18.4,9.9,19.6,12.1-.3,13.8-12.3,11.2-21.9,9.1-14.3-3.1-37-10.9-49.1-18.7-8.9-5.8-17.3-12.4-26.2-18-4.9-3.1-10.2-5.5-15-8.7-1-1.8,3.4-1.9,4.5-2,4.1-.2,9.8,1.4,13.6.3,5.8-1.6,12.5-9.6,14.8-15,2.5-6,1.9-12.8,5.3-18.4M398.7,383l-6-.5-30.7-29.1c-.5-2.2,26.2-22.2,29.4-25.8,5.4,7.7,13.7,11.8,21,17.3,1.2.9,8,6,8.2,6.7.1.4-.7,6.4-1,6.6-13.3,2.2-21.4,11.3-20.8,24.8M423.2,354.4c1.1-.6.9,0,1.4.3,18.2,13.1,31.9,30.7,47.3,46.7,4.9,5,10.3,9.6,15,14.8-1.1,8-2.6,16-6.1,23.3s-8.6,17.4-18.1,16.2c-4.5-10.2-8.7-20.5-13.5-30.5-.3-.6-.1-1.5-.5-2.2-4.7-9.5-18.5-11.4-26.6-16.5-4.7-2.9-12.4-9-16.6-12.7-2.3-2-3.9-5.3-7.2-6.5,2.9-1,6-1.1,8.9-2.4,11.9-5.2,17.5-18,16.1-30.5"/>
          <path id="Path_289" class="st1" d="M.7,22.9c-2.7-4.5,3.3-7.6,6.2-10.4,1.8-1.7,3.4-5.2,6.4-4.6.6,0,7.9,5.4,9.2,6.3,3.2,2.1,6.8,4.3,10,6.5.9.6,6.1,4.9,6.7,3.9-.6-3.7,3.4-22.8,5.7-24.2,3.4-2.1,6.8,4.2,8.3,6.5,4.5,6.8,8.4,14.2,12.8,21.1,10.4,16,22.6,31.1,29.8,49-.6,1.1-14,.2-16.1,0-16.2-2-36.5-7-52.8-10.6-8.1-1.8-16-4.9-24.1-6.7-2.5-1.7-.8-4.4,1-5.9,2.5-2.1,10.3-6.2,13.6-7.9,1.4-.7,3.3-.5,4-2.1-3.1-3-5.8-6.7-8.8-9.8-3-3-10-7.9-11.9-11.2"/>
          <path id="Path_290" d="M304,179.9c-1.3.2-2,.9-3,1.6-7.8,6,.7,25.8,12.1,20,2.2-1.1,3.7-7.9,3.5-10.1-.5-5.4-7-12.2-12.6-11.5"/>
          <path id="Path_291" d="M262.8,92.2c-32.5,6.1-28.7,46.5.5,54,49.6,12.8,44.6-62.4-.5-54M265.5,103.6c4.3-1,11.5-.3,15,2.5,4.6,3.6,6.9,12.2,4.1,17.3-4,7.2-17.3,3.6-22.9.2-10.5-6.3-7.9-17.3,3.8-20.1"/>
          <path id="Path_292" d="M248.4,143.1l-1.6-.7c-.4,0-.2.6,0,.8.6,1.1,8.9,7.7,9.6,6.4l-3.8-3.6,2.8,1.1c.4,0,.2-.6,0-.8-1.4-1.8-6.1-4-8-5.7l1,2.5h0Z"/>
          <path id="Path_293" d="M298.2,105.7c-.7-4.3-4.4-7.6-8.2-9.3l8.2,9.3Z"/>
          <path id="Path_294" d="M298.7,101.7l1-.6c-.4-2.4-5.4-6.5-7.7-7.5l6.8,8h0Z"/>
          <path id="Path_295" d="M299.3,96c.5-1-4.5-5.7-6-5.5,0,1.2,5.3,6.9,6,5.5"/>
          <path id="Path_296" d="M409.2,214.6c3.4-3.6,4.1-9.3,2.1-13.9-.8.4-.7,1.2-.8,1.9-.3,1.4-1.8,11.6-1.3,12"/>
          <path id="Path_297" d="M414.2,204.9c2.2-2.9.5-9.9-3-11.3l3,11.3Z"/>
          <path id="Path_298" d="M416.6,199.8c1.5-.2.8-.6.8-1.5,0-2.7-1.9-6.3-4.4-7.4l3.7,8.9h-.1Z"/>
          <path id="Path_299" d="M167.3,99.9l2.1,1.3c.1.8-2.3-.5-1.4.9,1.3,1.9,4,3,5.9,4.1l-.2-1.6h1.7c.5-.9-6.3-6-8.1-4.8"/>
          <path id="Path_300" d="M165.2,139.2c-1.6,3.1,7.2,7,7.8,6.1-1.9-2-4.2-3.6-6.3-5.4-.6-.5-.2-1.4-1.6-.6"/>
          <path id="Path_301" d="M162.2,146.1c1.2,2.1,4.3,2.7,6.1,4.1l8.1,2.9-4-2.4-10.2-4.6h0Z"/>
          <path id="Path_302" d="M164.8,143.7c1.8,2.4,4.4,4,7.4,4.5l-1.5-1.5-5.9-3Z"/>
          <path id="Path_303" d="M316.2,117.8c-4.6,0-4.5,7.7-4.5,11.1s.3,7.4,4.4,7c6.7-.7,5.1-18,.1-18.1"/>
        </g>
      </g>
    </g>
  </g>
</svg>