<?xml version="1.0" encoding="UTF-8"?>
<svg id="Layer_2" xmlns="http://www.w3.org/2000/svg" xmlns:xlink="http://www.w3.org/1999/xlink" version="1.1" viewBox="0 0 246.4 324">
  <!-- Generator: Adobe Illustrator 29.6.1, SVG Export Plug-In . SVG Version: 2.1.1 Build 9)  -->
  <defs>
    <style>
      .st0 {
        fill: none;
      }

      .st1 {
        fill: #fff;
      }

      .st2 {
        clip-path: url(#clippath);
      }
    </style>
    <clipPath id="clippath">
      <rect class="st0" width="246.4" height="324"/>
    </clipPath>
  </defs>
  <g id="Layer_1-2">
    <g id="Group_9091">
      <g class="st2">
        <g id="Group_9090">
          <path id="Path_7126" class="st1" d="M194.8,29.8c.7-2,1.5-3.9,2.4-5.7.9-1.4,20.3-21.7,20.3-21.7l3.5,12.2,4.9,3.7,3.9,4.2,12.5,4.4-11.4,10-2.8,7.7-19.8,19.2-18.1,5.7-2.3,5.2,6.8,6.3,19.5,38.2,6.2,35.1-4.4,36.3-21.3,45.5-17.7,17,13.1,31.9-15,5.3-10.9-30.2-10.7,4.5s12.7,38.7,12.6,42.1c-.1,3.4,0,6.3,0,6.3l-15.7-11.5-10.6,3.6-9.7,17.5-8.7-27.6-3-18.6,4-5.9-27.4-1.5s-9.3-2.2-10.3-2.5-13.1-3.4-13.1-3.4l-8.5,31-13.3-3.7,8.9-33.1-27.6-21.1-11.9-16.8-14.3-40.8-3.2-36.9,5.2-26.1s11.4-20.7,12.3-21.4,22.4-19.5,22.4-19.5l14.8-8.1s13.6-8.6,15.2-9.3,27.8-6.5,27.8-6.5c0,0,10.5-2.4,11.3-2.4s41.2,3.8,41.2,3.8l15.6,6.3,9.5,8.1h3.1l3.8-4.2v-15.4l7.6-14.9,3.2,2.6v-4.8h0Z"/>
          <path id="Path_7116" d="M229.6,21c4,.9,7.8,2.7,11.7,4,1.2.4,5.8.8,5.1,2.5-.1.3-3.6,3.4-4.1,3.8-1.6,1.3-7.3,4.7-8.1,6-.3.5,0,.9,0,1.4-.7,2.8-5.1,5.8-7.1,7.9-6.1,6.3-11.9,12.9-18.2,19-3.7,2.7-15.2,3.3-17.7,5.7-2.3,2.2,1.3,4,2.8,5.7,7.2,8.4,15.9,22.6,19.7,33,4.7,12.9,9.1,35,9.4,48.7.6,26.9-12.4,65-30.6,85-4,4.5-8.5,8.5-13.3,12.2l12.2,29.2c-.4,2.7-1.5,1.6-3.2,2-2.5.6-11.2,5-13.1,4.2-1.8-.8-2.3-5.3-3-7.2-1.7-5-4.6-12-6.8-16.9-.3-.7-1.4-3-2.2-2.8-1.8.5-4.1,2.7-6.1,3.1l1.6,5.8c3.1,9.3,5.1,19,7.5,28.4.8,2.9,2.8,8.5,3,11,.2,3-2.4,2.8-4.5,2.1-2.1-1.1-4-2.4-5.9-3.8-3.3-2.4-6-5.5-9.5-7.4-1.1,0-6.2,1.1-6.9,1.9-.7.7-1.3,3.1-1.9,4.3-1.5,2.9-3.8,7.2-5.6,9.9-.7,1-3.3,4.4-4.4,4.4-1.6,0-1.2-1.5-1.6-2.5-2-5.2-8.7-19.1-8.5-23.7.1-2.5.6-2,0-4.6-1.2-4.4-3.7-12.4-3.1-16.7.1-.7,1.6-3.9,1.4-4-2.1,0-4.2.4-6.3.3-5.7-.2-13-1.5-18.7-2.4-7.3-1-14.5-2.7-21.4-5.2-3.1,6.7-3.9,14.1-5.6,21.3-.3,1.2-1.9,7.6-2.4,8.1-1.2,1.2-5.6-.9-7.3-1.2-3-.6-8.3.4-7.8-4,2.4-9.6,4.8-19.3,8.1-28.7-.2-.6-3.2-2-3.9-2.5-10.6-6.8-20-15.5-27.6-25.6-2.9-3.9-8.2-11.1-10.2-15.2-2.7-5.5-5.5-13.6-7.6-19.6-4.3-11.6-6.8-23.9-7.3-36.2-.3-6.7-.9-15.4-.3-21.9C5.9,78.4,70,44.9,126.4,47.3c16.8.7,29.4,3.6,44.2,11.7,3.1,1.7,6.2,4.1,9.2,6.1h.7c.4-.7,2.1-1.9,2.4-2.5.4-1-1.7-7.1-1.9-9-.4-4.5,2.8-9.3,4.9-13.2,1.3-2.4,3.4-6.7,5-8.7.4-.5.9-.9,1.4-1.3.7-.2,1.4.4,1.7,0,.5-1.5.5-3.1.9-4.7,1.2-4.7,6.7-8.7,9.9-12.3,1.7-1.9,3.2-4,5-5.9,1.5-1.6,5.3-6,6.7-7,.9-.7,1.5-1,2.1.2.6,1.3,1,2.6,1.4,3.9,1.1,3.2,1.8,6.7,2.6,10,.3.4,1,0,1.5.2,1.6.6,4.6,4.6,5.5,6.1M200.8,27.9c-.2-1.4.1-3.1,0-4.5-.8,1-2.2,2.1-2.8,3.2-1,2-2.4,10.2-3.2,11.1-.5.4-1.1.4-1.6.1-1-.5-.4-2-1.4-1.9l-3.2,6.7c-.3,2,1.5,6.8,1.1,8.4,0,.2-.3.5-.6.3-.5-.3-1.9-4.5-1.8-5.4-.5-.6-2.1,2.9-2.2,3.2-.6,2.4,1.6,8.6,1.5,11.4l34.9-41.1c-2.6-4.3-2.9-9.4-4.6-14-.4-1.2-.9.5-1.4,1-.9,1.1-4.4,4.5-4.5,5.4-.1.8.5,2.2.6,3.2.1,1.3.3,3.1.3,4.4.1,1.8,0,3.6-.3,5.4-.7.1-.5-.1-.6-.4-1.5-2.3-1.2-7.4-1.4-10.3,0-.4.2-.9-.4-.7l-5.1,6c0,3.8,0,7.4-1.5,10.9-.7.5-1.7-2-1.8-2.5M155.1,112.8c11.8-14.8,22.2-30.7,34-45.4,12.2-15.2,25.1-29.8,37.3-44.9l.3-1.1-2.4-2.6-.9.6c-16.8,19.8-33.6,39.6-49.7,59.9-2,2.5-3.4,4.8-5.3,7.3-12.5,16.6-26.3,32.6-38.1,49.7-2,2.9-3.6,5.9-5.6,8.7-.3.2-2.9-2.2-4.2-1-.5.4-3.6,8.9-3.6,9.9,0,1.4,4.8,3.9,6.2,3.6.9-.2,8.2-6.7,8.3-7.4-.6-1.2-1.6-2.1-2.9-2.5v-.4c7.3-12.1,16.8-22.6,25.6-33.5.2-.3.7-.4.9-.7M234.7,31h-5.4c-.5-.2-1.1-.3-1.6-.4-.6-.4,0-.6.4-.8,2.6-.9,6.2-.5,9-.4l2.9-2.2c-4-.9-7.9-2.2-11.6-4.1l-1.1.2-34.8,42.7,14.2-2.8c2.8-3.9,6.3-7.1,9.6-10.5,0-.8-.1-.3-.5-.2-2.1.2-4.4,1-6.5.5,2.8-1.9,6.5-2.6,9.8-3l3.9-4.1c-2.2.3-4.5,1-6.7.2,2.4-2.3,7.9-1.8,10.2-3.2,1.1-.7,2.4-2.7,3.5-3.5l-2.3-.2c-.2-.3-.3-.6-.3-1,.1-1.8,5.4-4.9,6.8-6.3.3-.3.6-.4.4-.9M125.3,255.6c-.9,0-1.9-.4-2.7-.4-8.5,0-17.4-.5-26-1.1-18.8-1.4-38.6-8.7-50.6-23.7-3.9-4.9-8.6-11.4-12.1-16.6-7.5-11.2-10.8-22.8-15.2-35.3-2.8-7.9-2.8-17.2-2.6-25.7.2-11.2.6-20.1,5.1-30.6,7.4-17.1,16.7-30.5,32.4-41,21.6-14.4,44.8-21.5,71.1-19.5,15.3,1.2,25.7,6.6,39.1,12.9,2,.9,4,2,5.9,3.1h.4c1.1-.6,5.7-7.1,5.9-8.3.3-2.8-4-5.3-6.1-6.4-5.1-2.7-10.2-5.6-15.9-7.2-14-4.1-29.4-4.4-43.9-3.1-17.1,1.5-37.4,6.5-52.3,15-13.7,7.8-32.1,22.5-40.2,36.1-8.2,13.8-11.4,24.2-12.4,40.3-2,36,11.4,80.5,41.4,102.4,8.8,6.4,16.7,11.1,27.1,14.5,13.9,4.4,28.5,6.7,43.1,6.9,1,0,2.8.6,3.7.5,1.2-.3,2.9-5.7,3.4-7.1.8-1.9,2.6-3.5,1.5-5.6M157.5,95.6l10.2-13.9-.3-.5c-3.7-2-7.3-4.5-11.1-6.4-7.4-3.8-17-6.3-25.1-8.5-12-3.3-29.2-.4-41.3,2.4-24.7,5.8-51.7,24-62.6,47.3-3.3,6.9-7.1,17.3-7.6,24.9-1.7,31.4,4.5,52.8,22.6,78,7.9,11,13.9,15.4,25.2,22.4,1.1.7,2.2,1.9,3.2,2.4,2.7,1.5,10.1,3.4,13.4,4.2,9.1,2.1,20,2.8,29.4,3.4,4.1.3,8.3-.6,12.4-.3-.7-5.3-1.9-10.6-3.5-15.7l-8,.8c-32.5-.6-61.8-16.1-73.2-47.6-11.5-31.8-7.3-67.2,21.8-87.4,12.2-8.5,31.4-15.2,46.1-16.7,18.1-1.8,28-.7,43.6,8.4.7.4,4.4,3.2,4.7,2.9M185.2,77.5c-2,1.4-3.2,3.4-4.6,5.3-.9,1.2-2.6,2.1-2.2,4.1.2.8,3.2,4.8,3.9,5.8,8.3,11,14.6,20.9,19.5,34,1.9,4.9,2,8.2,2.9,13.1.9,4.9,1.9,7.6,1.9,12.7,0,4.1.4,8.2.3,12.3-.2,7-2.2,15.6-4.2,22.4-3.3,10.9-9,21.2-15.3,30.6-11.1,16.6-22.3,23.9-40.2,32-2,.9-4.5,1.3-6.2,2.9-.6,1.2,1,2.5,1.8,3.2,2.6,2.2,5.3,4.1,8.2,5.8,2.4,1.1,4.2,0,6.5-1,8.6-3.6,23.4-13.8,29.5-20.8,8.3-9.5,16.8-22.9,20.7-34.9,5.6-17.2,10.1-33.6,8.6-52-1.1-14.2-3.3-34-9.8-46.7-3.6-7.1-13.3-23.8-19.5-28.2-.5-.4-1.1-.9-1.8-.7M57.4,210.1c12.4,12.6,31.1,19.9,48.6,21.4,2.9.2,9,.9,11.7.6,1.4,0,2.6-1.3,2.5-2.7h0c-.4-2.7-1.1-5.4-2.1-7.9-1.1-2.1-2.6-1.4-4.5-1.7-14.9-2.6-25.3-3.8-38.5-12.1-7.2-4.4-12.8-10.9-16.2-18.6-9-20.5-11.1-36.2-1.8-57.2,5.8-13.2,24.9-27.7,39-30.3,11.6-2.2,23.9-3.4,35,1.1l14.3,6.4c1.5-.9,2.1-2.6,3.1-3.9,1.3-1.6,4-3.9,4.9-5.6.6-1.2.3-1.7-.7-2.4-11-8.9-21.4-9.5-35.1-9.7-14-.2-33.4,5.1-45.7,11.9-25.9,14.5-37.6,39.9-32.5,69.4,2.2,12.3,9,32.4,17.8,41.4M175.4,89.5l-9.3,13c5.4,3.8,9.9,8.6,13.4,14.1,2.8,4.2,5.2,8.6,6.5,13.4,1.1,4.5,2.5,9.9,3.4,14.4,1,5,.9,11.7.7,16.8-.3,7.4-1.4,14.6-3.4,21.7-3.8,13.9-17.2,32.3-29.4,39.9-6.4,4-15.4,8.5-22.8,9.4-.5,0-.9.2-1.3.4l4.4,16.4c2.1-.4,4.2-1.1,6.1-2,15.9-6.9,26.7-14.1,37.3-27.9,7.6-9.9,15-18.6,18.6-30.8,10-34,3.2-66.9-19.4-94-1.2-1.4-2.7-3.2-4-4.5-.2-.2-.3-.4-.7-.3M144.7,112.6c-2.3-.8-4.2-2.4-6.4-3.4-4.9-2-11.3-4.5-16.5-4.8-9.5-.7-18.1-.9-27.1,2.4-16.1,5.8-30.8,15-36.2,32.2-5,15.7-4.2,28.2,2.3,43.2,1.8,4.1,9,15.3,12.3,18.1,10.3,9,24.1,14.2,37.7,15.2,2.1.2,4.4-.1,6.6,0l-7.1-28.9c-4.4-.4-8.7-1.4-12.8-2.9-5.3-1.8-8.2-4.2-11.4-8.8-5.6-7.9-5.9-14.7-4.2-24,1.2-7.1,10.5-16.3,17.1-18.9,10.1-4.1,17.9-4,27.6,1.4.7.4,1,1.4,1.9,1.1l16.4-21.9h0ZM130.1,217.3c-.5.9.9,5.8,1.2,7,.3,1,1.3,5,2.3,5.1,10.8-2.8,20.8-8.1,29.1-15.5,12.1-11,18.6-23.9,21.8-39.9,3-14.9,3.4-37-4.5-50.3-3.3-5.6-8-12.3-13-16.6-.8-.7-1.7-.8-2.2-1.9-1-.3-3.7,3.9-4.5,4.8-1.4,1.7-5.1,5.3-4.9,7.6,0,1.3,2.7,3.6,3.5,4.7,7.3,9.9,12.9,20.4,15.4,32.6,1.2,6.2-1.1,20.6-3,26.9-3.1,10.3-9.8,15.5-17.6,22.1-1.1,1-2.2,2.5-3.4,3.4-4,2.7-8.2,5.1-12.6,7-1.2.5-7.3,2.4-7.6,3M152.2,121.3l-16.8,20.1c.9,2,2.1,3.9,2.9,6,6.1,15.7,4,29.6-12.6,36.3-1.9.8-4,1.2-5.8,2.1,2.2,7.4,4.9,14.3,6.8,21.8.4,1.7.6,3.7,1.1,5.3.4,1.4,2.5.3,3.6-.2,8.4-3.6,21.2-12.8,28-19.1,7.1-6.7,11.1-23.5,10.8-33.1-.3-9.1-6-24.5-11.6-31.7-2-2.6-4.6-4.9-6.4-7.6M110.5,153.2l3.4,1.1,5.3-13.1c.9-1.7,5.1-1.2,5-4.1-.2-.4-3.7-2.1-4.4-2.3-3.5-1.2-10.7-1.3-14.3-.2-1.2.4-10,5.9-11.5,6.9-3.7,2.7-8,9.4-8.6,13.9-1.1,8,.5,14,5.9,20,3.5,3.8,7,6.2,12.4,5.1.5-.3.9-1.8,1.1-2.4.8-3.3,1.3-7.2,1.8-10.6l-3.8.3v-.9c3.3-1.2,6.6-2.1,9.9-2.8,2.1-.5,4.2-.7,6.3-.8,2.1,0,.3,2.5-.7,2.8-.6.2-2.3-.1-2.1.6,3,4.1,5.7,8.5,9.2,12.1,1.4.9,4.9-1.2,6-2.1,5.2-4.7,7.2-11.3,6.4-18.1-.5-4.1-1.1-10.5-4.9-12.8-.7,2.3,1.5,4.5.3,6.8l-8.7,6.5c-.1.6.2.4.4.5,1,.6,4.9,2.2,4.6,3.3-.7,1.2-2.7.2-3.8-.3-4.8-2.2-9.4-4.9-13.7-7.9-.6-.4-1.1-1-1.5-1.6M114.2,167.9c-.5-.3-5.1.6-5.4,1.1.4,4.4-1.3,8.8-1.3,13.3.2.9,3.4-.1,4.1.2,1.5,7.2,3.6,14.2,5.4,21.4,2.4,9.7,4.8,17.5,7.9,26.9,4.7,14.7,7.2,29.6,11.5,44.3l4.4,25.6,6.8-.7c-2.8-7-3.6-14.5-5.6-21.8-3.1-11.3-7-22.6-9.5-34-3.4-15.6-7.7-29.8-11.9-45.1-1.6-5.7-2.8-11.5-4-17.4l4.9-1.6v-.7c0,0-7.2-11.6-7.2-11.6h0ZM175.1,254.7h-.9c0,.1-8.4,6-8.4,6l11.2,27.3c3.6-1.3,6.9-3.2,10.7-4l-12.6-29.3h0ZM159,289.5c-.7-2.4-1.3-4.8-2-7.2-.2-.9-.2-2-.5-2.8-.6-1.7-4.3-5.5-4.8-7.8-.2-.7.5-1.5.1-2.1-.2-.3-1.7-1.2-2.2-1.6-3.8-3.5-6.8-7.5-9.9-11.5-.2,1.6.7,3.1,1.1,4.6,2.6,9.9,5.2,19.9,7.5,29.9.3,1.5.9,6.5,1.5,7.3.3.4,2.1,1.4,2.8,1.9,3.8,3.4,7,7.6,11.7,9.8l-2.8-8.8-7.7-6.6c.2-.4.7,0,1,.2,1,.4,2,.9,2.9,1.5.5.3,3.2,2.2,3.4,2-.6-1.5-.6-3.9-1.3-5.2-.6-1.1-4.2-3.7-5.4-5.1-.6-.7-2.2-2.6,0-1.7.7.3,4.6,3.5,4.8,3.3M129.2,258.5c-.8,0-.5,0-.6.4-1.6,7.2-5.2,13.9-7.8,20.7l.8,2.2c.8,0,.9-1,1.6-1.5.3-.2.7-.4,1-.3.4,2.9-2.7,5.3-.9,8l1.3-.4c.9.2,1.1,3.9,1.1,4.8,0,3.2-1.9,6.8.6,9.5.7-1.7,1.7-4.7,3.8-5,1.1,1.1-3.1,6.8-3.1,8,0,.7,1,2.3,1.2,3.1l2.8-3.5c.3,2.1-1.7,4.8-1.7,6.6,0,1.4,1.5,4.4,1.6,6l8.9-15.3c-3.8-14.4-5.4-29.4-10.5-43.4M68.9,264.1c-2.7-.7-5.4-2.7-8-3.6-.3-.1-.3-.4-.6,0l-8,28.4,10.2,2.9,6.4-27.7h0Z"/>
        </g>
      </g>
    </g>
  </g>
</svg>