<?xml version="1.0" encoding="UTF-8"?>
<svg id="Layer_2" xmlns="http://www.w3.org/2000/svg" xmlns:xlink="http://www.w3.org/1999/xlink" version="1.1" viewBox="0 0 301.4 296">
  <!-- Generator: Adobe Illustrator 29.6.1, SVG Export Plug-In . SVG Version: 2.1.1 Build 9)  -->
  <defs>
    <style>
      .st0 {
        fill: none;
      }

      .st1 {
        fill: #fff;
      }

      .st2 {
        fill: #ad80f9;
      }

      .st3 {
        clip-path: url(#clippath);
      }
    </style>
    <clipPath id="clippath">
      <rect class="st0" width="301.4" height="295.9"/>
    </clipPath>
  </defs>
  <g id="Layer_1-2">
    <g>
      <path class="st1" d="M.9,245.6l14.1,40.7,8.6,6.7,168.2-1.5,38.8,2.5,19-.6,4.6-5.8,6.1,3.7,23.5,2.8,5.8-.3,7-2.8,3.4-5.8-.3-22.6-.6-19.6-1.5-24.5-8.6-4.9-10.1-6.3-5.3-2.1h-20.4l-.9-26.3.5-51.4-1-9.9-5.2-2.9-10.7-1.1-19.8.8-19.8.3-6.8.5-2.5,23.8v39c0,0-1.1,22.4-1.1,22.4l-14.4-.2-21,.4-1.8-25.8-21.4-17.6-17.6.3s-15.9-.4-15.7-.5-.8-79.9-.8-79.9l-4.9-2.7-48.8.8-1.7,6-1.2,26.3H14.6c0,0-8.2,0-8.2,0l-4.1,5.4.7,22.5-1.3,42.5v52c0,0-.9,15.7-.9,15.7v.6s0-.3,0-.3h0Z"/>
      <g id="Group_9122">
        <g class="st3">
          <g id="Group_9121">
            <path id="Path_7242" class="st2" d="M125.9,48.4c-.9-.2-23.9,0-23.9,0l-9.1,1.1-4.7-8.6V7.3l12.5-4.1h88.7l5.6,6.7v35.3l-1.5,42.6-38.3,1.2-22.2-7.2-1.1-33.5h-6,0Z"/>
            <path id="Path_7224" d="M254.8,203.2l17.4.9c7,1,12.5,5.9,18.7,9,2.7,1.4,7.2,2,8.6,5,1.2,2.6.5,6.1.7,9,1.2,16.9,1.2,33.7,1.3,50.6,0,3.1,0,10.8-1.4,13.1-1.1,1.9-4.5,4.4-6.7,4.7-8.1,1-18.3-.5-26.5-1.2-1,0-2.2.4-3.4.3-3.1-.2-5.9-1.8-8.4-3.5-.4,1.9-1.8,2.5-3.4,3.2-7.6,3.2-31.2.9-40.6.4-4.5-.3-4.6-.5-9.2,0-15.2,1.7-33.3-2-48.9-.5-2.6-1.5-3.4-.2-5.7,0-21.9,1.6-46.3-1.1-68.2,0-15.8.8-32.6-1.1-48.3.5-3.5.4-4.7.9-8.6-.2-11.6-3.3-11.8-16.5-14.8-26.1-2.6-8.4-6.7-16-7.2-24.9-.4-6.7,0-14.3,0-21.1.3-36.7,1.1-73.4,1-110.2,1.7-2.7,1.9-5.1,5.5-5.9,3.5-.8,6,0,9.1,0,3.4,0,17.5.6,19.4-1.3.6-.7,1-6.6,1.1-8.1.2-5.3-.2-10.7,0-15.8,0-1.3.6-5.4,1.4-6.3.6-.6,3.2-1.3,4.1-1.4,14.9-1.8,29.9-1.8,44.8,0,2.1.3,4.7-.7,6.4,1.1,3.7,3.9,3.6,11.7,3.5,16.7-.1,9.4-1.2,19.1.4,28.6v35.9c4.6,0,9.2.1,13.9,0,4.6,0,9.7-1.2,14.3-.3,3.6.7,16.5,10.2,20,13,2.6,2.2,6.7,5.7,7.5,9.2.6,2.8-.6,21.2.9,21.6,3.3.3,6.8-.8,10-.9,4.6-.2,9.5.3,14.1,0,1.8-.1,5.7-.2,6.5-1.9,1.1-2.2,1.5-7.2,1.7-9.8,1.2-21.9-1.2-45,0-66.9.2-3.2,0-4.7,3.5-5.7,6.1-1.8,16.1-1,22.7-1.1,9.4,0,19.1-.4,28.5-.3,2.9,0,11.5-.1,13.1,2.2.1.2,1.3,2.5,1.3,2.7v86h0ZM58.5,168.4h32.5c0,0,1-.9,1.4-1v-26.5c0-3.1-.3-6.5-.4-9.6-.2-17.6-.1-35.2-.9-52.7-3.1-4.6-8.2-2.4-12.4-2.5-5.3,0-10.9-1-16.3-.5-2.1.2-3.6,2.1-4.4,4-1.5,3.7.7,10.5.7,14.7,0,1.6-.5,3-.5,4.4,0,23,.4,46.1-.3,69l.6.7h0ZM53.4,78.7c-2,.5-10.7-2.8-11.7-1.3-1.5,9.8-.6,19.9-2.4,29.7v.6c5.1,2.6,9,7.2,13,11.1,1,.2.6-.4.7-1.1,1.1-12.9.1-26,.4-38.9M44.6,118.7c.6-.4-9-10.2-10-10.9l-27,.8c-.2.8.3.9.6,1.3,1.1,1.4,7.9,9.3,8.9,9.6,5.7,0,11.4.4,17.1,0,3.3-.2,6.8-1.4,10.3-.9M11.2,270v-139.6c0-2.4.8-4.7,2.1-6.7l-7.6-9.4c-1.8,11.5-1.2,23.3-1.5,35-.7,27.4-.2,54.4-.4,81.8,0,3.7-.7,7.5-.5,11.4.5,8.2,4.2,15.8,6.2,23.7l1.8,3.7h0ZM223.5,115.3c-4.3.1-9,0-13.3.3-1.3,0-5.2.6-5.7,1.8-1,2-.7,9.5-.7,12.1.5,32.6.5,65.4.9,98.1.2,19.9.8,39.9.5,59.8.5,3.4,5.8,4.3,8.6,4.6,7.4.7,20.1.6,27.6,0,3.3-.2,9-1,9.5-5,.1-25.4.8-50.7.4-76.1-.2-15.3-.7-30.5-.4-45.7.2-9.7.6-19.5.4-29-.1-7.5,2.1-19.1-7.9-20.7-5.3-.9-14.2-.2-19.9,0M201.1,118.3l-10.1-.9c-.8,7.7-1.1,15.4-1.3,23.1-.6,14.4-1.1,29.4-1.3,44,0,5.4,0,10.8,0,16.2,4,2.6,7.5,5.8,11.6,8.2.6-5.9.9-11.9.7-17.8-.2-18.7-.7-37.5-.9-56.2,0-5.5,0-11.2,1.3-16.5M91.2,175c-1.4.3-2.8-.5-4.2-.5-9.4,0-19.6,1.4-29,.5-3.5-.3-3.5-2.4-3.7-5.5-1-12.2,2.2-31.2-1.6-41.9-1.3-3.7-3.7-6-7.8-5.8-4.5.1-9.7,1.3-14,1.4-2.7,0-9.4-1.2-11.6,0-1,1.2-1.8,2.4-2.7,3.7-1.6,3.3-.3,4.3-.5,7.4-.1,2.4-.8,5.1-.9,7.4-1.1,32.4.7,65.4.2,97.9.8,2.2,2.3,4.3,4.9,4.4.8,0,1.7-.4,2.6-.4,6.2,0,13.8.6,19.8,0,3-.3,4.7-1.5,5-4.6.5-4.1-.9-8.6-.9-12.7,0-3.2,0-11,1.6-13.4,1.5-2.4,5.6-4.1,8.3-4.4,6.2-.7,13.1-.3,19.3-.4,3.7,0,8.7.2,12.3-.4,1.6-.3,2.9-3.8,2.9-5v-27.5h0ZM99.3,168.4h41.1l-7.5-5.9c-4.8-3.8-10-3.6-16-3.8-6.7-.2-13.3.5-20,.5l.9,9.7c.6.2,1.2-.4,1.5-.4M153.9,289.8h46.2c1.6-2,.3-5,.2-7.2-.4-13.9.3-27.9.5-41.8,0-7.4.1-14.8-.3-22.2-.7-2-2.4-3.5-4.4-4h-41.3c-1.3-.2-5.2-2.9-5.7-4-1.5-3.4-.4-14.6-.6-19.1-.1-2.5-.7-11.3-1.4-13.1-.5-1.6-2.1-2.6-2.7-4.1h-41.9c-5.4.4-5.2,3.4-5.5,8-.4,6.4.4,13,.5,19.4,0,11.1-1.1,24.9,0,35.6.2,1.5.7,5.2,2.4,5.5l43.5-.4c2.9.6,6.4,2.3,6.8,5.5v39.6c0,1,2.9,2.3,3.7,2.4M194.5,210.6c-3.9-3.4-8.2-7.9-13.5-8.7-5.6-.9-11,.1-16.6.3-3.7.1-7.5-.1-11.2,0-.2,1.7,3.2,8.4,4.6,8.4h36.7,0ZM274.8,206.2h-20c.5,1.2,1.2,2.4,2,3.5.5.7,2.1,2.7,2.8,2.9,3.7-.3,7.5-.4,11.2-.3,4.2.1,9,.8,13.1.9.9,0,2.4.4,2-.9-3.3-.3-8.8-5.7-11.2-6.2M260.2,287.5c.5.5,5,2.5,5.9,2.6,4.8,1.1,15.6,2,20.6,1.9,1.3,0,5.4-.5,6.5-1,.6-.3,4.3-3.6,4.6-4.2,1.1-2.3.4-7.2.5-10,1-17.9.9-34.1-1.7-51.9-.2-1.4.2-3.1-.1-4.3-.6-2.1-6.5-3.7-8.5-3.8-7.4.5-17.1-2.3-24.2-1.8-2.9.2-5.5,2.9-6.5,5.4-.5,1.3-.7,7.4-.8,9.3-.5,13.1,1,26.1,1.8,39.2.3,5.1-.2,10.3.4,15.4.3,1.1.8,2.2,1.5,3.2M87.9,216.4h-35c1.3,4.2.7,8.6.9,13,.2,4,1.4,10.7.2,14.3-1.2,3.7-2.4,5.6-6.6,5.7-5.7.2-11.7.3-17.5.4-4.6.1-9.3-.1-13.9,0-.2,3.5-.8,7.3-.9,10.8-.2,5.6-.7,16.4,0,21.6,0,.5.1.9.4,1.3.5.8,7.7,5.8,8.6,5.9,1,0,2-.4,3-.5,34.1-.5,68.4.9,102.4.9,5.4,0,10.7,0,16.1,0l.4-40.8c-.9-.4-1.8-.6-2.8-.5-14.6-.8-29.5.5-44,.5-8.2,0-6.8-14.8-7.3-20-.2-2.4-.9-8.4-2-10.3-.7-.8-1.4-1.6-2.2-2.2"/>
            <path id="Path_7225" class="st2" d="M130.8,51.5c-6.1-.7-12.2-1-18.3-.9-6.1.2-13.7,1.8-19.8,0-3.8-1.1-4.4-4.2-5-7.8-1.3-8-.9-16-1-24.1,0-2-.6-3.8-.4-6.1.2-2.2.9-4.3,2.2-6.1C94,4.2,99.1.9,105.1,0h84c5.7,1.6,7.3,8.6,7.7,13.8,1.1,15.6-.3,33.5-.5,49.2,0,6.9,1.1,18,0,24.1-1,4.9-7.1,4.1-10.7,4.3-8.2.4-20,.9-28.1.4-4.3-.2-17.8-4.8-21.5-7.1-.9-.5-4.1-3.3-4.2-4.1-.2-5.7.3-11.5,0-17.2-.2-3.8-1.6-8-.9-12.1M100.5,4.4c-2.1,7.6-.9,15.3-.4,23,.1,2.4,0,14.6,1.3,15.9,12.7,3.5,27.3-.2,40.1,2.2,3.6.7,7.4,1.5,8.9,5.1,2.2,5,.8,16.7,1.1,22.6,0,1.8.7,3.5.9,5.3.4,4.8-1.7,8.6,4.7,9.4,4.6.6,8.7,0,13.1,0,4.9,0,16.8.7,20.5-2.8,2.2-2.2.9-4.7.8-7-.2-15.1,1.4-29.9,1.8-44.9.2-9.3,1.6-16.2-3.4-24.7-3.7-6.2-11.9-4.6-18.4-4.5-14,.2-28.2.9-42.2.9-9.6,0-19.2-.7-28.8-.4M97.4,46.2c-.3-2-1.7-3.9-1.8-6,0-1,.5-2,.5-3,0-10.6-.3-21.3.2-31.9-2.2,1.4-6.4,2.3-7.2,5.2-.6,2.4-.2,11-.1,14,.2,5.3,1.1,10.5,1.8,15.8.3,2.5-.4,5.5,1.5,7.7l5.1-1.8ZM143.3,51c-2.5-.4-6,.3-8.6,0-.8,1.9,0,3.3,0,5,.1,7.2-.2,15.3.4,22.4.2,2.7.4,3.7,3.1,4.4,3,.8,6,1.5,9,2l.7-31c-.2-1-3.6-2.7-4.6-2.8"/>
            <path id="Path_7226" d="M240.6,250.1c-1.6,1.4-5,.5-6.7.5-4.5,0-12.5.3-16.6-1-.7-.2-1.7-.5-1.7-1.4.1-1,1-1.6,2-1.6,4.4.4,8.8.7,13.2.9,2.4.1,8.6-.8,9.9,1.1.5.3.1,1.2-.1,1.4"/>
            <path id="Path_7227" d="M240.7,168.4l-.2,1.3-.5.3c-3.1.9-5.9,0-8.7,0-2.7,0-16.6.4-17.8-.9-.8-.9,1.4-1.1,1.6-1.2,1.9-.3,5-.5,6.9-.6,2.2-.1,18.2.1,18.7.9"/>
            <path id="Path_7228" d="M238.9,211.1l-1.2,1.7c-7.1.3-14.2,1.2-21.2-.4-.1-.7.1-.9.8-1.2.9-.4,6.2-1,7.4-1,1,0,1.8.4,2.6.4,3.9,0,7.8.1,11.6.4"/>
            <path id="Path_7229" d="M190.1,248.9c.6.7-.2.8-.6,1-1.9,1.1-8.6,1.6-11.1,1.7-4.7.2-13.4.2-18-.5-3.1-.5-2.6-3.4.4-3.5.9,0,1.8.5,2.6.5,5.8-.2,9.6.7,14.9.9,2.2,0,10.6-1.2,11.7,0"/>
            <path id="Path_7230" d="M135.6,210.2v1.3c-.8.3-1.6.4-2.4.5-5.9.3-11.7.3-17.6,0-.9,0-7.3-.9-7.3-1.5,9-2,18.3-2.1,27.3-.2"/>
            <path id="Path_7231" d="M150.6,224.5c.3-.5.9-.8,1.5-.6,1.8.6,1.1,9.3,2,11.2l-1.9,2.8c-.3,0-1.5-2.1-1.5-2.4,0-2.3-.5-9.4,0-11"/>
            <path id="Path_7232" d="M51,258.6c.7.5.8,1.3,1,2.1.7,2.7,1.5,13.5.9,16-.2.7-.6,1.6-1.4,1.6-.8,0-.9-.5-1.1-1.1-.9-3.8-.4-12.5,0-16.7,0-.8-.1-1.4.7-2"/>
            <path id="Path_7233" d="M101.3,279.7l-1.4-.3c-.5-.9-.2-2.1-.5-2.9-.2-.6-.9-1-1.1-1.5-.8-2,.3-10.5.8-13.1.1-.7-.2-1.5.7-2,1.8,6.4,1.6,13.2,1.5,19.8"/>
            <path id="Path_7234" d="M85.1,247.6c.8.9-2.4,1.7-2.9,1.7-1.6.1-4.2,0-6.1,0-3.6.1-7.2-.1-10.8,0l.2-1.3.5-.3c3.6-.7,7,0,10.5,0,1.7,0,7.5-1.2,8.6,0"/>
            <path id="Path_7235" d="M56,199.2l-2.6-.6c-.3-.2-.4-.5-.5-.9-.4-2.2-.3-12.5,0-15,0-.9.4-1.8,1.1-2.4,2.5,5.9,1.2,12.6,2,18.9"/>
            <path id="Path_7236" d="M45.5,166.7l.4,1.1c-.2.4-.6.6-1.1.7-3.1.5-10.8.6-14.1.4-1.4,0-2.7-.5-4.2-.5v-1.3c.8.4,2-.4,2.4-.4h16.5Z"/>
            <path id="Path_7237" d="M25.3,211.1c-.6-.6.4-1,.9-1.1,1.7-.3,3.4-.5,5.1-.7,2.7-.3,7.1-.7,9.7-.5.8,0,1.4-.1,2,.7-.5.6-1.1,1.1-1.9,1.2-2,.4-4.1.7-6.2.8-1.5,0-8.8.2-9.5-.4"/>
            <path id="Path_7238" d="M67,120.1c2.3-.9,4.2,0,6.4,0,3.2,0,6.5-.2,9.7.4,1.8.3,1.4,1.6-.4,1.8-1.8.2-3.9-.2-5.7,0-3.3.3-9.1,2.9-9.9-2.2"/>
            <path id="Path_7239" d="M289.1,250.2c-3,.7-6,1-9,.9-1,0-2-.4-3-.5-1.5,0-13.4.2-13.4-1.5.5-.8,1.2-.6,2-.7,5.1-.4,11.7-.8,16.7-.4.6,0,7.8.9,6.8,2.2"/>
            <path id="Path_7240" class="st2" d="M182.2,51.9c-4.7,1.8-9.4,0-14.3-.5-1.2,0-2.2.5-3.4.5-1.1,0-6.4-.8-6-2.4,1.7-2,3.9-.7,5.9-.7,4.6,0,11.5-.2,15.8.5,1.6.2,2.3,1,2,2.6"/>
            <path id="Path_7241" class="st2" d="M147.4,13.7c.4-.1.9,0,1.3.4,1.3,1.1.2,2.5.2,3.8-.1,4.7,0,9.8-.5,14.5-.1,1.2-.4,2.6-1.5,3.3-.6-.3-.9-.9-1.1-1.5-.6-2.9,0-8.6,0-11.9,0-2-1.5-7.7,1.6-8.5"/>
          </g>
        </g>
      </g>
    </g>
  </g>
</svg>