<?xml version="1.0" encoding="UTF-8"?>
<svg id="Layer_2" xmlns="http://www.w3.org/2000/svg" version="1.1" viewBox="0 0 103.6 132.5">
  <!-- Generator: Adobe Illustrator 29.6.1, SVG Export Plug-In . SVG Version: 2.1.1 Build 9)  -->
  <defs>
    <style>
      .st0 {
        fill: #fff;
      }
    </style>
  </defs>
  <g id="Layer_1-2">
    <g>
      <path class="st0" d="M71.3,127.7l3.6,3.7,11.3-6.9-.8-2.5,3-2.1,6.9-4.8,3-3.4,1.2-3.2v-3.8c.1,0-.4-1.1-.4-1.1l1.2-.3,1.7-2.3,1.3-5.5-1.6-4.7-7.9-11.8-2.1-.6-2.1-.9-2.9-.9-7-.3-6.8,1-7.3,1.3-15-32.5,6-3.3,7.3-6.5,4-4.9,2.2-4.8.4-4.7-9.2-15.3-8.6-2.2-3.8-4.1-10.7.9-12.3,3.4-10.5,5.4-8.2,6.9-4.9,5.9,1.9,4.9-1.8,3.2-1.4,8.4,5.1,10,2.2,2.7,6.6,3,6.9.8,10.6-1,5.4-2.2,14.5,32.3-1.2,2.1-5.4,3.5-5,4.1-2.7,3.8-3,5.5,3,9.1s.9,8.3,1,8.6,1.7,1.9,1.7,1.9l4.6,2.6,7.3,1,1.7,2.1,2.9,1.4h4.6c0-.1,7-1.3,7-1.3l2.6-1.5h0Z"/>
      <g>
        <path d="M53.3,4.3c2.2.1,4.9.7,6.9,1.5,1.9.8,2.9,2.8,4,4.4,1.8,2.5,5.9,8,6.4,10.9,1.8,9.2-8.7,18.5-15.4,23.2-1.2.8-2.6,1.5-3.8,2.3l-.2.3,14.2,30,.9,1.3c2.3-.7,4.5-1.5,6.9-1.9,5.8-1,13.6-.8,19,1.4,2.7,1.1,3.2,2.2,4.7,4.4,1.8,2.6,6.3,8.5,6.6,11.6.2,2.3-.6,6.5-1.8,8.6-.3.5-1.2,1.4-1.3,1.9s.3,1,.3,1.7c0,.7-.4,3.3-.6,4-1,3.5-9.1,9.7-12.2,11.7-.3.2-1.3.6-1.4.8-.3.5.9,2,.9,2.6.4,3.9-6.1,7.4-9.4,7.7-.7,0-3.2,0-3.8-.1-1.7-.4-1.8-2.1-2.7-3.3-2.2.8-4.5,1.2-6.8,1.6-1.6.2-6.8.9-8.1.6-.3,0-2.8-1.4-3.1-1.6-.6-.4-.8-1.1-1.3-1.6-3.8-.4-7.7-1.1-10.9-3.4-2.3-1.7-6.2-8.2-7.7-10.9-1.4-2.6-.7-6,.1-8.8,2-6.6,9.2-14,14.8-17.8.4-.3,3-1.8,3.1-2-.1-.4-.5-.8-.6-1.1-4.1-9.8-8.5-19.9-13.2-29.5,0-.1-.4-.8-.5-.8-.6.5-1.4.7-2.1.9-7.5,2.4-19.1,2.9-26-1.4-1.6-1-2.5-2.2-3.6-3.8-2.1-2.9-3.7-6.1-5.4-9.3-.5-4.4,1.1-9,3.4-12.6-.5-1.3-2.2-3-1.7-4.5.4-1.3,3.3-4.5,4.4-5.6,4.2-4.5,9.5-8.9,15.2-11.5C29.2,2.2,39.8-.6,48.4.1c.4,0,1.6.2,2,.3.7.2,2.7,3,2.9,3.8h0ZM42.5,1.6c-.2-.2-4.1.3-4.7.4-.2,0-.3,0-.4.2.8.5,1,2.4,1.4,2.8.2.2.4.2.6.2,1.3,0,3-.7,4.4-.7,0,0-1.3-2.9-1.3-2.9ZM35.2,2.9c-.2-.1-2,.4-2.3.5-4.6,1.3-9.1,3-13.3,5.3-2.1,1.2-4.1,2.5-6.1,3.8-.2.3.4.9.6,1.2.6,1.3.2,1.9,1.9.8,1.3-.8,2.5-2.1,3.9-2.9,4.2-2.5,9.9-4.3,14.6-5.4.7-.2,1.3-.3,2-.4.1,0-.6-1-.8-1.2-.2-.5-.5-1.1-.6-1.7h0ZM58.7,11.7l-2.8-5.9c-3.5-.9-7.1,0-10.6,0,.8,1.5,1.4,3.6,2.2,5.1.2.3.4.6.8.8,3.5-.4,7-.4,10.5,0h0ZM21.1,21.1h.4c5.3-3.2,11.6-7.4,17.7-8.5.5,0,1,0,1.4,0,.4,0,2.9-.6,3-.6.2-.1.2-.2,0-.4l-2.3-5.2h-.2c-1.9.3-3.9.5-5.8.9-5,1-9.1,2.6-13.5,5.1-1.4.8-2.8,1.4-4,2.3l3.3,6.5h0ZM48.2,37.3c-.3.3-1,.4-.9,1l3.5,7.4c1.1-.5,2.2-1.2,3.2-1.8,3.8-2.5,7.7-5.7,10.8-9.1,3.4-3.6,5.7-8.2,4.6-13.3-.6-2.5-5.4-6.3-7.7-7.3-6.2-2.6-18.8-1.4-25.3.4-10.2,2.9-25.9,15.3-29.3,25.5-1.2,3.7-2,9.3,1.7,11.7,5.7,3.7,13.2,4.4,19.8,3,.5,0,3-.6,3.2-.8.3-.3,0-4,.1-4.7l-.4-4.4c-2.4-.1-5.4-.9-7-2.8-1.7-1.9-1.8-3.2-1-5.5,2.9-9.2,14.9-12.2,23.3-10.5,1.7.4,2.2.6,2.7,2.3.3,1.2.8,3.4.7,4.6-.1,1-1.2,3.6-1.9,4.4h0ZM10.1,15.5c-.3-.3-2.3,2-2.6,2.2.6.6,1.1,1.5,1.3,2.4.2,0,.2,0,.4-.1.2-.1,1.8-1.7,1.8-1.8l-.9-2.6h0ZM16.1,15.9c-.5.5-2.5,1.7-2.5,2.4l3.6,6.2,2.4-2.2-3.5-6.3h0ZM8.5,23.3c-.2,0-.2,0-.4.1-.5.4-2.6,3.3-3.1,4-.9,1.2-1.8,2.5-2.3,3.9l3.6,7.4c.2.2,1.1-2,1.2-2.2,1.1-2.2,2.5-4.3,3.9-6.2l-2.9-7h0ZM45.8,29.1l-1-2.5c-.5,0-2.4-.5-2.6-.2l1.1,2.3,2.5.4ZM39.5,26.5c-2.5.1-4.9,1-7.2,2-.7.3-1.7.8-2.3,1.1-.4.3,0,.4.2.7.2.4.4.9.7,1.4,2.8-1.9,5.9-3,9.4-3l-.7-2.2h0ZM46.5,36.9c.4,0,.5-.5.8-.7s.5-.3.6-.5c1.2-1.4,1.4-3,0-4.4-2.2-2.1-7.2-2.1-10.1-1.5-4,.8-7.3,2.9-9.8,6.2-1,1.3-2,4.8-.7,6.2,1.2,1.2,3.5,1.2,5.1.9.2-.2-1.4-2.8-1.4-3.3-.1-1.7,2.3-3.9,3.6-4.7,2.4-1.5,6.9-2.5,9.6-1.7,1.7.6,1.7,2,2.4,3.5h0ZM26.2,36.7l2.1-2.6-.7-1.9c-.1-.1-2,2.6-2.1,2.9l.7,1.6ZM40.7,34.5c-2,0-5,1.4-6.5,2.6-1.3,1-2.2,1.9-1.4,3.7.2.4.5.7.7,1,.3.5.4,1.2.7,1.8,5,10.6,10.2,21.1,14.8,32,.8,1.9,1.7,3.8,2.5,5.7.2.6.6,2.6,1.5,2.5.8,0,3.8-2,4.8-2.4.9-.4,5.9-2.3,6.3-2.9.3-.5-1.1-2.8-1.4-3.4-4.9-10.7-9.7-21.4-14.5-32-1-2.2-1.9-5.1-3.1-7.2-.2-.4-.5-1-1-1.1-1,0-2.2-.2-3.3-.1ZM91.4,83.3l-3.6-5.8c-2.9-.8-6-.4-9-.6l3.3,6.2c3.1-.3,6.2,0,9.3.2h0ZM75.6,77.4c-1.4.4-2.9.4-4.3.8-2,.5-4.9,1.4-6.9,2.1-2.8,1-5.5,2.3-8.2,3.6l3.4,5.4c5.8-2.8,12.1-5,18.5-5.5l.2-.2-2.8-6.1ZM51.4,126.7l-1.8-2.9c-.9-2.4-4.1-7.1-3.5-9.6.2-.7,2-3.8,2.5-4.5,3.8-5.9,12.3-12.2,18.8-14.8,5.4-2.2,16.8-4.2,22.5-3.6,1.3.2,2.5.3,3.4,1.4.9,1,2.3,3.2,3.1,4.4,1.2,1.9,2.3,4,3.5,5.9.7,0,2.1-3.8,2.2-4.5.7-3.3.4-5.5-1.7-8.1-4-4.8-9.4-6.1-15.4-6.2-6.3,0-14.7,1.3-20.4,3.9-6,2.7-11.1,6.4-15.8,11.1-5.4,5.4-11.2,12.6-9.5,20.8.7,3.5,5.8,5.4,8.9,6.2l3.2.3h0ZM54.1,85.4l-6.2,4c.4.7,3.2,5.2,3.5,5.3.2,0,.3,0,.4-.1,1.5-1.6,3.3-2.6,5.1-3.7l-2.6-5.2c0-.1-.1-.3-.3-.2h0ZM87.6,92.6h-3.8l4,7.7h4.7c0,0-4.9-7.7-4.9-7.7ZM84.5,100.3l-4.1-7.3c-2.8.4-5.6.9-8.3,1.7-1.2.4-3.1.9-4.2,1.5-1,.5-1.9,1.4-3.1,1.6l3.7,6.7c2.9-1.1,5.8-2.4,8.8-3.2,2.4-.6,4.7-.7,7.2-1h0ZM43,93.5c-.2,0-.2,0-.4.1-1.3.9-4.1,4.7-5,6.1-.5.8-1,1.6-1.4,2.4l3.4,7.4c.9-1.7,1.9-3.4,3-5,.5-.7,3.6-4.2,3.6-4.5.1-.9-3-5.3-3.2-6.6ZM63,99.2c-.2-.2-2.9,1.5-3.1,1.7,0,0-.2.2-.2.3l4.2,6.5c.4-.3,2.7-1.7,2.7-2-1.6-1.9-2.7-4.3-3.6-6.6ZM85.8,121.5c.4,0,.6-.3,1-.6,2.4-1.6,5.9-4,7.9-6,.6-.7,3.7-4.4,4-5.1.4-.9.7-3.9.4-4.7,0-.1-1.3-1.9-1.5-2-2.2-2-6.8-1.7-9.6-1.7-.7,0-1.4-.2-2.2-.2-6.8.5-13.1,1.8-18.8,5.7-5.3,3.6-12,9.6-14.1,15.7-1.8,5,3.2,8,7.7,7.4,2.2-.3,4.5-1.1,6.8-1.4.2-.1.2-.6.1-.9-.2-4.9-1.8-10.3,2.5-14,2.3-2,7.2-3,10.1-2.3.6.1,1.2,1.2,1.5,1.7,1.6,2.6,2.7,5.6,4.1,8.3h0ZM53.9,118.6c1.3-2.1,3-4,4.6-5.9-1.8-2.1-3.3-4.7-4.3-7.3-.7.4-4.8,5.1-4.8,5.4,2.2,2,3.1,4.9,4.2,7.5,0,.1,0,.2.2.3h0ZM78.3,113.1c0,0-.9-.7-.9-.7-1.9-.6-6,1.1-7.3,2.7-.9,1.1-1.9,2.8-1.3,4.2.5.3,1.7-1.7,2-2,1.2-1.3,3.3-2.4,5-2.9.5-.2,3-.4,2.5-1.3h0ZM79.9,115c-.8-.9-3.1,0-4.1.2-.3,0-.6,0-.9,0-1.7.4-3.8,2.6-4.6,4.1-.3.6-1.2,2.7,0,2.8.9.2,1.3-1,1.9-1.6,2.1-2.3,4.9-3.9,8-4.1.2-.4.1-1.2-.2-1.5h0ZM81.5,119.9c.2-.3.4-1.2.3-1.6-.1-.4-1-1-1.3-1.1-.7-.2-3.7.7-4.4,1-1.8.8-5,3.8-4.9,5.8,0,.8.7,1.6,1.5,1.4.3,0,1.8-2,2.1-2.4,1.2-1.2,2.8-2.1,4.5-2.5.6-.2,1.9,0,2.3-.7h0ZM81.8,120.7c-3.5.2-6.5,1.8-8.4,4.8-.7,1.1-1.4,4.1.7,3.2.4-.2,1.9-1.8,2.6-2.2,1-.7,2.2-1.2,3.3-1.6.8-.3,2.9-.5,3.4-.9,1.7-1.3.2-3.4-1.7-3.3Z"/>
        <path d="M17.5,49.7c-.2,0-.4,0-.6-.2-1.4-.7-5.4-4.1-6.6-5.3-.2-.2-.3-.2-.3-.5.2-.2,1.7.8,2,1,1.1.7,2.4,1.8,3.4,2.7.2.2,2.5,2,2.1,2.3h0Z"/>
        <path d="M62.6,23.9c-.4,0-.8-.1-1.1-.3-1.5-.6-3.3-1.7-4.8-2.5-1.2-.5-2.4-1-3.5-1.5-.2,0-.4-.1-.4-.4,1.8.4,3.5,1,5.1,1.8s3.5,1.6,4.7,2.9Z"/>
        <path d="M15.6,50.9c-.4.4-2.5-1.4-3-1.7-.2-.2-2.6-2.2-2.2-2.5.9,0,1.7.9,2.4,1.5.5.4,1.2,1,1.8,1.4.1.1,1.2,1.2,1.1,1.3Z"/>
        <path d="M63.9,26.8h-.7c0-.1-8.2-3.8-8.2-3.8,2.6.2,5.5,1.7,7.8,3,.3.2.8.4,1.1.8h0Z"/>
        <path d="M16,45.9c-.1.1-1.4-.7-1.6-.8-1-.7-2.9-2-3.7-2.8-.2-.2-.4-.3-.4-.6.3-.3,3.5,1.9,3.9,2.3.3.2,2.1,1.6,1.8,1.9h0Z"/>
        <path d="M62.3,28.7c-.2,0-.4,0-.7-.1-1.5-.5-3.7-1.5-5.1-2.1-.2-.1-.4,0-.3-.4,1.8.2,3.9,1,5.5,2,.2.1.6.3.6.6Z"/>
        <path d="M63.3,124c-.4.3-4.3-1.4-4.9-1.8-.2,0-.4-.2-.4-.4,1.2,0,2.6.6,3.8,1.1.1,0,1.9.8,1.6,1.1h0Z"/>
        <path d="M92.9,108.2c-1.8,0-3.4-1-5-1.6l-1.8-1c1.5.3,3.1.9,4.5,1.5.8.3,1.7.6,2.3,1.1h0Z"/>
        <path d="M93,110c-1.9-.2-4-.9-5.8-1.6-.2,0-.4,0-.4-.2,1.5.2,3.3.6,4.8,1.1.5.2,1.2.4,1.5.8h0Z"/>
        <path d="M62.1,126.3l-.6-.2-3.6-2c1.5.3,3,1.2,4.2,2.2Z"/>
        <path d="M50.7,73.1c.3,0,.6,0,.9,0,1.4.3,4,1.2,5.4,1.7.8.3.9.9.2.9-.9,0-5.4-1.5-6.1-2-.3-.2-.4-.2-.3-.6h0Z"/>
        <path d="M39.8,46.4v-.4c.5,0,.9.1,1.4.2,1.3.3,3.9,1.3,5.1,1.9.3.2.6.3.8.5l-.5.2c-2.3-.4-4.5-1.7-6.7-2.5Z"/>
        <path d="M55.9,72c-.2.2-2.1-.5-2.5-.6-1.1-.4-2.4-.9-3.4-1.4,0,0-1-.4-.8-.6.7.2,1.4.3,2.1.5.7.2,3.8,1.2,4.2,1.6.2.1.3.2.3.5Z"/>
        <path d="M44.4,45.2h-.7c0,0-4.6-2.2-4.6-2.2,1.3-.1,2.3.2,3.5.7.3.1,2.4,1,1.9,1.5h0Z"/>
        <path d="M55,68.7c.5.5,0,.8-.6.7-.7-.1-3.1-1.2-3.8-1.5-.2,0-.4,0-.3-.3.4,0,.9,0,1.3,0s3.2.9,3.4,1.1h0Z"/>
        <path d="M46.3,50.7c-.5.4-3.8-1.1-4.4-1.5-.2,0-.5,0-.4-.3.1-.3.3-.2.5-.1.5,0,3.6,1.2,3.9,1.4.2.1.3.2.3.5h0Z"/>
      </g>
    </g>
  </g>
</svg>