<?xml version="1.0" encoding="UTF-8"?>
<svg id="Layer_2" xmlns="http://www.w3.org/2000/svg" xmlns:xlink="http://www.w3.org/1999/xlink" version="1.1" viewBox="0 0 346.5 271">
  <!-- Generator: Adobe Illustrator 29.6.1, SVG Export Plug-In . SVG Version: 2.1.1 Build 9)  -->
  <defs>
    <style>
      .st0 {
        fill: none;
      }

      .st1 {
        fill: #fff;
      }

      .st2 {
        fill: #ff60df;
      }

      .st3 {
        clip-path: url(#clippath);
      }
    </style>
    <clipPath id="clippath">
      <rect class="st0" width="346.5" height="271"/>
    </clipPath>
  </defs>
  <g id="Layer_1-2">
    <g>
      <path class="st1" d="M24.8,265.3c1.1.7,15.9-4.6,15.9-4.6l-3-80.7-3.2-86.5-.9-27,72.7-.2,201.6-4.4.2,194.9,21.5-.9-1.4-27-.5-218.9-9.7-9.3-10.4,11v9.8c.1,0-83,.9-83,.9l-192.8,2.8-.4-14.5-11.1-7.2-9.2,10,3.8,116.7,5.3,97.5,1,37.7h3.6,0Z"/>
      <g class="st3">
        <g id="Group_8969">
          <path id="Path_6604" class="st2" d="M297.9,261.1l-2-9.6.4-7.5,2.5,1.5,7.5,11.5,2.6-10.4h3.2l4.1,10.4,8.5-20.7,3,10.9.9,8.9,10.2-12.9v9.7l6.3-6.2.4,5.4.3,4-1.1,3.5-46.9,1.6h0Z"/>
          <path id="Path_6603" class="st2" d="M10.1,269.7l-6.9-5.8-2.3-5,8.4,3.2,3.8,1-.8-7.1.4-1.4,2.3,3,3.3,4.5c.5-.3.9-.7,1.3-1.1.5-.5,1.1-.9,1.8-1.3l2.5-3.8,1.9-1.4,3-9.5,1.5-.5,3.2,18,5.1-4.4,5.3.7,8.5-8.5v14.7s2.3-.5,2.3-.6,2.3-2.8,2.3-2.8l3.1,8.6-50.2-.6h0Z"/>
          <path id="Path_6569" d="M33.6,21.8c.3.4.6.4,1,.5,5.9.7,13.8-.3,19.8-.3,72.2-.9,144.3-1.8,216.5-2.7,11.7-.1,23.3-.1,35-.3v-9.3C305.8,9.6,318.1,0,318.1,0l.7.2,9.9,8.4.6,3.9c0,64.1.4,128.1.9,192.1.1,13.5-.1,26.8.6,40.2.1,2.3-.1,4.7,0,7.1,2.4-2.7,3.9-6.2,6.3-8.9,5.1-5.7,2.7,5.1,2.7,7.6,1.3-.9,4.1-5.8,5.8-5.4.4.1.6.4.8.8.2.7,0,11.9-.2,12.8,0,.6-.5,1-1.1,1-.6,0-1-.5-1-1l.3-9.8c-1.7,1-3.7,5.7-6,4.6-1.9-.9-.4-5.5-.3-7.2,0-.3.2-1.1-.3-1.1l-6.8,10.5c-3.4,3.7-5-.3-5.5-3.5-.8-4.6-.1-9.6-.8-14.2-1.9,2.2-6,19-7.4,19.7-.4.2-.9.2-1.3.1-1.6-.5-3.9-8.5-5.5-9.9-.5-.1-1,.8-1.2,1.2-.7,1.8-1,7.4-1.8,8.4-.9,1.2-3-1.4-3.6-2.1-1.8-2.2-2.8-5-4.2-7.5-.3-.4-2.1-3.4-2.5-3-.8,4.5.3,10.7,1.3,15.1-.2,1-1.1,1.3-1.6.4-.8-1.3-1.9-11.5-1.8-13.3.3-4.2,1.5-6.3,4.8-2.4,2.2,2.6,3.1,6.2,5.4,8.6l.3-188.4h-20.9c-3.4.4-6.8.1-10.2.2-66.9.9-133.9,2.3-200.8,3.3-11.8.2-24.3-.3-36.1.3-.4,0-2.2,0-2.2.4l7.8,188.7c2-1.7,3.2-4.3,5.3-6,1.1-.9,2.3-1.7,3.5-2.5,2.8-1.2,1.4,4.1,1.4,5.3,0,2.9,0,5.9,0,8.9.3.3,1.7-1.2,2-1.5.5-.6.8-2.1,1.7-1.7l4.4,9.6-.5.6c-.9.4-5.5-5.1-4.8-6.8-1.1.6-2.9,3.7-4.2,1.9-1-1.4-.2-11.7,0-13.9-.4-.5-3.7,2.9-4.1,3.3-1.7,1.9-5.8,8.3-7.7,9.2-.3.1-.6.1-.8,0-.9-.4-1.4-3.3-1.3-4.3-.7-.8-3.2,4.7-4.8,3.1-1.3-1.3-2.1-14.7-3.8-17.3-2.6,5.2-3.4,11.1-4.5,16.8-.7.5-1.5.7-2.3.5-.8-.2-1.4-2.2-2-1.8l-.6,1.7c-1.2.8-2.5-.9-3.1-1.7-1.4-1.6-2.2-4-3.8-5.4,0,.9,0,1.9,0,2.9s1.1,4.3.1,4.6c-3.7-.4-7.3-1.5-10.6-3.3,1.4,4,4.8,6.2,7.8,8.9l-.5.7c-3-.7-5.9-3.7-7.6-6.2-.8-1.1-4.3-6.7-1-5.9,2.2.5,5,2.5,7.6,3.2.9.4,1.9.5,2.9.5-.3-1.6-.5-3.2-.5-4.9.3-8.4,5.1,1.6,6.5,3.2.2.3.5.4.6,0l-2.1-51.9C13.9,143.3,11,78.5,8.4,13.7c0-.5.3-1,.7-1.4,1.3-1.7,5-5,6.8-6.4.9-.8,4-3.4,5-3.4l12.1,7.4c.3.4.5.8.6,1.2v10.8h0ZM325.7,234.4c-.1-15.5.2-30.9.3-46.4.2-38.9-.1-78.1,0-117.1,0-20,1.1-40.2-.4-60.2l-7.2-9-5.3,8.2c1.6.4,3.3-.3,4.7.7.4.2.6.2.4.8-.5,1.2-6.3.3-6.3.6-.1,57.6.4,115.3.3,172.9,0,17.7-.2,35.5,0,53.1,0,5.6,1.8,10.5,3.9,15.6.1.3.1.7.6.8.7-2.4,1.3-4.7,2.1-7.1,1.1-3.4,2.9-9.3,4.5-12.3.3-.5.5-1.1,1.1-1.4l1.3.6h0ZM30,31.2c-.2-6.1-.2-12.3-1-18.4l-8.8-7.7c-.6-.1-.4.2-.5.4-.5.6-4.4,6.9-4.1,7.1.8-.2,5.7.2,5.7,1.1-1.6,1.6-4.2,1.3-6.3,1.4,0,1.1.3,2,.3,3.1,0,14.1.9,28.2,1.5,42.3,2.5,62.6,4.5,125.3,7.8,187.9,0,1.4-.2,3.1,0,4.5,0,.4,0,.9.6,1,.4-2.5,2.1-9.2,4.5-10.4.4-.2.5-.2.9,0,1.3.8,3.2,15.3,4,17.6,1-.7,1.8-2.6,2.6-3.2.4-.4,1.3-.3,1.4-.4.3-.4-.3-2.4-.3-3.1-2.3-60.2-4.3-120.5-6.6-180.7-.4-11-.9-22.2-1.7-33.1l-7.6-9.5c1.7-.1,3.8,2.5,5,3.8.4.4,2.2,3,2.4,3,.7.2.4-.5.5-.8.1-1.4,0-2.7-.5-4l-6.1-7.5c2.8.6,4.4,3.8,6.3,5.7M305.9,24.9c-8.2.5-16.5.2-24.8.3-67,.8-134.2,2.8-201.1,2.4-14.7,0-29.4,1-44.2.9-.8.1-2,.7-2,1.6.2,8.6.9,17.3,1.2,25.8,0,1-.3,8.2.5,8.3l270.3-4.8V24.9Z"/>
          <path id="Path_6570" d="M72.6,57.9l-7.7-16.4-.7-.4-6.6,17.7h-.8c-1.5-4.4-3.1-8.9-4.5-13.3-1.4-4.4-1.8-9.2-5.4-12.5,1.7-.4,5.2-.8,6.3.7.7,1,1.8,6.2,2.3,7.9.3.8,1.6,5.3,2,5.5l5.9-11.5,1.8-1.3c3.4,4,5.4,9,7.7,13.7.5-.3,2-4.1,2.3-5,.7-1.8,2.4-9.3,3.3-10.2.5-.6,4.8-1.1,5.1-.9.5.3.3.5,0,.9-1.1,1.2-2,1.3-2.8,3.2-2.6,6.1-3.4,14.3-6.3,20.7-.3.8-.7,1.3-1.6,1.2"/>
          <path id="Path_6571" d="M257.6,29.7l-2.4,2.5c-1.8,2.6-6.3,21.1-7.9,22-.4.2-.9.2-1.4,0l-7.1-16.5c-1.4,3.4-2.9,6.8-4.2,10.2-.5,1.2-1.7,6.9-3.3,6.8-1.3-1-2-2.8-2.6-4.3-2.1-5.2-3.2-11.3-5.2-16.4-.8-1.8-1.8-2.5-2.9-4,0-.3,5.4-.4,6.1.8l5.3,16.2,6.2-14.4c1.2-.8,1.7,0,2.3,1,2.4,3.5,3.3,9.4,5.5,13.1,1.4-2.7,2.5-5.5,3.2-8.5.4-1.5,1.3-7.5,2-8.2.9-1,4.9-.3,6.3-.4"/>
          <path id="Path_6572" d="M166.6,47.5l-.2,10.5c-.4.7-3.7.4-4.5.3-1.5-.3.2-2.2.4-3.5.9-6.7-.5-14.2-.3-21l-1.5-2.1c1.1-1,2.8-.2,4-.1,4.9.1,9-.8,12.5,3.5,1.9,2.3,1.5,5.8.1,8.2-.5.8-2.3,2.3-2.1,3,2.1,2,4,5.7,6,7.5,1.3,1.2,3.4,1.7,4.7,2.8,0,.9-6,1.3-7.2.6-1.7-1-5.4-8.5-7.2-10.2l-4.8.5h0ZM173.1,36.1c-.7-.7-6-1.8-6.5-1.3.4,1.4-.7,9.3,0,9.8,3.1.6,8-1.4,7.9-5.1-.3-1.2-.7-2.3-1.3-3.4"/>
          <path id="Path_6573" d="M152.2,31.5h5.4c-.1.9-1,1.3-1.3,2.2-.6,1.9.4,6.8.4,9.1,0,2.2-.4,8.5-1.2,10.2-1.9,4.5-8.3,7-12.7,4.9-7.6-3.7-5.9-14.3-6.5-21.4-.2-2.4-.7-3.1-2.1-4.9l5.9.6c0,1.3.4,2.5.4,3.8.2,4.3-.5,13.7,1.8,17.1,2.1,3.2,8.6,2.9,9.5-.6.9-3.9.4-7.8.4-11.6,0-3,0-6.1,0-9.2"/>
          <path id="Path_6574" d="M126.7,45c7.6.8,7.3,10.8,0,12.5-3.2.5-6.4.8-9.6,1-.4,0-.9-.1-1.3-.3,0-1.3,1-1.8,1.2-3.1.3-2.7-.1-8.2-.3-11.1-.1-2.1-.5-8-1.3-9.5-.5-.9-1.5-1.3-1.4-2.4,1.8-.2,3.5-.4,5.3-.3,4,.1,10.4,1.1,11.2,5.9.6,3.5-1.4,5.2-3.8,7.3M120.3,43.8c3.9.8,8.6-1.6,6.8-6-.7-1.7-4.9-3-6.7-2.7-.8,2.8,0,5.8,0,8.7M120.9,55.8c3.5.2,8.8-.8,8.7-5.3,0-3.4-6.3-4.8-9-4.3,0,0,.3,9.6.3,9.6Z"/>
          <path id="Path_6575" d="M271.5,54.6c-1-.9-1.6-5.4-3.6-6.2h-10.4c0,0-1.4,6.2-1.4,6.2-.5.7-4.9.3-5.9,0l2.3-2.6,8.1-21.4c1.4-.4,3.3-.8,4.1.6l8.3,18.4c1.2,1.9,2.3,3.6,4.5,4.6-.3.4-.6.4-1,.5-1,.1-4.2.5-4.9,0M258.5,45.6h8.1l-4.6-9-3.5,9Z"/>
          <path id="Path_6576" d="M279.2,54.9c-.3-.8.6-1.1.7-1.5.3-.6,0-9.7-.3-10.2-.2-.5-2-2.2-2.5-2.9-1.9-2.5-4.1-6-6.2-8.2-.9-.9-2-1.7-3.1-2.2.3-.5.5-.3.9-.3.9,0,4,.1,4.5.3.5.2,2.4,2.7,3,3.3,1.5,1.8,3,4.4,4.6,5.9.2.2.2.6.7.5.9-.2,5.4-8.5,6.9-9.9,1.5-1.3,3.5-1,5.2-.5-2.6,2.1-4.1,5.6-6,8.4-1.4,2.2-3,4.2-4.5,6.3.8,2.6-.1,5.9.3,8.4.2,1.3,1.5,1.5,1.8,2.6h-6Z"/>
          <path id="Path_6577" d="M188.8,56.4c.3-1.1,1.1-1.9,1.2-3.2.4-3-.7-6.8-.4-9.9-1-1.6-2.6-3-3.7-4.5-1.5-2-3.3-5.5-5.4-6.6-.6-.3-1.6,0-1.4-.8,1.6.1,3.9-.9,5.3,0l6.6,8.7c1.7-2.3,3.2-5.1,4.9-7.3.2-.3,1.5-1.9,1.6-2,.6-.5,4.9-.6,4.7.5,0,.2-2.3,1.4-2.8,2-1.3,1.4-5.8,8.4-6.1,10.1-.3,2.7-.4,5.3-.4,8,.1,1.5.6,3.2,1.8,4.2l-.4.7h-5.6,0Z"/>
          <path id="Path_6578" d="M95.8,32.2c.3-.5,4.9-.1,5.1.4-.2.8-.5,1.2-.6,2.1-.8,6.8,1.4,14.3.4,21.2.8.8,1.9,0,2.7,0,1.9,0,3.6.6,5.6,0,1-.3,3.5-3.9,3.8-1.3,0,.7.1,3.7-.3,3.9l-15.2.8-.7-23.3-.8-3.7h0Z"/>
          <path id="Path_6579" d="M92.1,59.1c-2.1.3-4.4.7-6.3-.5.5-.8.8-1.7.9-2.7.4-4.5.3-17.7-.7-21.9-.2-.9-1.8-1.9,0-2.2,1.5-.1,3,0,4.4.2,1.7.3,0,1.9-.2,2.8-.6,1.8.3,3.9.4,5.8.2,4.8-.2,9.9.3,14.7.2,1.4.8,2.4,1.2,3.8"/>
          <path id="Path_6580" d="M30.3,52.5c-.5.5-3.1-2.3-3.5-2.7-1.9-1.9-4.1-4.4-5.9-6.5-.3-.4-1.9-2.2-1.5-2.5.6-.1.8.1,1.2.4,2.1,1.5,8,7.8,9.2,10,.2.4.5.7.4,1.2"/>
          <path id="Path_6581" d="M28.8,57.3c-3.7-2.7-6.7-6.7-9.3-10.5.6-.5,3.2,2.4,3.8,3,2,2.1,4.4,5,5.6,7.5"/>
          <path id="Path_6582" d="M27,60.3c-.5.5-4.2-3.1-4.7-3.6-.8-.8-3.1-3.4-3.5-4.3-.1-.3-.2-.8.2-.8.5,0,6.8,6.3,7.4,7,.4.4.6,1,.6,1.7"/>
          <path id="Path_6583" d="M18.4,55.8c1.3-.3,4.2,2.9,5.1,3.9.3.4,2.4,2.8,1.2,3-.7.1-6.2-5.3-6.5-6.1-.2-.4-.3-.7.2-.8"/>
          <path id="Path_6584" d="M29.7,45.9c-.4.4-2.4-2.2-2.7-2.6-2.3-2.8-4.5-5.9-6.6-8.8.6-.1.7.3,1,.6,2.3,1.9,5,5.5,6.7,8,.3.4,1.8,2.5,1.6,2.8"/>
          <path id="Path_6585" d="M34.5,206.5c-.6.6-6.3-7.2-6.7-7.8-.3-.5-.8-.9-.8-1.5.5-.5,2.9,2.1,3.3,2.6.6.7,4.6,6.3,4.2,6.8"/>
          <path id="Path_6586" d="M32.4,186.4c-.4.3-2.7-2.2-3-2.6-.5-.6-4.6-6.4-4.2-6.7,1.1-.1,1.9,1.3,2.5,2.1.5.6,5,6.9,4.7,7.2"/>
          <path id="Path_6587" d="M33.6,212.8c-.5.6-5.7-5.8-6-6.4-.3-.4-.4-.9-.3-1.4.5-.6,3.8,3.5,4.2,4.1s2.4,3.3,2.1,3.8"/>
          <path id="Path_6588" d="M33,196.9c-.3.4-3-2.5-3.3-2.9-.9-1.1-1.8-2.3-2.5-3.6-.2-.4-.2-.8.2-.8.5,0,6.2,6.5,5.5,7.2"/>
          <path id="Path_6589" d="M30.6,189.4c-.6.1-.9-.4-1.2-.8-.4-.4-3.3-4.1-3-4.3,1.4-.3,4.7,4.6,4.2,5.1"/>
          <path id="Path_6590" d="M323.9,116.8c-.2.2-1.8-1.1-2.1-1.3-2.6-2.3-4.9-4.9-7-7.7-.4-.5-.9-1-.8-1.8.5-.5,4.5,3.7,5,4.2.6.7,5.4,6.1,5,6.6"/>
          <path id="Path_6591" d="M314.6,203.8c.2-.2,1.5.6,1.8.8,1.5,1,6.2,5.8,7,7.4.2.4.7.7.2,1-.8.4-3.9-2.9-4.5-3.6-1-1-3.3-3.3-4.1-4.4-.3-.4-.6-.6-.4-1.2"/>
          <path id="Path_6592" d="M314.8,208.9c1.2,0,9.5,6.9,9.5,7.9,0,.5-.5.3-.8.2-2.8-1-6.3-5.6-9-7.3-.4-.3.1-.9.3-.9"/>
          <path id="Path_6593" d="M323,119.5c-.5.5-7.1-5.9-7.7-6.6-.2-.3-1.3-1.6-1-1.8.5,0,1,0,1.4.3.9.4,5.6,5.2,6.4,6.2.4.6,1,1.2.9,1.9"/>
          <path id="Path_6594" d="M322.4,101.8c-.5.6-8.3-8.6-8.7-9.6,1.4.2,2.8,1.7,3.8,2.7.6.7,5.4,6.4,5,6.9"/>
          <path id="Path_6595" d="M322.7,111.4c-.3.3-3.1-2.6-3.5-3-1.5-1.6-2.9-3.3-4.2-5.1-.2-.4-.6-.6-.4-1.2.5,0,.8.2,1.2.5,1.2.8,4.9,5.4,5.9,6.8.2.3,1.2,1.9,1.1,2.1"/>
          <path id="Path_6596" d="M321.8,105.7c-.3.3-2-1.5-2.3-1.8-1.4-1.5-3.4-3.9-4.6-5.6-.4-.5-.9-1-.9-1.6.8-.8,5.7,5.4,6.2,6.2.6.9,1.1,1.8,1.5,2.8"/>
          <path id="Path_6597" d="M322.4,221.8c-.4.3-2.7-1.5-3.1-1.8-.4-.3-4.7-3.9-4.4-4.2.5,0,1,0,1.5.1.9.3,6.7,5.2,6,5.9"/>
          <path id="Path_6598" d="M321.8,96.4c-.4.4-2.4-2.2-2.7-2.6-.5-.6-5.1-6.5-4.8-6.7,1.1.3,2.2,1.7,3,2.6.6.7,5,6.3,4.5,6.7"/>
          <path id="Path_6599" d="M321.8,207.4c-.4.4-4.3-3.4-4.7-3.9-.3-.4-.6-.6-.4-1.2.9-.9,5.7,4.5,5.1,5.1"/>
          <path id="Path_6600" d="M319.4,222.4c-.7.7-5.3-3.5-3.5-3.9.9,0,4.1,3.2,3.5,3.9"/>
          <path id="Path_6601" d="M321.5,204.4c-.4.4-3.2-2.4-3.6-2.9-.3-.3-.7-.5-.6-1.1,1.1-.3,4.7,3.3,4.2,3.9"/>
          <path id="Path_6602" d="M319.1,87.7c-1.3-.9-2.3-2.3-2.7-3.9,1.3.9,2.3,2.3,2.7,3.9"/>
        </g>
      </g>
    </g>
  </g>
</svg>